<?xml version="1.0" standalone="no"?>
<!DOCTYPE svg PUBLIC "-//W3C//DTD SVG 1.1//EN" "http://www.w3.org/Graphics/SVG/1.1/DTD/svg11.dtd" >
<svg xmlns="http://www.w3.org/2000/svg" xmlns:xlink="http://www.w3.org/1999/xlink" version="1.1">
<metadata>
Created by FontForge 20170812 at Mon Aug 27 03:53:06 2018
 By www-data
Copyright 2017 Dinamo \(Johannes Breyer, Fabian Harb\). |DCNT
</metadata>
<defs>
<font id="Favorit-ExtendedLight" horiz-adv-x="720" >
  <font-face 
    font-family="Favorit Extended Light"
    font-weight="300"
    font-stretch="semi-expanded"
    units-per-em="1000"
    panose-1="2 0 0 6 3 0 0 2 0 4"
    ascent="750"
    descent="-250"
    x-height="500"
    cap-height="700"
    bbox="-849 -250 2455 1053"
    underline-thickness="24"
    underline-position="-49"
    unicode-range="U+000D-FB02"
  />
<missing-glyph horiz-adv-x="710" 
d="M80 0v700h550v-700h-550zM130 52h450v596h-450v-596z" />
    <glyph glyph-name="f_f" unicode="ff" horiz-adv-x="772" 
d="M162 0v443h-141v57h141v91c0 69 42 109 103 109h151v-57h-130c-41 0 -56 -19 -56 -70v-73h295v91c0 69 42 109 103 109h151v-57h-130c-41 0 -56 -19 -56 -70v-73h156v-57h-156v-443h-68v443h-295v-443h-68z" />
    <glyph glyph-name="f_f_i" unicode="ffi" horiz-adv-x="1023" 
d="M162 0v443h-141v57h141v91c0 69 42 109 103 109h151v-57h-130c-41 0 -56 -19 -56 -70v-73h285v91c0 69 42 109 103 109h151v-57h-130c-41 0 -56 -19 -56 -70v-73h353v-500h-68v443h-285v-443h-68v443h-285v-443h-68zM862 590v85h78v-85h-78z" />
    <glyph glyph-name="f_f_l" unicode="ffl" horiz-adv-x="1023" 
d="M162 0v443h-141v57h141v91c0 69 42 109 103 109h151v-57h-130c-41 0 -56 -19 -56 -70v-73h285v91c0 69 42 109 103 109h318v-700h-68v643h-229c-41 0 -56 -19 -56 -70v-73h156v-57h-156v-443h-68v443h-285v-443h-68z" />
    <glyph glyph-name="fi" unicode="fi" horiz-adv-x="620" 
d="M162 0v443h-141v57h141v91c0 69 42 109 103 109h111v-57h-90c-41 0 -56 -19 -56 -70v-73h303v-500h-68v443h-235v-443h-68zM459 590v85h78v-85h-78z" />
    <glyph glyph-name="fl" unicode="fl" horiz-adv-x="620" 
d="M162 0v443h-141v57h141v91c0 69 42 109 103 109h268v-700h-68v643h-179c-41 0 -56 -19 -56 -70v-73h146v-57h-146v-443h-68z" />
    <glyph glyph-name=".notdef" horiz-adv-x="710" 
d="M80 0v700h550v-700h-550zM130 52h450v596h-450v-596z" />
    <glyph glyph-name="NULL" horiz-adv-x="600" 
 />
    <glyph glyph-name="CR" unicode="&#xd;" horiz-adv-x="272" 
 />
    <glyph glyph-name="space" unicode=" " horiz-adv-x="278" 
 />
    <glyph glyph-name="A" unicode="A" horiz-adv-x="777" 
d="M693 0l-93 192h-426l-93 -192h-76l342 700h84l341 -700h-79zM207 259h360l-180 372z" />
    <glyph glyph-name="Aacute" unicode="&#xc1;" horiz-adv-x="777" 
d="M693 0l-93 192h-426l-93 -192h-76l342 700h84l341 -700h-79zM207 259h360l-180 372zM366 765l78 125h94l-108 -125h-64z" />
    <glyph glyph-name="Abreve" unicode="&#x102;" horiz-adv-x="777" 
d="M693 0l-93 192h-426l-93 -192h-76l342 700h84l341 -700h-79zM207 259h360l-180 372zM220 900h60c8 -51 48 -80 109 -80s104 31 109 80h60c-2 -80 -76 -135 -169 -135s-165 55 -169 135z" />
    <glyph glyph-name="Acircumflex" unicode="&#xc2;" horiz-adv-x="777" 
d="M693 0l-93 192h-426l-93 -192h-76l342 700h84l341 -700h-79zM207 259h360l-180 372zM195 765l145 125h98l145 -125h-72l-122 75l-122 -75h-72z" />
    <glyph glyph-name="Adieresis" unicode="&#xc4;" horiz-adv-x="777" 
d="M693 0l-93 192h-426l-93 -192h-76l342 700h84l341 -700h-79zM207 259h360l-180 372zM234 780v80h84v-80h-84zM440 780v80h84v-80h-84z" />
    <glyph glyph-name="uni0226" unicode="&#x226;" horiz-adv-x="777" 
d="M693 0l-93 192h-426l-93 -192h-76l342 700h84l341 -700h-79zM207 259h360l-180 372zM350 780v85h78v-85h-78z" />
    <glyph glyph-name="uni1EA0" unicode="&#x1ea0;" horiz-adv-x="777" 
d="M693 0l-93 192h-426l-93 -192h-76l342 700h84l341 -700h-79zM207 259h360l-180 372zM348 -165v75h77v-75h-77z" />
    <glyph glyph-name="Agrave" unicode="&#xc0;" horiz-adv-x="777" 
d="M693 0l-93 192h-426l-93 -192h-76l342 700h84l341 -700h-79zM207 259h360l-180 372zM362 765l-108 125h94l78 -125h-64z" />
    <glyph glyph-name="Amacron" unicode="&#x100;" horiz-adv-x="777" 
d="M693 0l-93 192h-426l-93 -192h-76l342 700h84l341 -700h-79zM207 259h360l-180 372zM227 779v57h333v-57h-333z" />
    <glyph glyph-name="Aogonek" unicode="&#x104;" horiz-adv-x="777" 
d="M693 0l-93 192h-426l-93 -192h-76l342 700h84l341 -700h-79zM207 259h360l-180 372zM627 -117c0 48 42 96 117 127l28 -10c-64 -36 -93 -68 -93 -100c0 -29 24 -38 61 -38h45v-57h-45c-77 0 -113 29 -113 78z" />
    <glyph glyph-name="Aring" unicode="&#xc5;" horiz-adv-x="777" 
d="M693 0l-93 192h-426l-93 -192h-76l342 700h84l341 -700h-79zM207 259h360l-180 372zM285 852c0 48 47 87 103 87s103 -39 103 -87c0 -46 -47 -87 -103 -87s-103 41 -103 87zM438 852c0 24 -20 41 -49 41s-51 -17 -51 -41s22 -41 51 -41s49 17 49 41z" />
    <glyph glyph-name="Aringacute" unicode="&#x1fa;" horiz-adv-x="777" 
d="M693 0l-93 192h-426l-93 -192h-76l342 700h84l341 -700h-79zM207 259h360l-180 372zM366 965l41 88h74l-62 -88h-53zM286 852c0 48 47 87 103 87s103 -39 103 -87c0 -46 -47 -87 -103 -87s-103 41 -103 87zM439 852c0 24 -21 41 -49 41c-31 0 -51 -17 -51 -41
s20 -41 51 -41c28 0 49 17 49 41z" />
    <glyph glyph-name="Atilde" unicode="&#xc3;" horiz-adv-x="777" 
d="M693 0l-93 192h-426l-93 -192h-76l342 700h84l341 -700h-79zM207 259h360l-180 372zM386 799l-34 21c-19 12 -31 18 -56 18c-35 0 -52 -20 -52 -63h-56v13c0 63 38 107 109 107c33 0 51 -7 79 -23l36 -22l11 -7c21 -13 35 -21 59 -21c34 0 51 21 51 63h56v-13
c0 -64 -38 -107 -107 -107c-41 0 -50 5 -96 34z" />
    <glyph glyph-name="AE" unicode="&#xc6;" horiz-adv-x="1140" 
d="M692 67h415v-67h-479l-27 192h-382l-139 -192h-89l508 700h548v-67h-435l34 -240h371v-67h-362zM267 259h324l-53 375z" />
    <glyph glyph-name="AEacute" unicode="&#x1fc;" horiz-adv-x="1140" 
d="M692 67h415v-67h-479l-27 192h-382l-139 -192h-89l508 700h548v-67h-435l34 -240h371v-67h-362zM267 259h324l-53 375zM696 765l78 125h94l-108 -125h-64z" />
    <glyph glyph-name="uni01E2" unicode="&#x1e2;" horiz-adv-x="1140" 
d="M692 67h415v-67h-479l-27 192h-382l-139 -192h-89l508 700h548v-67h-435l34 -240h371v-67h-362zM267 259h324l-53 375zM557 779v57h333v-57h-333z" />
    <glyph glyph-name="B" unicode="B" horiz-adv-x="770" 
d="M106 0v700h368c123 0 211 -74 211 -185c0 -75 -50 -135 -104 -159c63 -16 121 -77 121 -166c0 -114 -98 -190 -216 -190h-380zM179 388h280c96 0 152 46 152 127c0 71 -57 118 -152 118h-280v-245zM179 67h287c98 0 162 52 162 127c0 79 -64 127 -162 127h-287v-254z" />
    <glyph glyph-name="C" unicode="C" horiz-adv-x="806" 
d="M58 350c0 206 146 360 369 360c189 0 308 -102 326 -225h-80c-22 100 -118 158 -238 158h-16c-177 0 -287 -127 -287 -293c0 -165 110 -293 287 -293h16c120 0 216 55 238 158h80c-20 -132 -143 -225 -326 -225c-228 0 -369 151 -369 360z" />
    <glyph glyph-name="Cacute" unicode="&#x106;" horiz-adv-x="806" 
d="M58 350c0 206 146 360 369 360c189 0 308 -102 326 -225h-80c-22 100 -118 158 -238 158h-16c-177 0 -287 -127 -287 -293c0 -165 110 -293 287 -293h16c120 0 216 55 238 158h80c-20 -132 -143 -225 -326 -225c-228 0 -369 151 -369 360zM404 765l78 125h94l-108 -125
h-64z" />
    <glyph glyph-name="Ccaron" unicode="&#x10c;" horiz-adv-x="806" 
d="M58 350c0 206 146 360 369 360c189 0 308 -102 326 -225h-80c-22 100 -118 158 -238 158h-16c-177 0 -287 -127 -287 -293c0 -165 110 -293 287 -293h16c120 0 216 55 238 158h80c-20 -132 -143 -225 -326 -225c-228 0 -369 151 -369 360zM378 765l-135 125h72l112 -74
l112 74h72l-135 -125h-98z" />
    <glyph glyph-name="Ccedilla" unicode="&#xc7;" horiz-adv-x="806" 
d="M58 350c0 206 146 360 369 360c189 0 308 -102 326 -225h-80c-22 100 -118 158 -238 158h-16c-177 0 -287 -127 -287 -293c0 -165 110 -293 287 -293h16c120 0 216 55 238 158h80c-20 -132 -143 -225 -326 -225c-228 0 -369 151 -369 360zM356 -225v56h76
c35 0 58 14 58 42c0 27 -23 41 -58 41h-29v101h47v-60c50 0 92 -34 92 -85c0 -57 -40 -95 -111 -95h-75z" />
    <glyph glyph-name="Ccircumflex" unicode="&#x108;" horiz-adv-x="806" 
d="M58 350c0 206 146 360 369 360c189 0 308 -102 326 -225h-80c-22 100 -118 158 -238 158h-16c-177 0 -287 -127 -287 -293c0 -165 110 -293 287 -293h16c120 0 216 55 238 158h80c-20 -132 -143 -225 -326 -225c-228 0 -369 151 -369 360zM233 765l145 125h98l145 -125
h-72l-122 75l-122 -75h-72z" />
    <glyph glyph-name="Cdotaccent" unicode="&#x10a;" horiz-adv-x="806" 
d="M58 350c0 206 146 360 369 360c189 0 308 -102 326 -225h-80c-22 100 -118 158 -238 158h-16c-177 0 -287 -127 -287 -293c0 -165 110 -293 287 -293h16c120 0 216 55 238 158h80c-20 -132 -143 -225 -326 -225c-228 0 -369 151 -369 360zM388 780v85h78v-85h-78z" />
    <glyph glyph-name="D" unicode="D" horiz-adv-x="827" 
d="M106 0v700h305c219 0 356 -131 356 -350s-137 -350 -356 -350h-305zM179 67h222c180 0 292 98 292 283c0 184 -112 283 -292 283h-222v-566z" />
    <glyph glyph-name="Eth" unicode="&#xd0;" horiz-adv-x="834" 
d="M113 0v700h305c219 0 356 -131 356 -350s-137 -350 -356 -350h-305zM186 67h222c180 0 292 98 292 283c0 184 -112 283 -292 283h-222v-566zM39 319v62h320v-62h-320z" />
    <glyph glyph-name="Dcaron" unicode="&#x10e;" horiz-adv-x="827" 
d="M106 0v700h305c219 0 356 -131 356 -350s-137 -350 -356 -350h-305zM179 67h222c180 0 292 98 292 283c0 184 -112 283 -292 283h-222v-566zM348 765l-135 125h72l112 -74l112 74h72l-135 -125h-98z" />
    <glyph glyph-name="Dcroat" unicode="&#x110;" horiz-adv-x="834" 
d="M113 0v700h305c219 0 356 -131 356 -350s-137 -350 -356 -350h-305zM186 67h222c180 0 292 98 292 283c0 184 -112 283 -292 283h-222v-566zM39 319v62h320v-62h-320z" />
    <glyph glyph-name="E" unicode="E" horiz-adv-x="748" 
d="M179 67h516v-67h-589v700h579v-67h-506v-240h446v-67h-446v-259z" />
    <glyph glyph-name="Eacute" unicode="&#xc9;" horiz-adv-x="748" 
d="M179 67h516v-67h-589v700h579v-67h-506v-240h446v-67h-446v-259zM373 765l78 125h94l-108 -125h-64z" />
    <glyph glyph-name="Ebreve" unicode="&#x114;" horiz-adv-x="748" 
d="M179 67h516v-67h-589v700h579v-67h-506v-240h446v-67h-446v-259zM227 900h60c8 -51 48 -80 109 -80s104 31 109 80h60c-2 -80 -76 -135 -169 -135s-165 55 -169 135z" />
    <glyph glyph-name="Ecaron" unicode="&#x11a;" horiz-adv-x="748" 
d="M179 67h516v-67h-589v700h579v-67h-506v-240h446v-67h-446v-259zM347 765l-135 125h72l112 -74l112 74h72l-135 -125h-98z" />
    <glyph glyph-name="Ecircumflex" unicode="&#xca;" horiz-adv-x="748" 
d="M179 67h516v-67h-589v700h579v-67h-506v-240h446v-67h-446v-259zM202 765l145 125h98l145 -125h-72l-122 75l-122 -75h-72z" />
    <glyph glyph-name="Edieresis" unicode="&#xcb;" horiz-adv-x="748" 
d="M179 67h516v-67h-589v700h579v-67h-506v-240h446v-67h-446v-259zM241 780v80h84v-80h-84zM447 780v80h84v-80h-84z" />
    <glyph glyph-name="Edotaccent" unicode="&#x116;" horiz-adv-x="748" 
d="M179 67h516v-67h-589v700h579v-67h-506v-240h446v-67h-446v-259zM357 780v85h78v-85h-78z" />
    <glyph glyph-name="uni1EB8" unicode="&#x1eb8;" horiz-adv-x="748" 
d="M179 67h516v-67h-589v700h579v-67h-506v-240h446v-67h-446v-259zM362 -165v75h77v-75h-77z" />
    <glyph glyph-name="Egrave" unicode="&#xc8;" horiz-adv-x="748" 
d="M179 67h516v-67h-589v700h579v-67h-506v-240h446v-67h-446v-259zM369 765l-108 125h94l78 -125h-64z" />
    <glyph glyph-name="Emacron" unicode="&#x112;" horiz-adv-x="748" 
d="M179 67h516v-67h-589v700h579v-67h-506v-240h446v-67h-446v-259zM234 779v57h333v-57h-333z" />
    <glyph glyph-name="Eogonek" unicode="&#x118;" horiz-adv-x="748" 
d="M179 67h516v-67h-589v700h579v-67h-506v-240h446v-67h-446v-259zM550 -117c0 48 42 96 117 127l28 -10c-64 -36 -93 -68 -93 -100c0 -29 24 -38 61 -38h45v-57h-45c-77 0 -113 29 -113 78z" />
    <glyph glyph-name="F" unicode="F" horiz-adv-x="698" 
d="M106 0v700h559v-67h-486v-260h430v-67h-430v-306h-73z" />
    <glyph glyph-name="G" unicode="G" horiz-adv-x="849" 
d="M58 350c0 210 145 360 377 360c207 0 325 -100 335 -235h-80c-10 82 -79 168 -247 168h-16c-178 0 -295 -109 -295 -293s119 -293 295 -293h16c171 0 270 87 270 190v30h-275v67h267c49 0 75 -25 75 -73v-271h-67v102c-35 -48 -126 -112 -279 -112
c-234 0 -376 147 -376 360z" />
    <glyph glyph-name="Gbreve" unicode="&#x11e;" horiz-adv-x="849" 
d="M58 350c0 210 145 360 377 360c207 0 325 -100 335 -235h-80c-10 82 -79 168 -247 168h-16c-178 0 -295 -109 -295 -293s119 -293 295 -293h16c171 0 270 87 270 190v30h-275v67h267c49 0 75 -25 75 -73v-271h-67v102c-35 -48 -126 -112 -279 -112
c-234 0 -376 147 -376 360zM267 900h60c8 -51 48 -80 109 -80s104 31 109 80h60c-2 -80 -76 -135 -169 -135s-165 55 -169 135z" />
    <glyph glyph-name="Gcircumflex" unicode="&#x11c;" horiz-adv-x="849" 
d="M58 350c0 210 145 360 377 360c207 0 325 -100 335 -235h-80c-10 82 -79 168 -247 168h-16c-178 0 -295 -109 -295 -293s119 -293 295 -293h16c171 0 270 87 270 190v30h-275v67h267c49 0 75 -25 75 -73v-271h-67v102c-35 -48 -126 -112 -279 -112
c-234 0 -376 147 -376 360zM242 765l145 125h98l145 -125h-72l-122 75l-122 -75h-72z" />
    <glyph glyph-name="uni0122" unicode="&#x122;" horiz-adv-x="849" 
d="M58 350c0 210 145 360 377 360c207 0 325 -100 335 -235h-80c-10 82 -79 168 -247 168h-16c-178 0 -295 -109 -295 -293s119 -293 295 -293h16c171 0 270 87 270 190v30h-275v67h267c49 0 75 -25 75 -73v-271h-67v102c-35 -48 -126 -112 -279 -112
c-234 0 -376 147 -376 360zM378 -250v37h18c29 0 40 11 40 38v10h-41v75h82v-85c0 -45 -31 -75 -79 -75h-20z" />
    <glyph glyph-name="Gdotaccent" unicode="&#x120;" horiz-adv-x="849" 
d="M58 350c0 210 145 360 377 360c207 0 325 -100 335 -235h-80c-10 82 -79 168 -247 168h-16c-178 0 -295 -109 -295 -293s119 -293 295 -293h16c171 0 270 87 270 190v30h-275v67h267c49 0 75 -25 75 -73v-271h-67v102c-35 -48 -126 -112 -279 -112
c-234 0 -376 147 -376 360zM397 780v85h78v-85h-78z" />
    <glyph glyph-name="H" unicode="H" horiz-adv-x="847" 
d="M106 0v700h73v-316h489v316h73v-700h-73v317h-489v-317h-73z" />
    <glyph glyph-name="Hbar" unicode="&#x126;" horiz-adv-x="875" 
d="M120 0v700h73v-316h489v316h73v-700h-73v317h-489v-317h-73zM28 519v62h819v-62h-819z" />
    <glyph glyph-name="Hcircumflex" unicode="&#x124;" horiz-adv-x="847" 
d="M106 0v700h73v-316h489v316h73v-700h-73v317h-489v-317h-73zM230 765l145 125h98l145 -125h-72l-122 75l-122 -75h-72z" />
    <glyph glyph-name="I" unicode="I" horiz-adv-x="285" 
d="M106 0v700h73v-700h-73z" />
    <glyph glyph-name="IJ" unicode="&#x132;" horiz-adv-x="647" 
d="M79 0v67h285c79 0 110 31 110 110v523h73v-535c0 -109 -61 -165 -165 -165h-303zM79 197v503h73v-503h-73z" />
    <glyph glyph-name="Iacute" unicode="&#xcd;" horiz-adv-x="285" 
d="M106 0v700h73v-700h-73zM120 765l78 125h94l-108 -125h-64z" />
    <glyph glyph-name="Ibreve" unicode="&#x12c;" horiz-adv-x="285" 
d="M106 0v700h73v-700h-73zM-26 900h60c8 -51 48 -80 109 -80s104 31 109 80h60c-2 -80 -76 -135 -169 -135s-165 55 -169 135z" />
    <glyph glyph-name="Icircumflex" unicode="&#xce;" horiz-adv-x="285" 
d="M106 0v700h73v-700h-73zM-51 765l145 125h98l145 -125h-72l-122 75l-122 -75h-72z" />
    <glyph glyph-name="Idieresis" unicode="&#xcf;" horiz-adv-x="285" 
d="M106 0v700h73v-700h-73zM-12 780v80h84v-80h-84zM194 780v80h84v-80h-84z" />
    <glyph glyph-name="Idotaccent" unicode="&#x130;" horiz-adv-x="285" 
d="M106 0v700h73v-700h-73zM104 780v85h78v-85h-78z" />
    <glyph glyph-name="uni1ECA" unicode="&#x1eca;" horiz-adv-x="285" 
d="M106 0v700h73v-700h-73zM104 -165v75h77v-75h-77z" />
    <glyph glyph-name="Igrave" unicode="&#xcc;" horiz-adv-x="285" 
d="M106 0v700h73v-700h-73zM116 765l-108 125h94l78 -125h-64z" />
    <glyph glyph-name="Imacron" unicode="&#x12a;" horiz-adv-x="285" 
d="M106 0v700h73v-700h-73zM-19 779v57h333v-57h-333z" />
    <glyph glyph-name="Iogonek" unicode="&#x12e;" horiz-adv-x="285" 
d="M106 0v700h73v-700h-73zM34 -117c0 48 42 96 117 127l28 -10c-64 -36 -93 -68 -93 -100c0 -29 24 -38 61 -38h45v-57h-45c-77 0 -113 29 -113 78z" />
    <glyph glyph-name="Itilde" unicode="&#x128;" horiz-adv-x="285" 
d="M106 0v700h73v-700h-73zM140 799l-34 21c-19 12 -31 18 -56 18c-35 0 -52 -20 -52 -63h-56v13c0 63 38 107 109 107c33 0 51 -7 79 -23l36 -22l11 -7c21 -13 35 -21 59 -21c34 0 51 21 51 63h56v-13c0 -64 -38 -107 -107 -107c-41 0 -50 5 -96 34z" />
    <glyph glyph-name="J" unicode="J" horiz-adv-x="459" 
d="M28 0v67h148c79 0 110 31 110 110v523h73v-535c0 -109 -62 -165 -165 -165h-166z" />
    <glyph glyph-name="Jcircumflex" unicode="&#x134;" horiz-adv-x="459" 
d="M28 0v67h148c79 0 110 31 110 110v523h73v-535c0 -109 -62 -165 -165 -165h-166zM129 765l145 125h98l145 -125h-72l-122 75l-122 -75h-72z" />
    <glyph glyph-name="K" unicode="K" horiz-adv-x="772" 
d="M666 0l-322 354l-165 -140v-214h-73v700h73v-398l465 398h107l-351 -298l367 -402h-101z" />
    <glyph glyph-name="uni0136" unicode="&#x136;" horiz-adv-x="772" 
d="M666 0l-322 354l-165 -140v-214h-73v700h73v-398l465 398h107l-351 -298l367 -402h-101zM363 -250v37h18c29 0 40 11 40 38v10h-41v75h82v-85c0 -45 -31 -75 -79 -75h-20z" />
    <glyph glyph-name="L" unicode="L" horiz-adv-x="690" 
d="M106 0v700h73v-633h494v-67h-567z" />
    <glyph glyph-name="Lacute" unicode="&#x139;" horiz-adv-x="690" 
d="M106 0v700h73v-633h494v-67h-567zM125 765l78 125h94l-108 -125h-64z" />
    <glyph glyph-name="Lcaron" unicode="&#x13d;" horiz-adv-x="690" 
d="M106 0v700h73v-633h494v-67h-567zM343 540v37h18c29 0 40 11 40 38v10h-41v75h82v-85c0 -45 -31 -75 -79 -75h-20z" />
    <glyph glyph-name="uni013B" unicode="&#x13b;" horiz-adv-x="690" 
d="M106 0v700h73v-633h494v-67h-567zM332 -250v37h18c29 0 40 11 40 38v10h-41v75h82v-85c0 -45 -31 -75 -79 -75h-20z" />
    <glyph glyph-name="Ldot" unicode="&#x13f;" horiz-adv-x="691" 
d="M106 0v700h73v-633h494v-67h-567zM402 319v100h100v-100h-100z" />
    <glyph glyph-name="Lslash" unicode="&#x141;" horiz-adv-x="708" 
d="M124 0v700h73v-633h494v-67h-567zM33 226v73l429 203v-72z" />
    <glyph glyph-name="M" unicode="M" horiz-adv-x="1037" 
d="M809 700h122v-700h-73v643l-293 -643h-94l-292 640v-640h-73v700h123l290 -636z" />
    <glyph glyph-name="N" unicode="N" horiz-adv-x="844" 
d="M665 700h73v-700h-92l-467 602v-602h-73v700h92l467 -601v601z" />
    <glyph glyph-name="Nacute" unicode="&#x143;" horiz-adv-x="844" 
d="M665 700h73v-700h-92l-467 602v-602h-73v700h92l467 -601v601zM399 765l78 125h94l-108 -125h-64z" />
    <glyph glyph-name="Ncaron" unicode="&#x147;" horiz-adv-x="844" 
d="M665 700h73v-700h-92l-467 602v-602h-73v700h92l467 -601v601zM373 765l-135 125h72l112 -74l112 74h72l-135 -125h-98z" />
    <glyph glyph-name="uni0145" unicode="&#x145;" horiz-adv-x="844" 
d="M665 700h73v-700h-92l-467 602v-602h-73v700h92l467 -601v601zM364 -250v37h18c29 0 40 11 40 38v10h-41v75h82v-85c0 -45 -31 -75 -79 -75h-20z" />
    <glyph glyph-name="Eng" unicode="&#x14a;" horiz-adv-x="844" 
d="M468 -175v67h142c40 0 55 13 55 53v32l-486 625v-602h-73v700h92l467 -602v602h73v-760c0 -71 -39 -115 -108 -115h-162z" />
    <glyph glyph-name="Ntilde" unicode="&#xd1;" horiz-adv-x="844" 
d="M665 700h73v-700h-92l-467 602v-602h-73v700h92l467 -601v601zM419 799l-34 21c-19 12 -31 18 -56 18c-35 0 -52 -20 -52 -63h-56v13c0 63 38 107 109 107c33 0 51 -7 79 -23l36 -22l11 -7c21 -13 35 -21 59 -21c34 0 51 21 51 63h56v-13c0 -64 -38 -107 -107 -107
c-41 0 -50 5 -96 34z" />
    <glyph glyph-name="O" unicode="O" horiz-adv-x="869" 
d="M58 350c-3 218 163 363 377 360c215 3 379 -142 376 -360c0 -219 -159 -360 -376 -360c-216 0 -377 141 -377 360zM427 57h16c162 0 294 111 294 293s-132 293 -294 293h-16c-163 0 -295 -111 -295 -293s132 -293 295 -293z" />
    <glyph glyph-name="Oacute" unicode="&#xd3;" horiz-adv-x="869" 
d="M58 350c-3 218 163 363 377 360c215 3 379 -142 376 -360c0 -219 -159 -360 -376 -360c-216 0 -377 141 -377 360zM427 57h16c162 0 294 111 294 293s-132 293 -294 293h-16c-163 0 -295 -111 -295 -293s132 -293 295 -293zM412 765l78 125h94l-108 -125h-64z" />
    <glyph glyph-name="Obreve" unicode="&#x14e;" horiz-adv-x="869" 
d="M58 350c-3 218 163 363 377 360c215 3 379 -142 376 -360c0 -219 -159 -360 -376 -360c-216 0 -377 141 -377 360zM427 57h16c162 0 294 111 294 293s-132 293 -294 293h-16c-163 0 -295 -111 -295 -293s132 -293 295 -293zM266 900h60c8 -51 48 -80 109 -80
s104 31 109 80h60c-2 -80 -76 -135 -169 -135s-165 55 -169 135z" />
    <glyph glyph-name="Ocircumflex" unicode="&#xd4;" horiz-adv-x="869" 
d="M58 350c-3 218 163 363 377 360c215 3 379 -142 376 -360c0 -219 -159 -360 -376 -360c-216 0 -377 141 -377 360zM427 57h16c162 0 294 111 294 293s-132 293 -294 293h-16c-163 0 -295 -111 -295 -293s132 -293 295 -293zM241 765l145 125h98l145 -125h-72l-122 75
l-122 -75h-72z" />
    <glyph glyph-name="Odieresis" unicode="&#xd6;" horiz-adv-x="869" 
d="M58 350c-3 218 163 363 377 360c215 3 379 -142 376 -360c0 -219 -159 -360 -376 -360c-216 0 -377 141 -377 360zM427 57h16c162 0 294 111 294 293s-132 293 -294 293h-16c-163 0 -295 -111 -295 -293s132 -293 295 -293zM280 780v80h84v-80h-84zM486 780v80h84v-80
h-84z" />
    <glyph glyph-name="uni1ECC" unicode="&#x1ecc;" horiz-adv-x="869" 
d="M58 350c-3 218 163 363 377 360c215 3 379 -142 376 -360c0 -219 -159 -360 -376 -360c-216 0 -377 141 -377 360zM427 57h16c162 0 294 111 294 293s-132 293 -294 293h-16c-163 0 -295 -111 -295 -293s132 -293 295 -293zM396 -165v75h77v-75h-77z" />
    <glyph glyph-name="Ograve" unicode="&#xd2;" horiz-adv-x="869" 
d="M58 350c-3 218 163 363 377 360c215 3 379 -142 376 -360c0 -219 -159 -360 -376 -360c-216 0 -377 141 -377 360zM427 57h16c162 0 294 111 294 293s-132 293 -294 293h-16c-163 0 -295 -111 -295 -293s132 -293 295 -293zM408 765l-108 125h94l78 -125h-64z" />
    <glyph glyph-name="Ohungarumlaut" unicode="&#x150;" horiz-adv-x="869" 
d="M58 350c-3 218 163 363 377 360c215 3 379 -142 376 -360c0 -219 -159 -360 -376 -360c-216 0 -377 141 -377 360zM427 57h16c162 0 294 111 294 293s-132 293 -294 293h-16c-163 0 -295 -111 -295 -293s132 -293 295 -293zM302 765l78 125h94l-108 -125h-64zM510 765
l78 125h94l-108 -125h-64z" />
    <glyph glyph-name="Omacron" unicode="&#x14c;" horiz-adv-x="869" 
d="M58 350c-3 218 163 363 377 360c215 3 379 -142 376 -360c0 -219 -159 -360 -376 -360c-216 0 -377 141 -377 360zM427 57h16c162 0 294 111 294 293s-132 293 -294 293h-16c-163 0 -295 -111 -295 -293s132 -293 295 -293zM273 779v57h333v-57h-333z" />
    <glyph glyph-name="Oslash" unicode="&#xd8;" horiz-adv-x="878" 
d="M63 350c-3 218 163 363 377 360c215 3 379 -142 376 -360c0 -219 -159 -360 -376 -360c-216 0 -377 141 -377 360zM432 57h16c162 0 294 111 294 293s-132 293 -294 293h-16c-163 0 -295 -111 -295 -293s132 -293 295 -293zM111 -23l-46 49l698 701l46 -49z" />
    <glyph glyph-name="Oslashacute" unicode="&#x1fe;" horiz-adv-x="878" 
d="M63 350c-3 218 163 363 377 360c215 3 379 -142 376 -360c0 -219 -159 -360 -376 -360c-216 0 -377 141 -377 360zM432 57h16c162 0 294 111 294 293s-132 293 -294 293h-16c-163 0 -295 -111 -295 -293s132 -293 295 -293zM111 -23l-46 49l698 701l46 -49zM417 765
l78 125h94l-108 -125h-64z" />
    <glyph glyph-name="Otilde" unicode="&#xd5;" horiz-adv-x="869" 
d="M58 350c-3 218 163 363 377 360c215 3 379 -142 376 -360c0 -219 -159 -360 -376 -360c-216 0 -377 141 -377 360zM427 57h16c162 0 294 111 294 293s-132 293 -294 293h-16c-163 0 -295 -111 -295 -293s132 -293 295 -293zM432 799l-34 21c-19 12 -31 18 -56 18
c-35 0 -52 -20 -52 -63h-56v13c0 63 38 107 109 107c33 0 51 -7 79 -23l36 -22l11 -7c21 -13 35 -21 59 -21c34 0 51 21 51 63h56v-13c0 -64 -38 -107 -107 -107c-41 0 -50 5 -96 34z" />
    <glyph glyph-name="OE" unicode="&#x152;" horiz-adv-x="1380" 
d="M58 350c-3 218 163 363 377 360c129 0 236 -50 303 -143v133h579v-67h-506v-240h446v-67h-446v-259h516v-67h-589v133c-67 -95 -174 -143 -303 -143c-216 0 -377 141 -377 360zM427 57h16c162 0 294 111 294 293s-132 293 -294 293h-16c-163 0 -295 -111 -295 -293
s132 -293 295 -293z" />
    <glyph glyph-name="P" unicode="P" horiz-adv-x="732" 
d="M106 0v700h351c136 0 236 -77 236 -206c0 -132 -100 -207 -236 -207h-278v-287h-73zM179 354h263c116 0 177 49 177 140s-61 139 -177 139h-263v-279z" />
    <glyph glyph-name="Thorn" unicode="&#xde;" horiz-adv-x="746" 
d="M106 0v700h73v-151h278c136 0 236 -75 236 -199c0 -127 -100 -200 -236 -200h-278v-150h-73zM179 217h263c116 0 177 46 177 133c0 85 -61 132 -177 132h-263v-265z" />
    <glyph glyph-name="Q" unicode="Q" horiz-adv-x="869" 
d="M395 -95v88c-197 20 -337 155 -337 357c-3 218 163 363 377 360c215 3 379 -142 376 -360c0 -205 -142 -342 -343 -358v-49c0 -39 13 -51 53 -51h182v-67h-221c-49 0 -87 35 -87 80zM427 57h16c162 0 294 111 294 293s-132 293 -294 293h-16c-163 0 -295 -111 -295 -293
s132 -293 295 -293z" />
    <glyph glyph-name="R" unicode="R" horiz-adv-x="782" 
d="M106 0v700h370c127 0 219 -81 219 -191c0 -88 -51 -151 -111 -171c54 0 97 -38 97 -103v-235h-73v210c0 64 -19 82 -90 82h-339v-292h-73zM179 359h282c100 0 160 56 160 140s-59 134 -160 134h-282v-274z" />
    <glyph glyph-name="Racute" unicode="&#x154;" horiz-adv-x="782" 
d="M106 0v700h370c127 0 219 -81 219 -191c0 -88 -51 -151 -111 -171c54 0 97 -38 97 -103v-235h-73v210c0 64 -19 82 -90 82h-339v-292h-73zM179 359h282c100 0 160 56 160 140s-59 134 -160 134h-282v-274zM333 765l78 125h94l-108 -125h-64z" />
    <glyph glyph-name="Rcaron" unicode="&#x158;" horiz-adv-x="782" 
d="M106 0v700h370c127 0 219 -81 219 -191c0 -88 -51 -151 -111 -171c54 0 97 -38 97 -103v-235h-73v210c0 64 -19 82 -90 82h-339v-292h-73zM179 359h282c100 0 160 56 160 140s-59 134 -160 134h-282v-274zM307 765l-135 125h72l112 -74l112 74h72l-135 -125h-98z" />
    <glyph glyph-name="uni0156" unicode="&#x156;" horiz-adv-x="782" 
d="M106 0v700h370c127 0 219 -81 219 -191c0 -88 -51 -151 -111 -171c54 0 97 -38 97 -103v-235h-73v210c0 64 -19 82 -90 82h-339v-292h-73zM179 359h282c100 0 160 56 160 140s-59 134 -160 134h-282v-274zM336 -250v37h18c29 0 40 11 40 38v10h-41v75h82v-85
c0 -45 -31 -75 -79 -75h-20z" />
    <glyph glyph-name="S" unicode="S" 
d="M45 220h80c4 -107 89 -163 232 -163h16c140 0 204 48 204 128c0 65 -50 103 -173 123l-109 18c-149 24 -211 75 -211 188c0 103 91 196 277 196c181 0 290 -82 304 -215h-80c-13 95 -92 148 -216 148h-16c-123 0 -195 -54 -195 -127c0 -65 47 -98 156 -115l112 -18
c152 -24 225 -86 225 -195c0 -122 -101 -198 -285 -198c-198 0 -319 79 -321 230z" />
    <glyph glyph-name="Sacute" unicode="&#x15a;" 
d="M45 220h80c4 -107 89 -163 232 -163h16c140 0 204 48 204 128c0 65 -50 103 -173 123l-109 18c-149 24 -211 75 -211 188c0 103 91 196 277 196c181 0 290 -82 304 -215h-80c-13 95 -92 148 -216 148h-16c-123 0 -195 -54 -195 -127c0 -65 47 -98 156 -115l112 -18
c152 -24 225 -86 225 -195c0 -122 -101 -198 -285 -198c-198 0 -319 79 -321 230zM339 765l78 125h94l-108 -125h-64z" />
    <glyph glyph-name="Scaron" unicode="&#x160;" 
d="M45 220h80c4 -107 89 -163 232 -163h16c140 0 204 48 204 128c0 65 -50 103 -173 123l-109 18c-149 24 -211 75 -211 188c0 103 91 196 277 196c181 0 290 -82 304 -215h-80c-13 95 -92 148 -216 148h-16c-123 0 -195 -54 -195 -127c0 -65 47 -98 156 -115l112 -18
c152 -24 225 -86 225 -195c0 -122 -101 -198 -285 -198c-198 0 -319 79 -321 230zM313 765l-135 125h72l112 -74l112 74h72l-135 -125h-98z" />
    <glyph glyph-name="Scedilla" unicode="&#x15e;" 
d="M45 220h80c4 -107 89 -163 232 -163h16c140 0 204 48 204 128c0 65 -50 103 -173 123l-109 18c-149 24 -211 75 -211 188c0 103 91 196 277 196c181 0 290 -82 304 -215h-80c-13 95 -92 148 -216 148h-16c-123 0 -195 -54 -195 -127c0 -65 47 -98 156 -115l112 -18
c152 -24 225 -86 225 -195c0 -122 -101 -198 -285 -198c-198 0 -319 79 -321 230zM288 -225v56h76c35 0 58 14 58 42c0 27 -23 41 -58 41h-29v101h47v-60c50 0 92 -34 92 -85c0 -57 -40 -95 -111 -95h-75z" />
    <glyph glyph-name="Scircumflex" unicode="&#x15c;" 
d="M45 220h80c4 -107 89 -163 232 -163h16c140 0 204 48 204 128c0 65 -50 103 -173 123l-109 18c-149 24 -211 75 -211 188c0 103 91 196 277 196c181 0 290 -82 304 -215h-80c-13 95 -92 148 -216 148h-16c-123 0 -195 -54 -195 -127c0 -65 47 -98 156 -115l112 -18
c152 -24 225 -86 225 -195c0 -122 -101 -198 -285 -198c-198 0 -319 79 -321 230zM168 765l145 125h98l145 -125h-72l-122 75l-122 -75h-72z" />
    <glyph glyph-name="uni0218" unicode="&#x218;" 
d="M45 220h80c4 -107 89 -163 232 -163h16c140 0 204 48 204 128c0 65 -50 103 -173 123l-109 18c-149 24 -211 75 -211 188c0 103 91 196 277 196c181 0 290 -82 304 -215h-80c-13 95 -92 148 -216 148h-16c-123 0 -195 -54 -195 -127c0 -65 47 -98 156 -115l112 -18
c152 -24 225 -86 225 -195c0 -122 -101 -198 -285 -198c-198 0 -319 79 -321 230zM301 -250v37h18c29 0 40 11 40 38v10h-41v75h82v-85c0 -45 -31 -75 -79 -75h-20z" />
    <glyph glyph-name="uni1E9E" unicode="&#x1e9e;" horiz-adv-x="758" 
d="M702 191c0 -115 -97 -191 -216 -191h-191v67h171c101 0 162 44 162 131c0 75 -64 123 -162 123h-171v67h137c91 0 150 48 150 123c0 77 -58 122 -150 122h-253v-633h-73v700h340c119 0 210 -70 210 -184c0 -68 -38 -122 -90 -149c76 -18 136 -85 136 -176z" />
    <glyph glyph-name="T" unicode="T" horiz-adv-x="695" 
d="M311 0v633h-295v67h663v-67h-295v-633h-73z" />
    <glyph glyph-name="Tbar" unicode="&#x166;" horiz-adv-x="730" 
d="M328 0v633h-295v67h663v-67h-295v-633h-73zM110 348v62h510v-62h-510z" />
    <glyph glyph-name="Tcaron" unicode="&#x164;" horiz-adv-x="695" 
d="M311 0v633h-295v67h663v-67h-295v-633h-73zM299 765l-135 125h72l112 -74l112 74h72l-135 -125h-98z" />
    <glyph glyph-name="uni0162" unicode="&#x162;" horiz-adv-x="695" 
d="M311 0v633h-295v67h663v-67h-295v-633h-73zM277 -225v56h76c35 0 58 14 58 42c0 27 -23 41 -58 41h-29v101h47v-60c50 0 92 -34 92 -85c0 -57 -40 -95 -111 -95h-75z" />
    <glyph glyph-name="uni021A" unicode="&#x21a;" horiz-adv-x="695" 
d="M311 0v633h-295v67h663v-67h-295v-633h-73zM290 -250v37h18c29 0 40 11 40 38v10h-41v75h82v-85c0 -45 -31 -75 -79 -75h-20z" />
    <glyph glyph-name="U" unicode="U" horiz-adv-x="790" 
d="M97 276v424h73v-416c0 -148 76 -227 217 -227h16c141 0 217 79 217 227v416h73v-424c0 -175 -105 -286 -298 -286c-196 0 -298 110 -298 286z" />
    <glyph glyph-name="Uacute" unicode="&#xda;" horiz-adv-x="790" 
d="M97 276v424h73v-416c0 -148 76 -227 217 -227h16c141 0 217 79 217 227v416h73v-424c0 -175 -105 -286 -298 -286c-196 0 -298 110 -298 286zM372 765l78 125h94l-108 -125h-64z" />
    <glyph glyph-name="Ubreve" unicode="&#x16c;" horiz-adv-x="790" 
d="M97 276v424h73v-416c0 -148 76 -227 217 -227h16c141 0 217 79 217 227v416h73v-424c0 -175 -105 -286 -298 -286c-196 0 -298 110 -298 286zM226 900h60c8 -51 48 -80 109 -80s104 31 109 80h60c-2 -80 -76 -135 -169 -135s-165 55 -169 135z" />
    <glyph glyph-name="Ucircumflex" unicode="&#xdb;" horiz-adv-x="790" 
d="M97 276v424h73v-416c0 -148 76 -227 217 -227h16c141 0 217 79 217 227v416h73v-424c0 -175 -105 -286 -298 -286c-196 0 -298 110 -298 286zM201 765l145 125h98l145 -125h-72l-122 75l-122 -75h-72z" />
    <glyph glyph-name="Udieresis" unicode="&#xdc;" horiz-adv-x="790" 
d="M97 276v424h73v-416c0 -148 76 -227 217 -227h16c141 0 217 79 217 227v416h73v-424c0 -175 -105 -286 -298 -286c-196 0 -298 110 -298 286zM240 780v80h84v-80h-84zM446 780v80h84v-80h-84z" />
    <glyph glyph-name="uni1EE4" unicode="&#x1ee4;" horiz-adv-x="790" 
d="M97 276v424h73v-416c0 -148 76 -227 217 -227h16c141 0 217 79 217 227v416h73v-424c0 -175 -105 -286 -298 -286c-196 0 -298 110 -298 286zM356 -165v75h77v-75h-77z" />
    <glyph glyph-name="Ugrave" unicode="&#xd9;" horiz-adv-x="790" 
d="M97 276v424h73v-416c0 -148 76 -227 217 -227h16c141 0 217 79 217 227v416h73v-424c0 -175 -105 -286 -298 -286c-196 0 -298 110 -298 286zM368 765l-108 125h94l78 -125h-64z" />
    <glyph glyph-name="Uhungarumlaut" unicode="&#x170;" horiz-adv-x="790" 
d="M97 276v424h73v-416c0 -148 76 -227 217 -227h16c141 0 217 79 217 227v416h73v-424c0 -175 -105 -286 -298 -286c-196 0 -298 110 -298 286zM262 765l78 125h94l-108 -125h-64zM470 765l78 125h94l-108 -125h-64z" />
    <glyph glyph-name="Umacron" unicode="&#x16a;" horiz-adv-x="790" 
d="M97 276v424h73v-416c0 -148 76 -227 217 -227h16c141 0 217 79 217 227v416h73v-424c0 -175 -105 -286 -298 -286c-196 0 -298 110 -298 286zM233 779v57h333v-57h-333z" />
    <glyph glyph-name="Uogonek" unicode="&#x172;" horiz-adv-x="790" 
d="M97 276v424h73v-416c0 -148 76 -227 217 -227h16c141 0 217 79 217 227v416h73v-424c0 -175 -105 -286 -298 -286c-196 0 -298 110 -298 286zM344 -117c0 48 42 96 117 127l28 -10c-64 -36 -93 -68 -93 -100c0 -29 24 -38 61 -38h45v-57h-45c-77 0 -113 29 -113 78z" />
    <glyph glyph-name="Uring" unicode="&#x16e;" horiz-adv-x="790" 
d="M97 276v424h73v-416c0 -148 76 -227 217 -227h16c141 0 217 79 217 227v416h73v-424c0 -175 -105 -286 -298 -286c-196 0 -298 110 -298 286zM291 852c0 48 47 87 103 87s103 -39 103 -87c0 -46 -47 -87 -103 -87s-103 41 -103 87zM444 852c0 24 -20 41 -49 41
s-51 -17 -51 -41s22 -41 51 -41s49 17 49 41z" />
    <glyph glyph-name="Utilde" unicode="&#x168;" horiz-adv-x="790" 
d="M97 276v424h73v-416c0 -148 76 -227 217 -227h16c141 0 217 79 217 227v416h73v-424c0 -175 -105 -286 -298 -286c-196 0 -298 110 -298 286zM392 799l-34 21c-19 12 -31 18 -56 18c-35 0 -52 -20 -52 -63h-56v13c0 63 38 107 109 107c33 0 51 -7 79 -23l36 -22l11 -7
c21 -13 35 -21 59 -21c34 0 51 21 51 63h56v-13c0 -64 -38 -107 -107 -107c-41 0 -50 5 -96 34z" />
    <glyph glyph-name="V" unicode="V" horiz-adv-x="784" 
d="M695 700h84l-337 -700h-99l-338 700h86l303 -635z" />
    <glyph glyph-name="W" unicode="W" horiz-adv-x="1039" 
d="M945 700h76l-212 -700h-109l-180 618l-185 -618h-109l-205 700h76l187 -634l191 634h97l186 -638z" />
    <glyph glyph-name="Wacute" unicode="&#x1e82;" horiz-adv-x="1039" 
d="M945 700h76l-212 -700h-109l-180 618l-185 -618h-109l-205 700h76l187 -634l191 634h97l186 -638zM498 765l78 125h94l-108 -125h-64z" />
    <glyph glyph-name="Wcircumflex" unicode="&#x174;" horiz-adv-x="1039" 
d="M945 700h76l-212 -700h-109l-180 618l-185 -618h-109l-205 700h76l187 -634l191 634h97l186 -638zM327 765l145 125h98l145 -125h-72l-122 75l-122 -75h-72z" />
    <glyph glyph-name="Wdieresis" unicode="&#x1e84;" horiz-adv-x="1039" 
d="M945 700h76l-212 -700h-109l-180 618l-185 -618h-109l-205 700h76l187 -634l191 634h97l186 -638zM366 780v80h84v-80h-84zM572 780v80h84v-80h-84z" />
    <glyph glyph-name="Wgrave" unicode="&#x1e80;" horiz-adv-x="1039" 
d="M945 700h76l-212 -700h-109l-180 618l-185 -618h-109l-205 700h76l187 -634l191 634h97l186 -638zM494 765l-108 125h94l78 -125h-64z" />
    <glyph glyph-name="X" unicode="X" horiz-adv-x="722" 
d="M709 0h-97l-252 301l-253 -301h-95l301 357l-286 343h97l238 -284l240 284h95l-288 -341z" />
    <glyph glyph-name="Y" unicode="Y" horiz-adv-x="697" 
d="M592 700h93l-300 -400v-300h-73v300l-300 400h94l244 -328z" />
    <glyph glyph-name="Yacute" unicode="&#xdd;" horiz-adv-x="697" 
d="M592 700h93l-300 -400v-300h-73v300l-300 400h94l244 -328zM327 765l78 125h94l-108 -125h-64z" />
    <glyph glyph-name="Ycircumflex" unicode="&#x176;" horiz-adv-x="697" 
d="M592 700h93l-300 -400v-300h-73v300l-300 400h94l244 -328zM156 765l145 125h98l145 -125h-72l-122 75l-122 -75h-72z" />
    <glyph glyph-name="Ydieresis" unicode="&#x178;" horiz-adv-x="697" 
d="M592 700h93l-300 -400v-300h-73v300l-300 400h94l244 -328zM195 780v80h84v-80h-84zM401 780v80h84v-80h-84z" />
    <glyph glyph-name="Ygrave" unicode="&#x1ef2;" horiz-adv-x="697" 
d="M592 700h93l-300 -400v-300h-73v300l-300 400h94l244 -328zM323 765l-108 125h94l78 -125h-64z" />
    <glyph glyph-name="uni0232" unicode="&#x232;" horiz-adv-x="697" 
d="M592 700h93l-300 -400v-300h-73v300l-300 400h94l244 -328zM188 779v57h333v-57h-333z" />
    <glyph glyph-name="Z" unicode="Z" horiz-adv-x="681" 
d="M144 67h494v-67h-595v64l484 569h-474v67h575v-64z" />
    <glyph glyph-name="Zacute" unicode="&#x179;" horiz-adv-x="681" 
d="M144 67h494v-67h-595v64l484 569h-474v67h575v-64zM318 765l78 125h94l-108 -125h-64z" />
    <glyph glyph-name="Zcaron" unicode="&#x17d;" horiz-adv-x="681" 
d="M144 67h494v-67h-595v64l484 569h-474v67h575v-64zM292 765l-135 125h72l112 -74l112 74h72l-135 -125h-98z" />
    <glyph glyph-name="Zdotaccent" unicode="&#x17b;" horiz-adv-x="681" 
d="M144 67h494v-67h-595v64l484 569h-474v67h575v-64zM302 780v85h78v-85h-78z" />
    <glyph glyph-name="G.ss02" horiz-adv-x="840" 
d="M58 350c-3 208 149 362 377 360c207 0 325 -100 335 -235h-80c-14 105 -99 168 -247 168h-16c-174 0 -295 -110 -295 -293s121 -293 310 -293h9c170 0 251 79 251 185v35h-266v67h340v-89c0 -169 -122 -265 -330 -265c-240 0 -388 150 -388 360z" />
    <glyph glyph-name="Gbreve.ss02" horiz-adv-x="840" 
d="M58 350c-3 208 149 362 377 360c207 0 325 -100 335 -235h-80c-14 105 -99 168 -247 168h-16c-174 0 -295 -110 -295 -293s121 -293 310 -293h9c170 0 251 79 251 185v35h-266v67h340v-89c0 -169 -122 -265 -330 -265c-240 0 -388 150 -388 360zM277 900h60
c8 -51 48 -80 109 -80s104 31 109 80h60c-2 -80 -76 -135 -169 -135s-165 55 -169 135z" />
    <glyph glyph-name="Gcircumflex.ss02" horiz-adv-x="840" 
d="M58 350c-3 208 149 362 377 360c207 0 325 -100 335 -235h-80c-14 105 -99 168 -247 168h-16c-174 0 -295 -110 -295 -293s121 -293 310 -293h9c170 0 251 79 251 185v35h-266v67h340v-89c0 -169 -122 -265 -330 -265c-240 0 -388 150 -388 360zM252 765l145 125h98
l145 -125h-72l-122 75l-122 -75h-72z" />
    <glyph glyph-name="uni0122.ss02" horiz-adv-x="840" 
d="M58 350c-3 208 149 362 377 360c207 0 325 -100 335 -235h-80c-14 105 -99 168 -247 168h-16c-174 0 -295 -110 -295 -293s121 -293 310 -293h9c170 0 251 79 251 185v35h-266v67h340v-89c0 -169 -122 -265 -330 -265c-240 0 -388 150 -388 360zM388 -250v37h18
c29 0 40 11 40 38v10h-41v75h82v-85c0 -45 -31 -75 -79 -75h-20z" />
    <glyph glyph-name="Gdotaccent.ss02" horiz-adv-x="840" 
d="M58 350c-3 208 149 362 377 360c207 0 325 -100 335 -235h-80c-14 105 -99 168 -247 168h-16c-174 0 -295 -110 -295 -293s121 -293 310 -293h9c170 0 251 79 251 185v35h-266v67h340v-89c0 -169 -122 -265 -330 -265c-240 0 -388 150 -388 360zM407 780v85h78v-85h-78z
" />
    <glyph glyph-name="R.ss02" horiz-adv-x="799" 
d="M106 0v700h363c150 0 234 -88 234 -196c0 -88 -61 -155 -114 -171c56 -6 61 -20 90 -98l82 -235h-80l-71 207c-29 76 -31 79 -101 84h-330v-291h-73zM179 358h285c103 0 165 56 165 141c0 81 -63 134 -165 134h-285v-275z" />
    <glyph glyph-name="Racute.ss02" horiz-adv-x="799" 
d="M106 0v700h363c150 0 234 -88 234 -196c0 -88 -61 -155 -114 -171c56 -6 61 -20 90 -98l82 -235h-80l-71 207c-29 76 -31 79 -101 84h-330v-291h-73zM179 358h285c103 0 165 56 165 141c0 81 -63 134 -165 134h-285v-275zM351 765l78 125h94l-108 -125h-64z" />
    <glyph glyph-name="Rcaron.ss02" horiz-adv-x="799" 
d="M106 0v700h363c150 0 234 -88 234 -196c0 -88 -61 -155 -114 -171c56 -6 61 -20 90 -98l82 -235h-80l-71 207c-29 76 -31 79 -101 84h-330v-291h-73zM179 358h285c103 0 165 56 165 141c0 81 -63 134 -165 134h-285v-275zM325 765l-135 125h72l112 -74l112 74h72
l-135 -125h-98z" />
    <glyph glyph-name="uni0156.ss02" horiz-adv-x="799" 
d="M106 0v700h363c150 0 234 -88 234 -196c0 -88 -61 -155 -114 -171c56 -6 61 -20 90 -98l82 -235h-80l-71 207c-29 76 -31 79 -101 84h-330v-291h-73zM179 358h285c103 0 165 56 165 141c0 81 -63 134 -165 134h-285v-275zM373 -250v37h18c29 0 40 11 40 38v10h-41v75h82
v-85c0 -45 -31 -75 -79 -75h-20z" />
    <glyph glyph-name="a" unicode="a" horiz-adv-x="598" 
d="M50 139c0 96 73 144 188 151l210 12v20c0 84 -57 131 -154 131h-16c-75 0 -136 -37 -144 -93h-70c10 86 100 150 222 150c147 0 230 -78 230 -190v-210c0 -32 2 -69 7 -110h-63c-4 23 -7 61 -7 81c-30 -48 -108 -91 -212 -91c-123 0 -191 62 -191 149zM248 47h14
c90 0 186 59 186 155v44l-178 -9c-108 -7 -151 -38 -151 -94c0 -60 41 -96 129 -96z" />
    <glyph glyph-name="aacute" unicode="&#xe1;" horiz-adv-x="598" 
d="M50 139c0 96 73 144 188 151l210 12v20c0 84 -57 131 -154 131h-16c-75 0 -136 -37 -144 -93h-70c10 86 100 150 222 150c147 0 230 -78 230 -190v-210c0 -32 2 -69 7 -110h-63c-4 23 -7 61 -7 81c-30 -48 -108 -91 -212 -91c-123 0 -191 62 -191 149zM248 47h14
c90 0 186 59 186 155v44l-178 -9c-108 -7 -151 -38 -151 -94c0 -60 41 -96 129 -96zM269 570l77 130h85l-108 -130h-54z" />
    <glyph glyph-name="abreve" unicode="&#x103;" horiz-adv-x="598" 
d="M50 139c0 96 73 144 188 151l210 12v20c0 84 -57 131 -154 131h-16c-75 0 -136 -37 -144 -93h-70c10 86 100 150 222 150c147 0 230 -78 230 -190v-210c0 -32 2 -69 7 -110h-63c-4 23 -7 61 -7 81c-30 -48 -108 -91 -212 -91c-123 0 -191 62 -191 149zM248 47h14
c90 0 186 59 186 155v44l-178 -9c-108 -7 -151 -38 -151 -94c0 -60 41 -96 129 -96zM122 711h54c6 -51 54 -89 120 -89s112 38 120 89h54c-2 -76 -77 -140 -174 -140c-98 0 -172 64 -174 140z" />
    <glyph glyph-name="acircumflex" unicode="&#xe2;" horiz-adv-x="598" 
d="M50 139c0 96 73 144 188 151l210 12v20c0 84 -57 131 -154 131h-16c-75 0 -136 -37 -144 -93h-70c10 86 100 150 222 150c147 0 230 -78 230 -190v-210c0 -32 2 -69 7 -110h-63c-4 23 -7 61 -7 81c-30 -48 -108 -91 -212 -91c-123 0 -191 62 -191 149zM248 47h14
c90 0 186 59 186 155v44l-178 -9c-108 -7 -151 -38 -151 -94c0 -60 41 -96 129 -96zM101 570l157 130h77l157 -130h-69l-127 78l-127 -78h-68z" />
    <glyph glyph-name="adieresis" unicode="&#xe4;" horiz-adv-x="598" 
d="M50 139c0 96 73 144 188 151l210 12v20c0 84 -57 131 -154 131h-16c-75 0 -136 -37 -144 -93h-70c10 86 100 150 222 150c147 0 230 -78 230 -190v-210c0 -32 2 -69 7 -110h-63c-4 23 -7 61 -7 81c-30 -48 -108 -91 -212 -91c-123 0 -191 62 -191 149zM248 47h14
c90 0 186 59 186 155v44l-178 -9c-108 -7 -151 -38 -151 -94c0 -60 41 -96 129 -96zM149 590v80h77v-80h-77zM366 590v80h77v-80h-77z" />
    <glyph glyph-name="uni0227" unicode="&#x227;" horiz-adv-x="598" 
d="M50 139c0 96 73 144 188 151l210 12v20c0 84 -57 131 -154 131h-16c-75 0 -136 -37 -144 -93h-70c10 86 100 150 222 150c147 0 230 -78 230 -190v-210c0 -32 2 -69 7 -110h-63c-4 23 -7 61 -7 81c-30 -48 -108 -91 -212 -91c-123 0 -191 62 -191 149zM248 47h14
c90 0 186 59 186 155v44l-178 -9c-108 -7 -151 -38 -151 -94c0 -60 41 -96 129 -96zM256 590v85h78v-85h-78z" />
    <glyph glyph-name="uni1EA1" unicode="&#x1ea1;" horiz-adv-x="598" 
d="M50 139c0 96 73 144 188 151l210 12v20c0 84 -57 131 -154 131h-16c-75 0 -136 -37 -144 -93h-70c10 86 100 150 222 150c147 0 230 -78 230 -190v-210c0 -32 2 -69 7 -110h-63c-4 23 -7 61 -7 81c-30 -48 -108 -91 -212 -91c-123 0 -191 62 -191 149zM248 47h14
c90 0 186 59 186 155v44l-178 -9c-108 -7 -151 -38 -151 -94c0 -60 41 -96 129 -96zM247 -165v75h77v-75h-77z" />
    <glyph glyph-name="agrave" unicode="&#xe0;" horiz-adv-x="598" 
d="M50 139c0 96 73 144 188 151l210 12v20c0 84 -57 131 -154 131h-16c-75 0 -136 -37 -144 -93h-70c10 86 100 150 222 150c147 0 230 -78 230 -190v-210c0 -32 2 -69 7 -110h-63c-4 23 -7 61 -7 81c-30 -48 -108 -91 -212 -91c-123 0 -191 62 -191 149zM248 47h14
c90 0 186 59 186 155v44l-178 -9c-108 -7 -151 -38 -151 -94c0 -60 41 -96 129 -96zM269 570l-108 130h85l77 -130h-54z" />
    <glyph glyph-name="amacron" unicode="&#x101;" horiz-adv-x="598" 
d="M50 139c0 96 73 144 188 151l210 12v20c0 84 -57 131 -154 131h-16c-75 0 -136 -37 -144 -93h-70c10 86 100 150 222 150c147 0 230 -78 230 -190v-210c0 -32 2 -69 7 -110h-63c-4 23 -7 61 -7 81c-30 -48 -108 -91 -212 -91c-123 0 -191 62 -191 149zM248 47h14
c90 0 186 59 186 155v44l-178 -9c-108 -7 -151 -38 -151 -94c0 -60 41 -96 129 -96zM126 590v55h309v-55h-309z" />
    <glyph glyph-name="aogonek" unicode="&#x105;" horiz-adv-x="598" 
d="M50 139c0 96 73 144 188 151l210 12v20c0 84 -57 131 -154 131h-16c-75 0 -136 -37 -144 -93h-70c10 86 100 150 222 150c147 0 230 -78 230 -190v-210c0 -32 2 -69 7 -110h-63c-4 23 -7 61 -7 81c-30 -48 -108 -91 -212 -91c-123 0 -191 62 -191 149zM248 47h14
c90 0 186 59 186 155v44l-178 -9c-108 -7 -151 -38 -151 -94c0 -60 41 -96 129 -96zM378 -117c0 48 42 96 117 127l28 -10c-64 -36 -93 -68 -93 -100c0 -29 24 -38 61 -38h45v-57h-45c-77 0 -113 29 -113 78z" />
    <glyph glyph-name="aring" unicode="&#xe5;" horiz-adv-x="598" 
d="M50 139c0 96 73 144 188 151l210 12v20c0 84 -57 131 -154 131h-16c-75 0 -136 -37 -144 -93h-70c10 86 100 150 222 150c147 0 230 -78 230 -190v-210c0 -32 2 -69 7 -110h-63c-4 23 -7 61 -7 81c-30 -48 -108 -91 -212 -91c-123 0 -191 62 -191 149zM248 47h14
c90 0 186 59 186 155v44l-178 -9c-108 -7 -151 -38 -151 -94c0 -60 41 -96 129 -96zM188 664c0 48 49 93 108 93c58 0 109 -45 109 -93c0 -51 -51 -93 -109 -93c-59 0 -108 42 -108 93zM353 664c0 28 -23 47 -56 47s-57 -19 -57 -47s24 -47 57 -47s56 19 56 47z" />
    <glyph glyph-name="aringacute" unicode="&#x1fb;" horiz-adv-x="598" 
d="M50 139c0 96 73 144 188 151l210 12v20c0 84 -57 131 -154 131h-16c-75 0 -136 -37 -144 -93h-70c10 86 100 150 222 150c147 0 230 -78 230 -190v-210c0 -32 2 -69 7 -110h-63c-4 23 -7 61 -7 81c-30 -48 -108 -91 -212 -91c-123 0 -191 62 -191 149zM248 47h14
c90 0 186 59 186 155v44l-178 -9c-108 -7 -151 -38 -151 -94c0 -60 41 -96 129 -96zM273 788l57 130h83l-88 -130h-52zM190 664c0 48 49 93 108 93c58 0 109 -45 109 -93c0 -51 -51 -93 -109 -93c-59 0 -108 42 -108 93zM355 664c0 28 -23 47 -56 47s-57 -19 -57 -47
s24 -47 57 -47s56 19 56 47z" />
    <glyph glyph-name="atilde" unicode="&#xe3;" horiz-adv-x="598" 
d="M50 139c0 96 73 144 188 151l210 12v20c0 84 -57 131 -154 131h-16c-75 0 -136 -37 -144 -93h-70c10 86 100 150 222 150c147 0 230 -78 230 -190v-210c0 -32 2 -69 7 -110h-63c-4 23 -7 61 -7 81c-30 -48 -108 -91 -212 -91c-123 0 -191 62 -191 149zM248 47h14
c90 0 186 59 186 155v44l-178 -9c-108 -7 -151 -38 -151 -94c0 -60 41 -96 129 -96zM293 605l-32 21c-19 12 -35 19 -56 19c-31 0 -49 -23 -49 -64h-55v13c0 65 42 107 103 107c28 0 55 -8 80 -25l34 -22c3 -1 5 -3 8 -6c25 -13 38 -21 62 -21c31 0 47 23 47 64h55v-13
c0 -64 -45 -107 -100 -107c-31 0 -57 7 -97 34z" />
    <glyph glyph-name="ae" unicode="&#xe6;" horiz-adv-x="1005" 
d="M50 139c0 96 75 144 188 151l210 12v20c0 84 -57 131 -154 131h-16c-75 0 -136 -37 -144 -93h-70c10 86 100 150 222 150c104 0 175 -37 208 -104c48 68 128 104 216 104c145 0 242 -97 242 -241v-27h-436c6 -129 94 -195 190 -195h14c71 0 138 39 156 96h70
c-18 -92 -112 -153 -232 -153c-103 0 -186 41 -230 120c-44 -76 -126 -120 -243 -120c-123 0 -191 62 -191 149zM519 299h360c-4 98 -76 154 -162 154h-14c-102 0 -168 -61 -184 -154zM248 47h14c90 0 186 59 186 155v44l-178 -9c-108 -7 -151 -37 -151 -94
c0 -60 41 -96 129 -96z" />
    <glyph glyph-name="aeacute" unicode="&#x1fd;" horiz-adv-x="1005" 
d="M50 139c0 96 75 144 188 151l210 12v20c0 84 -57 131 -154 131h-16c-75 0 -136 -37 -144 -93h-70c10 86 100 150 222 150c104 0 175 -37 208 -104c48 68 128 104 216 104c145 0 242 -97 242 -241v-27h-436c6 -129 94 -195 190 -195h14c71 0 138 39 156 96h70
c-18 -92 -112 -153 -232 -153c-103 0 -186 41 -230 120c-44 -76 -126 -120 -243 -120c-123 0 -191 62 -191 149zM519 299h360c-4 98 -76 154 -162 154h-14c-102 0 -168 -61 -184 -154zM248 47h14c90 0 186 59 186 155v44l-178 -9c-108 -7 -151 -37 -151 -94
c0 -60 41 -96 129 -96zM475 570l77 130h85l-108 -130h-54z" />
    <glyph glyph-name="uni01E3" unicode="&#x1e3;" horiz-adv-x="1005" 
d="M50 139c0 96 75 144 188 151l210 12v20c0 84 -57 131 -154 131h-16c-75 0 -136 -37 -144 -93h-70c10 86 100 150 222 150c104 0 175 -37 208 -104c48 68 128 104 216 104c145 0 242 -97 242 -241v-27h-436c6 -129 94 -195 190 -195h14c71 0 138 39 156 96h70
c-18 -92 -112 -153 -232 -153c-103 0 -186 41 -230 120c-44 -76 -126 -120 -243 -120c-123 0 -191 62 -191 149zM519 299h360c-4 98 -76 154 -162 154h-14c-102 0 -168 -61 -184 -154zM248 47h14c90 0 186 59 186 155v44l-178 -9c-108 -7 -151 -37 -151 -94
c0 -60 41 -96 129 -96zM332 590v55h309v-55h-309z" />
    <glyph glyph-name="b" unicode="b" horiz-adv-x="681" 
d="M155 80v-80h-68v700h68v-282c37 55 112 92 212 92c152 0 261 -93 261 -260c0 -160 -110 -260 -263 -260c-91 0 -167 33 -210 90zM354 47h14c113 0 191 74 191 203s-78 203 -191 203h-14c-114 0 -199 -76 -199 -203s85 -203 199 -203z" />
    <glyph glyph-name="c" unicode="c" horiz-adv-x="609" 
d="M52 250c0 146 106 260 268 260c130 0 225 -65 239 -170h-70c-13 71 -77 113 -162 113h-14c-124 0 -192 -94 -192 -203s68 -203 192 -203h14c84 0 146 50 162 113h70c-14 -98 -110 -170 -239 -170c-171 0 -268 106 -268 260z" />
    <glyph glyph-name="cacute" unicode="&#x107;" horiz-adv-x="609" 
d="M52 250c0 146 106 260 268 260c130 0 225 -65 239 -170h-70c-13 71 -77 113 -162 113h-14c-124 0 -192 -94 -192 -203s68 -203 192 -203h14c84 0 146 50 162 113h70c-14 -98 -110 -170 -239 -170c-171 0 -268 106 -268 260zM293 570l77 130h85l-108 -130h-54z" />
    <glyph glyph-name="ccaron" unicode="&#x10d;" horiz-adv-x="609" 
d="M52 250c0 146 106 260 268 260c130 0 225 -65 239 -170h-70c-13 71 -77 113 -162 113h-14c-124 0 -192 -94 -192 -203s68 -203 192 -203h14c84 0 146 50 162 113h70c-14 -98 -110 -170 -239 -170c-171 0 -268 106 -268 260zM282 570l-157 130h69l127 -78l127 78h68
l-157 -130h-77z" />
    <glyph glyph-name="ccedilla" unicode="&#xe7;" horiz-adv-x="609" 
d="M52 250c0 146 106 260 268 260c130 0 225 -65 239 -170h-70c-13 71 -77 113 -162 113h-14c-124 0 -192 -94 -192 -203s68 -203 192 -203h14c84 0 146 50 162 113h70c-14 -98 -110 -170 -239 -170c-171 0 -268 106 -268 260zM236 -225v56h76c35 0 58 14 58 42
c0 27 -23 41 -58 41h-29v101h47v-60c50 0 92 -34 92 -85c0 -57 -40 -95 -111 -95h-75z" />
    <glyph glyph-name="ccircumflex" unicode="&#x109;" horiz-adv-x="609" 
d="M52 250c0 146 106 260 268 260c130 0 225 -65 239 -170h-70c-13 71 -77 113 -162 113h-14c-124 0 -192 -94 -192 -203s68 -203 192 -203h14c84 0 146 50 162 113h70c-14 -98 -110 -170 -239 -170c-171 0 -268 106 -268 260zM125 570l157 130h77l157 -130h-69l-127 78
l-127 -78h-68z" />
    <glyph glyph-name="cdotaccent" unicode="&#x10b;" horiz-adv-x="609" 
d="M52 250c0 146 106 260 268 260c130 0 225 -65 239 -170h-70c-13 71 -77 113 -162 113h-14c-124 0 -192 -94 -192 -203s68 -203 192 -203h14c84 0 146 50 162 113h70c-14 -98 -110 -170 -239 -170c-171 0 -268 106 -268 260zM280 590v85h78v-85h-78z" />
    <glyph glyph-name="d" unicode="d" horiz-adv-x="681" 
d="M53 250c0 167 110 260 266 260c95 0 164 -36 207 -92v282h68v-700h-68v80c-43 -57 -121 -90 -210 -90c-152 0 -263 100 -263 260zM313 47h14c114 0 199 76 199 203s-85 203 -199 203h-14c-113 0 -191 -74 -191 -203s78 -203 191 -203z" />
    <glyph glyph-name="eth" unicode="&#xf0;" horiz-adv-x="665" 
d="M602 307c0 -204 -94 -317 -279 -317c-165 0 -270 101 -270 244c0 139 105 241 270 241c68 0 161 -25 207 -95c-13 87 -54 152 -114 199l-115 -61l-24 47l84 45c-49 23 -105 35 -168 35c-5 0 -14 0 -27 -1v57c101 2 186 -17 256 -57l115 61l25 -49l-90 -48
c85 -71 130 -177 130 -301zM527 234c0 120 -97 185 -200 185h-10c-111 0 -195 -64 -195 -185c0 -122 84 -188 195 -188h10c103 0 200 67 200 188z" />
    <glyph glyph-name="dcaron" unicode="&#x10f;" horiz-adv-x="702" 
d="M53 250c0 167 110 260 266 260c95 0 164 -36 207 -92v282h68v-700h-68v80c-43 -57 -121 -90 -210 -90c-152 0 -263 100 -263 260zM313 47h14c114 0 199 76 199 203s-85 203 -199 203h-14c-113 0 -191 -74 -191 -203s78 -203 191 -203zM653 540v37h18c29 0 40 11 40 38v10
h-41v75h82v-85c0 -45 -31 -75 -79 -75h-20z" />
    <glyph glyph-name="dcroat" unicode="&#x111;" horiz-adv-x="681" 
d="M53 250c0 167 110 260 266 260c95 0 164 -36 207 -92v282h68v-700h-68v80c-43 -57 -121 -90 -210 -90c-152 0 -263 100 -263 260zM313 47h14c114 0 199 76 199 203s-85 203 -199 203h-14c-113 0 -191 -74 -191 -203s78 -203 191 -203zM318 576v52h367v-52h-367z" />
    <glyph glyph-name="e" unicode="e" horiz-adv-x="610" 
d="M557 269v-27h-435c4 -130 94 -195 189 -195h14c71 0 138 39 156 96h70c-18 -92 -112 -153 -232 -153c-153 0 -266 92 -266 264c0 164 122 256 262 256c145 0 242 -97 242 -241zM125 299h359c-4 98 -76 154 -162 154h-14c-103 0 -168 -59 -183 -154z" />
    <glyph glyph-name="eacute" unicode="&#xe9;" horiz-adv-x="610" 
d="M557 269v-27h-435c4 -130 94 -195 189 -195h14c71 0 138 39 156 96h70c-18 -92 -112 -153 -232 -153c-153 0 -266 92 -266 264c0 164 122 256 262 256c145 0 242 -97 242 -241zM125 299h359c-4 98 -76 154 -162 154h-14c-103 0 -168 -59 -183 -154zM289 570l77 130h85
l-108 -130h-54z" />
    <glyph glyph-name="ebreve" unicode="&#x115;" horiz-adv-x="610" 
d="M557 269v-27h-435c4 -130 94 -195 189 -195h14c71 0 138 39 156 96h70c-18 -92 -112 -153 -232 -153c-153 0 -266 92 -266 264c0 164 122 256 262 256c145 0 242 -97 242 -241zM125 299h359c-4 98 -76 154 -162 154h-14c-103 0 -168 -59 -183 -154zM142 711h54
c6 -51 54 -89 120 -89s112 38 120 89h54c-2 -76 -77 -140 -174 -140c-98 0 -172 64 -174 140z" />
    <glyph glyph-name="ecaron" unicode="&#x11b;" horiz-adv-x="610" 
d="M557 269v-27h-435c4 -130 94 -195 189 -195h14c71 0 138 39 156 96h70c-18 -92 -112 -153 -232 -153c-153 0 -266 92 -266 264c0 164 122 256 262 256c145 0 242 -97 242 -241zM125 299h359c-4 98 -76 154 -162 154h-14c-103 0 -168 -59 -183 -154zM278 570l-157 130h69
l127 -78l127 78h68l-157 -130h-77z" />
    <glyph glyph-name="ecircumflex" unicode="&#xea;" horiz-adv-x="610" 
d="M557 269v-27h-435c4 -130 94 -195 189 -195h14c71 0 138 39 156 96h70c-18 -92 -112 -153 -232 -153c-153 0 -266 92 -266 264c0 164 122 256 262 256c145 0 242 -97 242 -241zM125 299h359c-4 98 -76 154 -162 154h-14c-103 0 -168 -59 -183 -154zM121 570l157 130h77
l157 -130h-69l-127 78l-127 -78h-68z" />
    <glyph glyph-name="edieresis" unicode="&#xeb;" horiz-adv-x="610" 
d="M557 269v-27h-435c4 -130 94 -195 189 -195h14c71 0 138 39 156 96h70c-18 -92 -112 -153 -232 -153c-153 0 -266 92 -266 264c0 164 122 256 262 256c145 0 242 -97 242 -241zM125 299h359c-4 98 -76 154 -162 154h-14c-103 0 -168 -59 -183 -154zM169 590v80h77v-80
h-77zM386 590v80h77v-80h-77z" />
    <glyph glyph-name="edotaccent" unicode="&#x117;" horiz-adv-x="610" 
d="M557 269v-27h-435c4 -130 94 -195 189 -195h14c71 0 138 39 156 96h70c-18 -92 -112 -153 -232 -153c-153 0 -266 92 -266 264c0 164 122 256 262 256c145 0 242 -97 242 -241zM125 299h359c-4 98 -76 154 -162 154h-14c-103 0 -168 -59 -183 -154zM276 590v85h78v-85
h-78z" />
    <glyph glyph-name="uni1EB9" unicode="&#x1eb9;" horiz-adv-x="610" 
d="M557 269v-27h-435c4 -130 94 -195 189 -195h14c71 0 138 39 156 96h70c-18 -92 -112 -153 -232 -153c-153 0 -266 92 -266 264c0 164 122 256 262 256c145 0 242 -97 242 -241zM125 299h359c-4 98 -76 154 -162 154h-14c-103 0 -168 -59 -183 -154zM278 -165v75h77v-75
h-77z" />
    <glyph glyph-name="egrave" unicode="&#xe8;" horiz-adv-x="610" 
d="M557 269v-27h-435c4 -130 94 -195 189 -195h14c71 0 138 39 156 96h70c-18 -92 -112 -153 -232 -153c-153 0 -266 92 -266 264c0 164 122 256 262 256c145 0 242 -97 242 -241zM125 299h359c-4 98 -76 154 -162 154h-14c-103 0 -168 -59 -183 -154zM289 570l-108 130h85
l77 -130h-54z" />
    <glyph glyph-name="emacron" unicode="&#x113;" horiz-adv-x="610" 
d="M557 269v-27h-435c4 -130 94 -195 189 -195h14c71 0 138 39 156 96h70c-18 -92 -112 -153 -232 -153c-153 0 -266 92 -266 264c0 164 122 256 262 256c145 0 242 -97 242 -241zM125 299h359c-4 98 -76 154 -162 154h-14c-103 0 -168 -59 -183 -154zM146 590v55h309v-55
h-309z" />
    <glyph glyph-name="eogonek" unicode="&#x119;" horiz-adv-x="610" 
d="M557 269v-27h-435c4 -130 94 -195 189 -195h14c71 0 138 39 156 96h70c-18 -92 -112 -153 -232 -153c-153 0 -266 92 -266 264c0 164 122 256 262 256c145 0 242 -97 242 -241zM125 299h359c-4 98 -76 154 -162 154h-14c-103 0 -168 -59 -183 -154zM255 -117
c0 48 42 96 117 127l28 -10c-64 -36 -93 -68 -93 -100c0 -29 24 -38 61 -38h45v-57h-45c-77 0 -113 29 -113 78z" />
    <glyph glyph-name="f" unicode="f" horiz-adv-x="409" 
d="M162 0v443h-141v57h141v91c0 69 42 109 103 109h151v-57h-130c-41 0 -56 -19 -56 -70v-73h156v-57h-156v-443h-68z" />
    <glyph glyph-name="g" unicode="g" horiz-adv-x="667" 
d="M39 -70h72c17 -60 86 -93 185 -93h14c115 0 202 62 202 185v73c-39 -52 -106 -95 -205 -95c-150 0 -254 82 -254 255c0 169 124 255 257 255c115 0 170 -52 202 -91v81h68v-486c0 -132 -95 -234 -277 -234c-157 0 -252 62 -264 150zM305 57h14c99 0 193 77 193 198
c0 120 -89 198 -188 198h-14c-103 0 -188 -61 -188 -198s79 -198 183 -198z" />
    <glyph glyph-name="gbreve" unicode="&#x11f;" horiz-adv-x="667" 
d="M39 -70h72c17 -60 86 -93 185 -93h14c115 0 202 62 202 185v73c-39 -52 -106 -95 -205 -95c-150 0 -254 82 -254 255c0 169 124 255 257 255c115 0 170 -52 202 -91v81h68v-486c0 -132 -95 -234 -277 -234c-157 0 -252 62 -264 150zM305 57h14c99 0 193 77 193 198
c0 120 -89 198 -188 198h-14c-103 0 -188 -61 -188 -198s79 -198 183 -198zM137 711h54c6 -51 54 -89 120 -89s112 38 120 89h54c-2 -76 -77 -140 -174 -140c-98 0 -172 64 -174 140z" />
    <glyph glyph-name="gcircumflex" unicode="&#x11d;" horiz-adv-x="667" 
d="M39 -70h72c17 -60 86 -93 185 -93h14c115 0 202 62 202 185v73c-39 -52 -106 -95 -205 -95c-150 0 -254 82 -254 255c0 169 124 255 257 255c115 0 170 -52 202 -91v81h68v-486c0 -132 -95 -234 -277 -234c-157 0 -252 62 -264 150zM305 57h14c99 0 193 77 193 198
c0 120 -89 198 -188 198h-14c-103 0 -188 -61 -188 -198s79 -198 183 -198zM116 570l157 130h77l157 -130h-69l-127 78l-127 -78h-68z" />
    <glyph glyph-name="uni0123" unicode="&#x123;" horiz-adv-x="667" 
d="M39 -70h72c17 -60 86 -93 185 -93h14c115 0 202 62 202 185v73c-39 -52 -106 -95 -205 -95c-150 0 -254 82 -254 255c0 169 124 255 257 255c115 0 170 -52 202 -91v81h68v-486c0 -132 -95 -234 -277 -234c-157 0 -252 62 -264 150zM305 57h14c99 0 193 77 193 198
c0 120 -89 198 -188 198h-14c-103 0 -188 -61 -188 -198s79 -198 183 -198zM370 757v-37h-18c-29 0 -40 -11 -40 -38v-10h41v-75h-82v85c0 45 31 75 79 75h20z" />
    <glyph glyph-name="gdotaccent" unicode="&#x121;" horiz-adv-x="667" 
d="M39 -70h72c17 -60 86 -93 185 -93h14c115 0 202 62 202 185v73c-39 -52 -106 -95 -205 -95c-150 0 -254 82 -254 255c0 169 124 255 257 255c115 0 170 -52 202 -91v81h68v-486c0 -132 -95 -234 -277 -234c-157 0 -252 62 -264 150zM305 57h14c99 0 193 77 193 198
c0 120 -89 198 -188 198h-14c-103 0 -188 -61 -188 -198s79 -198 183 -198zM271 590v85h78v-85h-78z" />
    <glyph glyph-name="h" unicode="h" horiz-adv-x="651" 
d="M87 0v700h68v-287c46 65 115 97 206 97c131 0 210 -86 210 -206v-304h-68v280c0 107 -49 173 -146 173h-14c-98 0 -188 -83 -188 -201v-252h-68z" />
    <glyph glyph-name="hbar" unicode="&#x127;" horiz-adv-x="651" 
d="M87 0v700h68v-287c46 65 115 97 206 97c131 0 210 -86 210 -206v-304h-68v280c0 107 -49 173 -146 173h-14c-98 0 -188 -83 -188 -201v-252h-68zM-3 576v52h367v-52h-367z" />
    <glyph glyph-name="hcircumflex" unicode="&#x125;" horiz-adv-x="651" 
d="M87 0v700h68v-287c46 65 115 97 206 97c131 0 210 -86 210 -206v-304h-68v280c0 107 -49 173 -146 173h-14c-98 0 -188 -83 -188 -201v-252h-68zM-74 750l157 130h77l157 -130h-69l-127 78l-127 -78h-68z" />
    <glyph glyph-name="i" unicode="i" horiz-adv-x="242" 
d="M87 0v500h68v-500h-68zM81 590v85h78v-85h-78z" />
    <glyph glyph-name="dotlessi" unicode="&#x131;" horiz-adv-x="242" 
d="M87 0v500h68v-500h-68z" />
    <glyph glyph-name="iacute" unicode="&#xed;" horiz-adv-x="242" 
d="M87 0v500h68v-500h-68zM94 570l77 130h85l-108 -130h-54z" />
    <glyph glyph-name="ibreve" unicode="&#x12d;" horiz-adv-x="242" 
d="M87 0v500h68v-500h-68zM-53 711h54c6 -51 54 -89 120 -89s112 38 120 89h54c-2 -76 -77 -140 -174 -140c-98 0 -172 64 -174 140z" />
    <glyph glyph-name="icircumflex" unicode="&#xee;" horiz-adv-x="242" 
d="M87 0v500h68v-500h-68zM-74 570l157 130h77l157 -130h-69l-127 78l-127 -78h-68z" />
    <glyph glyph-name="idieresis" unicode="&#xef;" horiz-adv-x="242" 
d="M87 0v500h68v-500h-68zM-26 590v80h77v-80h-77zM191 590v80h77v-80h-77z" />
    <glyph glyph-name="i.locl" horiz-adv-x="242" 
d="M87 0v500h68v-500h-68zM81 590v85h78v-85h-78z" />
    <glyph glyph-name="uni1ECB" unicode="&#x1ecb;" horiz-adv-x="242" 
d="M87 0v500h68v-500h-68zM81 590v85h78v-85h-78zM82 -165v75h77v-75h-77z" />
    <glyph glyph-name="igrave" unicode="&#xec;" horiz-adv-x="242" 
d="M87 0v500h68v-500h-68zM94 570l-108 130h85l77 -130h-54z" />
    <glyph glyph-name="ij" unicode="&#x133;" horiz-adv-x="553" 
d="M83 590v85h78v-85h-78zM393 590v85h78v-85h-78zM87 -165v57h251c46 0 60 14 60 60v548h68v-550c0 -64 -40 -115 -102 -115h-277zM87 0v500h68v-500h-68z" />
    <glyph glyph-name="imacron" unicode="&#x12b;" horiz-adv-x="242" 
d="M87 0v500h68v-500h-68zM-49 590v55h309v-55h-309z" />
    <glyph glyph-name="iogonek" unicode="&#x12f;" horiz-adv-x="242" 
d="M87 0v500h68v-500h-68zM81 590v85h78v-85h-78zM10 -117c0 48 42 96 117 127l28 -10c-64 -36 -93 -68 -93 -100c0 -29 24 -38 61 -38h45v-57h-45c-77 0 -113 29 -113 78z" />
    <glyph glyph-name="itilde" unicode="&#x129;" horiz-adv-x="242" 
d="M87 0v500h68v-500h-68zM118 605l-32 21c-19 12 -35 19 -56 19c-31 0 -49 -23 -49 -64h-55v13c0 65 42 107 103 107c28 0 55 -8 80 -25l34 -22c3 -1 5 -3 8 -6c25 -13 38 -21 62 -21c31 0 47 23 47 64h55v-13c0 -64 -45 -107 -100 -107c-31 0 -57 7 -97 34z" />
    <glyph glyph-name="j" unicode="j" horiz-adv-x="252" 
d="M-129 -165v57h166c46 0 60 14 60 60v548h68v-550c0 -64 -40 -115 -102 -115h-192zM86 590v85h78v-85h-78z" />
    <glyph glyph-name="uni0237" unicode="&#x237;" horiz-adv-x="252" 
d="M-129 -165v57h166c46 0 60 14 60 60v548h68v-550c0 -64 -40 -115 -102 -115h-192z" />
    <glyph glyph-name="jcircumflex" unicode="&#x135;" horiz-adv-x="252" 
d="M-129 -165v57h166c46 0 60 14 60 60v548h68v-550c0 -64 -40 -115 -102 -115h-192zM-69 570l157 130h77l157 -130h-69l-127 78l-127 -78h-68z" />
    <glyph glyph-name="k" unicode="k" horiz-adv-x="600" 
d="M495 0l-231 252l-109 -86v-166h-68v700h68v-462l321 262h101l-260 -206l273 -294h-95z" />
    <glyph glyph-name="uni0137" unicode="&#x137;" horiz-adv-x="600" 
d="M495 0l-231 252l-109 -86v-166h-68v700h68v-462l321 262h101l-260 -206l273 -294h-95zM249 -250v37h18c29 0 40 11 40 38v10h-41v75h82v-85c0 -45 -31 -75 -79 -75h-20z" />
    <glyph glyph-name="l" unicode="l" horiz-adv-x="242" 
d="M87 0v700h68v-700h-68z" />
    <glyph glyph-name="lacute" unicode="&#x13a;" horiz-adv-x="242" 
d="M87 0v700h68v-700h-68zM94 770l77 130h85l-108 -130h-54z" />
    <glyph glyph-name="lcaron" unicode="&#x13e;" horiz-adv-x="263" 
d="M87 0v700h68v-700h-68zM208 540v37h18c29 0 40 11 40 38v10h-41v75h82v-85c0 -45 -31 -75 -79 -75h-20z" />
    <glyph glyph-name="uni013C" unicode="&#x13c;" horiz-adv-x="242" 
d="M87 0v700h68v-700h-68zM63 -250v37h18c29 0 40 11 40 38v10h-41v75h82v-85c0 -45 -31 -75 -79 -75h-20z" />
    <glyph glyph-name="ldot" unicode="&#x140;" horiz-adv-x="314" 
d="M87 0v700h68v-700h-68zM228 299v100h100v-100h-100z" />
    <glyph glyph-name="lslash" unicode="&#x142;" horiz-adv-x="308" 
d="M122 0v700h68v-700h-68zM25 300v68l265 133v-67z" />
    <glyph glyph-name="m" unicode="m" horiz-adv-x="1039" 
d="M87 0v500h68v-76c40 57 104 86 191 86c85 0 157 -39 188 -110c41 75 118 110 202 110c152 0 223 -89 223 -213v-297h-68v283c0 104 -51 170 -151 170h-14c-99 0 -169 -81 -169 -205v-248h-68v283c0 104 -50 170 -147 170h-14c-102 0 -173 -81 -173 -205v-248h-68z" />
    <glyph glyph-name="n" unicode="n" horiz-adv-x="651" 
d="M87 0v500h68v-92c32 55 106 102 206 102c131 0 210 -86 210 -206v-304h-68v280c0 107 -49 173 -146 173h-14c-98 0 -188 -83 -188 -201v-252h-68z" />
    <glyph glyph-name="nacute" unicode="&#x144;" horiz-adv-x="651" 
d="M87 0v500h68v-92c32 55 106 102 206 102c131 0 210 -86 210 -206v-304h-68v280c0 107 -49 173 -146 173h-14c-98 0 -188 -83 -188 -201v-252h-68zM310 570l77 130h85l-108 -130h-54z" />
    <glyph glyph-name="ncaron" unicode="&#x148;" horiz-adv-x="651" 
d="M87 0v500h68v-92c32 55 106 102 206 102c131 0 210 -86 210 -206v-304h-68v280c0 107 -49 173 -146 173h-14c-98 0 -188 -83 -188 -201v-252h-68zM299 570l-157 130h69l127 -78l127 78h68l-157 -130h-77z" />
    <glyph glyph-name="uni0146" unicode="&#x146;" horiz-adv-x="651" 
d="M87 0v500h68v-92c32 55 106 102 206 102c131 0 210 -86 210 -206v-304h-68v280c0 107 -49 173 -146 173h-14c-98 0 -188 -83 -188 -201v-252h-68zM269 -250v37h18c29 0 40 11 40 38v10h-41v75h82v-85c0 -45 -31 -75 -79 -75h-20z" />
    <glyph glyph-name="eng" unicode="&#x14b;" horiz-adv-x="651" 
d="M330 -165v57h123c41 0 50 11 50 50v338c0 107 -49 173 -146 173h-14c-98 0 -188 -83 -188 -201v-252h-68v500h68v-91c31 55 107 101 206 101c131 0 210 -86 210 -206v-379c0 -56 -29 -90 -88 -90h-153z" />
    <glyph glyph-name="ntilde" unicode="&#xf1;" horiz-adv-x="651" 
d="M87 0v500h68v-92c32 55 106 102 206 102c131 0 210 -86 210 -206v-304h-68v280c0 107 -49 173 -146 173h-14c-98 0 -188 -83 -188 -201v-252h-68zM334 605l-32 21c-19 12 -35 19 -56 19c-31 0 -49 -23 -49 -64h-55v13c0 65 42 107 103 107c28 0 55 -8 80 -25l34 -22
c3 -1 5 -3 8 -6c25 -13 38 -21 62 -21c31 0 47 23 47 64h55v-13c0 -64 -45 -107 -100 -107c-31 0 -57 7 -97 34z" />
    <glyph glyph-name="o" unicode="o" horiz-adv-x="652" 
d="M52 250c0 157 112 260 274 260c160 0 274 -103 274 -260s-114 -260 -274 -260c-162 0 -274 103 -274 260zM319 47h14c112 0 198 78 198 203s-86 203 -198 203h-14c-114 0 -198 -78 -198 -203s84 -203 198 -203z" />
    <glyph glyph-name="oacute" unicode="&#xf3;" horiz-adv-x="652" 
d="M52 250c0 157 112 260 274 260c160 0 274 -103 274 -260s-114 -260 -274 -260c-162 0 -274 103 -274 260zM319 47h14c112 0 198 78 198 203s-86 203 -198 203h-14c-114 0 -198 -78 -198 -203s84 -203 198 -203zM299 570l77 130h85l-108 -130h-54z" />
    <glyph glyph-name="obreve" unicode="&#x14f;" horiz-adv-x="652" 
d="M52 250c0 157 112 260 274 260c160 0 274 -103 274 -260s-114 -260 -274 -260c-162 0 -274 103 -274 260zM319 47h14c112 0 198 78 198 203s-86 203 -198 203h-14c-114 0 -198 -78 -198 -203s84 -203 198 -203zM152 711h54c6 -51 54 -89 120 -89s112 38 120 89h54
c-2 -76 -77 -140 -174 -140c-98 0 -172 64 -174 140z" />
    <glyph glyph-name="ocircumflex" unicode="&#xf4;" horiz-adv-x="652" 
d="M52 250c0 157 112 260 274 260c160 0 274 -103 274 -260s-114 -260 -274 -260c-162 0 -274 103 -274 260zM319 47h14c112 0 198 78 198 203s-86 203 -198 203h-14c-114 0 -198 -78 -198 -203s84 -203 198 -203zM131 570l157 130h77l157 -130h-69l-127 78l-127 -78h-68z
" />
    <glyph glyph-name="odieresis" unicode="&#xf6;" horiz-adv-x="652" 
d="M52 250c0 157 112 260 274 260c160 0 274 -103 274 -260s-114 -260 -274 -260c-162 0 -274 103 -274 260zM319 47h14c112 0 198 78 198 203s-86 203 -198 203h-14c-114 0 -198 -78 -198 -203s84 -203 198 -203zM179 590v80h77v-80h-77zM396 590v80h77v-80h-77z" />
    <glyph glyph-name="uni1ECD" unicode="&#x1ecd;" horiz-adv-x="652" 
d="M52 250c0 157 112 260 274 260c160 0 274 -103 274 -260s-114 -260 -274 -260c-162 0 -274 103 -274 260zM319 47h14c112 0 198 78 198 203s-86 203 -198 203h-14c-114 0 -198 -78 -198 -203s84 -203 198 -203zM288 -165v75h77v-75h-77z" />
    <glyph glyph-name="ograve" unicode="&#xf2;" horiz-adv-x="652" 
d="M52 250c0 157 112 260 274 260c160 0 274 -103 274 -260s-114 -260 -274 -260c-162 0 -274 103 -274 260zM319 47h14c112 0 198 78 198 203s-86 203 -198 203h-14c-114 0 -198 -78 -198 -203s84 -203 198 -203zM299 570l-108 130h85l77 -130h-54z" />
    <glyph glyph-name="ohungarumlaut" unicode="&#x151;" horiz-adv-x="652" 
d="M52 250c0 157 112 260 274 260c160 0 274 -103 274 -260s-114 -260 -274 -260c-162 0 -274 103 -274 260zM319 47h14c112 0 198 78 198 203s-86 203 -198 203h-14c-114 0 -198 -78 -198 -203s84 -203 198 -203zM203 570l77 130h85l-108 -130h-54zM392 570l77 130h85
l-108 -130h-54z" />
    <glyph glyph-name="omacron" unicode="&#x14d;" horiz-adv-x="652" 
d="M52 250c0 157 112 260 274 260c160 0 274 -103 274 -260s-114 -260 -274 -260c-162 0 -274 103 -274 260zM319 47h14c112 0 198 78 198 203s-86 203 -198 203h-14c-114 0 -198 -78 -198 -203s84 -203 198 -203zM156 590v55h309v-55h-309z" />
    <glyph glyph-name="oslash" unicode="&#xf8;" horiz-adv-x="655" 
d="M53 250c0 157 112 260 274 260c160 0 274 -103 274 -260s-114 -260 -274 -260c-162 0 -274 103 -274 260zM320 47h14c112 0 198 78 198 203s-86 203 -198 203h-14c-114 0 -198 -78 -198 -203s84 -203 198 -203zM115 -24l-41 40l474 507l41 -40z" />
    <glyph glyph-name="oslashacute" unicode="&#x1ff;" horiz-adv-x="655" 
d="M53 250c0 157 112 260 274 260c160 0 274 -103 274 -260s-114 -260 -274 -260c-162 0 -274 103 -274 260zM320 47h14c112 0 198 78 198 203s-86 203 -198 203h-14c-114 0 -198 -78 -198 -203s84 -203 198 -203zM115 -24l-41 40l474 507l41 -40zM300 570l77 130h85
l-108 -130h-54z" />
    <glyph glyph-name="otilde" unicode="&#xf5;" horiz-adv-x="652" 
d="M52 250c0 157 112 260 274 260c160 0 274 -103 274 -260s-114 -260 -274 -260c-162 0 -274 103 -274 260zM319 47h14c112 0 198 78 198 203s-86 203 -198 203h-14c-114 0 -198 -78 -198 -203s84 -203 198 -203zM323 605l-32 21c-19 12 -35 19 -56 19
c-31 0 -49 -23 -49 -64h-55v13c0 65 42 107 103 107c28 0 55 -8 80 -25l34 -22c3 -1 5 -3 8 -6c25 -13 38 -21 62 -21c31 0 47 23 47 64h55v-13c0 -64 -45 -107 -100 -107c-31 0 -57 7 -97 34z" />
    <glyph glyph-name="oe" unicode="&#x153;" horiz-adv-x="1077" 
d="M52 250c0 157 112 260 273 260c107 0 193 -47 238 -127c43 81 126 127 219 127c145 0 242 -97 242 -241v-27h-425c6 -129 88 -195 179 -195h14c71 0 138 39 156 96h70c-18 -92 -111 -153 -232 -153c-100 0 -180 44 -223 127c-45 -80 -131 -127 -238 -127
c-161 0 -273 103 -273 260zM319 47h14c112 0 198 78 198 203s-86 203 -198 203h-14c-114 0 -198 -78 -198 -203s84 -203 198 -203zM602 299h349c-4 98 -76 154 -162 154h-14c-96 0 -157 -59 -173 -154z" />
    <glyph glyph-name="p" unicode="p" horiz-adv-x="681" 
d="M87 -200v700h68v-83c36 56 120 93 207 93c157 0 266 -100 266 -260c0 -167 -114 -260 -263 -260c-100 0 -173 36 -210 89v-279h-68zM354 47h14c113 0 191 74 191 203s-78 203 -191 203h-14c-114 0 -199 -76 -199 -203s85 -203 199 -203z" />
    <glyph glyph-name="thorn" unicode="&#xfe;" horiz-adv-x="681" 
d="M87 -200v900h68v-283c36 56 120 93 207 93c157 0 266 -100 266 -260c0 -167 -114 -260 -263 -260c-100 0 -173 36 -210 89v-279h-68zM354 47h14c113 0 191 74 191 203s-78 203 -191 203h-14c-114 0 -199 -76 -199 -203s85 -203 199 -203z" />
    <glyph glyph-name="q" unicode="q" horiz-adv-x="680" 
d="M525 -200v282c-40 -53 -111 -92 -210 -92c-147 0 -263 93 -263 260c0 159 111 260 266 260c92 0 167 -37 207 -93v83h68v-700h-68zM312 47h14c114 0 199 76 199 203s-85 203 -199 203h-14c-113 0 -191 -74 -191 -203s78 -203 191 -203z" />
    <glyph glyph-name="r" unicode="r" horiz-adv-x="417" 
d="M87 0v500h63v-96c28 65 82 96 173 96h73v-69h-71c-109 0 -170 -61 -170 -170v-261h-68z" />
    <glyph glyph-name="racute" unicode="&#x155;" horiz-adv-x="417" 
d="M87 0v500h63v-96c28 65 82 96 173 96h73v-69h-71c-109 0 -170 -61 -170 -170v-261h-68zM208 570l77 130h85l-108 -130h-54z" />
    <glyph glyph-name="rcaron" unicode="&#x159;" horiz-adv-x="417" 
d="M87 0v500h63v-96c28 65 82 96 173 96h73v-69h-71c-109 0 -170 -61 -170 -170v-261h-68zM197 570l-157 130h69l127 -78l127 78h68l-157 -130h-77z" />
    <glyph glyph-name="uni0157" unicode="&#x157;" horiz-adv-x="417" 
d="M87 0v500h63v-96c28 65 82 96 173 96h73v-69h-71c-109 0 -170 -61 -170 -170v-261h-68zM68 -250v37h18c29 0 40 11 40 38v10h-41v75h82v-85c0 -45 -31 -75 -79 -75h-20z" />
    <glyph glyph-name="s" unicode="s" horiz-adv-x="556" 
d="M44 150h70c5 -68 69 -103 154 -103h14c91 0 145 29 145 81c0 46 -33 69 -117 85l-83 16c-105 20 -159 59 -159 136c0 97 90 145 208 145c145 0 222 -60 230 -160h-70c-6 58 -60 103 -154 103h-14c-82 0 -131 -37 -131 -80c0 -46 23 -60 120 -80l78 -15
c104 -20 161 -65 161 -145c0 -90 -83 -143 -221 -143c-143 0 -225 62 -231 160z" />
    <glyph glyph-name="sacute" unicode="&#x15b;" horiz-adv-x="556" 
d="M44 150h70c5 -68 69 -103 154 -103h14c91 0 145 29 145 81c0 46 -33 69 -117 85l-83 16c-105 20 -159 59 -159 136c0 97 90 145 208 145c145 0 222 -60 230 -160h-70c-6 58 -60 103 -154 103h-14c-82 0 -131 -37 -131 -80c0 -46 23 -60 120 -80l78 -15
c104 -20 161 -65 161 -145c0 -90 -83 -143 -221 -143c-143 0 -225 62 -231 160zM248 570l77 130h85l-108 -130h-54z" />
    <glyph glyph-name="scaron" unicode="&#x161;" horiz-adv-x="556" 
d="M44 150h70c5 -68 69 -103 154 -103h14c91 0 145 29 145 81c0 46 -33 69 -117 85l-83 16c-105 20 -159 59 -159 136c0 97 90 145 208 145c145 0 222 -60 230 -160h-70c-6 58 -60 103 -154 103h-14c-82 0 -131 -37 -131 -80c0 -46 23 -60 120 -80l78 -15
c104 -20 161 -65 161 -145c0 -90 -83 -143 -221 -143c-143 0 -225 62 -231 160zM237 570l-157 130h69l127 -78l127 78h68l-157 -130h-77z" />
    <glyph glyph-name="scedilla" unicode="&#x15f;" horiz-adv-x="556" 
d="M44 150h70c5 -68 69 -103 154 -103h14c91 0 145 29 145 81c0 46 -33 69 -117 85l-83 16c-105 20 -159 59 -159 136c0 97 90 145 208 145c145 0 222 -60 230 -160h-70c-6 58 -60 103 -154 103h-14c-82 0 -131 -37 -131 -80c0 -46 23 -60 120 -80l78 -15
c104 -20 161 -65 161 -145c0 -90 -83 -143 -221 -143c-143 0 -225 62 -231 160zM199 -225v56h76c35 0 58 14 58 42c0 27 -23 41 -58 41h-29v101h47v-60c50 0 92 -34 92 -85c0 -57 -40 -95 -111 -95h-75z" />
    <glyph glyph-name="scircumflex" unicode="&#x15d;" horiz-adv-x="556" 
d="M44 150h70c5 -68 69 -103 154 -103h14c91 0 145 29 145 81c0 46 -33 69 -117 85l-83 16c-105 20 -159 59 -159 136c0 97 90 145 208 145c145 0 222 -60 230 -160h-70c-6 58 -60 103 -154 103h-14c-82 0 -131 -37 -131 -80c0 -46 23 -60 120 -80l78 -15
c104 -20 161 -65 161 -145c0 -90 -83 -143 -221 -143c-143 0 -225 62 -231 160zM80 570l157 130h77l157 -130h-69l-127 78l-127 -78h-68z" />
    <glyph glyph-name="uni0219" unicode="&#x219;" horiz-adv-x="556" 
d="M44 150h70c5 -68 69 -103 154 -103h14c91 0 145 29 145 81c0 46 -33 69 -117 85l-83 16c-105 20 -159 59 -159 136c0 97 90 145 208 145c145 0 222 -60 230 -160h-70c-6 58 -60 103 -154 103h-14c-82 0 -131 -37 -131 -80c0 -46 23 -60 120 -80l78 -15
c104 -20 161 -65 161 -145c0 -90 -83 -143 -221 -143c-143 0 -225 62 -231 160zM212 -250v37h18c29 0 40 11 40 38v10h-41v75h82v-85c0 -45 -31 -75 -79 -75h-20z" />
    <glyph glyph-name="germandbls" unicode="&#xdf;" horiz-adv-x="620" 
d="M87 -185v667c0 129 88 228 234 228c142 0 222 -84 222 -181c0 -81 -57 -139 -105 -155c53 -12 129 -69 129 -169c0 -133 -95 -205 -224 -205h-106v62h92c105 0 169 54 169 145c0 82 -62 134 -162 134h-99v58h94c107 0 148 61 148 127c0 75 -61 127 -153 127h-10
c-91 0 -164 -59 -164 -177v-661h-65z" />
    <glyph glyph-name="t" unicode="t" horiz-adv-x="426" 
d="M149 113v330h-134v57h134v162h68v-162h166v-57h-166v-316c0 -52 18 -70 67 -70h121v-57h-153c-67 0 -103 42 -103 113z" />
    <glyph glyph-name="tbar" unicode="&#x167;" horiz-adv-x="445" 
d="M164 113v330h-134v57h134v162h68v-162h166v-57h-166v-316c0 -52 18 -70 67 -70h121v-57h-153c-67 0 -103 42 -103 113zM30 250v52h367v-52h-367z" />
    <glyph glyph-name="tcaron" unicode="&#x165;" horiz-adv-x="426" 
d="M149 113v330h-134v57h134v162h68v-162h166v-57h-166v-316c0 -52 18 -70 67 -70h121v-57h-153c-67 0 -103 42 -103 113zM390 540v37h18c29 0 40 11 40 38v10h-41v75h82v-85c0 -45 -31 -75 -79 -75h-20z" />
    <glyph glyph-name="uni0163" unicode="&#x163;" horiz-adv-x="426" 
d="M149 113v330h-134v57h134v162h68v-162h166v-57h-166v-316c0 -52 18 -70 67 -70h121v-57h-153c-67 0 -103 42 -103 113zM149 -225v56h76c35 0 58 14 58 42c0 27 -23 41 -58 41h-29v101h47v-60c50 0 92 -34 92 -85c0 -57 -40 -95 -111 -95h-75z" />
    <glyph glyph-name="uni021B" unicode="&#x21b;" horiz-adv-x="426" 
d="M149 113v330h-134v57h134v162h68v-162h166v-57h-166v-316c0 -52 18 -70 67 -70h121v-57h-153c-67 0 -103 42 -103 113zM162 -250v37h18c29 0 40 11 40 38v10h-41v75h82v-85c0 -45 -31 -75 -79 -75h-20z" />
    <glyph glyph-name="u" unicode="u" horiz-adv-x="643" 
d="M81 189v311h68v-289c0 -109 43 -164 140 -164h14c99 0 185 77 185 196v257h68v-500h-68v94c-37 -61 -108 -104 -208 -104c-128 0 -199 78 -199 199z" />
    <glyph glyph-name="uacute" unicode="&#xfa;" horiz-adv-x="643" 
d="M81 189v311h68v-289c0 -109 43 -164 140 -164h14c99 0 185 77 185 196v257h68v-500h-68v94c-37 -61 -108 -104 -208 -104c-128 0 -199 78 -199 199zM292 570l77 130h85l-108 -130h-54z" />
    <glyph glyph-name="ubreve" unicode="&#x16d;" horiz-adv-x="643" 
d="M81 189v311h68v-289c0 -109 43 -164 140 -164h14c99 0 185 77 185 196v257h68v-500h-68v94c-37 -61 -108 -104 -208 -104c-128 0 -199 78 -199 199zM145 711h54c6 -51 54 -89 120 -89s112 38 120 89h54c-2 -76 -77 -140 -174 -140c-98 0 -172 64 -174 140z" />
    <glyph glyph-name="ucircumflex" unicode="&#xfb;" horiz-adv-x="643" 
d="M81 189v311h68v-289c0 -109 43 -164 140 -164h14c99 0 185 77 185 196v257h68v-500h-68v94c-37 -61 -108 -104 -208 -104c-128 0 -199 78 -199 199zM124 570l157 130h77l157 -130h-69l-127 78l-127 -78h-68z" />
    <glyph glyph-name="udieresis" unicode="&#xfc;" horiz-adv-x="643" 
d="M81 189v311h68v-289c0 -109 43 -164 140 -164h14c99 0 185 77 185 196v257h68v-500h-68v94c-37 -61 -108 -104 -208 -104c-128 0 -199 78 -199 199zM172 590v80h77v-80h-77zM389 590v80h77v-80h-77z" />
    <glyph glyph-name="uni1EE5" unicode="&#x1ee5;" horiz-adv-x="643" 
d="M81 189v311h68v-289c0 -109 43 -164 140 -164h14c99 0 185 77 185 196v257h68v-500h-68v94c-37 -61 -108 -104 -208 -104c-128 0 -199 78 -199 199zM283 -165v75h77v-75h-77z" />
    <glyph glyph-name="ugrave" unicode="&#xf9;" horiz-adv-x="643" 
d="M81 189v311h68v-289c0 -109 43 -164 140 -164h14c99 0 185 77 185 196v257h68v-500h-68v94c-37 -61 -108 -104 -208 -104c-128 0 -199 78 -199 199zM292 570l-108 130h85l77 -130h-54z" />
    <glyph glyph-name="uhungarumlaut" unicode="&#x171;" horiz-adv-x="643" 
d="M81 189v311h68v-289c0 -109 43 -164 140 -164h14c99 0 185 77 185 196v257h68v-500h-68v94c-37 -61 -108 -104 -208 -104c-128 0 -199 78 -199 199zM196 570l77 130h85l-108 -130h-54zM385 570l77 130h85l-108 -130h-54z" />
    <glyph glyph-name="umacron" unicode="&#x16b;" horiz-adv-x="643" 
d="M81 189v311h68v-289c0 -109 43 -164 140 -164h14c99 0 185 77 185 196v257h68v-500h-68v94c-37 -61 -108 -104 -208 -104c-128 0 -199 78 -199 199zM149 590v55h309v-55h-309z" />
    <glyph glyph-name="uogonek" unicode="&#x173;" horiz-adv-x="643" 
d="M81 189v311h68v-289c0 -109 43 -164 140 -164h14c99 0 185 77 185 196v257h68v-500h-68v94c-37 -61 -108 -104 -208 -104c-128 0 -199 78 -199 199zM411 -117c0 48 42 96 117 127l28 -10c-64 -36 -93 -68 -93 -100c0 -29 24 -38 61 -38h45v-57h-45c-77 0 -113 29 -113 78
z" />
    <glyph glyph-name="uring" unicode="&#x16f;" horiz-adv-x="643" 
d="M81 189v311h68v-289c0 -109 43 -164 140 -164h14c99 0 185 77 185 196v257h68v-500h-68v94c-37 -61 -108 -104 -208 -104c-128 0 -199 78 -199 199zM211 664c0 48 49 93 108 93c58 0 109 -45 109 -93c0 -51 -51 -93 -109 -93c-59 0 -108 42 -108 93zM376 664
c0 28 -23 47 -56 47s-57 -19 -57 -47s24 -47 57 -47s56 19 56 47z" />
    <glyph glyph-name="utilde" unicode="&#x169;" horiz-adv-x="643" 
d="M81 189v311h68v-289c0 -109 43 -164 140 -164h14c99 0 185 77 185 196v257h68v-500h-68v94c-37 -61 -108 -104 -208 -104c-128 0 -199 78 -199 199zM316 605l-32 21c-19 12 -35 19 -56 19c-31 0 -49 -23 -49 -64h-55v13c0 65 42 107 103 107c28 0 55 -8 80 -25l34 -22
c3 -1 5 -3 8 -6c25 -13 38 -21 62 -21c31 0 47 23 47 64h55v-13c0 -64 -45 -107 -100 -107c-31 0 -57 7 -97 34z" />
    <glyph glyph-name="v" unicode="v" horiz-adv-x="587" 
d="M497 500h75l-240 -500h-78l-238 500h78l199 -429z" />
    <glyph glyph-name="w" unicode="w" horiz-adv-x="870" 
d="M778 500h73l-187 -500h-81l-148 415l-149 -415h-80l-187 500h73l157 -423l152 423h67l159 -430z" />
    <glyph glyph-name="wacute" unicode="&#x1e83;" horiz-adv-x="870" 
d="M778 500h73l-187 -500h-81l-148 415l-149 -415h-80l-187 500h73l157 -423l152 423h67l159 -430zM408 570l77 130h85l-108 -130h-54z" />
    <glyph glyph-name="wcircumflex" unicode="&#x175;" horiz-adv-x="870" 
d="M778 500h73l-187 -500h-81l-148 415l-149 -415h-80l-187 500h73l157 -423l152 423h67l159 -430zM240 570l157 130h77l157 -130h-69l-127 78l-127 -78h-68z" />
    <glyph glyph-name="wdieresis" unicode="&#x1e85;" horiz-adv-x="870" 
d="M778 500h73l-187 -500h-81l-148 415l-149 -415h-80l-187 500h73l157 -423l152 423h67l159 -430zM288 590v80h77v-80h-77zM505 590v80h77v-80h-77z" />
    <glyph glyph-name="wgrave" unicode="&#x1e81;" horiz-adv-x="870" 
d="M778 500h73l-187 -500h-81l-148 415l-149 -415h-80l-187 500h73l157 -423l152 423h67l159 -430zM408 570l-108 130h85l77 -130h-54z" />
    <glyph glyph-name="x" unicode="x" horiz-adv-x="571" 
d="M549 0h-91l-174 202l-175 -202h-87l219 251l-214 249h91l169 -196l170 196h87l-214 -246z" />
    <glyph glyph-name="y" unicode="y" horiz-adv-x="606" 
d="M57 -165v57h169c40 0 52 13 52 52v91l-255 465h78l211 -387l206 387h76l-248 -461v-102c0 -69 -33 -102 -102 -102h-187z" />
    <glyph glyph-name="yacute" unicode="&#xfd;" horiz-adv-x="606" 
d="M57 -165v57h169c40 0 52 13 52 52v91l-255 465h78l211 -387l206 387h76l-248 -461v-102c0 -69 -33 -102 -102 -102h-187zM282 570l77 130h85l-108 -130h-54z" />
    <glyph glyph-name="ycircumflex" unicode="&#x177;" horiz-adv-x="606" 
d="M57 -165v57h169c40 0 52 13 52 52v91l-255 465h78l211 -387l206 387h76l-248 -461v-102c0 -69 -33 -102 -102 -102h-187zM114 570l157 130h77l157 -130h-69l-127 78l-127 -78h-68z" />
    <glyph glyph-name="ydieresis" unicode="&#xff;" horiz-adv-x="606" 
d="M57 -165v57h169c40 0 52 13 52 52v91l-255 465h78l211 -387l206 387h76l-248 -461v-102c0 -69 -33 -102 -102 -102h-187zM162 590v80h77v-80h-77zM379 590v80h77v-80h-77z" />
    <glyph glyph-name="ygrave" unicode="&#x1ef3;" horiz-adv-x="606" 
d="M57 -165v57h169c40 0 52 13 52 52v91l-255 465h78l211 -387l206 387h76l-248 -461v-102c0 -69 -33 -102 -102 -102h-187zM282 570l-108 130h85l77 -130h-54z" />
    <glyph glyph-name="uni0233" unicode="&#x233;" horiz-adv-x="606" 
d="M57 -165v57h169c40 0 52 13 52 52v91l-255 465h78l211 -387l206 387h76l-248 -461v-102c0 -69 -33 -102 -102 -102h-187zM139 590v55h309v-55h-309z" />
    <glyph glyph-name="z" unicode="z" horiz-adv-x="545" 
d="M134 59h371v-59h-461v60l356 381h-351v59h441v-60z" />
    <glyph glyph-name="zacute" unicode="&#x17a;" horiz-adv-x="545" 
d="M134 59h371v-59h-461v60l356 381h-351v59h441v-60zM248 570l77 130h85l-108 -130h-54z" />
    <glyph glyph-name="zcaron" unicode="&#x17e;" horiz-adv-x="545" 
d="M134 59h371v-59h-461v60l356 381h-351v59h441v-60zM237 570l-157 130h69l127 -78l127 78h68l-157 -130h-77z" />
    <glyph glyph-name="zdotaccent" unicode="&#x17c;" horiz-adv-x="545" 
d="M134 59h371v-59h-461v60l356 381h-351v59h441v-60zM235 590v85h78v-85h-78z" />
    <glyph glyph-name="a.salt" horiz-adv-x="679" 
d="M53 250c0 163 108 260 268 260c93 0 163 -38 206 -93v83h65v-500h-65v85c-45 -57 -113 -95 -206 -95c-160 0 -268 97 -268 260zM317 47h10c103 0 200 71 200 203s-97 203 -200 203h-10c-111 0 -195 -69 -195 -203s84 -203 195 -203z" />
    <glyph glyph-name="aacute.salt" horiz-adv-x="679" 
d="M53 250c0 163 108 260 268 260c93 0 163 -38 206 -93v83h65v-500h-65v85c-45 -57 -113 -95 -206 -95c-160 0 -268 97 -268 260zM317 47h10c103 0 200 71 200 203s-97 203 -200 203h-10c-111 0 -195 -69 -195 -203s84 -203 195 -203zM301 570l77 130h85l-108 -130h-54z
" />
    <glyph glyph-name="abreve.salt" horiz-adv-x="679" 
d="M53 250c0 163 108 260 268 260c93 0 163 -38 206 -93v83h65v-500h-65v85c-45 -57 -113 -95 -206 -95c-160 0 -268 97 -268 260zM317 47h10c103 0 200 71 200 203s-97 203 -200 203h-10c-111 0 -195 -69 -195 -203s84 -203 195 -203zM154 711h54c6 -51 54 -89 120 -89
s112 38 120 89h54c-2 -76 -77 -140 -174 -140c-98 0 -172 64 -174 140z" />
    <glyph glyph-name="acircumflex.salt" horiz-adv-x="679" 
d="M53 250c0 163 108 260 268 260c93 0 163 -38 206 -93v83h65v-500h-65v85c-45 -57 -113 -95 -206 -95c-160 0 -268 97 -268 260zM317 47h10c103 0 200 71 200 203s-97 203 -200 203h-10c-111 0 -195 -69 -195 -203s84 -203 195 -203zM133 570l157 130h77l157 -130h-69
l-127 78l-127 -78h-68z" />
    <glyph glyph-name="adieresis.salt" horiz-adv-x="679" 
d="M53 250c0 163 108 260 268 260c93 0 163 -38 206 -93v83h65v-500h-65v85c-45 -57 -113 -95 -206 -95c-160 0 -268 97 -268 260zM317 47h10c103 0 200 71 200 203s-97 203 -200 203h-10c-111 0 -195 -69 -195 -203s84 -203 195 -203zM181 590v80h77v-80h-77zM398 590v80
h77v-80h-77z" />
    <glyph glyph-name="uni0227.salt" horiz-adv-x="679" 
d="M53 250c0 163 108 260 268 260c93 0 163 -38 206 -93v83h65v-500h-65v85c-45 -57 -113 -95 -206 -95c-160 0 -268 97 -268 260zM317 47h10c103 0 200 71 200 203s-97 203 -200 203h-10c-111 0 -195 -69 -195 -203s84 -203 195 -203zM288 590v85h78v-85h-78z" />
    <glyph glyph-name="uni1EA1.salt" horiz-adv-x="679" 
d="M53 250c0 163 108 260 268 260c93 0 163 -38 206 -93v83h65v-500h-65v85c-45 -57 -113 -95 -206 -95c-160 0 -268 97 -268 260zM317 47h10c103 0 200 71 200 203s-97 203 -200 203h-10c-111 0 -195 -69 -195 -203s84 -203 195 -203zM290 -165v75h77v-75h-77z" />
    <glyph glyph-name="agrave.salt" horiz-adv-x="679" 
d="M53 250c0 163 108 260 268 260c93 0 163 -38 206 -93v83h65v-500h-65v85c-45 -57 -113 -95 -206 -95c-160 0 -268 97 -268 260zM317 47h10c103 0 200 71 200 203s-97 203 -200 203h-10c-111 0 -195 -69 -195 -203s84 -203 195 -203zM301 570l-108 130h85l77 -130h-54z
" />
    <glyph glyph-name="amacron.salt" horiz-adv-x="679" 
d="M53 250c0 163 108 260 268 260c93 0 163 -38 206 -93v83h65v-500h-65v85c-45 -57 -113 -95 -206 -95c-160 0 -268 97 -268 260zM317 47h10c103 0 200 71 200 203s-97 203 -200 203h-10c-111 0 -195 -69 -195 -203s84 -203 195 -203zM158 590v55h309v-55h-309z" />
    <glyph glyph-name="aogonek.salt" horiz-adv-x="679" 
d="M53 250c0 163 108 260 268 260c93 0 163 -38 206 -93v83h65v-500h-65v85c-45 -57 -113 -95 -206 -95c-160 0 -268 97 -268 260zM317 47h10c103 0 200 71 200 203s-97 203 -200 203h-10c-111 0 -195 -69 -195 -203s84 -203 195 -203zM447 -117c0 48 42 96 117 127l28 -10
c-64 -36 -93 -68 -93 -100c0 -29 24 -38 61 -38h45v-57h-45c-77 0 -113 29 -113 78z" />
    <glyph glyph-name="aring.salt" horiz-adv-x="679" 
d="M53 250c0 163 108 260 268 260c93 0 163 -38 206 -93v83h65v-500h-65v85c-45 -57 -113 -95 -206 -95c-160 0 -268 97 -268 260zM317 47h10c103 0 200 71 200 203s-97 203 -200 203h-10c-111 0 -195 -69 -195 -203s84 -203 195 -203zM220 664c0 48 49 93 108 93
c58 0 109 -45 109 -93c0 -51 -51 -93 -109 -93c-59 0 -108 42 -108 93zM385 664c0 28 -23 47 -56 47s-57 -19 -57 -47s24 -47 57 -47s56 19 56 47z" />
    <glyph glyph-name="aringacute.salt" horiz-adv-x="679" 
d="M53 250c0 163 108 260 268 260c93 0 163 -38 206 -93v83h65v-500h-65v85c-45 -57 -113 -95 -206 -95c-160 0 -268 97 -268 260zM317 47h10c103 0 200 71 200 203s-97 203 -200 203h-10c-111 0 -195 -69 -195 -203s84 -203 195 -203zM305 788l57 130h83l-88 -130h-52z
M222 664c0 48 49 93 108 93c58 0 109 -45 109 -93c0 -51 -51 -93 -109 -93c-59 0 -108 42 -108 93zM387 664c0 28 -23 47 -56 47s-57 -19 -57 -47s24 -47 57 -47s56 19 56 47z" />
    <glyph glyph-name="atilde.salt" horiz-adv-x="679" 
d="M53 250c0 163 108 260 268 260c93 0 163 -38 206 -93v83h65v-500h-65v85c-45 -57 -113 -95 -206 -95c-160 0 -268 97 -268 260zM317 47h10c103 0 200 71 200 203s-97 203 -200 203h-10c-111 0 -195 -69 -195 -203s84 -203 195 -203zM325 605l-32 21c-19 12 -35 19 -56 19
c-31 0 -49 -23 -49 -64h-55v13c0 65 42 107 103 107c28 0 55 -8 80 -25l34 -22c3 -1 5 -3 8 -6c25 -13 38 -21 62 -21c31 0 47 23 47 64h55v-13c0 -64 -45 -107 -100 -107c-31 0 -57 7 -97 34z" />
    <glyph glyph-name="y.ss03" horiz-adv-x="592" 
d="M502 500h76l-301 -605c-24 -47 -50 -60 -102 -60h-140v57h119c39 0 53 8 70 47l41 82l-251 479h78l210 -405z" />
    <glyph glyph-name="yacute.ss03" horiz-adv-x="592" 
d="M502 500h76l-301 -605c-24 -47 -50 -60 -102 -60h-140v57h119c39 0 53 8 70 47l41 82l-251 479h78l210 -405zM269 570l77 130h85l-108 -130h-54z" />
    <glyph glyph-name="ycircumflex.ss03" horiz-adv-x="592" 
d="M502 500h76l-301 -605c-24 -47 -50 -60 -102 -60h-140v57h119c39 0 53 8 70 47l41 82l-251 479h78l210 -405zM101 570l157 130h77l157 -130h-69l-127 78l-127 -78h-68z" />
    <glyph glyph-name="ydieresis.ss03" horiz-adv-x="592" 
d="M502 500h76l-301 -605c-24 -47 -50 -60 -102 -60h-140v57h119c39 0 53 8 70 47l41 82l-251 479h78l210 -405zM149 590v80h77v-80h-77zM366 590v80h77v-80h-77z" />
    <glyph glyph-name="ygrave.ss03" horiz-adv-x="592" 
d="M502 500h76l-301 -605c-24 -47 -50 -60 -102 -60h-140v57h119c39 0 53 8 70 47l41 82l-251 479h78l210 -405zM269 570l-108 130h85l77 -130h-54z" />
    <glyph glyph-name="uni0233.ss03" horiz-adv-x="592" 
d="M502 500h76l-301 -605c-24 -47 -50 -60 -102 -60h-140v57h119c39 0 53 8 70 47l41 82l-251 479h78l210 -405zM126 590v55h309v-55h-309z" />
    <glyph glyph-name="I_S_B_N" horiz-adv-x="2552" 
d="M2455 426v-426h-73v418c0 147 -87 225 -217 225h-16c-143 0 -217 -77 -217 -225v-418h-73v426c0 181 97 284 298 284c200 0 298 -106 298 -284zM1690 190c0 -117 -97 -190 -216 -190h-380v391h353c96 0 152 45 152 122c0 73 -58 120 -152 120h-845
c-117 0 -175 -39 -175 -118c0 -67 48 -100 161 -118l112 -18c149 -24 225 -90 225 -190c0 -124 -92 -189 -245 -189h-574v700h68v-633h503c119 0 179 39 179 118c0 64 -54 107 -178 127l-109 18c-148 24 -211 72 -211 183c0 100 64 187 244 187h860c118 0 211 -72 211 -182
c0 -80 -44 -137 -113 -161c64 -18 130 -78 130 -167zM1616 197c0 79 -63 127 -162 127h-287v-257h287c101 0 162 46 162 130z" />
    <glyph glyph-name="w_w_w" horiz-adv-x="2364" 
d="M2284 500h73l-187 -500h-81l-148 415l-149 -415h-80l-150 402l-151 -402h-81l-148 415l-149 -415h-80l-150 403l-151 -403h-81l-148 415l-149 -415h-80l-187 500h73l157 -422l152 422h67l159 -430l151 430h73l157 -422l152 422h67l159 -430l151 430h73l157 -422l152 422
h67l159 -430z" />
    <glyph glyph-name="ordfeminine" unicode="&#xaa;" horiz-adv-x="415" 
d="M62 495c0 55 44 84 109 91l108 10v9c0 33 -32 53 -75 53h-3c-40 0 -76 -18 -76 -49h-59c4 61 67 96 138 96c72 0 134 -39 134 -102v-126c0 -27 1 -48 3 -62h-54c-3 15 -5 33 -5 41c-19 -25 -64 -46 -113 -46c-61 0 -107 33 -107 85zM184 457h3c53 0 92 23 92 67v30
l-92 -8c-39 -4 -66 -19 -66 -47c0 -27 26 -42 63 -42z" />
    <glyph glyph-name="ordmasculine" unicode="&#xba;" horiz-adv-x="432" 
d="M55 557c0 89 64 148 161 148s161 -59 161 -148s-64 -147 -161 -147s-161 58 -161 147zM214 457h5c60 0 97 40 97 100c0 61 -38 101 -98 101h-4c-60 0 -98 -41 -98 -101s37 -100 98 -100z" />
    <glyph glyph-name="a.sups_salt" horiz-adv-x="403" 
d="M33 558c0 82 56 147 147 147c52 0 89 -22 109 -51v46h57v-285h-57v45c-27 -33 -65 -50 -113 -50c-92 0 -143 66 -143 148zM287 558c0 61 -35 100 -98 100c-61 0 -97 -39 -97 -100c0 -60 37 -101 97 -101c63 0 98 41 98 101z" />
    <glyph glyph-name="y.sups_ss03" horiz-adv-x="337" 
d="M11 300v47h73c19 0 27 8 39 35l22 47l-142 271h63l109 -206l95 206h63l-154 -328c-26 -56 -34 -68 -80 -72h-88z" />
    <glyph glyph-name="a.sups" horiz-adv-x="363" 
d="M35 495c0 55 44 84 109 91l108 10v9c0 33 -32 53 -75 53h-3c-40 0 -76 -18 -76 -49h-59c4 61 67 96 138 96c72 0 134 -39 134 -102v-126c0 -27 1 -48 3 -62h-54c-3 15 -5 33 -5 41c-19 -25 -64 -46 -113 -46c-61 0 -107 33 -107 85zM157 457h3c53 0 92 23 92 67v30
l-92 -8c-39 -4 -66 -19 -66 -47c0 -27 26 -42 63 -42z" />
    <glyph glyph-name="b.sups" horiz-adv-x="408" 
d="M118 459v-44h-61v395h61v-159c17 28 60 54 109 54c92 0 148 -64 148 -146s-54 -149 -151 -149c-41 0 -85 18 -106 49zM314 559c0 60 -35 99 -98 99s-97 -39 -97 -100s34 -101 97 -101s98 41 98 102z" />
    <glyph glyph-name="c.sups" horiz-adv-x="360" 
d="M34 554c0 94 64 151 153 151c73 0 134 -38 142 -99h-62c-7 32 -38 52 -78 52h-3c-60 0 -91 -44 -91 -104c0 -59 30 -97 91 -97h3c39 0 68 19 77 51h61c-8 -62 -71 -98 -142 -98c-92 0 -151 51 -151 144z" />
    <glyph glyph-name="d.sups" horiz-adv-x="408" 
d="M33 559c0 82 57 146 150 146c51 0 88 -23 107 -50v155h61v-395h-61v44c-21 -31 -65 -49 -106 -49c-97 0 -151 67 -151 149zM289 558c0 61 -34 100 -97 100s-98 -39 -98 -99c0 -61 35 -102 98 -102s97 40 97 101z" />
    <glyph glyph-name="e.sups" horiz-adv-x="363" 
d="M33 555c0 84 60 150 151 150c90 0 145 -62 145 -148c0 -9 0 -15 -1 -20h-240c7 -52 40 -80 95 -80h5c37 0 72 16 83 45h53c-13 -56 -70 -92 -141 -92c-91 0 -150 58 -150 145zM89 581h184c-3 44 -31 77 -87 77h-5c-51 0 -84 -28 -92 -77z" />
    <glyph glyph-name="f.sups" horiz-adv-x="236" 
d="M86 415v240h-74v45h74v36c0 44 28 74 73 74h88v-43h-69c-24 0 -33 -8 -33 -35v-32h80v-45h-80v-240h-59z" />
    <glyph glyph-name="g.sups" horiz-adv-x="407" 
d="M34 386h58c13 -31 39 -44 96 -44h3c64 0 103 27 103 100v16c-19 -27 -56 -48 -115 -48c-90 0 -146 67 -146 147c0 83 54 148 151 148c44 0 85 -16 110 -45v40h57v-266c0 -85 -57 -139 -162 -139c-93 0 -150 36 -155 91zM185 457h9c61 0 101 40 101 101
c0 60 -41 100 -99 100h-7c-58 0 -99 -40 -99 -100c0 -61 38 -101 95 -101z" />
    <glyph glyph-name="h.sups" horiz-adv-x="396" 
d="M57 415v395h61v-157c20 31 57 52 102 52c79 0 124 -47 124 -115v-175h-61v165c0 51 -28 78 -73 78h-6c-48 0 -86 -39 -86 -93v-150h-61z" />
    <glyph glyph-name="i.sups" horiz-adv-x="173" 
d="M54 747v63h65v-63h-65zM57 415v285h59v-285h-59z" />
    <glyph glyph-name="j.sups" horiz-adv-x="173" 
d="M54 747v63h65v-63h-65zM-48 300v47h74c23 0 31 9 31 33v320h59v-328c0 -43 -29 -72 -74 -72h-90z" />
    <glyph glyph-name="k.sups" horiz-adv-x="370" 
d="M57 415v395h59v-236l151 126h81l-140 -116l148 -169h-74l-116 134l-50 -41v-93h-59z" />
    <glyph glyph-name="l.sups" horiz-adv-x="173" 
d="M57 415v395h59v-395h-59z" />
    <glyph glyph-name="m.sups" horiz-adv-x="598" 
d="M57 415v285h61v-41c13 25 51 46 96 46c47 0 82 -18 101 -53c25 35 68 53 111 53c77 0 120 -48 120 -120v-170h-61v165c0 52 -16 78 -67 78h-3c-46 0 -83 -45 -83 -93v-150h-61v165c0 49 -23 78 -67 78h-3c-52 0 -83 -44 -83 -95v-148h-61z" />
    <glyph glyph-name="n.sups" horiz-adv-x="396" 
d="M57 415v285h61v-47c20 31 57 52 102 52c79 0 124 -47 124 -115v-175h-61v165c0 51 -28 78 -73 78h-6c-48 0 -86 -39 -86 -93v-150h-61z" />
    <glyph glyph-name="o.sups" horiz-adv-x="388" 
d="M33 557c0 89 64 148 161 148s161 -59 161 -148s-64 -147 -161 -147s-161 58 -161 147zM192 457h5c60 0 97 40 97 100c0 61 -38 101 -98 101h-4c-60 0 -98 -41 -98 -101s37 -100 98 -100z" />
    <glyph glyph-name="p.sups" horiz-adv-x="408" 
d="M57 305v395h61v-44c21 32 65 49 106 49c96 0 151 -67 151 -149c0 -81 -59 -146 -150 -146c-51 0 -88 23 -107 48v-153h-61zM314 556c0 61 -35 102 -98 102c-64 0 -97 -40 -97 -101s33 -100 97 -100c63 0 98 39 98 99z" />
    <glyph glyph-name="q.sups" horiz-adv-x="408" 
d="M290 305v155c-19 -28 -56 -50 -107 -50c-91 0 -150 65 -150 146c0 82 55 149 151 149c41 0 85 -17 106 -49v44h61v-395h-61zM289 557c0 61 -34 101 -97 101s-98 -41 -98 -102c0 -60 35 -99 98 -99s97 39 97 100z" />
    <glyph glyph-name="r.sups" horiz-adv-x="254" 
d="M57 415v285h59v-62c13 40 49 62 93 62h33v-53h-45c-56 0 -81 -47 -81 -107v-125h-59z" />
    <glyph glyph-name="s.sups" horiz-adv-x="338" 
d="M32 508h59c0 -33 29 -51 80 -51h6c44 0 68 10 68 37c0 20 -15 34 -55 39l-57 7c-60 7 -94 32 -94 79c0 53 50 86 129 86c78 0 131 -37 131 -96h-59c0 32 -28 49 -71 49h-6c-41 0 -66 -12 -66 -33s7 -30 59 -38l48 -7c65 -11 99 -40 99 -81c0 -57 -50 -89 -130 -89
c-87 0 -141 37 -141 98z" />
    <glyph glyph-name="t.sups" horiz-adv-x="260" 
d="M82 485v170h-70v45h70v90h60v-90h86v-45h-86v-156c0 -25 10 -37 39 -37h53v-47h-76c-47 0 -76 30 -76 70z" />
    <glyph glyph-name="u.sups" horiz-adv-x="387" 
d="M52 524v176h61v-166c0 -49 26 -79 67 -79h6c45 0 83 42 83 94v151h61v-285h-61v45c-15 -27 -52 -50 -105 -50c-71 0 -112 47 -112 114z" />
    <glyph glyph-name="v.sups" horiz-adv-x="334" 
d="M135 415l-128 285h61l100 -236l100 236h59l-128 -285h-64z" />
    <glyph glyph-name="w.sups" horiz-adv-x="514" 
d="M130 415l-116 285h63l79 -212l75 212h57l70 -221l80 221h59l-110 -285h-54l-76 223l-73 -223h-54z" />
    <glyph glyph-name="x.sups" horiz-adv-x="354" 
d="M21 415l124 143l-122 142h70l85 -106l86 106h68l-122 -141l123 -144h-71l-85 106l-87 -106h-69z" />
    <glyph glyph-name="y.sups" horiz-adv-x="341" 
d="M30 300v47h78c23 0 30 11 30 31v62l-136 260h61l106 -204l109 204h62l-141 -260v-70c0 -39 -29 -70 -74 -70h-95z" />
    <glyph glyph-name="z.sups" horiz-adv-x="332" 
d="M33 415v31l181 209h-178v45h254v-39l-177 -199h187v-47h-267z" />
    <glyph glyph-name="uni0394" unicode="&#x394;" horiz-adv-x="754" 
d="M419 700l313 -638v-62h-710v62l312 638h85zM376 635l-273 -568h547z" />
    <glyph glyph-name="uni03A9" unicode="&#x3a9;" horiz-adv-x="901" 
d="M79 0v67h135c-88 60 -140 169 -140 288c-3 214 163 357 377 355c213 2 380 -141 376 -355c0 -119 -52 -228 -140 -288h135v-67h-271v67c117 28 202 141 202 288c3 172 -140 291 -294 288h-16c-162 0 -295 -112 -295 -288c0 -148 81 -260 202 -288v-67h-271z" />
    <glyph glyph-name="uni03BC" unicode="&#x3bc;" horiz-adv-x="649" 
d="M87 -200v700h65v-310c0 -96 52 -145 155 -145h10c93 0 180 72 180 185v270h65v-500h-65v94c-31 -67 -103 -104 -202 -104c-59 0 -107 14 -143 42v-232h-65z" />
    <glyph glyph-name="pi" unicode="&#x3c0;" horiz-adv-x="761" 
d="M152 0v443h-134v57h695v-57h-135v-338c0 -33 14 -48 45 -48h90v-57h-95c-71 0 -107 36 -107 105v338h-292v-443h-67z" />
    <glyph glyph-name="zero" unicode="0" horiz-adv-x="745" 
d="M63 350c0 238 135 360 309 360c175 0 310 -122 310 -360s-135 -360 -310 -360s-309 122 -309 360zM365 57h14c111 0 231 73 231 293s-120 293 -231 291h-14c-109 2 -230 -71 -230 -291s121 -293 230 -293z" />
    <glyph glyph-name="one" unicode="1" horiz-adv-x="418" 
d="M251 700h58v-700h-68v611l-210 -174v78z" />
    <glyph glyph-name="two" unicode="2" horiz-adv-x="647" 
d="M135 68h451v-68h-526v96l320 250c33 25 57 46 74 61c33 31 55 65 55 110c0 76 -75 126 -177 126h-14c-106 0 -172 -65 -176 -147h-75c4 126 113 214 258 214c148 0 256 -73 256 -191c0 -31 -6 -58 -19 -83c-24 -48 -61 -82 -132 -137z" />
    <glyph glyph-name="three" unicode="3" horiz-adv-x="674" 
d="M58 178h75c12 -77 94 -121 193 -121h14c114 0 194 55 194 134s-70 126 -187 126h-90v67h90c117 0 182 57 182 132c0 80 -73 127 -189 127h-14c-95 0 -172 -55 -180 -123h-75c2 107 112 190 264 190c162 0 266 -77 266 -191c0 -85 -54 -138 -123 -166
c67 -20 128 -76 128 -158c0 -126 -107 -205 -271 -205c-159 0 -271 74 -277 188z" />
    <glyph glyph-name="four" unicode="4" horiz-adv-x="691" 
d="M514 233h142v-66h-142v-167h-68v167h-414v82l396 451h86v-467zM99 233h347v393z" />
    <glyph glyph-name="five" unicode="5" horiz-adv-x="648" 
d="M589 222c0 -141 -108 -232 -271 -232c-149 0 -257 68 -273 190h75c20 -79 97 -123 191 -123h14c119 0 192 66 192 162c0 91 -76 150 -187 150h-14c-68 0 -139 -26 -172 -79h-74l85 410h416v-69h-368l-54 -259c45 43 112 64 191 64c142 0 249 -88 249 -214z" />
    <glyph glyph-name="six" unicode="6" horiz-adv-x="703" 
d="M634 230c0 -147 -114 -240 -281 -240c-183 0 -290 106 -290 327c-2 220 139 396 328 393c140 0 241 -69 255 -175h-75c-14 54 -74 108 -173 108h-14c-142 0 -246 -120 -258 -294c43 72 134 112 242 112c144 0 266 -86 266 -231zM561 225c0 109 -92 169 -199 169h-14
c-110 0 -204 -60 -204 -168c0 -109 92 -169 204 -169h14c108 0 199 59 199 168z" />
    <glyph glyph-name="seven" unicode="7" horiz-adv-x="603" 
d="M25 700h545v-77c-216 -111 -321 -299 -321 -603v-20h-72v29c0 288 119 500 297 602h-449v69z" />
    <glyph glyph-name="eight" unicode="8" horiz-adv-x="658" 
d="M86 181c0 80 60 139 114 159c-65 16 -138 76 -138 171c0 115 111 199 267 199s267 -82 267 -199c0 -95 -73 -155 -138 -171c54 -20 114 -79 114 -159c0 -113 -102 -191 -243 -191s-243 78 -243 191zM322 377h14c117 0 188 45 188 130s-73 136 -188 136h-14
c-115 0 -188 -51 -188 -136s71 -130 188 -130zM322 57h14c98 0 164 52 164 128s-64 126 -164 126h-14c-100 0 -164 -50 -164 -126s64 -128 164 -128z" />
    <glyph glyph-name="nine" unicode="9" horiz-adv-x="704" 
d="M70 470c0 147 114 240 281 240c183 0 290 -106 290 -327c2 -220 -139 -396 -328 -393c-140 0 -241 69 -255 175h75c14 -54 74 -108 173 -108h14c142 0 246 120 258 294c-43 -72 -134 -112 -242 -112c-144 0 -266 86 -266 231zM143 475c0 -109 92 -169 199 -169h14
c110 0 204 60 204 168c0 109 -92 169 -204 169h-14c-108 0 -199 -59 -199 -168z" />
    <glyph glyph-name="uni24FF" unicode="&#x24ff;" horiz-adv-x="1020" 
d="M970 350c4 -211 -202 -395 -460 -390c-258 -5 -464 179 -460 390c-4 212 202 393 460 390c258 3 464 -178 460 -390zM327 354c0 -122 72 -202 184 -202s182 80 182 202c0 120 -70 203 -182 203s-184 -83 -184 -203zM513 202h-4c-78 0 -119 73 -119 152
c0 78 41 153 119 153h4c79 0 118 -75 118 -153c0 -79 -39 -152 -118 -152z" />
    <glyph glyph-name="uni2776" unicode="&#x2776;" horiz-adv-x="1020" 
d="M970 350c4 -211 -202 -395 -460 -390c-258 -5 -464 179 -460 390c-4 212 202 393 460 390c258 3 464 -178 460 -390zM494 474v-317h57v395h-38l-156 -110v-62z" />
    <glyph glyph-name="uni2777" unicode="&#x2777;" horiz-adv-x="1020" 
d="M970 350c4 -211 -202 -395 -460 -390c-258 -5 -464 179 -460 390c-4 212 202 393 460 390c258 3 464 -178 460 -390zM363 226v-69h306v50h-243l145 105c61 44 90 70 94 130c0 71 -64 115 -147 115c-82 0 -153 -47 -153 -114h62c0 38 46 64 87 64h5c48 0 83 -26 83 -65
c-3 -42 -14 -53 -93 -110z" />
    <glyph glyph-name="uni2778" unicode="&#x2778;" horiz-adv-x="1020" 
d="M970 350c4 -211 -202 -395 -460 -390c-258 -5 -464 179 -460 390c-4 212 202 393 460 390c258 3 464 -178 460 -390zM351 261c0 -67 72 -109 154 -109s159 43 159 113c0 41 -29 76 -78 91c45 16 75 50 75 91c0 69 -69 110 -151 110s-153 -40 -153 -105h61
c3 32 36 55 87 55h5c56 0 90 -23 90 -66c0 -39 -31 -61 -82 -61h-66v-47h64c51 0 87 -25 87 -62c0 -43 -41 -69 -96 -69h-5c-51 0 -86 24 -90 59h-61z" />
    <glyph glyph-name="uni2779" unicode="&#x2779;" horiz-adv-x="1020" 
d="M970 350c4 -211 -202 -395 -460 -390c-258 -5 -464 179 -460 390c-4 212 202 393 460 390c258 3 464 -178 460 -390zM529 253v-96h56v96h69v50h-69v249h-62l-224 -243v-56h230zM529 303h-172l172 176v-176z" />
    <glyph glyph-name="uni277A" unicode="&#x277a;" horiz-adv-x="1020" 
d="M970 350c4 -211 -202 -395 -460 -390c-258 -5 -464 179 -460 390c-4 212 202 393 460 390c258 3 464 -178 460 -390zM337 258c7 -67 68 -106 159 -106c88 0 157 51 157 132c0 69 -56 121 -143 121c-38 0 -69 -9 -94 -27l26 124h205v50h-249l-44 -226h53
c27 19 57 29 90 29h3c56 0 92 -28 92 -73c0 -47 -39 -80 -93 -80h-4c-49 0 -92 20 -97 56h-61z" />
    <glyph glyph-name="uni277B" unicode="&#x277b;" horiz-adv-x="1020" 
d="M970 350c4 -211 -202 -395 -460 -390c-258 -5 -464 179 -460 390c-4 212 202 393 460 390c258 3 464 -178 460 -390zM335 343c0 -121 63 -191 165 -191c101 0 163 59 163 141c0 78 -68 129 -147 129c-57 0 -108 -23 -127 -56c8 86 59 140 123 140h6c48 0 83 -23 92 -54
h59c-6 49 -55 105 -153 105c-102 0 -181 -84 -181 -214zM503 202h-3c-58 0 -98 36 -98 85s43 85 100 85h3c58 0 99 -36 99 -85s-45 -85 -101 -85z" />
    <glyph glyph-name="uni277C" unicode="&#x277c;" horiz-adv-x="1020" 
d="M970 350c4 -211 -202 -395 -460 -390c-258 -5 -464 179 -460 390c-4 212 202 393 460 390c258 3 464 -178 460 -390zM441 193v-36h61v36c0 100 41 180 86 232c23 26 49 51 77 74v53h-301v-50h231c-41 -36 -77 -80 -108 -131s-46 -110 -46 -178z" />
    <glyph glyph-name="uni277D" unicode="&#x277d;" horiz-adv-x="1020" 
d="M970 350c4 -211 -202 -395 -460 -390c-258 -5 -464 179 -460 390c-4 212 202 393 460 390c258 3 464 -178 460 -390zM365 258c0 -69 66 -106 142 -106s143 37 143 106c0 44 -29 78 -73 93c49 13 83 52 83 96c0 69 -63 110 -151 110s-150 -41 -150 -110
c0 -44 35 -83 83 -96c-47 -15 -77 -49 -77 -93zM510 379h-5c-47 0 -85 23 -85 63c0 41 38 65 87 65h5c49 0 87 -24 87 -65c0 -40 -41 -63 -89 -63zM510 202h-5c-44 0 -79 24 -79 65c0 37 36 64 79 64h5c42 0 79 -27 79 -64c0 -41 -35 -65 -79 -65z" />
    <glyph glyph-name="uni277E" unicode="&#x277e;" horiz-adv-x="1020" 
d="M970 350c4 -211 -202 -395 -460 -390c-258 -5 -464 179 -460 390c-4 212 202 393 460 390c258 3 464 -178 460 -390zM346 252c4 -43 54 -100 153 -100c102 0 181 83 181 214c0 118 -63 191 -165 191c-101 0 -163 -61 -163 -141c0 -76 62 -130 137 -130l10 1
c57 0 107 23 127 56c-8 -87 -61 -140 -123 -140h-6c-47 0 -83 21 -92 49h-59zM513 337h-3c-57 0 -99 34 -99 85c0 49 45 85 101 85h3c58 0 98 -36 98 -85c0 -51 -42 -85 -100 -85z" />
    <glyph glyph-name="uni24EA" unicode="&#x24ea;" horiz-adv-x="1020" 
d="M50 350c-4 212 202 393 460 390c258 3 464 -178 460 -390c4 -211 -202 -395 -460 -390c-258 -5 -464 179 -460 390zM916 350c4 185 -175 344 -406 340c-231 4 -410 -155 -406 -340c-4 -185 175 -344 406 -340c231 -4 410 155 406 340zM327 354c0 120 72 203 184 203
s182 -83 182 -203c0 -122 -70 -202 -182 -202s-184 80 -184 202zM509 202h4c79 0 118 73 118 152c0 78 -39 153 -118 153h-4c-78 0 -119 -75 -119 -153c0 -79 41 -152 119 -152z" />
    <glyph glyph-name="uni2460" unicode="&#x2460;" horiz-adv-x="1020" 
d="M50 350c-4 212 202 393 460 390c258 3 464 -178 460 -390c4 -211 -202 -395 -460 -390c-258 -5 -464 179 -460 390zM916 350c4 185 -175 344 -406 340c-231 4 -410 -155 -406 -340c-4 -185 175 -344 406 -340c231 -4 410 155 406 340zM494 157v317l-137 -94v62l156 110
h38v-395h-57z" />
    <glyph glyph-name="uni2461" unicode="&#x2461;" horiz-adv-x="1020" 
d="M50 350c-4 212 202 393 460 390c258 3 464 -178 460 -390c4 -211 -202 -395 -460 -390c-258 -5 -464 179 -460 390zM916 350c4 185 -175 344 -406 340c-231 4 -410 -155 -406 -340c-4 -185 175 -344 406 -340c231 -4 410 155 406 340zM363 157v69l146 106
c79 57 90 68 93 110c0 39 -35 65 -83 65h-5c-41 0 -87 -26 -87 -64h-62c0 67 71 114 153 114c83 0 147 -44 147 -115c-4 -60 -33 -86 -94 -130l-145 -105h243v-50h-306z" />
    <glyph glyph-name="uni2462" unicode="&#x2462;" horiz-adv-x="1020" 
d="M50 350c-4 212 202 393 460 390c258 3 464 -178 460 -390c4 -211 -202 -395 -460 -390c-258 -5 -464 179 -460 390zM916 350c4 185 -175 344 -406 340c-231 4 -410 -155 -406 -340c-4 -185 175 -344 406 -340c231 -4 410 155 406 340zM351 261h61c4 -35 39 -59 90 -59h5
c55 0 96 26 96 69c0 37 -36 62 -87 62h-64v47h66c51 0 82 22 82 61c0 43 -34 66 -90 66h-5c-51 0 -84 -23 -87 -55h-61c0 65 71 105 153 105s151 -41 151 -110c0 -41 -30 -75 -75 -91c49 -15 78 -50 78 -91c0 -70 -77 -113 -159 -113s-154 42 -154 109z" />
    <glyph glyph-name="uni2463" unicode="&#x2463;" horiz-adv-x="1020" 
d="M50 350c-4 212 202 393 460 390c258 3 464 -178 460 -390c4 -211 -202 -395 -460 -390c-258 -5 -464 179 -460 390zM916 350c4 185 -175 344 -406 340c-231 4 -410 -155 -406 -340c-4 -185 175 -344 406 -340c231 -4 410 155 406 340zM529 157v96h-230v56l224 243h62
v-249h69v-50h-69v-96h-56zM357 303h172v176z" />
    <glyph glyph-name="uni2464" unicode="&#x2464;" horiz-adv-x="1020" 
d="M50 350c-4 212 202 393 460 390c258 3 464 -178 460 -390c4 -211 -202 -395 -460 -390c-258 -5 -464 179 -460 390zM916 350c4 185 -175 344 -406 340c-231 4 -410 -155 -406 -340c-4 -185 175 -344 406 -340c231 -4 410 155 406 340zM337 258h61c5 -36 48 -56 97 -56h4
c54 0 93 33 93 80c0 45 -36 73 -92 73h-3c-33 0 -63 -10 -90 -29h-53l44 226h249v-50h-205l-26 -124c25 18 56 27 94 27c87 0 143 -52 143 -121c0 -81 -69 -132 -157 -132c-91 0 -152 39 -159 106z" />
    <glyph glyph-name="uni2465" unicode="&#x2465;" horiz-adv-x="1020" 
d="M50 350c-4 212 202 393 460 390c258 3 464 -178 460 -390c4 -211 -202 -395 -460 -390c-258 -5 -464 179 -460 390zM916 350c4 185 -175 344 -406 340c-231 4 -410 -155 -406 -340c-4 -185 175 -344 406 -340c231 -4 410 155 406 340zM335 343c0 130 79 214 181 214
c98 0 147 -56 153 -105h-59c-9 31 -44 54 -92 54h-6c-64 0 -115 -54 -123 -140c19 33 70 56 127 56c79 0 147 -51 147 -129c0 -82 -62 -141 -163 -141c-102 0 -165 70 -165 191zM500 202h3c56 0 101 36 101 85s-41 85 -99 85h-3c-57 0 -100 -36 -100 -85s40 -85 98 -85z" />
    <glyph glyph-name="uni2466" unicode="&#x2466;" horiz-adv-x="1020" 
d="M50 350c-4 212 202 393 460 390c258 3 464 -178 460 -390c4 -211 -202 -395 -460 -390c-258 -5 -464 179 -460 390zM916 350c4 185 -175 344 -406 340c-231 4 -410 -155 -406 -340c-4 -185 175 -344 406 -340c231 -4 410 155 406 340zM441 157v36c0 68 15 127 46 178
s67 95 108 131h-231v50h301v-53c-28 -23 -54 -48 -77 -74c-45 -52 -86 -132 -86 -232v-36h-61z" />
    <glyph glyph-name="uni2467" unicode="&#x2467;" horiz-adv-x="1020" 
d="M50 350c-4 212 202 393 460 390c258 3 464 -178 460 -390c4 -211 -202 -395 -460 -390c-258 -5 -464 179 -460 390zM916 350c4 185 -175 344 -406 340c-231 4 -410 -155 -406 -340c-4 -185 175 -344 406 -340c231 -4 410 155 406 340zM365 258c0 44 30 78 77 93
c-48 13 -83 52 -83 96c0 69 62 110 150 110s151 -41 151 -110c0 -44 -34 -83 -83 -96c44 -15 73 -49 73 -93c0 -69 -67 -106 -143 -106s-142 37 -142 106zM505 379h5c48 0 89 23 89 63c0 41 -38 65 -87 65h-5c-49 0 -87 -24 -87 -65c0 -40 38 -63 85 -63zM505 202h5
c44 0 79 24 79 65c0 37 -37 64 -79 64h-5c-43 0 -79 -27 -79 -64c0 -41 35 -65 79 -65z" />
    <glyph glyph-name="uni2468" unicode="&#x2468;" horiz-adv-x="1020" 
d="M50 350c-4 212 202 393 460 390c258 3 464 -178 460 -390c4 -211 -202 -395 -460 -390c-258 -5 -464 179 -460 390zM916 350c4 185 -175 344 -406 340c-231 4 -410 -155 -406 -340c-4 -185 175 -344 406 -340c231 -4 410 155 406 340zM346 252h59c9 -28 45 -49 92 -49h6
c62 0 115 53 123 140c-20 -33 -70 -56 -127 -56l-10 -1c-75 0 -137 54 -137 130c0 80 62 141 163 141c102 0 165 -73 165 -191c0 -131 -79 -214 -181 -214c-99 0 -149 57 -153 100zM510 337h3c58 0 100 34 100 85c0 49 -40 85 -98 85h-3c-56 0 -101 -36 -101 -85
c0 -51 42 -85 99 -85z" />
    <glyph glyph-name="zero.onum" horiz-adv-x="692" 
d="M58 250c-3 145 127 263 288 260c165 0 288 -113 288 -260s-123 -260 -288 -260c-161 -3 -291 115 -288 260zM344 47h7c121 0 214 88 214 203s-93 203 -214 203h-10c-121 0 -214 -88 -214 -203s94 -203 217 -203z" />
    <glyph glyph-name="one.onum" horiz-adv-x="425" 
d="M259 0v416l-215 -160v74l230 170h50v-500h-65z" />
    <glyph glyph-name="two.onum" horiz-adv-x="539" 
d="M369 212l-236 -152h333v-60h-399v91l251 161c59 38 92 64 92 109c0 50 -49 92 -133 92h-8c-74 0 -136 -47 -136 -106h-68c0 90 94 163 208 163c120 0 206 -55 206 -149c0 -55 -31 -98 -110 -149z" />
    <glyph glyph-name="three.onum" horiz-adv-x="647" 
d="M51 -22h72c8 -80 90 -131 191 -131h13c111 0 189 61 189 144c0 79 -67 132 -182 132h-92v56h92c115 0 177 60 177 136c0 82 -72 138 -184 138h-13c-99 0 -175 -61 -181 -133h-70c4 108 108 190 259 190c157 0 258 -81 258 -189c0 -91 -57 -145 -126 -169
c68 -20 131 -76 131 -163c0 -123 -105 -199 -263 -199c-156 0 -265 73 -271 188z" />
    <glyph glyph-name="four.onum" horiz-adv-x="692" 
d="M454 -200v200h-413v81l401 419h80v-443h140v-57h-140v-200h-68zM96 57h358v374z" />
    <glyph glyph-name="five.onum" horiz-adv-x="634" 
d="M583 18c0 -136 -112 -228 -272 -228c-148 0 -261 77 -273 195h70c16 -84 97 -138 195 -138h14c117 0 197 75 197 171c0 92 -76 161 -192 161h-14c-64 0 -139 -35 -173 -94h-72l85 415h416v-60h-367l-55 -271c44 44 117 67 185 67c150 0 256 -94 256 -218z" />
    <glyph glyph-name="six.onum" horiz-adv-x="698" 
d="M629 230c0 -142 -124 -240 -274 -240c-182 0 -292 117 -292 337c-4 219 144 387 327 383c131 0 231 -66 253 -175h-68c-20 73 -84 118 -179 118h-10c-143 0 -250 -120 -264 -320c38 78 129 129 235 129c155 0 272 -94 272 -232zM560 225c0 105 -83 180 -200 180h-10
c-119 0 -204 -75 -204 -179s85 -179 204 -179h10c116 0 200 74 200 178z" />
    <glyph glyph-name="seven.onum" horiz-adv-x="592" 
d="M19 500h545v-68c-213 -116 -323 -306 -323 -582v-50h-68v50c0 282 117 486 304 590h-458v60z" />
    <glyph glyph-name="eight.onum" horiz-adv-x="648" 
d="M85 181c0 81 55 139 109 159c-63 25 -132 81 -132 175c0 111 110 195 262 195s262 -82 262 -195c0 -94 -69 -150 -131 -175c51 -20 109 -79 109 -159c0 -113 -106 -191 -240 -191c-135 0 -239 78 -239 191zM317 372h14c111 0 186 57 186 139c0 85 -75 142 -186 142h-14
c-111 0 -186 -57 -186 -142c0 -82 75 -139 186 -139zM317 47h14c95 0 164 57 164 135s-69 133 -164 133h-14c-94 0 -163 -56 -163 -133c0 -78 69 -135 163 -135z" />
    <glyph glyph-name="nine.onum" horiz-adv-x="683" 
d="M60 271c0 142 124 240 274 240c182 0 292 -117 292 -337c3 -219 -144 -387 -327 -383c-131 0 -231 66 -253 175h68c20 -73 84 -118 179 -118h10c143 0 250 120 264 320c-38 -78 -129 -129 -235 -129c-155 0 -272 94 -272 232zM129 276c0 -105 83 -180 200 -180h10
c119 0 204 75 204 179s-85 179 -204 179h-10c-116 0 -200 -74 -200 -178z" />
    <glyph glyph-name="zero.onum_zero" horiz-adv-x="692" 
d="M634 250c0 -147 -123 -260 -288 -260c-161 -3 -291 115 -288 260c-3 145 127 263 288 260c165 0 288 -113 288 -260zM172 123l302 295c-35 23 -78 35 -123 35h-10c-121 0 -214 -88 -214 -203c0 -48 16 -92 45 -127zM565 250c0 49 -16 94 -45 127l-302 -294
c36 -24 79 -36 126 -36h7c121 0 214 88 214 203z" />
    <glyph glyph-name="zero.tnum" 
d="M67 350c0 238 129 360 293 360s293 -122 293 -360s-129 -360 -293 -360c-165 0 -293 122 -293 360zM353 57h14c102 0 215 73 215 293s-113 293 -215 293h-14c-101 0 -215 -73 -215 -293s114 -293 215 -293z" />
    <glyph glyph-name="one.tnum" 
d="M444 65h209v-65h-572v65h295v535l-205 -160v84l225 176h48v-635z" />
    <glyph glyph-name="two.tnum" 
d="M171 68h451v-68h-526v96l320 250c33 25 57 46 74 61c33 31 55 65 55 110c0 76 -75 126 -177 126h-14c-106 0 -172 -65 -176 -147h-75c4 126 113 214 258 214c148 0 256 -73 256 -191c0 -31 -6 -58 -19 -83c-24 -48 -61 -82 -132 -137z" />
    <glyph glyph-name="three.tnum" 
d="M81 178h75c12 -77 94 -121 193 -121h14c114 0 194 55 194 134s-70 126 -187 126h-90v67h90c117 0 182 57 182 132c0 80 -73 127 -189 127h-14c-95 0 -172 -55 -180 -123h-75c2 107 112 190 264 190c162 0 266 -77 266 -191c0 -85 -54 -138 -123 -166
c67 -20 128 -76 128 -158c0 -126 -107 -205 -271 -205c-159 0 -271 74 -277 188z" />
    <glyph glyph-name="four.tnum" 
d="M504 233h142v-66h-142v-167h-68v167h-364v82l346 451h86v-467zM138 233h298v390z" />
    <glyph glyph-name="five.tnum" 
d="M625 222c0 -141 -108 -232 -271 -232c-149 0 -257 68 -273 190h75c20 -79 97 -123 191 -123h14c119 0 192 66 192 162c0 91 -76 150 -187 150h-14c-68 0 -139 -26 -172 -79h-74l85 410h416v-69h-368l-54 -259c45 43 112 64 191 64c142 0 249 -88 249 -214z" />
    <glyph glyph-name="six.tnum" 
d="M622 230c0 -147 -112 -240 -263 -240c-163 0 -268 104 -268 327c-3 220 130 396 308 393c127 0 221 -69 235 -175h-75c-12 54 -66 108 -153 108h-14c-127 0 -220 -115 -232 -285c41 68 118 103 209 103c138 0 253 -86 253 -231zM549 225c0 109 -83 169 -179 169h-14
c-98 0 -184 -60 -184 -168c0 -109 84 -169 184 -169h14c96 0 179 59 179 168z" />
    <glyph glyph-name="seven.tnum" 
d="M57 700h595v-78c-237 -120 -351 -296 -351 -602v-20h-72v29c0 288 132 500 325 601h-497v70z" />
    <glyph glyph-name="eight.tnum" 
d="M117 181c0 80 60 139 114 159c-65 16 -138 76 -138 171c0 115 111 199 267 199s267 -82 267 -199c0 -95 -73 -155 -138 -171c54 -20 114 -79 114 -159c0 -113 -102 -191 -243 -191s-243 78 -243 191zM353 377h14c117 0 188 45 188 130s-73 136 -188 136h-14
c-115 0 -188 -51 -188 -136s71 -130 188 -130zM353 57h14c98 0 164 52 164 128s-64 126 -164 126h-14c-100 0 -164 -50 -164 -126s64 -128 164 -128z" />
    <glyph glyph-name="nine.tnum" 
d="M98 470c0 147 112 240 263 240c163 0 268 -104 268 -327c3 -220 -130 -396 -308 -393c-127 0 -221 69 -235 175h75c12 -54 66 -108 153 -108h14c127 0 220 115 232 285c-41 -68 -118 -103 -209 -103c-138 0 -253 86 -253 231zM171 475c0 -109 83 -169 179 -169h14
c98 0 184 60 184 168c0 109 -84 169 -184 169h-14c-96 0 -179 -59 -179 -168z" />
    <glyph glyph-name="zero.tnum_zero" 
d="M653 350c0 -238 -129 -360 -293 -360c-165 0 -293 122 -293 360s129 360 293 360s293 -122 293 -360zM138 350c0 -59 8 -109 24 -152l368 360c-41 60 -102 85 -163 85h-14c-101 0 -215 -73 -215 -293zM582 350c0 56 -7 105 -21 146l-366 -359c41 -56 101 -80 158 -80h14
c102 0 215 73 215 293z" />
    <glyph glyph-name="zero.zero" horiz-adv-x="745" 
d="M682 350c0 -238 -135 -360 -310 -360s-309 122 -309 360s135 360 309 360c175 0 310 -122 310 -360zM135 350c0 -71 12 -129 36 -176l368 402c-44 47 -103 66 -160 65h-14c-109 2 -230 -71 -230 -291zM610 350c0 67 -11 123 -32 168l-367 -400c43 -43 99 -61 154 -61h14
c111 0 231 73 231 293z" />
    <glyph glyph-name="zero.subs" horiz-adv-x="448" 
d="M41 82c0 120 72 203 184 203s182 -83 182 -203c0 -122 -70 -202 -182 -202s-184 80 -184 202zM223 -70h4c79 0 118 73 118 152c0 78 -39 153 -118 153h-4c-79 0 -119 -75 -119 -153c0 -79 40 -152 119 -152z" />
    <glyph glyph-name="one.subs" horiz-adv-x="285" 
d="M161 -115v317l-137 -94v62l156 110h38v-395h-57z" />
    <glyph glyph-name="two.subs" horiz-adv-x="389" 
d="M42 -115v69l146 106c79 57 90 68 93 110c0 39 -35 65 -83 65h-5c-41 0 -87 -26 -87 -64h-62c0 67 71 114 153 114c84 0 147 -44 147 -115c-4 -60 -33 -86 -94 -130l-145 -105h243v-50h-306z" />
    <glyph glyph-name="three.subs" horiz-adv-x="394" 
d="M37 -11h61c4 -35 39 -59 90 -59h5c55 0 96 26 96 69c0 37 -36 62 -87 62h-64v47h66c51 0 82 22 82 61c0 43 -34 66 -90 66h-5c-51 0 -84 -23 -87 -55h-61c0 65 71 105 153 105s151 -41 151 -110c0 -41 -30 -75 -75 -91c49 -15 78 -50 78 -91c0 -70 -77 -113 -159 -113
s-154 42 -154 109z" />
    <glyph glyph-name="four.subs" horiz-adv-x="405" 
d="M253 -115v96h-230v56l224 243h62v-249h69v-50h-69v-96h-56zM81 31h172v176z" />
    <glyph glyph-name="five.subs" horiz-adv-x="386" 
d="M30 -14h61c5 -36 46 -56 97 -56h4c54 0 93 33 93 80c0 45 -37 73 -92 73h-3c-33 0 -63 -10 -90 -29h-53l44 226h249v-50h-205l-26 -124c25 18 56 27 94 27c87 0 143 -52 143 -121c0 -81 -69 -132 -157 -132c-91 0 -152 39 -159 106z" />
    <glyph glyph-name="six.subs" horiz-adv-x="413" 
d="M40 71c0 130 79 214 181 214c98 0 147 -56 153 -105h-59c-9 31 -44 54 -92 54h-6c-63 0 -115 -54 -123 -140c19 33 70 56 127 56c79 0 147 -51 147 -129c0 -81 -62 -141 -163 -141c-102 0 -165 70 -165 191zM205 -70h3c56 0 101 36 101 85s-41 85 -99 85h-3
c-57 0 -100 -36 -100 -85s40 -85 98 -85z" />
    <glyph glyph-name="seven.subs" horiz-adv-x="335" 
d="M94 -115v36c0 68 15 127 46 178s67 95 108 131h-231v50h301v-53c-28 -23 -54 -48 -77 -74c-45 -52 -86 -132 -86 -232v-36h-61z" />
    <glyph glyph-name="eight.subs" horiz-adv-x="385" 
d="M49 -14c0 44 30 78 77 93c-48 13 -83 52 -83 96c0 69 62 110 150 110s151 -41 151 -110c0 -44 -34 -83 -83 -96c44 -15 73 -49 73 -93c0 -69 -67 -106 -143 -106s-142 37 -142 106zM189 107h5c48 0 89 23 89 63c0 41 -38 65 -87 65h-5c-49 0 -87 -24 -87 -65
c0 -40 38 -63 85 -63zM189 -70h5c44 0 79 24 79 65c0 37 -37 64 -79 64h-5c-43 0 -79 -27 -79 -64c0 -41 35 -65 79 -65z" />
    <glyph glyph-name="nine.subs" horiz-adv-x="413" 
d="M38 -20h59c9 -28 45 -49 92 -49h6c62 0 115 53 123 140c-20 -33 -70 -56 -127 -56l-10 -1c-75 0 -137 54 -137 130c0 80 62 141 163 141c102 0 165 -73 165 -191c0 -131 -79 -214 -181 -214c-99 0 -149 57 -153 100zM202 65h3c57 0 100 34 100 85c0 49 -40 85 -98 85h-3
c-56 0 -101 -36 -101 -85c0 -51 41 -85 99 -85z" />
    <glyph glyph-name="zero.dnom" horiz-adv-x="448" 
d="M41 197c0 122 72 203 184 203s182 -81 182 -203s-70 -202 -182 -202s-184 80 -184 202zM223 45h4c79 0 118 73 118 152c0 78 -39 153 -118 153h-4c-79 0 -119 -75 -119 -153s40 -152 119 -152z" />
    <glyph glyph-name="one.dnom" horiz-adv-x="285" 
d="M160 0v317l-137 -94v62l156 110h38v-395h-57z" />
    <glyph glyph-name="two.dnom" horiz-adv-x="389" 
d="M42 0v69l146 106c79 58 90 69 93 110c0 39 -35 65 -83 65h-5c-41 0 -87 -26 -87 -64h-62c0 68 71 114 153 114c84 0 147 -42 147 -115c-4 -60 -33 -86 -94 -130l-145 -105h243v-50h-306z" />
    <glyph glyph-name="three.dnom" horiz-adv-x="394" 
d="M37 104h61c4 -35 39 -59 90 -59h5c55 0 96 26 96 69c0 39 -36 62 -87 62h-64v47h66c51 0 82 22 82 61c0 43 -34 66 -90 66h-5c-51 0 -84 -23 -87 -55h-61c0 66 71 105 153 105s151 -39 151 -110c0 -41 -30 -75 -75 -91c49 -15 78 -48 78 -91c0 -70 -77 -113 -159 -113
s-154 42 -154 109z" />
    <glyph glyph-name="four.dnom" horiz-adv-x="405" 
d="M253 0v96h-230v56l224 243h62v-249h69v-50h-69v-96h-56zM81 146h172v176z" />
    <glyph glyph-name="five.dnom" horiz-adv-x="386" 
d="M30 101h61c5 -36 46 -56 97 -56h4c54 0 93 33 93 80s-37 73 -92 73h-3c-33 0 -63 -10 -90 -29h-53l44 226h249v-50h-205l-26 -124c25 18 56 27 94 27c87 0 143 -51 143 -121c0 -81 -69 -132 -157 -132c-91 0 -152 39 -159 106z" />
    <glyph glyph-name="six.dnom" horiz-adv-x="413" 
d="M41 186c0 131 79 214 181 214c98 0 147 -56 153 -105h-59c-9 31 -44 54 -92 54h-6c-63 0 -115 -54 -123 -140c19 33 70 56 127 56c79 0 147 -51 147 -129c0 -80 -62 -141 -163 -141c-102 0 -165 72 -165 191zM206 45h3c56 0 101 36 101 85s-41 85 -99 85h-3
c-57 0 -100 -36 -100 -85s40 -85 98 -85z" />
    <glyph glyph-name="seven.dnom" horiz-adv-x="335" 
d="M95 0v36c0 69 15 128 46 179s67 95 108 130h-231v50h301v-53c-28 -23 -54 -48 -77 -74c-45 -52 -86 -132 -86 -232v-36h-61z" />
    <glyph glyph-name="eight.dnom" horiz-adv-x="385" 
d="M49 101c0 44 30 78 77 93c-48 15 -83 52 -83 96c0 69 62 110 150 110s151 -41 151 -110c0 -44 -34 -81 -83 -96c44 -13 73 -49 73 -93c0 -68 -67 -106 -143 -106s-142 38 -142 106zM189 222h5c48 0 89 23 89 63c0 41 -38 65 -87 65h-5c-49 0 -87 -24 -87 -65
c0 -40 38 -63 85 -63zM189 45h5c44 0 79 25 79 65c0 38 -37 64 -79 64h-5c-43 0 -79 -26 -79 -64c0 -40 35 -65 79 -65z" />
    <glyph glyph-name="nine.dnom" horiz-adv-x="413" 
d="M38 95h59c9 -27 45 -49 92 -49h6c62 0 115 54 123 140c-20 -33 -70 -56 -127 -56l-10 -1c-75 0 -137 56 -137 130c0 80 62 141 163 141c102 0 165 -72 165 -191c0 -131 -79 -214 -181 -214c-99 0 -149 58 -153 100zM202 180h3c57 0 100 36 100 85s-40 85 -98 85h-3
c-56 0 -101 -36 -101 -85s41 -85 99 -85z" />
    <glyph glyph-name="zero.numr" horiz-adv-x="448" 
d="M41 502c0 122 72 203 184 203s182 -81 182 -203s-70 -202 -182 -202s-184 80 -184 202zM223 350h4c79 0 118 73 118 152c0 78 -39 153 -118 153h-4c-79 0 -119 -75 -119 -153s40 -152 119 -152z" />
    <glyph glyph-name="one.numr" horiz-adv-x="285" 
d="M161 305v317l-137 -94v62l156 110h38v-395h-57z" />
    <glyph glyph-name="two.numr" horiz-adv-x="389" 
d="M42 305v69l146 106c79 58 90 70 93 110c0 39 -35 65 -83 65h-5c-41 0 -87 -24 -87 -64h-62c0 69 71 114 153 114c84 0 147 -42 147 -115c-4 -59 -33 -85 -94 -130l-145 -105h243v-50h-306z" />
    <glyph glyph-name="three.numr" horiz-adv-x="394" 
d="M37 409h61c4 -35 39 -59 90 -59h5c55 0 96 26 96 69c0 39 -36 62 -87 62h-64v47h66c51 0 82 22 82 61c0 44 -34 66 -90 66h-5c-51 0 -84 -23 -87 -55h-61c0 66 71 105 153 105s151 -39 151 -110c0 -41 -30 -74 -75 -91c49 -15 78 -48 78 -91c0 -70 -77 -113 -159 -113
s-154 43 -154 109z" />
    <glyph glyph-name="four.numr" horiz-adv-x="405" 
d="M253 305v96h-230v56l224 243h62v-249h69v-50h-69v-96h-56zM81 451h172v176z" />
    <glyph glyph-name="five.numr" horiz-adv-x="386" 
d="M30 406h61c5 -36 46 -56 97 -56h4c54 0 93 34 93 80c0 47 -37 73 -92 73h-3c-33 0 -63 -10 -90 -29h-53l44 226h249v-50h-205l-26 -124c25 18 56 27 94 27c87 0 143 -51 143 -121c0 -79 -69 -132 -157 -132c-91 0 -152 39 -159 106z" />
    <glyph glyph-name="six.numr" horiz-adv-x="413" 
d="M41 491c0 131 79 214 181 214c98 0 147 -56 153 -105h-59c-9 31 -44 54 -92 54h-6c-63 0 -115 -54 -123 -140c19 33 70 56 127 56c79 0 147 -51 147 -129c0 -80 -62 -141 -163 -141c-102 0 -165 72 -165 191zM206 350h3c56 0 101 36 101 85s-41 85 -99 85h-3
c-57 0 -100 -36 -100 -85s40 -85 98 -85z" />
    <glyph glyph-name="seven.numr" horiz-adv-x="335" 
d="M95 305v36c0 69 15 128 46 179s67 95 108 130h-231v50h301v-53c-28 -23 -54 -48 -77 -74c-45 -51 -86 -132 -86 -232v-36h-61z" />
    <glyph glyph-name="eight.numr" horiz-adv-x="385" 
d="M49 406c0 44 30 78 77 93c-48 15 -83 52 -83 96c0 69 62 110 150 110s151 -41 151 -110c0 -44 -34 -81 -83 -96c44 -13 73 -49 73 -93c0 -68 -67 -106 -143 -106s-142 38 -142 106zM189 527h5c48 0 89 23 89 63c0 41 -38 65 -87 65h-5c-49 0 -87 -24 -87 -65
c0 -40 38 -63 85 -63zM189 350h5c44 0 79 25 79 65c0 38 -37 64 -79 64h-5c-43 0 -79 -26 -79 -64c0 -40 35 -65 79 -65z" />
    <glyph glyph-name="nine.numr" horiz-adv-x="413" 
d="M38 400h59c9 -27 45 -49 92 -49h6c62 0 115 54 123 140c-20 -33 -70 -56 -127 -56l-10 -1c-75 0 -137 56 -137 130c0 80 62 141 163 141c102 0 165 -72 165 -191c0 -131 -79 -214 -181 -214c-99 0 -149 58 -153 100zM202 485h3c57 0 100 36 100 85s-40 85 -98 85h-3
c-56 0 -101 -36 -101 -85s41 -85 99 -85z" />
    <glyph glyph-name="uni2070" unicode="&#x2070;" horiz-adv-x="448" 
d="M41 612c0 122 72 203 184 203s182 -81 182 -203s-70 -202 -182 -202s-184 80 -184 202zM223 460h4c79 0 118 73 118 152c0 78 -39 153 -118 153h-4c-79 0 -119 -75 -119 -153s40 -152 119 -152z" />
    <glyph glyph-name="onesuperior" unicode="&#xb9;" horiz-adv-x="285" 
d="M160 415v317l-137 -94v62l156 110h38v-395h-57z" />
    <glyph glyph-name="twosuperior" unicode="&#xb2;" horiz-adv-x="389" 
d="M41 415v69l146 106c79 58 90 69 93 110c0 39 -35 65 -83 65h-5c-41 0 -87 -26 -87 -64h-62c0 68 71 114 153 114c84 0 147 -42 147 -115c-4 -60 -33 -86 -94 -130l-145 -105h243v-50h-306z" />
    <glyph glyph-name="threesuperior" unicode="&#xb3;" horiz-adv-x="394" 
d="M37 519h61c4 -35 39 -59 90 -59h5c55 0 96 26 96 69c0 39 -36 62 -87 62h-64v47h66c51 0 82 22 82 61c0 43 -34 66 -90 66h-5c-51 0 -84 -23 -87 -55h-61c0 66 71 105 153 105s151 -39 151 -110c0 -41 -30 -75 -75 -91c49 -15 78 -48 78 -91c0 -70 -77 -113 -159 -113
s-154 42 -154 109z" />
    <glyph glyph-name="uni2074" unicode="&#x2074;" horiz-adv-x="405" 
d="M253 415v96h-230v56l224 243h62v-249h69v-50h-69v-96h-56zM81 561h172v176z" />
    <glyph glyph-name="uni2075" unicode="&#x2075;" horiz-adv-x="386" 
d="M30 516h61c5 -36 46 -56 97 -56h4c54 0 93 33 93 80s-37 73 -92 73h-3c-33 0 -63 -10 -90 -29h-53l44 226h249v-50h-205l-26 -124c25 18 56 27 94 27c87 0 143 -51 143 -121c0 -81 -69 -132 -157 -132c-91 0 -152 39 -159 106z" />
    <glyph glyph-name="uni2076" unicode="&#x2076;" horiz-adv-x="413" 
d="M41 601c0 131 79 214 181 214c98 0 147 -56 153 -105h-59c-9 31 -44 54 -92 54h-6c-63 0 -115 -54 -123 -140c19 33 70 56 127 56c79 0 147 -51 147 -129c0 -80 -62 -141 -163 -141c-102 0 -165 72 -165 191zM206 460h3c56 0 101 36 101 85s-41 85 -99 85h-3
c-57 0 -100 -36 -100 -85s40 -85 98 -85z" />
    <glyph glyph-name="uni2077" unicode="&#x2077;" horiz-adv-x="335" 
d="M95 415v36c0 69 15 128 46 179s67 95 108 130h-231v50h301v-53c-28 -23 -54 -48 -77 -74c-45 -52 -86 -132 -86 -232v-36h-61z" />
    <glyph glyph-name="uni2078" unicode="&#x2078;" horiz-adv-x="385" 
d="M49 516c0 44 30 78 77 93c-48 15 -83 52 -83 96c0 69 62 110 150 110s151 -41 151 -110c0 -44 -34 -81 -83 -96c44 -13 73 -49 73 -93c0 -68 -67 -106 -143 -106s-142 38 -142 106zM189 637h5c48 0 89 23 89 63c0 41 -38 65 -87 65h-5c-49 0 -87 -24 -87 -65
c0 -40 38 -63 85 -63zM189 460h5c44 0 79 25 79 65c0 38 -37 64 -79 64h-5c-43 0 -79 -26 -79 -64c0 -40 35 -65 79 -65z" />
    <glyph glyph-name="uni2079" unicode="&#x2079;" horiz-adv-x="413" 
d="M38 510h59c9 -27 45 -49 92 -49h6c62 0 115 54 123 140c-20 -33 -70 -56 -127 -56l-10 -1c-75 0 -137 56 -137 130c0 80 62 141 163 141c102 0 165 -72 165 -191c0 -131 -79 -214 -181 -214c-99 0 -149 58 -153 100zM202 595h3c57 0 100 36 100 85s-40 85 -98 85h-3
c-56 0 -101 -36 -101 -85s41 -85 99 -85z" />
    <glyph glyph-name="fraction" unicode="&#x2044;" horiz-adv-x="207" 
d="M-180 0l498 700h69l-498 -700h-69z" />
    <glyph glyph-name="uni215F" unicode="&#x215f;" horiz-adv-x="492" 
d="M161 305v317l-137 -94v62l156 110h38v-395h-57zM105 0l498 700h69l-498 -700h-69z" />
    <glyph glyph-name="onehalf" unicode="&#xbd;" horiz-adv-x="907" 
d="M161 305v317l-137 -94v62l156 110h38v-395h-57zM105 0l498 700h69l-498 -700h-69zM534 0v69l146 106c79 58 90 69 93 110c0 39 -35 65 -83 65h-5c-41 0 -87 -26 -87 -64h-62c0 68 71 114 153 114c84 0 147 -42 147 -115c-4 -60 -33 -86 -94 -130l-145 -105h243v-50h-306z
" />
    <glyph glyph-name="onethird" unicode="&#x2153;" horiz-adv-x="909" 
d="M161 305v317l-137 -94v62l156 110h38v-395h-57zM105 0l498 700h69l-498 -700h-69zM529 104h61c4 -35 39 -59 90 -59h5c55 0 96 26 96 69c0 39 -36 62 -87 62h-64v47h66c51 0 82 22 82 61c0 43 -34 66 -90 66h-5c-51 0 -84 -23 -87 -55h-61c0 66 71 105 153 105
s151 -39 151 -110c0 -41 -30 -75 -75 -91c49 -15 78 -48 78 -91c0 -70 -77 -113 -159 -113s-154 42 -154 109z" />
    <glyph glyph-name="twothirds" unicode="&#x2154;" horiz-adv-x="987" 
d="M42 305v69l146 106c79 58 90 70 93 110c0 39 -35 65 -83 65h-5c-41 0 -87 -24 -87 -64h-62c0 69 71 114 153 114c84 0 147 -42 147 -115c-4 -59 -33 -85 -94 -130l-145 -105h243v-50h-306zM209 0l498 700h69l-498 -700h-69zM633 104h61c4 -35 39 -59 90 -59h5
c55 0 96 26 96 69c0 39 -36 62 -87 62h-64v47h66c51 0 82 22 82 61c0 43 -34 66 -90 66h-5c-51 0 -84 -23 -87 -55h-61c0 66 71 105 153 105s151 -39 151 -110c0 -41 -30 -75 -75 -91c49 -15 78 -48 78 -91c0 -70 -77 -113 -159 -113s-154 42 -154 109z" />
    <glyph glyph-name="onequarter" unicode="&#xbc;" horiz-adv-x="914" 
d="M161 305v317l-137 -94v62l156 110h38v-395h-57zM105 0l498 700h69l-498 -700h-69zM722 0v96h-230v56l224 243h62v-249h69v-50h-69v-96h-56zM550 146h172v176z" />
    <glyph glyph-name="threequarters" unicode="&#xbe;" horiz-adv-x="1000" 
d="M37 409h61c4 -35 39 -59 90 -59h5c55 0 96 26 96 69c0 39 -36 62 -87 62h-64v47h66c51 0 82 22 82 61c0 44 -34 66 -90 66h-5c-51 0 -84 -23 -87 -55h-61c0 66 71 105 153 105s151 -39 151 -110c0 -41 -30 -74 -75 -91c49 -15 78 -48 78 -91c0 -70 -77 -113 -159 -113
s-154 43 -154 109zM214 0l498 700h69l-498 -700h-69zM831 0v96h-230v56l224 243h62v-249h69v-50h-69v-96h-56zM659 146h172v176z" />
    <glyph glyph-name="uni2155" unicode="&#x2155;" horiz-adv-x="905" 
d="M161 305v317l-137 -94v62l156 110h38v-395h-57zM105 0l498 700h69l-498 -700h-69zM522 101h61c5 -36 46 -56 97 -56h4c54 0 93 33 93 80s-37 73 -92 73h-3c-33 0 -63 -10 -90 -29h-53l44 226h249v-50h-205l-26 -124c25 18 56 27 94 27c87 0 143 -51 143 -121
c0 -81 -69 -132 -157 -132c-91 0 -152 39 -159 106z" />
    <glyph glyph-name="uni2156" unicode="&#x2156;" horiz-adv-x="983" 
d="M42 305v69l146 106c79 58 90 70 93 110c0 39 -35 65 -83 65h-5c-41 0 -87 -24 -87 -64h-62c0 69 71 114 153 114c84 0 147 -42 147 -115c-4 -59 -33 -85 -94 -130l-145 -105h243v-50h-306zM209 0l498 700h69l-498 -700h-69zM626 101h61c5 -36 46 -56 97 -56h4
c54 0 93 33 93 80s-37 73 -92 73h-3c-33 0 -63 -10 -90 -29h-53l44 226h249v-50h-205l-26 -124c25 18 56 27 94 27c87 0 143 -51 143 -121c0 -81 -69 -132 -157 -132c-91 0 -152 39 -159 106z" />
    <glyph glyph-name="uni2157" unicode="&#x2157;" horiz-adv-x="991" 
d="M37 409h61c4 -35 39 -59 90 -59h5c55 0 96 26 96 69c0 39 -36 62 -87 62h-64v47h66c51 0 82 22 82 61c0 44 -34 66 -90 66h-5c-51 0 -84 -23 -87 -55h-61c0 66 71 105 153 105s151 -39 151 -110c0 -41 -30 -74 -75 -91c49 -15 78 -48 78 -91c0 -70 -77 -113 -159 -113
s-154 43 -154 109zM214 0l498 700h69l-498 -700h-69zM631 101h61c5 -36 46 -56 97 -56h4c54 0 93 33 93 80s-37 73 -92 73h-3c-33 0 -63 -10 -90 -29h-53l44 226h249v-50h-205l-26 -124c25 18 56 27 94 27c87 0 143 -51 143 -121c0 -81 -69 -132 -157 -132
c-91 0 -152 39 -159 106z" />
    <glyph glyph-name="uni2158" unicode="&#x2158;" horiz-adv-x="985" 
d="M253 305v96h-230v56l224 243h62v-249h69v-50h-69v-96h-56zM81 451h172v176zM225 0l498 700h69l-498 -700h-69zM642 101h61c5 -36 46 -56 97 -56h4c54 0 93 33 93 80s-37 73 -92 73h-3c-33 0 -63 -10 -90 -29h-53l44 226h249v-50h-205l-26 -124c25 18 56 27 94 27
c87 0 143 -51 143 -121c0 -81 -69 -132 -157 -132c-91 0 -152 39 -159 106z" />
    <glyph glyph-name="uni2159" unicode="&#x2159;" horiz-adv-x="934" 
d="M161 305v317l-137 -94v62l156 110h38v-395h-57zM105 0l498 700h69l-498 -700h-69zM533 186c0 131 79 214 181 214c98 0 147 -56 153 -105h-59c-9 31 -44 54 -92 54h-6c-63 0 -115 -54 -123 -140c19 33 70 56 127 56c79 0 147 -51 147 -129c0 -80 -62 -141 -163 -141
c-102 0 -165 72 -165 191zM698 45h3c56 0 101 36 101 85s-41 85 -99 85h-3c-57 0 -100 -36 -100 -85s40 -85 98 -85z" />
    <glyph glyph-name="uni215A" unicode="&#x215a;" horiz-adv-x="1008" 
d="M30 406h61c5 -36 46 -56 97 -56h4c54 0 93 34 93 80c0 47 -37 73 -92 73h-3c-33 0 -63 -10 -90 -29h-53l44 226h249v-50h-205l-26 -124c25 18 56 27 94 27c87 0 143 -51 143 -121c0 -79 -69 -132 -157 -132c-91 0 -152 39 -159 106zM206 0l498 700h69l-498 -700h-69z
M634 186c0 131 79 214 181 214c98 0 147 -56 153 -105h-59c-9 31 -44 54 -92 54h-6c-63 0 -115 -54 -123 -140c19 33 70 56 127 56c79 0 147 -51 147 -129c0 -80 -62 -141 -163 -141c-102 0 -165 72 -165 191zM799 45h3c56 0 101 36 101 85s-41 85 -99 85h-3
c-57 0 -100 -36 -100 -85s40 -85 98 -85z" />
    <glyph glyph-name="oneeighth" unicode="&#x215b;" horiz-adv-x="903" 
d="M161 305v317l-137 -94v62l156 110h38v-395h-57zM105 0l498 700h69l-498 -700h-69zM541 101c0 44 30 78 77 93c-48 15 -83 52 -83 96c0 69 62 110 150 110s151 -41 151 -110c0 -44 -34 -81 -83 -96c44 -13 73 -49 73 -93c0 -68 -67 -106 -143 -106s-142 38 -142 106z
M681 222h5c48 0 89 23 89 63c0 41 -38 65 -87 65h-5c-49 0 -87 -24 -87 -65c0 -40 38 -63 85 -63zM681 45h5c44 0 79 25 79 65c0 38 -37 64 -79 64h-5c-43 0 -79 -26 -79 -64c0 -40 35 -65 79 -65z" />
    <glyph glyph-name="threeeighths" unicode="&#x215c;" horiz-adv-x="989" 
d="M37 409h61c4 -35 39 -59 90 -59h5c55 0 96 26 96 69c0 39 -36 62 -87 62h-64v47h66c51 0 82 22 82 61c0 44 -34 66 -90 66h-5c-51 0 -84 -23 -87 -55h-61c0 66 71 105 153 105s151 -39 151 -110c0 -41 -30 -74 -75 -91c49 -15 78 -48 78 -91c0 -70 -77 -113 -159 -113
s-154 43 -154 109zM214 0l498 700h69l-498 -700h-69zM650 101c0 44 30 78 77 93c-48 15 -83 52 -83 96c0 69 62 110 150 110s151 -41 151 -110c0 -44 -34 -81 -83 -96c44 -13 73 -49 73 -93c0 -68 -67 -106 -143 -106s-142 38 -142 106zM790 222h5c48 0 89 23 89 63
c0 41 -38 65 -87 65h-5c-49 0 -87 -24 -87 -65c0 -40 38 -63 85 -63zM790 45h5c44 0 79 25 79 65c0 38 -37 64 -79 64h-5c-43 0 -79 -26 -79 -64c0 -40 35 -65 79 -65z" />
    <glyph glyph-name="fiveeighths" unicode="&#x215d;" horiz-adv-x="977" 
d="M30 406h61c5 -36 46 -56 97 -56h4c54 0 93 34 93 80c0 47 -37 73 -92 73h-3c-33 0 -63 -10 -90 -29h-53l44 226h249v-50h-205l-26 -124c25 18 56 27 94 27c87 0 143 -51 143 -121c0 -79 -69 -132 -157 -132c-91 0 -152 39 -159 106zM206 0l498 700h69l-498 -700h-69z
M642 101c0 44 30 78 77 93c-48 15 -83 52 -83 96c0 69 62 110 150 110s151 -41 151 -110c0 -44 -34 -81 -83 -96c44 -13 73 -49 73 -93c0 -68 -67 -106 -143 -106s-142 38 -142 106zM782 222h5c48 0 89 23 89 63c0 41 -38 65 -87 65h-5c-49 0 -87 -24 -87 -65
c0 -40 38 -63 85 -63zM782 45h5c44 0 79 25 79 65c0 38 -37 64 -79 64h-5c-43 0 -79 -26 -79 -64c0 -40 35 -65 79 -65z" />
    <glyph glyph-name="seveneighths" unicode="&#x215e;" horiz-adv-x="860" 
d="M95 305v36c0 69 15 128 46 179s67 95 108 130h-231v50h301v-53c-28 -23 -54 -48 -77 -74c-45 -51 -86 -132 -86 -232v-36h-61zM113 0l498 700h69l-498 -700h-69zM549 101c0 44 30 78 77 93c-48 15 -83 52 -83 96c0 69 62 110 150 110s151 -41 151 -110
c0 -44 -34 -81 -83 -96c44 -13 73 -49 73 -93c0 -68 -67 -106 -143 -106s-142 38 -142 106zM689 222h5c48 0 89 23 89 63c0 41 -38 65 -87 65h-5c-49 0 -87 -24 -87 -65c0 -40 38 -63 85 -63zM689 45h5c44 0 79 25 79 65c0 38 -37 64 -79 64h-5c-43 0 -79 -26 -79 -64
c0 -40 35 -65 79 -65z" />
    <glyph glyph-name="zero.subs_zero" horiz-adv-x="447" 
d="M406 82c0 -122 -70 -202 -182 -202s-184 80 -184 202s72 203 184 203s182 -81 182 -203zM103 82c0 -23 3 -44 9 -63l197 178c-21 25 -49 38 -83 38h-4c-79 0 -119 -75 -119 -153zM344 82c0 23 -3 44 -9 64l-196 -177c20 -25 48 -39 83 -39h4c79 0 118 73 118 152z" />
    <glyph glyph-name="zero.dnom_zero" horiz-adv-x="447" 
d="M406 197c0 -122 -70 -202 -182 -202s-184 80 -184 202s72 203 184 203s182 -81 182 -203zM103 197c0 -23 3 -44 9 -63l197 178c-21 25 -49 38 -83 38h-4c-79 0 -119 -75 -119 -153zM344 197c0 23 -3 44 -9 64l-196 -177c20 -25 48 -39 83 -39h4c79 0 118 73 118 152z" />
    <glyph glyph-name="zero.numr_zero" horiz-adv-x="447" 
d="M406 502c0 -122 -70 -202 -182 -202s-184 80 -184 202s72 203 184 203s182 -81 182 -203zM103 502c0 -23 3 -44 9 -63l197 178c-21 25 -49 38 -83 38h-4c-79 0 -119 -75 -119 -153zM344 502c0 23 -3 44 -9 64l-196 -177c20 -25 48 -39 83 -39h4c79 0 118 73 118 152z" />
    <glyph glyph-name="uni2070.zero" horiz-adv-x="448" 
d="M407 612c0 -122 -70 -202 -182 -202s-184 80 -184 202s72 203 184 203s182 -81 182 -203zM104 612c0 -23 3 -44 9 -63l197 178c-21 25 -49 38 -83 38h-4c-79 0 -119 -75 -119 -153zM345 612c0 23 -3 44 -9 64l-196 -177c20 -25 48 -39 83 -39h4c79 0 118 73 118 152z" />
    <glyph glyph-name="uni2160" unicode="&#x2160;" horiz-adv-x="531" 
d="M53 0v57h178v586h-178v57h425v-57h-178v-586h178v-57h-425z" />
    <glyph glyph-name="uni2161" unicode="&#x2161;" horiz-adv-x="876" 
d="M53 0v57h178v586h-178v57h770v-57h-178v-586h178v-57h-770zM300 57h276v586h-276v-586z" />
    <glyph glyph-name="uni2162" unicode="&#x2162;" horiz-adv-x="1221" 
d="M53 0v57h178v586h-178v57h1115v-57h-178v-586h178v-57h-1115zM300 57h276v586h-276v-586zM645 57h276v586h-276v-586z" />
    <glyph glyph-name="uni2163" unicode="&#x2163;" horiz-adv-x="1237" 
d="M58 0v57h178v586h-178v57h630v-57h-119l217 -540l216 540h-119v57h318v-57h-127l-235 -586h202v-57h-983zM305 57h426l-235 586h-191v-586z" />
    <glyph glyph-name="uni2164" unicode="&#x2164;" horiz-adv-x="903" 
d="M185 0v57h212l-235 586h-128v57h320v-57h-119l217 -540l216 540h-119v57h320v-57h-129l-235 -586h213v-57h-533z" />
    <glyph glyph-name="uni2165" unicode="&#x2165;" horiz-adv-x="1239" 
d="M185 0v57h212l-235 586h-128v57h320v-57h-119l217 -540l216 540h-119v57h630v-57h-178v-586h178v-57h-994zM505 57h427v586h-192z" />
    <glyph glyph-name="uni2166" unicode="&#x2166;" horiz-adv-x="1583" 
d="M185 0v57h212l-235 586h-128v57h320v-57h-119l217 -540l216 540h-119v57h974v-57h-178v-586h178v-57h-1338zM505 57h427v586h-192zM1001 57h275v586h-275v-586z" />
    <glyph glyph-name="uni2167" unicode="&#x2167;" horiz-adv-x="1927" 
d="M185 0v57h212l-235 586h-128v57h320v-57h-119l217 -540l216 540h-119v57h1318v-57h-178v-586h178v-57h-1682zM505 57h427v586h-192zM1001 57h275v586h-275v-586zM1345 57h275v586h-275v-586z" />
    <glyph glyph-name="uni2168" unicode="&#x2168;" horiz-adv-x="1182" 
d="M53 0v57h178v586h-178v57h1069v-57h-121l-222 -289l227 -297h126v-57h-1079zM300 57h168l227 295l-222 291h-173v-586zM738 408l181 235h-361zM550 57h371l-185 242z" />
    <glyph glyph-name="uni2169" unicode="&#x2169;" horiz-adv-x="890" 
d="M50 0v57h126l227 295l-222 291h-121v57h770v-57h-121l-222 -289l227 -297h126v-57h-790zM446 408l181 235h-361zM258 57h371l-185 242z" />
    <glyph glyph-name="uni216C" unicode="&#x216c;" horiz-adv-x="805" 
d="M53 0v57h168v586h-168v57h405v-57h-168v-586h399v197h69v-254h-705z" />
    <glyph glyph-name="uni216D" unicode="&#x216d;" horiz-adv-x="836" 
d="M60 350c-3 205 147 363 371 360c116 0 206 -38 258 -105v95h67v-215h-67c-26 102 -128 168 -253 168h-10c-188 0 -298 -139 -298 -303c-2 -163 112 -306 298 -303h10c125 0 229 61 253 168h67v-215h-67v90c-53 -64 -145 -100 -258 -100c-224 -4 -374 157 -371 360z" />
    <glyph glyph-name="uni216E" unicode="&#x216e;" horiz-adv-x="899" 
d="M53 0v57h169v586h-169v57h376c245 0 410 -135 410 -349c0 -221 -164 -351 -407 -351h-379zM289 57h118c232 0 364 99 364 292c0 189 -126 294 -354 294h-128v-586z" />
    <glyph glyph-name="uni216F" unicode="&#x216f;" horiz-adv-x="1244" 
d="M53 0v57h168v586h-168v58h282l288 -620l288 620h280v-58h-168v-586h168v-57h-335v57h100v580l-296 -637h-77l-295 637v-580h100v-57h-335z" />
    <glyph glyph-name="asterisk" unicode="*" horiz-adv-x="465" 
d="M159 436l-41 29l66 94h-125v50h125l-66 94l42 29l73 -104l73 104l41 -29l-66 -94h125v-50h-125l66 -94l-42 -29l-73 104z" />
    <glyph glyph-name="backslash" unicode="\" horiz-adv-x="475" 
d="M362 0l-323 700h75l323 -700h-75z" />
    <glyph glyph-name="periodcentered" unicode="&#xb7;" horiz-adv-x="252" 
d="M76 290v100h100v-100h-100z" />
    <glyph glyph-name="bullet" unicode="&#x2022;" horiz-adv-x="528" 
d="M84 350c0 93 80 170 180 170s180 -77 180 -170c0 -91 -80 -170 -180 -170s-180 79 -180 170z" />
    <glyph glyph-name="colon" unicode=":" horiz-adv-x="250" 
d="M75 0v100h100v-100h-100zM75 400v100h100v-100h-100z" />
    <glyph glyph-name="comma" unicode="," horiz-adv-x="261" 
d="M49 -115v44h38c32 0 48 16 48 48v23h-56v100h105v-120c0 -60 -35 -95 -95 -95h-40z" />
    <glyph glyph-name="ellipsis" unicode="&#x2026;" horiz-adv-x="860" 
d="M75 0v100h100v-100h-100zM380 0v100h100v-100h-100zM685 0v100h100v-100h-100z" />
    <glyph glyph-name="exclam" unicode="!" horiz-adv-x="258" 
d="M114 205l-20 285v210h70v-210l-20 -285h-30zM85 0v90h87v-90h-87z" />
    <glyph glyph-name="exclamdown" unicode="&#xa1;" horiz-adv-x="240" 
d="M135 295l20 -285v-210h-70v210l20 285h30zM164 500v-90h-87v90h87z" />
    <glyph glyph-name="numbersign" unicode="#" horiz-adv-x="783" 
d="M737 454h-139l-53 -208h150v-57h-164l-47 -189h-69l47 189h-223l-49 -189h-69l48 189h-123v57h138l54 208h-149v57h163l49 189h69l-49 -189h221l48 189h69l-47 -189h125v-57zM477 246l51 208h-221l-54 -208h224z" />
    <glyph glyph-name="period" unicode="." horiz-adv-x="250" 
d="M75 0v100h100v-100h-100z" />
    <glyph glyph-name="question" unicode="?" horiz-adv-x="533" 
d="M144 205v127c0 60 20 80 80 80h84c72 0 116 52 116 114c0 61 -47 109 -126 109h-254v65h268c100 0 180 -74 180 -173c0 -107 -74 -180 -185 -180h-64c-28 0 -34 -11 -34 -34v-108h-65zM133 0v90h87v-90h-87z" />
    <glyph glyph-name="questiondown" unicode="&#xbf;" horiz-adv-x="522" 
d="M384 295v-127c0 -60 -20 -80 -80 -80h-84c-72 0 -116 -52 -116 -114c0 -61 47 -109 126 -109h254v-65h-268c-100 0 -180 74 -180 173c0 107 74 180 185 180h64c28 0 34 11 34 34v108h65zM395 500v-90h-87v90h87z" />
    <glyph glyph-name="quotedbl" unicode="&#x22;" horiz-adv-x="361" 
d="M88 490l-19 130v80h65v-80l-24 -130h-22zM247 490l-19 130v80h65v-80l-24 -130h-22z" />
    <glyph glyph-name="quotesingle" unicode="'" horiz-adv-x="202" 
d="M88 490l-19 130v80h65v-80l-24 -130h-22z" />
    <glyph glyph-name="semicolon" unicode=";" horiz-adv-x="294" 
d="M105 400v100h100v-100h-100zM70 -115v44h38c32 0 48 16 48 48v23h-56v100h105v-120c0 -60 -35 -95 -95 -95h-40z" />
    <glyph glyph-name="slash" unicode="/" horiz-adv-x="472" 
d="M38 0l323 700h72l-323 -700h-72z" />
    <glyph glyph-name="underscore" unicode="_" horiz-adv-x="650" 
d="M70 -57v57h510v-57h-510z" />
    <glyph glyph-name="exclamdown.case" horiz-adv-x="278" 
d="M154 495l20 -285v-210h-70v210l20 285h30zM183 700v-90h-87v90h87z" />
    <glyph glyph-name="questiondown.case" horiz-adv-x="532" 
d="M389 496v-127c0 -60 -20 -80 -80 -80h-84c-72 0 -116 -52 -116 -114c0 -61 47 -109 126 -109h254v-65h-268c-100 0 -180 74 -180 173c0 107 74 180 185 180h64c28 0 34 11 34 34v108h65zM400 701v-90h-87v90h87z" />
    <glyph glyph-name="_497" horiz-adv-x="560" 
d="M364 495v-90c0 -37 -16 -60 -57 -81l-75 -38c-71 -36 -120 -65 -120 -123c0 -57 63 -108 166 -108c101 0 164 43 172 120h72c-6 -117 -106 -185 -244 -185c-125 0 -238 70 -238 176c2 91 73 138 146 174l57 29c41 20 49 30 49 61v65h72zM370 700v-90h-87v90h87z" />
    <glyph glyph-name="question.ss05" horiz-adv-x="559" 
d="M196 205v90c0 37 16 60 57 81l75 38c71 36 120 65 120 123c0 57 -63 108 -166 108c-101 0 -164 -43 -172 -120h-72c6 117 106 185 244 185c125 0 238 -70 238 -176c-2 -91 -73 -138 -146 -174l-57 -29c-41 -20 -49 -30 -49 -61v-65h-72zM190 0v90h87v-90h-87z" />
    <glyph glyph-name="questiondown.ss05" horiz-adv-x="552" 
d="M360 295v-90c0 -37 -16 -60 -57 -81l-75 -38c-71 -36 -120 -65 -120 -123c0 -57 63 -108 166 -108c101 0 164 43 172 120h72c-6 -117 -106 -185 -244 -185c-125 0 -238 70 -238 176c2 91 73 138 146 174l57 29c41 20 49 30 49 61v65h72zM366 500v-90h-87v90h87z" />
    <glyph glyph-name="colon.tnum" 
d="M310 0v100h100v-100h-100zM310 400v100h100v-100h-100z" />
    <glyph glyph-name="comma.tnum" 
d="M278 -115v44h38c32 0 48 16 48 48v23h-56v100h105v-120c0 -60 -35 -95 -95 -95h-40z" />
    <glyph glyph-name="numbersign.tnum" 
d="M665 454h-114l-56 -208h128v-57h-144l-51 -189h-65l51 189h-195l-51 -189h-65l51 189h-100v57h116l56 208h-129v57h145l51 189h65l-51 -189h195l51 189h65l-51 -189h98v-57zM430 246l56 208h-195l-56 -208h195z" />
    <glyph glyph-name="period.tnum" 
d="M310 0v100h100v-100h-100z" />
    <glyph glyph-name="semicolon.tnum" 
d="M318 400v100h100v-100h-100zM283 -115v44h38c32 0 48 16 48 48v23h-56v100h105v-120c0 -60 -35 -95 -95 -95h-40z" />
    <glyph glyph-name="angleleft" unicode="&#x2329;" horiz-adv-x="391" 
d="M301 -85l-282 435l282 435h74l-279 -433l279 -437h-74z" />
    <glyph glyph-name="angleright" unicode="&#x232a;" horiz-adv-x="391" 
d="M90 785l282 -435l-282 -435h-74l279 433l-279 437h74z" />
    <glyph glyph-name="uni3010" unicode="&#x3010;" horiz-adv-x="391" 
d="M99 -145v990h287c-149 -137 -222 -315 -222 -494c0 -177 71 -356 222 -496h-287z" />
    <glyph glyph-name="uni3011" unicode="&#x3011;" horiz-adv-x="391" 
d="M292 846v-990h-287c149 137 222 315 222 494c0 177 -71 356 -222 496h287z" />
    <glyph glyph-name="braceleft" unicode="{" horiz-adv-x="381" 
d="M141 3v212c0 54 -11 70 -50 70h-53v130h53c39 0 50 16 50 70v211c0 105 32 149 115 149h95v-57h-85c-50 0 -60 -17 -60 -78v-265c0 -57 -27 -85 -80 -85h-23v-20h23c53 0 80 -28 80 -85v-265c0 -61 10 -78 60 -78h85v-57h-95c-83 0 -115 42 -115 148z" />
    <glyph glyph-name="braceright" unicode="}" horiz-adv-x="380" 
d="M239 698v-212c0 -54 11 -70 50 -70h53v-130h-53c-39 0 -50 -16 -50 -70v-211c0 -105 -32 -149 -115 -149h-95v57h85c50 0 60 17 60 78v265c0 57 27 85 80 85h23v20h-23c-53 0 -80 28 -80 85v265c0 61 -10 78 -60 78h-85v57h95c83 0 115 -42 115 -148z" />
    <glyph glyph-name="bracketleft" unicode="[" horiz-adv-x="370" 
d="M99 -145v990h243v-57h-178v-876h178v-57h-243z" />
    <glyph glyph-name="bracketright" unicode="]" horiz-adv-x="370" 
d="M271 845v-990h-243v57h178v876h-178v57h243z" />
    <glyph glyph-name="uni300C" unicode="&#x300c;" horiz-adv-x="327" 
d="M65 386v459h242v-57h-177v-402h-65z" />
    <glyph glyph-name="uni300D" unicode="&#x300d;" horiz-adv-x="347" 
d="M285 314v-459h-242v57h177v402h65z" />
    <glyph glyph-name="uni300A" unicode="&#x300a;" horiz-adv-x="589" 
d="M291 -85l-272 435l272 435h75l-269 -433l269 -437h-75zM498 -85l-272 435l272 435h74l-269 -433l269 -437h-74z" />
    <glyph glyph-name="uni300B" unicode="&#x300b;" horiz-adv-x="589" 
d="M298 785l272 -435l-272 -435h-75l269 433l-269 437h75zM91 785l272 -435l-272 -435h-74l269 433l-269 437h74z" />
    <glyph glyph-name="parenleft" unicode="(" horiz-adv-x="405" 
d="M55 350c-2 277 134 487 325 495v-57c-155 -14 -260 -191 -260 -438c0 -246 105 -422 260 -438v-57c-192 7 -328 217 -325 495z" />
    <glyph glyph-name="parenright" unicode=")" horiz-adv-x="405" 
d="M350 350c2 -277 -134 -487 -325 -495v57c155 14 260 191 260 438c0 246 -105 422 -260 438v57c192 -7 328 -217 325 -495z" />
    <glyph glyph-name="uni3014" unicode="&#x3014;" horiz-adv-x="337" 
d="M235 -145l-155 146v698l157 146h93l-185 -175v-637l187 -178h-97z" />
    <glyph glyph-name="uni3015" unicode="&#x3015;" horiz-adv-x="337" 
d="M102 846l155 -146v-698l-157 -146h-93l185 175v637l-187 178h97z" />
    <glyph glyph-name="uni300E" unicode="&#x300e;" horiz-adv-x="445" 
d="M60 333v513h365v-166h-172v-347h-193zM125 389h63v346h172v55h-235v-401z" />
    <glyph glyph-name="uni300F" unicode="&#x300f;" horiz-adv-x="465" 
d="M398 367v-513h-365v166h172v347h193zM333 311h-63v-346h-172v-55h235v401z" />
    <glyph glyph-name="braceleft.case" horiz-adv-x="417" 
d="M151 145v70c0 51 -9 65 -50 65h-45v140h45c41 0 50 14 50 65v70c0 97 36 145 117 145h95v-67h-70c-58 0 -70 -16 -70 -73v-115c0 -61 -35 -85 -95 -85v-20c60 0 95 -24 95 -85v-115c0 -56 12 -73 70 -73h70v-67h-95c-81 0 -117 48 -117 145z" />
    <glyph glyph-name="braceright.case" horiz-adv-x="418" 
d="M266 556v-70c0 -51 9 -65 50 -65h45v-140h-45c-41 0 -50 -14 -50 -65v-70c0 -97 -36 -145 -117 -145h-95v67h70c58 0 70 16 70 73v115c0 61 35 85 95 85v20c-60 0 -95 24 -95 85v115c0 56 -12 73 -70 73h-70v67h95c81 0 117 -48 117 -145z" />
    <glyph glyph-name="bracketleft.case" horiz-adv-x="370" 
d="M109 0v700h207v-67h-135v-566h135v-67h-207z" />
    <glyph glyph-name="bracketright.case" horiz-adv-x="370" 
d="M261 700v-700h-207v67h135v566h-135v67h207z" />
    <glyph glyph-name="parenleft.case" horiz-adv-x="393" 
d="M60 350c-4 187 142 343 282 360v-67c-110 -20 -210 -135 -210 -293c0 -157 100 -273 210 -293v-67c-140 17 -286 171 -282 360z" />
    <glyph glyph-name="parenright.case" horiz-adv-x="393" 
d="M333 350c3 -188 -142 -344 -282 -360v67c110 20 210 135 210 293c0 157 -100 273 -210 293v67c140 -17 285 -171 282 -360z" />
    <glyph glyph-name="emdash" unicode="&#x2014;" horiz-adv-x="1042" 
d="M76 275v55h890v-55h-890z" />
    <glyph glyph-name="endash" unicode="&#x2013;" horiz-adv-x="662" 
d="M76 275v55h510v-55h-510z" />
    <glyph glyph-name="hyphen" unicode="-" horiz-adv-x="442" 
d="M76 275v55h290v-55h-290z" />
    <glyph glyph-name="uni00AD" unicode="&#xad;" horiz-adv-x="442" 
d="M76 275v55h290v-55h-290z" />
    <glyph glyph-name="emdash.frac" horiz-adv-x="1052" 
d="M81 323v55h890v-55h-890z" />
    <glyph glyph-name="endash.frac" horiz-adv-x="672" 
d="M81 323v55h510v-55h-510z" />
    <glyph glyph-name="hyphen.frac" horiz-adv-x="452" 
d="M81 323v55h290v-55h-290z" />
    <glyph glyph-name="uni00AD.frac" horiz-adv-x="452" 
d="M81 323v55h290v-55h-290z" />
    <glyph glyph-name="guillemotleft" unicode="&#xab;" horiz-adv-x="579" 
d="M315 500l-187 -214l188 -216h-84l-190 215l190 215h83zM344 286l188 -216h-84l-190 215l190 215h83z" />
    <glyph glyph-name="guillemotright" unicode="&#xbb;" horiz-adv-x="579" 
d="M131 500l190 -215l-190 -215h-83l187 214l-188 216h84zM347 500l190 -215l-190 -215h-83l187 214l-188 216h84z" />
    <glyph glyph-name="guilsinglleft" unicode="&#x2039;" horiz-adv-x="363" 
d="M128 286l188 -216h-84l-190 215l190 215h83z" />
    <glyph glyph-name="guilsinglright" unicode="&#x203a;" horiz-adv-x="363" 
d="M131 500l190 -215l-190 -215h-84l188 216l-187 214h83z" />
    <glyph glyph-name="quotedblbase" unicode="&#x201e;" horiz-adv-x="477" 
d="M49 -115v44h38c32 0 48 16 48 48v23h-56v100h105v-120c0 -60 -35 -95 -95 -95h-40zM265 -115v44h38c32 0 48 16 48 48v23h-56v100h105v-120c0 -60 -34 -95 -95 -95h-40z" />
    <glyph glyph-name="quotedblleft" unicode="&#x201c;" horiz-adv-x="486" 
d="M426 675v-44h-38c-32 0 -48 -16 -48 -48v-23h56v-100h-105v120c0 60 35 95 95 95h40zM210 675v-44h-38c-32 0 -48 -16 -48 -48v-23h56v-100h-105v120c0 60 34 95 95 95h40z" />
    <glyph glyph-name="quotedblright" unicode="&#x201d;" horiz-adv-x="474" 
d="M67 465v44h38c32 0 48 16 48 48v23h-56v100h105v-120c0 -60 -35 -95 -95 -95h-40zM272 465v44h38c32 0 48 16 48 48v23h-56v100h105v-120c0 -60 -35 -95 -95 -95h-40z" />
    <glyph glyph-name="quoteleft" unicode="&#x2018;" horiz-adv-x="270" 
d="M210 675v-44h-38c-32 0 -48 -16 -48 -48v-23h56v-100h-105v120c0 60 35 95 95 95h40z" />
    <glyph glyph-name="quoteright" unicode="&#x2019;" horiz-adv-x="269" 
d="M67 465v44h38c32 0 48 16 48 48v23h-56v100h105v-120c0 -60 -35 -95 -95 -95h-40z" />
    <glyph glyph-name="quotesinglbase" unicode="&#x201a;" horiz-adv-x="261" 
d="M49 -115v44h38c32 0 48 16 48 48v23h-56v100h105v-120c0 -60 -35 -95 -95 -95h-40z" />
    <glyph glyph-name="guillemotleft.case" horiz-adv-x="621" 
d="M327 565l-187 -214l188 -216h-84l-190 215l190 215h83zM356 351l188 -216h-84l-190 215l190 215h83z" />
    <glyph glyph-name="guillemotright.case" horiz-adv-x="622" 
d="M162 565l190 -215l-190 -215h-83l187 214l-188 216h84zM378 565l190 -215l-190 -215h-83l187 214l-188 216h84z" />
    <glyph glyph-name="guilsinglleft.case" horiz-adv-x="405" 
d="M140 351l188 -216h-84l-190 215l190 215h83z" />
    <glyph glyph-name="guilsinglright.case" horiz-adv-x="405" 
d="M161 565l190 -215l-190 -215h-84l188 216l-187 214h83z" />
    <glyph glyph-name="uni2003" unicode="&#x2003;" horiz-adv-x="1000" 
 />
    <glyph glyph-name="uni2002" unicode="&#x2002;" horiz-adv-x="500" 
 />
    <glyph glyph-name="uni200A" unicode="&#x200a;" horiz-adv-x="75" 
 />
    <glyph glyph-name="uni00A0" unicode="&#xa0;" horiz-adv-x="278" 
 />
    <glyph glyph-name="uni2009" unicode="&#x2009;" horiz-adv-x="125" 
 />
    <glyph glyph-name="space.tnum" 
 />
    <glyph glyph-name="cent" unicode="&#xa2;" horiz-adv-x="618" 
d="M492 160h70c-22 -103 -106 -170 -236 -170c-7 0 -16 0 -29 1l-22 -111h-63l24 122c-114 32 -180 128 -180 248c0 148 99 260 270 260h11l22 110h63l-24 -118c92 -20 153 -79 162 -162h-70c-11 51 -47 90 -103 106l-78 -395h12h10c84 0 145 48 161 109zM248 62l78 391h-5
c-130 0 -196 -92 -196 -203c0 -88 42 -161 123 -188z" />
    <glyph glyph-name="currency" unicode="&#xa4;" horiz-adv-x="775" 
d="M615 157l95 -95l-44 -44l-94 90c-49 -43 -115 -68 -186 -68s-135 23 -184 66l-92 -88l-44 44l92 92c-31 44 -47 95 -47 151c0 55 17 106 46 147l-91 91l44 44l91 -87c49 41 114 65 185 65s138 -25 187 -66l93 88l44 -44l-93 -93c28 -41 44 -90 44 -145s-15 -107 -46 -148
zM592 305c0 115 -88 193 -201 193h-10c-113 0 -201 -78 -201 -193c0 -114 93 -198 206 -198h5c113 0 201 82 201 198z" />
    <glyph glyph-name="dollar" unicode="$" horiz-adv-x="713" 
d="M649 188c0 -122 -101 -198 -285 -198c-19 0 -36 1 -51 2l-23 -112h-68l26 121c-131 27 -202 100 -205 219h80c3 -80 52 -132 139 -153l53 255l-22 4c-149 24 -211 75 -211 188c0 103 91 196 277 196c13 0 25 -1 37 -2l24 112h68l-26 -120c119 -27 190 -98 201 -205h-80
c-9 71 -58 119 -134 139l-52 -247l27 -4c152 -24 225 -86 225 -195zM312 401l19 -3l52 245h-16h-16c-122 0 -195 -54 -195 -127c0 -65 47 -98 156 -115zM575 185c0 65 -50 103 -173 123l-21 4l-53 -254c11 -1 20 -1 27 -1h16c140 0 204 48 204 128z" />
    <glyph glyph-name="Euro" unicode="&#x20ac;" horiz-adv-x="790" 
d="M658 205h70c-14 -135 -116 -215 -274 -215c-145 0 -250 76 -293 211l-111 -22v62l96 19c-4 25 -6 51 -7 79l-89 -17v62l92 18c16 192 134 308 312 308c158 0 260 -80 274 -215h-70c-13 96 -83 148 -200 148h-10c-129 0 -216 -85 -236 -227l247 49v-62l-251 -50v-3
c0 -27 2 -53 6 -77l203 39v-62l-188 -36c35 -100 112 -157 219 -157h10c117 0 187 52 200 148z" />
    <glyph glyph-name="florin" unicode="&#x192;" horiz-adv-x="470" 
d="M269 515l-11 -70h159v-62h-168l-62 -402c-20 -127 -62 -181 -174 -181h-73v67h65c80 0 99 31 113 118l61 398h-129v62h139l11 73c22 135 64 182 175 182h70v-67h-65c-78 0 -97 -31 -111 -118z" />
    <glyph glyph-name="sterling" unicode="&#xa3;" horiz-adv-x="637" 
d="M195 67h401v-67h-545v67h45c51 0 74 28 81 88l14 141l-138 -29v63l145 31l14 130c15 140 74 209 202 209h133v-67h-136c-91 0 -120 -51 -130 -147l-12 -110l156 33v-63l-162 -34l-16 -148c-5 -52 -17 -76 -52 -97z" />
    <glyph glyph-name="yen" unicode="&#xa5;" horiz-adv-x="739" 
d="M707 700l-243 -324l144 30v-63l-199 -41l-2 -2v-81l171 35v-63l-171 -35v-156h-73v141l-174 -35v63l174 35v82l-204 -42v63l172 36l-268 357h94l244 -328l242 328h93z" />
    <glyph glyph-name="cent.tnum" 
d="M543 160h70c-22 -103 -106 -170 -236 -170c-7 0 -16 0 -29 1l-22 -111h-63l24 122c-114 32 -180 128 -180 248c0 148 99 260 270 260h11l22 110h63l-24 -118c92 -20 153 -79 162 -162h-70c-11 51 -47 90 -103 106l-78 -395h12h10c84 0 145 48 161 109zM299 62l78 391h-5
c-130 0 -196 -92 -196 -203c0 -88 42 -161 123 -188z" />
    <glyph glyph-name="currency.tnum" 
d="M565 199l85 -85l-39 -40l-85 81c-44 -39 -103 -61 -167 -61c-63 0 -121 21 -166 60l-83 -80l-39 40l83 83c-28 39 -43 85 -43 136c0 49 14 93 42 132l-82 82l39 39l82 -78c45 37 103 58 167 58s124 -21 168 -60l84 80l39 -39l-84 -84c27 -39 40 -82 40 -130
c0 -49 -14 -94 -41 -134zM544 333c0 103 -78 173 -181 173h-9c-101 0 -181 -70 -181 -173c0 -104 84 -179 186 -179h4c103 0 181 75 181 179z" />
    <glyph glyph-name="dollar.tnum" 
d="M624 188c0 -122 -91 -198 -256 -198c-18 0 -33 1 -46 2l-21 -112h-61l23 121c-117 27 -183 100 -184 219h72c1 -80 46 -132 125 -153l47 255l-19 4c-135 24 -190 75 -190 188c0 103 81 196 249 196c11 0 22 -1 33 -2l22 112h61l-23 -120c107 -27 170 -98 181 -205h-72
c-9 71 -53 119 -121 139l-47 -247l25 -4c136 -24 202 -86 202 -195zM321 401l17 -3l47 245h-15h-14c-109 0 -176 -54 -176 -127c0 -65 42 -98 141 -115zM557 185c0 65 -44 103 -155 123l-19 4l-48 -254c10 -1 18 -1 24 -1h15c125 0 183 48 183 128z" />
    <glyph glyph-name="Euro.tnum" 
d="M582 205h69c-12 -135 -100 -215 -244 -215c-129 0 -211 70 -246 198l-99 -20v63l87 18c-5 31 -7 64 -7 99l-80 -17v63l83 17c13 192 102 299 262 299c144 0 232 -80 244 -215h-69c-13 99 -70 148 -171 148h-10c-109 0 -172 -72 -187 -217l237 49v-63l-240 -50v-12
c0 -33 2 -62 5 -88l193 40v-63l-181 -37c26 -97 84 -145 173 -145h10c101 0 158 49 171 148z" />
    <glyph glyph-name="sterling.tnum" 
d="M237 67h401v-67h-545v67h45c51 0 74 28 81 88l14 141l-138 -29v63l145 31l14 130c15 140 74 209 202 209h133v-67h-136c-91 0 -120 -51 -130 -147l-12 -110l156 33v-63l-162 -34l-16 -148c-5 -52 -17 -76 -52 -97z" />
    <glyph glyph-name="yen.tnum" 
d="M697 700l-243 -324l144 30v-63l-199 -41l-2 -2v-81l171 35v-63l-171 -35v-156h-73v141l-174 -35v63l174 35v82l-204 -42v63l172 36l-268 357h94l244 -328l242 328h93z" />
    <glyph glyph-name="uni2219" unicode="&#x2219;" horiz-adv-x="576" 
d="M108 350c0 93 80 170 180 170s180 -77 180 -170c0 -91 -80 -170 -180 -170s-180 79 -180 170z" />
    <glyph glyph-name="uni2215" unicode="&#x2215;" horiz-adv-x="455" 
d="M32 0l323 700h72l-323 -700h-72z" />
    <glyph glyph-name="plus" unicode="+" horiz-adv-x="615" 
d="M274 15v209h-224v67h224v209h67v-209h224v-67h-224v-209h-67z" />
    <glyph glyph-name="minus" unicode="&#x2212;" horiz-adv-x="674" 
d="M80 225v67h514v-67h-514z" />
    <glyph glyph-name="multiply" unicode="&#xd7;" horiz-adv-x="585" 
d="M517 107l-45 -51l-180 157l-180 -156l-43 50l172 150l-173 150l45 52l180 -157l180 156l43 -50l-173 -150z" />
    <glyph glyph-name="divide" unicode="&#xf7;" horiz-adv-x="674" 
d="M298 380v86h79v-86h-79zM80 224v67h514v-67h-514zM298 49v86h79v-86h-79z" />
    <glyph glyph-name="equal" unicode="=" horiz-adv-x="694" 
d="M80 315v67h534v-67h-534zM80 132v67h534v-67h-534z" />
    <glyph glyph-name="notequal" unicode="&#x2260;" horiz-adv-x="694" 
d="M614 315h-209l-44 -116h253v-67h-279l-45 -117h-72l45 117h-183v67h209l44 116h-253v67h278l46 118h72l-45 -118h183v-67z" />
    <glyph glyph-name="greater" unicode="&#x3e;" horiz-adv-x="594" 
d="M79 461l465 -177v-56l-465 -177v75l360 128l-360 129v78z" />
    <glyph glyph-name="less" unicode="&#x3c;" horiz-adv-x="594" 
d="M515 462v-75l-360 -128l360 -129v-78l-465 177v56z" />
    <glyph glyph-name="greaterequal" unicode="&#x2265;" horiz-adv-x="687" 
d="M79 510l534 -152v-76l-534 -152v71l434 118l-434 118v73zM79 23v67h534v-67h-534z" />
    <glyph glyph-name="lessequal" unicode="&#x2264;" horiz-adv-x="687" 
d="M608 510v-71l-434 -118l434 -118v-73l-534 152v76zM74 23v67h534v-67h-534z" />
    <glyph glyph-name="plusminus" unicode="&#xb1;" horiz-adv-x="674" 
d="M303 150v139h-223v67h223v144h68v-144h223v-67h-223v-139h-68zM80 0v67h514v-67h-514z" />
    <glyph glyph-name="approxequal" unicode="&#x2248;" horiz-adv-x="652" 
d="M303 326c-57 24 -78 33 -94 33c-47 0 -61 -27 -61 -71h-67v25c0 66 47 115 120 115c33 0 77 -17 148 -48c53 -23 78 -33 94 -33c47 0 61 23 61 66h67v-25c0 -67 -43 -110 -120 -110c-33 0 -76 17 -148 48zM303 136c-57 24 -78 33 -94 33c-47 0 -61 -28 -61 -71h-67v25
c0 66 47 115 120 115c33 0 77 -17 148 -48c57 -24 78 -33 94 -33c47 0 61 23 61 66h67v-25c0 -68 -43 -110 -120 -110c-33 0 -76 17 -148 48z" />
    <glyph glyph-name="asciitilde" unicode="~" horiz-adv-x="559" 
d="M314 367l-89 34c-20 8 -33 11 -46 11c-25 0 -38 -16 -38 -60h-54v10c0 69 38 105 94 105c33 0 64 -15 70 -17l91 -36c21 -8 32 -12 45 -12c25 0 38 16 38 60h53v-10c0 -67 -34 -105 -89 -105c-27 0 -46 7 -75 20z" />
    <glyph glyph-name="logicalnot" unicode="&#xac;" horiz-adv-x="640" 
d="M488 130v143h-407v67h477v-210h-70z" />
    <glyph glyph-name="infinity" unicode="&#x221e;" horiz-adv-x="958" 
d="M62 360c0 113 86 190 200 190c34 0 64 -6 89 -17c51 -23 80 -54 129 -117c25 31 47 56 64 73c36 36 85 61 153 61c113 0 199 -77 199 -190c0 -114 -86 -190 -199 -190c-34 0 -64 5 -89 16c-49 21 -79 53 -128 114c-70 -87 -109 -126 -218 -130c-114 0 -200 76 -200 190z
M262 235h5c74 0 115 44 175 125c-58 81 -102 125 -175 125h-5c-83 0 -132 -46 -132 -125c0 -80 49 -125 132 -125zM692 235h5c83 0 131 45 131 125s-48 125 -131 125h-5c-73 0 -117 -44 -175 -125c60 -81 101 -125 175 -125z" />
    <glyph glyph-name="integral" unicode="&#x222b;" horiz-adv-x="433" 
d="M16 -100v67h55c83 0 109 32 109 118v425c0 131 61 190 173 190h63v-67h-55c-83 0 -109 -32 -109 -118v-425c0 -131 -60 -190 -173 -190h-63z" />
    <glyph glyph-name="Omega" unicode="&#x2126;" horiz-adv-x="889" 
d="M73 0v67h135c-88 60 -140 169 -140 288c-3 214 163 357 377 355c213 2 380 -141 376 -355c0 -119 -52 -228 -140 -288h135v-67h-271v67c117 28 202 141 202 288c3 172 -140 291 -294 288h-16c-162 0 -295 -112 -295 -288c0 -148 81 -260 202 -288v-67h-271z" />
    <glyph glyph-name="Delta" unicode="&#x2206;" horiz-adv-x="786" 
d="M435 700l313 -638v-62h-710v62l312 638h85zM392 635l-273 -568h547z" />
    <glyph glyph-name="product" unicode="&#x220f;" horiz-adv-x="811" 
d="M169 0v633h-133v67h739v-67h-133v-633h-72v633h-329v-633h-72z" />
    <glyph glyph-name="summation" unicode="&#x2211;" horiz-adv-x="614" 
d="M555 700v-67h-404l245 -283l-252 -283h411v-67h-501v68l249 280l-249 287v65h501z" />
    <glyph glyph-name="radical" unicode="&#x221a;" horiz-adv-x="772" 
d="M733 700v-65h-233l-178 -635h-84l-210 500h73l178 -426l171 626h283z" />
    <glyph glyph-name="partialdiff" unicode="&#x2202;" horiz-adv-x="659" 
d="M53 241c0 143 107 244 260 244c87 0 160 -25 203 -76l-9 34c-37 137 -138 200 -262 200c-41 0 -88 -7 -115 -15v67c25 8 71 15 116 15c226 0 348 -174 348 -408c0 -212 -111 -312 -272 -312c-166 0 -269 100 -269 251zM320 57h5c109 0 197 62 197 183
c0 123 -81 183 -197 183h-10c-117 0 -190 -61 -190 -182s79 -184 195 -184z" />
    <glyph glyph-name="mu" unicode="&#xb5;" horiz-adv-x="677" 
d="M101 -200v700h65v-310c0 -96 52 -145 155 -145h10c93 0 180 72 180 185v270h65v-500h-65v94c-31 -67 -103 -104 -202 -104c-59 0 -107 14 -143 42v-232h-65z" />
    <glyph glyph-name="percent" unicode="%" horiz-adv-x="956" 
d="M40 502c0 122 72 203 184 203s182 -80 182 -203c0 -122 -70 -202 -182 -202s-184 80 -184 202zM199 0l498 700h68l-498 -700h-68zM222 350h4c79 0 118 73 118 152s-39 153 -118 153h-4c-79 0 -119 -74 -119 -153s40 -152 119 -152zM549 197c0 122 72 203 184 203
s182 -80 182 -203c0 -122 -70 -202 -182 -202s-184 80 -184 202zM731 45h4c79 0 118 73 118 152c0 78 -39 153 -118 153h-4c-79 0 -119 -75 -119 -153s40 -152 119 -152z" />
    <glyph glyph-name="perthousand" unicode="&#x2030;" horiz-adv-x="1258" 
d="M224 300c-112 0 -184 80 -184 202s72 203 184 203s182 -80 182 -203c0 -122 -70 -202 -182 -202zM697 700h68l-498 -700h-68zM222 350h4c79 0 118 73 118 152s-39 153 -118 153h-4c-79 0 -119 -74 -119 -153s40 -152 119 -152zM1219 197c0 -122 -70 -202 -182 -202
c-68 0 -121 29 -153 80c-31 -51 -83 -80 -151 -80c-112 0 -184 80 -184 202s72 203 184 203c68 0 120 -29 151 -80c32 51 85 80 153 80c112 0 182 -81 182 -203zM853 197c0 78 -39 153 -118 153h-4c-79 0 -119 -75 -119 -153s40 -152 119 -152h4c79 0 118 73 118 152z
M1157 197c0 78 -39 153 -118 153h-4c-79 0 -119 -75 -119 -153s40 -152 119 -152h4c79 0 118 73 118 152z" />
    <glyph glyph-name="plus.case" horiz-adv-x="617" 
d="M275 108v209h-224v67h224v209h67v-209h224v-67h-224v-209h-67z" />
    <glyph glyph-name="minus.case" horiz-adv-x="676" 
d="M81 318v67h514v-67h-514z" />
    <glyph glyph-name="x.frac" horiz-adv-x="582" 
d="M516 200l-45 -51l-180 157l-180 -156l-43 50l172 150l-173 150l45 52l180 -157l180 156l43 -50l-173 -150z" />
    <glyph glyph-name="divide.case" horiz-adv-x="675" 
d="M299 473v86h79v-86h-79zM81 317v67h514v-67h-514zM299 142v86h79v-86h-79z" />
    <glyph glyph-name="equal.case" horiz-adv-x="696" 
d="M81 408v67h534v-67h-534zM81 225v67h534v-67h-534z" />
    <glyph glyph-name="notequal.case" horiz-adv-x="698" 
d="M616 408h-209l-44 -116h253v-67h-279l-45 -117h-72l45 117h-183v67h209l44 116h-253v67h278l46 118h72l-45 -118h183v-67z" />
    <glyph glyph-name="greater.case" horiz-adv-x="592" 
d="M80 554l465 -177v-56l-465 -177v75l360 128l-360 129v78z" />
    <glyph glyph-name="less.case" horiz-adv-x="593" 
d="M513 555v-75l-360 -128l360 -129v-78l-465 177v56z" />
    <glyph glyph-name="greaterequal.case" horiz-adv-x="716" 
d="M96 603l534 -152v-76l-534 -152v71l434 118l-434 118v73zM96 116v67h534v-67h-534z" />
    <glyph glyph-name="lessequal.case" horiz-adv-x="716" 
d="M620 603v-71l-434 -118l434 -118v-73l-534 152v76zM86 116v67h534v-67h-534z" />
    <glyph glyph-name="plusminus.case" horiz-adv-x="698" 
d="M315 243v139h-223v67h223v144h68v-144h223v-67h-223v-139h-68zM92 93v67h514v-67h-514z" />
    <glyph glyph-name="approxequal.case" horiz-adv-x="655" 
d="M306 419c-57 24 -78 33 -94 33c-47 0 -61 -27 -61 -71h-67v25c0 66 47 115 120 115c33 0 77 -17 148 -48c53 -23 78 -33 94 -33c47 0 61 23 61 66h67v-25c0 -67 -43 -110 -120 -110c-33 0 -76 17 -148 48zM306 229c-57 24 -78 33 -94 33c-47 0 -61 -28 -61 -71h-67v25
c0 66 47 115 120 115c33 0 77 -17 148 -48c57 -24 78 -33 94 -33c47 0 61 23 61 66h67v-25c0 -68 -43 -110 -120 -110c-33 0 -76 17 -148 48z" />
    <glyph glyph-name="logicalnot.case" horiz-adv-x="644" 
d="M487 223v143h-407v67h477v-210h-70z" />
    <glyph glyph-name="x.tnum" 
d="M585 199l-45 -51l-181 157l-179 -156l-43 50l172 150l-173 150l45 52l180 -157l180 156l43 -50l-173 -150z" />
    <glyph glyph-name="plus.tnum" 
d="M326 118v199h-214v67h214v199h67v-199h214v-67h-214v-199h-67z" />
    <glyph glyph-name="minus.tnum" 
d="M113 317v67h494v-67h-494z" />
    <glyph glyph-name="multiply.tnum" 
d="M585 199l-45 -51l-181 157l-179 -156l-43 50l172 150l-173 150l45 52l180 -157l180 156l43 -50l-173 -150z" />
    <glyph glyph-name="divide.tnum" 
d="M321 474v86h79v-86h-79zM103 318v67h514v-67h-514zM321 143v86h79v-86h-79z" />
    <glyph glyph-name="equal.tnum" 
d="M113 409v67h494v-67h-494zM113 226v67h494v-67h-494z" />
    <glyph glyph-name="notequal.tnum" 
d="M607 409h-179l-54 -116h233v-67h-265l-55 -118h-77l55 118h-152v67h183l55 116h-238v67h269l54 117h77l-54 -117h148v-67z" />
    <glyph glyph-name="greater.tnum" 
d="M144 552l465 -177v-56l-465 -177v75l360 128l-360 129v78z" />
    <glyph glyph-name="less.tnum" 
d="M576 552v-75l-360 -128l360 -129v-78l-465 177v56z" />
    <glyph glyph-name="greaterequal.tnum" 
d="M113 603l504 -152v-76l-504 -152v71l406 118l-406 118v73zM113 116v67h504v-67h-504z" />
    <glyph glyph-name="lessequal.tnum" 
d="M607 603v-71l-407 -118l407 -118v-73l-504 152v76zM103 116v67h504v-67h-504z" />
    <glyph glyph-name="plusminus.tnum" 
d="M326 276v129h-213v67h213v134h68v-134h213v-67h-213v-129h-68zM113 116v67h494v-67h-494z" />
    <glyph glyph-name="approxequal.tnum" 
d="M341 422c-47 23 -70 33 -86 33c-47 0 -61 -27 -61 -71h-67v25c0 66 46 115 120 115c32 0 73 -17 136 -48c47 -23 71 -33 86 -33c47 0 61 23 61 66h67v-25c0 -67 -41 -110 -120 -110c-32 0 -73 17 -136 48zM341 232c-47 23 -70 33 -86 33c-47 0 -61 -27 -61 -71h-67v25
c0 66 46 115 120 115c32 0 73 -17 136 -48c47 -23 71 -33 86 -33c47 0 61 23 61 66h67v-25c0 -67 -41 -110 -120 -110c-32 0 -73 17 -136 48z" />
    <glyph glyph-name="logicalnot.tnum" 
d="M527 173v143h-407v67h477v-210h-70z" />
    <glyph glyph-name="percent.tnum" 
d="M100 555c0 94 53 155 135 155s135 -61 135 -155s-53 -155 -135 -155s-135 61 -135 155zM232 450h5c48 0 75 40 75 105s-27 105 -75 105h-5c-48 0 -74 -40 -74 -105s26 -105 74 -105zM190 237v56l339 169v-56zM350 145c0 94 53 155 135 155s135 -61 135 -155
s-53 -155 -135 -155s-135 61 -135 155zM482 40h5c48 0 75 40 75 105s-27 105 -75 105h-5c-48 0 -74 -40 -74 -105s26 -105 74 -105z" />
    <glyph glyph-name="perthousand.tnum" 
d="M36 558c0 91 55 152 137 152s137 -61 137 -152c0 -93 -55 -152 -137 -152s-137 59 -137 152zM252 558c0 68 -32 102 -79 102s-79 -34 -79 -102s32 -102 79 -102s79 34 79 102zM92 237v56l339 169v-56zM207 143c0 91 53 152 136 152c47 0 84 -18 107 -54
c23 36 60 54 107 54c83 0 136 -61 136 -152c0 -92 -53 -153 -136 -153c-47 0 -84 19 -107 52c-23 -33 -60 -52 -107 -52c-83 0 -136 61 -136 153zM421 143c0 68 -31 102 -78 102s-78 -34 -78 -102s31 -103 78 -103s78 35 78 103zM635 143c0 68 -31 102 -78 102
s-78 -34 -78 -102s31 -103 78 -103s78 35 78 103z" />
    <glyph glyph-name="arrowup" unicode="&#x2191;" horiz-adv-x="792" 
d="M362 0v610l-229 -229l-48 48l311 311l311 -311l-48 -48l-229 229v-610h-68z" />
    <glyph glyph-name="uni2197" unicode="&#x2197;" horiz-adv-x="650" 
d="M49 201l431 431h-323v68h440v-440h-68v324l-431 -431z" />
    <glyph glyph-name="arrowright" unicode="&#x2192;" horiz-adv-x="925" 
d="M594 663l311 -311l-311 -311l-48 48l229 229h-745v68h745l-229 229z" />
    <glyph glyph-name="uni2198" unicode="&#x2198;" horiz-adv-x="650" 
d="M98 547l431 -431v323h68v-439h-440v67h324l-431 432z" />
    <glyph glyph-name="arrowdown" unicode="&#x2193;" horiz-adv-x="792" 
d="M430 700v-610l229 229l48 -48l-311 -311l-311 311l48 48l229 -229v610h68z" />
    <glyph glyph-name="uni2199" unicode="&#x2199;" horiz-adv-x="650" 
d="M600 499l-432 -432h324v-67h-440v439h68v-324l432 432z" />
    <glyph glyph-name="arrowleft" unicode="&#x2190;" horiz-adv-x="925" 
d="M331 41l-311 311l311 311l48 -48l-229 -229h745v-68h-745l229 -229z" />
    <glyph glyph-name="uni2196" unicode="&#x2196;" horiz-adv-x="650" 
d="M551 152l-431 431v-323h-68v440h440v-68h-324l432 -431z" />
    <glyph glyph-name="uni21A4" unicode="&#x21a4;" horiz-adv-x="1002" 
d="M341 41l-311 311l311 311l48 -48l-229 -229h690v216h67v-500h-67v216h-690l229 -229z" />
    <glyph glyph-name="uni21A5" unicode="&#x21a5;" horiz-adv-x="857" 
d="M179 0v65h216v545l-229 -229l-48 48l311 311l311 -311l-48 -48l-229 229v-545h216v-65h-500z" />
    <glyph glyph-name="uni21A6" unicode="&#x21a6;" horiz-adv-x="1002" 
d="M661 663l311 -311l-311 -311l-48 48l229 229h-690v-216h-67v500h67v-216h690l-229 229z" />
    <glyph glyph-name="uni21A7" unicode="&#x21a7;" horiz-adv-x="857" 
d="M679 700v-65h-216v-545l229 229l48 -48l-311 -311l-311 311l48 48l229 -229v545h-216v65h500z" />
    <glyph glyph-name="uni21B0" unicode="&#x21b0;" horiz-adv-x="980" 
d="M828 0v318h-678l229 -229l-48 -48l-311 311l311 311l48 -48l-229 -229h745v-386h-67z" />
    <glyph glyph-name="uni21B1" unicode="&#x21b1;" horiz-adv-x="980" 
d="M85 0v386h745l-229 229l48 48l311 -311l-311 -311l-48 48l229 229h-678v-318h-67z" />
    <glyph glyph-name="uni21B2" unicode="&#x21b2;" horiz-adv-x="980" 
d="M895 700v-386h-745l229 -229l-48 -48l-311 311l311 311l48 -48l-229 -229h678v318h67z" />
    <glyph glyph-name="uni21B3" unicode="&#x21b3;" horiz-adv-x="980" 
d="M152 700v-318h678l-229 229l48 48l311 -311l-311 -311l-48 48l229 229h-745v386h67z" />
    <glyph glyph-name="lozenge" unicode="&#x25ca;" horiz-adv-x="675" 
d="M305 0l-270 350l270 350h70l265 -350l-265 -350h-70zM340 68l225 282l-225 287l-225 -287z" />
    <glyph glyph-name="triagup" unicode="&#x25b2;" horiz-adv-x="840" 
d="M15 0l405 720l405 -720h-810z" />
    <glyph glyph-name="uniF8FF" unicode="&#xf8ff;" horiz-adv-x="958" 
d="M948 707c37 0 75 -10 90 -22c0 -5 -1 -25 -4 -28c-5 -5 -15 -7 -31 -7c-13 0 -24 1 -33 4c2 -52 -21 -110 -77 -104c-11 -36 -33 -61 -66 -76c-33 -14 -68 -21 -106 -21c-8 0 -17 0 -27 1c0 -1 6 -21 17 -58s20 -82 27 -136l14 -16c27 -31 50 -55 67 -70
c28 -25 52 -58 60 -78c1 -3 2 -7 2 -11c0 -9 -6 -15 -19 -18c-28 16 -46 35 -81 74c-21 24 -37 41 -47 50v-14c0 -32 4 -57 15 -104c6 -25 10 -44 11 -56c-9 -8 -19 -12 -29 -12c-7 0 -12 3 -13 9c-19 33 -27 91 -35 171c-1 20 -3 31 -4 34c-8 1 -37 -1 -86 -6
s-101 -10 -154 -17s-94 -14 -123 -21c-2 -45 19 -74 52 -114c29 -39 45 -61 54 -93c-4 -5 -10 -11 -21 -11c-5 0 -11 2 -16 6c-15 8 -25 22 -50 57l-18 26c-9 13 -16 24 -25 45c-7 16 -12 25 -17 28c-32 -95 -53 -143 -63 -142h-8c-15 0 -23 7 -22 20c1 19 8 46 19 80
c12 35 26 67 43 96l-40 4c-69 5 -121 12 -154 39c-1 1 -6 7 -10 14c12 13 19 18 36 29c3 1 7 4 12 7c12 17 22 25 50 46c27 20 42 32 55 52c-5 4 -14 9 -29 16c-37 19 -58 31 -65 50l9 19c5 5 48 -13 91 -34c1 5 1 13 2 25c1 24 4 39 8 46c2 8 34 13 37 13
c5 -3 11 -11 11 -15c1 -6 -1 -18 -5 -35c0 -7 -5 -31 -5 -47v-9c28 3 54 10 109 29c49 16 95 30 138 41c44 11 95 20 154 27c-13 23 -20 50 -20 77c0 25 6 43 17 56c88 2 133 -37 133 -86c0 -11 -2 -22 -6 -33c27 1 61 22 65 38c-5 5 -14 11 -27 19c-17 9 -26 16 -31 33
c-11 12 -16 25 -16 39c0 23 16 44 43 55c11 3 20 5 28 5c41 0 68 -35 68 -84c0 -5 0 -11 -1 -18c16 8 24 36 24 83c0 7 0 18 -1 31c8 1 16 2 24 2zM858 605c0 21 -14 41 -37 48c-4 -6 -6 -13 -6 -20c0 -21 20 -42 40 -45c2 5 3 11 3 17zM739 543c-16 16 -37 28 -57 28
c-3 -8 -4 -16 -4 -25c0 -15 5 -31 12 -38c2 -2 5 -3 10 -3c6 0 14 1 25 4c0 -1 14 8 14 34zM426 241c119 19 186 28 257 28c-2 15 -6 31 -11 46c-3 8 -4 18 -8 31c-2 12 -4 25 -5 38c-3 25 -6 36 -18 51c-46 -4 -87 -10 -123 -17c-35 -7 -65 -15 -89 -23
c-23 -7 -50 -17 -80 -28c-31 -12 -55 -20 -74 -25c5 -19 13 -52 23 -99l4 -19c29 3 77 10 124 17zM231 225c5 0 11 0 18 1c-5 15 -12 36 -13 41c-6 23 -11 40 -16 50l-30 -26c-25 -23 -40 -35 -52 -55c52 -8 72 -11 93 -11z" />
    <glyph glyph-name="at" unicode="@" horiz-adv-x="1048" 
d="M57 310c-4 256 220 423 473 420c258 3 461 -157 457 -376c3 -176 -134 -260 -241 -259h-74v77c-18 -44 -83 -87 -162 -87c-120 0 -215 82 -215 215c0 131 95 210 215 210c77 0 133 -33 162 -80v70h62v-348h9c76 0 177 38 177 202c0 190 -159 319 -390 319
c-231 3 -409 -145 -406 -363c0 -238 162 -378 418 -378h270v-57h-275c-280 -2 -483 152 -480 435zM511 142h8c83 0 153 63 153 158c0 99 -74 153 -153 153h-8c-82 0 -149 -53 -149 -153c0 -96 62 -158 149 -158z" />
    <glyph glyph-name="ampersand" unicode="&#x26;" horiz-adv-x="737" 
d="M64 185c0 81 44 146 115 170c-67 27 -110 85 -110 165c0 111 87 180 194 180h153v-67h-146c-71 0 -129 -45 -129 -123c0 -75 57 -121 135 -121h225v125h71v-125h135v-67h-135v-322h-318c-107 0 -190 70 -190 185zM277 67h224v255h-225c-84 0 -140 -45 -140 -122
c0 -87 54 -133 141 -133z" />
    <glyph glyph-name="paragraph" unicode="&#xb6;" horiz-adv-x="692" 
d="M250 -200v525h-20c-115 0 -195 86 -195 188c0 103 81 187 189 187h419v-57h-90v-843h-68v843h-167v-843h-68z" />
    <glyph glyph-name="section" unicode="&#xa7;" horiz-adv-x="582" 
d="M92 -60v67h243c59 0 96 23 96 68c0 39 -25 65 -86 78l-126 27c-105 23 -167 67 -167 142c0 55 30 101 89 134c-41 27 -57 66 -57 109c0 82 66 135 165 135h224v-67h-223c-59 0 -96 -23 -96 -68c0 -39 26 -65 86 -78l126 -27c111 -24 167 -71 167 -142
c0 -55 -30 -102 -89 -134c41 -27 57 -66 57 -109c0 -82 -66 -135 -165 -135h-244zM463 308c0 43 -38 73 -115 90l-138 30c-68 -29 -88 -61 -88 -96c0 -43 38 -73 115 -90l138 -30c68 29 88 61 88 96z" />
    <glyph glyph-name="copyright" unicode="&#xa9;" horiz-adv-x="1032" 
d="M56 350c-4 212 202 393 460 390c258 3 464 -178 460 -390c4 -211 -202 -395 -460 -390c-258 -4 -464 177 -460 390zM924 350c3 185 -178 344 -408 340c-231 4 -412 -155 -408 -340c-4 -185 177 -344 408 -340c230 -4 411 155 408 340zM318 353c0 118 79 198 199 198
c94 0 164 -52 176 -129h-65c-6 42 -52 79 -111 79h-5c-73 0 -131 -61 -131 -148s56 -143 131 -143h5c57 0 104 35 114 79h65c-20 -84 -90 -129 -179 -129c-112 0 -199 68 -199 193z" />
    <glyph glyph-name="registered" unicode="&#xae;" horiz-adv-x="1032" 
d="M56 350c-4 212 202 393 460 390c258 3 464 -178 460 -390c4 -211 -202 -395 -460 -390c-258 -4 -464 177 -460 390zM924 350c3 185 -178 344 -408 340c-231 4 -412 -155 -408 -340c-4 -185 177 -344 408 -340c230 -4 411 155 408 340zM374 167v376h176
c81 0 135 -45 135 -103c0 -53 -34 -85 -68 -95c39 -1 63 -23 63 -71v-107h-63v99c0 32 -16 47 -49 47h-131v-146h-63zM437 363h100c57 0 85 22 85 65c0 45 -29 63 -85 63h-100v-128z" />
    <glyph glyph-name="uni2117" unicode="&#x2117;" horiz-adv-x="1032" 
d="M56 350c-4 212 202 393 460 390c258 3 464 -178 460 -390c4 -211 -202 -395 -460 -390c-258 -4 -464 177 -460 390zM924 350c3 185 -178 344 -408 340c-231 4 -412 -155 -408 -340c-4 -185 177 -344 408 -340c230 -4 411 155 408 340zM398 167v376h171
c75 0 140 -36 140 -115c0 -78 -65 -114 -141 -114h-107v-147h-63zM461 366h99c52 0 86 16 86 63c0 48 -34 62 -86 62h-99v-125z" />
    <glyph glyph-name="trademark" unicode="&#x2122;" horiz-adv-x="1103" 
d="M38 648v52h385v-52h-161v-328h-63v328h-161zM915 700h97v-380h-63v319l-139 -319h-70l-144 317v-317h-63v380h98l144 -317z" />
    <glyph glyph-name="uni2105" unicode="&#x2105;" horiz-adv-x="792" 
d="M41 554c0 94 63 151 153 151c72 0 134 -38 142 -99h-62c-7 32 -38 52 -78 52h-3c-61 0 -91 -44 -91 -104c0 -59 30 -97 91 -97h3c39 0 68 19 77 51h61c-8 -62 -70 -98 -142 -98c-92 0 -151 51 -151 144zM106 0l498 700h69l-498 -700h-69zM432 142c0 89 64 148 161 148
s161 -59 161 -148s-64 -147 -161 -147s-161 58 -161 147zM591 42h5c61 0 97 40 97 100s-38 101 -98 101h-4c-60 0 -98 -41 -98 -101s37 -100 98 -100z" />
    <glyph glyph-name="degree" unicode="&#xb0;" horiz-adv-x="474" 
d="M52 525c0 105 79 185 185 185c105 0 185 -81 185 -185s-80 -185 -185 -185c-106 0 -185 80 -185 185zM360 525c0 70 -55 127 -123 127c-67 0 -123 -57 -123 -127c0 -69 56 -127 123 -127c68 0 123 58 123 127z" />
    <glyph glyph-name="bar" unicode="|" horiz-adv-x="265" 
d="M99 -85v870h67v-870h-67z" />
    <glyph glyph-name="brokenbar" unicode="&#xa6;" horiz-adv-x="271" 
d="M102 430v355h67v-355h-67zM102 -85v365h67v-365h-67z" />
    <glyph glyph-name="dagger" unicode="&#x2020;" horiz-adv-x="589" 
d="M261 -85v549h-206v57h206v264h67v-264h206v-57h-206v-549h-67z" />
    <glyph glyph-name="uni2113" unicode="&#x2113;" horiz-adv-x="478" 
d="M239 57h143v-57h-162c-63 0 -91 34 -91 105v109l-82 -44v65l82 44v261c0 108 57 170 156 170c110 0 165 -85 165 -169c0 -105 -63 -193 -178 -250l-75 -41v-151c0 -29 11 -42 42 -42zM197 541v-226l32 17c103 52 152 122 152 203c0 76 -39 118 -96 118
c-55 0 -88 -37 -88 -112z" />
    <glyph glyph-name="daggerdbl" unicode="&#x2021;" horiz-adv-x="589" 
d="M261 -85v263h-206v57h206v229h-206v57h206v264h67v-264h206v-57h-206v-229h206v-57h-206v-263h-67z" />
    <glyph glyph-name="uni2116" unicode="&#x2116;" horiz-adv-x="1215" 
d="M837 557c0 89 64 148 161 148s161 -59 161 -148s-64 -147 -161 -147s-161 58 -161 147zM668 99v601h73v-700h-92l-467 602v-602h-73v700h92zM898 557c0 -60 38 -100 98 -100h5c60 0 97 40 97 100c0 61 -38 101 -98 101h-4c-60 0 -98 -41 -98 -101zM844 303v47h308v-47
h-308z" />
    <glyph glyph-name="asciicircum" unicode="^" horiz-adv-x="590" 
d="M544 285h-70l-181 354l-178 -354h-68l207 415h81z" />
    <glyph glyph-name="_662" horiz-adv-x="648" 
d="M54 510c-3 125 116 233 270 230c155 3 272 -105 270 -230c0 -126 -113 -230 -270 -230c-156 0 -270 104 -270 230zM551 510c0 108 -92 191 -227 191s-227 -83 -227 -191c0 -106 92 -191 227 -191s227 85 227 191zM208 510c0 80 47 125 119 125c59 0 103 -36 107 -81h-50
c-7 27 -27 40 -55 40h-4c-48 0 -70 -35 -70 -84c0 -51 22 -85 70 -85h4c26 0 44 13 53 39h50c-4 -44 -46 -79 -105 -79c-73 0 -119 44 -119 125z" />
    <glyph glyph-name="_663" horiz-adv-x="648" 
d="M54 510c-3 125 116 233 270 230c155 3 272 -105 270 -230c0 -126 -113 -230 -270 -230c-156 0 -270 104 -270 230zM551 510c0 108 -92 191 -227 191s-227 -83 -227 -191c0 -106 92 -191 227 -191s227 85 227 191zM231 397v230h113c56 0 83 -33 83 -65
c0 -27 -16 -50 -43 -58c24 0 39 -12 39 -35v-72h-41v60c0 19 -6 23 -33 23h-77v-83h-41zM272 515h65c29 0 47 14 47 39s-14 38 -47 38h-65v-77z" />
    <glyph glyph-name="_664" horiz-adv-x="648" 
d="M54 510c-3 125 116 233 270 230c155 3 272 -105 270 -230c0 -126 -113 -230 -270 -230c-156 0 -270 104 -270 230zM551 510c0 108 -92 191 -227 191s-227 -83 -227 -191c0 -106 92 -191 227 -191s227 85 227 191zM247 400v230h109c46 0 87 -29 87 -76s-41 -76 -87 -76
h-68v-78h-41zM288 513h63c33 0 49 14 49 41c0 29 -20 41 -49 41h-63v-82z" />
    <glyph glyph-name="at.case" horiz-adv-x="1027" 
d="M58 340c-4 256 220 423 473 420c258 3 461 -157 457 -376c3 -176 -134 -260 -241 -259h-74v77c-18 -44 -83 -87 -162 -87c-120 0 -215 82 -215 215c0 131 95 210 215 210c77 0 133 -33 162 -80v70h62v-348h9c76 0 177 38 177 202c0 190 -159 319 -390 319
c-231 3 -409 -145 -406 -363c0 -238 162 -378 418 -378h270v-57h-275c-280 -2 -483 152 -480 435zM512 172h8c83 0 153 63 153 158c0 99 -74 153 -153 153h-8c-82 0 -149 -53 -149 -153c0 -96 62 -158 149 -158z" />
    <glyph glyph-name="_666" horiz-adv-x="891" 
d="M57 340c-3 243 183 424 425 420c195 0 334 -91 334 -269v-366h-67v68c-41 -48 -100 -78 -176 -78c-139 0 -227 94 -227 214s88 211 227 211c71 0 141 -31 176 -74v30c0 145 -115 207 -262 207h-10c-209 3 -355 -156 -353 -361c0 -239 158 -380 416 -380h276v-57h-276
c-293 -3 -486 171 -483 435zM571 172h5c109 0 173 69 173 157s-65 154 -173 154h-5c-107 0 -158 -66 -158 -153s51 -158 158 -158z" />
    <glyph glyph-name="ampersand.ss04" horiz-adv-x="758" 
d="M745 0h-101l-93 83c-71 -63 -166 -93 -254 -93c-138 0 -241 64 -241 179c0 92 50 143 162 190l15 7l-26 23c-56 49 -87 90 -87 149c0 107 89 172 197 172c116 0 199 -69 199 -175c0 -71 -52 -136 -147 -177l-18 -8l196 -175c37 51 55 115 55 193v17h66v-17
c0 -94 -24 -173 -72 -236zM277 415l24 -21l20 8c85 35 127 80 127 133c0 64 -46 108 -131 108c-81 0 -128 -40 -128 -103c0 -45 30 -72 88 -125zM502 126l-218 194l-28 -12c-98 -43 -130 -69 -130 -135c0 -72 68 -116 171 -116c72 0 148 22 205 69z" />
    <glyph glyph-name="at.ss06" horiz-adv-x="904" 
d="M57 310c-3 243 183 424 425 420c195 0 334 -91 334 -269v-366h-67v68c-41 -48 -100 -78 -176 -78c-139 0 -227 94 -227 214s88 211 227 211c71 0 141 -31 176 -74v30c0 145 -115 207 -262 207h-10c-209 3 -355 -156 -353 -361c0 -239 158 -380 416 -380h276v-57h-276
c-293 -3 -486 172 -483 435zM571 142h5c109 0 173 69 173 157s-65 154 -173 154h-5c-107 0 -158 -66 -158 -153s51 -158 158 -158z" />
    <glyph glyph-name="section.tnum" 
d="M171 -60v67h223c59 0 96 23 96 68c0 39 -25 62 -86 78l-106 27c-107 28 -167 69 -167 142c0 55 31 103 90 135c-39 25 -58 61 -58 108c0 82 66 135 165 135h204v-67h-203c-59 0 -96 -23 -96 -68c0 -39 25 -62 86 -78l106 -27c107 -28 167 -69 167 -142
c0 -55 -31 -103 -90 -135c39 -25 58 -61 58 -108c0 -82 -66 -135 -165 -135h-224zM522 308c0 47 -44 71 -115 90l-118 30c-68 -29 -88 -61 -88 -96c0 -48 44 -73 115 -90l118 -30c68 29 88 61 88 96z" />
    <glyph glyph-name="degree.tnum" 
d="M175 525c0 105 79 185 185 185c105 0 185 -81 185 -185s-80 -185 -185 -185c-106 0 -185 80 -185 185zM483 525c0 70 -55 127 -123 127c-67 0 -123 -57 -123 -127c0 -69 56 -127 123 -127c68 0 123 58 123 127z" />
    <glyph glyph-name="uni0308" unicode="&#x308;" horiz-adv-x="0" 
d="M-323 590v80h77v-80h-77zM-106 590v80h77v-80h-77z" />
    <glyph glyph-name="uni0307" unicode="&#x307;" horiz-adv-x="0" 
d="M-107 590v85h78v-85h-78z" />
    <glyph glyph-name="gravecomb" unicode="&#x300;" horiz-adv-x="0" 
d="M-80 570l-108 130h85l77 -130h-54z" />
    <glyph glyph-name="acutecomb" unicode="&#x301;" horiz-adv-x="0" 
d="M-189 570l77 130h85l-108 -130h-54z" />
    <glyph glyph-name="uni030B" unicode="&#x30b;" horiz-adv-x="0" 
d="M-386 570l77 130h85l-108 -130h-54zM-197 570l77 130h85l-108 -130h-54z" />
    <glyph glyph-name="_676" horiz-adv-x="0" 
d="M-144 540v37h18c29 0 40 11 40 38v10h-41v75h82v-85c0 -45 -31 -75 -79 -75h-20z" />
    <glyph glyph-name="uni0302" unicode="&#x302;" horiz-adv-x="0" 
d="M-413 570l157 130h77l157 -130h-69l-127 78l-127 -78h-68z" />
    <glyph glyph-name="uni030C" unicode="&#x30c;" horiz-adv-x="0" 
d="M-264 570l-157 130h69l127 -78l127 78h68l-157 -130h-77z" />
    <glyph glyph-name="uni0306" unicode="&#x306;" horiz-adv-x="0" 
d="M-370 711h54c6 -51 54 -89 120 -89s112 38 120 89h54c-2 -76 -77 -140 -174 -140c-98 0 -172 64 -174 140z" />
    <glyph glyph-name="uni030A" unicode="&#x30a;" horiz-adv-x="0" 
d="M-246 664c0 48 49 93 108 93c58 0 109 -45 109 -93c0 -51 -51 -93 -109 -93c-59 0 -108 42 -108 93zM-81 664c0 28 -23 47 -56 47s-57 -19 -57 -47s24 -47 57 -47s56 19 56 47z" />
    <glyph glyph-name="tildecomb" unicode="&#x303;" horiz-adv-x="0" 
d="M-221 605l-32 21c-19 12 -35 19 -56 19c-31 0 -49 -23 -49 -64h-55v13c0 65 42 107 103 107c28 0 55 -8 80 -25l34 -22c3 -1 5 -3 8 -6c25 -13 38 -21 62 -21c31 0 47 23 47 64h55v-13c0 -64 -45 -107 -100 -107c-31 0 -57 7 -97 34z" />
    <glyph glyph-name="uni0304" unicode="&#x304;" horiz-adv-x="0" 
d="M-339 590v55h309v-55h-309z" />
    <glyph glyph-name="uni0312" unicode="&#x312;" horiz-adv-x="0" 
d="M4 757v-37h-18c-29 0 -40 -11 -40 -38v-10h41v-75h-82v85c0 45 31 75 79 75h20z" />
    <glyph glyph-name="dotbelowcomb" unicode="&#x323;" horiz-adv-x="0" 
d="M-107 -165v75h77v-75h-77z" />
    <glyph glyph-name="uni0326" unicode="&#x326;" horiz-adv-x="0" 
d="M-129 -250v37h18c29 0 40 11 40 38v10h-41v75h82v-85c0 -45 -31 -75 -79 -75h-20z" />
    <glyph glyph-name="uni0327" unicode="&#x327;" horiz-adv-x="0" 
d="M-212 -225v56h76c35 0 58 14 58 42c0 27 -23 41 -58 41h-29v101h47v-60c50 0 92 -34 92 -85c0 -57 -40 -95 -111 -95h-75z" />
    <glyph glyph-name="uni0328" unicode="&#x328;" horiz-adv-x="0" 
d="M-188 -117c0 48 42 96 117 127l28 -10c-64 -36 -93 -68 -93 -100c0 -29 24 -38 61 -38h45v-57h-45c-77 0 -113 29 -113 78z" />
    <glyph glyph-name="uni0335" unicode="&#x335;" horiz-adv-x="0" 
d="M-540 349v62h510v-62h-510z" />
    <glyph glyph-name="uni0336" unicode="&#x336;" horiz-adv-x="0" 
d="M-849 519v62h819v-62h-819z" />
    <glyph glyph-name="uni0337" unicode="&#x337;" horiz-adv-x="0" 
d="M-295 300v68l265 133v-67z" />
    <glyph glyph-name="uni0338" unicode="&#x338;" horiz-adv-x="0" 
d="M-728 -23l-46 49l698 701l46 -49z" />
    <glyph glyph-name="_692" horiz-adv-x="0" 
d="M-350 320v62h320v-62h-320z" />
    <glyph glyph-name="_693" horiz-adv-x="0" 
d="M-459 224v73l429 203v-72z" />
    <glyph glyph-name="_694" horiz-adv-x="0" 
d="M-506 -21l-41 40l474 507l41 -40z" />
    <glyph glyph-name="_695" horiz-adv-x="0" 
d="M-395 574v52h367v-52h-367z" />
    <glyph glyph-name="_696" horiz-adv-x="0" 
d="M-320 780v80h84v-80h-84zM-114 780v80h84v-80h-84z" />
    <glyph glyph-name="_697" horiz-adv-x="0" 
d="M-108 780v85h78v-85h-78z" />
    <glyph glyph-name="_698" horiz-adv-x="0" 
d="M-88 765l-108 125h94l78 -125h-64z" />
    <glyph glyph-name="_699" horiz-adv-x="0" 
d="M-197 765l78 125h94l-108 -125h-64z" />
    <glyph glyph-name="_700" horiz-adv-x="0" 
d="M-415 765l78 125h94l-108 -125h-64zM-207 765l78 125h94l-108 -125h-64z" />
    <glyph glyph-name="_701" horiz-adv-x="0" 
d="M-393 765l145 125h98l145 -125h-72l-122 75l-122 -75h-72z" />
    <glyph glyph-name="_702" horiz-adv-x="0" 
d="M-238 765l-135 125h72l112 -74l112 74h72l-135 -125h-98z" />
    <glyph glyph-name="_703" horiz-adv-x="0" 
d="M-360 900h60c8 -51 48 -80 109 -80s104 31 109 80h60c-2 -80 -76 -135 -169 -135s-165 55 -169 135z" />
    <glyph glyph-name="_704" horiz-adv-x="0" 
d="M-230 852c0 48 47 87 103 87s103 -39 103 -87c0 -46 -47 -87 -103 -87s-103 41 -103 87zM-77 852c0 24 -20 41 -49 41s-51 -17 -51 -41s22 -41 51 -41s49 17 49 41z" />
    <glyph glyph-name="_705" horiz-adv-x="0" 
d="M-231 799l-34 21c-19 12 -31 18 -56 18c-35 0 -52 -20 -52 -63h-56v13c0 63 38 107 109 107c33 0 51 -7 79 -23l36 -22l11 -7c21 -13 35 -21 59 -21c34 0 51 21 51 63h56v-13c0 -64 -38 -107 -107 -107c-41 0 -50 5 -96 34z" />
    <glyph glyph-name="_706" horiz-adv-x="0" 
d="M-358 779v57h333v-57h-333z" />
    <glyph glyph-name="_707" horiz-adv-x="0" 
d="M-107 -165v75h77v-75h-77z" />
    <glyph glyph-name="acute" unicode="&#xb4;" horiz-adv-x="215" 
d="M26 570l77 130h85l-108 -130h-54z" />
    <glyph glyph-name="breve" unicode="&#x2d8;" horiz-adv-x="392" 
d="M22 711h54c6 -51 54 -89 120 -89s112 38 120 89h54c-2 -76 -77 -140 -174 -140c-98 0 -172 64 -174 140z" />
    <glyph glyph-name="caron" unicode="&#x2c7;" horiz-adv-x="451" 
d="M187 570l-157 130h69l127 -78l127 78h68l-157 -130h-77z" />
    <glyph glyph-name="cedilla" unicode="&#xb8;" horiz-adv-x="242" 
d="M30 -225v56h76c35 0 58 14 58 42c0 27 -23 41 -58 41h-29v101h47v-60c50 0 92 -34 92 -85c0 -57 -40 -95 -111 -95h-75z" />
    <glyph glyph-name="circumflex" unicode="&#x2c6;" horiz-adv-x="435" 
d="M22 570l157 130h77l157 -130h-69l-127 78l-127 -78h-68z" />
    <glyph glyph-name="dieresis" unicode="&#xa8;" horiz-adv-x="352" 
d="M29 590v80h77v-80h-77zM246 590v80h77v-80h-77z" />
    <glyph glyph-name="dotaccent" unicode="&#x2d9;" horiz-adv-x="136" 
d="M29 590v85h78v-85h-78z" />
    <glyph glyph-name="grave" unicode="`" horiz-adv-x="215" 
d="M135 570l-108 130h85l77 -130h-54z" />
    <glyph glyph-name="hungarumlaut" unicode="&#x2dd;" horiz-adv-x="420" 
d="M34 570l77 130h85l-108 -130h-54zM223 570l77 130h85l-108 -130h-54z" />
    <glyph glyph-name="macron" unicode="&#xaf;" horiz-adv-x="369" 
d="M30 590v55h309v-55h-309z" />
    <glyph glyph-name="ogonek" unicode="&#x2db;" horiz-adv-x="216" 
d="M28 -117c0 48 42 96 117 127l28 -10c-64 -36 -93 -68 -93 -100c0 -29 24 -38 61 -38h45v-57h-45c-77 0 -113 29 -113 78z" />
    <glyph glyph-name="ring" unicode="&#x2da;" horiz-adv-x="275" 
d="M29 664c0 48 49 93 108 93c58 0 109 -45 109 -93c0 -51 -51 -93 -109 -93c-59 0 -108 42 -108 93zM194 664c0 28 -23 47 -56 47s-57 -19 -57 -47s24 -47 57 -47s56 19 56 47z" />
    <glyph glyph-name="tilde" unicode="&#x2dc;" horiz-adv-x="437" 
d="M216 605l-32 21c-19 12 -35 19 -56 19c-31 0 -49 -23 -49 -64h-55v13c0 65 42 107 103 107c28 0 55 -8 80 -25l34 -22c3 -1 5 -3 8 -6c25 -13 38 -21 62 -21c31 0 47 23 47 64h55v-13c0 -64 -45 -107 -100 -107c-31 0 -57 7 -97 34z" />
    <glyph glyph-name="_721" horiz-adv-x="219" 
d="M103 965l41 88h74l-62 -88h-53zM23 852c0 48 47 87 103 87s103 -39 103 -87c0 -46 -47 -87 -103 -87s-103 41 -103 87zM176 852c0 24 -21 41 -49 41c-31 0 -51 -17 -51 -41s20 -41 51 -41c28 0 49 17 49 41z" />
    <glyph glyph-name="_722" horiz-adv-x="277" 
d="M112 788l57 130h83l-88 -130h-52zM29 664c0 48 49 93 108 93c58 0 109 -45 109 -93c0 -51 -51 -93 -109 -93c-59 0 -108 42 -108 93zM194 664c0 28 -23 47 -56 47s-57 -19 -57 -47s24 -47 57 -47s56 19 56 47z" />
    <glyph glyph-name="uniE000" unicode="&#xe000;" horiz-adv-x="540" 
d="M70 150v400h400v-400h-400zM145 225h250v250h-250v-250z" />
    <glyph glyph-name="uniE001" unicode="&#xe001;" horiz-adv-x="690" 
d="M70 75v550h550v-550h-550zM145 150h400v400h-400v-400z" />
    <glyph glyph-name="uniE002" unicode="&#xe002;" horiz-adv-x="880" 
d="M90 0v700h700v-700h-700zM165 75h550v550h-550v-550z" />
    <glyph glyph-name="uniE003" unicode="&#xe003;" horiz-adv-x="540" 
d="M70 150v400h400v-400h-400zM145 225h250v250h-250v-250zM220 300v100h100v-100h-100z" />
    <glyph glyph-name="uniE004" unicode="&#xe004;" horiz-adv-x="690" 
d="M70 75v550h550v-550h-550zM145 150h400v400h-400v-400zM220 225v250h250v-250h-250zM295 300h100v100h-100v-100z" />
    <glyph glyph-name="uniE005" unicode="&#xe005;" horiz-adv-x="880" 
d="M90 0v700h700v-700h-700zM165 75h550v550h-550v-550zM240 150v400h400v-400h-400zM315 225h250v250h-250v-250zM390 300v100h100v-100h-100z" />
    <glyph glyph-name="uniE006" unicode="&#xe006;" horiz-adv-x="540" 
d="M70 150v400h400v-400h-400z" />
    <glyph glyph-name="uniE007" unicode="&#xe007;" horiz-adv-x="690" 
d="M70 75v550h550v-550h-550z" />
    <glyph glyph-name="uniE008" unicode="&#xe008;" horiz-adv-x="880" 
d="M90 0v700h700v-700h-700z" />
    <glyph glyph-name="uniE010" unicode="&#xe010;" horiz-adv-x="580" 
d="M50 350c0 131 109 240 240 240s240 -109 240 -240s-109 -240 -240 -240s-240 109 -240 240zM455 350c0 91 -75 165 -165 165s-165 -74 -165 -165s74 -165 165 -165s165 74 165 165z" />
    <glyph glyph-name="uniE011" unicode="&#xe011;" horiz-adv-x="730" 
d="M50 350c-4 169 146 319 315 315c169 4 319 -146 315 -315c4 -169 -146 -319 -315 -315c-169 -4 -319 146 -315 315zM605 350c0 131 -109 240 -240 240s-240 -109 -240 -240s109 -240 240 -240s240 109 240 240z" />
    <glyph glyph-name="uniE012" unicode="&#xe012;" horiz-adv-x="880" 
d="M50 350c-5 210 181 394 390 390c209 4 395 -180 390 -390c5 -209 -181 -395 -390 -390c-209 -5 -395 181 -390 390zM755 350c4 169 -146 319 -315 315c-169 4 -319 -146 -315 -315c-4 -169 146 -319 315 -315c169 -4 319 146 315 315z" />
    <glyph glyph-name="uniE013" unicode="&#xe013;" horiz-adv-x="580" 
d="M50 350c0 131 109 240 240 240s240 -109 240 -240s-109 -240 -240 -240s-240 109 -240 240zM455 350c0 91 -75 165 -165 165s-165 -74 -165 -165s74 -165 165 -165s165 74 165 165zM200 350c0 50 42 90 90 90c49 0 90 -40 90 -90c0 -49 -41 -90 -90 -90
c-48 0 -90 41 -90 90z" />
    <glyph glyph-name="uniE014" unicode="&#xe014;" horiz-adv-x="730" 
d="M50 350c-4 169 146 319 315 315c169 4 319 -146 315 -315c4 -169 -146 -319 -315 -315c-169 -4 -319 146 -315 315zM605 350c0 131 -109 240 -240 240s-240 -109 -240 -240s109 -240 240 -240s240 109 240 240zM200 350c0 91 75 165 165 165s165 -74 165 -165
s-75 -165 -165 -165s-165 74 -165 165zM455 350c0 50 -40 90 -90 90c-49 0 -90 -40 -90 -90c0 -49 41 -90 90 -90c50 0 90 41 90 90z" />
    <glyph glyph-name="uniE015" unicode="&#xe015;" horiz-adv-x="880" 
d="M50 350c-5 210 181 394 390 390c209 4 395 -180 390 -390c5 -209 -181 -395 -390 -390c-209 -5 -395 181 -390 390zM755 350c4 169 -146 319 -315 315c-169 4 -319 -146 -315 -315c-4 -169 146 -319 315 -315c169 -4 319 146 315 315zM200 350c0 131 109 240 240 240
s240 -109 240 -240s-109 -240 -240 -240s-240 109 -240 240zM605 350c0 91 -75 165 -165 165s-165 -74 -165 -165s74 -165 165 -165s165 74 165 165zM350 350c0 50 42 90 90 90c50 0 90 -40 90 -90c0 -49 -40 -90 -90 -90c-48 0 -90 41 -90 90z" />
    <glyph glyph-name="uniE016" unicode="&#xe016;" horiz-adv-x="640" 
d="M80 350c0 131 109 240 240 240s240 -109 240 -240s-109 -240 -240 -240s-240 109 -240 240z" />
    <glyph glyph-name="uniE017" unicode="&#xe017;" horiz-adv-x="700" 
d="M50 350c-4 161 139 303 300 300c161 3 303 -139 300 -300c3 -161 -139 -304 -300 -300c-161 -4 -304 139 -300 300z" />
    <glyph glyph-name="uniE018" unicode="&#xe018;" horiz-adv-x="820" 
d="M50 350c-4 193 166 364 360 360c193 4 364 -167 360 -360c4 -194 -167 -364 -360 -360c-194 -4 -364 166 -360 360z" />
    <glyph glyph-name="uniE00A" unicode="&#xe00a;" horiz-adv-x="407" 
d="M111 -20c0 29 11 56 38 85c-55 12 -83 50 -83 114v342c0 65 28 103 83 114c-27 29 -38 54 -38 85c0 73 61 125 132 125h130v-57h-123c-44 0 -72 -25 -72 -64v-8c0 -39 28 -65 72 -65h48v-57h-78c-58 0 -87 -29 -87 -87v-314c0 -59 28 -87 87 -87h78v-57h-48
c-44 0 -72 -26 -72 -65v-8c0 -39 28 -64 72 -64h123v-57h-130c-71 0 -132 52 -132 125z" />
    <glyph glyph-name="uniE00B" unicode="&#xe00b;" horiz-adv-x="407" 
d="M296 720c0 -29 -11 -56 -38 -85c55 -12 83 -50 83 -114v-342c0 -65 -28 -103 -83 -114c27 -29 38 -54 38 -85c0 -73 -61 -125 -132 -125h-130v57h123c44 0 72 25 72 64v8c0 39 -28 65 -72 65h-48v57h78c58 0 87 29 87 87v314c0 59 -28 87 -87 87h-78v57h48
c44 0 72 26 72 65v8c0 39 -28 64 -72 64h-123v57h130c71 0 132 -52 132 -125z" />
    <glyph glyph-name="uniE00A.case" horiz-adv-x="427" 
d="M107 125c0 29 11 56 38 85c-55 12 -83 50 -83 114v52c0 64 28 102 83 114c-27 29 -38 54 -38 85c0 73 61 125 132 125h130v-57h-123c-44 0 -72 -25 -72 -64v-8c0 -39 28 -65 72 -65h48v-57h-78c-58 0 -87 -29 -87 -87v-24c0 -59 28 -87 87 -87h78v-57h-48
c-44 0 -72 -26 -72 -65v-8c0 -39 28 -64 72 -64h123v-57h-130c-71 0 -132 52 -132 125z" />
    <glyph glyph-name="uniE00B.case" horiz-adv-x="427" 
d="M320 575c0 -29 -11 -56 -38 -85c55 -12 83 -50 83 -114v-52c0 -64 -28 -102 -83 -114c27 -29 38 -54 38 -85c0 -73 -61 -125 -132 -125h-130v57h123c44 0 72 25 72 64v8c0 39 -28 65 -72 65h-48v57h78c58 0 87 29 87 87v24c0 59 -28 87 -87 87h-78v57h48
c44 0 72 26 72 65v8c0 39 -28 64 -72 64h-123v57h130c71 0 132 -52 132 -125z" />
    </font>
</defs>
</svg>
