<?xml version="1.0" standalone="no"?>
<!DOCTYPE svg PUBLIC "-//W3C//DTD SVG 1.1//EN" "http://www.w3.org/Graphics/SVG/1.1/DTD/svg11.dtd" >
<svg xmlns="http://www.w3.org/2000/svg" xmlns:xlink="http://www.w3.org/1999/xlink" version="1.1">
<metadata>
Created by FontForge 20170812 at Mon Aug 27 03:58:19 2018
 By www-data
Copyright 2017 Dinamo \(Johannes Breyer, Fabian Harb\). |DCNT
</metadata>
<defs>
<font id="Favorit-ExtendedMedium" horiz-adv-x="720" >
  <font-face 
    font-family="Favorit Extended Medium"
    font-weight="500"
    font-stretch="semi-expanded"
    units-per-em="1000"
    panose-1="2 0 0 6 3 0 0 2 0 4"
    ascent="750"
    descent="-250"
    x-height="500"
    cap-height="700"
    bbox="-875 -304 2470 1071"
    underline-thickness="24"
    underline-position="-49"
    unicode-range="U+000D-FB02"
  />
<missing-glyph horiz-adv-x="741" 
d="M80 0v700h582v-700h-582zM177 91h387v518h-387v-518z" />
    <glyph glyph-name="f_f" unicode="ff" horiz-adv-x="833" 
d="M152 0v403h-131v97h131v89c0 71 40 111 116 111h173v-99h-129c-29 0 -42 -11 -42 -39v-62h275v89c0 71 40 111 116 111h179v-99h-134c-31 0 -43 -11 -43 -39v-62h147v-97h-147v-403h-118v403h-275v-403h-118z" />
    <glyph glyph-name="f_f_i" unicode="ffi" horiz-adv-x="1135" 
d="M152 0v403h-131v97h131v89c0 71 40 111 115 111h179v-99h-134c-29 0 -42 -11 -42 -39v-62h277v89c0 71 40 111 115 111h180v-99h-134c-31 0 -43 -11 -43 -39v-62h395v-500h-118v403h-277v-403h-118v403h-277v-403h-118zM937 573v127h127v-127h-127z" />
    <glyph glyph-name="f_f_l" unicode="ffl" horiz-adv-x="1135" 
d="M152 0v403h-131v97h131v89c0 71 40 111 115 111h179v-99h-134c-29 0 -42 -11 -42 -39v-62h277v89c0 71 40 111 115 111h398v-700h-118v601h-234c-31 0 -43 -11 -43 -39v-62h147v-97h-147v-403h-118v403h-277v-403h-118z" />
    <glyph glyph-name="fi" unicode="fi" horiz-adv-x="691" 
d="M152 0v403h-131v97h131v89c0 71 40 111 115 111h148v-99h-103c-29 0 -42 -11 -42 -39v-62h346v-500h-117v403h-229v-403h-118zM493 573v127h128v-127h-128z" />
    <glyph glyph-name="fl" unicode="fl" horiz-adv-x="690" 
d="M152 0v403h-131v97h131v89c0 71 40 111 115 111h349v-700h-118v601h-186c-29 0 -42 -11 -42 -39v-62h131v-97h-131v-403h-118z" />
    <glyph glyph-name=".notdef" horiz-adv-x="741" 
d="M80 0v700h582v-700h-582zM177 91h387v518h-387v-518z" />
    <glyph glyph-name="NULL" horiz-adv-x="600" 
 />
    <glyph glyph-name="CR" unicode="&#xd;" horiz-adv-x="256" 
 />
    <glyph glyph-name="space" unicode=" " horiz-adv-x="266" 
 />
    <glyph glyph-name="A" unicode="A" horiz-adv-x="803" 
d="M667 0l-79 170h-377l-78 -170h-131l327 700h145l326 -700h-133zM261 280h277l-139 301z" />
    <glyph glyph-name="Aacute" unicode="&#xc1;" horiz-adv-x="803" 
d="M667 0l-79 170h-377l-78 -170h-131l327 700h145l326 -700h-133zM261 280h277l-139 301zM357 751l58 139h145l-114 -139h-89z" />
    <glyph glyph-name="Abreve" unicode="&#x102;" horiz-adv-x="803" 
d="M667 0l-79 170h-377l-78 -170h-131l327 700h145l326 -700h-133zM261 280h277l-139 301zM220 897h97c5 -37 34 -61 85 -61c49 0 79 24 84 61h98c-2 -85 -72 -146 -182 -146s-180 61 -182 146z" />
    <glyph glyph-name="Acircumflex" unicode="&#xc2;" horiz-adv-x="803" 
d="M667 0l-79 170h-377l-78 -170h-131l327 700h145l326 -700h-133zM261 280h277l-139 301zM196 751l135 139h139l135 -139h-106l-98 64l-99 -64h-106z" />
    <glyph glyph-name="Adieresis" unicode="&#xc4;" horiz-adv-x="803" 
d="M667 0l-79 170h-377l-78 -170h-131l327 700h145l326 -700h-133zM261 280h277l-139 301zM226 771v113h123v-113h-123zM453 771v113h123v-113h-123z" />
    <glyph glyph-name="uni0226" unicode="&#x226;" horiz-adv-x="803" 
d="M667 0l-79 170h-377l-78 -170h-131l327 700h145l326 -700h-133zM261 280h277l-139 301zM334 768v128h134v-128h-134z" />
    <glyph glyph-name="uni1EA0" unicode="&#x1ea0;" horiz-adv-x="803" 
d="M667 0l-79 170h-377l-78 -170h-131l327 700h145l326 -700h-133zM261 280h277l-139 301zM332 -195v124h135v-124h-135z" />
    <glyph glyph-name="Agrave" unicode="&#xc0;" horiz-adv-x="803" 
d="M667 0l-79 170h-377l-78 -170h-131l327 700h145l326 -700h-133zM261 280h277l-139 301zM356 751l-113 139h145l58 -139h-90z" />
    <glyph glyph-name="Amacron" unicode="&#x100;" horiz-adv-x="803" 
d="M667 0l-79 170h-377l-78 -170h-131l327 700h145l326 -700h-133zM261 280h277l-139 301zM226 771v96h351v-96h-351z" />
    <glyph glyph-name="Aogonek" unicode="&#x104;" horiz-adv-x="803" 
d="M667 0l-79 170h-377l-78 -170h-131l327 700h145l326 -700h-133zM261 280h277l-139 301zM630 -120c0 64 54 109 113 133l57 -13c-53 -29 -88 -58 -88 -94c0 -31 27 -44 63 -44h36v-75h-56c-75 0 -125 40 -125 93z" />
    <glyph glyph-name="Aring" unicode="&#xc5;" horiz-adv-x="803" 
d="M667 0l-79 170h-377l-78 -170h-131l327 700h145l326 -700h-133zM261 280h277l-139 301zM282 854c0 54 52 102 119 102c66 0 120 -48 120 -102c0 -59 -52 -103 -120 -103s-119 44 -119 103zM451 854c0 21 -21 39 -50 39s-50 -18 -50 -39c0 -23 21 -40 50 -40s50 17 50 40z
" />
    <glyph glyph-name="Aringacute" unicode="&#x1fa;" horiz-adv-x="803" 
d="M667 0l-79 170h-377l-78 -170h-131l327 700h145l326 -700h-133zM261 280h277l-139 301zM362 979l35 92h119l-77 -92h-77zM280 854c0 54 52 102 119 102s120 -48 120 -102c0 -59 -51 -103 -120 -103c-67 0 -119 44 -119 103zM449 854c0 21 -21 39 -49 39
c-29 0 -51 -18 -51 -39c0 -23 22 -40 51 -40c28 0 49 17 49 40z" />
    <glyph glyph-name="Atilde" unicode="&#xc3;" horiz-adv-x="803" 
d="M667 0l-79 170h-377l-78 -170h-131l327 700h145l326 -700h-133zM261 280h277l-139 301zM407 777l-35 15c-5 1 -8 4 -11 5c-19 8 -29 12 -42 12c-27 0 -42 -19 -42 -48h-91v27c0 60 53 110 118 110c36 0 52 -7 91 -23l34 -15c9 -6 44 -19 55 -19c27 0 41 18 41 47h91v-27
c0 -60 -43 -110 -111 -110c-35 0 -58 7 -98 26z" />
    <glyph glyph-name="AE" unicode="&#xc6;" horiz-adv-x="1163" 
d="M719 107h415v-107h-518l-24 171h-352l-120 -171h-134l494 700h594v-107h-421l24 -179h367v-107h-352zM317 281h260l-42 308z" />
    <glyph glyph-name="AEacute" unicode="&#x1fc;" horiz-adv-x="1163" 
d="M719 107h415v-107h-518l-24 171h-352l-120 -171h-134l494 700h594v-107h-421l24 -179h367v-107h-352zM317 281h260l-42 308zM686 751l58 139h145l-114 -139h-89z" />
    <glyph glyph-name="uni01E2" unicode="&#x1e2;" horiz-adv-x="1163" 
d="M719 107h415v-107h-518l-24 171h-352l-120 -171h-134l494 700h594v-107h-421l24 -179h367v-107h-352zM317 281h260l-42 308zM555 771v96h351v-96h-351z" />
    <glyph glyph-name="B" unicode="B" horiz-adv-x="775" 
d="M92 0v700h394c123 0 217 -72 217 -185c0 -77 -50 -137 -111 -159c73 -16 128 -78 128 -166c0 -115 -98 -190 -222 -190h-406zM215 410h256c68 0 108 33 108 92c0 55 -41 89 -108 89h-256v-181zM215 109h263c73 0 118 37 118 98c0 60 -45 93 -118 93h-263v-191z" />
    <glyph glyph-name="C" unicode="C" horiz-adv-x="818" 
d="M48 350c-3 204 155 362 385 360c198 0 322 -107 342 -236h-130c-18 80 -102 127 -204 127h-16c-156 0 -253 -110 -253 -251c0 -142 97 -251 253 -251h16c105 0 184 44 204 127h130c-22 -139 -149 -236 -342 -236c-237 0 -385 151 -385 360z" />
    <glyph glyph-name="Cacute" unicode="&#x106;" horiz-adv-x="818" 
d="M48 350c-3 204 155 362 385 360c198 0 322 -107 342 -236h-130c-18 80 -102 127 -204 127h-16c-156 0 -253 -110 -253 -251c0 -142 97 -251 253 -251h16c105 0 184 44 204 127h130c-22 -139 -149 -236 -342 -236c-237 0 -385 151 -385 360zM389 751l58 139h145l-114 -139
h-89z" />
    <glyph glyph-name="Ccaron" unicode="&#x10c;" horiz-adv-x="818" 
d="M48 350c-3 204 155 362 385 360c198 0 322 -107 342 -236h-130c-18 80 -102 127 -204 127h-16c-156 0 -253 -110 -253 -251c0 -142 97 -251 253 -251h16c105 0 184 44 204 127h130c-22 -139 -149 -236 -342 -236c-237 0 -385 151 -385 360zM363 751l-135 139h106l99 -64
l98 64h106l-135 -139h-139z" />
    <glyph glyph-name="Ccedilla" unicode="&#xc7;" horiz-adv-x="818" 
d="M48 350c-3 204 155 362 385 360c198 0 322 -107 342 -236h-130c-18 80 -102 127 -204 127h-16c-156 0 -253 -110 -253 -251c0 -142 97 -251 253 -251h16c105 0 184 44 204 127h130c-22 -139 -149 -236 -342 -236c-237 0 -385 151 -385 360zM356 -241v72h86
c32 0 49 11 49 32c0 19 -16 33 -44 33h-46v119h65v-60c56 -1 99 -36 99 -93c0 -65 -54 -103 -126 -103h-83z" />
    <glyph glyph-name="Ccircumflex" unicode="&#x108;" horiz-adv-x="818" 
d="M48 350c-3 204 155 362 385 360c198 0 322 -107 342 -236h-130c-18 80 -102 127 -204 127h-16c-156 0 -253 -110 -253 -251c0 -142 97 -251 253 -251h16c105 0 184 44 204 127h130c-22 -139 -149 -236 -342 -236c-237 0 -385 151 -385 360zM228 751l135 139h139l135 -139
h-106l-98 64l-99 -64h-106z" />
    <glyph glyph-name="Cdotaccent" unicode="&#x10a;" horiz-adv-x="818" 
d="M48 350c-3 204 155 362 385 360c198 0 322 -107 342 -236h-130c-18 80 -102 127 -204 127h-16c-156 0 -253 -110 -253 -251c0 -142 97 -251 253 -251h16c105 0 184 44 204 127h130c-22 -139 -149 -236 -342 -236c-237 0 -385 151 -385 360zM366 768v128h134v-128h-134z
" />
    <glyph glyph-name="D" unicode="D" horiz-adv-x="835" 
d="M92 0v700h331c222 0 362 -131 362 -350s-140 -350 -362 -350h-331zM215 109h198c164 0 248 82 248 241s-84 241 -248 241h-198v-482z" />
    <glyph glyph-name="Eth" unicode="&#xd0;" horiz-adv-x="870" 
d="M126 0v700h331c222 0 362 -131 362 -350s-140 -350 -362 -350h-331zM249 109h198c164 0 248 82 248 241s-84 241 -248 241h-198v-482zM18 296v108h419v-108h-419z" />
    <glyph glyph-name="Dcaron" unicode="&#x10e;" horiz-adv-x="835" 
d="M92 0v700h331c222 0 362 -131 362 -350s-140 -350 -362 -350h-331zM215 109h198c164 0 248 82 248 241s-84 241 -248 241h-198v-482zM329 751l-135 139h106l99 -64l98 64h106l-135 -139h-139z" />
    <glyph glyph-name="Dcroat" unicode="&#x110;" horiz-adv-x="870" 
d="M126 0v700h331c222 0 362 -131 362 -350s-140 -350 -362 -350h-331zM249 109h198c164 0 248 82 248 241s-84 241 -248 241h-198v-482zM18 296v108h419v-108h-419z" />
    <glyph glyph-name="E" unicode="E" horiz-adv-x="759" 
d="M215 109h498v-109h-621v700h611v-109h-488v-176h428v-109h-428v-197z" />
    <glyph glyph-name="Eacute" unicode="&#xc9;" horiz-adv-x="759" 
d="M215 109h498v-109h-621v700h611v-109h-488v-176h428v-109h-428v-197zM354 751l58 139h145l-114 -139h-89z" />
    <glyph glyph-name="Ebreve" unicode="&#x114;" horiz-adv-x="759" 
d="M215 109h498v-109h-621v700h611v-109h-488v-176h428v-109h-428v-197zM217 897h97c5 -37 34 -61 85 -61c49 0 79 24 84 61h98c-2 -85 -72 -146 -182 -146s-180 61 -182 146z" />
    <glyph glyph-name="Ecaron" unicode="&#x11a;" horiz-adv-x="759" 
d="M215 109h498v-109h-621v700h611v-109h-488v-176h428v-109h-428v-197zM328 751l-135 139h106l99 -64l98 64h106l-135 -139h-139z" />
    <glyph glyph-name="Ecircumflex" unicode="&#xca;" horiz-adv-x="759" 
d="M215 109h498v-109h-621v700h611v-109h-488v-176h428v-109h-428v-197zM193 751l135 139h139l135 -139h-106l-98 64l-99 -64h-106z" />
    <glyph glyph-name="Edieresis" unicode="&#xcb;" horiz-adv-x="759" 
d="M215 109h498v-109h-621v700h611v-109h-488v-176h428v-109h-428v-197zM223 771v113h123v-113h-123zM450 771v113h123v-113h-123z" />
    <glyph glyph-name="Edotaccent" unicode="&#x116;" horiz-adv-x="759" 
d="M215 109h498v-109h-621v700h611v-109h-488v-176h428v-109h-428v-197zM331 768v128h134v-128h-134z" />
    <glyph glyph-name="uni1EB8" unicode="&#x1eb8;" horiz-adv-x="759" 
d="M215 109h498v-109h-621v700h611v-109h-488v-176h428v-109h-428v-197zM335 -195v124h135v-124h-135z" />
    <glyph glyph-name="Egrave" unicode="&#xc8;" horiz-adv-x="759" 
d="M215 109h498v-109h-621v700h611v-109h-488v-176h428v-109h-428v-197zM353 751l-113 139h145l58 -139h-90z" />
    <glyph glyph-name="Emacron" unicode="&#x112;" horiz-adv-x="759" 
d="M215 109h498v-109h-621v700h611v-109h-488v-176h428v-109h-428v-197zM223 771v96h351v-96h-351z" />
    <glyph glyph-name="Eogonek" unicode="&#x118;" horiz-adv-x="759" 
d="M215 109h498v-109h-621v700h611v-109h-488v-176h428v-109h-428v-197zM543 -120c0 64 54 109 113 133l57 -13c-53 -29 -88 -58 -88 -94c0 -31 27 -44 63 -44h36v-75h-56c-75 0 -125 40 -125 93z" />
    <glyph glyph-name="F" unicode="F" horiz-adv-x="710" 
d="M92 0v700h591v-109h-468v-196h412v-109h-412v-286h-123z" />
    <glyph glyph-name="G" unicode="G" horiz-adv-x="862" 
d="M48 350c0 210 153 360 393 360c218 0 341 -105 351 -246h-130c-8 67 -67 137 -213 137h-16c-156 0 -261 -93 -261 -251c0 -157 107 -251 261 -251h16c147 0 236 70 236 142v12h-241v110h267c59 0 91 -33 91 -92v-271h-117v83c-30 -41 -112 -93 -245 -93
c-241 0 -392 147 -392 360z" />
    <glyph glyph-name="Gbreve" unicode="&#x11e;" horiz-adv-x="862" 
d="M48 350c0 210 153 360 393 360c218 0 341 -105 351 -246h-130c-8 67 -67 137 -213 137h-16c-156 0 -261 -93 -261 -251c0 -157 107 -251 261 -251h16c147 0 236 70 236 142v12h-241v110h267c59 0 91 -33 91 -92v-271h-117v83c-30 -41 -112 -93 -245 -93
c-241 0 -392 147 -392 360zM260 897h97c5 -37 34 -61 85 -61c49 0 79 24 84 61h98c-2 -85 -72 -146 -182 -146s-180 61 -182 146z" />
    <glyph glyph-name="Gcircumflex" unicode="&#x11c;" horiz-adv-x="862" 
d="M48 350c0 210 153 360 393 360c218 0 341 -105 351 -246h-130c-8 67 -67 137 -213 137h-16c-156 0 -261 -93 -261 -251c0 -157 107 -251 261 -251h16c147 0 236 70 236 142v12h-241v110h267c59 0 91 -33 91 -92v-271h-117v83c-30 -41 -112 -93 -245 -93
c-241 0 -392 147 -392 360zM237 751l135 139h139l135 -139h-106l-98 64l-99 -64h-106z" />
    <glyph glyph-name="uni0122" unicode="&#x122;" horiz-adv-x="862" 
d="M48 350c0 210 153 360 393 360c218 0 341 -105 351 -246h-130c-8 67 -67 137 -213 137h-16c-156 0 -261 -93 -261 -251c0 -157 107 -251 261 -251h16c147 0 236 70 236 142v12h-241v110h267c59 0 91 -33 91 -92v-271h-117v83c-30 -41 -112 -93 -245 -93
c-241 0 -392 147 -392 360zM350 -304v65h35c35 0 52 13 52 40v2h-63v125h132v-127c0 -61 -47 -105 -116 -105h-40z" />
    <glyph glyph-name="Gdotaccent" unicode="&#x120;" horiz-adv-x="862" 
d="M48 350c0 210 153 360 393 360c218 0 341 -105 351 -246h-130c-8 67 -67 137 -213 137h-16c-156 0 -261 -93 -261 -251c0 -157 107 -251 261 -251h16c147 0 236 70 236 142v12h-241v110h267c59 0 91 -33 91 -92v-271h-117v83c-30 -41 -112 -93 -245 -93
c-241 0 -392 147 -392 360zM375 768v128h134v-128h-134z" />
    <glyph glyph-name="H" unicode="H" horiz-adv-x="851" 
d="M92 0v700h123v-294h421v294h123v-700h-123v296h-421v-296h-123z" />
    <glyph glyph-name="Hbar" unicode="&#x126;" horiz-adv-x="897" 
d="M115 0v700h123v-294h421v294h123v-700h-123v296h-421v-296h-123zM26 500v100h845v-100h-845z" />
    <glyph glyph-name="Hcircumflex" unicode="&#x124;" horiz-adv-x="851" 
d="M92 0v700h123v-294h421v294h123v-700h-123v296h-421v-296h-123zM221 751l135 139h139l135 -139h-106l-98 64l-99 -64h-106z" />
    <glyph glyph-name="I" unicode="I" horiz-adv-x="308" 
d="M92 0v700h123v-700h-123z" />
    <glyph glyph-name="IJ" unicode="&#x132;" horiz-adv-x="672" 
d="M85 0v114h298c57 0 79 22 79 79v507h122v-525c0 -120 -56 -175 -180 -175h-319zM85 203v497h123v-497h-123z" />
    <glyph glyph-name="Iacute" unicode="&#xcd;" horiz-adv-x="308" 
d="M92 0v700h123v-700h-123zM111 751l58 139h145l-114 -139h-89z" />
    <glyph glyph-name="Ibreve" unicode="&#x12c;" horiz-adv-x="308" 
d="M92 0v700h123v-700h-123zM-26 897h97c5 -37 34 -61 85 -61c49 0 79 24 84 61h98c-2 -85 -72 -146 -182 -146s-180 61 -182 146z" />
    <glyph glyph-name="Icircumflex" unicode="&#xce;" horiz-adv-x="308" 
d="M92 0v700h123v-700h-123zM-49 751l135 139h139l135 -139h-106l-98 64l-99 -64h-106z" />
    <glyph glyph-name="Idieresis" unicode="&#xcf;" horiz-adv-x="308" 
d="M92 0v700h123v-700h-123zM-19 771v113h123v-113h-123zM208 771v113h123v-113h-123z" />
    <glyph glyph-name="Idotaccent" unicode="&#x130;" horiz-adv-x="308" 
d="M92 0v700h123v-700h-123zM88 768v128h134v-128h-134z" />
    <glyph glyph-name="uni1ECA" unicode="&#x1eca;" horiz-adv-x="303" 
d="M83 0v700h123v-700h-123zM80 -195v124h135v-124h-135z" />
    <glyph glyph-name="Igrave" unicode="&#xcc;" horiz-adv-x="308" 
d="M92 0v700h123v-700h-123zM111 751l-113 139h145l58 -139h-90z" />
    <glyph glyph-name="Imacron" unicode="&#x12a;" horiz-adv-x="308" 
d="M92 0v700h123v-700h-123zM-20 771v96h351v-96h-351z" />
    <glyph glyph-name="Iogonek" unicode="&#x12e;" horiz-adv-x="308" 
d="M92 0v700h123v-700h-123zM45 -120c0 64 54 109 113 133l57 -13c-53 -29 -88 -58 -88 -94c0 -31 27 -44 63 -44h36v-75h-56c-75 0 -125 40 -125 93z" />
    <glyph glyph-name="Itilde" unicode="&#x128;" horiz-adv-x="308" 
d="M92 0v700h123v-700h-123zM161 777l-35 15c-5 1 -8 4 -11 5c-19 8 -29 12 -42 12c-27 0 -42 -19 -42 -48h-91v27c0 60 53 110 118 110c36 0 52 -7 91 -23l34 -15c9 -6 44 -19 55 -19c27 0 41 18 41 47h91v-27c0 -60 -43 -110 -111 -110c-35 0 -58 7 -98 26z" />
    <glyph glyph-name="J" unicode="J" horiz-adv-x="479" 
d="M30 0v114h160c57 0 79 22 79 79v507h123v-525c0 -120 -57 -175 -181 -175h-181z" />
    <glyph glyph-name="Jcircumflex" unicode="&#x134;" horiz-adv-x="479" 
d="M30 0v114h160c57 0 79 22 79 79v507h123v-525c0 -120 -57 -175 -181 -175h-181zM130 751l135 139h139l135 -139h-106l-98 64l-99 -64h-106z" />
    <glyph glyph-name="K" unicode="K" horiz-adv-x="786" 
d="M626 0l-294 324l-117 -98v-226h-123v700h123v-329l385 329h174l-351 -298l367 -402h-164z" />
    <glyph glyph-name="uni0136" unicode="&#x136;" horiz-adv-x="786" 
d="M626 0l-294 324l-117 -98v-226h-123v700h123v-329l385 329h174l-351 -298l367 -402h-164zM331 -304v65h35c35 0 52 13 52 40v2h-63v125h132v-127c0 -61 -47 -105 -116 -105h-40z" />
    <glyph glyph-name="L" unicode="L" horiz-adv-x="710" 
d="M92 0v700h123v-591h476v-109h-599z" />
    <glyph glyph-name="Lacute" unicode="&#x139;" horiz-adv-x="710" 
d="M92 0v700h123v-591h476v-109h-599zM105 751l58 139h145l-114 -139h-89z" />
    <glyph glyph-name="Lcaron" unicode="&#x13d;" horiz-adv-x="711" 
d="M92 0v700h123v-591h476v-109h-599zM352 468v65h34c35 0 53 13 53 40v2h-63v125h132v-127c0 -61 -47 -105 -117 -105h-39z" />
    <glyph glyph-name="uni013B" unicode="&#x13b;" horiz-adv-x="710" 
d="M92 0v700h123v-591h476v-109h-599zM300 -304v65h35c35 0 52 13 52 40v2h-63v125h132v-127c0 -61 -47 -105 -116 -105h-40z" />
    <glyph glyph-name="Ldot" unicode="&#x13f;" horiz-adv-x="711" 
d="M92 0v700h123v-591h476v-109h-599zM421 300v136h149v-136h-149z" />
    <glyph glyph-name="Lslash" unicode="&#x141;" horiz-adv-x="746" 
d="M128 0v700h123v-591h476v-109h-599zM34 193v120l468 220v-119z" />
    <glyph glyph-name="M" unicode="M" horiz-adv-x="1042" 
d="M760 700h189v-700h-123v562l-230 -562h-152l-229 560v-560h-123v700h191l238 -582z" />
    <glyph glyph-name="N" unicode="N" horiz-adv-x="848" 
d="M633 700h123v-700h-158l-383 550v-550h-123v700h162l379 -544v544z" />
    <glyph glyph-name="Nacute" unicode="&#x143;" horiz-adv-x="848" 
d="M633 700h123v-700h-158l-383 550v-550h-123v700h162l379 -544v544zM379 751l58 139h145l-114 -139h-89z" />
    <glyph glyph-name="Ncaron" unicode="&#x147;" horiz-adv-x="848" 
d="M633 700h123v-700h-158l-383 550v-550h-123v700h162l379 -544v544zM354 751l-135 139h106l99 -64l98 64h106l-135 -139h-139z" />
    <glyph glyph-name="uni0145" unicode="&#x145;" horiz-adv-x="848" 
d="M633 700h123v-700h-158l-383 550v-550h-123v700h162l379 -544v544zM332 -304v65h35c35 0 52 13 52 40v2h-63v125h132v-127c0 -61 -47 -105 -116 -105h-40z" />
    <glyph glyph-name="Eng" unicode="&#x14a;" horiz-adv-x="848" 
d="M460 -196v104h123c35 0 50 17 50 50v47l-418 548v-553h-123v700h158l383 -502v502h123v-760c0 -79 -53 -136 -136 -136h-160z" />
    <glyph glyph-name="Ntilde" unicode="&#xd1;" horiz-adv-x="848" 
d="M633 700h123v-700h-158l-383 550v-550h-123v700h162l379 -544v544zM430 777l-35 15c-5 1 -8 4 -11 5c-19 8 -29 12 -42 12c-27 0 -42 -19 -42 -48h-91v27c0 60 53 110 118 110c36 0 52 -7 91 -23l34 -15c9 -6 44 -19 55 -19c27 0 41 18 41 47h91v-27
c0 -60 -43 -110 -111 -110c-35 0 -58 7 -98 26z" />
    <glyph glyph-name="O" unicode="O" horiz-adv-x="881" 
d="M48 350c-3 218 170 363 393 360c224 2 395 -140 392 -360c0 -220 -165 -360 -392 -360c-223 -2 -396 142 -393 360zM433 99h16c144 0 260 95 260 251s-116 251 -260 251h-16c-142 0 -261 -95 -261 -251s119 -251 261 -251z" />
    <glyph glyph-name="Oacute" unicode="&#xd3;" horiz-adv-x="881" 
d="M48 350c-3 218 170 363 393 360c224 2 395 -140 392 -360c0 -220 -165 -360 -392 -360c-223 -2 -396 142 -393 360zM433 99h16c144 0 260 95 260 251s-116 251 -260 251h-16c-142 0 -261 -95 -261 -251s119 -251 261 -251zM397 751l58 139h145l-114 -139h-89z" />
    <glyph glyph-name="Obreve" unicode="&#x14e;" horiz-adv-x="881" 
d="M48 350c-3 218 170 363 393 360c224 2 395 -140 392 -360c0 -220 -165 -360 -392 -360c-223 -2 -396 142 -393 360zM433 99h16c144 0 260 95 260 251s-116 251 -260 251h-16c-142 0 -261 -95 -261 -251s119 -251 261 -251zM260 897h97c5 -37 34 -61 85 -61
c49 0 79 24 84 61h98c-2 -85 -72 -146 -182 -146s-180 61 -182 146z" />
    <glyph glyph-name="Ocircumflex" unicode="&#xd4;" horiz-adv-x="881" 
d="M48 350c-3 218 170 363 393 360c224 2 395 -140 392 -360c0 -220 -165 -360 -392 -360c-223 -2 -396 142 -393 360zM433 99h16c144 0 260 95 260 251s-116 251 -260 251h-16c-142 0 -261 -95 -261 -251s119 -251 261 -251zM236 751l135 139h139l135 -139h-106l-98 64
l-99 -64h-106z" />
    <glyph glyph-name="Odieresis" unicode="&#xd6;" horiz-adv-x="881" 
d="M48 350c-3 218 170 363 393 360c224 2 395 -140 392 -360c0 -220 -165 -360 -392 -360c-223 -2 -396 142 -393 360zM433 99h16c144 0 260 95 260 251s-116 251 -260 251h-16c-142 0 -261 -95 -261 -251s119 -251 261 -251zM266 771v113h123v-113h-123zM493 771v113h123
v-113h-123z" />
    <glyph glyph-name="uni1ECC" unicode="&#x1ecc;" horiz-adv-x="881" 
d="M48 350c-3 218 170 363 393 360c224 2 395 -140 392 -360c0 -220 -165 -360 -392 -360c-223 -2 -396 142 -393 360zM433 99h16c144 0 260 95 260 251s-116 251 -260 251h-16c-142 0 -261 -95 -261 -251s119 -251 261 -251zM374 -195v124h135v-124h-135z" />
    <glyph glyph-name="Ograve" unicode="&#xd2;" horiz-adv-x="881" 
d="M48 350c-3 218 170 363 393 360c224 2 395 -140 392 -360c0 -220 -165 -360 -392 -360c-223 -2 -396 142 -393 360zM433 99h16c144 0 260 95 260 251s-116 251 -260 251h-16c-142 0 -261 -95 -261 -251s119 -251 261 -251zM396 751l-113 139h145l58 -139h-90z" />
    <glyph glyph-name="Ohungarumlaut" unicode="&#x150;" horiz-adv-x="881" 
d="M48 350c-3 218 170 363 393 360c224 2 395 -140 392 -360c0 -220 -165 -360 -392 -360c-223 -2 -396 142 -393 360zM433 99h16c144 0 260 95 260 251s-116 251 -260 251h-16c-142 0 -261 -95 -261 -251s119 -251 261 -251zM290 751l57 139h145l-113 -139h-89zM502 751
l58 139h145l-113 -139h-90z" />
    <glyph glyph-name="Omacron" unicode="&#x14c;" horiz-adv-x="881" 
d="M48 350c-3 218 170 363 393 360c224 2 395 -140 392 -360c0 -220 -165 -360 -392 -360c-223 -2 -396 142 -393 360zM433 99h16c144 0 260 95 260 251s-116 251 -260 251h-16c-142 0 -261 -95 -261 -251s119 -251 261 -251zM266 771v96h351v-96h-351z" />
    <glyph glyph-name="Oslash" unicode="&#xd8;" horiz-adv-x="892" 
d="M53 350c-3 218 170 363 393 360c224 2 395 -140 392 -360c0 -220 -165 -360 -392 -360c-223 -2 -396 142 -393 360zM438 99h16c144 0 260 95 260 251s-116 251 -260 251h-16c-142 0 -261 -95 -261 -251s119 -251 261 -251zM125 -42l-77 79l721 707l77 -80z" />
    <glyph glyph-name="Oslashacute" unicode="&#x1fe;" horiz-adv-x="892" 
d="M53 350c-3 218 170 363 393 360c224 2 395 -140 392 -360c0 -220 -165 -360 -392 -360c-223 -2 -396 142 -393 360zM438 99h16c144 0 260 95 260 251s-116 251 -260 251h-16c-142 0 -261 -95 -261 -251s119 -251 261 -251zM125 -42l-77 79l721 707l77 -80zM400 751
l58 139h145l-114 -139h-89z" />
    <glyph glyph-name="Otilde" unicode="&#xd5;" horiz-adv-x="881" 
d="M48 350c-3 218 170 363 393 360c224 2 395 -140 392 -360c0 -220 -165 -360 -392 -360c-223 -2 -396 142 -393 360zM433 99h16c144 0 260 95 260 251s-116 251 -260 251h-16c-142 0 -261 -95 -261 -251s119 -251 261 -251zM447 777l-35 15c-5 1 -8 4 -11 5
c-19 8 -29 12 -42 12c-27 0 -42 -19 -42 -48h-91v27c0 60 53 110 118 110c36 0 52 -7 91 -23l34 -15c9 -6 44 -19 55 -19c27 0 41 18 41 47h91v-27c0 -60 -43 -110 -111 -110c-35 0 -58 7 -98 26z" />
    <glyph glyph-name="OE" unicode="&#x152;" horiz-adv-x="1386" 
d="M48 350c-3 218 170 363 393 360c120 0 215 -38 278 -107v97h610v-109h-490v-176h430v-109h-430v-197h500v-109h-620v101c-63 -72 -158 -111 -278 -111c-223 -2 -396 142 -393 360zM433 99h16c144 0 263 95 263 251s-119 251 -263 251h-16c-142 0 -261 -95 -261 -251
s119 -251 261 -251z" />
    <glyph glyph-name="P" unicode="P" horiz-adv-x="744" 
d="M92 0v700h367c146 0 252 -85 252 -217c0 -142 -105 -219 -252 -219h-244v-264h-123zM215 373h229c95 0 143 38 143 109s-48 109 -143 109h-229v-218z" />
    <glyph glyph-name="Thorn" unicode="&#xde;" horiz-adv-x="756" 
d="M92 0v700h123v-129h244c147 0 251 -84 251 -221c0 -141 -104 -222 -251 -222h-244v-128h-123zM215 238h229c95 0 143 39 143 112c0 72 -48 111 -143 111h-229v-223z" />
    <glyph glyph-name="Q" unicode="Q" horiz-adv-x="881" 
d="M380 -105v98c-194 20 -332 155 -332 357c-3 218 170 363 393 360c224 2 395 -140 392 -360c0 -205 -139 -342 -337 -358v-49c0 -27 9 -35 34 -35h195v-104h-249c-57 0 -93 34 -96 91zM433 99h16c144 0 260 95 260 251s-116 251 -260 251h-16c-142 0 -261 -95 -261 -251
s119 -251 261 -251z" />
    <glyph glyph-name="R" unicode="R" horiz-adv-x="785" 
d="M92 0v700h386c137 0 235 -81 235 -191c0 -86 -53 -151 -112 -171c71 0 98 -31 98 -103v-235h-123v207c0 51 -14 64 -65 64h-296v-271h-123zM215 380h248c76 0 120 42 120 107c0 64 -44 104 -120 104h-248v-211z" />
    <glyph glyph-name="Racute" unicode="&#x154;" horiz-adv-x="785" 
d="M92 0v700h386c137 0 235 -81 235 -191c0 -86 -53 -151 -112 -171c71 0 98 -31 98 -103v-235h-123v207c0 51 -14 64 -65 64h-296v-271h-123zM215 380h248c76 0 120 42 120 107c0 64 -44 104 -120 104h-248v-211zM337 751l58 139h145l-114 -139h-89z" />
    <glyph glyph-name="Rcaron" unicode="&#x158;" horiz-adv-x="785" 
d="M92 0v700h386c137 0 235 -81 235 -191c0 -86 -53 -151 -112 -171c71 0 98 -31 98 -103v-235h-123v207c0 51 -14 64 -65 64h-296v-271h-123zM215 380h248c76 0 120 42 120 107c0 64 -44 104 -120 104h-248v-211zM312 751l-135 139h106l99 -64l98 64h106l-135 -139h-139z
" />
    <glyph glyph-name="uni0156" unicode="&#x156;" horiz-adv-x="785" 
d="M92 0v700h386c137 0 235 -81 235 -191c0 -86 -53 -151 -112 -171c71 0 98 -31 98 -103v-235h-123v207c0 51 -14 64 -65 64h-296v-271h-123zM215 380h248c76 0 120 42 120 107c0 64 -44 104 -120 104h-248v-211zM304 -304v65h35c35 0 52 13 52 40v2h-63v125h132v-127
c0 -61 -47 -105 -116 -105h-40z" />
    <glyph glyph-name="S" unicode="S" horiz-adv-x="731" 
d="M36 231h130c3 -87 76 -132 197 -132h16c116 0 170 35 170 92c0 49 -40 78 -139 95l-109 17c-159 28 -226 80 -226 204c0 109 95 203 292 203c191 0 306 -87 320 -226h-130c-11 75 -77 117 -182 117h-16c-102 0 -160 -38 -160 -88c0 -51 36 -76 121 -91l112 -17
c161 -27 241 -96 241 -208c0 -133 -106 -207 -301 -207c-207 0 -334 82 -336 241z" />
    <glyph glyph-name="Sacute" unicode="&#x15a;" horiz-adv-x="731" 
d="M36 231h130c3 -87 76 -132 197 -132h16c116 0 170 35 170 92c0 49 -40 78 -139 95l-109 17c-159 28 -226 80 -226 204c0 109 95 203 292 203c191 0 306 -87 320 -226h-130c-11 75 -77 117 -182 117h-16c-102 0 -160 -38 -160 -88c0 -51 36 -76 121 -91l112 -17
c161 -27 241 -96 241 -208c0 -133 -106 -207 -301 -207c-207 0 -334 82 -336 241zM324 751l58 139h145l-114 -139h-89z" />
    <glyph glyph-name="Scaron" unicode="&#x160;" horiz-adv-x="731" 
d="M36 231h130c3 -87 76 -132 197 -132h16c116 0 170 35 170 92c0 49 -40 78 -139 95l-109 17c-159 28 -226 80 -226 204c0 109 95 203 292 203c191 0 306 -87 320 -226h-130c-11 75 -77 117 -182 117h-16c-102 0 -160 -38 -160 -88c0 -51 36 -76 121 -91l112 -17
c161 -27 241 -96 241 -208c0 -133 -106 -207 -301 -207c-207 0 -334 82 -336 241zM298 751l-135 139h106l99 -64l98 64h106l-135 -139h-139z" />
    <glyph glyph-name="Scedilla" unicode="&#x15e;" horiz-adv-x="731" 
d="M36 231h130c3 -87 76 -132 197 -132h16c116 0 170 35 170 92c0 49 -40 78 -139 95l-109 17c-159 28 -226 80 -226 204c0 109 95 203 292 203c191 0 306 -87 320 -226h-130c-11 75 -77 117 -182 117h-16c-102 0 -160 -38 -160 -88c0 -51 36 -76 121 -91l112 -17
c161 -27 241 -96 241 -208c0 -133 -106 -207 -301 -207c-207 0 -334 82 -336 241zM288 -241v72h86c32 0 49 11 49 32c0 19 -16 33 -44 33h-46v119h65v-60c56 -1 99 -36 99 -93c0 -65 -54 -103 -126 -103h-83z" />
    <glyph glyph-name="Scircumflex" unicode="&#x15c;" horiz-adv-x="731" 
d="M36 231h130c3 -87 76 -132 197 -132h16c116 0 170 35 170 92c0 49 -40 78 -139 95l-109 17c-159 28 -226 80 -226 204c0 109 95 203 292 203c191 0 306 -87 320 -226h-130c-11 75 -77 117 -182 117h-16c-102 0 -160 -38 -160 -88c0 -51 36 -76 121 -91l112 -17
c161 -27 241 -96 241 -208c0 -133 -106 -207 -301 -207c-207 0 -334 82 -336 241zM163 751l135 139h139l135 -139h-106l-98 64l-99 -64h-106z" />
    <glyph glyph-name="uni0218" unicode="&#x218;" horiz-adv-x="731" 
d="M36 231h130c3 -87 76 -132 197 -132h16c116 0 170 35 170 92c0 49 -40 78 -139 95l-109 17c-159 28 -226 80 -226 204c0 109 95 203 292 203c191 0 306 -87 320 -226h-130c-11 75 -77 117 -182 117h-16c-102 0 -160 -38 -160 -88c0 -51 36 -76 121 -91l112 -17
c161 -27 241 -96 241 -208c0 -133 -106 -207 -301 -207c-207 0 -334 82 -336 241zM273 -304v65h35c35 0 52 13 52 40v2h-63v125h132v-127c0 -61 -47 -105 -116 -105h-40z" />
    <glyph glyph-name="uni1E9E" unicode="&#x1e9e;" horiz-adv-x="771" 
d="M720 196c0 -123 -98 -196 -222 -196h-190v109h170c73 0 118 35 118 96s-45 95 -118 95h-170v110h135c68 0 108 34 108 91c0 55 -41 90 -108 90h-228v-591h-123v700h366c124 0 217 -72 217 -185c0 -67 -36 -121 -88 -149c76 -16 133 -85 133 -170z" />
    <glyph glyph-name="T" unicode="T" horiz-adv-x="732" 
d="M305 0v591h-286v109h694v-109h-285v-591h-123z" />
    <glyph glyph-name="Tbar" unicode="&#x166;" horiz-adv-x="764" 
d="M321 0v591h-286v109h694v-109h-285v-591h-123zM99 327v105h566v-105h-566z" />
    <glyph glyph-name="Tcaron" unicode="&#x164;" horiz-adv-x="732" 
d="M305 0v591h-286v109h694v-109h-285v-591h-123zM296 751l-135 139h106l99 -64l98 64h106l-135 -139h-139z" />
    <glyph glyph-name="uni0162" unicode="&#x162;" horiz-adv-x="732" 
d="M305 0v591h-286v109h694v-109h-285v-591h-123zM289 -241v72h86c32 0 49 11 49 32c0 19 -16 33 -44 33h-46v119h65v-60c56 -1 99 -36 99 -93c0 -65 -54 -103 -126 -103h-83z" />
    <glyph glyph-name="uni021A" unicode="&#x21a;" horiz-adv-x="732" 
d="M305 0v591h-286v109h694v-109h-285v-591h-123zM274 -304v65h35c35 0 52 13 52 40v2h-63v125h132v-127c0 -61 -47 -105 -116 -105h-40z" />
    <glyph glyph-name="U" unicode="U" horiz-adv-x="796" 
d="M84 276v424h124v-416c0 -120 63 -185 182 -185h16c119 0 183 65 183 185v416h123v-424c0 -175 -110 -286 -314 -286c-208 0 -314 110 -314 286z" />
    <glyph glyph-name="Uacute" unicode="&#xda;" horiz-adv-x="796" 
d="M84 276v424h124v-416c0 -120 63 -185 182 -185h16c119 0 183 65 183 185v416h123v-424c0 -175 -110 -286 -314 -286c-208 0 -314 110 -314 286zM354 751l58 139h145l-114 -139h-89z" />
    <glyph glyph-name="Ubreve" unicode="&#x16c;" horiz-adv-x="796" 
d="M84 276v424h124v-416c0 -120 63 -185 182 -185h16c119 0 183 65 183 185v416h123v-424c0 -175 -110 -286 -314 -286c-208 0 -314 110 -314 286zM217 897h97c5 -37 34 -61 85 -61c49 0 79 24 84 61h98c-2 -85 -72 -146 -182 -146s-180 61 -182 146z" />
    <glyph glyph-name="Ucircumflex" unicode="&#xdb;" horiz-adv-x="796" 
d="M84 276v424h124v-416c0 -120 63 -185 182 -185h16c119 0 183 65 183 185v416h123v-424c0 -175 -110 -286 -314 -286c-208 0 -314 110 -314 286zM193 751l135 139h139l135 -139h-106l-98 64l-99 -64h-106z" />
    <glyph glyph-name="Udieresis" unicode="&#xdc;" horiz-adv-x="796" 
d="M84 276v424h124v-416c0 -120 63 -185 182 -185h16c119 0 183 65 183 185v416h123v-424c0 -175 -110 -286 -314 -286c-208 0 -314 110 -314 286zM223 771v113h123v-113h-123zM450 771v113h123v-113h-123z" />
    <glyph glyph-name="uni1EE4" unicode="&#x1ee4;" horiz-adv-x="796" 
d="M84 276v424h124v-416c0 -120 63 -185 182 -185h16c119 0 183 65 183 185v416h123v-424c0 -175 -110 -286 -314 -286c-208 0 -314 110 -314 286zM331 -195v124h135v-124h-135z" />
    <glyph glyph-name="Ugrave" unicode="&#xd9;" horiz-adv-x="796" 
d="M84 276v424h124v-416c0 -120 63 -185 182 -185h16c119 0 183 65 183 185v416h123v-424c0 -175 -110 -286 -314 -286c-208 0 -314 110 -314 286zM353 751l-113 139h145l58 -139h-90z" />
    <glyph glyph-name="Uhungarumlaut" unicode="&#x170;" horiz-adv-x="796" 
d="M84 276v424h124v-416c0 -120 63 -185 182 -185h16c119 0 183 65 183 185v416h123v-424c0 -175 -110 -286 -314 -286c-208 0 -314 110 -314 286zM247 751l57 139h145l-113 -139h-89zM459 751l58 139h145l-113 -139h-90z" />
    <glyph glyph-name="Umacron" unicode="&#x16a;" horiz-adv-x="796" 
d="M84 276v424h124v-416c0 -120 63 -185 182 -185h16c119 0 183 65 183 185v416h123v-424c0 -175 -110 -286 -314 -286c-208 0 -314 110 -314 286zM223 771v96h351v-96h-351z" />
    <glyph glyph-name="Uogonek" unicode="&#x172;" horiz-adv-x="796" 
d="M84 276v424h124v-416c0 -120 63 -185 182 -185h16c119 0 183 65 183 185v416h123v-424c0 -175 -110 -286 -314 -286c-208 0 -314 110 -314 286zM328 -120c0 64 54 109 113 133l57 -13c-53 -29 -88 -58 -88 -94c0 -31 27 -44 63 -44h36v-75h-56c-75 0 -125 40 -125 93z
" />
    <glyph glyph-name="Uring" unicode="&#x16e;" horiz-adv-x="796" 
d="M84 276v424h124v-416c0 -120 63 -185 182 -185h16c119 0 183 65 183 185v416h123v-424c0 -175 -110 -286 -314 -286c-208 0 -314 110 -314 286zM279 854c0 54 52 102 119 102c66 0 120 -48 120 -102c0 -59 -52 -103 -120 -103s-119 44 -119 103zM448 854
c0 21 -21 39 -50 39s-50 -18 -50 -39c0 -23 21 -40 50 -40s50 17 50 40z" />
    <glyph glyph-name="Utilde" unicode="&#x168;" horiz-adv-x="796" 
d="M84 276v424h124v-416c0 -120 63 -185 182 -185h16c119 0 183 65 183 185v416h123v-424c0 -175 -110 -286 -314 -286c-208 0 -314 110 -314 286zM404 777l-35 15c-5 1 -8 4 -11 5c-19 8 -29 12 -42 12c-27 0 -42 -19 -42 -48h-91v27c0 60 53 110 118 110
c36 0 52 -7 91 -23l34 -15c9 -6 44 -19 55 -19c27 0 41 18 41 47h91v-27c0 -60 -43 -110 -111 -110c-35 0 -58 7 -98 26z" />
    <glyph glyph-name="V" unicode="V" horiz-adv-x="809" 
d="M671 700h136l-328 -700h-150l-328 700h138l267 -579z" />
    <glyph glyph-name="W" unicode="W" horiz-adv-x="1065" 
d="M922 700h128l-207 -700h-156l-154 548l-158 -548h-157l-199 700h127l154 -549l158 549h158l153 -554z" />
    <glyph glyph-name="Wacute" unicode="&#x1e82;" horiz-adv-x="1065" 
d="M922 700h128l-207 -700h-156l-154 548l-158 -548h-157l-199 700h127l154 -549l158 549h158l153 -554zM489 751l58 139h145l-114 -139h-89z" />
    <glyph glyph-name="Wcircumflex" unicode="&#x174;" horiz-adv-x="1065" 
d="M922 700h128l-207 -700h-156l-154 548l-158 -548h-157l-199 700h127l154 -549l158 549h158l153 -554zM329 751l135 139h139l135 -139h-106l-98 64l-99 -64h-106z" />
    <glyph glyph-name="Wdieresis" unicode="&#x1e84;" horiz-adv-x="1065" 
d="M922 700h128l-207 -700h-156l-154 548l-158 -548h-157l-199 700h127l154 -549l158 549h158l153 -554zM359 771v113h123v-113h-123zM586 771v113h123v-113h-123z" />
    <glyph glyph-name="Wgrave" unicode="&#x1e80;" horiz-adv-x="1065" 
d="M922 700h128l-207 -700h-156l-154 548l-158 -548h-157l-199 700h127l154 -549l158 549h158l153 -554zM489 751l-113 139h145l58 -139h-90z" />
    <glyph glyph-name="X" unicode="X" horiz-adv-x="738" 
d="M734 0h-150l-216 267l-218 -267h-148l292 358l-277 342h150l203 -250l205 250h148l-280 -341z" />
    <glyph glyph-name="Y" unicode="Y" horiz-adv-x="723" 
d="M571 700h143l-291 -399v-301h-123v300l-291 400h144l210 -294z" />
    <glyph glyph-name="Yacute" unicode="&#xdd;" horiz-adv-x="723" 
d="M571 700h143l-291 -399v-301h-123v300l-291 400h144l210 -294zM318 751l58 139h145l-114 -139h-89z" />
    <glyph glyph-name="Ycircumflex" unicode="&#x176;" horiz-adv-x="723" 
d="M571 700h143l-291 -399v-301h-123v300l-291 400h144l210 -294zM158 751l135 139h139l135 -139h-106l-98 64l-99 -64h-106z" />
    <glyph glyph-name="Ydieresis" unicode="&#x178;" horiz-adv-x="723" 
d="M571 700h143l-291 -399v-301h-123v300l-291 400h144l210 -294zM188 771v113h123v-113h-123zM415 771v113h123v-113h-123z" />
    <glyph glyph-name="Ygrave" unicode="&#x1ef2;" horiz-adv-x="723" 
d="M571 700h143l-291 -399v-301h-123v300l-291 400h144l210 -294zM318 751l-113 139h145l58 -139h-90z" />
    <glyph glyph-name="uni0232" unicode="&#x232;" horiz-adv-x="723" 
d="M571 700h143l-291 -399v-301h-123v300l-291 400h144l210 -294zM187 771v96h351v-96h-351z" />
    <glyph glyph-name="Z" unicode="Z" horiz-adv-x="713" 
d="M207 109h463v-109h-627v108l454 483h-443v109h606v-108z" />
    <glyph glyph-name="Zacute" unicode="&#x179;" horiz-adv-x="713" 
d="M207 109h463v-109h-627v108l454 483h-443v109h606v-108zM313 751l58 139h145l-114 -139h-89z" />
    <glyph glyph-name="Zcaron" unicode="&#x17d;" horiz-adv-x="713" 
d="M207 109h463v-109h-627v108l454 483h-443v109h606v-108zM287 751l-135 139h106l99 -64l98 64h106l-135 -139h-139z" />
    <glyph glyph-name="Zdotaccent" unicode="&#x17b;" horiz-adv-x="713" 
d="M207 109h463v-109h-627v108l454 483h-443v109h606v-108zM290 768v128h134v-128h-134z" />
    <glyph glyph-name="G.ss02" horiz-adv-x="854" 
d="M48 350c0 210 156 360 393 360c218 0 341 -105 351 -246h-130c-12 87 -86 137 -213 137h-16c-152 0 -261 -94 -261 -251s109 -251 276 -251h10c145 0 216 62 216 143v11h-227v110h351v-108c0 -169 -128 -265 -346 -265c-249 0 -404 150 -404 360z" />
    <glyph glyph-name="Gbreve.ss02" horiz-adv-x="854" 
d="M48 350c0 210 156 360 393 360c218 0 341 -105 351 -246h-130c-12 87 -86 137 -213 137h-16c-152 0 -261 -94 -261 -251s109 -251 276 -251h10c145 0 216 62 216 143v11h-227v110h351v-108c0 -169 -128 -265 -346 -265c-249 0 -404 150 -404 360zM270 897h97
c5 -37 34 -61 85 -61c49 0 79 24 84 61h98c-2 -85 -72 -146 -182 -146s-180 61 -182 146z" />
    <glyph glyph-name="Gcircumflex.ss02" horiz-adv-x="854" 
d="M48 350c0 210 156 360 393 360c218 0 341 -105 351 -246h-130c-12 87 -86 137 -213 137h-16c-152 0 -261 -94 -261 -251s109 -251 276 -251h10c145 0 216 62 216 143v11h-227v110h351v-108c0 -169 -128 -265 -346 -265c-249 0 -404 150 -404 360zM247 751l135 139h139
l135 -139h-106l-98 64l-99 -64h-106z" />
    <glyph glyph-name="uni0122.ss02" horiz-adv-x="854" 
d="M48 350c0 210 156 360 393 360c218 0 341 -105 351 -246h-130c-12 87 -86 137 -213 137h-16c-152 0 -261 -94 -261 -251s109 -251 276 -251h10c145 0 216 62 216 143v11h-227v110h351v-108c0 -169 -128 -265 -346 -265c-249 0 -404 150 -404 360zM360 -304v65h35
c35 0 52 13 52 40v2h-63v125h132v-127c0 -61 -47 -105 -116 -105h-40z" />
    <glyph glyph-name="Gdotaccent.ss02" horiz-adv-x="854" 
d="M48 350c0 210 156 360 393 360c218 0 341 -105 351 -246h-130c-12 87 -86 137 -213 137h-16c-152 0 -261 -94 -261 -251s109 -251 276 -251h10c145 0 216 62 216 143v11h-227v110h351v-108c0 -169 -128 -265 -346 -265c-249 0 -404 150 -404 360zM385 768v128h134v-128
h-134z" />
    <glyph glyph-name="R.ss02" horiz-adv-x="807" 
d="M92 0v700h399c135 0 230 -81 230 -190c0 -96 -63 -161 -131 -177c72 -6 77 -20 107 -98l82 -235h-130l-71 207c-21 52 -28 61 -80 61h-283v-268h-123zM215 377h261c75 0 121 48 121 112c0 63 -45 102 -121 102h-261v-214z" />
    <glyph glyph-name="Racute.ss02" horiz-adv-x="807" 
d="M92 0v700h399c135 0 230 -81 230 -190c0 -96 -63 -161 -131 -177c72 -6 77 -20 107 -98l82 -235h-130l-71 207c-21 52 -28 61 -80 61h-283v-268h-123zM215 377h261c75 0 121 48 121 112c0 63 -45 102 -121 102h-261v-214zM351 751l58 139h145l-114 -139h-89z" />
    <glyph glyph-name="Rcaron.ss02" horiz-adv-x="807" 
d="M92 0v700h399c135 0 230 -81 230 -190c0 -96 -63 -161 -131 -177c72 -6 77 -20 107 -98l82 -235h-130l-71 207c-21 52 -28 61 -80 61h-283v-268h-123zM215 377h261c75 0 121 48 121 112c0 63 -45 102 -121 102h-261v-214zM325 751l-135 139h106l99 -64l98 64h106
l-135 -139h-139z" />
    <glyph glyph-name="uni0156.ss02" horiz-adv-x="807" 
d="M92 0v700h399c135 0 230 -81 230 -190c0 -96 -63 -161 -131 -177c72 -6 77 -20 107 -98l82 -235h-130l-71 207c-21 52 -28 61 -80 61h-283v-268h-123zM215 377h261c75 0 121 48 121 112c0 63 -45 102 -121 102h-261v-214zM341 -304v65h35c35 0 52 13 52 40v2h-63v125h132
v-127c0 -61 -47 -105 -116 -105h-40z" />
    <glyph glyph-name="a" unicode="a" horiz-adv-x="607" 
d="M40 138c0 105 79 155 204 163l178 11v14c0 57 -46 88 -123 88h-16c-60 0 -102 -25 -109 -65h-120c10 93 104 161 237 161c157 0 246 -78 246 -190v-210c0 -32 2 -69 7 -110h-110c-2 11 -4 25 -5 43c-1 19 -2 31 -2 36c-24 -46 -94 -89 -183 -89c-131 0 -204 62 -204 148z
M253 86h15c77 0 154 35 154 104v35l-147 -9c-83 -7 -116 -29 -116 -69c0 -41 31 -61 94 -61z" />
    <glyph glyph-name="aacute" unicode="&#xe1;" horiz-adv-x="607" 
d="M40 138c0 105 79 155 204 163l178 11v14c0 57 -46 88 -123 88h-16c-60 0 -102 -25 -109 -65h-120c10 93 104 161 237 161c157 0 246 -78 246 -190v-210c0 -32 2 -69 7 -110h-110c-2 11 -4 25 -5 43c-1 19 -2 31 -2 36c-24 -46 -94 -89 -183 -89c-131 0 -204 62 -204 148z
M253 86h15c77 0 154 35 154 104v35l-147 -9c-83 -7 -116 -29 -116 -69c0 -41 31 -61 94 -61zM251 557l66 144h133l-111 -144h-88z" />
    <glyph glyph-name="abreve" unicode="&#x103;" horiz-adv-x="607" 
d="M40 138c0 105 79 155 204 163l178 11v14c0 57 -46 88 -123 88h-16c-60 0 -102 -25 -109 -65h-120c10 93 104 161 237 161c157 0 246 -78 246 -190v-210c0 -32 2 -69 7 -110h-110c-2 11 -4 25 -5 43c-1 19 -2 31 -2 36c-24 -46 -94 -89 -183 -89c-131 0 -204 62 -204 148z
M253 86h15c77 0 154 35 154 104v35l-147 -9c-83 -7 -116 -29 -116 -69c0 -41 31 -61 94 -61zM113 708h96c4 -41 31 -67 86 -67s81 26 85 67h97c-2 -89 -73 -151 -182 -151s-180 62 -182 151z" />
    <glyph glyph-name="acircumflex" unicode="&#xe2;" horiz-adv-x="607" 
d="M40 138c0 105 79 155 204 163l178 11v14c0 57 -46 88 -123 88h-16c-60 0 -102 -25 -109 -65h-120c10 93 104 161 237 161c157 0 246 -78 246 -190v-210c0 -32 2 -69 7 -110h-110c-2 11 -4 25 -5 43c-1 19 -2 31 -2 36c-24 -46 -94 -89 -183 -89c-131 0 -204 62 -204 148z
M253 86h15c77 0 154 35 154 104v35l-147 -9c-83 -7 -116 -29 -116 -69c0 -41 31 -61 94 -61zM85 557l148 144h123l149 -144h-100l-109 72l-112 -72h-99z" />
    <glyph glyph-name="adieresis" unicode="&#xe4;" horiz-adv-x="607" 
d="M40 138c0 105 79 155 204 163l178 11v14c0 57 -46 88 -123 88h-16c-60 0 -102 -25 -109 -65h-120c10 93 104 161 237 161c157 0 246 -78 246 -190v-210c0 -32 2 -69 7 -110h-110c-2 11 -4 25 -5 43c-1 19 -2 31 -2 36c-24 -46 -94 -89 -183 -89c-131 0 -204 62 -204 148z
M253 86h15c77 0 154 35 154 104v35l-147 -9c-83 -7 -116 -29 -116 -69c0 -41 31 -61 94 -61zM123 575v120h125v-120h-125zM341 575v120h125v-120h-125z" />
    <glyph glyph-name="uni0227" unicode="&#x227;" horiz-adv-x="607" 
d="M40 138c0 105 79 155 204 163l178 11v14c0 57 -46 88 -123 88h-16c-60 0 -102 -25 -109 -65h-120c10 93 104 161 237 161c157 0 246 -78 246 -190v-210c0 -32 2 -69 7 -110h-110c-2 11 -4 25 -5 43c-1 19 -2 31 -2 36c-24 -46 -94 -89 -183 -89c-131 0 -204 62 -204 148z
M253 86h15c77 0 154 35 154 104v35l-147 -9c-83 -7 -116 -29 -116 -69c0 -41 31 -61 94 -61zM230 573v127h129v-127h-129z" />
    <glyph glyph-name="uni1EA1" unicode="&#x1ea1;" horiz-adv-x="607" 
d="M40 138c0 105 79 155 204 163l178 11v14c0 57 -46 88 -123 88h-16c-60 0 -102 -25 -109 -65h-120c10 93 104 161 237 161c157 0 246 -78 246 -190v-210c0 -32 2 -69 7 -110h-110c-2 11 -4 25 -5 43c-1 19 -2 31 -2 36c-24 -46 -94 -89 -183 -89c-131 0 -204 62 -204 148z
M253 86h15c77 0 154 35 154 104v35l-147 -9c-83 -7 -116 -29 -116 -69c0 -41 31 -61 94 -61zM223 -195v124h135v-124h-135z" />
    <glyph glyph-name="agrave" unicode="&#xe0;" horiz-adv-x="607" 
d="M40 138c0 105 79 155 204 163l178 11v14c0 57 -46 88 -123 88h-16c-60 0 -102 -25 -109 -65h-120c10 93 104 161 237 161c157 0 246 -78 246 -190v-210c0 -32 2 -69 7 -110h-110c-2 11 -4 25 -5 43c-1 19 -2 31 -2 36c-24 -46 -94 -89 -183 -89c-131 0 -204 62 -204 148z
M253 86h15c77 0 154 35 154 104v35l-147 -9c-83 -7 -116 -29 -116 -69c0 -41 31 -61 94 -61zM253 557l-112 144h134l65 -144h-87z" />
    <glyph glyph-name="amacron" unicode="&#x101;" horiz-adv-x="607" 
d="M40 138c0 105 79 155 204 163l178 11v14c0 57 -46 88 -123 88h-16c-60 0 -102 -25 -109 -65h-120c10 93 104 161 237 161c157 0 246 -78 246 -190v-210c0 -32 2 -69 7 -110h-110c-2 11 -4 25 -5 43c-1 19 -2 31 -2 36c-24 -46 -94 -89 -183 -89c-131 0 -204 62 -204 148z
M253 86h15c77 0 154 35 154 104v35l-147 -9c-83 -7 -116 -29 -116 -69c0 -41 31 -61 94 -61zM123 575v93h343v-93h-343z" />
    <glyph glyph-name="aogonek" unicode="&#x105;" horiz-adv-x="607" 
d="M40 138c0 105 79 155 204 163l178 11v14c0 57 -46 88 -123 88h-16c-60 0 -102 -25 -109 -65h-120c10 93 104 161 237 161c157 0 246 -78 246 -190v-210c0 -32 2 -69 7 -110h-110c-2 11 -4 25 -5 43c-1 19 -2 31 -2 36c-24 -46 -94 -89 -183 -89c-131 0 -204 62 -204 148z
M253 86h15c77 0 154 35 154 104v35l-147 -9c-83 -7 -116 -29 -116 -69c0 -41 31 -61 94 -61zM373 -120c0 64 54 109 113 133l57 -13c-53 -29 -88 -58 -88 -94c0 -31 27 -44 63 -44h36v-75h-56c-75 0 -125 40 -125 93z" />
    <glyph glyph-name="aring" unicode="&#xe5;" horiz-adv-x="607" 
d="M40 138c0 105 79 155 204 163l178 11v14c0 57 -46 88 -123 88h-16c-60 0 -102 -25 -109 -65h-120c10 93 104 161 237 161c157 0 246 -78 246 -190v-210c0 -32 2 -69 7 -110h-110c-2 11 -4 25 -5 43c-1 19 -2 31 -2 36c-24 -46 -94 -89 -183 -89c-131 0 -204 62 -204 148z
M253 86h15c77 0 154 35 154 104v35l-147 -9c-83 -7 -116 -29 -116 -69c0 -41 31 -61 94 -61zM174 662c0 56 51 105 120 105s120 -49 120 -105c0 -61 -50 -105 -120 -105s-120 44 -120 105zM345 662c0 23 -19 41 -50 41c-29 0 -51 -18 -51 -41s22 -41 51 -41
c31 0 50 18 50 41z" />
    <glyph glyph-name="aringacute" unicode="&#x1fb;" horiz-adv-x="607" 
d="M40 138c0 105 79 155 204 163l178 11v14c0 57 -46 88 -123 88h-16c-60 0 -102 -25 -109 -65h-120c10 93 104 161 237 161c157 0 246 -78 246 -190v-210c0 -32 2 -69 7 -110h-110c-2 11 -4 25 -5 43c-1 19 -2 31 -2 36c-24 -46 -94 -89 -183 -89c-131 0 -204 62 -204 148z
M253 86h15c77 0 154 35 154 104v35l-147 -9c-83 -7 -116 -29 -116 -69c0 -41 31 -61 94 -61zM258 794l49 128h132l-105 -128h-76zM174 662c0 56 51 105 120 105s120 -49 120 -105c0 -61 -50 -105 -120 -105s-120 44 -120 105zM345 662c0 23 -19 41 -50 41
c-29 0 -51 -18 -51 -41s22 -41 51 -41c31 0 50 18 50 41z" />
    <glyph glyph-name="atilde" unicode="&#xe3;" horiz-adv-x="607" 
d="M40 138c0 105 79 155 204 163l178 11v14c0 57 -46 88 -123 88h-16c-60 0 -102 -25 -109 -65h-120c10 93 104 161 237 161c157 0 246 -78 246 -190v-210c0 -32 2 -69 7 -110h-110c-2 11 -4 25 -5 43c-1 19 -2 31 -2 36c-24 -46 -94 -89 -183 -89c-131 0 -204 62 -204 148z
M253 86h15c77 0 154 35 154 104v35l-147 -9c-83 -7 -116 -29 -116 -69c0 -41 31 -61 94 -61zM299 583l-34 15c-14 5 -40 17 -53 17c-24 0 -36 -19 -36 -48h-89v27c0 60 50 111 110 111c32 0 49 -6 80 -19l11 -5l33 -14l11 -5c21 -9 34 -15 46 -15c23 0 35 19 35 48h88v-27
c0 -61 -39 -111 -106 -111c-31 0 -52 7 -96 26z" />
    <glyph glyph-name="ae" unicode="&#xe6;" horiz-adv-x="1018" 
d="M40 138c0 104 80 155 203 163l178 11v14c0 57 -44 88 -121 88h-16c-59 0 -104 -25 -111 -65h-120c10 93 106 161 239 161c103 0 172 -32 208 -88c52 57 133 88 214 88c160 0 258 -99 258 -241v-50h-413c12 -87 79 -133 152 -133h14c61 0 107 25 123 68h119
c-20 -102 -119 -164 -248 -164c-99 0 -183 35 -232 100c-49 -67 -130 -100 -245 -100c-129 0 -202 62 -202 148zM562 310h287c-5 72 -57 104 -128 104h-14c-73 0 -126 -36 -145 -104zM253 86h14c76 0 154 35 154 108v32l-150 -11c-75 -5 -113 -28 -113 -67s31 -62 95 -62z
" />
    <glyph glyph-name="aeacute" unicode="&#x1fd;" horiz-adv-x="1018" 
d="M40 138c0 104 80 155 203 163l178 11v14c0 57 -44 88 -121 88h-16c-59 0 -104 -25 -111 -65h-120c10 93 106 161 239 161c103 0 172 -32 208 -88c52 57 133 88 214 88c160 0 258 -99 258 -241v-50h-413c12 -87 79 -133 152 -133h14c61 0 107 25 123 68h119
c-20 -102 -119 -164 -248 -164c-99 0 -183 35 -232 100c-49 -67 -130 -100 -245 -100c-129 0 -202 62 -202 148zM562 310h287c-5 72 -57 104 -128 104h-14c-73 0 -126 -36 -145 -104zM253 86h14c76 0 154 35 154 108v32l-150 -11c-75 -5 -113 -28 -113 -67s31 -62 95 -62z
M463 557l66 144h133l-111 -144h-88z" />
    <glyph glyph-name="uni01E3" unicode="&#x1e3;" horiz-adv-x="1018" 
d="M40 138c0 104 80 155 203 163l178 11v14c0 57 -44 88 -121 88h-16c-59 0 -104 -25 -111 -65h-120c10 93 106 161 239 161c103 0 172 -32 208 -88c52 57 133 88 214 88c160 0 258 -99 258 -241v-50h-413c12 -87 79 -133 152 -133h14c61 0 107 25 123 68h119
c-20 -102 -119 -164 -248 -164c-99 0 -183 35 -232 100c-49 -67 -130 -100 -245 -100c-129 0 -202 62 -202 148zM562 310h287c-5 72 -57 104 -128 104h-14c-73 0 -126 -36 -145 -104zM253 86h14c76 0 154 35 154 108v32l-150 -11c-75 -5 -113 -28 -113 -67s31 -62 95 -62z
M335 575v93h343v-93h-343z" />
    <glyph glyph-name="b" unicode="b" horiz-adv-x="690" 
d="M192 67v-67h-118v700h118v-270c35 47 104 80 191 80c150 0 264 -93 264 -260c0 -159 -113 -260 -267 -260c-79 0 -151 30 -188 77zM357 86h14c92 0 157 61 157 164s-65 164 -157 164h-14c-94 0 -165 -61 -165 -164s71 -164 165 -164z" />
    <glyph glyph-name="c" unicode="c" horiz-adv-x="621" 
d="M43 250c0 148 108 260 284 260c141 0 239 -70 255 -181h-120c-11 53 -60 85 -128 85h-14c-103 0 -157 -76 -157 -164s54 -164 157 -164h14c67 0 116 37 128 85h120c-16 -104 -116 -181 -255 -181c-186 0 -284 106 -284 260z" />
    <glyph glyph-name="cacute" unicode="&#x107;" horiz-adv-x="621" 
d="M43 250c0 148 108 260 284 260c141 0 239 -70 255 -181h-120c-11 53 -60 85 -128 85h-14c-103 0 -157 -76 -157 -164s54 -164 157 -164h14c67 0 116 37 128 85h120c-16 -104 -116 -181 -255 -181c-186 0 -284 106 -284 260zM283 557l66 144h133l-111 -144h-88z" />
    <glyph glyph-name="ccaron" unicode="&#x10d;" horiz-adv-x="621" 
d="M43 250c0 148 108 260 284 260c141 0 239 -70 255 -181h-120c-11 53 -60 85 -128 85h-14c-103 0 -157 -76 -157 -164s54 -164 157 -164h14c67 0 116 37 128 85h120c-16 -104 -116 -181 -255 -181c-186 0 -284 106 -284 260zM269 557l-149 144h100l108 -73l107 73h99
l-149 -144h-116z" />
    <glyph glyph-name="ccedilla" unicode="&#xe7;" horiz-adv-x="621" 
d="M43 250c0 148 108 260 284 260c141 0 239 -70 255 -181h-120c-11 53 -60 85 -128 85h-14c-103 0 -157 -76 -157 -164s54 -164 157 -164h14c67 0 116 37 128 85h120c-16 -104 -116 -181 -255 -181c-186 0 -284 106 -284 260zM237 -241v72h86c32 0 49 11 49 32
c0 19 -16 33 -44 33h-46v119h65v-60c56 -1 99 -36 99 -93c0 -65 -54 -103 -126 -103h-83z" />
    <glyph glyph-name="ccircumflex" unicode="&#x109;" horiz-adv-x="621" 
d="M43 250c0 148 108 260 284 260c141 0 239 -70 255 -181h-120c-11 53 -60 85 -128 85h-14c-103 0 -157 -76 -157 -164s54 -164 157 -164h14c67 0 116 37 128 85h120c-16 -104 -116 -181 -255 -181c-186 0 -284 106 -284 260zM118 557l148 144h123l149 -144h-100l-109 72
l-112 -72h-99z" />
    <glyph glyph-name="cdotaccent" unicode="&#x10b;" horiz-adv-x="621" 
d="M43 250c0 148 108 260 284 260c141 0 239 -70 255 -181h-120c-11 53 -60 85 -128 85h-14c-103 0 -157 -76 -157 -164s54 -164 157 -164h14c67 0 116 37 128 85h120c-16 -104 -116 -181 -255 -181c-186 0 -284 106 -284 260zM262 573v127h129v-127h-129z" />
    <glyph glyph-name="d" unicode="d" horiz-adv-x="690" 
d="M43 250c0 167 113 260 265 260c87 0 157 -33 190 -80v270h118v-700h-118v67c-36 -47 -109 -77 -188 -77c-153 0 -267 101 -267 260zM319 86h14c94 0 165 61 165 164s-71 164 -165 164h-14c-93 0 -156 -61 -156 -164s63 -164 156 -164z" />
    <glyph glyph-name="eth" unicode="&#xf0;" horiz-adv-x="679" 
d="M628 312c0 -212 -105 -322 -296 -322c-173 0 -289 101 -289 245c0 147 119 241 276 241c64 0 131 -20 176 -59c-16 55 -48 99 -95 131l-92 -54l-38 63l46 28c-37 11 -81 17 -130 17c-11 0 -20 0 -25 -1v99c103 1 190 -15 263 -50l119 72l38 -67l-84 -50
c87 -68 131 -169 131 -293zM502 233c0 97 -76 145 -166 145h-12c-90 0 -161 -48 -161 -146c0 -91 73 -145 161 -145h12c90 0 166 55 166 146z" />
    <glyph glyph-name="dcaron" unicode="&#x10f;" horiz-adv-x="803" 
d="M43 250c0 167 113 260 265 260c87 0 157 -33 190 -80v270h118v-700h-118v67c-36 -47 -109 -77 -188 -77c-153 0 -267 101 -267 260zM319 86h14c94 0 165 61 165 164s-71 164 -165 164h-14c-93 0 -156 -61 -156 -164s63 -164 156 -164zM672 468v65h34c35 0 53 13 53 40v2
h-63v125h132v-127c0 -61 -47 -105 -117 -105h-39z" />
    <glyph glyph-name="dcroat" unicode="&#x111;" horiz-adv-x="690" 
d="M43 250c0 167 113 260 265 260c87 0 157 -33 190 -80v270h118v-700h-118v67c-36 -47 -109 -77 -188 -77c-153 0 -267 101 -267 260zM319 86h14c94 0 165 61 165 164s-71 164 -165 164h-14c-93 0 -156 -61 -156 -164s63 -164 156 -164zM308 554v86h400v-86h-400z" />
    <glyph glyph-name="e" unicode="e" horiz-adv-x="624" 
d="M579 265v-46h-414c14 -87 78 -133 153 -133h14c61 0 105 25 121 68h120c-18 -100 -117 -164 -247 -164c-162 0 -283 92 -283 264c-3 161 139 258 278 256c162 0 258 -98 258 -245zM169 310h286c-4 71 -56 104 -127 104h-15c-76 0 -125 -39 -144 -104z" />
    <glyph glyph-name="eacute" unicode="&#xe9;" horiz-adv-x="624" 
d="M579 265v-46h-414c14 -87 78 -133 153 -133h14c61 0 105 25 121 68h120c-18 -100 -117 -164 -247 -164c-162 0 -283 92 -283 264c-3 161 139 258 278 256c162 0 258 -98 258 -245zM169 310h286c-4 71 -56 104 -127 104h-15c-76 0 -125 -39 -144 -104zM278 557l66 144h133
l-111 -144h-88z" />
    <glyph glyph-name="ebreve" unicode="&#x115;" horiz-adv-x="624" 
d="M579 265v-46h-414c14 -87 78 -133 153 -133h14c61 0 105 25 121 68h120c-18 -100 -117 -164 -247 -164c-162 0 -283 92 -283 264c-3 161 139 258 278 256c162 0 258 -98 258 -245zM169 310h286c-4 71 -56 104 -127 104h-15c-76 0 -125 -39 -144 -104zM140 708h96
c4 -41 31 -67 86 -67s81 26 85 67h97c-2 -89 -73 -151 -182 -151s-180 62 -182 151z" />
    <glyph glyph-name="ecaron" unicode="&#x11b;" horiz-adv-x="624" 
d="M579 265v-46h-414c14 -87 78 -133 153 -133h14c61 0 105 25 121 68h120c-18 -100 -117 -164 -247 -164c-162 0 -283 92 -283 264c-3 161 139 258 278 256c162 0 258 -98 258 -245zM169 310h286c-4 71 -56 104 -127 104h-15c-76 0 -125 -39 -144 -104zM264 557l-149 144
h100l108 -73l107 73h99l-149 -144h-116z" />
    <glyph glyph-name="ecircumflex" unicode="&#xea;" horiz-adv-x="624" 
d="M579 265v-46h-414c14 -87 78 -133 153 -133h14c61 0 105 25 121 68h120c-18 -100 -117 -164 -247 -164c-162 0 -283 92 -283 264c-3 161 139 258 278 256c162 0 258 -98 258 -245zM169 310h286c-4 71 -56 104 -127 104h-15c-76 0 -125 -39 -144 -104zM112 557l148 144
h123l149 -144h-100l-109 72l-112 -72h-99z" />
    <glyph glyph-name="edieresis" unicode="&#xeb;" horiz-adv-x="624" 
d="M579 265v-46h-414c14 -87 78 -133 153 -133h14c61 0 105 25 121 68h120c-18 -100 -117 -164 -247 -164c-162 0 -283 92 -283 264c-3 161 139 258 278 256c162 0 258 -98 258 -245zM169 310h286c-4 71 -56 104 -127 104h-15c-76 0 -125 -39 -144 -104zM150 575v120h125
v-120h-125zM368 575v120h125v-120h-125z" />
    <glyph glyph-name="edotaccent" unicode="&#x117;" horiz-adv-x="624" 
d="M579 265v-46h-414c14 -87 78 -133 153 -133h14c61 0 105 25 121 68h120c-18 -100 -117 -164 -247 -164c-162 0 -283 92 -283 264c-3 161 139 258 278 256c162 0 258 -98 258 -245zM169 310h286c-4 71 -56 104 -127 104h-15c-76 0 -125 -39 -144 -104zM258 573v127h129
v-127h-129z" />
    <glyph glyph-name="uni1EB9" unicode="&#x1eb9;" horiz-adv-x="624" 
d="M579 265v-46h-414c14 -87 78 -133 153 -133h14c61 0 105 25 121 68h120c-18 -100 -117 -164 -247 -164c-162 0 -283 92 -283 264c-3 161 139 258 278 256c162 0 258 -98 258 -245zM169 310h286c-4 71 -56 104 -127 104h-15c-76 0 -125 -39 -144 -104zM255 -195v124h135
v-124h-135z" />
    <glyph glyph-name="egrave" unicode="&#xe8;" horiz-adv-x="624" 
d="M579 265v-46h-414c14 -87 78 -133 153 -133h14c61 0 105 25 121 68h120c-18 -100 -117 -164 -247 -164c-162 0 -283 92 -283 264c-3 161 139 258 278 256c162 0 258 -98 258 -245zM169 310h286c-4 71 -56 104 -127 104h-15c-76 0 -125 -39 -144 -104zM280 557l-112 144
h134l65 -144h-87z" />
    <glyph glyph-name="emacron" unicode="&#x113;" horiz-adv-x="624" 
d="M579 265v-46h-414c14 -87 78 -133 153 -133h14c61 0 105 25 121 68h120c-18 -100 -117 -164 -247 -164c-162 0 -283 92 -283 264c-3 161 139 258 278 256c162 0 258 -98 258 -245zM169 310h286c-4 71 -56 104 -127 104h-15c-76 0 -125 -39 -144 -104zM150 575v93h343v-93
h-343z" />
    <glyph glyph-name="eogonek" unicode="&#x119;" horiz-adv-x="624" 
d="M579 265v-46h-414c14 -87 78 -133 153 -133h14c61 0 105 25 121 68h120c-18 -100 -117 -164 -247 -164c-162 0 -283 92 -283 264c-3 161 139 258 278 256c162 0 258 -98 258 -245zM169 310h286c-4 71 -56 104 -127 104h-15c-76 0 -125 -39 -144 -104zM240 -120
c0 64 54 109 113 133l57 -13c-53 -29 -88 -58 -88 -94c0 -31 27 -44 63 -44h36v-75h-56c-75 0 -125 40 -125 93z" />
    <glyph glyph-name="f" unicode="f" horiz-adv-x="440" 
d="M152 0v403h-131v97h131v89c0 71 40 111 116 111h179v-99h-135c-29 0 -42 -11 -42 -39v-62h147v-97h-147v-403h-118z" />
    <glyph glyph-name="g" unicode="g" horiz-adv-x="676" 
d="M30 -59h121c15 -41 71 -65 151 -65h14c96 0 168 50 168 147v56c-36 -45 -94 -79 -179 -79c-141 0 -262 84 -262 255c0 170 120 255 261 255c87 0 147 -34 180 -77v67h118v-489c0 -132 -104 -231 -293 -231c-168 0 -267 67 -279 161zM312 96h13c81 0 159 63 159 159
c0 97 -72 159 -154 159h-14c-85 0 -153 -50 -153 -159c0 -110 64 -159 149 -159z" />
    <glyph glyph-name="gbreve" unicode="&#x11f;" horiz-adv-x="676" 
d="M30 -59h121c15 -41 71 -65 151 -65h14c96 0 168 50 168 147v56c-36 -45 -94 -79 -179 -79c-141 0 -262 84 -262 255c0 170 120 255 261 255c87 0 147 -34 180 -77v67h118v-489c0 -132 -104 -231 -293 -231c-168 0 -267 67 -279 161zM312 96h13c81 0 159 63 159 159
c0 97 -72 159 -154 159h-14c-85 0 -153 -50 -153 -159c0 -110 64 -159 149 -159zM139 708h96c4 -41 31 -67 86 -67s81 26 85 67h97c-2 -89 -73 -151 -182 -151s-180 62 -182 151z" />
    <glyph glyph-name="gcircumflex" unicode="&#x11d;" horiz-adv-x="676" 
d="M30 -59h121c15 -41 71 -65 151 -65h14c96 0 168 50 168 147v56c-36 -45 -94 -79 -179 -79c-141 0 -262 84 -262 255c0 170 120 255 261 255c87 0 147 -34 180 -77v67h118v-489c0 -132 -104 -231 -293 -231c-168 0 -267 67 -279 161zM312 96h13c81 0 159 63 159 159
c0 97 -72 159 -154 159h-14c-85 0 -153 -50 -153 -159c0 -110 64 -159 149 -159zM111 557l148 144h123l149 -144h-100l-109 72l-112 -72h-99z" />
    <glyph glyph-name="uni0123" unicode="&#x123;" horiz-adv-x="676" 
d="M30 -59h121c15 -41 71 -65 151 -65h14c96 0 168 50 168 147v56c-36 -45 -94 -79 -179 -79c-141 0 -262 84 -262 255c0 170 120 255 261 255c87 0 147 -34 180 -77v67h118v-489c0 -132 -104 -231 -293 -231c-168 0 -267 67 -279 161zM312 96h13c81 0 159 63 159 159
c0 97 -72 159 -154 159h-14c-85 0 -153 -50 -153 -159c0 -110 64 -159 149 -159zM406 811v-65h-35c-35 0 -52 -13 -52 -40v-2h62v-125h-131v127c0 61 47 105 116 105h40z" />
    <glyph glyph-name="gdotaccent" unicode="&#x121;" horiz-adv-x="676" 
d="M30 -59h121c15 -41 71 -65 151 -65h14c96 0 168 50 168 147v56c-36 -45 -94 -79 -179 -79c-141 0 -262 84 -262 255c0 170 120 255 261 255c87 0 147 -34 180 -77v67h118v-489c0 -132 -104 -231 -293 -231c-168 0 -267 67 -279 161zM312 96h13c81 0 159 63 159 159
c0 97 -72 159 -154 159h-14c-85 0 -153 -50 -153 -159c0 -110 64 -159 149 -159zM257 573v127h129v-127h-129z" />
    <glyph glyph-name="h" unicode="h" horiz-adv-x="659" 
d="M74 0v700h118v-277c37 53 97 87 184 87c138 0 214 -86 214 -206v-304h-118v280c0 83 -36 134 -112 134h-14c-81 0 -154 -67 -154 -162v-252h-118z" />
    <glyph glyph-name="hbar" unicode="&#x127;" horiz-adv-x="659" 
d="M74 0v700h118v-277c37 53 97 87 184 87c138 0 214 -86 214 -206v-304h-118v280c0 83 -36 134 -112 134h-14c-81 0 -154 -67 -154 -162v-252h-118zM-17 554v86h400v-86h-400z" />
    <glyph glyph-name="hcircumflex" unicode="&#x125;" horiz-adv-x="658" 
d="M74 0v700h118v-277c37 53 97 87 184 87c138 0 214 -86 214 -206v-304h-118v280c0 83 -36 134 -112 134h-14c-81 0 -154 -67 -154 -162v-252h-118zM-77 737l148 144h123l149 -144h-100l-109 72l-112 -72h-99z" />
    <glyph glyph-name="i" unicode="i" horiz-adv-x="268" 
d="M74 0v500h118v-500h-118zM70 573v127h129v-127h-129z" />
    <glyph glyph-name="dotlessi" unicode="&#x131;" horiz-adv-x="267" 
d="M74 0v500h118v-500h-118z" />
    <glyph glyph-name="iacute" unicode="&#xed;" horiz-adv-x="267" 
d="M74 0v500h118v-500h-118zM89 557l66 144h133l-111 -144h-88z" />
    <glyph glyph-name="ibreve" unicode="&#x12d;" horiz-adv-x="267" 
d="M74 0v500h118v-500h-118zM-48 708h96c4 -41 31 -67 86 -67s81 26 85 67h97c-2 -89 -73 -151 -182 -151s-180 62 -182 151z" />
    <glyph glyph-name="icircumflex" unicode="&#xee;" horiz-adv-x="267" 
d="M74 0v500h118v-500h-118zM-76 557l148 144h123l149 -144h-100l-109 72l-112 -72h-99z" />
    <glyph glyph-name="idieresis" unicode="&#xef;" horiz-adv-x="267" 
d="M74 0v500h118v-500h-118zM-39 575v120h125v-120h-125zM179 575v120h125v-120h-125z" />
    <glyph glyph-name="i.locl" horiz-adv-x="267" 
d="M74 0v500h118v-500h-118zM69 573v127h129v-127h-129z" />
    <glyph glyph-name="uni1ECB" unicode="&#x1ecb;" horiz-adv-x="267" 
d="M74 0v500h118v-500h-118zM70 573v127h129v-127h-129zM66 -195v124h135v-124h-135z" />
    <glyph glyph-name="igrave" unicode="&#xec;" horiz-adv-x="267" 
d="M74 0v500h118v-500h-118zM92 557l-112 144h134l65 -144h-87z" />
    <glyph glyph-name="ij" unicode="&#x133;" horiz-adv-x="559" 
d="M69 573v127h128v-127h-128zM362 573v127h128v-127h-128zM74 -193v101h253c31 0 40 9 40 40v552h118v-583c0 -68 -42 -110 -111 -110h-300zM74 0v500h118v-500h-118z" />
    <glyph glyph-name="imacron" unicode="&#x12b;" horiz-adv-x="267" 
d="M74 0v500h118v-500h-118zM-39 575v93h343v-93h-343z" />
    <glyph glyph-name="iogonek" unicode="&#x12f;" horiz-adv-x="267" 
d="M74 0v500h118v-500h-118zM69 573v127h129v-127h-129zM22 -120c0 64 54 109 113 133l57 -13c-53 -29 -88 -58 -88 -94c0 -31 27 -44 63 -44h36v-75h-56c-75 0 -125 40 -125 93z" />
    <glyph glyph-name="itilde" unicode="&#x129;" horiz-adv-x="267" 
d="M74 0v500h118v-500h-118zM138 583l-34 15c-14 5 -40 17 -53 17c-24 0 -36 -19 -36 -48h-89v27c0 60 50 111 110 111c32 0 49 -6 80 -19l11 -5l33 -14l11 -5c21 -9 34 -15 46 -15c23 0 35 19 35 48h88v-27c0 -61 -39 -111 -106 -111c-31 0 -52 7 -96 26z" />
    <glyph glyph-name="j" unicode="j" horiz-adv-x="277" 
d="M-123 -193v101h167c31 0 40 9 40 40v552h119v-583c0 -68 -42 -110 -111 -110h-215zM79 573v127h129v-127h-129z" />
    <glyph glyph-name="uni0237" unicode="&#x237;" horiz-adv-x="277" 
d="M-123 -193v101h167c31 0 40 9 40 40v552h119v-583c0 -68 -42 -110 -111 -110h-215z" />
    <glyph glyph-name="jcircumflex" unicode="&#x135;" horiz-adv-x="277" 
d="M-123 -193v101h167c31 0 40 9 40 40v552h119v-583c0 -68 -42 -110 -111 -110h-215zM-66 557l148 144h123l149 -144h-100l-109 72l-112 -72h-99z" />
    <glyph glyph-name="k" unicode="k" horiz-adv-x="614" 
d="M74 0v700h118v-402l248 202h163l-262 -207l272 -293h-151l-207 226l-63 -50v-176h-118z" />
    <glyph glyph-name="uni0137" unicode="&#x137;" horiz-adv-x="614" 
d="M74 0v700h118v-402l248 202h163l-262 -207l272 -293h-151l-207 226l-63 -50v-176h-118zM218 -304v65h35c35 0 52 13 52 40v2h-63v125h132v-127c0 -61 -47 -105 -116 -105h-40z" />
    <glyph glyph-name="l" unicode="l" horiz-adv-x="267" 
d="M74 0v700h118v-700h-118z" />
    <glyph glyph-name="lacute" unicode="&#x13a;" horiz-adv-x="267" 
d="M74 0v700h118v-700h-118zM92 757l66 144h133l-111 -144h-88z" />
    <glyph glyph-name="lcaron" unicode="&#x13e;" horiz-adv-x="368" 
d="M74 0v700h118v-700h-118zM236 468v65h34c35 0 53 13 53 40v2h-63v125h132v-127c0 -61 -47 -105 -117 -105h-39z" />
    <glyph glyph-name="uni013C" unicode="&#x13c;" horiz-adv-x="267" 
d="M74 0v700h118v-700h-118zM43 -304v65h35c35 0 52 13 52 40v2h-63v125h132v-127c0 -61 -47 -105 -116 -105h-40z" />
    <glyph glyph-name="ldot" unicode="&#x140;" horiz-adv-x="409" 
d="M74 0v700h118v-700h-118zM265 280v136h149v-136h-149z" />
    <glyph glyph-name="lslash" unicode="&#x142;" horiz-adv-x="350" 
d="M118 0v700h118v-700h-118zM32 268v109l297 156v-110z" />
    <glyph glyph-name="m" unicode="m" horiz-adv-x="1047" 
d="M74 0v500h118v-64c35 47 91 74 168 74c87 0 157 -31 190 -94c41 64 116 94 200 94c157 0 228 -89 228 -213v-297h-118v283c0 80 -40 131 -117 131h-14c-84 0 -144 -66 -144 -166v-248h-118v283c0 80 -41 131 -122 131h-14c-80 0 -139 -66 -139 -166v-248h-118z" />
    <glyph glyph-name="n" unicode="n" horiz-adv-x="659" 
d="M74 0v500h118v-77c37 52 97 87 184 87c139 0 214 -85 214 -206v-304h-118v280c0 83 -36 134 -112 134h-14c-81 0 -154 -67 -154 -162v-252h-118z" />
    <glyph glyph-name="nacute" unicode="&#x144;" horiz-adv-x="659" 
d="M74 0v500h118v-77c37 52 97 87 184 87c139 0 214 -85 214 -206v-304h-118v280c0 83 -36 134 -112 134h-14c-81 0 -154 -67 -154 -162v-252h-118zM296 557l66 144h133l-111 -144h-88z" />
    <glyph glyph-name="ncaron" unicode="&#x148;" horiz-adv-x="659" 
d="M74 0v500h118v-77c37 52 97 87 184 87c139 0 214 -85 214 -206v-304h-118v280c0 83 -36 134 -112 134h-14c-81 0 -154 -67 -154 -162v-252h-118zM282 557l-149 144h100l108 -73l107 73h99l-149 -144h-116z" />
    <glyph glyph-name="uni0146" unicode="&#x146;" horiz-adv-x="659" 
d="M74 0v500h118v-77c37 52 97 87 184 87c139 0 214 -85 214 -206v-304h-118v280c0 83 -36 134 -112 134h-14c-81 0 -154 -67 -154 -162v-252h-118zM238 -304v65h35c35 0 52 13 52 40v2h-63v125h132v-127c0 -61 -47 -105 -116 -105h-40z" />
    <glyph glyph-name="eng" unicode="&#x14b;" horiz-adv-x="659" 
d="M317 -195v103h115c32 0 40 9 40 40v332c0 83 -37 134 -112 134h-14c-81 0 -154 -67 -154 -162v-252h-118v500h118v-77c36 53 96 87 184 87c139 0 214 -85 214 -206v-384c0 -77 -36 -115 -111 -115h-162z" />
    <glyph glyph-name="ntilde" unicode="&#xf1;" horiz-adv-x="659" 
d="M74 0v500h118v-77c37 52 97 87 184 87c139 0 214 -85 214 -206v-304h-118v280c0 83 -36 134 -112 134h-14c-81 0 -154 -67 -154 -162v-252h-118zM345 583l-34 15c-14 5 -40 17 -53 17c-24 0 -36 -19 -36 -48h-89v27c0 60 50 111 110 111c32 0 49 -6 80 -19l11 -5l33 -14
l11 -5c21 -9 34 -15 46 -15c23 0 35 19 35 48h88v-27c0 -61 -39 -111 -106 -111c-31 0 -52 7 -96 26z" />
    <glyph glyph-name="o" unicode="o" horiz-adv-x="665" 
d="M42 250c0 157 119 260 291 260c170 0 289 -103 289 -260s-119 -260 -289 -260c-172 0 -291 103 -291 260zM325 86h14c94 0 164 64 164 164s-70 164 -164 164h-14c-94 0 -163 -64 -163 -164s69 -164 163 -164z" />
    <glyph glyph-name="oacute" unicode="&#xf3;" horiz-adv-x="665" 
d="M42 250c0 157 119 260 291 260c170 0 289 -103 289 -260s-119 -260 -289 -260c-172 0 -291 103 -291 260zM325 86h14c94 0 164 64 164 164s-70 164 -164 164h-14c-94 0 -163 -64 -163 -164s69 -164 163 -164zM288 557l66 144h133l-111 -144h-88z" />
    <glyph glyph-name="obreve" unicode="&#x14f;" horiz-adv-x="665" 
d="M42 250c0 157 119 260 291 260c170 0 289 -103 289 -260s-119 -260 -289 -260c-172 0 -291 103 -291 260zM325 86h14c94 0 164 64 164 164s-70 164 -164 164h-14c-94 0 -163 -64 -163 -164s69 -164 163 -164zM150 708h96c4 -41 31 -67 86 -67s81 26 85 67h97
c-2 -89 -73 -151 -182 -151s-180 62 -182 151z" />
    <glyph glyph-name="ocircumflex" unicode="&#xf4;" horiz-adv-x="665" 
d="M42 250c0 157 119 260 291 260c170 0 289 -103 289 -260s-119 -260 -289 -260c-172 0 -291 103 -291 260zM325 86h14c94 0 164 64 164 164s-70 164 -164 164h-14c-94 0 -163 -64 -163 -164s69 -164 163 -164zM122 557l148 144h123l149 -144h-100l-109 72l-112 -72h-99z
" />
    <glyph glyph-name="odieresis" unicode="&#xf6;" horiz-adv-x="665" 
d="M42 250c0 157 119 260 291 260c170 0 289 -103 289 -260s-119 -260 -289 -260c-172 0 -291 103 -291 260zM325 86h14c94 0 164 64 164 164s-70 164 -164 164h-14c-94 0 -163 -64 -163 -164s69 -164 163 -164zM160 575v120h125v-120h-125zM378 575v120h125v-120h-125z" />
    <glyph glyph-name="uni1ECD" unicode="&#x1ecd;" horiz-adv-x="665" 
d="M42 250c0 157 119 260 291 260c170 0 289 -103 289 -260s-119 -260 -289 -260c-172 0 -291 103 -291 260zM325 86h14c94 0 164 64 164 164s-70 164 -164 164h-14c-94 0 -163 -64 -163 -164s69 -164 163 -164zM265 -195v124h135v-124h-135z" />
    <glyph glyph-name="ograve" unicode="&#xf2;" horiz-adv-x="665" 
d="M42 250c0 157 119 260 291 260c170 0 289 -103 289 -260s-119 -260 -289 -260c-172 0 -291 103 -291 260zM325 86h14c94 0 164 64 164 164s-70 164 -164 164h-14c-94 0 -163 -64 -163 -164s69 -164 163 -164zM290 557l-112 144h134l65 -144h-87z" />
    <glyph glyph-name="ohungarumlaut" unicode="&#x151;" horiz-adv-x="665" 
d="M42 250c0 157 119 260 291 260c170 0 289 -103 289 -260s-119 -260 -289 -260c-172 0 -291 103 -291 260zM325 86h14c94 0 164 64 164 164s-70 164 -164 164h-14c-94 0 -163 -64 -163 -164s69 -164 163 -164zM197 557l65 144h133l-111 -144h-87zM377 557l65 144h133
l-111 -144h-87z" />
    <glyph glyph-name="omacron" unicode="&#x14d;" horiz-adv-x="665" 
d="M42 250c0 157 119 260 291 260c170 0 289 -103 289 -260s-119 -260 -289 -260c-172 0 -291 103 -291 260zM325 86h14c94 0 164 64 164 164s-70 164 -164 164h-14c-94 0 -163 -64 -163 -164s69 -164 163 -164zM160 575v93h343v-93h-343z" />
    <glyph glyph-name="oslash" unicode="&#xf8;" horiz-adv-x="670" 
d="M44 250c0 157 119 260 291 260c170 0 289 -103 289 -260s-119 -260 -289 -260c-172 0 -291 103 -291 260zM327 86h14c94 0 164 64 164 164s-70 164 -164 164h-14c-94 0 -163 -64 -163 -164s69 -164 163 -164zM112 -35l-64 75l515 496l66 -73z" />
    <glyph glyph-name="oslashacute" unicode="&#x1ff;" horiz-adv-x="670" 
d="M44 250c0 157 119 260 291 260c170 0 289 -103 289 -260s-119 -260 -289 -260c-172 0 -291 103 -291 260zM327 86h14c94 0 164 64 164 164s-70 164 -164 164h-14c-94 0 -163 -64 -163 -164s69 -164 163 -164zM112 -35l-64 75l515 496l66 -73zM289 557l66 144h133
l-111 -144h-88z" />
    <glyph glyph-name="otilde" unicode="&#xf5;" horiz-adv-x="665" 
d="M42 250c0 157 119 260 291 260c170 0 289 -103 289 -260s-119 -260 -289 -260c-172 0 -291 103 -291 260zM325 86h14c94 0 164 64 164 164s-70 164 -164 164h-14c-94 0 -163 -64 -163 -164s69 -164 163 -164zM336 583l-34 15c-14 5 -40 17 -53 17c-24 0 -36 -19 -36 -48
h-89v27c0 60 50 111 110 111c32 0 49 -6 80 -19l11 -5l33 -14l11 -5c21 -9 34 -15 46 -15c23 0 35 19 35 48h88v-27c0 -61 -39 -111 -106 -111c-31 0 -52 7 -96 26z" />
    <glyph glyph-name="oe" unicode="&#x153;" horiz-adv-x="1093" 
d="M42 250c0 157 118 260 289 260c107 0 188 -41 235 -110c48 71 132 110 224 110c159 0 257 -99 257 -241v-50h-413c12 -87 79 -133 152 -133h14c60 0 107 25 122 68h120c-20 -102 -119 -164 -248 -164c-101 0 -184 37 -229 109c-47 -69 -129 -109 -234 -109
c-171 0 -289 103 -289 260zM324 85h14c94 0 164 64 164 165c0 100 -71 164 -163 164h-14c-95 0 -164 -62 -164 -164c0 -101 69 -165 163 -165zM638 310h285c-4 71 -55 104 -127 104h-14c-72 0 -127 -36 -144 -104z" />
    <glyph glyph-name="p" unicode="p" horiz-adv-x="690" 
d="M74 -200v700h118v-67c37 47 109 77 188 77c154 0 267 -101 267 -260c0 -167 -114 -260 -264 -260c-87 0 -156 33 -191 80v-270h-118zM357 86h14c92 0 157 61 157 164s-65 164 -157 164h-14c-94 0 -165 -61 -165 -164s71 -164 165 -164z" />
    <glyph glyph-name="thorn" unicode="&#xfe;" horiz-adv-x="690" 
d="M74 -200v900h118v-267c37 47 109 77 188 77c155 0 266 -101 266 -260c0 -167 -112 -260 -263 -260c-87 0 -156 33 -191 80v-270h-118zM357 86h14c91 0 156 59 156 164s-65 164 -156 164h-14c-94 0 -165 -61 -165 -164s71 -164 165 -164z" />
    <glyph glyph-name="q" unicode="q" horiz-adv-x="690" 
d="M498 -200v270c-33 -47 -103 -80 -190 -80c-152 0 -265 93 -265 260c0 159 114 260 267 260c79 0 152 -30 188 -77v67h118v-700h-118zM319 86h14c94 0 165 61 165 164s-71 164 -165 164h-14c-91 0 -156 -61 -156 -164s65 -164 156 -164z" />
    <glyph glyph-name="r" unicode="r" horiz-adv-x="436" 
d="M74 0v500h113v-99c25 68 65 99 145 99h83v-108h-90c-85 0 -133 -49 -133 -141v-251h-118z" />
    <glyph glyph-name="racute" unicode="&#x155;" horiz-adv-x="436" 
d="M74 0v500h113v-99c25 68 65 99 145 99h83v-108h-90c-85 0 -133 -49 -133 -141v-251h-118zM194 557l66 144h133l-111 -144h-88z" />
    <glyph glyph-name="rcaron" unicode="&#x159;" horiz-adv-x="436" 
d="M74 0v500h113v-99c25 68 65 99 145 99h83v-108h-90c-85 0 -133 -49 -133 -141v-251h-118zM180 557l-149 144h100l108 -73l107 73h99l-149 -144h-116z" />
    <glyph glyph-name="uni0157" unicode="&#x157;" horiz-adv-x="436" 
d="M74 0v500h113v-99c25 68 65 99 145 99h83v-108h-90c-85 0 -133 -49 -133 -141v-251h-118zM42 -304v65h35c35 0 52 13 52 40v2h-63v125h132v-127c0 -61 -47 -105 -116 -105h-40z" />
    <glyph glyph-name="s" unicode="s" horiz-adv-x="569" 
d="M35 161h120c4 -49 54 -75 119 -75h15c73 0 110 17 110 50c0 27 -21 41 -84 53l-83 16c-115 23 -173 65 -173 150c0 99 98 155 222 155c156 0 239 -63 247 -171h-120c-4 44 -48 75 -119 75h-15c-61 0 -96 -19 -96 -50c0 -25 15 -37 84 -51l78 -14
c116 -23 178 -68 178 -156c0 -92 -86 -153 -237 -153c-153 0 -240 66 -246 171z" />
    <glyph glyph-name="sacute" unicode="&#x15b;" horiz-adv-x="569" 
d="M35 161h120c4 -49 54 -75 119 -75h15c73 0 110 17 110 50c0 27 -21 41 -84 53l-83 16c-115 23 -173 65 -173 150c0 99 98 155 222 155c156 0 239 -63 247 -171h-120c-4 44 -48 75 -119 75h-15c-61 0 -96 -19 -96 -50c0 -25 15 -37 84 -51l78 -14
c116 -23 178 -68 178 -156c0 -92 -86 -153 -237 -153c-153 0 -240 66 -246 171zM237 557l66 144h133l-111 -144h-88z" />
    <glyph glyph-name="scaron" unicode="&#x161;" horiz-adv-x="569" 
d="M35 161h120c4 -49 54 -75 119 -75h15c73 0 110 17 110 50c0 27 -21 41 -84 53l-83 16c-115 23 -173 65 -173 150c0 99 98 155 222 155c156 0 239 -63 247 -171h-120c-4 44 -48 75 -119 75h-15c-61 0 -96 -19 -96 -50c0 -25 15 -37 84 -51l78 -14
c116 -23 178 -68 178 -156c0 -92 -86 -153 -237 -153c-153 0 -240 66 -246 171zM223 557l-149 144h100l108 -73l107 73h99l-149 -144h-116z" />
    <glyph glyph-name="scedilla" unicode="&#x15f;" horiz-adv-x="569" 
d="M35 161h120c4 -49 54 -75 119 -75h15c73 0 110 17 110 50c0 27 -21 41 -84 53l-83 16c-115 23 -173 65 -173 150c0 99 98 155 222 155c156 0 239 -63 247 -171h-120c-4 44 -48 75 -119 75h-15c-61 0 -96 -19 -96 -50c0 -25 15 -37 84 -51l78 -14
c116 -23 178 -68 178 -156c0 -92 -86 -153 -237 -153c-153 0 -240 66 -246 171zM199 -241v72h86c32 0 49 11 49 32c0 19 -16 33 -44 33h-46v119h65v-60c56 -1 99 -36 99 -93c0 -65 -54 -103 -126 -103h-83z" />
    <glyph glyph-name="scircumflex" unicode="&#x15d;" horiz-adv-x="569" 
d="M35 161h120c4 -49 54 -75 119 -75h15c73 0 110 17 110 50c0 27 -21 41 -84 53l-83 16c-115 23 -173 65 -173 150c0 99 98 155 222 155c156 0 239 -63 247 -171h-120c-4 44 -48 75 -119 75h-15c-61 0 -96 -19 -96 -50c0 -25 15 -37 84 -51l78 -14
c116 -23 178 -68 178 -156c0 -92 -86 -153 -237 -153c-153 0 -240 66 -246 171zM72 557l148 144h123l149 -144h-100l-109 72l-112 -72h-99z" />
    <glyph glyph-name="uni0219" unicode="&#x219;" horiz-adv-x="569" 
d="M35 161h120c4 -49 54 -75 119 -75h15c73 0 110 17 110 50c0 27 -21 41 -84 53l-83 16c-115 23 -173 65 -173 150c0 99 98 155 222 155c156 0 239 -63 247 -171h-120c-4 44 -48 75 -119 75h-15c-61 0 -96 -19 -96 -50c0 -25 15 -37 84 -51l78 -14
c116 -23 178 -68 178 -156c0 -92 -86 -153 -237 -153c-153 0 -240 66 -246 171zM184 -304v65h35c35 0 52 13 52 40v2h-63v125h132v-127c0 -61 -47 -105 -116 -105h-40z" />
    <glyph glyph-name="germandbls" unicode="&#xdf;" horiz-adv-x="629" 
d="M74 -185v667c0 129 95 228 250 228s238 -84 238 -181c0 -81 -58 -139 -106 -155c53 -14 130 -71 130 -169c0 -133 -103 -205 -240 -205h-95v101h81c84 0 135 41 135 109c0 67 -49 109 -128 109h-88v102h83c81 0 114 42 114 97s-46 96 -119 96h-10
c-73 0 -130 -47 -130 -138v-661h-115z" />
    <glyph glyph-name="t" unicode="t" horiz-adv-x="463" 
d="M139 110v293h-124v97h124v162h118v-162h157v-97h-157v-263c0 -29 11 -40 40 -40h140v-100h-177c-81 0 -121 39 -121 110z" />
    <glyph glyph-name="tbar" unicode="&#x167;" horiz-adv-x="476" 
d="M149 110v293h-124v97h124v162h118v-162h157v-97h-157v-263c0 -29 11 -40 40 -40h140v-100h-177c-81 0 -121 39 -121 110zM25 234v86h400v-86h-400z" />
    <glyph glyph-name="tcaron" unicode="&#x165;" horiz-adv-x="539" 
d="M139 110v293h-124v97h124v162h118v-162h157v-97h-157v-263c0 -29 11 -40 40 -40h140v-100h-177c-81 0 -121 39 -121 110zM450 468v65h34c35 0 53 13 53 40v2h-63v125h132v-127c0 -61 -47 -105 -117 -105h-39z" />
    <glyph glyph-name="uni0163" unicode="&#x163;" horiz-adv-x="463" 
d="M139 110v293h-124v97h124v162h118v-162h157v-97h-157v-263c0 -29 11 -40 40 -40h140v-100h-177c-81 0 -121 39 -121 110zM163 -241v72h86c32 0 49 11 49 32c0 19 -16 33 -44 33h-46v119h65v-60c56 -1 99 -36 99 -93c0 -65 -54 -103 -126 -103h-83z" />
    <glyph glyph-name="uni021B" unicode="&#x21b;" horiz-adv-x="463" 
d="M139 110v293h-124v97h124v162h118v-162h157v-97h-157v-263c0 -29 11 -40 40 -40h140v-100h-177c-81 0 -121 39 -121 110zM148 -304v65h35c35 0 52 13 52 40v2h-63v125h132v-127c0 -61 -47 -105 -116 -105h-40z" />
    <glyph glyph-name="u" unicode="u" horiz-adv-x="650" 
d="M69 188v312h118v-289c0 -83 33 -125 108 -125h14c80 0 149 63 149 157v257h117v-500h-117v85c-31 -56 -96 -95 -181 -95c-136 0 -208 77 -208 198z" />
    <glyph glyph-name="uacute" unicode="&#xfa;" horiz-adv-x="650" 
d="M69 188v312h118v-289c0 -83 33 -125 108 -125h14c80 0 149 63 149 157v257h117v-500h-117v85c-31 -56 -96 -95 -181 -95c-136 0 -208 77 -208 198zM278 557l66 144h133l-111 -144h-88z" />
    <glyph glyph-name="ubreve" unicode="&#x16d;" horiz-adv-x="650" 
d="M69 188v312h118v-289c0 -83 33 -125 108 -125h14c80 0 149 63 149 157v257h117v-500h-117v85c-31 -56 -96 -95 -181 -95c-136 0 -208 77 -208 198zM141 708h96c4 -41 31 -67 86 -67s81 26 85 67h97c-2 -89 -73 -151 -182 -151s-180 62 -182 151z" />
    <glyph glyph-name="ucircumflex" unicode="&#xfb;" horiz-adv-x="650" 
d="M69 188v312h118v-289c0 -83 33 -125 108 -125h14c80 0 149 63 149 157v257h117v-500h-117v85c-31 -56 -96 -95 -181 -95c-136 0 -208 77 -208 198zM113 557l148 144h123l149 -144h-100l-109 72l-112 -72h-99z" />
    <glyph glyph-name="udieresis" unicode="&#xfc;" horiz-adv-x="650" 
d="M69 188v312h118v-289c0 -83 33 -125 108 -125h14c80 0 149 63 149 157v257h117v-500h-117v85c-31 -56 -96 -95 -181 -95c-136 0 -208 77 -208 198zM150 575v120h125v-120h-125zM368 575v120h125v-120h-125z" />
    <glyph glyph-name="uni1EE5" unicode="&#x1ee5;" horiz-adv-x="650" 
d="M69 188v312h118v-289c0 -83 33 -125 108 -125h14c80 0 149 63 149 157v257h117v-500h-117v85c-31 -56 -96 -95 -181 -95c-136 0 -208 77 -208 198zM257 -195v124h135v-124h-135z" />
    <glyph glyph-name="ugrave" unicode="&#xf9;" horiz-adv-x="650" 
d="M69 188v312h118v-289c0 -83 33 -125 108 -125h14c80 0 149 63 149 157v257h117v-500h-117v85c-31 -56 -96 -95 -181 -95c-136 0 -208 77 -208 198zM281 557l-112 144h134l65 -144h-87z" />
    <glyph glyph-name="uhungarumlaut" unicode="&#x171;" horiz-adv-x="650" 
d="M69 188v312h118v-289c0 -83 33 -125 108 -125h14c80 0 149 63 149 157v257h117v-500h-117v85c-31 -56 -96 -95 -181 -95c-136 0 -208 77 -208 198zM188 557l65 144h133l-111 -144h-87zM368 557l65 144h133l-111 -144h-87z" />
    <glyph glyph-name="umacron" unicode="&#x16b;" horiz-adv-x="650" 
d="M69 188v312h118v-289c0 -83 33 -125 108 -125h14c80 0 149 63 149 157v257h117v-500h-117v85c-31 -56 -96 -95 -181 -95c-136 0 -208 77 -208 198zM150 575v93h343v-93h-343z" />
    <glyph glyph-name="uogonek" unicode="&#x173;" horiz-adv-x="650" 
d="M69 188v312h118v-289c0 -83 33 -125 108 -125h14c80 0 149 63 149 157v257h117v-500h-117v85c-31 -56 -96 -95 -181 -95c-136 0 -208 77 -208 198zM405 -120c0 64 54 109 113 133l57 -13c-53 -29 -88 -58 -88 -94c0 -31 27 -44 63 -44h36v-75h-56c-75 0 -125 40 -125 93z
" />
    <glyph glyph-name="uring" unicode="&#x16f;" horiz-adv-x="650" 
d="M69 188v312h118v-289c0 -83 33 -125 108 -125h14c80 0 149 63 149 157v257h117v-500h-117v85c-31 -56 -96 -95 -181 -95c-136 0 -208 77 -208 198zM202 662c0 56 51 105 120 105s120 -49 120 -105c0 -61 -50 -105 -120 -105s-120 44 -120 105zM373 662
c0 23 -19 41 -50 41c-29 0 -51 -18 -51 -41s22 -41 51 -41c31 0 50 18 50 41z" />
    <glyph glyph-name="utilde" unicode="&#x169;" horiz-adv-x="650" 
d="M69 188v312h118v-289c0 -83 33 -125 108 -125h14c80 0 149 63 149 157v257h117v-500h-117v85c-31 -56 -96 -95 -181 -95c-136 0 -208 77 -208 198zM327 583l-34 15c-14 5 -40 17 -53 17c-24 0 -36 -19 -36 -48h-89v27c0 60 50 111 110 111c32 0 49 -6 80 -19l11 -5
l33 -14l11 -5c21 -9 34 -15 46 -15c23 0 35 19 35 48h88v-27c0 -61 -39 -111 -106 -111c-31 0 -52 7 -96 26z" />
    <glyph glyph-name="v" unicode="v" horiz-adv-x="603" 
d="M471 500h125l-230 -500h-130l-227 500h128l165 -374z" />
    <glyph glyph-name="w" unicode="w" horiz-adv-x="887" 
d="M752 500h123l-182 -500h-127l-123 357l-124 -357h-126l-181 500h123l124 -356l120 356h127l126 -363z" />
    <glyph glyph-name="wacute" unicode="&#x1e83;" horiz-adv-x="887" 
d="M752 500h123l-182 -500h-127l-123 357l-124 -357h-126l-181 500h123l124 -356l120 356h127l126 -363zM399 557l66 144h133l-111 -144h-88z" />
    <glyph glyph-name="wcircumflex" unicode="&#x175;" horiz-adv-x="887" 
d="M752 500h123l-182 -500h-127l-123 357l-124 -357h-126l-181 500h123l124 -356l120 356h127l126 -363zM233 557l148 144h123l149 -144h-100l-109 72l-112 -72h-99z" />
    <glyph glyph-name="wdieresis" unicode="&#x1e85;" horiz-adv-x="887" 
d="M752 500h123l-182 -500h-127l-123 357l-124 -357h-126l-181 500h123l124 -356l120 356h127l126 -363zM271 575v120h125v-120h-125zM489 575v120h125v-120h-125z" />
    <glyph glyph-name="wgrave" unicode="&#x1e81;" horiz-adv-x="887" 
d="M752 500h123l-182 -500h-127l-123 357l-124 -357h-126l-181 500h123l124 -356l120 356h127l126 -363zM401 557l-112 144h134l65 -144h-87z" />
    <glyph glyph-name="x" unicode="x" horiz-adv-x="585" 
d="M572 0h-146l-134 166l-137 -166h-142l208 252l-202 248h146l129 -159l131 159h141l-201 -245z" />
    <glyph glyph-name="y" unicode="y" horiz-adv-x="622" 
d="M44 -195v103h176c31 0 40 9 40 40v82l-245 470h131l176 -341l164 341h131l-239 -468v-112c0 -79 -39 -115 -115 -115h-219z" />
    <glyph glyph-name="yacute" unicode="&#xfd;" horiz-adv-x="622" 
d="M44 -195v103h176c31 0 40 9 40 40v82l-245 470h131l176 -341l164 341h131l-239 -468v-112c0 -79 -39 -115 -115 -115h-219zM272 557l66 144h133l-111 -144h-88z" />
    <glyph glyph-name="ycircumflex" unicode="&#x177;" horiz-adv-x="622" 
d="M44 -195v103h176c31 0 40 9 40 40v82l-245 470h131l176 -341l164 341h131l-239 -468v-112c0 -79 -39 -115 -115 -115h-219zM106 557l148 144h123l149 -144h-100l-109 72l-112 -72h-99z" />
    <glyph glyph-name="ydieresis" unicode="&#xff;" horiz-adv-x="622" 
d="M44 -195v103h176c31 0 40 9 40 40v82l-245 470h131l176 -341l164 341h131l-239 -468v-112c0 -79 -39 -115 -115 -115h-219zM144 575v120h125v-120h-125zM362 575v120h125v-120h-125z" />
    <glyph glyph-name="ygrave" unicode="&#x1ef3;" horiz-adv-x="622" 
d="M44 -195v103h176c31 0 40 9 40 40v82l-245 470h131l176 -341l164 341h131l-239 -468v-112c0 -79 -39 -115 -115 -115h-219zM274 557l-112 144h134l65 -144h-87z" />
    <glyph glyph-name="uni0233" unicode="&#x233;" horiz-adv-x="622" 
d="M44 -195v103h176c31 0 40 9 40 40v82l-245 470h131l176 -341l164 341h131l-239 -468v-112c0 -79 -39 -115 -115 -115h-219zM144 575v93h343v-93h-343z" />
    <glyph glyph-name="z" unicode="z" horiz-adv-x="575" 
d="M43 0v99l318 298h-313v103h473v-99l-318 -298h333v-103h-493z" />
    <glyph glyph-name="zacute" unicode="&#x17a;" horiz-adv-x="575" 
d="M43 0v99l318 298h-313v103h473v-99l-318 -298h333v-103h-493zM243 557l66 144h133l-111 -144h-88z" />
    <glyph glyph-name="zcaron" unicode="&#x17e;" horiz-adv-x="575" 
d="M43 0v99l318 298h-313v103h473v-99l-318 -298h333v-103h-493zM229 557l-149 144h100l108 -73l107 73h99l-149 -144h-116z" />
    <glyph glyph-name="zdotaccent" unicode="&#x17c;" horiz-adv-x="575" 
d="M43 0v99l318 298h-313v103h473v-99l-318 -298h333v-103h-493zM222 573v127h129v-127h-129z" />
    <glyph glyph-name="a.salt" horiz-adv-x="689" 
d="M43 250c0 165 114 260 262 260c93 0 157 -30 194 -78v68h116v-500h-116v66c-39 -47 -103 -76 -192 -76c-150 0 -264 100 -264 260zM321 86h12c90 0 166 59 166 164s-76 164 -166 164h-12c-91 0 -158 -59 -158 -164s67 -164 158 -164z" />
    <glyph glyph-name="aacute.salt" horiz-adv-x="689" 
d="M43 250c0 165 114 260 262 260c93 0 157 -30 194 -78v68h116v-500h-116v66c-39 -47 -103 -76 -192 -76c-150 0 -264 100 -264 260zM321 86h12c90 0 166 59 166 164s-76 164 -166 164h-12c-91 0 -158 -59 -158 -164s67 -164 158 -164zM290 557l66 144h133l-111 -144h-88z
" />
    <glyph glyph-name="abreve.salt" horiz-adv-x="689" 
d="M43 250c0 165 114 260 262 260c93 0 157 -30 194 -78v68h116v-500h-116v66c-39 -47 -103 -76 -192 -76c-150 0 -264 100 -264 260zM321 86h12c90 0 166 59 166 164s-76 164 -166 164h-12c-91 0 -158 -59 -158 -164s67 -164 158 -164zM152 708h96c4 -41 31 -67 86 -67
s81 26 85 67h97c-2 -89 -73 -151 -182 -151s-180 62 -182 151z" />
    <glyph glyph-name="acircumflex.salt" horiz-adv-x="689" 
d="M43 250c0 165 114 260 262 260c93 0 157 -30 194 -78v68h116v-500h-116v66c-39 -47 -103 -76 -192 -76c-150 0 -264 100 -264 260zM321 86h12c90 0 166 59 166 164s-76 164 -166 164h-12c-91 0 -158 -59 -158 -164s67 -164 158 -164zM124 557l148 144h123l149 -144h-100
l-109 72l-112 -72h-99z" />
    <glyph glyph-name="adieresis.salt" horiz-adv-x="689" 
d="M43 250c0 165 114 260 262 260c93 0 157 -30 194 -78v68h116v-500h-116v66c-39 -47 -103 -76 -192 -76c-150 0 -264 100 -264 260zM321 86h12c90 0 166 59 166 164s-76 164 -166 164h-12c-91 0 -158 -59 -158 -164s67 -164 158 -164zM162 575v120h125v-120h-125zM380 575
v120h125v-120h-125z" />
    <glyph glyph-name="uni0227.salt" horiz-adv-x="689" 
d="M43 250c0 165 114 260 262 260c93 0 157 -30 194 -78v68h116v-500h-116v66c-39 -47 -103 -76 -192 -76c-150 0 -264 100 -264 260zM321 86h12c90 0 166 59 166 164s-76 164 -166 164h-12c-91 0 -158 -59 -158 -164s67 -164 158 -164zM269 573v127h129v-127h-129z" />
    <glyph glyph-name="uni1EA1.salt" horiz-adv-x="689" 
d="M43 250c0 165 114 260 262 260c93 0 157 -30 194 -78v68h116v-500h-116v66c-39 -47 -103 -76 -192 -76c-150 0 -264 100 -264 260zM321 86h12c90 0 166 59 166 164s-76 164 -166 164h-12c-91 0 -158 -59 -158 -164s67 -164 158 -164zM264 -195v124h135v-124h-135z" />
    <glyph glyph-name="agrave.salt" horiz-adv-x="689" 
d="M43 250c0 165 114 260 262 260c93 0 157 -30 194 -78v68h116v-500h-116v66c-39 -47 -103 -76 -192 -76c-150 0 -264 100 -264 260zM321 86h12c90 0 166 59 166 164s-76 164 -166 164h-12c-91 0 -158 -59 -158 -164s67 -164 158 -164zM292 557l-112 144h134l65 -144h-87z
" />
    <glyph glyph-name="amacron.salt" horiz-adv-x="689" 
d="M43 250c0 165 114 260 262 260c93 0 157 -30 194 -78v68h116v-500h-116v66c-39 -47 -103 -76 -192 -76c-150 0 -264 100 -264 260zM321 86h12c90 0 166 59 166 164s-76 164 -166 164h-12c-91 0 -158 -59 -158 -164s67 -164 158 -164zM162 575v93h343v-93h-343z" />
    <glyph glyph-name="aogonek.salt" horiz-adv-x="689" 
d="M43 250c0 165 114 260 262 260c93 0 157 -30 194 -78v68h116v-500h-116v66c-39 -47 -103 -76 -192 -76c-150 0 -264 100 -264 260zM321 86h12c90 0 166 59 166 164s-76 164 -166 164h-12c-91 0 -158 -59 -158 -164s67 -164 158 -164zM445 -120c0 64 54 109 113 133
l57 -13c-53 -29 -88 -58 -88 -94c0 -31 27 -44 63 -44h36v-75h-56c-75 0 -125 40 -125 93z" />
    <glyph glyph-name="aring.salt" horiz-adv-x="689" 
d="M43 250c0 165 114 260 262 260c93 0 157 -30 194 -78v68h116v-500h-116v66c-39 -47 -103 -76 -192 -76c-150 0 -264 100 -264 260zM321 86h12c90 0 166 59 166 164s-76 164 -166 164h-12c-91 0 -158 -59 -158 -164s67 -164 158 -164zM213 662c0 56 51 105 120 105
s120 -49 120 -105c0 -61 -50 -105 -120 -105s-120 44 -120 105zM384 662c0 23 -19 41 -50 41c-29 0 -51 -18 -51 -41s22 -41 51 -41c31 0 50 18 50 41z" />
    <glyph glyph-name="aringacute.salt" horiz-adv-x="689" 
d="M43 250c0 165 114 260 262 260c93 0 157 -30 194 -78v68h116v-500h-116v66c-39 -47 -103 -76 -192 -76c-150 0 -264 100 -264 260zM321 86h12c90 0 166 59 166 164s-76 164 -166 164h-12c-91 0 -158 -59 -158 -164s67 -164 158 -164zM297 794l49 128h132l-105 -128h-76z
M213 662c0 56 51 105 120 105s120 -49 120 -105c0 -61 -50 -105 -120 -105s-120 44 -120 105zM384 662c0 23 -19 41 -50 41c-29 0 -51 -18 -51 -41s22 -41 51 -41c31 0 50 18 50 41z" />
    <glyph glyph-name="atilde.salt" horiz-adv-x="689" 
d="M43 250c0 165 114 260 262 260c93 0 157 -30 194 -78v68h116v-500h-116v66c-39 -47 -103 -76 -192 -76c-150 0 -264 100 -264 260zM321 86h12c90 0 166 59 166 164s-76 164 -166 164h-12c-91 0 -158 -59 -158 -164s67 -164 158 -164zM338 583l-34 15c-14 5 -40 17 -53 17
c-24 0 -36 -19 -36 -48h-89v27c0 60 50 111 110 111c32 0 49 -6 80 -19l11 -5l33 -14l11 -5c21 -9 34 -15 46 -15c23 0 35 19 35 48h88v-27c0 -61 -39 -111 -106 -111c-31 0 -52 7 -96 26z" />
    <glyph glyph-name="y.ss03" horiz-adv-x="619" 
d="M484 500h129l-280 -583c-44 -93 -72 -112 -156 -112h-154v103h133c36 0 47 6 67 44l27 56l-246 492h133l176 -358z" />
    <glyph glyph-name="yacute.ss03" horiz-adv-x="619" 
d="M484 500h129l-280 -583c-44 -93 -72 -112 -156 -112h-154v103h133c36 0 47 6 67 44l27 56l-246 492h133l176 -358zM265 557l66 144h133l-111 -144h-88z" />
    <glyph glyph-name="ycircumflex.ss03" horiz-adv-x="619" 
d="M484 500h129l-280 -583c-44 -93 -72 -112 -156 -112h-154v103h133c36 0 47 6 67 44l27 56l-246 492h133l176 -358zM100 557l148 144h123l149 -144h-100l-109 72l-112 -72h-99z" />
    <glyph glyph-name="ydieresis.ss03" horiz-adv-x="619" 
d="M484 500h129l-280 -583c-44 -93 -72 -112 -156 -112h-154v103h133c36 0 47 6 67 44l27 56l-246 492h133l176 -358zM137 575v120h125v-120h-125zM355 575v120h125v-120h-125z" />
    <glyph glyph-name="ygrave.ss03" horiz-adv-x="619" 
d="M484 500h129l-280 -583c-44 -93 -72 -112 -156 -112h-154v103h133c36 0 47 6 67 44l27 56l-246 492h133l176 -358zM267 557l-112 144h134l65 -144h-87z" />
    <glyph glyph-name="uni0233.ss03" horiz-adv-x="619" 
d="M484 500h129l-280 -583c-44 -93 -72 -112 -156 -112h-154v103h133c36 0 47 6 67 44l27 56l-246 492h133l176 -358zM137 575v93h343v-93h-343z" />
    <glyph glyph-name="I_S_B_N" horiz-adv-x="2554" 
d="M2470 426v-426h-122v418c0 120 -66 183 -186 183h-16c-119 0 -183 -63 -183 -183v-418h-123v426c0 178 106 284 314 284c205 0 316 -107 316 -284zM1708 190c0 -115 -96 -190 -219 -190h-414v410h381c71 0 111 33 111 92c0 55 -40 89 -111 89h-854
c-101 0 -139 -31 -139 -79c0 -51 36 -75 125 -90l112 -17c161 -27 243 -96 243 -208c0 -129 -87 -197 -258 -197h-595v700h123v-591h472c96 0 134 28 134 80c0 51 -40 79 -141 96l-109 17c-167 28 -230 83 -230 211c0 98 69 187 257 187h875c124 0 220 -72 220 -185
c0 -77 -50 -137 -111 -159c74 -16 128 -78 128 -166zM1584 207c0 57 -44 93 -120 93h-266v-191h266c76 0 120 34 120 98z" />
    <glyph glyph-name="w_w_w" horiz-adv-x="2364" 
d="M2241 500h123l-182 -500h-127l-123 357l-124 -357h-126l-125 344l-125 -344h-127l-123 357l-124 -357h-126l-125 344l-125 -344h-127l-123 357l-124 -357h-126l-182 500h123l124 -356l121 356h127l126 -364l120 364h132l124 -356l121 356h127l126 -364l120 364h132
l124 -356l121 356h127l126 -364z" />
    <glyph glyph-name="ordfeminine" unicode="&#xaa;" horiz-adv-x="418" 
d="M53 495c0 52 39 84 110 89l98 8v8c0 24 -19 38 -54 38h-6c-29 0 -50 -9 -54 -28h-84c4 56 57 95 142 95c88 0 142 -41 142 -114v-112c0 -23 2 -45 5 -64h-81c-2 5 -4 17 -5 36c-21 -27 -60 -41 -104 -41c-61 0 -109 33 -109 85zM180 477h5c44 0 77 20 77 51v13l-78 -8
c-28 -3 -44 -13 -44 -29c0 -17 15 -27 40 -27z" />
    <glyph glyph-name="ordmasculine" unicode="&#xba;" horiz-adv-x="430" 
d="M47 557c0 86 68 148 168 148s168 -62 168 -148c0 -85 -68 -147 -168 -147s-168 62 -168 147zM212 482h6c45 0 74 28 74 75s-29 76 -74 76h-6c-45 0 -75 -29 -75 -76s30 -75 75 -75z" />
    <glyph glyph-name="a.sups_salt" horiz-adv-x="423" 
d="M32 557c0 91 66 148 152 148c43 0 77 -14 98 -38v33h88v-285h-89v36c-21 -24 -57 -41 -98 -41c-84 0 -151 58 -151 147zM196 481h7c48 0 79 29 79 76c0 45 -31 77 -79 77h-7c-44 0 -74 -30 -74 -77c0 -48 29 -76 74 -76z" />
    <glyph glyph-name="y.sups_ss03" horiz-adv-x="372" 
d="M16 301v74h81c27 0 30 4 37 21l13 30l-147 274h96l95 -181l86 181h92l-162 -342c-20 -41 -49 -57 -88 -57h-103z" />
    <glyph glyph-name="a.sups" horiz-adv-x="375" 
d="M31 495c0 52 39 84 110 89l98 8v8c0 24 -19 38 -54 38h-6c-29 0 -50 -9 -54 -28h-84c4 56 57 95 142 95c88 0 142 -41 142 -114v-112c0 -23 2 -45 5 -64h-81c-2 5 -4 17 -5 36c-21 -27 -60 -41 -104 -41c-61 0 -109 33 -109 85zM158 477h5c44 0 77 20 77 51v13l-78 -8
c-28 -3 -44 -13 -44 -29c0 -17 15 -27 40 -27z" />
    <glyph glyph-name="b.sups" horiz-adv-x="423" 
d="M143 450v-35h-90v395h88v-144c21 24 58 39 103 39c84 0 148 -57 148 -147c0 -93 -65 -148 -149 -148c-45 0 -79 15 -100 40zM220 482h7c44 0 74 28 74 76c0 45 -30 76 -74 76h-7c-48 0 -79 -31 -79 -76c0 -48 30 -76 79 -76z" />
    <glyph glyph-name="c.sups" horiz-adv-x="377" 
d="M32 557c0 93 69 148 166 148c91 0 140 -45 149 -108h-89c-7 21 -25 36 -60 36h-6c-45 0 -70 -31 -70 -76s25 -75 70 -75h6c33 0 53 13 60 34h89c-11 -61 -60 -106 -149 -106c-99 0 -166 53 -166 147z" />
    <glyph glyph-name="d.sups" horiz-adv-x="423" 
d="M32 557c0 91 63 148 148 148c45 0 82 -15 102 -38v143h89v-395h-90v35c-23 -24 -57 -40 -101 -40c-83 0 -148 56 -148 147zM199 482h7c45 0 76 28 76 76c0 45 -32 75 -76 75h-7c-47 0 -77 -30 -77 -75c0 -48 29 -76 77 -76z" />
    <glyph glyph-name="e.sups" horiz-adv-x="378" 
d="M31 557c0 86 67 148 160 148s154 -61 154 -150v-18h-227c4 -37 31 -58 72 -58h6c32 0 54 9 62 25h85c-8 -52 -67 -94 -150 -94c-95 0 -162 58 -162 147zM120 589h138c-5 32 -27 47 -64 47h-6c-36 0 -64 -15 -68 -47z" />
    <glyph glyph-name="f.sups" horiz-adv-x="276" 
d="M84 415v211h-67v74h67v29c0 52 29 81 82 81h110v-70h-81c-13 0 -22 -9 -22 -25v-15h88v-74h-88v-211h-89z" />
    <glyph glyph-name="g.sups" horiz-adv-x="414" 
d="M32 389h91c4 -19 29 -30 64 -30h7c52 0 81 24 81 67v34c-21 -29 -53 -43 -97 -43c-86 0 -146 58 -146 144c0 87 58 144 142 144c45 0 78 -15 97 -43v38h90v-276c0 -75 -62 -135 -172 -135c-88 0 -150 37 -157 100zM191 488h7c43 0 73 29 73 74c0 43 -29 72 -72 72h-7
c-44 0 -70 -27 -70 -72c0 -47 25 -74 69 -74z" />
    <glyph glyph-name="h.sups" horiz-adv-x="413" 
d="M53 415v395h89v-146c23 28 59 41 99 41c80 0 123 -51 123 -128v-162h-90v154c0 41 -20 65 -55 65h-6c-39 0 -71 -31 -71 -76v-143h-89z" />
    <glyph glyph-name="i.sups" horiz-adv-x="195" 
d="M50 734v76h96v-76h-96zM53 415v285h90v-285h-90z" />
    <glyph glyph-name="j.sups" horiz-adv-x="197" 
d="M51 734v76h95v-76h-95zM-51 300v74h68c31 0 36 7 36 35v291h90v-320c0 -52 -28 -80 -81 -80h-113z" />
    <glyph glyph-name="k.sups" horiz-adv-x="401" 
d="M53 415v395h89v-213l121 103h118l-137 -116l145 -169h-116l-95 113l-36 -31v-82h-89z" />
    <glyph glyph-name="l.sups" horiz-adv-x="195" 
d="M53 415v395h90v-395h-90z" />
    <glyph glyph-name="m.sups" horiz-adv-x="613" 
d="M53 415v285h90v-34c21 26 52 39 93 39c45 0 81 -18 100 -51c24 35 61 51 108 51c75 0 120 -46 120 -117v-173h-90v157c0 39 -20 61 -53 61h-5c-37 0 -62 -30 -62 -70v-148h-90v157c0 40 -20 61 -53 61h-6c-36 0 -62 -29 -62 -70v-148h-90z" />
    <glyph glyph-name="n.sups" horiz-adv-x="413" 
d="M53 415v285h90v-37c21 29 58 42 98 42c80 0 124 -52 124 -129v-161h-91v153c0 41 -19 65 -54 65h-6c-40 0 -71 -31 -71 -75v-143h-90z" />
    <glyph glyph-name="o.sups" horiz-adv-x="397" 
d="M31 557c0 86 68 148 168 148s168 -62 168 -148c0 -85 -68 -147 -168 -147s-168 62 -168 147zM196 482h6c45 0 74 28 74 75s-29 76 -74 76h-6c-45 0 -75 -29 -75 -76s30 -75 75 -75z" />
    <glyph glyph-name="p.sups" horiz-adv-x="424" 
d="M53 305v395h90v-35c23 25 56 40 101 40c84 0 148 -56 148 -147s-63 -148 -148 -148c-47 0 -82 15 -102 38v-143h-89zM221 482h6c45 0 75 31 75 76s-30 75 -75 75h-6c-47 0 -79 -30 -79 -75s32 -76 79 -76z" />
    <glyph glyph-name="q.sups" horiz-adv-x="424" 
d="M282 305v143c-20 -23 -57 -38 -102 -38c-85 0 -148 57 -148 148c0 90 65 147 148 147c45 0 78 -15 101 -40v35h90v-395h-89zM197 481h6c47 0 79 32 79 77c0 44 -32 75 -79 75h-6c-44 0 -75 -30 -75 -75c0 -47 31 -77 75 -77z" />
    <glyph glyph-name="r.sups" horiz-adv-x="283" 
d="M53 415v285h90v-50c15 35 38 51 81 51h43v-78h-60c-43 0 -64 -24 -64 -72v-136h-90z" />
    <glyph glyph-name="s.sups" horiz-adv-x="357" 
d="M28 508h89c1 -20 22 -34 59 -34h6c32 0 50 7 50 22c0 12 -11 20 -40 25l-55 12c-63 12 -96 36 -96 81c0 59 57 91 137 91c95 0 143 -37 148 -97h-88c-1 21 -22 34 -57 34h-7c-28 0 -46 -8 -46 -21c0 -12 12 -19 40 -24l59 -13c63 -12 93 -37 93 -85
c0 -59 -57 -89 -141 -89c-93 0 -146 34 -151 98z" />
    <glyph glyph-name="t.sups" horiz-adv-x="301" 
d="M84 496v130h-68v74h68v90h90v-90h85v-74h-85v-104c0 -25 7 -31 32 -31h64v-76h-105c-53 0 -81 29 -81 81z" />
    <glyph glyph-name="u.sups" horiz-adv-x="411" 
d="M49 535v165h90v-158c0 -40 18 -60 54 -60h6c40 0 70 27 70 71v147h89v-285h-89v40c-23 -32 -59 -45 -100 -45c-80 0 -120 48 -120 125z" />
    <glyph glyph-name="v.sups" horiz-adv-x="375" 
d="M134 415l-129 285h94l89 -203l91 203h91l-129 -285h-107z" />
    <glyph glyph-name="w.sups" horiz-adv-x="525" 
d="M124 415l-106 285h89l58 -171l60 171h83l60 -171l55 171h84l-105 -285h-76l-62 176l-59 -176h-81z" />
    <glyph glyph-name="x.sups" horiz-adv-x="380" 
d="M19 415l122 143l-121 142h101l70 -84l70 84h99l-121 -141l123 -144h-100l-72 85l-73 -85h-98z" />
    <glyph glyph-name="y.sups" horiz-adv-x="375" 
d="M32 300v74h90c20 0 28 6 28 23v34l-150 269h99l91 -174l90 174h95l-141 -256v-67c0 -51 -26 -77 -78 -77h-124z" />
    <glyph glyph-name="z.sups" horiz-adv-x="366" 
d="M37 415v62l160 148h-157v75h282v-63l-159 -147h168v-75h-294z" />
    <glyph glyph-name="uni0394" unicode="&#x394;" horiz-adv-x="793" 
d="M466 700l305 -614v-86h-748v86l304 614h139zM397 594l-246 -490h492z" />
    <glyph glyph-name="uni03A9" unicode="&#x3a9;" horiz-adv-x="912" 
d="M70 0v104h128c-84 59 -134 147 -134 260c-3 203 172 348 392 346c221 2 395 -143 391 -346c0 -115 -49 -201 -136 -260h131v-104h-301v104c112 26 185 119 185 250c0 154 -109 249 -264 249h-12c-154 0 -264 -95 -264 -249c0 -129 74 -224 186 -250v-104h-302z" />
    <glyph glyph-name="uni03BC" unicode="&#x3bc;" horiz-adv-x="655" 
d="M74 -200v700h117v-288c0 -84 43 -128 114 -128h11c91 0 148 62 148 157v259h117v-500h-117v77c-36 -53 -95 -87 -178 -87c-36 0 -68 5 -95 16v-206h-117z" />
    <glyph glyph-name="pi" unicode="&#x3c0;" horiz-adv-x="806" 
d="M148 0v404h-131v96h742v-96h-134v-266c0 -31 11 -40 40 -40h93v-98h-133c-72 0 -117 37 -117 105v299h-242v-404h-118z" />
    <glyph glyph-name="zero" unicode="0" horiz-adv-x="763" 
d="M57 350c0 238 140 360 324 360c185 0 326 -122 326 -360s-141 -360 -326 -360c-184 0 -324 121 -324 360zM375 94h13c94 0 197 66 197 256c0 192 -103 256 -197 256h-13c-94 0 -196 -64 -196 -256c0 -190 102 -256 196 -256z" />
    <glyph glyph-name="one" unicode="1" horiz-adv-x="440" 
d="M246 700h97v-700h-117v550l-192 -158v132z" />
    <glyph glyph-name="two" unicode="2" horiz-adv-x="673" 
d="M192 109h423v-109h-557v150l290 197c104 71 137 101 140 158c0 61 -58 101 -143 101h-14c-85 0 -138 -53 -142 -121h-125c4 135 117 225 274 225c159 0 272 -76 272 -199c-4 -109 -64 -162 -192 -249z" />
    <glyph glyph-name="three" unicode="3" horiz-adv-x="690" 
d="M50 188h125c11 -59 75 -94 158 -94h14c96 0 160 41 160 105c0 61 -58 99 -153 99h-100v104h100c96 0 148 44 148 104c0 62 -60 100 -155 100h-14c-77 0 -138 -41 -146 -97h-125c4 114 117 201 280 201c171 0 282 -77 282 -191c0 -85 -54 -137 -123 -165
c67 -20 128 -76 128 -159c0 -126 -114 -205 -287 -205c-168 0 -286 79 -292 198z" />
    <glyph glyph-name="four" unicode="4" 
d="M555 251h132v-103h-132v-148h-118v148h-405v120l386 432h137v-449zM153 251h284v316z" />
    <glyph glyph-name="five" unicode="5" horiz-adv-x="667" 
d="M613 222c0 -141 -113 -232 -285 -232c-162 0 -274 70 -290 201h125c15 -61 77 -97 156 -97h14c98 0 158 52 158 125s-62 121 -153 121h-14c-55 0 -111 -21 -138 -61h-125l86 421h448v-109h-358l-39 -191c41 29 98 44 157 44c155 0 258 -91 258 -222z" />
    <glyph glyph-name="six" unicode="6" horiz-adv-x="722" 
d="M659 233c0 -147 -121 -243 -297 -243c-193 0 -306 106 -306 327c-2 220 145 396 344 393c147 0 254 -72 270 -186h-125c-10 42 -59 82 -138 82h-14c-110 0 -194 -85 -218 -213c47 49 122 77 205 77c152 0 279 -86 279 -237zM536 229c0 90 -75 136 -165 136h-14
c-93 0 -170 -45 -170 -136c0 -85 77 -135 170 -135h14c90 0 165 48 165 135z" />
    <glyph glyph-name="seven" unicode="7" horiz-adv-x="634" 
d="M25 700h577v-117c-209 -104 -312 -279 -312 -563v-20h-122v29c0 259 110 455 277 562h-420v109z" />
    <glyph glyph-name="eight" unicode="8" horiz-adv-x="676" 
d="M79 180c0 80 62 142 124 160c-70 16 -148 78 -148 172c0 114 118 198 283 198s283 -81 283 -198c0 -94 -78 -156 -148 -172c61 -18 124 -80 124 -160c0 -114 -109 -190 -259 -190s-259 76 -259 190zM331 396h14c94 0 154 42 154 106c0 65 -58 104 -154 104h-14
c-96 0 -154 -39 -154 -104c0 -64 60 -106 154 -106zM331 94h14c79 0 130 41 130 97c0 59 -51 101 -130 101h-14c-79 0 -130 -42 -130 -101c0 -56 51 -97 130 -97z" />
    <glyph glyph-name="nine" unicode="9" horiz-adv-x="722" 
d="M63 467c0 147 121 243 297 243c193 0 306 -106 306 -327c2 -220 -145 -396 -344 -393c-147 0 -254 72 -270 186h125c10 -42 59 -82 138 -82h14c110 0 194 85 218 213c-47 -49 -122 -77 -205 -77c-152 0 -279 86 -279 237zM186 471c0 -90 75 -136 165 -136h14
c93 0 170 45 170 136c0 85 -77 135 -170 135h-14c-90 0 -165 -48 -165 -135z" />
    <glyph glyph-name="uni24FF" unicode="&#x24ff;" horiz-adv-x="1036" 
d="M994 351c5 -220 -207 -394 -472 -391c-265 -3 -477 171 -472 391c-5 219 207 394 472 390c265 4 477 -171 472 -390zM333 354c0 -113 63 -202 189 -202c123 0 189 90 189 202c0 115 -66 203 -189 203c-125 0 -189 -88 -189 -203zM525 233h-6c-60 0 -91 44 -91 121
c0 79 31 123 91 123h6c57 0 91 -44 91 -123c0 -76 -34 -121 -91 -121z" />
    <glyph glyph-name="uni2776" unicode="&#x2776;" horiz-adv-x="1036" 
d="M994 351c5 -220 -207 -394 -472 -391c-265 -3 -477 171 -472 391c-5 219 207 394 472 390c265 4 477 -171 472 -390zM491 440v-283h93v395h-77l-152 -102v-98z" />
    <glyph glyph-name="uni2777" unicode="&#x2777;" horiz-adv-x="1036" 
d="M994 351c5 -220 -207 -394 -472 -391c-265 -3 -477 171 -472 391c-5 219 207 394 472 390c265 4 477 -171 472 -390zM357 237v-79h327v80l-194 -1l105 78c58 42 88 76 88 127c0 60 -63 116 -158 116c-94 0 -164 -52 -168 -128h94c1 29 30 49 66 49h6c37 0 62 -18 62 -42
c0 -23 -13 -39 -54 -68z" />
    <glyph glyph-name="uni2778" unicode="&#x2778;" horiz-adv-x="1036" 
d="M994 351c5 -220 -207 -394 -472 -391c-265 -3 -477 171 -472 391c-5 219 207 394 472 390c265 4 477 -171 472 -390zM352 271c0 -73 70 -117 166 -117c95 0 168 42 168 114c0 40 -23 74 -67 91c43 16 64 48 64 88c0 69 -71 112 -163 112s-162 -46 -162 -118h95
c3 23 28 40 64 40h5c43 0 66 -17 66 -42c0 -27 -24 -44 -65 -44h-57v-76h57c43 0 68 -16 68 -43s-27 -45 -70 -45h-6c-39 0 -66 16 -69 40h-94z" />
    <glyph glyph-name="uni2779" unicode="&#x2779;" horiz-adv-x="1036" 
d="M994 351c5 -220 -207 -394 -472 -391c-265 -3 -477 171 -472 391c-5 219 207 394 472 390c265 4 477 -171 472 -390zM529 229v-72h87v72h67v76h-67v247h-100l-210 -231v-92h223zM529 305h-135l135 145v-145z" />
    <glyph glyph-name="uni277A" unicode="&#x277a;" horiz-adv-x="1036" 
d="M994 351c5 -220 -207 -394 -472 -391c-265 -3 -477 171 -472 391c-5 219 207 394 472 390c265 4 477 -171 472 -390zM342 271c6 -71 74 -119 168 -119c100 0 169 55 169 138c0 77 -68 125 -142 125c-35 0 -61 -8 -82 -21l18 79h199v79h-268l-49 -236h94
c14 14 35 21 64 21h5c40 0 66 -20 66 -51s-28 -55 -68 -55h-6c-36 0 -61 16 -69 40h-99z" />
    <glyph glyph-name="uni277B" unicode="&#x277b;" horiz-adv-x="1036" 
d="M994 351c5 -220 -207 -394 -472 -391c-265 -3 -477 171 -472 391c-5 219 207 394 472 390c265 4 477 -171 472 -390zM329 336c0 -115 68 -184 178 -184c100 0 168 57 168 138c0 75 -65 127 -152 127c-44 0 -79 -12 -104 -37c11 57 49 99 101 99h6c33 0 56 -15 63 -38h94
c-8 67 -64 116 -159 116c-114 0 -195 -91 -195 -221zM509 231h-6c-44 0 -74 23 -74 55s31 55 74 55h6c43 0 73 -22 73 -55c0 -32 -30 -55 -73 -55z" />
    <glyph glyph-name="uni277C" unicode="&#x277c;" horiz-adv-x="1036" 
d="M994 351c5 -220 -207 -394 -472 -391c-265 -3 -477 171 -472 391c-5 219 207 394 472 390c265 4 477 -171 472 -390zM433 175v-18h98v19c0 137 38 224 155 302v74h-324v-79h210c-99 -83 -139 -171 -139 -298z" />
    <glyph glyph-name="uni277D" unicode="&#x277d;" horiz-adv-x="1036" 
d="M994 351c5 -220 -207 -394 -472 -391c-265 -3 -477 171 -472 391c-5 219 207 394 472 390c265 4 477 -171 472 -390zM367 262c0 -62 64 -110 155 -110s154 47 154 110c0 39 -24 72 -67 88c48 17 77 51 77 95c0 67 -71 112 -164 112s-165 -47 -165 -112
c0 -44 28 -78 77 -95c-43 -16 -67 -49 -67 -88zM525 391h-6c-43 0 -67 16 -67 44s24 44 67 44h6c40 0 66 -17 66 -44c0 -28 -26 -44 -66 -44zM525 231h-6c-36 0 -59 16 -59 41s23 42 59 42h6c33 0 57 -17 57 -42s-22 -41 -57 -41z" />
    <glyph glyph-name="uni277E" unicode="&#x277e;" horiz-adv-x="1036" 
d="M994 351c5 -220 -207 -394 -472 -391c-265 -3 -477 171 -472 391c-5 219 207 394 472 390c265 4 477 -171 472 -390zM349 269c8 -67 66 -116 160 -116c114 0 194 89 194 221c0 115 -66 184 -178 184c-99 0 -168 -57 -168 -138c0 -73 64 -128 152 -128c45 0 79 13 104 38
c-11 -57 -49 -99 -100 -99h-7c-33 0 -56 14 -63 38h-94zM529 369h-6c-41 0 -72 22 -72 55c0 32 29 55 72 55h6c44 0 75 -22 75 -55c0 -32 -32 -55 -75 -55z" />
    <glyph glyph-name="uni24EA" unicode="&#x24ea;" horiz-adv-x="1043" 
d="M50 351c-5 219 207 394 472 390c265 4 477 -171 472 -390c5 -220 -207 -394 -472 -391c-265 -3 -477 171 -472 391zM904 351c4 171 -171 311 -382 308c-211 3 -387 -137 -383 -308c-4 -173 172 -312 383 -309c211 -3 386 136 382 309zM332 354c0 114 64 203 189 203
c124 0 190 -89 190 -203c0 -113 -66 -202 -190 -202c-125 0 -189 89 -189 202zM519 232h5c59 0 92 46 92 122c0 77 -33 122 -92 122h-5c-61 0 -92 -45 -92 -122s31 -122 92 -122z" />
    <glyph glyph-name="uni2460" unicode="&#x2460;" horiz-adv-x="1043" 
d="M50 351c-5 219 207 394 472 390c265 4 477 -171 472 -390c5 -220 -207 -394 -472 -391c-265 -3 -477 171 -472 391zM904 351c4 171 -171 311 -382 308c-211 3 -387 -137 -383 -308c-4 -173 172 -312 383 -309c211 -3 386 136 382 309zM491 157v283l-137 -89v99l153 102
h77v-395h-93z" />
    <glyph glyph-name="uni2461" unicode="&#x2461;" horiz-adv-x="1043" 
d="M50 351c-5 219 207 394 472 390c265 4 477 -171 472 -390c5 -220 -207 -394 -472 -391c-265 -3 -477 171 -472 391zM904 351c4 171 -171 311 -382 308c-211 3 -387 -137 -383 -308c-4 -173 172 -312 383 -309c211 -3 386 136 382 309zM356 158v79l174 132
c41 29 55 44 55 68s-26 42 -63 42h-5c-37 0 -65 -21 -66 -49h-94c2 76 73 128 168 128s158 -56 158 -116c0 -54 -32 -84 -89 -128l-104 -77h193v-79h-327z" />
    <glyph glyph-name="uni2462" unicode="&#x2462;" horiz-adv-x="1043" 
d="M50 351c-5 219 207 394 472 390c265 4 477 -171 472 -390c5 -220 -207 -394 -472 -391c-265 -3 -477 171 -472 391zM904 351c4 171 -171 311 -382 308c-211 3 -387 -137 -383 -308c-4 -173 172 -312 383 -309c211 -3 386 136 382 309zM351 271h95c1 -24 29 -40 68 -40h7
c43 0 70 18 70 45s-25 43 -69 43h-57v76h57c43 0 65 16 65 43s-22 42 -65 42h-6c-35 0 -61 -16 -64 -39h-94c-2 73 70 117 162 117c91 0 163 -43 163 -112c0 -39 -21 -71 -64 -88c44 -16 67 -51 67 -90c0 -73 -75 -115 -169 -115s-166 44 -166 118z" />
    <glyph glyph-name="uni2463" unicode="&#x2463;" horiz-adv-x="1043" 
d="M50 351c-5 219 207 394 472 390c265 4 477 -171 472 -390c5 -220 -207 -394 -472 -391c-265 -3 -477 171 -472 391zM904 351c4 171 -171 311 -382 308c-211 3 -387 -137 -383 -308c-4 -173 172 -312 383 -309c211 -3 386 136 382 309zM528 157v72h-223v92l210 231h100
v-247h67v-76h-67v-72h-87zM393 305h135v144z" />
    <glyph glyph-name="uni2464" unicode="&#x2464;" horiz-adv-x="1043" 
d="M50 351c-5 219 207 394 472 390c265 4 477 -171 472 -390c5 -220 -207 -394 -472 -391c-265 -3 -477 171 -472 391zM904 351c4 171 -171 311 -382 308c-211 3 -387 -137 -383 -308c-4 -173 172 -312 383 -309c211 -3 386 136 382 309zM342 271h98c8 -25 34 -40 70 -40h5
c41 0 69 23 69 55c0 29 -27 50 -67 50h-5c-29 0 -50 -7 -63 -20h-95l49 236h268v-80h-198l-18 -79c21 15 46 22 82 22c75 0 141 -49 141 -125c0 -84 -68 -138 -168 -138c-97 0 -162 46 -168 119z" />
    <glyph glyph-name="uni2465" unicode="&#x2465;" horiz-adv-x="1043" 
d="M50 351c-5 219 207 394 472 390c265 4 477 -171 472 -390c5 -220 -207 -394 -472 -391c-265 -3 -477 171 -472 391zM904 351c4 171 -171 311 -382 308c-211 3 -387 -137 -383 -308c-4 -173 172 -312 383 -309c211 -3 386 136 382 309zM329 335c0 132 80 222 194 222
c94 0 152 -48 160 -117h-95c-7 24 -28 38 -63 38h-6c-51 0 -90 -42 -101 -99c25 25 60 38 105 38c86 0 152 -54 152 -127c0 -81 -69 -138 -168 -138c-111 0 -178 69 -178 183zM502 230h6c44 0 73 23 73 56c0 32 -29 55 -73 55h-6c-41 0 -73 -23 -73 -55c0 -33 30 -56 73 -56
z" />
    <glyph glyph-name="uni2466" unicode="&#x2466;" horiz-adv-x="1043" 
d="M50 351c-5 219 207 394 472 390c265 4 477 -171 472 -390c5 -220 -207 -394 -472 -391c-265 -3 -477 171 -472 391zM904 351c4 171 -171 311 -382 308c-211 3 -387 -137 -383 -308c-4 -173 172 -312 383 -309c211 -3 386 136 382 309zM432 157v18c0 125 40 214 140 297
h-210v80h323v-74c-116 -80 -155 -166 -155 -302v-19h-98z" />
    <glyph glyph-name="uni2467" unicode="&#x2467;" horiz-adv-x="1043" 
d="M50 351c-5 219 207 394 472 390c265 4 477 -171 472 -390c5 -220 -207 -394 -472 -391c-265 -3 -477 171 -472 391zM904 351c4 171 -171 311 -382 308c-211 3 -387 -137 -383 -308c-4 -173 172 -312 383 -309c211 -3 386 136 382 309zM366 262c0 39 26 72 67 88
c-48 16 -77 51 -77 95c0 64 74 112 165 112c93 0 164 -48 164 -112c0 -44 -28 -79 -76 -95c41 -16 66 -49 66 -88c0 -64 -63 -110 -154 -110c-89 0 -155 46 -155 110zM518 390h6c41 0 67 17 67 44c0 28 -26 44 -67 44h-6c-43 0 -67 -16 -67 -44s26 -44 67 -44zM518 230h6
c35 0 58 17 58 41c0 25 -23 43 -58 43h-6c-35 0 -58 -16 -58 -43c0 -24 22 -41 58 -41z" />
    <glyph glyph-name="uni2468" unicode="&#x2468;" horiz-adv-x="1043" 
d="M50 351c-5 219 207 394 472 390c265 4 477 -171 472 -390c5 -220 -207 -394 -472 -391c-265 -3 -477 171 -472 391zM904 351c4 171 -171 311 -382 308c-211 3 -387 -137 -383 -308c-4 -173 172 -312 383 -309c211 -3 386 136 382 309zM349 269h94c7 -24 28 -38 63 -38h6
c51 0 90 40 101 99c-25 -25 -60 -38 -105 -38c-86 0 -152 54 -152 128c0 80 69 137 169 137c110 0 178 -69 178 -183c0 -132 -81 -222 -195 -222c-95 0 -151 48 -159 117zM523 368h6c43 0 74 23 74 55c0 33 -30 56 -74 56h-6c-43 0 -73 -23 -73 -56c0 -32 30 -55 73 -55z
" />
    <glyph glyph-name="zero.onum" horiz-adv-x="700" 
d="M52 250c-3 151 137 262 298 260c164 0 298 -107 298 -260s-134 -260 -298 -260s-298 107 -298 260zM348 86h7c95 0 174 61 174 164s-79 164 -174 164h-10c-94 0 -174 -61 -174 -164s83 -164 177 -164z" />
    <glyph glyph-name="one.onum" horiz-adv-x="450" 
d="M249 0v364l-205 -158v118l228 176h89v-500h-112z" />
    <glyph glyph-name="two.onum" horiz-adv-x="562" 
d="M369 188l-163 -90h287v-98h-431v133l249 138c60 35 72 41 76 80c0 37 -40 63 -99 63h-9c-55 0 -100 -33 -100 -79h-118c0 96 96 175 222 175c130 0 223 -65 223 -155c0 -73 -40 -112 -137 -167z" />
    <glyph glyph-name="three.onum" horiz-adv-x="665" 
d="M43 -11h123c6 -65 73 -103 156 -103h13c92 0 155 45 155 111c0 63 -55 105 -148 105h-102v99h102c92 0 143 44 143 106c0 66 -57 107 -150 107h-13c-80 0 -142 -46 -146 -105h-120c2 115 114 201 274 201c167 0 274 -78 274 -191c0 -85 -57 -140 -126 -167
c69 -20 131 -74 131 -159c0 -125 -111 -203 -279 -203c-165 0 -281 79 -287 199z" />
    <glyph glyph-name="four.onum" horiz-adv-x="717" 
d="M439 -200v200h-399v114l387 386h129v-402h130v-98h-130v-200h-117zM163 98h276v274z" />
    <glyph glyph-name="five.onum" horiz-adv-x="655" 
d="M608 23c0 -141 -112 -232 -287 -232c-159 0 -277 71 -289 201h120c14 -64 81 -105 162 -105h14c99 0 162 57 162 133c0 69 -64 121 -157 121h-14c-53 0 -112 -24 -140 -61h-122l85 421h447v-98h-360l-44 -210c44 28 102 44 155 44c166 0 268 -88 268 -214z" />
    <glyph glyph-name="six.onum" horiz-adv-x="716" 
d="M652 230c0 -143 -121 -240 -291 -240c-186 0 -306 124 -306 337c-4 219 160 387 343 383c146 0 243 -68 269 -186h-119c-16 56 -68 90 -144 90h-10c-116 0 -205 -95 -227 -239c47 56 126 87 213 87c149 2 275 -96 272 -232zM534 225c0 85 -76 141 -166 141h-10
c-90 0 -170 -59 -170 -140c0 -78 80 -140 170 -140h10c90 0 166 57 166 139z" />
    <glyph glyph-name="seven.onum" horiz-adv-x="623" 
d="M19 500h576v-107c-211 -110 -313 -282 -313 -573v-20h-118v29c0 270 113 467 290 573h-435v98z" />
    <glyph glyph-name="eight.onum" horiz-adv-x="666" 
d="M78 181c0 79 64 139 124 159c-69 16 -147 78 -147 172c0 114 114 198 278 198c163 0 277 -81 277 -198c0 -94 -76 -156 -145 -172c60 -20 123 -79 123 -159c0 -115 -104 -191 -255 -191c-149 0 -255 76 -255 191zM326 392h14c95 0 152 42 152 111c0 68 -59 111 -152 111
h-14c-94 0 -152 -43 -152 -111c0 -69 57 -111 152 -111zM326 86h14c79 0 130 43 130 102c0 65 -51 107 -130 107h-14c-78 0 -129 -42 -129 -107c0 -59 51 -102 129 -102z" />
    <glyph glyph-name="nine.onum" horiz-adv-x="702" 
d="M55 271c0 143 121 240 291 240c186 0 306 -124 306 -337c4 -219 -160 -387 -343 -383c-146 0 -243 68 -269 186h119c16 -56 68 -90 144 -90h10c116 0 205 95 227 239c-47 -56 -126 -87 -213 -87c-149 -2 -275 96 -272 232zM173 276c0 -85 76 -141 166 -141h10
c90 0 170 59 170 140c0 78 -80 140 -170 140h-10c-90 0 -166 -57 -166 -139z" />
    <glyph glyph-name="zero.onum_zero" horiz-adv-x="700" 
d="M648 250c0 -153 -134 -260 -298 -260s-298 107 -298 260c-3 151 137 262 298 260c164 0 298 -107 298 -260zM171 250c0 -33 8 -62 24 -87l242 233c-25 12 -53 18 -82 18h-10c-94 0 -174 -61 -174 -164zM529 250c0 33 -8 63 -24 88l-241 -234c25 -12 53 -18 84 -18h7
c95 0 174 61 174 164z" />
    <glyph glyph-name="zero.tnum" 
d="M51 350c0 238 138 360 309 360s309 -122 309 -360s-138 -360 -309 -360c-172 0 -309 122 -309 360zM353 94h14c86 0 181 66 181 256c0 192 -95 256 -181 256h-14c-84 0 -181 -64 -181 -256c0 -190 97 -256 181 -256z" />
    <glyph glyph-name="one.tnum" 
d="M466 108h201v-108h-604v108h285v443l-194 -157v130l214 176h98v-592z" />
    <glyph glyph-name="two.tnum" 
d="M215 109h423v-109h-557v150l290 197c104 71 137 101 140 158c0 61 -58 101 -143 101h-14c-85 0 -138 -53 -142 -121h-125c4 135 117 225 274 225c159 0 272 -76 272 -199c-4 -109 -64 -162 -192 -249z" />
    <glyph glyph-name="three.tnum" 
d="M65 188h125c11 -59 75 -94 158 -94h14c96 0 160 41 160 105c0 61 -58 99 -153 99h-100v104h100c96 0 148 44 148 104c0 62 -60 100 -155 100h-14c-77 0 -138 -41 -146 -97h-125c4 114 117 201 280 201c171 0 282 -77 282 -191c0 -85 -54 -137 -123 -165
c67 -20 128 -76 128 -159c0 -126 -114 -205 -287 -205c-168 0 -286 79 -292 198z" />
    <glyph glyph-name="four.tnum" 
d="M530 251h132v-103h-132v-148h-118v148h-355v120l336 432h137v-449zM173 251h239v309z" />
    <glyph glyph-name="five.tnum" 
d="M640 222c0 -141 -113 -232 -285 -232c-162 0 -274 70 -290 201h125c15 -61 77 -97 156 -97h14c98 0 158 52 158 125s-62 121 -153 121h-14c-55 0 -111 -21 -138 -61h-125l86 421h448v-109h-358l-39 -191c41 29 98 44 157 44c155 0 258 -91 258 -222z" />
    <glyph glyph-name="six.tnum" 
d="M636 233c0 -147 -110 -243 -275 -243c-180 0 -287 106 -287 327c-2 220 140 396 322 393c141 0 237 -69 253 -186h-125c-11 48 -51 82 -122 82h-14c-94 0 -172 -84 -196 -211c45 48 114 75 187 75c142 0 257 -86 257 -237zM514 229c0 90 -65 136 -146 136h-14
c-80 0 -149 -45 -149 -136c0 -85 69 -135 149 -135h14c81 0 146 48 146 135z" />
    <glyph glyph-name="seven.tnum" 
d="M43 700h626v-117c-223 -107 -342 -284 -342 -563v-20h-122v29c0 258 126 453 305 562h-467v109z" />
    <glyph glyph-name="eight.tnum" 
d="M101 180c0 80 62 142 124 160c-70 16 -148 78 -148 172c0 114 118 198 283 198s283 -81 283 -198c0 -94 -78 -156 -148 -172c61 -18 124 -80 124 -160c0 -114 -109 -190 -259 -190s-259 76 -259 190zM353 396h14c94 0 154 42 154 106c0 65 -58 104 -154 104h-14
c-96 0 -154 -39 -154 -104c0 -64 60 -106 154 -106zM353 94h14c79 0 130 41 130 97c0 59 -51 101 -130 101h-14c-79 0 -130 -42 -130 -101c0 -56 51 -97 130 -97z" />
    <glyph glyph-name="nine.tnum" 
d="M84 467c0 147 110 243 275 243c180 0 287 -106 287 -327c2 -220 -140 -396 -322 -393c-141 0 -237 69 -253 186h125c11 -48 51 -82 122 -82h14c94 0 172 84 196 211c-45 -48 -114 -75 -187 -75c-142 0 -257 86 -257 237zM206 471c0 -90 65 -136 146 -136h14
c80 0 149 45 149 136c0 85 -69 135 -149 135h-14c-81 0 -146 -48 -146 -135z" />
    <glyph glyph-name="zero.tnum_zero" 
d="M669 350c0 -238 -138 -360 -309 -360c-172 0 -309 122 -309 360s138 360 309 360s309 -122 309 -360zM172 350c0 -39 4 -74 12 -106l309 302c-35 41 -81 60 -126 60h-14c-84 0 -181 -64 -181 -256zM548 350c0 36 -3 69 -10 99l-307 -299c35 -39 79 -56 122 -56h14
c86 0 181 66 181 256z" />
    <glyph glyph-name="zero.zero" horiz-adv-x="763" 
d="M707 350c0 -238 -141 -360 -326 -360c-184 0 -324 121 -324 360c0 238 140 360 324 360c185 0 326 -122 326 -360zM179 350c0 -45 6 -86 17 -121l320 327c-36 35 -83 50 -128 50h-13c-94 0 -196 -64 -196 -256zM585 350c0 45 -6 85 -17 118l-318 -326
c35 -33 80 -48 125 -48h13c94 0 197 66 197 256z" />
    <glyph glyph-name="zero.subs" horiz-adv-x="455" 
d="M38 82c0 114 64 203 190 203c123 0 189 -89 189 -203c0 -113 -66 -202 -189 -202c-127 0 -190 89 -190 202zM225 -40h5c59 0 92 46 92 122c0 77 -33 122 -92 122h-5c-61 0 -92 -45 -92 -122s31 -122 92 -122z" />
    <glyph glyph-name="one.subs" horiz-adv-x="319" 
d="M163 -115v283l-136 -89v99l152 102h77v-395h-93z" />
    <glyph glyph-name="two.subs" horiz-adv-x="408" 
d="M39 -114v79l173 132c41 29 55 44 55 68s-26 42 -62 42h-6c-37 0 -65 -21 -66 -49h-94c4 76 72 128 168 128c95 0 158 -56 158 -116c0 -54 -32 -84 -89 -128l-104 -77h193v-79h-326z" />
    <glyph glyph-name="three.subs" horiz-adv-x="410" 
d="M34 -1h95c1 -24 29 -40 68 -40h7c43 0 70 18 70 45s-25 43 -68 43h-58v76h58c41 0 65 16 65 44c0 25 -23 41 -66 41h-6c-35 0 -61 -16 -64 -39h-94c0 73 69 117 162 117c92 0 163 -43 163 -112c0 -39 -21 -71 -64 -88c44 -16 67 -51 67 -90c0 -73 -74 -115 -169 -115
c-94 0 -166 44 -166 118z" />
    <glyph glyph-name="four.subs" horiz-adv-x="432" 
d="M249 -115v72h-224v92l210 231h100v-247h67v-76h-67v-72h-86zM113 33h136v144z" />
    <glyph glyph-name="five.subs" horiz-adv-x="404" 
d="M29 -1h98c8 -25 34 -40 70 -40h5c41 0 69 23 69 55c0 29 -27 50 -67 50h-5c-29 0 -50 -7 -63 -20h-94l48 236h268v-80h-198l-18 -79c21 15 46 22 82 22c75 0 141 -49 141 -125c0 -84 -68 -138 -168 -138c-97 0 -162 46 -168 119z" />
    <glyph glyph-name="six.subs" horiz-adv-x="427" 
d="M37 63c0 132 81 222 195 222c95 0 151 -48 159 -117h-94c-7 24 -30 38 -63 38h-6c-52 0 -90 -42 -101 -99c25 25 60 38 104 38c87 0 152 -54 152 -127c0 -81 -68 -138 -168 -138c-110 0 -178 69 -178 183zM211 -42h6c43 0 73 23 73 56c0 32 -30 55 -73 55h-6
c-43 0 -74 -23 -74 -55c0 -33 30 -56 74 -56z" />
    <glyph glyph-name="seven.subs" horiz-adv-x="363" 
d="M92 -115v18c0 125 40 214 140 297h-210v80h323v-74c-115 -78 -155 -166 -155 -302v-19h-98z" />
    <glyph glyph-name="eight.subs" horiz-adv-x="406" 
d="M48 -10c0 39 26 72 67 88c-48 16 -76 51 -76 95c0 64 72 112 165 112c92 0 163 -48 163 -112c0 -44 -28 -79 -76 -95c41 -16 66 -49 66 -88c0 -64 -63 -110 -153 -110c-91 0 -156 46 -156 110zM200 118h7c40 0 66 17 66 44c0 28 -26 44 -66 44h-7c-43 0 -67 -16 -67 -44
s26 -44 67 -44zM200 -42h7c33 0 57 17 57 42c0 24 -24 42 -57 42h-7c-35 0 -58 -17 -58 -42s22 -42 58 -42z" />
    <glyph glyph-name="nine.subs" horiz-adv-x="427" 
d="M36 -3h94c7 -24 28 -38 63 -38h6c51 0 90 40 101 99c-25 -25 -60 -38 -105 -38c-86 0 -152 54 -152 128c0 80 69 137 169 137c110 0 178 -69 178 -183c0 -132 -81 -222 -195 -222c-95 0 -151 48 -159 117zM210 96h6c43 0 74 23 74 55c0 33 -30 56 -74 56h-6
c-43 0 -73 -23 -73 -56c0 -32 30 -55 73 -55z" />
    <glyph glyph-name="zero.dnom" horiz-adv-x="455" 
d="M38 197c0 114 64 203 190 203c123 0 189 -89 189 -203c0 -112 -66 -202 -189 -202c-127 0 -190 89 -190 202zM225 76h5c59 0 92 45 92 121c0 77 -33 122 -92 122h-5c-61 0 -92 -45 -92 -122s31 -121 92 -121z" />
    <glyph glyph-name="one.dnom" horiz-adv-x="319" 
d="M164 0v283l-137 -89v99l153 102h77v-395h-93z" />
    <glyph glyph-name="two.dnom" horiz-adv-x="408" 
d="M39 0v79l174 132c41 29 55 45 55 68c0 24 -26 42 -63 42h-6c-36 0 -65 -21 -66 -49h-93c2 76 73 128 168 128c93 0 157 -56 157 -116c0 -54 -30 -85 -88 -127l-105 -78l194 1v-80h-327z" />
    <glyph glyph-name="three.dnom" horiz-adv-x="410" 
d="M34 113h95c1 -24 29 -40 68 -40h7c43 0 70 18 70 45s-25 43 -68 43h-58v75h58c41 0 65 17 65 44c0 25 -23 42 -66 42h-6c-35 0 -61 -18 -64 -39h-94c0 72 69 117 162 117c92 0 163 -43 163 -112c0 -40 -21 -72 -64 -88c44 -17 67 -51 67 -91c0 -71 -74 -114 -169 -114
c-94 0 -166 44 -166 118z" />
    <glyph glyph-name="four.dnom" horiz-adv-x="432" 
d="M249 0v72h-224v92l210 231h100v-247h67v-76h-67v-72h-86zM113 148h136v144z" />
    <glyph glyph-name="five.dnom" horiz-adv-x="404" 
d="M29 114h98c8 -24 34 -40 70 -40h5c41 0 69 23 69 55c0 29 -27 51 -67 51h-5c-29 0 -50 -7 -63 -21h-94l48 236h268v-80h-198l-18 -79c21 15 46 22 82 22c75 0 141 -48 141 -125c0 -84 -68 -138 -168 -138c-97 0 -162 46 -168 119z" />
    <glyph glyph-name="six.dnom" horiz-adv-x="427" 
d="M38 179c0 130 81 221 195 221c95 0 151 -49 159 -116h-94c-7 23 -30 37 -63 37h-6c-52 0 -90 -41 -101 -98c25 25 60 37 104 37c87 0 152 -53 152 -127c0 -81 -68 -138 -168 -138c-110 0 -178 69 -178 184zM212 74h6c43 0 73 22 73 55c0 32 -30 55 -73 55h-6
c-43 0 -74 -23 -74 -55c0 -33 30 -55 74 -55z" />
    <glyph glyph-name="seven.dnom" horiz-adv-x="363" 
d="M92 0v18c0 125 40 214 139 297h-210v80h324v-74c-117 -79 -155 -166 -155 -302v-19h-98z" />
    <glyph glyph-name="eight.dnom" horiz-adv-x="406" 
d="M48 105c0 39 26 72 67 88c-48 17 -76 51 -76 95c0 64 72 112 165 112c92 0 163 -46 163 -112c0 -44 -28 -78 -76 -95c41 -16 66 -49 66 -88c0 -64 -63 -110 -153 -110c-91 0 -156 47 -156 110zM200 233h7c40 0 66 17 66 44c0 28 -26 44 -66 44h-7c-43 0 -67 -16 -67 -44
s26 -44 67 -44zM200 74h7c33 0 57 16 57 41c0 24 -24 42 -57 42h-7c-35 0 -58 -17 -58 -42s22 -41 58 -41z" />
    <glyph glyph-name="nine.dnom" horiz-adv-x="427" 
d="M36 112h94c7 -24 28 -38 63 -38h6c51 0 90 40 101 99c-25 -25 -60 -38 -105 -38c-86 0 -152 55 -152 128c0 81 69 137 169 137c110 0 178 -69 178 -183c0 -132 -81 -221 -195 -221c-95 0 -151 47 -159 116zM210 211h6c43 0 74 24 74 56c0 33 -30 55 -74 55h-6
c-43 0 -73 -23 -73 -55c0 -33 30 -56 73 -56z" />
    <glyph glyph-name="zero.numr" horiz-adv-x="455" 
d="M38 502c0 114 64 203 190 203c123 0 189 -89 189 -203c0 -112 -66 -202 -189 -202c-127 0 -190 89 -190 202zM225 381h5c59 0 92 45 92 121c0 77 -33 122 -92 122h-5c-61 0 -92 -45 -92 -122s31 -121 92 -121z" />
    <glyph glyph-name="one.numr" horiz-adv-x="319" 
d="M163 305v283l-136 -88v98l152 102h77v-395h-93z" />
    <glyph glyph-name="two.numr" horiz-adv-x="408" 
d="M39 305v79l173 132c41 29 55 45 55 68c0 24 -26 42 -62 42h-6c-37 0 -65 -20 -66 -49h-94c4 76 72 128 168 128c95 0 158 -56 158 -116c0 -52 -32 -85 -89 -127l-104 -78l193 1v-80h-326z" />
    <glyph glyph-name="three.numr" horiz-adv-x="410" 
d="M34 418h95c1 -24 29 -40 68 -40h7c43 0 70 18 70 45s-25 43 -68 43h-58v76h58c41 0 65 16 65 43c0 25 -23 42 -66 42h-6c-35 0 -61 -18 -64 -39h-94c0 73 69 117 162 117c92 0 163 -43 163 -112c0 -40 -21 -71 -64 -88c44 -16 67 -51 67 -90c0 -73 -74 -115 -169 -115
c-94 0 -166 44 -166 118z" />
    <glyph glyph-name="four.numr" horiz-adv-x="432" 
d="M249 305v72h-224v92l210 231h100v-247h67v-76h-67v-72h-86zM113 453h136v145z" />
    <glyph glyph-name="five.numr" horiz-adv-x="404" 
d="M28 419h99c8 -24 33 -40 69 -40h6c40 0 69 24 69 55s-27 51 -67 51h-5c-29 0 -50 -7 -64 -21h-94l49 236h268v-79h-199l-18 -79c21 13 47 21 82 21c74 0 142 -48 142 -125c0 -84 -69 -138 -169 -138c-94 0 -162 48 -168 119z" />
    <glyph glyph-name="six.numr" horiz-adv-x="427" 
d="M38 484c0 130 81 221 195 221c95 0 151 -49 159 -116h-94c-7 23 -30 37 -63 37h-6c-52 0 -90 -41 -101 -98c25 25 60 37 104 37c87 0 152 -53 152 -127c0 -81 -68 -138 -168 -138c-110 0 -178 69 -178 184zM212 379h6c43 0 73 22 73 55c0 32 -30 55 -73 55h-6
c-43 0 -74 -23 -74 -55c0 -33 30 -55 74 -55z" />
    <glyph glyph-name="seven.numr" horiz-adv-x="363" 
d="M92 305v18c0 125 40 215 139 298h-210v79h324v-74c-117 -78 -155 -165 -155 -302v-19h-98z" />
    <glyph glyph-name="eight.numr" horiz-adv-x="406" 
d="M48 410c0 39 26 72 67 88c-48 17 -76 51 -76 95c0 64 72 112 165 112c92 0 163 -46 163 -112c0 -44 -28 -78 -76 -95c41 -16 66 -49 66 -88c0 -64 -63 -110 -153 -110c-91 0 -156 47 -156 110zM200 538h7c40 0 66 17 66 44c0 28 -26 44 -66 44h-7c-43 0 -67 -16 -67 -44
s26 -44 67 -44zM200 379h7c33 0 57 16 57 41c0 24 -24 42 -57 42h-7c-35 0 -58 -17 -58 -42s22 -41 58 -41z" />
    <glyph glyph-name="nine.numr" horiz-adv-x="427" 
d="M36 417h94c7 -24 28 -38 63 -38h6c51 0 90 40 101 99c-25 -25 -60 -38 -105 -38c-86 0 -152 55 -152 128c0 81 69 137 169 137c110 0 178 -69 178 -183c0 -132 -81 -221 -195 -221c-95 0 -151 47 -159 116zM210 516h6c43 0 74 24 74 56c0 33 -30 55 -74 55h-6
c-43 0 -73 -23 -73 -55c0 -33 30 -56 73 -56z" />
    <glyph glyph-name="uni2070" unicode="&#x2070;" horiz-adv-x="455" 
d="M38 612c0 114 64 203 190 203c123 0 189 -89 189 -203c0 -112 -66 -202 -189 -202c-127 0 -190 89 -190 202zM225 491h5c59 0 92 45 92 121c0 77 -33 122 -92 122h-5c-61 0 -92 -45 -92 -122s31 -121 92 -121z" />
    <glyph glyph-name="onesuperior" unicode="&#xb9;" horiz-adv-x="319" 
d="M164 415v283l-137 -89v99l153 102h77v-395h-93z" />
    <glyph glyph-name="twosuperior" unicode="&#xb2;" horiz-adv-x="408" 
d="M39 415v79l174 132c41 29 55 45 55 68c0 24 -26 42 -63 42h-6c-36 0 -65 -21 -66 -49h-93c2 76 73 128 168 128c93 0 157 -56 157 -116c0 -54 -30 -85 -88 -127l-105 -78l194 1v-80h-327z" />
    <glyph glyph-name="threesuperior" unicode="&#xb3;" horiz-adv-x="410" 
d="M34 528h95c1 -24 29 -40 68 -40h7c43 0 70 18 70 45s-25 43 -68 43h-58v75h58c41 0 65 17 65 44c0 25 -23 42 -66 42h-6c-35 0 -61 -18 -64 -39h-94c0 72 69 117 162 117c92 0 163 -43 163 -112c0 -40 -21 -72 -64 -88c44 -17 67 -51 67 -91c0 -71 -74 -114 -169 -114
c-94 0 -166 44 -166 118z" />
    <glyph glyph-name="uni2074" unicode="&#x2074;" horiz-adv-x="432" 
d="M249 415v72h-224v92l210 231h100v-247h67v-76h-67v-72h-86zM113 563h136v144z" />
    <glyph glyph-name="uni2075" unicode="&#x2075;" horiz-adv-x="404" 
d="M29 529h98c8 -24 34 -40 70 -40h5c41 0 69 23 69 55c0 29 -27 51 -67 51h-5c-29 0 -50 -7 -63 -21h-94l48 236h268v-80h-198l-18 -79c21 15 46 22 82 22c75 0 141 -48 141 -125c0 -84 -68 -138 -168 -138c-97 0 -162 46 -168 119z" />
    <glyph glyph-name="uni2076" unicode="&#x2076;" horiz-adv-x="427" 
d="M38 594c0 130 81 221 195 221c95 0 151 -49 159 -116h-94c-7 23 -30 37 -63 37h-6c-52 0 -90 -41 -101 -98c25 25 60 37 104 37c87 0 152 -53 152 -127c0 -81 -68 -138 -168 -138c-110 0 -178 69 -178 184zM212 489h6c43 0 73 22 73 55c0 32 -30 55 -73 55h-6
c-43 0 -74 -23 -74 -55c0 -33 30 -55 74 -55z" />
    <glyph glyph-name="uni2077" unicode="&#x2077;" horiz-adv-x="363" 
d="M92 415v18c0 125 40 214 139 297h-210v80h324v-74c-117 -79 -155 -166 -155 -302v-19h-98z" />
    <glyph glyph-name="uni2078" unicode="&#x2078;" horiz-adv-x="406" 
d="M48 520c0 39 26 72 67 88c-48 17 -76 51 -76 95c0 64 72 112 165 112c92 0 163 -46 163 -112c0 -44 -28 -78 -76 -95c41 -16 66 -49 66 -88c0 -64 -63 -110 -153 -110c-91 0 -156 47 -156 110zM200 648h7c40 0 66 17 66 44c0 28 -26 44 -66 44h-7c-43 0 -67 -16 -67 -44
s26 -44 67 -44zM200 489h7c33 0 57 16 57 41c0 24 -24 42 -57 42h-7c-35 0 -58 -17 -58 -42s22 -41 58 -41z" />
    <glyph glyph-name="uni2079" unicode="&#x2079;" horiz-adv-x="427" 
d="M36 527h94c7 -24 28 -38 63 -38h6c51 0 90 40 101 99c-25 -25 -60 -38 -105 -38c-86 0 -152 55 -152 128c0 81 69 137 169 137c110 0 178 -69 178 -183c0 -132 -81 -221 -195 -221c-95 0 -151 47 -159 116zM210 626h6c43 0 74 24 74 56c0 33 -30 55 -74 55h-6
c-43 0 -73 -23 -73 -55c0 -33 30 -56 73 -56z" />
    <glyph glyph-name="fraction" unicode="&#x2044;" horiz-adv-x="196" 
d="M-191 0l479 700h98l-479 -700h-98z" />
    <glyph glyph-name="uni215F" unicode="&#x215f;" horiz-adv-x="515" 
d="M163 305v283l-136 -88v98l152 102h77v-395h-93zM128 0l479 700h98l-479 -700h-98z" />
    <glyph glyph-name="onehalf" unicode="&#xbd;" horiz-adv-x="944" 
d="M163 305v283l-136 -88v98l152 102h77v-395h-93zM128 0l479 700h98l-479 -700h-98zM554 0v79l174 132c41 29 55 45 55 68c0 24 -26 42 -63 42h-6c-36 0 -65 -21 -66 -49h-93c2 76 73 128 168 128c93 0 157 -56 157 -116c0 -54 -30 -85 -88 -127l-105 -78l194 1v-80h-327z
" />
    <glyph glyph-name="onethird" unicode="&#x2153;" horiz-adv-x="946" 
d="M163 305v283l-136 -88v98l152 102h77v-395h-93zM128 0l479 700h98l-479 -700h-98zM549 113h95c1 -24 29 -40 68 -40h7c43 0 70 18 70 45s-25 43 -68 43h-58v75h58c41 0 65 17 65 44c0 25 -23 42 -66 42h-6c-35 0 -61 -18 -64 -39h-94c0 72 69 117 162 117
c92 0 163 -43 163 -112c0 -40 -21 -72 -64 -88c44 -17 67 -51 67 -91c0 -71 -74 -114 -169 -114c-94 0 -166 44 -166 118z" />
    <glyph glyph-name="twothirds" unicode="&#x2154;" horiz-adv-x="1014" 
d="M39 305v79l173 132c41 29 55 45 55 68c0 24 -26 42 -62 42h-6c-37 0 -65 -20 -66 -49h-94c4 76 72 128 168 128c95 0 158 -56 158 -116c0 -52 -32 -85 -89 -127l-104 -78l193 1v-80h-326zM217 0l479 700h98l-479 -700h-98zM638 113h95c1 -24 29 -40 68 -40h7
c43 0 70 18 70 45s-25 43 -68 43h-58v75h58c41 0 65 17 65 44c0 25 -23 42 -66 42h-6c-35 0 -61 -18 -64 -39h-94c0 72 69 117 162 117c92 0 163 -43 163 -112c0 -40 -21 -72 -64 -88c44 -17 67 -51 67 -91c0 -71 -74 -114 -169 -114c-94 0 -166 44 -166 118z" />
    <glyph glyph-name="onequarter" unicode="&#xbc;" horiz-adv-x="952" 
d="M163 305v283l-136 -88v98l152 102h77v-395h-93zM128 0l479 700h98l-479 -700h-98zM736 0v72h-224v92l210 231h100v-247h67v-76h-67v-72h-86zM600 148h136v144z" />
    <glyph glyph-name="threequarters" unicode="&#xbe;" horiz-adv-x="1022" 
d="M34 418h95c1 -24 29 -40 68 -40h7c43 0 70 18 70 45s-25 43 -68 43h-58v76h58c41 0 65 16 65 43c0 25 -23 42 -66 42h-6c-35 0 -61 -18 -64 -39h-94c0 73 69 117 162 117c92 0 163 -43 163 -112c0 -40 -21 -71 -64 -88c44 -16 67 -51 67 -90c0 -73 -74 -115 -169 -115
c-94 0 -166 44 -166 118zM219 0l479 700h98l-479 -700h-98zM828 0v72h-224v92l210 231h100v-247h67v-76h-67v-72h-86zM692 148h136v144z" />
    <glyph glyph-name="uni2155" unicode="&#x2155;" horiz-adv-x="942" 
d="M163 305v283l-136 -88v98l152 102h77v-395h-93zM128 0l479 700h98l-479 -700h-98zM544 114h98c8 -24 34 -40 70 -40h5c41 0 69 23 69 55c0 29 -27 51 -67 51h-5c-29 0 -50 -7 -63 -21h-94l48 236h268v-80h-198l-18 -79c21 15 46 22 82 22c75 0 141 -48 141 -125
c0 -84 -68 -138 -168 -138c-97 0 -162 46 -168 119z" />
    <glyph glyph-name="uni2156" unicode="&#x2156;" horiz-adv-x="1011" 
d="M39 305v79l173 132c41 29 55 45 55 68c0 24 -26 42 -62 42h-6c-37 0 -65 -20 -66 -49h-94c4 76 72 128 168 128c95 0 158 -56 158 -116c0 -52 -32 -85 -89 -127l-104 -78l193 1v-80h-326zM217 0l479 700h98l-479 -700h-98zM633 114h98c8 -24 34 -40 70 -40h5
c41 0 69 23 69 55c0 29 -27 51 -67 51h-5c-29 0 -50 -7 -63 -21h-94l48 236h268v-80h-198l-18 -79c21 15 46 22 82 22c75 0 141 -48 141 -125c0 -84 -68 -138 -168 -138c-97 0 -162 46 -168 119z" />
    <glyph glyph-name="uni2157" unicode="&#x2157;" horiz-adv-x="1013" 
d="M34 418h95c1 -24 29 -40 68 -40h7c43 0 70 18 70 45s-25 43 -68 43h-58v76h58c41 0 65 16 65 43c0 25 -23 42 -66 42h-6c-35 0 -61 -18 -64 -39h-94c0 73 69 117 162 117c92 0 163 -43 163 -112c0 -40 -21 -71 -64 -88c44 -16 67 -51 67 -90c0 -73 -74 -115 -169 -115
c-94 0 -166 44 -166 118zM219 0l479 700h98l-479 -700h-98zM635 114h98c8 -24 34 -40 70 -40h5c41 0 69 23 69 55c0 29 -27 51 -67 51h-5c-29 0 -50 -7 -63 -21h-94l48 236h268v-80h-198l-18 -79c21 15 46 22 82 22c75 0 141 -48 141 -125c0 -84 -68 -138 -168 -138
c-97 0 -162 46 -168 119z" />
    <glyph glyph-name="uni2158" unicode="&#x2158;" horiz-adv-x="1022" 
d="M249 305v72h-224v92l210 231h100v-247h67v-76h-67v-72h-86zM113 453h136v145zM241 0l479 700h98l-479 -700h-98zM657 114h98c8 -24 34 -40 70 -40h5c41 0 69 23 69 55c0 29 -27 51 -67 51h-5c-29 0 -50 -7 -63 -21h-94l48 236h268v-80h-198l-18 -79c21 15 46 22 82 22
c75 0 141 -48 141 -125c0 -84 -68 -138 -168 -138c-97 0 -162 46 -168 119z" />
    <glyph glyph-name="uni2159" unicode="&#x2159;" horiz-adv-x="960" 
d="M163 305v283l-136 -88v98l152 102h77v-395h-93zM128 0l479 700h98l-479 -700h-98zM543 179c0 130 81 221 195 221c95 0 151 -49 159 -116h-94c-7 23 -30 37 -63 37h-6c-52 0 -90 -41 -101 -98c25 25 60 37 104 37c87 0 152 -53 152 -127c0 -81 -68 -138 -168 -138
c-110 0 -178 69 -178 184zM717 74h6c43 0 73 22 73 55c0 32 -30 55 -73 55h-6c-43 0 -74 -23 -74 -55c0 -33 30 -55 74 -55z" />
    <glyph glyph-name="uni215A" unicode="&#x215a;" horiz-adv-x="1023" 
d="M28 419h99c8 -24 33 -40 69 -40h6c40 0 69 24 69 55s-27 51 -67 51h-5c-29 0 -50 -7 -64 -21h-94l49 236h268v-79h-199l-18 -79c21 13 47 21 82 21c74 0 142 -48 142 -125c0 -84 -69 -138 -169 -138c-94 0 -162 48 -168 119zM213 0l479 700h98l-479 -700h-98zM629 179
c0 130 81 221 195 221c95 0 151 -49 159 -116h-94c-7 23 -30 37 -63 37h-6c-52 0 -90 -41 -101 -98c25 25 60 37 104 37c87 0 152 -53 152 -127c0 -81 -68 -138 -168 -138c-110 0 -178 69 -178 184zM803 74h6c43 0 73 22 73 55c0 32 -30 55 -73 55h-6c-43 0 -74 -23 -74 -55
c0 -33 30 -55 74 -55z" />
    <glyph glyph-name="oneeighth" unicode="&#x215b;" horiz-adv-x="945" 
d="M163 305v283l-136 -88v98l152 102h77v-395h-93zM128 0l479 700h98l-479 -700h-98zM563 105c0 39 26 72 67 88c-48 17 -76 51 -76 95c0 64 72 112 165 112c92 0 163 -46 163 -112c0 -44 -28 -78 -76 -95c41 -16 66 -49 66 -88c0 -64 -63 -110 -153 -110
c-91 0 -156 47 -156 110zM715 233h7c40 0 66 17 66 44c0 28 -26 44 -66 44h-7c-43 0 -67 -16 -67 -44s26 -44 67 -44zM715 74h7c33 0 57 16 57 41c0 24 -24 42 -57 42h-7c-35 0 -58 -17 -58 -42s22 -41 58 -41z" />
    <glyph glyph-name="threeeighths" unicode="&#x215c;" horiz-adv-x="1015" 
d="M34 418h95c1 -24 29 -40 68 -40h7c43 0 70 18 70 45s-25 43 -68 43h-58v76h58c41 0 65 16 65 43c0 25 -23 42 -66 42h-6c-35 0 -61 -18 -64 -39h-94c0 73 69 117 162 117c92 0 163 -43 163 -112c0 -40 -21 -71 -64 -88c44 -16 67 -51 67 -90c0 -73 -74 -115 -169 -115
c-94 0 -166 44 -166 118zM219 0l479 700h98l-479 -700h-98zM654 105c0 39 26 72 67 88c-48 17 -76 51 -76 95c0 64 72 112 165 112c92 0 163 -46 163 -112c0 -44 -28 -78 -76 -95c41 -16 66 -49 66 -88c0 -64 -63 -110 -153 -110c-91 0 -156 47 -156 110zM806 233h7
c40 0 66 17 66 44c0 28 -26 44 -66 44h-7c-43 0 -67 -16 -67 -44s26 -44 67 -44zM806 74h7c33 0 57 16 57 41c0 24 -24 42 -57 42h-7c-35 0 -58 -17 -58 -42s22 -41 58 -41z" />
    <glyph glyph-name="fiveeighths" unicode="&#x215d;" horiz-adv-x="1008" 
d="M28 419h99c8 -24 33 -40 69 -40h6c40 0 69 24 69 55s-27 51 -67 51h-5c-29 0 -50 -7 -64 -21h-94l49 236h268v-79h-199l-18 -79c21 13 47 21 82 21c74 0 142 -48 142 -125c0 -84 -69 -138 -169 -138c-94 0 -162 48 -168 119zM213 0l479 700h98l-479 -700h-98zM649 105
c0 39 26 72 67 88c-48 17 -76 51 -76 95c0 64 72 112 165 112c92 0 163 -46 163 -112c0 -44 -28 -78 -76 -95c41 -16 66 -49 66 -88c0 -64 -63 -110 -153 -110c-91 0 -156 47 -156 110zM801 233h7c40 0 66 17 66 44c0 28 -26 44 -66 44h-7c-43 0 -67 -16 -67 -44
s26 -44 67 -44zM801 74h7c33 0 57 16 57 41c0 24 -24 42 -57 42h-7c-35 0 -58 -17 -58 -42s22 -41 58 -41z" />
    <glyph glyph-name="seveneighths" unicode="&#x215e;" horiz-adv-x="899" 
d="M92 305v18c0 125 40 215 139 298h-210v79h324v-74c-117 -78 -155 -165 -155 -302v-19h-98zM126 0l479 700h98l-479 -700h-98zM562 105c0 39 26 72 67 88c-48 17 -76 51 -76 95c0 64 72 112 165 112c92 0 163 -46 163 -112c0 -44 -28 -78 -76 -95c41 -16 66 -49 66 -88
c0 -64 -63 -110 -153 -110c-91 0 -156 47 -156 110zM714 233h7c40 0 66 17 66 44c0 28 -26 44 -66 44h-7c-43 0 -67 -16 -67 -44s26 -44 67 -44zM714 74h7c33 0 57 16 57 41c0 24 -24 42 -57 42h-7c-35 0 -58 -17 -58 -42s22 -41 58 -41z" />
    <glyph glyph-name="zero.subs_zero" horiz-adv-x="454" 
d="M417 82c0 -112 -66 -202 -189 -202c-127 0 -190 89 -190 202c0 114 64 203 190 203c123 0 189 -89 189 -203zM133 82c0 -13 1 -26 3 -38l153 139c-15 14 -35 21 -59 21h-5c-61 0 -92 -45 -92 -122zM322 82c0 13 -1 26 -3 37l-152 -138c15 -13 34 -20 58 -20h5
c59 0 92 45 92 121z" />
    <glyph glyph-name="zero.dnom_zero" horiz-adv-x="454" 
d="M417 197c0 -112 -66 -202 -189 -202c-127 0 -190 89 -190 202c0 114 64 203 190 203c123 0 189 -89 189 -203zM133 197c0 -13 1 -26 3 -38l153 139c-15 14 -35 21 -59 21h-5c-61 0 -92 -45 -92 -122zM322 197c0 13 -1 26 -3 37l-152 -138c15 -13 34 -20 58 -20h5
c59 0 92 45 92 121z" />
    <glyph glyph-name="zero.numr_zero" horiz-adv-x="454" 
d="M417 502c0 -112 -66 -202 -189 -202c-127 0 -190 89 -190 202c0 114 64 203 190 203c123 0 189 -89 189 -203zM133 502c0 -13 1 -26 3 -38l153 139c-15 14 -35 21 -59 21h-5c-61 0 -92 -45 -92 -122zM322 502c0 13 -1 26 -3 37l-152 -138c15 -13 34 -20 58 -20h5
c59 0 92 45 92 121z" />
    <glyph glyph-name="uni2070.zero" horiz-adv-x="455" 
d="M417 612c0 -112 -66 -202 -189 -202c-127 0 -190 89 -190 202c0 114 64 203 190 203c123 0 189 -89 189 -203zM133 612c0 -13 1 -26 3 -38l153 139c-15 14 -35 21 -59 21h-5c-61 0 -92 -45 -92 -122zM322 612c0 13 -1 26 -3 37l-152 -138c15 -13 34 -20 58 -20h5
c59 0 92 45 92 121z" />
    <glyph glyph-name="uni2160" unicode="&#x2160;" horiz-adv-x="563" 
d="M53 0v94h171v512h-171v94h457v-94h-171v-512h171v-94h-457z" />
    <glyph glyph-name="uni2161" unicode="&#x2161;" horiz-adv-x="908" 
d="M53 0v94h171v512h-171v94h802v-94h-171v-512h171v-94h-802zM339 94h230v512h-230v-512z" />
    <glyph glyph-name="uni2162" unicode="&#x2162;" horiz-adv-x="1253" 
d="M53 0v94h171v512h-171v94h1147v-94h-171v-512h171v-94h-1147zM339 94h230v512h-230v-512zM684 94h230v512h-230v-512z" />
    <glyph glyph-name="uni2163" unicode="&#x2163;" horiz-adv-x="1274" 
d="M57 0v94h170v512h-170v94h666v-94h-116l193 -507l197 507h-121v94h362v-94h-127l-201 -512h168v-94h-1021zM342 94h344l-196 512h-148v-512z" />
    <glyph glyph-name="uni2164" unicode="&#x2164;" horiz-adv-x="948" 
d="M185 0v94h174l-196 512h-128v94h361v-94h-116l194 -507l197 507h-121v94h362v-94h-127l-202 -512h169v-94h-567z" />
    <glyph glyph-name="uni2165" unicode="&#x2165;" horiz-adv-x="1273" 
d="M185 0v94h174l-196 512h-128v94h361v-94h-116l194 -507l197 507h-121v94h666v-94h-171v-512h171v-94h-1031zM583 94h347v512h-145z" />
    <glyph glyph-name="uni2166" unicode="&#x2166;" horiz-adv-x="1615" 
d="M185 0v94h174l-196 512h-128v94h361v-94h-116l194 -507l197 507h-121v94h1009v-94h-171v-512h171v-94h-1374zM583 94h345v512h-143zM1042 94h230v512h-230v-512z" />
    <glyph glyph-name="uni2167" unicode="&#x2167;" horiz-adv-x="1959" 
d="M185 0v94h174l-196 512h-128v94h361v-94h-116l194 -507l197 507h-121v94h1353v-94h-171v-512h171v-94h-1718zM583 94h344v512h-142zM1042 94h229v512h-229v-512zM1387 94h230v512h-230v-512z" />
    <glyph glyph-name="uni2168" unicode="&#x2168;" horiz-adv-x="1214" 
d="M53 0v94h171v512h-171v94h1101v-94h-129l-204 -252l211 -260h132v-94h-1111zM339 94h137l210 258l-207 254h-140v-512zM754 437l138 169h-274zM610 94h283l-141 175z" />
    <glyph glyph-name="uni2169" unicode="&#x2169;" horiz-adv-x="922" 
d="M50 0v94h134l210 258l-207 254h-127v94h802v-94h-129l-204 -252l211 -260h132v-94h-822zM463 437l137 169h-274zM318 94h283l-142 175z" />
    <glyph glyph-name="uni216C" unicode="&#x216c;" horiz-adv-x="827" 
d="M53 0v94h161v512h-161v94h437v-94h-160v-512h340v172h115v-266h-732z" />
    <glyph glyph-name="uni216D" unicode="&#x216d;" horiz-adv-x="858" 
d="M54 350c-3 211 160 363 371 360c109 0 197 -37 245 -81v71h115v-226h-112c-24 87 -124 141 -229 141h-9c-162 0 -265 -103 -265 -263c0 -163 102 -267 263 -267h10c107 0 196 56 228 141h111v-226h-117v73c-42 -42 -144 -83 -248 -83c-213 0 -363 145 -363 360z" />
    <glyph glyph-name="uni216E" unicode="&#x216e;" horiz-adv-x="924" 
d="M53 0v94h161v512h-161v94h416c237 0 401 -133 401 -348c0 -219 -164 -352 -401 -352h-416zM329 94h129c191 0 296 87 296 258c0 168 -105 254 -296 254h-129v-512z" />
    <glyph glyph-name="uni216F" unicode="&#x216f;" horiz-adv-x="1266" 
d="M53 0v94h161v512h-161v94h349l236 -575l230 575h344v-94h-160v-512h160v-94h-358v94h84v492l-239 -586h-127l-244 589v-495h85v-94h-360z" />
    <glyph glyph-name="asterisk" unicode="*" horiz-adv-x="472" 
d="M167 417l-67 45l58 83h-106v78h106l-58 83l67 45l69 -96l67 96l68 -45l-59 -83h108v-78h-108l59 -83l-68 -45l-67 96z" />
    <glyph glyph-name="backslash" unicode="\" horiz-adv-x="508" 
d="M351 0l-318 700h125l318 -700h-125z" />
    <glyph glyph-name="periodcentered" unicode="&#xb7;" horiz-adv-x="289" 
d="M70 281v136h149v-136h-149z" />
    <glyph glyph-name="bullet" unicode="&#x2022;" horiz-adv-x="570" 
d="M79 350c0 107 90 196 206 196s207 -89 207 -196s-91 -196 -207 -196s-206 89 -206 196z" />
    <glyph glyph-name="colon" unicode=":" horiz-adv-x="289" 
d="M70 0v136h149v-136h-149zM70 364v136h149v-136h-149z" />
    <glyph glyph-name="comma" unicode="," horiz-adv-x="295" 
d="M35 -146v73h54c40 0 60 20 60 61v12h-75v136h149v-153c0 -76 -49 -129 -131 -129h-57z" />
    <glyph glyph-name="ellipsis" unicode="&#x2026;" horiz-adv-x="899" 
d="M70 0v136h149v-136h-149zM375 0v136h149v-136h-149zM680 0v136h149v-136h-149z" />
    <glyph glyph-name="exclam" unicode="!" horiz-adv-x="293" 
d="M117 190l-32 279v231h124v-231l-31 -279h-61zM74 0v136h145v-136h-145z" />
    <glyph glyph-name="exclamdown" unicode="&#xa1;" horiz-adv-x="280" 
d="M170 310l32 -279v-231h-124v231l31 279h61zM213 500v-136h-145v136h145z" />
    <glyph glyph-name="numbersign" unicode="#" horiz-adv-x="815" 
d="M770 430h-147l-41 -161h146v-104h-172l-42 -165h-110l42 165h-172l-43 -165h-109l43 165h-120v104h146l41 161h-144v104h171l43 166h110l-43 -166h171l42 166h109l-42 -166h121v-104zM472 269l41 161h-171l-41 -161h171z" />
    <glyph glyph-name="period" unicode="." horiz-adv-x="290" 
d="M70 0v136h149v-136h-149z" />
    <glyph glyph-name="question" unicode="?" horiz-adv-x="558" 
d="M135 200v112c0 80 37 113 110 113h61c57 0 95 34 95 85c0 49 -36 81 -101 81h-258v109h270c126 0 210 -76 210 -189c0 -112 -88 -190 -227 -190c-32 0 -44 -10 -44 -35v-86h-116zM121 0v136h145v-136h-145z" />
    <glyph glyph-name="questiondown" unicode="&#xbf;" horiz-adv-x="550" 
d="M420 300v-112c0 -80 -37 -113 -110 -113h-61c-57 0 -95 -34 -95 -85c0 -49 36 -81 101 -81h258v-109h-270c-126 0 -210 76 -210 189c0 112 88 190 227 190c32 0 44 10 44 35v86h116zM434 500v-136h-145v136h145z" />
    <glyph glyph-name="quotedbl" unicode="&#x22;" horiz-adv-x="393" 
d="M90 471l-29 135v94h107v-94l-32 -135h-46zM255 471l-29 135v94h107v-94l-32 -135h-46z" />
    <glyph glyph-name="quotesingle" unicode="'" horiz-adv-x="227" 
d="M90 471l-29 135v94h106v-94l-31 -135h-46z" />
    <glyph glyph-name="semicolon" unicode=";" horiz-adv-x="317" 
d="M89 364v136h149v-136h-149zM51 -146v73h54c40 0 60 20 60 61v12h-75v136h149v-153c0 -76 -49 -129 -131 -129h-57z" />
    <glyph glyph-name="slash" unicode="/" horiz-adv-x="508" 
d="M32 0l319 700h124l-319 -700h-124z" />
    <glyph glyph-name="underscore" unicode="_" horiz-adv-x="667" 
d="M62 -97v97h542v-97h-542z" />
    <glyph glyph-name="exclamdown.case" horiz-adv-x="311" 
d="M185 510l32 -279v-231h-124v231l31 279h61zM228 700v-136h-145v136h145z" />
    <glyph glyph-name="questiondown.case" horiz-adv-x="558" 
d="M424 501v-112c0 -80 -37 -113 -110 -113h-61c-57 0 -95 -34 -95 -85c0 -49 36 -81 101 -81h258v-109h-270c-126 0 -210 76 -210 189c0 112 88 190 227 190c32 0 44 10 44 35v86h116zM438 701v-136h-145v136h145z" />
    <glyph glyph-name="_497" horiz-adv-x="583" 
d="M399 500v-86c0 -65 -14 -85 -70 -109l-79 -33l-10 -5c-53 -25 -79 -39 -82 -88c0 -51 44 -85 133 -85c84 0 127 29 138 92h118c-6 -123 -121 -196 -256 -196c-150 0 -254 72 -254 183c0 92 60 143 137 178l72 33c31 16 35 21 35 53v63h118zM414 700v-136h-145v136h145z
" />
    <glyph glyph-name="question.ss05" horiz-adv-x="582" 
d="M183 200v86c0 65 14 85 70 109l79 33l10 5c53 25 79 39 82 88c0 51 -44 85 -133 85c-84 0 -127 -29 -138 -92h-118c6 123 121 196 256 196c150 0 254 -72 254 -183c0 -92 -60 -143 -137 -178l-72 -33c-31 -16 -35 -21 -35 -53v-63h-118zM168 0v136h145v-136h-145z" />
    <glyph glyph-name="questiondown.ss05" horiz-adv-x="575" 
d="M396 300v-86c0 -65 -14 -85 -70 -109l-79 -33l-10 -5c-53 -25 -79 -39 -82 -88c0 -51 44 -85 133 -85c84 0 127 29 138 92h118c-6 -123 -121 -196 -256 -196c-150 0 -254 72 -254 183c0 92 60 143 137 178l72 33c31 16 35 21 35 53v63h118zM411 500v-136h-145v136h145z
" />
    <glyph glyph-name="colon.tnum" 
d="M286 0v136h149v-136h-149zM286 364v136h149v-136h-149z" />
    <glyph glyph-name="comma.tnum" 
d="M247 -146v73h54c40 0 60 20 60 61v12h-75v136h149v-153c0 -76 -49 -129 -131 -129h-57z" />
    <glyph glyph-name="numbersign.tnum" horiz-adv-x="729" 
d="M685 430h-119l-42 -161h119v-104h-146l-44 -165h-111l44 165h-136l-43 -165h-111l44 165h-98v104h125l42 161h-124v104h152l43 166h112l-44 -166h135l43 166h111l-43 -166h91v-104zM413 269l42 161h-135l-42 -161h135z" />
    <glyph glyph-name="period.tnum" 
d="M285 0v136h149v-136h-149z" />
    <glyph glyph-name="semicolon.tnum" 
d="M290 364v136h149v-136h-149zM251 -146v73h54c40 0 60 20 60 61v12h-75v136h149v-153c0 -76 -49 -129 -131 -129h-57z" />
    <glyph glyph-name="angleleft" unicode="&#x2329;" horiz-adv-x="417" 
d="M281 -85l-267 435l267 435h125l-264 -433l264 -437h-125z" />
    <glyph glyph-name="angleright" unicode="&#x232a;" horiz-adv-x="417" 
d="M136 785l267 -435l-267 -435h-125l264 433l-264 437h125z" />
    <glyph glyph-name="uni3010" unicode="&#x3010;" horiz-adv-x="432" 
d="M88 -145v990h346c-153 -137 -228 -314 -228 -494c0 -177 73 -356 228 -496h-346z" />
    <glyph glyph-name="uni3011" unicode="&#x3011;" horiz-adv-x="432" 
d="M344 846v-990h-346c153 137 228 314 228 494c0 177 -73 356 -228 496h346z" />
    <glyph glyph-name="braceleft" unicode="{" horiz-adv-x="414" 
d="M135 10v217c0 39 -9 52 -45 52h-53v142h53c35 0 45 13 45 53v216c0 107 38 155 131 155h115v-98h-86c-36 0 -42 -11 -42 -56v-246c0 -64 -31 -85 -80 -85h-26v-20h26c53 0 80 -28 80 -85v-246c0 -45 6 -55 42 -55h86v-99h-115c-93 0 -131 48 -131 155z" />
    <glyph glyph-name="braceright" unicode="}" horiz-adv-x="414" 
d="M279 691v-217c0 -39 9 -52 45 -52h53v-142h-53c-35 0 -45 -13 -45 -53v-216c0 -107 -38 -155 -131 -155h-115v98h86c36 0 42 11 42 56v246c0 64 31 85 80 85h26v20h-26c-53 0 -80 28 -80 85v246c0 45 -6 55 -42 55h-86v99h115c93 0 131 -48 131 -155z" />
    <glyph glyph-name="bracketleft" unicode="[" horiz-adv-x="394" 
d="M88 -145v990h275v-98h-156v-793h156v-99h-275z" />
    <glyph glyph-name="bracketright" unicode="]" horiz-adv-x="394" 
d="M306 845v-990h-275v98h156v793h-156v99h275z" />
    <glyph glyph-name="uni300C" unicode="&#x300c;" horiz-adv-x="361" 
d="M65 386v459h276v-98h-159v-361h-117z" />
    <glyph glyph-name="uni300D" unicode="&#x300d;" horiz-adv-x="381" 
d="M319 314v-459h-276v98h159v361h117z" />
    <glyph glyph-name="uni300A" unicode="&#x300a;" horiz-adv-x="637" 
d="M275 -85l-261 435l261 435h124l-257 -433l257 -437h-124zM500 -85l-261 435l261 435h125l-258 -433l258 -437h-125z" />
    <glyph glyph-name="uni300B" unicode="&#x300b;" horiz-adv-x="637" 
d="M362 785l261 -435l-261 -435h-124l257 433l-257 437h124zM137 785l261 -435l-261 -435h-125l258 433l-258 437h125z" />
    <glyph glyph-name="parenleft" unicode="(" horiz-adv-x="436" 
d="M48 350c-1 244 101 470 358 495v-100c-89 -17 -152 -60 -187 -131c-35 -70 -52 -158 -52 -264s17 -194 52 -265c35 -70 98 -113 187 -129v-101c-259 18 -359 248 -358 495z" />
    <glyph glyph-name="parenright" unicode=")" horiz-adv-x="436" 
d="M388 350c1 -245 -101 -470 -358 -495v100c89 17 151 60 186 130c35 71 53 159 53 265s-18 194 -53 264c-35 71 -97 114 -186 130v101c259 -18 359 -248 358 -495z" />
    <glyph glyph-name="uni3014" unicode="&#x3014;" horiz-adv-x="389" 
d="M244 -145l-170 158v674l170 158h146l-199 -188v-614l199 -188h-146z" />
    <glyph glyph-name="uni3015" unicode="&#x3015;" horiz-adv-x="389" 
d="M145 846l170 -158v-674l-170 -158h-146l199 188v614l-199 188h146z" />
    <glyph glyph-name="uni300E" unicode="&#x300e;" horiz-adv-x="477" 
d="M60 308v537h397v-193h-170v-344h-227zM141 377h65v344h169v55h-234v-399z" />
    <glyph glyph-name="uni300F" unicode="&#x300f;" horiz-adv-x="497" 
d="M429 392v-537h-397v193h170v344h227zM348 323h-65v-344h-169v-55h234v399z" />
    <glyph glyph-name="braceleft.case" horiz-adv-x="446" 
d="M142 155v53c0 51 -10 65 -51 65h-39v154h39c41 0 51 13 51 65v53c0 105 42 155 131 155h118v-107h-74c-49 0 -60 -12 -60 -69v-79c0 -61 -35 -85 -91 -85v-20c56 0 91 -24 91 -85v-80c0 -56 11 -68 60 -68h74v-107h-118c-89 0 -131 50 -131 155z" />
    <glyph glyph-name="braceright.case" horiz-adv-x="446" 
d="M304 546v-53c0 -51 10 -65 51 -65h39v-154h-39c-41 0 -51 -13 -51 -65v-53c0 -105 -42 -155 -131 -155h-118v107h74c49 0 60 12 60 69v79c0 61 35 85 91 85v20c-56 0 -91 24 -91 85v80c0 56 -11 68 -60 68h-74v107h118c89 0 131 -50 131 -155z" />
    <glyph glyph-name="bracketleft.case" horiz-adv-x="396" 
d="M97 0v700h243v-106h-126v-488h126v-106h-243z" />
    <glyph glyph-name="bracketright.case" horiz-adv-x="396" 
d="M299 700v-700h-243v106h126v488h-126v106h243z" />
    <glyph glyph-name="parenleft.case" horiz-adv-x="421" 
d="M54 350c-3 190 136 349 313 360v-111c-114 -22 -195 -110 -195 -249c0 -140 81 -230 195 -248v-112c-177 11 -316 167 -313 360z" />
    <glyph glyph-name="parenright.case" horiz-adv-x="421" 
d="M367 350c3 -191 -136 -349 -313 -360v111c114 22 195 110 195 249c0 140 -81 230 -195 248v112c177 -11 316 -167 313 -360z" />
    <glyph glyph-name="emdash" unicode="&#x2014;" horiz-adv-x="1060" 
d="M69 252v101h922v-101h-922z" />
    <glyph glyph-name="endash" unicode="&#x2013;" horiz-adv-x="680" 
d="M69 252v101h541v-101h-541z" />
    <glyph glyph-name="hyphen" unicode="-" horiz-adv-x="459" 
d="M69 252v101h322v-101h-322z" />
    <glyph glyph-name="uni00AD" unicode="&#xad;" horiz-adv-x="459" 
d="M69 252v101h322v-101h-322z" />
    <glyph glyph-name="emdash.frac" horiz-adv-x="1071" 
d="M74 300v101h922v-101h-922z" />
    <glyph glyph-name="endash.frac" horiz-adv-x="690" 
d="M74 300v101h541v-101h-541z" />
    <glyph glyph-name="hyphen.frac" horiz-adv-x="471" 
d="M75 300v100h321v-100h-321z" />
    <glyph glyph-name="uni00AD.frac" horiz-adv-x="471" 
d="M75 300v100h321v-100h-321z" />
    <glyph glyph-name="guillemotleft" unicode="&#xab;" horiz-adv-x="623" 
d="M343 500l-167 -214l168 -216h-137l-171 215l171 215h136zM415 286l168 -216h-137l-172 215l172 215h135z" />
    <glyph glyph-name="guillemotright" unicode="&#xbb;" horiz-adv-x="623" 
d="M177 500l171 -215l-171 -215h-135l166 214l-168 216h137zM416 500l170 -215l-170 -215h-136l166 214l-168 216h138z" />
    <glyph glyph-name="guilsinglleft" unicode="&#x2039;" horiz-adv-x="384" 
d="M176 286l168 -216h-137l-171 215l171 215h136z" />
    <glyph glyph-name="guilsinglright" unicode="&#x203a;" horiz-adv-x="384" 
d="M177 500l171 -215l-171 -215h-137l168 216l-166 214h135z" />
    <glyph glyph-name="quotedblbase" unicode="&#x201e;" horiz-adv-x="536" 
d="M35 -146v73h54c40 0 60 20 60 61v12h-75v136h150v-153c0 -75 -50 -129 -132 -129h-57zM274 -146v73h55c40 0 60 20 60 61v12h-76v136h150v-153c0 -75 -49 -129 -131 -129h-58z" />
    <glyph glyph-name="quotedblleft" unicode="&#x201c;" horiz-adv-x="547" 
d="M497 706v-73h-54c-40 0 -60 -20 -60 -61v-12h75v-136h-150v153c0 75 50 129 132 129h57zM258 706v-73h-55c-40 0 -60 -20 -60 -61v-12h76v-136h-150v153c0 75 49 129 131 129h58z" />
    <glyph glyph-name="quotedblright" unicode="&#x201d;" horiz-adv-x="545" 
d="M58 434v73h54c40 0 60 20 60 61v12h-75v136h150v-153c0 -75 -50 -129 -132 -129h-57zM297 434v73h55c40 0 60 20 60 61v12h-76v136h150v-153c0 -75 -49 -129 -131 -129h-58z" />
    <glyph glyph-name="quoteleft" unicode="&#x2018;" horiz-adv-x="307" 
d="M256 706v-73h-54c-40 0 -60 -20 -60 -61v-12h75v-136h-149v153c0 76 49 129 131 129h57z" />
    <glyph glyph-name="quoteright" unicode="&#x2019;" horiz-adv-x="305" 
d="M58 434v73h54c40 0 60 20 60 61v12h-75v136h149v-153c0 -76 -49 -129 -131 -129h-57z" />
    <glyph glyph-name="quotesinglbase" unicode="&#x201a;" horiz-adv-x="295" 
d="M35 -146v73h54c40 0 60 20 60 61v12h-75v136h149v-153c0 -76 -49 -129 -131 -129h-57z" />
    <glyph glyph-name="guillemotleft.case" horiz-adv-x="645" 
d="M350 565l-167 -214l168 -216h-137l-171 215l171 215h136zM422 351l168 -216h-137l-172 215l172 215h135z" />
    <glyph glyph-name="guillemotright.case" horiz-adv-x="645" 
d="M193 565l171 -215l-171 -215h-135l166 214l-168 216h137zM432 565l170 -215l-170 -215h-136l166 214l-168 216h138z" />
    <glyph glyph-name="guilsinglleft.case" horiz-adv-x="424" 
d="M188 351l168 -216h-137l-171 215l171 215h136z" />
    <glyph glyph-name="guilsinglright.case" horiz-adv-x="424" 
d="M205 565l171 -215l-171 -215h-137l168 216l-166 214h135z" />
    <glyph glyph-name="uni2003" unicode="&#x2003;" horiz-adv-x="1000" 
 />
    <glyph glyph-name="uni2002" unicode="&#x2002;" horiz-adv-x="500" 
 />
    <glyph glyph-name="uni200A" unicode="&#x200a;" horiz-adv-x="75" 
 />
    <glyph glyph-name="uni00A0" unicode="&#xa0;" horiz-adv-x="266" 
 />
    <glyph glyph-name="uni2009" unicode="&#x2009;" horiz-adv-x="125" 
 />
    <glyph glyph-name="space.tnum" 
 />
    <glyph glyph-name="cent" unicode="&#xa2;" horiz-adv-x="638" 
d="M468 171h121c-16 -106 -116 -181 -255 -181h-11l-22 -110h-97l25 123c-117 33 -179 123 -179 247c0 146 104 258 278 260l22 110h97l-24 -120c93 -24 154 -84 166 -171h-121c-7 33 -29 59 -64 72l-62 -313c64 0 114 37 126 83zM249 106l60 305c-93 -8 -140 -77 -140 -161
c0 -63 28 -117 80 -144z" />
    <glyph glyph-name="currency" unicode="&#xa4;" horiz-adv-x="792" 
d="M644 167l91 -87l-77 -79l-92 89c-48 -32 -108 -50 -172 -50c-63 0 -121 17 -169 48l-90 -87l-77 79l88 84c-28 41 -43 90 -43 141c0 49 13 94 40 135l-85 85l77 79l89 -86c48 31 107 47 170 47c64 0 124 -17 173 -48l91 87l77 -79l-89 -88c26 -40 39 -84 39 -132
c0 -50 -14 -96 -41 -138zM565 305c0 92 -70 157 -167 157h-8c-98 0 -168 -64 -168 -157c0 -95 72 -162 170 -162h6c97 0 167 67 167 162z" />
    <glyph glyph-name="dollar" unicode="$" horiz-adv-x="735" 
d="M675 197c0 -133 -105 -207 -300 -207c-13 0 -23 0 -29 1l-23 -111h-105l26 123c-131 29 -203 107 -206 228h130c3 -59 38 -99 99 -119l39 191h-2c-160 28 -227 80 -227 204c0 109 96 203 293 203c9 0 16 0 21 -1l23 111h105l-26 -124c117 -31 185 -105 196 -212h-129
c-8 49 -39 84 -90 103l-37 -182h2c160 -27 240 -96 240 -208zM323 422l8 -1l37 180h-6c-101 0 -161 -38 -161 -88c0 -51 37 -76 122 -91zM551 191c0 49 -41 78 -138 95l-5 1l-39 -188h13c115 0 169 35 169 92z" />
    <glyph glyph-name="Euro" unicode="&#x20ac;" horiz-adv-x="811" 
d="M632 216h124c-14 -141 -126 -226 -294 -226c-135 0 -237 63 -288 175l-124 -24v101l96 18c-4 23 -6 48 -7 74l-89 -17v101l96 18c28 171 146 274 316 274c168 0 280 -84 294 -226h-124c-11 79 -68 122 -165 122h-10c-91 0 -155 -53 -183 -145l210 40v-100l-224 -43v-8
c0 -25 2 -48 5 -67l177 34v-100l-147 -29c35 -60 90 -94 162 -94h10c97 0 154 43 165 122z" />
    <glyph glyph-name="florin" unicode="&#x192;" horiz-adv-x="498" 
d="M309 514l-8 -52h148v-102h-164l-58 -370c-22 -138 -73 -190 -195 -190h-92v104h78c61 0 79 21 89 82l58 374h-115v102h131l7 48c22 138 71 190 190 190h99v-104h-83c-58 0 -77 -21 -85 -82z" />
    <glyph glyph-name="sterling" unicode="&#xa3;" horiz-adv-x="667" 
d="M242 104h386v-104h-579v104h51c43 0 62 20 66 64l10 101l-126 -26v101l137 29l12 117c16 148 73 210 217 210h162v-104h-164c-66 0 -87 -31 -97 -111l-9 -87l147 31v-101l-158 -34l-11 -110c-5 -39 -16 -60 -44 -80z" />
    <glyph glyph-name="yen" unicode="&#xa5;" horiz-adv-x="767" 
d="M737 700l-198 -273l100 20v-100l-185 -36l-7 -10v-65l162 32v-100l-162 -31v-137h-123v113l-164 -32v100l164 31v73l-194 -38v99l141 28l-238 326h145l209 -293l207 293h143z" />
    <glyph glyph-name="cent.tnum" 
d="M509 171h121c-16 -106 -116 -181 -255 -181h-11l-22 -110h-97l25 123c-117 33 -179 123 -179 247c0 146 104 258 278 260l22 110h97l-24 -120c93 -24 154 -84 166 -171h-121c-7 33 -29 59 -64 72l-62 -313c64 0 114 37 126 83zM290 106l60 305c-93 -8 -140 -77 -140 -161
c0 -63 28 -117 80 -144z" />
    <glyph glyph-name="currency.tnum" 
d="M583 208l83 -79l-70 -70l-83 80c-44 -29 -98 -45 -155 -45c-56 0 -106 14 -151 43l-82 -78l-70 70l80 77c-25 39 -38 81 -38 127c0 43 12 84 35 121l-77 77l70 71l81 -77c43 27 96 41 152 41c59 0 112 -15 156 -43l82 79l70 -71l-80 -79c23 -37 34 -77 34 -119
c0 -45 -12 -87 -37 -125zM512 333c0 82 -62 141 -150 141h-8c-87 0 -150 -59 -150 -141c0 -86 65 -146 152 -146h6c88 0 150 60 150 146z" />
    <glyph glyph-name="dollar.tnum" 
d="M635 197c0 -133 -94 -207 -270 -207c-12 0 -21 0 -26 1l-20 -111h-95l24 123c-119 29 -183 107 -186 228h117c3 -59 34 -99 89 -119l35 191h-1c-144 28 -205 80 -205 204c0 109 87 203 264 203c9 0 15 0 19 -1l21 111h94l-23 -124c105 -31 167 -105 176 -212h-116
c-7 49 -36 84 -81 103l-33 -182h1c144 -27 216 -96 216 -208zM319 422l7 -1l33 180h-5c-91 0 -145 -38 -145 -88c0 -51 33 -76 110 -91zM524 191c0 49 -37 78 -124 95l-5 1l-35 -188h12c103 0 152 35 152 92z" />
    <glyph glyph-name="Euro.tnum" 
d="M548 216h122c-12 -141 -111 -226 -262 -226c-120 0 -209 62 -256 173l-107 -22v101l81 16c-3 21 -5 46 -6 75l-75 -16v101l80 16c26 172 130 276 283 276c150 0 250 -84 262 -226h-122c-9 80 -56 122 -137 122h-10c-75 0 -126 -53 -149 -146l213 43v-100l-224 -46v-7
c0 -23 1 -45 4 -68l178 36v-99l-153 -32c28 -60 72 -93 131 -93h10c81 0 128 42 137 122z" />
    <glyph glyph-name="sterling.tnum" 
d="M269 104h386v-104h-579v104h51c43 0 62 20 66 64l10 101l-126 -26v101l137 29l12 117c16 148 73 210 217 210h162v-104h-164c-66 0 -87 -31 -97 -111l-9 -87l147 31v-101l-158 -34l-11 -110c-5 -39 -16 -60 -44 -80z" />
    <glyph glyph-name="yen.tnum" 
d="M713 700l-198 -273l100 20v-100l-185 -36l-7 -10v-65l162 32v-100l-162 -31v-137h-123v113l-164 -32v100l164 31v73l-194 -38v99l141 28l-238 326h145l209 -293l207 293h143z" />
    <glyph glyph-name="uni2219" unicode="&#x2219;" horiz-adv-x="618" 
d="M103 350c0 107 90 196 206 196s207 -89 207 -196s-91 -196 -207 -196s-206 89 -206 196z" />
    <glyph glyph-name="uni2215" unicode="&#x2215;" horiz-adv-x="502" 
d="M32 0l319 700h124l-319 -700h-124z" />
    <glyph glyph-name="plus" unicode="+" horiz-adv-x="635" 
d="M258 15v191h-213v104h213v190h119v-190h213v-104h-213v-191h-119z" />
    <glyph glyph-name="minus" unicode="&#x2212;" horiz-adv-x="694" 
d="M75 206v104h545v-104h-545z" />
    <glyph glyph-name="multiply" unicode="&#xd7;" horiz-adv-x="633" 
d="M561 113l-69 -80l-176 154l-176 -153l-68 78l165 144l-166 144l69 79l176 -154l177 154l68 -79l-165 -144z" />
    <glyph glyph-name="divide" unicode="&#xf7;" horiz-adv-x="666" 
d="M268 364v127h130v-127h-130zM60 206v103h545v-103h-545zM268 24v127h130v-127h-130z" />
    <glyph glyph-name="equal" unicode="=" horiz-adv-x="715" 
d="M75 302v103h565v-103h-565zM75 110v103h565v-103h-565z" />
    <glyph glyph-name="notequal" unicode="&#x2260;" horiz-adv-x="715" 
d="M640 302h-207l-37 -89h244v-103h-286l-39 -95h-115l39 95h-164v103h206l36 89h-242v103h284l39 95h116l-39 -95h165v-103z" />
    <glyph glyph-name="greater" unicode="&#x3e;" horiz-adv-x="614" 
d="M71 480l496 -172v-103l-496 -172v116l333 106l-333 104v121z" />
    <glyph glyph-name="less" unicode="&#x3c;" horiz-adv-x="613" 
d="M542 480v-116l-333 -106l333 -104v-121l-496 172v103z" />
    <glyph glyph-name="greaterequal" unicode="&#x2265;" horiz-adv-x="704" 
d="M73 521l565 -127v-137l-565 -127v111l398 83l-398 81v116zM73 6v102h565v-102h-565z" />
    <glyph glyph-name="lessequal" unicode="&#x2264;" horiz-adv-x="704" 
d="M631 521v-111l-398 -83l398 -81v-116l-565 127v137zM66 6v102h565v-102h-565z" />
    <glyph glyph-name="plusminus" unicode="&#xb1;" horiz-adv-x="688" 
d="M285 166v113h-213v103h213v118h118v-118h214v-103h-214v-113h-118zM72 0v103h545v-103h-545z" />
    <glyph glyph-name="approxequal" unicode="&#x2248;" horiz-adv-x="673" 
d="M320 309c-52 13 -75 20 -91 20c-28 0 -43 -17 -43 -41h-110v34c0 67 56 119 130 119c40 0 88 -12 153 -31c51 -15 70 -20 86 -20c28 0 43 16 43 39h110v-33c0 -69 -52 -118 -128 -118c-37 0 -79 11 -150 31zM320 103c-52 13 -75 20 -91 20c-28 0 -43 -17 -43 -41h-110v34
c0 67 56 119 130 119c40 0 82 -11 153 -31c47 -13 70 -20 86 -20c28 0 43 16 43 39h110v-34c0 -67 -52 -117 -128 -117c-37 0 -79 11 -150 31z" />
    <glyph glyph-name="asciitilde" unicode="~" horiz-adv-x="564" 
d="M297 368l-30 11c-32 13 -52 19 -68 19c-23 0 -34 -13 -35 -46h-86v26c0 60 42 110 100 110c32 0 58 -8 102 -25l31 -12c37 -15 52 -19 67 -19c20 0 32 17 32 46h86v-26c0 -60 -41 -110 -100 -110c-31 0 -54 7 -99 26z" />
    <glyph glyph-name="logicalnot" unicode="&#xac;" horiz-adv-x="662" 
d="M464 119v137h-390v103h509v-240h-119z" />
    <glyph glyph-name="infinity" unicode="&#x221e;" horiz-adv-x="968" 
d="M55 360c0 109 89 190 209 190c99 0 161 -37 221 -112c59 75 120 112 219 112c118 0 209 -81 209 -190c0 -111 -91 -190 -209 -190c-100 0 -161 37 -220 109c-60 -72 -121 -109 -220 -109c-120 0 -209 79 -209 190zM269 265h5c55 0 99 33 143 94c-48 65 -88 96 -143 96h-5
c-56 0 -103 -37 -103 -95c0 -61 45 -95 103 -95zM692 265h5c58 0 105 34 105 95s-47 95 -105 95h-5c-53 0 -97 -33 -141 -94c51 -67 88 -96 141 -96z" />
    <glyph glyph-name="integral" unicode="&#x222b;" horiz-adv-x="467" 
d="M18 -100v103h70c65 0 86 24 86 89v424c0 129 64 184 192 184h84v-103h-70c-64 0 -87 -23 -87 -89v-424c0 -129 -64 -184 -192 -184h-83z" />
    <glyph glyph-name="Omega" unicode="&#x2126;" horiz-adv-x="908" 
d="M68 0v104h128c-84 59 -134 147 -134 260c-3 203 172 348 392 346c221 2 395 -143 391 -346c0 -115 -49 -201 -136 -260h131v-104h-301v104c112 26 185 119 185 250c0 154 -109 249 -264 249h-12c-154 0 -264 -95 -264 -249c0 -129 74 -224 186 -250v-104h-302z" />
    <glyph glyph-name="Delta" unicode="&#x2206;" horiz-adv-x="822" 
d="M480 700l305 -614v-86h-748v86l304 614h139zM411 594l-246 -490h492z" />
    <glyph glyph-name="product" unicode="&#x220f;" horiz-adv-x="840" 
d="M161 0v596h-126v104h771v-104h-127v-596h-117v596h-284v-596h-117z" />
    <glyph glyph-name="summation" unicode="&#x2211;" horiz-adv-x="646" 
d="M590 700v-104h-382l216 -246l-218 -246h384v-104h-537v97l225 253l-225 258v92h537z" />
    <glyph glyph-name="radical" unicode="&#x221a;" horiz-adv-x="778" 
d="M761 700v-104h-246l-151 -596h-149l-192 500h119l145 -384l141 584h333z" />
    <glyph glyph-name="partialdiff" unicode="&#x2202;" horiz-adv-x="665" 
d="M609 302c0 -205 -112 -312 -283 -312c-173 0 -283 100 -283 251c0 141 119 244 263 244c80 0 141 -25 177 -65c-14 132 -124 187 -240 187c-44 0 -100 -8 -125 -17v104c25 8 79 16 130 16c244 0 361 -173 361 -408zM494 240c0 92 -71 145 -165 145h-10
c-89 0 -159 -51 -159 -144c0 -95 75 -146 164 -146h5c91 0 165 46 165 145z" />
    <glyph glyph-name="mu" unicode="&#xb5;" horiz-adv-x="685" 
d="M89 -200v700h117v-288c0 -84 43 -128 114 -128h11c91 0 148 62 148 157v259h117v-500h-117v77c-36 -53 -95 -87 -178 -87c-36 0 -68 5 -95 16v-206h-117z" />
    <glyph glyph-name="percent" unicode="%" horiz-adv-x="990" 
d="M37 502c0 114 64 203 189 203c124 0 190 -89 190 -203c0 -112 -66 -202 -190 -202c-125 0 -189 89 -189 202zM191 0l500 700h112l-500 -700h-112zM224 381h5c59 0 92 45 92 121c0 77 -33 122 -92 122h-5c-61 0 -92 -45 -92 -122s31 -121 92 -121zM575 197
c0 114 64 203 189 203c124 0 190 -89 190 -203c0 -112 -66 -202 -190 -202c-125 0 -189 89 -189 202zM761 76h6c59 0 91 45 91 121c0 77 -32 122 -91 122h-6c-60 0 -91 -45 -91 -122s31 -121 91 -121z" />
    <glyph glyph-name="perthousand" unicode="&#x2030;" horiz-adv-x="1274" 
d="M226 300c-125 0 -189 89 -189 202c0 114 64 203 189 203c124 0 190 -89 190 -203c0 -112 -66 -202 -190 -202zM691 700h112l-500 -700h-112zM224 381h5c59 0 92 45 92 121c0 77 -33 122 -92 122h-5c-61 0 -92 -45 -92 -122s31 -121 92 -121zM1237 197
c0 -112 -66 -202 -189 -202c-63 0 -110 22 -143 59c-32 -37 -80 -59 -141 -59c-125 0 -189 89 -189 202c0 114 64 203 189 203c61 0 109 -22 142 -59c32 37 79 59 142 59c123 0 189 -89 189 -203zM858 197c0 77 -32 122 -91 122h-6c-60 0 -91 -45 -91 -122s31 -121 91 -121
h6c59 0 91 45 91 121zM1142 197c0 77 -32 122 -91 122h-6c-60 0 -91 -45 -91 -122s31 -121 91 -121h6c57 0 91 45 91 121z" />
    <glyph glyph-name="plus.case" horiz-adv-x="637" 
d="M259 108v191h-213v104h213v190h119v-190h213v-104h-213v-191h-119z" />
    <glyph glyph-name="minus.case" horiz-adv-x="694" 
d="M75 299v104h545v-104h-545z" />
    <glyph glyph-name="x.frac" horiz-adv-x="648" 
d="M569 206l-69 -80l-176 154l-176 -153l-68 78l165 144l-166 144l69 79l176 -154l177 154l68 -79l-165 -144z" />
    <glyph glyph-name="divide.case" horiz-adv-x="666" 
d="M268 457v127h130v-127h-130zM60 299v103h545v-103h-545zM268 117v127h130v-127h-130z" />
    <glyph glyph-name="equal.case" horiz-adv-x="714" 
d="M75 395v103h565v-103h-565zM75 203v103h565v-103h-565z" />
    <glyph glyph-name="notequal.case" horiz-adv-x="727" 
d="M646 395h-207l-37 -89h244v-103h-286l-39 -95h-115l39 95h-164v103h206l36 89h-242v103h284l39 95h116l-39 -95h165v-103z" />
    <glyph glyph-name="greater.case" horiz-adv-x="629" 
d="M85 573l496 -172v-103l-496 -172v116l333 106l-333 104v121z" />
    <glyph glyph-name="less.case" horiz-adv-x="628" 
d="M543 573v-116l-333 -106l333 -104v-121l-496 172v103z" />
    <glyph glyph-name="greaterequal.case" horiz-adv-x="729" 
d="M87 614l565 -127v-137l-565 -127v111l398 83l-398 81v116zM87 99v102h565v-102h-565z" />
    <glyph glyph-name="lessequal.case" horiz-adv-x="729" 
d="M642 614v-111l-398 -83l398 -81v-116l-565 127v137zM77 99v102h565v-102h-565z" />
    <glyph glyph-name="plusminus.case" horiz-adv-x="711" 
d="M296 259v113h-213v103h213v118h118v-118h214v-103h-214v-113h-118zM83 93v103h545v-103h-545z" />
    <glyph glyph-name="approxequal.case" horiz-adv-x="672" 
d="M322 402c-52 13 -75 20 -91 20c-28 0 -43 -17 -43 -41h-110v34c0 67 56 119 130 119c40 0 88 -12 153 -31c51 -15 70 -20 86 -20c28 0 43 16 43 39h110v-33c0 -69 -52 -118 -128 -118c-37 0 -79 11 -150 31zM322 196c-52 13 -75 20 -91 20c-28 0 -43 -17 -43 -41h-110v34
c0 67 56 119 130 119c40 0 82 -11 153 -31c47 -13 70 -20 86 -20c28 0 43 16 43 39h110v-34c0 -67 -52 -117 -128 -117c-37 0 -79 11 -150 31z" />
    <glyph glyph-name="logicalnot.case" horiz-adv-x="655" 
d="M457 212v137h-390v103h509v-240h-119z" />
    <glyph glyph-name="x.tnum" 
d="M605 205l-69 -80l-176 154l-176 -154l-68 79l165 144l-166 144l69 78l176 -153l177 153l67 -78l-164 -144z" />
    <glyph glyph-name="plus.tnum" 
d="M300 108v191h-208v103h208v191h119v-191h209v-103h-209v-191h-119z" />
    <glyph glyph-name="minus.tnum" 
d="M92 299v103h536v-103h-536z" />
    <glyph glyph-name="multiply.tnum" 
d="M605 205l-69 -80l-176 154l-176 -154l-68 79l165 144l-166 144l69 78l176 -153l177 153l67 -78l-164 -144z" />
    <glyph glyph-name="divide.tnum" 
d="M295 458v127h130v-127h-130zM87 300v103h545v-103h-545zM295 118v127h130v-127h-130z" />
    <glyph glyph-name="equal.tnum" 
d="M96 395v103h529v-103h-529zM96 203v103h529v-103h-529z" />
    <glyph glyph-name="notequal.tnum" 
d="M624 395h-186l-39 -89h225v-103h-270l-42 -95h-117l42 95h-141v103h186l39 89h-225v103h270l42 95h117l-42 -95h141v-103z" />
    <glyph glyph-name="greater.tnum" 
d="M129 571l496 -172v-103l-496 -172v116l333 106l-333 104v121z" />
    <glyph glyph-name="less.tnum" 
d="M591 570v-116l-333 -106l333 -104v-121l-496 172v103z" />
    <glyph glyph-name="greaterequal.tnum" 
d="M97 606l535 -127v-135l-535 -127v111l375 82l-375 81v115zM97 92v102h535v-102h-535z" />
    <glyph glyph-name="lessequal.tnum" 
d="M623 606v-110l-374 -82l374 -82v-115l-535 127v135zM88 92v102h535v-102h-535z" />
    <glyph glyph-name="plusminus.tnum" 
d="M301 273v113h-204v103h204v118h118v-118h204v-103h-204v-113h-118zM97 107v102h526v-102h-526z" />
    <glyph glyph-name="approxequal.tnum" 
d="M349 404c-48 16 -68 21 -84 21c-27 0 -43 -17 -43 -41h-110v33c0 69 56 120 130 120c40 0 81 -11 141 -31c44 -13 62 -20 78 -20c28 0 43 15 43 39h110v-34c0 -67 -52 -117 -128 -117c-37 0 -77 11 -137 30zM349 199c-48 15 -68 20 -84 20c-27 0 -43 -17 -43 -41h-110v33
c0 69 56 120 130 120c40 0 81 -12 141 -31c44 -13 62 -20 78 -20c28 0 43 15 43 39h110v-33c0 -69 -52 -118 -128 -118c-37 0 -74 11 -137 31z" />
    <glyph glyph-name="logicalnot.tnum" 
d="M491 162v137h-390v103h509v-240h-119z" />
    <glyph glyph-name="percent.tnum" 
d="M80 550c0 93 61 155 154 155c91 0 155 -62 155 -155c0 -94 -64 -155 -155 -155c-93 0 -154 61 -154 155zM231 463h6c47 0 75 34 75 87s-28 86 -75 86h-6c-49 0 -75 -33 -75 -86c0 -55 26 -87 75 -87zM185 225v79l351 171v-80zM331 149c0 95 63 156 154 156
s156 -61 156 -156c0 -93 -65 -154 -156 -154c-93 0 -154 61 -154 154zM482 62h7c45 0 74 35 74 87c0 53 -27 87 -74 87h-7c-49 0 -74 -32 -74 -87c0 -53 25 -87 74 -87z" />
    <glyph glyph-name="perthousand.tnum" 
d="M24 553c0 93 62 152 147 152c83 0 146 -59 146 -152c0 -94 -63 -153 -146 -153c-85 0 -147 59 -147 153zM168 467h5c43 0 69 36 69 85c0 52 -26 86 -69 86h-5c-45 0 -68 -34 -68 -86c0 -51 23 -85 68 -85zM81 225v80l351 170v-80zM196 148c0 93 61 152 142 152
c48 0 88 -19 112 -54c24 35 64 54 112 54c80 0 143 -59 143 -152s-63 -153 -146 -153c-48 0 -84 16 -109 48c-25 -32 -64 -48 -108 -48c-86 0 -146 59 -146 153zM339 62h5c43 0 69 34 69 85c0 52 -26 86 -69 86h-5c-45 0 -68 -34 -68 -86s23 -85 68 -85zM556 62h5
c43 0 69 34 69 85c0 52 -26 86 -69 86h-5c-45 0 -68 -34 -68 -86s23 -85 68 -85z" />
    <glyph glyph-name="arrowup" unicode="&#x2191;" horiz-adv-x="790" 
d="M338 0v531l-176 -178l-77 75l310 311l310 -311l-77 -75l-176 178v-531h-114z" />
    <glyph glyph-name="uni2197" unicode="&#x2197;" horiz-adv-x="666" 
d="M50 217l375 376l-251 -2v108l438 1v-439h-108l1 251l-375 -375z" />
    <glyph glyph-name="arrowright" unicode="&#x2192;" horiz-adv-x="943" 
d="M612 662l311 -310l-311 -310l-76 77l178 176h-684v114h685l-179 176z" />
    <glyph glyph-name="uni2198" unicode="&#x2198;" horiz-adv-x="667" 
d="M130 562l376 -375l-2 250l108 1l1 -438h-439v108l251 -2l-375 376z" />
    <glyph glyph-name="arrowdown" unicode="&#x2193;" horiz-adv-x="790" 
d="M452 700v-531l176 178l77 -75l-310 -311l-310 311l77 75l176 -178v531h114z" />
    <glyph glyph-name="uni2199" unicode="&#x2199;" horiz-adv-x="667" 
d="M617 482l-376 -376l251 2v-108h-438v438h108l-1 -251l375 376z" />
    <glyph glyph-name="arrowleft" unicode="&#x2190;" horiz-adv-x="943" 
d="M331 42l-311 310l311 310l76 -77l-178 -176h684v-114h-685l179 -176z" />
    <glyph glyph-name="uni2196" unicode="&#x2196;" horiz-adv-x="667" 
d="M536 137l-376 375l2 -251h-108l-1 438h439l-1 -108l-250 1l375 -375z" />
    <glyph glyph-name="uni21A4" unicode="&#x21a4;" horiz-adv-x="1008" 
d="M341 42l-311 310l311 310l76 -77l-179 -176h571v194h114v-502h-114v194h-571l179 -176z" />
    <glyph glyph-name="uni21A5" unicode="&#x21a5;" horiz-adv-x="855" 
d="M176 0v115h194v416l-176 -178l-77 75l311 311l309 -311l-77 -75l-176 178v-416h194v-115h-502z" />
    <glyph glyph-name="uni21A6" unicode="&#x21a6;" horiz-adv-x="1008" 
d="M667 662l311 -310l-311 -310l-76 77l179 176h-571v-194h-114v502h114v-194h571l-179 176z" />
    <glyph glyph-name="uni21A7" unicode="&#x21a7;" horiz-adv-x="855" 
d="M679 700v-115h-194v-416l176 178l77 -75l-311 -311l-309 311l77 75l176 -178v416h-194v115h502z" />
    <glyph glyph-name="uni21B0" unicode="&#x21b0;" horiz-adv-x="998" 
d="M799 0v295h-571l179 -176l-76 -77l-311 310l311 310l76 -77l-178 -176h684v-409h-114z" />
    <glyph glyph-name="uni21B1" unicode="&#x21b1;" horiz-adv-x="998" 
d="M85 0v407h685l-179 176l76 78l311 -310l-311 -311l-76 77l178 176h-570v-293h-114z" />
    <glyph glyph-name="uni21B2" unicode="&#x21b2;" horiz-adv-x="998" 
d="M913 700v-407h-685l179 -176l-76 -78l-311 310l311 311l76 -77l-178 -176h570v293h114z" />
    <glyph glyph-name="uni21B3" unicode="&#x21b3;" horiz-adv-x="998" 
d="M199 700v-295h571l-179 176l76 77l311 -310l-311 -310l-76 77l178 176h-684v409h114z" />
    <glyph glyph-name="lozenge" unicode="&#x25ca;" horiz-adv-x="728" 
d="M309 0l-274 350l274 350h113l271 -350l-271 -350h-113zM366 108l190 240l-192 247l-192 -244z" />
    <glyph glyph-name="triagup" unicode="&#x25b2;" horiz-adv-x="840" 
d="M15 0l405 720l405 -720h-810z" />
    <glyph glyph-name="uniF8FF" unicode="&#xf8ff;" horiz-adv-x="958" 
d="M948 707c37 0 75 -10 90 -22c0 -5 -1 -25 -4 -28c-5 -5 -15 -7 -31 -7c-13 0 -24 1 -33 4c2 -52 -21 -110 -77 -104c-11 -36 -33 -61 -66 -76c-33 -14 -68 -21 -106 -21c-8 0 -17 0 -27 1c0 -1 6 -21 17 -58s20 -82 27 -136l14 -16c27 -31 50 -55 67 -70
c28 -25 52 -58 60 -78c1 -3 2 -7 2 -11c0 -9 -6 -15 -19 -18c-28 16 -46 35 -81 74c-21 24 -37 41 -47 50v-14c0 -32 4 -57 15 -104c6 -25 10 -44 11 -56c-9 -8 -19 -12 -29 -12c-7 0 -12 3 -13 9c-19 33 -27 91 -35 171c-1 20 -3 31 -4 34c-8 1 -37 -1 -86 -6
s-101 -10 -154 -17s-94 -14 -123 -21c-2 -45 19 -74 52 -114c29 -39 45 -61 54 -93c-4 -5 -10 -11 -21 -11c-5 0 -11 2 -16 6c-15 8 -25 22 -50 57l-18 26c-9 13 -16 24 -25 45c-7 16 -12 25 -17 28c-32 -95 -53 -143 -63 -142h-8c-15 0 -23 7 -22 20c1 19 8 46 19 80
c12 35 26 67 43 96l-40 4c-69 5 -121 12 -154 39c-1 1 -6 7 -10 14c12 13 19 18 36 29c3 1 7 4 12 7c12 17 22 25 50 46c27 20 42 32 55 52c-5 4 -14 9 -29 16c-37 19 -58 31 -65 50l9 19c5 5 48 -13 91 -34c1 5 1 13 2 25c1 24 4 39 8 46c2 8 34 13 37 13
c5 -3 11 -11 11 -15c1 -6 -1 -18 -5 -35c0 -7 -5 -31 -5 -47v-9c28 3 54 10 109 29c49 16 95 30 138 41c44 11 95 20 154 27c-13 23 -20 50 -20 77c0 25 6 43 17 56c88 2 133 -37 133 -86c0 -11 -2 -22 -6 -33c27 1 61 22 65 38c-5 5 -14 11 -27 19c-17 9 -26 16 -31 33
c-11 12 -16 25 -16 39c0 23 16 44 43 55c11 3 20 5 28 5c41 0 68 -35 68 -84c0 -5 0 -11 -1 -18c16 8 24 36 24 83c0 7 0 18 -1 31c8 1 16 2 24 2zM858 605c0 21 -14 41 -37 48c-4 -6 -6 -13 -6 -20c0 -21 20 -42 40 -45c2 5 3 11 3 17zM739 543c-16 16 -37 28 -57 28
c-3 -8 -4 -16 -4 -25c0 -15 5 -31 12 -38c2 -2 5 -3 10 -3c6 0 14 1 25 4c0 -1 14 8 14 34zM426 241c119 19 186 28 257 28c-2 15 -6 31 -11 46c-3 8 -4 18 -8 31c-2 12 -4 25 -5 38c-3 25 -6 36 -18 51c-46 -4 -87 -10 -123 -17c-35 -7 -65 -15 -89 -23
c-23 -7 -50 -17 -80 -28c-31 -12 -55 -20 -74 -25c5 -19 13 -52 23 -99l4 -19c29 3 77 10 124 17zM231 225c5 0 11 0 18 1c-5 15 -12 36 -13 41c-6 23 -11 40 -16 50l-30 -26c-25 -23 -40 -35 -52 -55c52 -8 72 -11 93 -11z" />
    <glyph glyph-name="at" unicode="@" horiz-adv-x="1072" 
d="M52 305c-4 262 214 427 490 425c283 3 478 -163 475 -371c0 -169 -117 -264 -227 -264h-130v58c-29 -39 -89 -68 -156 -68c-123 0 -214 92 -214 214s91 211 214 211c68 0 127 -28 154 -67v57h104v-321h20c55 0 124 54 124 180c0 156 -125 274 -364 274
c-231 0 -380 -130 -380 -328c0 -208 148 -330 382 -330h317v-100h-324c-288 0 -485 146 -485 430zM524 174h7c75 0 124 60 124 125c0 64 -47 122 -122 122h-7c-73 0 -121 -50 -121 -122c0 -73 46 -125 119 -125z" />
    <glyph glyph-name="ampersand" unicode="&#x26;" horiz-adv-x="767" 
d="M53 185c0 83 53 141 130 169c-76 28 -125 84 -125 165c0 110 95 181 211 181h181v-97h-155c-71 0 -121 -34 -121 -98s49 -101 121 -101h193v121h117v-121h137v-97h-137v-307h-336c-117 0 -216 74 -216 185zM298 97h190v210h-190c-76 0 -129 -39 -129 -104
c0 -68 52 -106 129 -106z" />
    <glyph glyph-name="paragraph" unicode="&#xb6;" horiz-adv-x="769" 
d="M276 -200v483h-31c-120 0 -212 95 -212 208c0 115 93 209 213 209h473v-97h-90v-803h-116v803h-121v-803h-116z" />
    <glyph glyph-name="section" unicode="&#xa7;" horiz-adv-x="605" 
d="M87 -60v97h262c40 0 64 17 64 46c0 27 -18 42 -59 53l-167 42c-95 24 -140 70 -140 143c0 51 30 95 86 127c-39 29 -53 67 -53 111c0 82 59 141 181 141h240v-97h-241c-41 0 -64 -16 -64 -45c0 -25 17 -42 58 -53l172 -46c92 -24 136 -67 136 -136
c0 -55 -30 -99 -86 -131c35 -26 53 -63 53 -110c0 -82 -59 -142 -181 -142h-261zM446 308c0 33 -30 52 -78 64l-141 35c-43 -17 -64 -42 -64 -75s29 -52 77 -64l141 -35c43 16 65 41 65 75z" />
    <glyph glyph-name="copyright" unicode="&#xa9;" horiz-adv-x="1044" 
d="M50 351c-5 219 207 394 472 390c265 4 477 -171 472 -390c5 -220 -207 -394 -472 -391c-265 -3 -477 171 -472 391zM907 351c4 171 -174 311 -385 308c-211 3 -389 -137 -385 -308c-4 -173 174 -312 385 -309c211 -3 389 136 385 309zM316 356c0 116 73 201 204 201
c122 0 183 -62 193 -143h-100c-9 39 -39 60 -90 60h-6c-64 0 -103 -43 -103 -118s39 -118 103 -118h6c49 0 80 24 91 61h99c-12 -79 -73 -144 -193 -144c-131 0 -204 85 -204 201z" />
    <glyph glyph-name="registered" unicode="&#xae;" horiz-adv-x="1044" 
d="M50 351c-5 219 207 394 472 390c265 4 477 -171 472 -390c5 -220 -207 -394 -472 -391c-265 -3 -477 171 -472 391zM907 351c4 171 -174 311 -385 308c-211 3 -389 -137 -385 -308c-4 -173 174 -312 385 -309c211 -3 389 136 385 309zM359 165v382h202
c82 0 130 -46 130 -108c0 -52 -33 -84 -81 -96c52 0 76 -16 76 -59v-119h-92v98c0 28 -10 39 -41 39h-103v-137h-91zM450 379h91c37 0 58 16 58 45s-20 42 -59 42h-90v-87z" />
    <glyph glyph-name="uni2117" unicode="&#x2117;" horiz-adv-x="1044" 
d="M50 351c-5 219 207 394 472 390c265 4 477 -171 472 -390c5 -220 -207 -394 -472 -391c-265 -3 -477 171 -472 391zM907 351c4 171 -174 311 -385 308c-211 3 -389 -137 -385 -308c-4 -173 174 -312 385 -309c211 -3 389 136 385 309zM382 167v378h184
c88 0 146 -47 146 -126c0 -76 -58 -123 -146 -123h-92v-129h-92zM474 375h89c35 0 57 16 57 44c0 29 -23 45 -58 45h-88v-89z" />
    <glyph glyph-name="trademark" unicode="&#x2122;" horiz-adv-x="1128" 
d="M39 608v92h417v-92h-157v-288h-103v288h-157zM904 700h141v-380h-102v247l-118 -247h-71l-124 253v-253h-102v380h142l119 -244z" />
    <glyph glyph-name="uni2105" unicode="&#x2105;" horiz-adv-x="833" 
d="M31 557c0 93 68 148 166 148c91 0 140 -45 149 -108h-89c-7 21 -27 36 -60 36h-6c-45 0 -70 -31 -70 -76s25 -75 70 -75h6c32 0 53 13 60 34h89c-11 -61 -60 -106 -149 -106c-99 0 -166 53 -166 147zM125 0l479 700h98l-479 -700h-98zM468 142c0 86 66 148 167 148
s169 -62 169 -148c0 -85 -68 -147 -169 -147s-167 62 -167 147zM633 67h5c47 0 75 28 75 75s-28 76 -75 76h-5c-45 0 -75 -29 -75 -76s30 -75 75 -75z" />
    <glyph glyph-name="degree" unicode="&#xb0;" horiz-adv-x="462" 
d="M46 525c0 104 81 185 185 185s185 -81 185 -185s-81 -185 -185 -185s-185 81 -185 185zM313 525c0 46 -37 85 -82 85c-46 0 -82 -39 -82 -85c0 -48 36 -88 82 -88c45 0 82 40 82 88z" />
    <glyph glyph-name="bar" unicode="|" horiz-adv-x="295" 
d="M88 -85v870h119v-870h-119z" />
    <glyph glyph-name="brokenbar" unicode="&#xa6;" horiz-adv-x="300" 
d="M91 419v366h118v-366h-118zM91 -85v376h118v-376h-118z" />
    <glyph glyph-name="dagger" unicode="&#x2020;" horiz-adv-x="619" 
d="M251 -85v541h-197v101h197v228h117v-228h197v-101h-197v-541h-117z" />
    <glyph glyph-name="uni2113" unicode="&#x2113;" horiz-adv-x="504" 
d="M281 102h133v-102h-183c-69 0 -106 36 -106 105v76l-79 -44v118l79 43v238c0 112 63 174 176 174c125 0 178 -84 178 -180c0 -99 -58 -182 -169 -243l-68 -39v-106c0 -31 10 -40 39 -40zM242 544v-181c85 48 119 100 119 163c0 53 -24 83 -63 83c-36 0 -56 -24 -56 -65z
" />
    <glyph glyph-name="daggerdbl" unicode="&#x2021;" horiz-adv-x="619" 
d="M250 -85v228h-197v100h197v213h-197v101h197v228h118v-228h197v-101h-197v-213h197v-100h-197v-228h-118z" />
    <glyph glyph-name="uni2116" unicode="&#x2116;" horiz-adv-x="1224" 
d="M838 557c0 86 69 148 168 148c100 0 168 -62 168 -148c0 -85 -68 -147 -168 -147c-99 0 -168 62 -168 147zM637 156v544h123v-700h-158l-382 550v-550h-123v700h161zM929 557c0 -47 28 -75 75 -75h5c45 0 75 28 75 75s-30 76 -75 76h-5c-47 0 -75 -29 -75 -76zM838 277
v73h323v-73h-323z" />
    <glyph glyph-name="asciicircum" unicode="^" horiz-adv-x="603" 
d="M564 285h-122l-142 294l-142 -294h-119l205 415h115z" />
    <glyph glyph-name="_662" horiz-adv-x="661" 
d="M47 509c0 135 124 235 284 235c161 0 282 -100 282 -235c0 -133 -121 -234 -282 -234c-160 0 -284 101 -284 234zM559 509c0 105 -100 183 -228 183c-127 0 -229 -78 -229 -183c0 -102 102 -182 229 -182c128 0 228 80 228 182zM208 513c0 68 44 121 123 121
c71 0 113 -36 117 -87h-62c-5 23 -24 36 -53 36h-3c-36 0 -61 -25 -61 -70s25 -69 61 -69h3c28 0 49 12 54 36h61c-8 -53 -48 -88 -117 -88c-79 0 -123 52 -123 121z" />
    <glyph glyph-name="_663" horiz-adv-x="661" 
d="M47 509c0 135 124 235 284 235c161 0 282 -100 282 -235c0 -133 -121 -234 -282 -234c-160 0 -284 101 -284 234zM559 509c0 105 -100 183 -228 183c-127 0 -229 -78 -229 -183c0 -102 102 -182 229 -182c128 0 228 80 228 182zM234 398v230h122c48 0 79 -27 79 -63
c0 -29 -17 -50 -44 -58c29 0 41 -12 41 -37v-72h-57v58c0 16 -8 23 -25 23h-59v-81h-57zM291 527h53c21 0 33 10 33 27c0 16 -11 24 -34 24h-52v-51z" />
    <glyph glyph-name="_664" horiz-adv-x="661" 
d="M47 509c0 135 124 235 284 235c161 0 282 -100 282 -235c0 -133 -121 -234 -282 -234c-160 0 -284 101 -284 234zM559 509c0 105 -100 183 -228 183c-127 0 -229 -78 -229 -183c0 -102 102 -182 229 -182c128 0 228 80 228 182zM248 398v229h111c55 0 89 -31 89 -76
s-34 -75 -89 -75h-53v-78h-58zM306 525h51c21 0 33 10 33 26s-13 26 -33 26h-51v-52z" />
    <glyph glyph-name="at.case" horiz-adv-x="1056" 
d="M54 335c-4 262 214 427 490 425c283 3 478 -163 475 -371c0 -169 -117 -264 -227 -264h-130v58c-29 -39 -89 -68 -156 -68c-123 0 -214 92 -214 214s91 211 214 211c68 0 127 -28 154 -67v57h104v-321h20c55 0 124 54 124 180c0 156 -125 274 -364 274
c-231 0 -380 -130 -380 -328c0 -208 148 -330 382 -330h317v-100h-324c-288 0 -485 146 -485 430zM526 204h7c75 0 124 60 124 125c0 64 -47 122 -122 122h-7c-73 0 -121 -50 -121 -122c0 -73 46 -125 119 -125z" />
    <glyph glyph-name="_666" horiz-adv-x="913" 
d="M51 336c-3 252 184 427 440 424c224 0 352 -114 352 -252v-383h-109v67c-35 -44 -95 -77 -171 -77c-123 0 -223 86 -223 215s101 210 219 210c79 0 138 -28 173 -75v31c0 100 -89 164 -241 164h-9c-198 0 -317 -131 -317 -322c0 -201 142 -333 346 -333h332v-100h-343
c-252 -3 -453 173 -449 431zM584 205h7c79 0 136 55 136 125c0 69 -53 120 -134 120h-6c-78 0 -133 -49 -133 -120c0 -70 54 -125 130 -125z" />
    <glyph glyph-name="ampersand.ss04" horiz-adv-x="779" 
d="M772 0h-152l-72 64c-67 -48 -149 -74 -236 -74c-160 0 -262 72 -262 196c0 84 50 146 149 185c-57 52 -85 98 -85 167c0 103 96 172 214 172c120 0 215 -69 215 -176c0 -84 -54 -155 -151 -196l145 -129c29 47 44 103 44 167v20h113v-23c0 -95 -26 -175 -74 -238z
M231 532c0 -48 27 -74 78 -121l12 5c67 24 105 65 105 114c0 51 -34 83 -98 83c-63 0 -97 -32 -97 -81zM467 135l-183 161l-33 -13c-56 -21 -83 -50 -83 -95c0 -58 54 -101 143 -101c57 0 111 17 156 48z" />
    <glyph glyph-name="at.ss06" horiz-adv-x="919" 
d="M51 306c-3 252 184 427 440 424c224 0 352 -114 352 -252v-383h-109v67c-35 -44 -95 -77 -171 -77c-123 0 -223 86 -223 215s101 210 219 210c79 0 138 -28 173 -75v31c0 100 -89 164 -241 164h-9c-198 0 -317 -131 -317 -322c0 -201 142 -333 346 -333h332v-100h-343
c-252 -3 -453 173 -449 431zM584 175h7c79 0 136 55 136 125c0 69 -53 120 -134 120h-6c-78 0 -133 -49 -133 -120c0 -70 54 -125 130 -125z" />
    <glyph glyph-name="section.tnum" 
d="M154 -60v97h242c41 0 64 17 64 46c0 25 -17 41 -58 53l-147 43c-96 28 -141 71 -141 143c0 52 30 95 89 127c-41 29 -56 66 -56 110c0 82 60 141 181 141h221v-97h-222c-41 0 -64 -16 -64 -45c0 -27 18 -42 58 -55l153 -45c91 -27 135 -67 135 -135
c0 -56 -31 -100 -88 -133c40 -29 55 -65 55 -108c0 -83 -58 -142 -181 -142h-241zM493 308c0 33 -28 49 -77 64l-121 35c-43 -16 -65 -41 -65 -75c0 -33 27 -49 78 -64l120 -35c43 16 65 41 65 75z" />
    <glyph glyph-name="degree.tnum" 
d="M175 525c0 104 81 185 185 185s185 -81 185 -185s-81 -185 -185 -185s-185 81 -185 185zM442 525c0 46 -37 85 -82 85c-46 0 -82 -39 -82 -85c0 -48 36 -88 82 -88c45 0 82 40 82 88z" />
    <glyph glyph-name="uni0308" unicode="&#x308;" horiz-adv-x="0" 
d="M-372 575v120h125v-120h-125zM-154 575v120h125v-120h-125z" />
    <glyph glyph-name="uni0307" unicode="&#x307;" horiz-adv-x="0" 
d="M-158 573v127h129v-127h-129z" />
    <glyph glyph-name="gravecomb" unicode="&#x300;" horiz-adv-x="0" 
d="M-113 557l-112 144h134l65 -144h-87z" />
    <glyph glyph-name="acutecomb" unicode="&#x301;" horiz-adv-x="0" 
d="M-226 557l66 144h133l-111 -144h-88z" />
    <glyph glyph-name="uni030B" unicode="&#x30b;" horiz-adv-x="0" 
d="M-413 557l65 144h133l-111 -144h-87zM-233 557l65 144h133l-111 -144h-87z" />
    <glyph glyph-name="_676" horiz-adv-x="0" 
d="M-201 468v65h34c35 0 53 13 53 40v2h-63v125h132v-127c0 -61 -47 -105 -117 -105h-39z" />
    <glyph glyph-name="uni0302" unicode="&#x302;" horiz-adv-x="0" 
d="M-442 557l148 144h123l149 -144h-100l-109 72l-112 -72h-99z" />
    <glyph glyph-name="uni030C" unicode="&#x30c;" horiz-adv-x="0" 
d="M-295 557l-149 144h100l108 -73l107 73h99l-149 -144h-116z" />
    <glyph glyph-name="uni0306" unicode="&#x306;" horiz-adv-x="0" 
d="M-386 708h96c4 -41 31 -67 86 -67s81 26 85 67h97c-2 -89 -73 -151 -182 -151s-180 62 -182 151z" />
    <glyph glyph-name="uni030A" unicode="&#x30a;" horiz-adv-x="0" 
d="M-269 662c0 56 51 105 120 105s120 -49 120 -105c0 -61 -50 -105 -120 -105s-120 44 -120 105zM-98 662c0 23 -19 41 -50 41c-29 0 -51 -18 -51 -41s22 -41 51 -41c31 0 50 18 50 41z" />
    <glyph glyph-name="tildecomb" unicode="&#x303;" horiz-adv-x="0" 
d="M-226 583l-34 15c-14 5 -40 17 -53 17c-24 0 -36 -19 -36 -48h-89v27c0 60 50 111 110 111c32 0 49 -6 80 -19l11 -5l33 -14l11 -5c21 -9 34 -15 46 -15c23 0 35 19 35 48h88v-27c0 -61 -39 -111 -106 -111c-31 0 -52 7 -96 26z" />
    <glyph glyph-name="uni0304" unicode="&#x304;" horiz-adv-x="0" 
d="M-373 575v93h343v-93h-343z" />
    <glyph glyph-name="uni0312" unicode="&#x312;" horiz-adv-x="0" 
d="M4 811v-65h-35c-35 0 -52 -13 -52 -40v-2h62v-125h-131v127c0 61 47 105 116 105h40z" />
    <glyph glyph-name="dotbelowcomb" unicode="&#x323;" horiz-adv-x="0" 
d="M-165 -195v124h135v-124h-135z" />
    <glyph glyph-name="uni0326" unicode="&#x326;" horiz-adv-x="0" 
d="M-186 -304v65h35c35 0 52 13 52 40v2h-63v125h132v-127c0 -61 -47 -105 -116 -105h-40z" />
    <glyph glyph-name="uni0327" unicode="&#x327;" horiz-adv-x="0" 
d="M-235 -241v72h86c32 0 49 11 49 32c0 19 -16 33 -44 33h-46v119h65v-60c56 -1 99 -36 99 -93c0 -65 -54 -103 -126 -103h-83z" />
    <glyph glyph-name="uni0328" unicode="&#x328;" horiz-adv-x="0" 
d="M-211 -120c0 64 54 109 113 133l57 -13c-53 -29 -88 -58 -88 -94c0 -31 27 -44 63 -44h36v-75h-56c-75 0 -125 40 -125 93z" />
    <glyph glyph-name="uni0335" unicode="&#x335;" horiz-adv-x="0" 
d="M-596 328v105h566v-105h-566z" />
    <glyph glyph-name="uni0336" unicode="&#x336;" horiz-adv-x="0" 
d="M-875 500v100h845v-100h-845z" />
    <glyph glyph-name="uni0337" unicode="&#x337;" horiz-adv-x="0" 
d="M-327 268v109l297 156v-110z" />
    <glyph glyph-name="uni0338" unicode="&#x338;" horiz-adv-x="0" 
d="M-756 -42l-77 79l721 707l77 -80z" />
    <glyph glyph-name="_692" horiz-adv-x="0" 
d="M-449 296v108h419v-108h-419z" />
    <glyph glyph-name="_693" horiz-adv-x="0" 
d="M-498 192v120l468 220v-119z" />
    <glyph glyph-name="_694" horiz-adv-x="0" 
d="M-551 -35l-64 75l515 496l66 -73z" />
    <glyph glyph-name="_695" horiz-adv-x="0" 
d="M-429 560v86h400v-86h-400z" />
    <glyph glyph-name="_696" horiz-adv-x="0" 
d="M-380 771v113h123v-113h-123zM-153 771v113h123v-113h-123z" />
    <glyph glyph-name="_697" horiz-adv-x="0" 
d="M-164 768v128h134v-128h-134z" />
    <glyph glyph-name="_698" horiz-adv-x="0" 
d="M-114 751l-113 139h145l58 -139h-90z" />
    <glyph glyph-name="_699" horiz-adv-x="0" 
d="M-228 751l58 139h145l-114 -139h-89z" />
    <glyph glyph-name="_700" horiz-adv-x="0" 
d="M-450 751l57 139h145l-113 -139h-89zM-238 751l58 139h145l-113 -139h-90z" />
    <glyph glyph-name="_701" horiz-adv-x="0" 
d="M-414 751l135 139h139l135 -139h-106l-98 64l-99 -64h-106z" />
    <glyph glyph-name="_702" horiz-adv-x="0" 
d="M-279 751l-135 139h106l99 -64l98 64h106l-135 -139h-139z" />
    <glyph glyph-name="_703" horiz-adv-x="0" 
d="M-386 897h97c5 -37 34 -61 85 -61c49 0 79 24 84 61h98c-2 -85 -72 -146 -182 -146s-180 61 -182 146z" />
    <glyph glyph-name="_704" horiz-adv-x="0" 
d="M-256 854c0 54 52 102 119 102c66 0 120 -48 120 -102c0 -59 -52 -103 -120 -103s-119 44 -119 103zM-87 854c0 21 -21 39 -50 39s-50 -18 -50 -39c0 -23 21 -40 50 -40s50 17 50 40z" />
    <glyph glyph-name="_705" horiz-adv-x="0" 
d="M-237 777l-35 15c-5 1 -8 4 -11 5c-19 8 -29 12 -42 12c-27 0 -42 -19 -42 -48h-91v27c0 60 53 110 118 110c36 0 52 -7 91 -23l34 -15c9 -6 44 -19 55 -19c27 0 41 18 41 47h91v-27c0 -60 -43 -110 -111 -110c-35 0 -58 7 -98 26z" />
    <glyph glyph-name="_706" horiz-adv-x="0" 
d="M-376 771v96h351v-96h-351z" />
    <glyph glyph-name="_707" horiz-adv-x="0" 
d="M-165 -195v124h135v-124h-135z" />
    <glyph glyph-name="acute" unicode="&#xb4;" horiz-adv-x="251" 
d="M25 557l66 144h133l-111 -144h-88z" />
    <glyph glyph-name="breve" unicode="&#x2d8;" horiz-adv-x="408" 
d="M22 708h96c4 -41 31 -67 86 -67s81 26 85 67h97c-2 -89 -73 -151 -182 -151s-180 62 -182 151z" />
    <glyph glyph-name="caron" unicode="&#x2c7;" horiz-adv-x="474" 
d="M179 557l-149 144h100l108 -73l107 73h99l-149 -144h-116z" />
    <glyph glyph-name="cedilla" unicode="&#xb8;" horiz-adv-x="265" 
d="M30 -241v72h86c32 0 49 11 49 32c0 19 -16 33 -44 33h-46v119h65v-60c56 -1 99 -36 99 -93c0 -65 -54 -103 -126 -103h-83z" />
    <glyph glyph-name="circumflex" unicode="&#x2c6;" horiz-adv-x="464" 
d="M22 557l148 144h123l149 -144h-100l-109 72l-112 -72h-99z" />
    <glyph glyph-name="dieresis" unicode="&#xa8;" horiz-adv-x="400" 
d="M28 575v120h125v-120h-125zM246 575v120h125v-120h-125z" />
    <glyph glyph-name="dotaccent" unicode="&#x2d9;" horiz-adv-x="187" 
d="M29 573v127h129v-127h-129z" />
    <glyph glyph-name="grave" unicode="`" horiz-adv-x="251" 
d="M138 557l-112 144h134l65 -144h-87z" />
    <glyph glyph-name="hungarumlaut" unicode="&#x2dd;" horiz-adv-x="447" 
d="M34 557l65 144h133l-111 -144h-87zM214 557l65 144h133l-111 -144h-87z" />
    <glyph glyph-name="macron" unicode="&#xaf;" horiz-adv-x="402" 
d="M29 575v93h343v-93h-343z" />
    <glyph glyph-name="ogonek" unicode="&#x2db;" horiz-adv-x="239" 
d="M28 -120c0 64 54 109 113 133l57 -13c-53 -29 -88 -58 -88 -94c0 -31 27 -44 63 -44h36v-75h-56c-75 0 -125 40 -125 93z" />
    <glyph glyph-name="ring" unicode="&#x2da;" horiz-adv-x="297" 
d="M28 662c0 56 51 105 120 105s120 -49 120 -105c0 -61 -50 -105 -120 -105s-120 44 -120 105zM199 662c0 23 -19 41 -50 41c-29 0 -51 -18 -51 -41s22 -41 51 -41c31 0 50 18 50 41z" />
    <glyph glyph-name="tilde" unicode="&#x2dc;" horiz-adv-x="461" 
d="M235 583l-34 15c-14 5 -40 17 -53 17c-24 0 -36 -19 -36 -48h-89v27c0 60 50 111 110 111c32 0 49 -6 80 -19l11 -5l33 -14l11 -5c21 -9 34 -15 46 -15c23 0 35 19 35 48h88v-27c0 -61 -39 -111 -106 -111c-31 0 -52 7 -96 26z" />
    <glyph glyph-name="_721" horiz-adv-x="248" 
d="M96 979l35 92h119l-77 -92h-77zM14 854c0 54 52 102 119 102s120 -48 120 -102c0 -59 -51 -103 -120 -103c-67 0 -119 44 -119 103zM183 854c0 21 -21 39 -49 39c-29 0 -51 -18 -51 -39c0 -23 22 -40 51 -40c28 0 49 17 49 40z" />
    <glyph glyph-name="_722" horiz-adv-x="318" 
d="M105 794l49 128h132l-105 -128h-76zM21 662c0 56 51 105 120 105s120 -49 120 -105c0 -61 -50 -105 -120 -105s-120 44 -120 105zM192 662c0 23 -19 41 -50 41c-29 0 -51 -18 -51 -41s22 -41 51 -41c31 0 50 18 50 41z" />
    <glyph glyph-name="uniE000" unicode="&#xe000;" horiz-adv-x="540" 
d="M70 150v400h400v-400h-400zM145 225h250v250h-250v-250z" />
    <glyph glyph-name="uniE001" unicode="&#xe001;" horiz-adv-x="690" 
d="M70 75v550h550v-550h-550zM145 150h400v400h-400v-400z" />
    <glyph glyph-name="uniE002" unicode="&#xe002;" horiz-adv-x="880" 
d="M90 0v700h700v-700h-700zM165 75h550v550h-550v-550z" />
    <glyph glyph-name="uniE003" unicode="&#xe003;" horiz-adv-x="540" 
d="M70 150v400h400v-400h-400zM145 225h250v250h-250v-250zM220 300v100h100v-100h-100z" />
    <glyph glyph-name="uniE004" unicode="&#xe004;" horiz-adv-x="690" 
d="M70 75v550h550v-550h-550zM145 150h400v400h-400v-400zM220 225v250h250v-250h-250zM295 300h100v100h-100v-100z" />
    <glyph glyph-name="uniE005" unicode="&#xe005;" horiz-adv-x="880" 
d="M90 0v700h700v-700h-700zM165 75h550v550h-550v-550zM240 150v400h400v-400h-400zM315 225h250v250h-250v-250zM390 300v100h100v-100h-100z" />
    <glyph glyph-name="uniE006" unicode="&#xe006;" horiz-adv-x="540" 
d="M70 150v400h400v-400h-400z" />
    <glyph glyph-name="uniE007" unicode="&#xe007;" horiz-adv-x="690" 
d="M70 75v550h550v-550h-550z" />
    <glyph glyph-name="uniE008" unicode="&#xe008;" horiz-adv-x="880" 
d="M90 0v700h700v-700h-700z" />
    <glyph glyph-name="uniE010" unicode="&#xe010;" horiz-adv-x="580" 
d="M50 350c0 131 109 240 240 240s240 -109 240 -240s-109 -240 -240 -240s-240 109 -240 240zM455 350c0 91 -75 165 -165 165s-165 -74 -165 -165s74 -165 165 -165s165 74 165 165z" />
    <glyph glyph-name="uniE011" unicode="&#xe011;" horiz-adv-x="730" 
d="M50 350c-4 169 146 319 315 315c169 4 319 -146 315 -315c4 -169 -146 -319 -315 -315c-169 -4 -319 146 -315 315zM605 350c0 131 -109 240 -240 240s-240 -109 -240 -240s109 -240 240 -240s240 109 240 240z" />
    <glyph glyph-name="uniE012" unicode="&#xe012;" horiz-adv-x="880" 
d="M50 350c-5 210 181 394 390 390c209 4 395 -180 390 -390c5 -209 -181 -395 -390 -390c-209 -5 -395 181 -390 390zM755 350c4 169 -146 319 -315 315c-169 4 -319 -146 -315 -315c-4 -169 146 -319 315 -315c169 -4 319 146 315 315z" />
    <glyph glyph-name="uniE013" unicode="&#xe013;" horiz-adv-x="580" 
d="M50 350c0 131 109 240 240 240s240 -109 240 -240s-109 -240 -240 -240s-240 109 -240 240zM455 350c0 91 -75 165 -165 165s-165 -74 -165 -165s74 -165 165 -165s165 74 165 165zM200 350c0 50 42 90 90 90c49 0 90 -40 90 -90c0 -49 -41 -90 -90 -90
c-48 0 -90 41 -90 90z" />
    <glyph glyph-name="uniE014" unicode="&#xe014;" horiz-adv-x="730" 
d="M50 350c-4 169 146 319 315 315c169 4 319 -146 315 -315c4 -169 -146 -319 -315 -315c-169 -4 -319 146 -315 315zM605 350c0 131 -109 240 -240 240s-240 -109 -240 -240s109 -240 240 -240s240 109 240 240zM200 350c0 91 75 165 165 165s165 -74 165 -165
s-75 -165 -165 -165s-165 74 -165 165zM455 350c0 50 -40 90 -90 90c-49 0 -90 -40 -90 -90c0 -49 41 -90 90 -90c50 0 90 41 90 90z" />
    <glyph glyph-name="uniE015" unicode="&#xe015;" horiz-adv-x="880" 
d="M50 350c-5 210 181 394 390 390c209 4 395 -180 390 -390c5 -209 -181 -395 -390 -390c-209 -5 -395 181 -390 390zM755 350c4 169 -146 319 -315 315c-169 4 -319 -146 -315 -315c-4 -169 146 -319 315 -315c169 -4 319 146 315 315zM200 350c0 131 109 240 240 240
s240 -109 240 -240s-109 -240 -240 -240s-240 109 -240 240zM605 350c0 91 -75 165 -165 165s-165 -74 -165 -165s74 -165 165 -165s165 74 165 165zM350 350c0 50 42 90 90 90c50 0 90 -40 90 -90c0 -49 -40 -90 -90 -90c-48 0 -90 41 -90 90z" />
    <glyph glyph-name="uniE016" unicode="&#xe016;" horiz-adv-x="640" 
d="M80 350c0 131 109 240 240 240s240 -109 240 -240s-109 -240 -240 -240s-240 109 -240 240z" />
    <glyph glyph-name="uniE017" unicode="&#xe017;" horiz-adv-x="700" 
d="M50 350c-4 161 139 303 300 300c161 3 303 -139 300 -300c3 -161 -139 -304 -300 -300c-161 -4 -304 139 -300 300z" />
    <glyph glyph-name="uniE018" unicode="&#xe018;" horiz-adv-x="820" 
d="M50 350c-4 193 166 364 360 360c193 4 364 -167 360 -360c4 -194 -167 -364 -360 -360c-194 -4 -364 166 -360 360z" />
    <glyph glyph-name="uniE00A" unicode="&#xe00a;" horiz-adv-x="428" 
d="M105 -21c0 33 9 61 36 90c-60 12 -81 52 -81 111v340c0 59 21 102 81 114c-25 28 -36 54 -36 87c0 74 62 124 137 124h152v-97h-122c-27 0 -49 -17 -49 -40v-9c0 -23 22 -40 49 -40h47v-97h-79c-41 0 -62 -21 -62 -62v-300c0 -42 21 -63 62 -63h79v-96h-47
c-28 0 -49 -16 -49 -41v-7c0 -24 21 -41 49 -41h122v-97h-151c-74 0 -138 50 -138 124z" />
    <glyph glyph-name="uniE00B" unicode="&#xe00b;" horiz-adv-x="434" 
d="M327 721c0 -33 -9 -61 -36 -90c60 -12 81 -52 81 -111v-340c0 -59 -21 -102 -81 -114c25 -28 36 -54 36 -87c0 -74 -62 -124 -137 -124h-152v97h122c27 0 49 17 49 40v9c0 23 -22 40 -49 40h-47v97h79c41 0 62 21 62 62v300c0 42 -21 63 -62 63h-79v96h47
c28 0 49 16 49 41v7c0 24 -21 41 -49 41h-122v97h151c74 0 138 -50 138 -124z" />
    <glyph glyph-name="uniE00A.case" horiz-adv-x="443" 
d="M96 129c0 45 19 80 47 97c-56 15 -91 65 -91 125s33 106 92 121c-29 17 -48 53 -48 100c0 71 64 128 145 128h145v-97h-121c-29 0 -53 -15 -53 -43c0 -31 22 -48 53 -48h51v-96h-78c-41 0 -70 -27 -70 -64c0 -41 29 -68 70 -68h78v-96h-51c-31 0 -53 -16 -53 -47
c0 -28 22 -44 53 -44h121v-97h-141c-82 0 -149 56 -149 129z" />
    <glyph glyph-name="uniE00B.case" horiz-adv-x="443" 
d="M347 571c0 -45 -19 -80 -47 -97c56 -15 91 -65 91 -125s-33 -106 -92 -121c29 -17 48 -53 48 -100c0 -71 -64 -128 -145 -128h-145v97h121c29 0 53 15 53 43c0 31 -22 48 -53 48h-51v96h78c41 0 70 27 70 64c0 41 -29 68 -70 68h-78v96h51c31 0 53 16 53 47
c0 28 -22 44 -53 44h-121v97h141c82 0 149 -57 149 -129z" />
    </font>
</defs>
</svg>
