<?xml version="1.0" standalone="no"?>
<!DOCTYPE svg PUBLIC "-//W3C//DTD SVG 1.1//EN" "http://www.w3.org/Graphics/SVG/1.1/DTD/svg11.dtd" >
<svg xmlns="http://www.w3.org/2000/svg" xmlns:xlink="http://www.w3.org/1999/xlink" version="1.1">
<metadata>
Created by FontForge 20170812 at Mon Aug 27 04:07:09 2018
 By www-data
Copyright 2017 Dinamo \(Johannes Breyer, Fabian Harb\). |DCNT
</metadata>
<defs>
<font id="Favorit-ExtendedBold" horiz-adv-x="720" >
  <font-face 
    font-family="Favorit Extended"
    font-weight="700"
    font-stretch="semi-expanded"
    units-per-em="1000"
    panose-1="2 0 0 6 3 0 0 2 0 4"
    ascent="750"
    descent="-250"
    x-height="500"
    cap-height="700"
    bbox="-883 -309 2479 1076"
    underline-thickness="24"
    underline-position="-49"
    unicode-range="U+000D-FB02"
  />
<missing-glyph horiz-adv-x="750" 
d="M80 0v700h590v-700h-590zM190 102h370v496h-370v-496z" />
    <glyph glyph-name="f_f" unicode="ff" horiz-adv-x="840" 
d="M148 0v393h-128v107h128v85c0 71 44 115 123 115h174v-110h-120c-32 0 -44 -8 -44 -37v-53h260v85c0 71 44 115 123 115h184v-110h-130c-32 0 -44 -8 -44 -37v-53h144v-107h-144v-393h-133v393h-260v-393h-133z" />
    <glyph glyph-name="f_f_i" unicode="ffi" horiz-adv-x="1138" 
d="M148 0v393h-128v107h128v85c0 71 44 115 123 115h184v-110h-130c-32 0 -44 -8 -44 -37v-53h260v85c0 71 44 115 123 115h184v-110h-130c-32 0 -44 -8 -44 -37v-53h393v-500h-133v393h-260v-393h-133v393h-260v-393h-133zM928 561v139h143v-139h-143z" />
    <glyph glyph-name="f_f_l" unicode="ffl" horiz-adv-x="1138" 
d="M148 0v393h-128v107h128v85c0 71 44 115 123 115h184v-110h-130c-32 0 -44 -8 -44 -37v-53h260v85c0 71 44 115 123 115h403v-700h-133v590h-216c-32 0 -44 -8 -44 -37v-53h144v-107h-144v-393h-133v393h-260v-393h-133z" />
    <glyph glyph-name="fi" unicode="fi" horiz-adv-x="705" 
d="M148 0v393h-128v107h128v85c0 71 44 115 123 115h144v-110h-90c-32 0 -44 -8 -44 -37v-53h353v-500h-133v393h-220v-393h-133zM495 561v139h143v-139h-143z" />
    <glyph glyph-name="fl" unicode="fl" horiz-adv-x="700" 
d="M148 0v393h-128v107h128v85c0 71 44 115 123 115h358v-700h-133v590h-171c-32 0 -44 -8 -44 -37v-53h124v-107h-124v-393h-133z" />
    <glyph glyph-name=".notdef" horiz-adv-x="750" 
d="M80 0v700h590v-700h-590zM190 102h370v496h-370v-496z" />
    <glyph glyph-name="NULL" horiz-adv-x="600" 
 />
    <glyph glyph-name="CR" unicode="&#xd;" horiz-adv-x="244" 
 />
    <glyph glyph-name="space" unicode=" " horiz-adv-x="262" 
 />
    <glyph glyph-name="A" unicode="A" horiz-adv-x="809" 
d="M659 0l-76 164h-361l-75 -164h-146l327 700h154l326 -700h-149zM278 286h250l-125 271z" />
    <glyph glyph-name="Aacute" unicode="&#xc1;" horiz-adv-x="809" 
d="M659 0l-76 164h-361l-75 -164h-146l327 700h154l326 -700h-149zM278 286h250l-125 271zM360 745l50 145h157l-115 -145h-92z" />
    <glyph glyph-name="Abreve" unicode="&#x102;" horiz-adv-x="809" 
d="M659 0l-76 164h-361l-75 -164h-146l327 700h154l326 -700h-149zM278 286h250l-125 271zM220 895h110c5 -36 34 -55 75 -55s70 19 75 55h110c-2 -91 -75 -150 -185 -150s-183 59 -185 150z" />
    <glyph glyph-name="Acircumflex" unicode="&#xc2;" horiz-adv-x="809" 
d="M659 0l-76 164h-361l-75 -164h-146l327 700h154l326 -700h-149zM278 286h250l-125 271zM203 745l130 145h144l130 -145h-112l-90 60l-90 -60h-112z" />
    <glyph glyph-name="Adieresis" unicode="&#xc4;" horiz-adv-x="809" 
d="M659 0l-76 164h-361l-75 -164h-146l327 700h154l326 -700h-149zM278 286h250l-125 271zM223 765v120h132v-120h-132zM455 765v120h132v-120h-132z" />
    <glyph glyph-name="uni0226" unicode="&#x226;" horiz-adv-x="809" 
d="M659 0l-76 164h-361l-75 -164h-146l327 700h154l326 -700h-149zM278 286h250l-125 271zM333 759v139h143v-139h-143z" />
    <glyph glyph-name="uni1EA0" unicode="&#x1ea0;" horiz-adv-x="809" 
d="M659 0l-76 164h-361l-75 -164h-146l327 700h154l326 -700h-149zM278 286h250l-125 271zM330 -195v130h146v-130h-146z" />
    <glyph glyph-name="Agrave" unicode="&#xc0;" horiz-adv-x="809" 
d="M659 0l-76 164h-361l-75 -164h-146l327 700h154l326 -700h-149zM278 286h250l-125 271zM360 745l-115 145h157l50 -145h-92z" />
    <glyph glyph-name="Amacron" unicode="&#x100;" horiz-adv-x="809" 
d="M659 0l-76 164h-361l-75 -164h-146l327 700h154l326 -700h-149zM278 286h250l-125 271zM227 765v110h355v-110h-355z" />
    <glyph glyph-name="Aogonek" unicode="&#x104;" horiz-adv-x="809" 
d="M659 0l-76 164h-361l-75 -164h-146l327 700h154l326 -700h-149zM278 286h250l-125 271zM633 -120c0 65 51 110 110 135l65 -15c-49 -28 -85 -54 -85 -90c0 -32 27 -50 55 -50h45v-80h-65c-70 0 -125 43 -125 100z" />
    <glyph glyph-name="Aring" unicode="&#xc5;" horiz-adv-x="809" 
d="M659 0l-76 164h-361l-75 -164h-146l327 700h154l326 -700h-149zM278 286h250l-125 271zM280 855c0 57 55 110 125 110s125 -53 125 -110c0 -62 -55 -110 -125 -110s-125 48 -125 110zM454 855c0 21 -22 40 -49 40c-28 0 -50 -19 -50 -40s22 -40 50 -40c27 0 49 19 49 40z
" />
    <glyph glyph-name="Aringacute" unicode="&#x1fa;" horiz-adv-x="809" 
d="M659 0l-76 164h-361l-75 -164h-146l327 700h154l326 -700h-149zM278 286h250l-125 271zM367 988l26 88h125l-72 -88h-79zM281 855c0 57 55 110 125 110s125 -53 125 -110c0 -62 -55 -110 -125 -110s-125 48 -125 110zM455 855c0 21 -21 40 -49 40c-27 0 -50 -19 -50 -40
s23 -40 50 -40c28 0 49 19 49 40z" />
    <glyph glyph-name="Atilde" unicode="&#xc3;" horiz-adv-x="809" 
d="M659 0l-76 164h-361l-75 -164h-146l327 700h154l326 -700h-149zM278 286h250l-125 271zM413 769l-36 14l-17 7c-15 5 -23 9 -36 9c-29 0 -43 -20 -43 -44h-96v28c0 61 58 116 125 116c29 0 44 -4 71 -15l14 -6l34 -13l16 -7c23 -9 31 -13 42 -13c28 0 42 19 42 44h96v-28
c0 -64 -42 -116 -113 -116c-32 0 -55 7 -99 24z" />
    <glyph glyph-name="AE" unicode="&#xc6;" horiz-adv-x="1169" 
d="M728 120h413v-120h-529l-23 165h-341l-117 -165h-146l494 700h602v-120h-416l22 -160h364v-120h-347zM333 287h239l-39 283z" />
    <glyph glyph-name="AEacute" unicode="&#x1fc;" horiz-adv-x="1169" 
d="M728 120h413v-120h-529l-23 165h-341l-117 -165h-146l494 700h602v-120h-416l22 -160h364v-120h-347zM333 287h239l-39 283zM688 745l50 145h157l-115 -145h-92z" />
    <glyph glyph-name="uni01E2" unicode="&#x1e2;" horiz-adv-x="1169" 
d="M728 120h413v-120h-529l-23 165h-341l-117 -165h-146l494 700h602v-120h-416l22 -160h364v-120h-347zM333 287h239l-39 283zM555 765v110h355v-110h-355z" />
    <glyph glyph-name="B" unicode="B" horiz-adv-x="778" 
d="M89 0v700h398c125 0 221 -72 221 -185c0 -77 -50 -137 -111 -159c74 -16 128 -78 128 -166c0 -115 -100 -190 -226 -190h-410zM227 416h245c63 0 97 28 97 84c0 47 -37 78 -97 78h-245v-162zM227 122h252c65 0 107 34 107 87c0 56 -39 85 -107 85h-252v-172z" />
    <glyph glyph-name="C" unicode="C" horiz-adv-x="821" 
d="M46 350c0 206 154 360 389 360c200 0 326 -107 346 -240h-145c-18 75 -96 118 -193 118h-16c-150 0 -242 -104 -242 -238c0 -135 92 -238 242 -238h16c100 0 176 41 193 118h145c-22 -141 -152 -240 -346 -240c-238 -3 -391 153 -389 360z" />
    <glyph glyph-name="Cacute" unicode="&#x106;" horiz-adv-x="821" 
d="M46 350c0 206 154 360 389 360c200 0 326 -107 346 -240h-145c-18 75 -96 118 -193 118h-16c-150 0 -242 -104 -242 -238c0 -135 92 -238 242 -238h16c100 0 176 41 193 118h145c-22 -141 -152 -240 -346 -240c-238 -3 -391 153 -389 360zM390 745l50 145h157l-115 -145
h-92z" />
    <glyph glyph-name="Ccaron" unicode="&#x10c;" horiz-adv-x="821" 
d="M46 350c0 206 154 360 389 360c200 0 326 -107 346 -240h-145c-18 75 -96 118 -193 118h-16c-150 0 -242 -104 -242 -238c0 -135 92 -238 242 -238h16c100 0 176 41 193 118h145c-22 -141 -152 -240 -346 -240c-238 -3 -391 153 -389 360zM363 745l-130 145h112l90 -60
l90 60h112l-130 -145h-144z" />
    <glyph glyph-name="Ccedilla" unicode="&#xc7;" horiz-adv-x="821" 
d="M46 350c0 206 154 360 389 360c200 0 326 -107 346 -240h-145c-18 75 -96 118 -193 118h-16c-150 0 -242 -104 -242 -238c0 -135 92 -238 242 -238h16c100 0 176 41 193 118h145c-22 -141 -152 -240 -346 -240c-238 -3 -391 153 -389 360zM354 -245v75h97
c25 0 43 10 43 30c0 16 -14 30 -38 30h-57v125h72v-60c52 0 98 -32 98 -95c0 -65 -53 -105 -123 -105h-92z" />
    <glyph glyph-name="Ccircumflex" unicode="&#x108;" horiz-adv-x="821" 
d="M46 350c0 206 154 360 389 360c200 0 326 -107 346 -240h-145c-18 75 -96 118 -193 118h-16c-150 0 -242 -104 -242 -238c0 -135 92 -238 242 -238h16c100 0 176 41 193 118h145c-22 -141 -152 -240 -346 -240c-238 -3 -391 153 -389 360zM233 745l130 145h144l130 -145
h-112l-90 60l-90 -60h-112z" />
    <glyph glyph-name="Cdotaccent" unicode="&#x10a;" horiz-adv-x="821" 
d="M46 350c0 206 154 360 389 360c200 0 326 -107 346 -240h-145c-18 75 -96 118 -193 118h-16c-150 0 -242 -104 -242 -238c0 -135 92 -238 242 -238h16c100 0 176 41 193 118h145c-22 -141 -152 -240 -346 -240c-238 -3 -391 153 -389 360zM363 759v139h143v-139h-143z
" />
    <glyph glyph-name="D" unicode="D" horiz-adv-x="838" 
d="M89 0v700h335c225 0 366 -131 366 -350s-141 -350 -366 -350h-335zM227 122h187c156 0 237 79 237 228s-81 228 -237 228h-187v-456z" />
    <glyph glyph-name="Eth" unicode="&#xd0;" horiz-adv-x="877" 
d="M128 0v700h335c225 0 366 -131 366 -350s-141 -350 -366 -350h-335zM266 122h187c156 0 237 79 237 228s-81 228 -237 228h-187v-456zM19 290v120h427v-120h-427z" />
    <glyph glyph-name="Dcaron" unicode="&#x10e;" horiz-adv-x="838" 
d="M89 0v700h335c225 0 366 -131 366 -350s-141 -350 -366 -350h-335zM227 122h187c156 0 237 79 237 228s-81 228 -237 228h-187v-456zM328 745l-130 145h112l90 -60l90 60h112l-130 -145h-144z" />
    <glyph glyph-name="Dcroat" unicode="&#x110;" horiz-adv-x="877" 
d="M128 0v700h335c225 0 366 -131 366 -350s-141 -350 -366 -350h-335zM266 122h187c156 0 237 79 237 228s-81 228 -237 228h-187v-456zM19 290v120h427v-120h-427z" />
    <glyph glyph-name="E" unicode="E" horiz-adv-x="763" 
d="M227 122h491v-122h-629v700h619v-122h-481v-157h421v-122h-421v-177z" />
    <glyph glyph-name="Eacute" unicode="&#xc9;" horiz-adv-x="763" 
d="M227 122h491v-122h-629v700h619v-122h-481v-157h421v-122h-421v-177zM354 745l50 145h157l-115 -145h-92z" />
    <glyph glyph-name="Ebreve" unicode="&#x114;" horiz-adv-x="763" 
d="M227 122h491v-122h-629v700h619v-122h-481v-157h421v-122h-421v-177zM214 895h110c5 -36 34 -55 75 -55s70 19 75 55h110c-2 -91 -75 -150 -185 -150s-183 59 -185 150z" />
    <glyph glyph-name="Ecaron" unicode="&#x11a;" horiz-adv-x="763" 
d="M227 122h491v-122h-629v700h619v-122h-481v-157h421v-122h-421v-177zM327 745l-130 145h112l90 -60l90 60h112l-130 -145h-144z" />
    <glyph glyph-name="Ecircumflex" unicode="&#xca;" horiz-adv-x="763" 
d="M227 122h491v-122h-629v700h619v-122h-481v-157h421v-122h-421v-177zM197 745l130 145h144l130 -145h-112l-90 60l-90 -60h-112z" />
    <glyph glyph-name="Edieresis" unicode="&#xcb;" horiz-adv-x="763" 
d="M227 122h491v-122h-629v700h619v-122h-481v-157h421v-122h-421v-177zM217 765v120h132v-120h-132zM449 765v120h132v-120h-132z" />
    <glyph glyph-name="Edotaccent" unicode="&#x116;" horiz-adv-x="763" 
d="M227 122h491v-122h-629v700h619v-122h-481v-157h421v-122h-421v-177zM327 759v139h143v-139h-143z" />
    <glyph glyph-name="uni1EB8" unicode="&#x1eb8;" horiz-adv-x="763" 
d="M227 122h491v-122h-629v700h619v-122h-481v-157h421v-122h-421v-177zM331 -195v130h146v-130h-146z" />
    <glyph glyph-name="Egrave" unicode="&#xc8;" horiz-adv-x="763" 
d="M227 122h491v-122h-629v700h619v-122h-481v-157h421v-122h-421v-177zM354 745l-115 145h157l50 -145h-92z" />
    <glyph glyph-name="Emacron" unicode="&#x112;" horiz-adv-x="763" 
d="M227 122h491v-122h-629v700h619v-122h-481v-157h421v-122h-421v-177zM221 765v110h355v-110h-355z" />
    <glyph glyph-name="Eogonek" unicode="&#x118;" horiz-adv-x="763" 
d="M227 122h491v-122h-629v700h619v-122h-481v-157h421v-122h-421v-177zM543 -120c0 65 51 110 110 135l65 -15c-49 -28 -85 -54 -85 -90c0 -32 27 -50 55 -50h45v-80h-65c-70 0 -125 43 -125 100z" />
    <glyph glyph-name="F" unicode="F" horiz-adv-x="714" 
d="M89 0v700h599v-122h-461v-177h405v-122h-405v-279h-138z" />
    <glyph glyph-name="G" unicode="G" horiz-adv-x="866" 
d="M46 350c0 210 153 360 397 360c219 0 345 -105 355 -250h-145c-8 63 -64 128 -202 128h-16c-150 0 -250 -88 -250 -238s102 -238 250 -238h16c141 0 225 65 225 125v8h-230v122h267c61 0 95 -35 95 -96v-271h-132v78c-31 -39 -106 -88 -234 -88c-246 0 -396 147 -396 360
z" />
    <glyph glyph-name="Gbreve" unicode="&#x11e;" horiz-adv-x="866" 
d="M46 350c0 210 153 360 397 360c219 0 345 -105 355 -250h-145c-8 63 -64 128 -202 128h-16c-150 0 -250 -88 -250 -238s102 -238 250 -238h16c141 0 225 65 225 125v8h-230v122h267c61 0 95 -35 95 -96v-271h-132v78c-31 -39 -106 -88 -234 -88c-246 0 -396 147 -396 360
zM259 895h110c5 -36 34 -55 75 -55s70 19 75 55h110c-2 -91 -75 -150 -185 -150s-183 59 -185 150z" />
    <glyph glyph-name="Gcircumflex" unicode="&#x11c;" horiz-adv-x="866" 
d="M46 350c0 210 153 360 397 360c219 0 345 -105 355 -250h-145c-8 63 -64 128 -202 128h-16c-150 0 -250 -88 -250 -238s102 -238 250 -238h16c141 0 225 65 225 125v8h-230v122h267c61 0 95 -35 95 -96v-271h-132v78c-31 -39 -106 -88 -234 -88c-246 0 -396 147 -396 360
zM242 745l130 145h144l130 -145h-112l-90 60l-90 -60h-112z" />
    <glyph glyph-name="uni0122" unicode="&#x122;" horiz-adv-x="866" 
d="M46 350c0 210 153 360 397 360c219 0 345 -105 355 -250h-145c-8 63 -64 128 -202 128h-16c-150 0 -250 -88 -250 -238s102 -238 250 -238h16c141 0 225 65 225 125v8h-230v122h267c61 0 95 -35 95 -96v-271h-132v78c-31 -39 -106 -88 -234 -88c-246 0 -396 147 -396 360
zM349 -309v75h33c36 0 52 15 52 39v1h-60v132h140v-132c0 -67 -52 -115 -127 -115h-38z" />
    <glyph glyph-name="Gdotaccent" unicode="&#x120;" horiz-adv-x="866" 
d="M46 350c0 210 153 360 397 360c219 0 345 -105 355 -250h-145c-8 63 -64 128 -202 128h-16c-150 0 -250 -88 -250 -238s102 -238 250 -238h16c141 0 225 65 225 125v8h-230v122h267c61 0 95 -35 95 -96v-271h-132v78c-31 -39 -106 -88 -234 -88c-246 0 -396 147 -396 360
zM372 759v139h143v-139h-143z" />
    <glyph glyph-name="H" unicode="H" horiz-adv-x="853" 
d="M89 0v700h138v-288h399v288h138v-700h-138v290h-399v-290h-138z" />
    <glyph glyph-name="Hbar" unicode="&#x126;" horiz-adv-x="907" 
d="M116 0v700h138v-288h399v288h138v-700h-138v290h-399v-290h-138zM27 492v115h853v-115h-853z" />
    <glyph glyph-name="Hcircumflex" unicode="&#x124;" horiz-adv-x="853" 
d="M89 0v700h138v-288h399v288h138v-700h-138v290h-399v-290h-138zM225 745l130 145h144l130 -145h-112l-90 60l-90 -60h-112z" />
    <glyph glyph-name="I" unicode="I" horiz-adv-x="316" 
d="M89 0v700h138v-700h-138z" />
    <glyph glyph-name="IJ" unicode="&#x132;" horiz-adv-x="676" 
d="M84 0v127h300c51 0 70 19 70 70v503h138v-525c0 -120 -58 -175 -185 -175h-323zM84 207v493h138v-493h-138z" />
    <glyph glyph-name="Iacute" unicode="&#xcd;" horiz-adv-x="316" 
d="M89 0v700h138v-700h-138zM116 745l50 145h157l-115 -145h-92z" />
    <glyph glyph-name="Ibreve" unicode="&#x12c;" horiz-adv-x="316" 
d="M89 0v700h138v-700h-138zM-24 895h110c5 -36 34 -55 75 -55s70 19 75 55h110c-2 -91 -75 -150 -185 -150s-183 59 -185 150z" />
    <glyph glyph-name="Icircumflex" unicode="&#xce;" horiz-adv-x="316" 
d="M89 0v700h138v-700h-138zM-41 745l130 145h144l130 -145h-112l-90 60l-90 -60h-112z" />
    <glyph glyph-name="Idieresis" unicode="&#xcf;" horiz-adv-x="316" 
d="M89 0v700h138v-700h-138zM-21 765v120h132v-120h-132zM211 765v120h132v-120h-132z" />
    <glyph glyph-name="Idotaccent" unicode="&#x130;" horiz-adv-x="316" 
d="M89 0v700h138v-700h-138zM89 759v139h143v-139h-143z" />
    <glyph glyph-name="uni1ECA" unicode="&#x1eca;" horiz-adv-x="316" 
d="M89 0v700h138v-700h-138zM88 -195v130h146v-130h-146z" />
    <glyph glyph-name="Igrave" unicode="&#xcc;" horiz-adv-x="316" 
d="M89 0v700h138v-700h-138zM116 745l-115 145h157l50 -145h-92z" />
    <glyph glyph-name="Imacron" unicode="&#x12a;" horiz-adv-x="316" 
d="M89 0v700h138v-700h-138zM-17 765v110h355v-110h-355z" />
    <glyph glyph-name="Iogonek" unicode="&#x12e;" horiz-adv-x="316" 
d="M89 0v700h138v-700h-138zM52 -120c0 65 51 110 110 135l65 -15c-49 -28 -85 -54 -85 -90c0 -32 27 -50 55 -50h45v-80h-65c-70 0 -125 43 -125 100z" />
    <glyph glyph-name="Itilde" unicode="&#x128;" horiz-adv-x="316" 
d="M89 0v700h138v-700h-138zM169 769l-36 14l-17 7c-15 5 -23 9 -36 9c-29 0 -43 -20 -43 -44h-96v28c0 61 58 116 125 116c29 0 44 -4 71 -15l14 -6l34 -13l16 -7c23 -9 31 -13 42 -13c28 0 42 19 42 44h96v-28c0 -64 -42 -116 -113 -116c-32 0 -55 7 -99 24z" />
    <glyph glyph-name="J" unicode="J" horiz-adv-x="485" 
d="M30 0v127h163c51 0 70 19 70 70v503h138v-525c0 -120 -58 -175 -185 -175h-186z" />
    <glyph glyph-name="Jcircumflex" unicode="&#x134;" horiz-adv-x="485" 
d="M30 0v127h163c51 0 70 19 70 70v503h138v-525c0 -120 -58 -175 -185 -175h-186zM138 745l130 145h144l130 -145h-112l-90 60l-90 -60h-112z" />
    <glyph glyph-name="K" unicode="K" horiz-adv-x="788" 
d="M613 0l-286 315l-100 -84v-231h-138v700h138v-309l361 309h191l-350 -298l366 -402h-182z" />
    <glyph glyph-name="uni0136" unicode="&#x136;" horiz-adv-x="788" 
d="M613 0l-286 315l-100 -84v-231h-138v700h138v-309l361 309h191l-350 -298l366 -402h-182zM329 -309v75h33c36 0 52 15 52 39v1h-60v132h140v-132c0 -67 -52 -115 -127 -115h-38z" />
    <glyph glyph-name="L" unicode="L" horiz-adv-x="716" 
d="M89 0v700h138v-578h469v-122h-607z" />
    <glyph glyph-name="Lacute" unicode="&#x139;" horiz-adv-x="716" 
d="M89 0v700h138v-578h469v-122h-607zM106 745l50 145h157l-115 -145h-92z" />
    <glyph glyph-name="Lcaron" unicode="&#x13d;" horiz-adv-x="717" 
d="M89 0v700h138v-578h469v-122h-607zM369 453v75h33c36 0 52 15 52 39v1h-60v132h140v-132c0 -67 -52 -115 -127 -115h-38z" />
    <glyph glyph-name="uni013B" unicode="&#x13b;" horiz-adv-x="716" 
d="M89 0v700h138v-578h469v-122h-607zM298 -309v75h33c36 0 52 15 52 39v1h-60v132h140v-132c0 -67 -52 -115 -127 -115h-38z" />
    <glyph glyph-name="Ldot" unicode="&#x13f;" horiz-adv-x="717" 
d="M89 0v700h138v-578h469v-122h-607zM425 295v147h160v-147h-160z" />
    <glyph glyph-name="Lslash" unicode="&#x141;" horiz-adv-x="757" 
d="M130 0v700h138v-578h469v-122h-607zM36 184v135l476 224v-134z" />
    <glyph glyph-name="M" unicode="M" horiz-adv-x="1043" 
d="M752 700h202v-700h-138v520l-213 -520h-164l-212 517v-517h-138v700h203l230 -561z" />
    <glyph glyph-name="N" unicode="N" horiz-adv-x="850" 
d="M623 700h138v-700h-170l-364 523v-523h-138v700h176l358 -514v514z" />
    <glyph glyph-name="Nacute" unicode="&#x143;" horiz-adv-x="850" 
d="M623 700h138v-700h-170l-364 523v-523h-138v700h176l358 -514v514zM380 745l50 145h157l-115 -145h-92z" />
    <glyph glyph-name="Ncaron" unicode="&#x147;" horiz-adv-x="850" 
d="M623 700h138v-700h-170l-364 523v-523h-138v700h176l358 -514v514zM353 745l-130 145h112l90 -60l90 60h112l-130 -145h-144z" />
    <glyph glyph-name="uni0145" unicode="&#x145;" horiz-adv-x="850" 
d="M623 700h138v-700h-170l-364 523v-523h-138v700h176l358 -514v514zM330 -309v75h33c36 0 52 15 52 39v1h-60v132h140v-132c0 -67 -52 -115 -127 -115h-38z" />
    <glyph glyph-name="Eng" unicode="&#x14a;" horiz-adv-x="850" 
d="M461 -200v112h116c31 0 46 15 46 46v51l-396 520v-529h-138v700h170l364 -478v478h138v-760c0 -82 -55 -140 -140 -140h-160z" />
    <glyph glyph-name="Ntilde" unicode="&#xd1;" horiz-adv-x="850" 
d="M623 700h138v-700h-170l-364 523v-523h-138v700h176l358 -514v514zM433 769l-36 14l-17 7c-15 5 -23 9 -36 9c-29 0 -43 -20 -43 -44h-96v28c0 61 58 116 125 116c29 0 44 -4 71 -15l14 -6l34 -13l16 -7c23 -9 31 -13 42 -13c28 0 42 19 42 44h96v-28
c0 -64 -42 -116 -113 -116c-32 0 -55 7 -99 24z" />
    <glyph glyph-name="O" unicode="O" horiz-adv-x="885" 
d="M46 350c-3 220 170 362 397 360c226 2 399 -140 396 -360c3 -220 -170 -362 -396 -360c-227 -2 -400 141 -397 360zM435 112h16c138 0 249 91 249 238s-111 238 -249 238h-16c-137 0 -250 -91 -250 -238s113 -238 250 -238z" />
    <glyph glyph-name="Oacute" unicode="&#xd3;" horiz-adv-x="885" 
d="M46 350c-3 220 170 362 397 360c226 2 399 -140 396 -360c3 -220 -170 -362 -396 -360c-227 -2 -400 141 -397 360zM435 112h16c138 0 249 91 249 238s-111 238 -249 238h-16c-137 0 -250 -91 -250 -238s113 -238 250 -238zM398 745l50 145h157l-115 -145h-92z" />
    <glyph glyph-name="Obreve" unicode="&#x14e;" horiz-adv-x="885" 
d="M46 350c-3 220 170 362 397 360c226 2 399 -140 396 -360c3 -220 -170 -362 -396 -360c-227 -2 -400 141 -397 360zM435 112h16c138 0 249 91 249 238s-111 238 -249 238h-16c-137 0 -250 -91 -250 -238s113 -238 250 -238zM258 895h110c5 -36 34 -55 75 -55s70 19 75 55
h110c-2 -91 -75 -150 -185 -150s-183 59 -185 150z" />
    <glyph glyph-name="Ocircumflex" unicode="&#xd4;" horiz-adv-x="885" 
d="M46 350c-3 220 170 362 397 360c226 2 399 -140 396 -360c3 -220 -170 -362 -396 -360c-227 -2 -400 141 -397 360zM435 112h16c138 0 249 91 249 238s-111 238 -249 238h-16c-137 0 -250 -91 -250 -238s113 -238 250 -238zM241 745l130 145h144l130 -145h-112l-90 60
l-90 -60h-112z" />
    <glyph glyph-name="Odieresis" unicode="&#xd6;" horiz-adv-x="885" 
d="M46 350c-3 220 170 362 397 360c226 2 399 -140 396 -360c3 -220 -170 -362 -396 -360c-227 -2 -400 141 -397 360zM435 112h16c138 0 249 91 249 238s-111 238 -249 238h-16c-137 0 -250 -91 -250 -238s113 -238 250 -238zM261 765v120h132v-120h-132zM493 765v120h132
v-120h-132z" />
    <glyph glyph-name="uni1ECC" unicode="&#x1ecc;" horiz-adv-x="885" 
d="M46 350c-3 220 170 362 397 360c226 2 399 -140 396 -360c3 -220 -170 -362 -396 -360c-227 -2 -400 141 -397 360zM435 112h16c138 0 249 91 249 238s-111 238 -249 238h-16c-137 0 -250 -91 -250 -238s113 -238 250 -238zM370 -195v130h146v-130h-146z" />
    <glyph glyph-name="Ograve" unicode="&#xd2;" horiz-adv-x="885" 
d="M46 350c-3 220 170 362 397 360c226 2 399 -140 396 -360c3 -220 -170 -362 -396 -360c-227 -2 -400 141 -397 360zM435 112h16c138 0 249 91 249 238s-111 238 -249 238h-16c-137 0 -250 -91 -250 -238s113 -238 250 -238zM398 745l-115 145h157l50 -145h-92z" />
    <glyph glyph-name="Ohungarumlaut" unicode="&#x150;" horiz-adv-x="885" 
d="M46 350c-3 220 170 362 397 360c226 2 399 -140 396 -360c3 -220 -170 -362 -396 -360c-227 -2 -400 141 -397 360zM435 112h16c138 0 249 91 249 238s-111 238 -249 238h-16c-137 0 -250 -91 -250 -238s113 -238 250 -238zM286 745l50 145h157l-115 -145h-92zM508 745
l50 145h157l-115 -145h-92z" />
    <glyph glyph-name="Omacron" unicode="&#x14c;" horiz-adv-x="885" 
d="M46 350c-3 220 170 362 397 360c226 2 399 -140 396 -360c3 -220 -170 -362 -396 -360c-227 -2 -400 141 -397 360zM435 112h16c138 0 249 91 249 238s-111 238 -249 238h-16c-137 0 -250 -91 -250 -238s113 -238 250 -238zM265 765v110h355v-110h-355z" />
    <glyph glyph-name="Oslash" unicode="&#xd8;" horiz-adv-x="897" 
d="M52 350c-3 220 170 362 397 360c226 2 399 -140 396 -360c3 -220 -170 -362 -396 -360c-227 -2 -400 141 -397 360zM441 112h16c138 0 249 91 249 238s-111 238 -249 238h-16c-137 0 -250 -91 -250 -238s113 -238 250 -238zM129 -49l-87 90l727 708l87 -90z" />
    <glyph glyph-name="Oslashacute" unicode="&#x1fe;" horiz-adv-x="897" 
d="M52 350c-3 220 170 362 397 360c226 2 399 -140 396 -360c3 -220 -170 -362 -396 -360c-227 -2 -400 141 -397 360zM441 112h16c138 0 249 91 249 238s-111 238 -249 238h-16c-137 0 -250 -91 -250 -238s113 -238 250 -238zM129 -49l-87 90l727 708l87 -90zM404 745
l50 145h157l-115 -145h-92z" />
    <glyph glyph-name="Otilde" unicode="&#xd5;" horiz-adv-x="885" 
d="M46 350c-3 220 170 362 397 360c226 2 399 -140 396 -360c3 -220 -170 -362 -396 -360c-227 -2 -400 141 -397 360zM435 112h16c138 0 249 91 249 238s-111 238 -249 238h-16c-137 0 -250 -91 -250 -238s113 -238 250 -238zM451 769l-36 14l-17 7c-15 5 -23 9 -36 9
c-29 0 -43 -20 -43 -44h-96v28c0 61 58 116 125 116c29 0 44 -4 71 -15l14 -6l34 -13l16 -7c23 -9 31 -13 42 -13c28 0 42 19 42 44h96v-28c0 -64 -42 -116 -113 -116c-32 0 -55 7 -99 24z" />
    <glyph glyph-name="OE" unicode="&#x152;" horiz-adv-x="1380" 
d="M46 350c-3 220 170 362 397 360c109 0 200 -30 263 -87v77h619v-122h-486v-157h426v-122h-426v-177h496v-122h-629v80c-63 -59 -154 -90 -263 -90c-227 -2 -400 141 -397 360zM435 112h16c141 0 254 91 254 238s-113 238 -254 238h-16c-137 0 -250 -91 -250 -238
s113 -238 250 -238z" />
    <glyph glyph-name="P" unicode="P" horiz-adv-x="748" 
d="M89 0v700h371c148 0 256 -89 256 -221c0 -148 -106 -224 -256 -224h-233v-255h-138zM227 377h218c87 0 132 34 132 101c0 65 -45 100 -132 100h-218v-201z" />
    <glyph glyph-name="Thorn" unicode="&#xde;" horiz-adv-x="759" 
d="M89 0v700h138v-123h233c149 0 255 -86 255 -227c0 -145 -105 -228 -255 -228h-233v-122h-138zM227 244h218c87 0 132 37 132 106c0 68 -45 105 -132 105h-218v-211z" />
    <glyph glyph-name="Q" unicode="Q" horiz-adv-x="885" 
d="M375 -105v98c-192 20 -329 155 -329 357c-3 220 170 362 397 360c226 2 399 -140 396 -360c0 -205 -138 -342 -335 -358v-49c0 -23 9 -31 30 -31h197v-112h-256c-56 0 -96 35 -100 95zM435 112h16c138 0 249 91 249 238s-111 238 -249 238h-16c-137 0 -250 -91 -250 -238
s113 -238 250 -238z" />
    <glyph glyph-name="R" unicode="R" horiz-adv-x="787" 
d="M89 0v700h390c139 0 239 -81 239 -191c0 -86 -52 -151 -112 -171c72 0 98 -31 98 -103v-235h-138v205c0 47 -14 60 -61 60h-278v-265h-138zM227 387h237c67 0 105 35 105 96c0 57 -40 95 -105 95h-237v-191z" />
    <glyph glyph-name="Racute" unicode="&#x154;" horiz-adv-x="787" 
d="M89 0v700h390c139 0 239 -81 239 -191c0 -86 -52 -151 -112 -171c72 0 98 -31 98 -103v-235h-138v205c0 47 -14 60 -61 60h-278v-265h-138zM227 387h237c67 0 105 35 105 96c0 57 -40 95 -105 95h-237v-191zM340 745l50 145h157l-115 -145h-92z" />
    <glyph glyph-name="Rcaron" unicode="&#x158;" horiz-adv-x="787" 
d="M89 0v700h390c139 0 239 -81 239 -191c0 -86 -52 -151 -112 -171c72 0 98 -31 98 -103v-235h-138v205c0 47 -14 60 -61 60h-278v-265h-138zM227 387h237c67 0 105 35 105 96c0 57 -40 95 -105 95h-237v-191zM313 745l-130 145h112l90 -60l90 60h112l-130 -145h-144z" />
    <glyph glyph-name="uni0156" unicode="&#x156;" horiz-adv-x="787" 
d="M89 0v700h390c139 0 239 -81 239 -191c0 -86 -52 -151 -112 -171c72 0 98 -31 98 -103v-235h-138v205c0 47 -14 60 -61 60h-278v-265h-138zM227 387h237c67 0 105 35 105 96c0 57 -40 95 -105 95h-237v-191zM302 -309v75h33c36 0 52 15 52 39v1h-60v132h140v-132
c0 -67 -52 -115 -127 -115h-38z" />
    <glyph glyph-name="S" unicode="S" horiz-adv-x="735" 
d="M33 235h145c4 -81 72 -123 187 -123h16c108 0 159 31 159 80c0 45 -37 72 -128 87l-109 18c-162 28 -231 82 -231 206c0 111 96 207 297 207c193 0 310 -88 324 -230h-145c-9 68 -72 108 -171 108h-16c-95 0 -150 -33 -150 -76c0 -48 32 -70 111 -83l112 -18
c163 -27 245 -99 245 -214c0 -134 -109 -207 -305 -207c-211 0 -337 83 -341 245z" />
    <glyph glyph-name="Sacute" unicode="&#x15a;" horiz-adv-x="735" 
d="M33 235h145c4 -81 72 -123 187 -123h16c108 0 159 31 159 80c0 45 -37 72 -128 87l-109 18c-162 28 -231 82 -231 206c0 111 96 207 297 207c193 0 310 -88 324 -230h-145c-9 68 -72 108 -171 108h-16c-95 0 -150 -33 -150 -76c0 -48 32 -70 111 -83l112 -18
c163 -27 245 -99 245 -214c0 -134 -109 -207 -305 -207c-211 0 -337 83 -341 245zM325 745l50 145h157l-115 -145h-92z" />
    <glyph glyph-name="Scaron" unicode="&#x160;" horiz-adv-x="735" 
d="M33 235h145c4 -81 72 -123 187 -123h16c108 0 159 31 159 80c0 45 -37 72 -128 87l-109 18c-162 28 -231 82 -231 206c0 111 96 207 297 207c193 0 310 -88 324 -230h-145c-9 68 -72 108 -171 108h-16c-95 0 -150 -33 -150 -76c0 -48 32 -70 111 -83l112 -18
c163 -27 245 -99 245 -214c0 -134 -109 -207 -305 -207c-211 0 -337 83 -341 245zM298 745l-130 145h112l90 -60l90 60h112l-130 -145h-144z" />
    <glyph glyph-name="Scedilla" unicode="&#x15e;" horiz-adv-x="735" 
d="M33 235h145c4 -81 72 -123 187 -123h16c108 0 159 31 159 80c0 45 -37 72 -128 87l-109 18c-162 28 -231 82 -231 206c0 111 96 207 297 207c193 0 310 -88 324 -230h-145c-9 68 -72 108 -171 108h-16c-95 0 -150 -33 -150 -76c0 -48 32 -70 111 -83l112 -18
c163 -27 245 -99 245 -214c0 -134 -109 -207 -305 -207c-211 0 -337 83 -341 245zM286 -245v75h97c25 0 43 10 43 30c0 16 -14 30 -38 30h-57v125h72v-60c52 0 98 -32 98 -95c0 -65 -53 -105 -123 -105h-92z" />
    <glyph glyph-name="Scircumflex" unicode="&#x15c;" horiz-adv-x="735" 
d="M33 235h145c4 -81 72 -123 187 -123h16c108 0 159 31 159 80c0 45 -37 72 -128 87l-109 18c-162 28 -231 82 -231 206c0 111 96 207 297 207c193 0 310 -88 324 -230h-145c-9 68 -72 108 -171 108h-16c-95 0 -150 -33 -150 -76c0 -48 32 -70 111 -83l112 -18
c163 -27 245 -99 245 -214c0 -134 -109 -207 -305 -207c-211 0 -337 83 -341 245zM168 745l130 145h144l130 -145h-112l-90 60l-90 -60h-112z" />
    <glyph glyph-name="uni0218" unicode="&#x218;" horiz-adv-x="735" 
d="M33 235h145c4 -81 72 -123 187 -123h16c108 0 159 31 159 80c0 45 -37 72 -128 87l-109 18c-162 28 -231 82 -231 206c0 111 96 207 297 207c193 0 310 -88 324 -230h-145c-9 68 -72 108 -171 108h-16c-95 0 -150 -33 -150 -76c0 -48 32 -70 111 -83l112 -18
c163 -27 245 -99 245 -214c0 -134 -109 -207 -305 -207c-211 0 -337 83 -341 245zM272 -309v75h33c36 0 52 15 52 39v1h-60v132h140v-132c0 -67 -52 -115 -127 -115h-38z" />
    <glyph glyph-name="uni1E9E" unicode="&#x1e9e;" horiz-adv-x="770" 
d="M725 196c0 -127 -97 -196 -226 -196h-186v122h166c67 0 107 32 107 84c0 57 -40 88 -107 88h-166v122h131c61 0 97 28 97 83c0 46 -37 79 -97 79h-217v-578h-138v700h370c126 0 221 -72 221 -185c0 -67 -36 -121 -89 -149c74 -16 134 -84 134 -170z" />
    <glyph glyph-name="T" unicode="T" horiz-adv-x="742" 
d="M302 0v578h-282v122h702v-122h-282v-578h-138z" />
    <glyph glyph-name="Tbar" unicode="&#x166;" horiz-adv-x="772" 
d="M317 0v578h-282v122h702v-122h-282v-578h-138zM99 322v115h574v-115h-574z" />
    <glyph glyph-name="Tcaron" unicode="&#x164;" horiz-adv-x="742" 
d="M302 0v578h-282v122h702v-122h-282v-578h-138zM299 745l-130 145h112l90 -60l90 60h112l-130 -145h-144z" />
    <glyph glyph-name="uni0162" unicode="&#x162;" horiz-adv-x="742" 
d="M302 0v578h-282v122h702v-122h-282v-578h-138zM290 -245v75h97c25 0 43 10 43 30c0 16 -14 30 -38 30h-57v125h72v-60c52 0 98 -32 98 -95c0 -65 -53 -105 -123 -105h-92z" />
    <glyph glyph-name="uni021A" unicode="&#x21a;" horiz-adv-x="742" 
d="M302 0v578h-282v122h702v-122h-282v-578h-138zM276 -309v75h33c36 0 52 15 52 39v1h-60v132h140v-132c0 -67 -52 -115 -127 -115h-38z" />
    <glyph glyph-name="U" unicode="U" horiz-adv-x="798" 
d="M81 276v424h138v-416c0 -112 60 -172 172 -172h16c112 0 172 60 172 172v416h138v-424c0 -175 -110 -286 -318 -286c-211 0 -318 110 -318 286z" />
    <glyph glyph-name="Uacute" unicode="&#xda;" horiz-adv-x="798" 
d="M81 276v424h138v-416c0 -112 60 -172 172 -172h16c112 0 172 60 172 172v416h138v-424c0 -175 -110 -286 -318 -286c-211 0 -318 110 -318 286zM354 745l50 145h157l-115 -145h-92z" />
    <glyph glyph-name="Ubreve" unicode="&#x16c;" horiz-adv-x="798" 
d="M81 276v424h138v-416c0 -112 60 -172 172 -172h16c112 0 172 60 172 172v416h138v-424c0 -175 -110 -286 -318 -286c-211 0 -318 110 -318 286zM214 895h110c5 -36 34 -55 75 -55s70 19 75 55h110c-2 -91 -75 -150 -185 -150s-183 59 -185 150z" />
    <glyph glyph-name="Ucircumflex" unicode="&#xdb;" horiz-adv-x="798" 
d="M81 276v424h138v-416c0 -112 60 -172 172 -172h16c112 0 172 60 172 172v416h138v-424c0 -175 -110 -286 -318 -286c-211 0 -318 110 -318 286zM197 745l130 145h144l130 -145h-112l-90 60l-90 -60h-112z" />
    <glyph glyph-name="Udieresis" unicode="&#xdc;" horiz-adv-x="798" 
d="M81 276v424h138v-416c0 -112 60 -172 172 -172h16c112 0 172 60 172 172v416h138v-424c0 -175 -110 -286 -318 -286c-211 0 -318 110 -318 286zM217 765v120h132v-120h-132zM449 765v120h132v-120h-132z" />
    <glyph glyph-name="uni1EE4" unicode="&#x1ee4;" horiz-adv-x="798" 
d="M81 276v424h138v-416c0 -112 60 -172 172 -172h16c112 0 172 60 172 172v416h138v-424c0 -175 -110 -286 -318 -286c-211 0 -318 110 -318 286zM326 -195v130h146v-130h-146z" />
    <glyph glyph-name="Ugrave" unicode="&#xd9;" horiz-adv-x="798" 
d="M81 276v424h138v-416c0 -112 60 -172 172 -172h16c112 0 172 60 172 172v416h138v-424c0 -175 -110 -286 -318 -286c-211 0 -318 110 -318 286zM354 745l-115 145h157l50 -145h-92z" />
    <glyph glyph-name="Uhungarumlaut" unicode="&#x170;" horiz-adv-x="798" 
d="M81 276v424h138v-416c0 -112 60 -172 172 -172h16c112 0 172 60 172 172v416h138v-424c0 -175 -110 -286 -318 -286c-211 0 -318 110 -318 286zM242 745l50 145h157l-115 -145h-92zM464 745l50 145h157l-115 -145h-92z" />
    <glyph glyph-name="Umacron" unicode="&#x16a;" horiz-adv-x="798" 
d="M81 276v424h138v-416c0 -112 60 -172 172 -172h16c112 0 172 60 172 172v416h138v-424c0 -175 -110 -286 -318 -286c-211 0 -318 110 -318 286zM221 765v110h355v-110h-355z" />
    <glyph glyph-name="Uogonek" unicode="&#x172;" horiz-adv-x="798" 
d="M81 276v424h138v-416c0 -112 60 -172 172 -172h16c112 0 172 60 172 172v416h138v-424c0 -175 -110 -286 -318 -286c-211 0 -318 110 -318 286zM325 -120c0 65 51 110 110 135l65 -15c-49 -28 -85 -54 -85 -90c0 -32 27 -50 55 -50h45v-80h-65c-70 0 -125 43 -125 100z
" />
    <glyph glyph-name="Uring" unicode="&#x16e;" horiz-adv-x="798" 
d="M81 276v424h138v-416c0 -112 60 -172 172 -172h16c112 0 172 60 172 172v416h138v-424c0 -175 -110 -286 -318 -286c-211 0 -318 110 -318 286zM274 855c0 57 55 110 125 110s125 -53 125 -110c0 -62 -55 -110 -125 -110s-125 48 -125 110zM448 855c0 21 -22 40 -49 40
c-28 0 -50 -19 -50 -40s22 -40 50 -40c27 0 49 19 49 40z" />
    <glyph glyph-name="Utilde" unicode="&#x168;" horiz-adv-x="798" 
d="M81 276v424h138v-416c0 -112 60 -172 172 -172h16c112 0 172 60 172 172v416h138v-424c0 -175 -110 -286 -318 -286c-211 0 -318 110 -318 286zM407 769l-36 14l-17 7c-15 5 -23 9 -36 9c-29 0 -43 -20 -43 -44h-96v28c0 61 58 116 125 116c29 0 44 -4 71 -15l14 -6
l34 -13l16 -7c23 -9 31 -13 42 -13c28 0 42 19 42 44h96v-28c0 -64 -42 -116 -113 -116c-32 0 -55 7 -99 24z" />
    <glyph glyph-name="V" unicode="V" horiz-adv-x="815" 
d="M663 700h151l-327 -700h-159l-328 700h153l256 -554z" />
    <glyph glyph-name="W" unicode="W" horiz-adv-x="1072" 
d="M914 700h144l-207 -700h-168l-146 520l-150 -520h-169l-200 700h144l144 -513l147 513h175l143 -517z" />
    <glyph glyph-name="Wacute" unicode="&#x1e82;" horiz-adv-x="1072" 
d="M914 700h144l-207 -700h-168l-146 520l-150 -520h-169l-200 700h144l144 -513l147 513h175l143 -517zM493 745l50 145h157l-115 -145h-92z" />
    <glyph glyph-name="Wcircumflex" unicode="&#x174;" horiz-adv-x="1072" 
d="M914 700h144l-207 -700h-168l-146 520l-150 -520h-169l-200 700h144l144 -513l147 513h175l143 -517zM336 745l130 145h144l130 -145h-112l-90 60l-90 -60h-112z" />
    <glyph glyph-name="Wdieresis" unicode="&#x1e84;" horiz-adv-x="1072" 
d="M914 700h144l-207 -700h-168l-146 520l-150 -520h-169l-200 700h144l144 -513l147 513h175l143 -517zM356 765v120h132v-120h-132zM588 765v120h132v-120h-132z" />
    <glyph glyph-name="Wgrave" unicode="&#x1e80;" horiz-adv-x="1072" 
d="M914 700h144l-207 -700h-168l-146 520l-150 -520h-169l-200 700h144l144 -513l147 513h175l143 -517zM493 745l-115 145h157l50 -145h-92z" />
    <glyph glyph-name="X" unicode="X" horiz-adv-x="742" 
d="M741 0h-165l-205 257l-208 -257h-163l290 358l-275 342h165l192 -240l194 240h163l-275 -341z" />
    <glyph glyph-name="Y" unicode="Y" horiz-adv-x="731" 
d="M564 700h158l-287 -395v-305h-138v304l-288 396h159l199 -279z" />
    <glyph glyph-name="Yacute" unicode="&#xdd;" horiz-adv-x="731" 
d="M564 700h158l-287 -395v-305h-138v304l-288 396h159l199 -279zM322 745l50 145h157l-115 -145h-92z" />
    <glyph glyph-name="Ycircumflex" unicode="&#x176;" horiz-adv-x="731" 
d="M564 700h158l-287 -395v-305h-138v304l-288 396h159l199 -279zM165 745l130 145h144l130 -145h-112l-90 60l-90 -60h-112z" />
    <glyph glyph-name="Ydieresis" unicode="&#x178;" horiz-adv-x="731" 
d="M564 700h158l-287 -395v-305h-138v304l-288 396h159l199 -279zM185 765v120h132v-120h-132zM417 765v120h132v-120h-132z" />
    <glyph glyph-name="Ygrave" unicode="&#x1ef2;" horiz-adv-x="731" 
d="M564 700h158l-287 -395v-305h-138v304l-288 396h159l199 -279zM322 745l-115 145h157l50 -145h-92z" />
    <glyph glyph-name="uni0232" unicode="&#x232;" horiz-adv-x="731" 
d="M564 700h158l-287 -395v-305h-138v304l-288 396h159l199 -279zM189 765v110h355v-110h-355z" />
    <glyph glyph-name="Z" unicode="Z" horiz-adv-x="723" 
d="M231 122h448v-122h-635v122l438 456h-428v122h615v-122z" />
    <glyph glyph-name="Zacute" unicode="&#x179;" horiz-adv-x="723" 
d="M231 122h448v-122h-635v122l438 456h-428v122h615v-122zM317 745l50 145h157l-115 -145h-92z" />
    <glyph glyph-name="Zcaron" unicode="&#x17d;" horiz-adv-x="723" 
d="M231 122h448v-122h-635v122l438 456h-428v122h615v-122zM290 745l-130 145h112l90 -60l90 60h112l-130 -145h-144z" />
    <glyph glyph-name="Zdotaccent" unicode="&#x17b;" horiz-adv-x="723" 
d="M231 122h448v-122h-635v122l438 456h-428v122h615v-122zM290 759v139h143v-139h-143z" />
    <glyph glyph-name="G.ss02" horiz-adv-x="858" 
d="M46 350c-3 208 157 362 397 360c219 0 345 -105 355 -250h-145c-11 81 -82 128 -202 128h-16c-146 0 -250 -90 -250 -238c0 -150 104 -238 265 -238h9c140 0 206 56 206 130v3h-216v122h355v-112c0 -169 -130 -265 -350 -265c-251 0 -408 150 -408 360z" />
    <glyph glyph-name="Gbreve.ss02" horiz-adv-x="858" 
d="M46 350c-3 208 157 362 397 360c219 0 345 -105 355 -250h-145c-11 81 -82 128 -202 128h-16c-146 0 -250 -90 -250 -238c0 -150 104 -238 265 -238h9c140 0 206 56 206 130v3h-216v122h355v-112c0 -169 -130 -265 -350 -265c-251 0 -408 150 -408 360zM269 895h110
c5 -36 34 -55 75 -55s70 19 75 55h110c-2 -91 -75 -150 -185 -150s-183 59 -185 150z" />
    <glyph glyph-name="Gcircumflex.ss02" horiz-adv-x="858" 
d="M46 350c-3 208 157 362 397 360c219 0 345 -105 355 -250h-145c-11 81 -82 128 -202 128h-16c-146 0 -250 -90 -250 -238c0 -150 104 -238 265 -238h9c140 0 206 56 206 130v3h-216v122h355v-112c0 -169 -130 -265 -350 -265c-251 0 -408 150 -408 360zM252 745l130 145
h144l130 -145h-112l-90 60l-90 -60h-112z" />
    <glyph glyph-name="uni0122.ss02" horiz-adv-x="858" 
d="M46 350c-3 208 157 362 397 360c219 0 345 -105 355 -250h-145c-11 81 -82 128 -202 128h-16c-146 0 -250 -90 -250 -238c0 -150 104 -238 265 -238h9c140 0 206 56 206 130v3h-216v122h355v-112c0 -169 -130 -265 -350 -265c-251 0 -408 150 -408 360zM359 -309v75h33
c36 0 52 15 52 39v1h-60v132h140v-132c0 -67 -52 -115 -127 -115h-38z" />
    <glyph glyph-name="Gdotaccent.ss02" horiz-adv-x="858" 
d="M46 350c-3 208 157 362 397 360c219 0 345 -105 355 -250h-145c-11 81 -82 128 -202 128h-16c-146 0 -250 -90 -250 -238c0 -150 104 -238 265 -238h9c140 0 206 56 206 130v3h-216v122h355v-112c0 -169 -130 -265 -350 -265c-251 0 -408 150 -408 360zM382 759v139h143
v-139h-143z" />
    <glyph glyph-name="R.ss02" horiz-adv-x="809" 
d="M89 0v700h403c138 0 234 -81 234 -190c0 -96 -65 -161 -131 -177c71 -6 77 -18 107 -98l82 -235h-145l-71 207c-21 43 -26 52 -79 52h-262v-259h-138zM227 381h250c68 0 110 40 110 104c0 54 -41 93 -110 93h-250v-197z" />
    <glyph glyph-name="Racute.ss02" horiz-adv-x="809" 
d="M89 0v700h403c138 0 234 -81 234 -190c0 -96 -65 -161 -131 -177c71 -6 77 -18 107 -98l82 -235h-145l-71 207c-21 43 -26 52 -79 52h-262v-259h-138zM227 381h250c68 0 110 40 110 104c0 54 -41 93 -110 93h-250v-197zM351 745l50 145h157l-115 -145h-92z" />
    <glyph glyph-name="Rcaron.ss02" horiz-adv-x="809" 
d="M89 0v700h403c138 0 234 -81 234 -190c0 -96 -65 -161 -131 -177c71 -6 77 -18 107 -98l82 -235h-145l-71 207c-21 43 -26 52 -79 52h-262v-259h-138zM227 381h250c68 0 110 40 110 104c0 54 -41 93 -110 93h-250v-197zM324 745l-130 145h112l90 -60l90 60h112l-130 -145
h-144z" />
    <glyph glyph-name="uni0156.ss02" horiz-adv-x="809" 
d="M89 0v700h403c138 0 234 -81 234 -190c0 -96 -65 -161 -131 -177c71 -6 77 -18 107 -98l82 -235h-145l-71 207c-21 43 -26 52 -79 52h-262v-259h-138zM227 381h250c68 0 110 40 110 104c0 54 -41 93 -110 93h-250v-197zM339 -309v75h33c36 0 52 15 52 39v1h-60v132h140
v-132c0 -67 -52 -115 -127 -115h-38z" />
    <glyph glyph-name="a" unicode="a" horiz-adv-x="611" 
d="M38 138c0 108 81 159 208 167l170 12v12c0 48 -42 74 -114 74h-16c-53 0 -94 -22 -99 -58h-135c10 95 107 165 241 165c161 0 251 -78 251 -190v-210c0 -32 2 -69 7 -110h-123c-2 11 -4 25 -5 43s-2 30 -2 36c-24 -46 -89 -89 -175 -89c-133 0 -208 62 -208 148zM256 97
h14c74 0 146 30 146 93v31l-138 -10c-75 -5 -106 -27 -106 -60c0 -36 28 -54 84 -54z" />
    <glyph glyph-name="aacute" unicode="&#xe1;" horiz-adv-x="611" 
d="M38 138c0 108 81 159 208 167l170 12v12c0 48 -42 74 -114 74h-16c-53 0 -94 -22 -99 -58h-135c10 95 107 165 241 165c161 0 251 -78 251 -190v-210c0 -32 2 -69 7 -110h-123c-2 11 -4 25 -5 43s-2 30 -2 36c-24 -46 -89 -89 -175 -89c-133 0 -208 62 -208 148zM256 97
h14c74 0 146 30 146 93v31l-138 -10c-75 -5 -106 -27 -106 -60c0 -36 28 -54 84 -54zM245 551l65 150h152l-120 -150h-97z" />
    <glyph glyph-name="abreve" unicode="&#x103;" horiz-adv-x="611" 
d="M38 138c0 108 81 159 208 167l170 12v12c0 48 -42 74 -114 74h-16c-53 0 -94 -22 -99 -58h-135c10 95 107 165 241 165c161 0 251 -78 251 -190v-210c0 -32 2 -69 7 -110h-123c-2 11 -4 25 -5 43s-2 30 -2 36c-24 -46 -89 -89 -175 -89c-133 0 -208 62 -208 148zM256 97
h14c74 0 146 30 146 93v31l-138 -10c-75 -5 -106 -27 -106 -60c0 -36 28 -54 84 -54zM104 707h112c3 -39 29 -59 77 -59c49 0 74 20 77 59h112c-2 -97 -79 -156 -189 -156s-187 59 -189 156z" />
    <glyph glyph-name="acircumflex" unicode="&#xe2;" horiz-adv-x="611" 
d="M38 138c0 108 81 159 208 167l170 12v12c0 48 -42 74 -114 74h-16c-53 0 -94 -22 -99 -58h-135c10 95 107 165 241 165c161 0 251 -78 251 -190v-210c0 -32 2 -69 7 -110h-123c-2 11 -4 25 -5 43s-2 30 -2 36c-24 -46 -89 -89 -175 -89c-133 0 -208 62 -208 148zM256 97
h14c74 0 146 30 146 93v31l-138 -10c-75 -5 -106 -27 -106 -60c0 -36 28 -54 84 -54zM75 551l155 150h125l156 -150h-112l-105 70l-107 -70h-112z" />
    <glyph glyph-name="adieresis" unicode="&#xe4;" horiz-adv-x="611" 
d="M38 138c0 108 81 159 208 167l170 12v12c0 48 -42 74 -114 74h-16c-53 0 -94 -22 -99 -58h-135c10 95 107 165 241 165c161 0 251 -78 251 -190v-210c0 -32 2 -69 7 -110h-123c-2 11 -4 25 -5 43s-2 30 -2 36c-24 -46 -89 -89 -175 -89c-133 0 -208 62 -208 148zM256 97
h14c74 0 146 30 146 93v31l-138 -10c-75 -5 -106 -27 -106 -60c0 -36 28 -54 84 -54zM113 564v131h132v-131h-132zM340 564v131h132v-131h-132z" />
    <glyph glyph-name="uni0227" unicode="&#x227;" horiz-adv-x="611" 
d="M38 138c0 108 81 159 208 167l170 12v12c0 48 -42 74 -114 74h-16c-53 0 -94 -22 -99 -58h-135c10 95 107 165 241 165c161 0 251 -78 251 -190v-210c0 -32 2 -69 7 -110h-123c-2 11 -4 25 -5 43s-2 30 -2 36c-24 -46 -89 -89 -175 -89c-133 0 -208 62 -208 148zM256 97
h14c74 0 146 30 146 93v31l-138 -10c-75 -5 -106 -27 -106 -60c0 -36 28 -54 84 -54zM221 561v139h143v-139h-143z" />
    <glyph glyph-name="uni1EA1" unicode="&#x1ea1;" horiz-adv-x="611" 
d="M38 138c0 108 81 159 208 167l170 12v12c0 48 -42 74 -114 74h-16c-53 0 -94 -22 -99 -58h-135c10 95 107 165 241 165c161 0 251 -78 251 -190v-210c0 -32 2 -69 7 -110h-123c-2 11 -4 25 -5 43s-2 30 -2 36c-24 -46 -89 -89 -175 -89c-133 0 -208 62 -208 148zM256 97
h14c74 0 146 30 146 93v31l-138 -10c-75 -5 -106 -27 -106 -60c0 -36 28 -54 84 -54zM220 -195v130h146v-130h-146z" />
    <glyph glyph-name="agrave" unicode="&#xe0;" horiz-adv-x="611" 
d="M38 138c0 108 81 159 208 167l170 12v12c0 48 -42 74 -114 74h-16c-53 0 -94 -22 -99 -58h-135c10 95 107 165 241 165c161 0 251 -78 251 -190v-210c0 -32 2 -69 7 -110h-123c-2 11 -4 25 -5 43s-2 30 -2 36c-24 -46 -89 -89 -175 -89c-133 0 -208 62 -208 148zM256 97
h14c74 0 146 30 146 93v31l-138 -10c-75 -5 -106 -27 -106 -60c0 -36 28 -54 84 -54zM247 551l-120 150h152l65 -150h-97z" />
    <glyph glyph-name="amacron" unicode="&#x101;" horiz-adv-x="611" 
d="M38 138c0 108 81 159 208 167l170 12v12c0 48 -42 74 -114 74h-16c-53 0 -94 -22 -99 -58h-135c10 95 107 165 241 165c161 0 251 -78 251 -190v-210c0 -32 2 -69 7 -110h-123c-2 11 -4 25 -5 43s-2 30 -2 36c-24 -46 -89 -89 -175 -89c-133 0 -208 62 -208 148zM256 97
h14c74 0 146 30 146 93v31l-138 -10c-75 -5 -106 -27 -106 -60c0 -36 28 -54 84 -54zM115 565v105h355v-105h-355z" />
    <glyph glyph-name="aogonek" unicode="&#x105;" horiz-adv-x="611" 
d="M38 138c0 108 81 159 208 167l170 12v12c0 48 -42 74 -114 74h-16c-53 0 -94 -22 -99 -58h-135c10 95 107 165 241 165c161 0 251 -78 251 -190v-210c0 -32 2 -69 7 -110h-123c-2 11 -4 25 -5 43s-2 30 -2 36c-24 -46 -89 -89 -175 -89c-133 0 -208 62 -208 148zM256 97
h14c74 0 146 30 146 93v31l-138 -10c-75 -5 -106 -27 -106 -60c0 -36 28 -54 84 -54zM376 -120c0 65 51 110 110 135l65 -15c-49 -28 -85 -54 -85 -90c0 -32 27 -50 55 -50h45v-80h-65c-70 0 -125 43 -125 100z" />
    <glyph glyph-name="aring" unicode="&#xe5;" horiz-adv-x="611" 
d="M38 138c0 108 81 159 208 167l170 12v12c0 48 -42 74 -114 74h-16c-53 0 -94 -22 -99 -58h-135c10 95 107 165 241 165c161 0 251 -78 251 -190v-210c0 -32 2 -69 7 -110h-123c-2 11 -4 25 -5 43s-2 30 -2 36c-24 -46 -89 -89 -175 -89c-133 0 -208 62 -208 148zM256 97
h14c74 0 146 30 146 93v31l-138 -10c-75 -5 -106 -27 -106 -60c0 -36 28 -54 84 -54zM164 664c0 58 54 113 129 113s129 -55 129 -113c0 -64 -53 -113 -129 -113c-75 0 -129 49 -129 113zM345 664c0 24 -22 43 -51 43c-28 0 -52 -20 -52 -43s24 -43 52 -43c29 0 51 19 51 43
z" />
    <glyph glyph-name="aringacute" unicode="&#x1fb;" horiz-adv-x="611" 
d="M38 138c0 108 81 159 208 167l170 12v12c0 48 -42 74 -114 74h-16c-53 0 -94 -22 -99 -58h-135c10 95 107 165 241 165c161 0 251 -78 251 -190v-210c0 -32 2 -69 7 -110h-123c-2 11 -4 25 -5 43s-2 30 -2 36c-24 -46 -89 -89 -175 -89c-133 0 -208 62 -208 148zM256 97
h14c74 0 146 30 146 93v31l-138 -10c-75 -5 -106 -27 -106 -60c0 -36 28 -54 84 -54zM256 805l35 131h150l-106 -131h-79zM163 664c0 58 54 113 129 113s129 -55 129 -113c0 -64 -52 -113 -129 -113s-129 49 -129 113zM344 664c0 24 -23 43 -51 43s-52 -20 -52 -43
s24 -43 52 -43s51 19 51 43z" />
    <glyph glyph-name="atilde" unicode="&#xe3;" horiz-adv-x="611" 
d="M38 138c0 108 81 159 208 167l170 12v12c0 48 -42 74 -114 74h-16c-53 0 -94 -22 -99 -58h-135c10 95 107 165 241 165c161 0 251 -78 251 -190v-210c0 -32 2 -69 7 -110h-123c-2 11 -4 25 -5 43s-2 30 -2 36c-24 -46 -89 -89 -175 -89c-133 0 -208 62 -208 148zM256 97
h14c74 0 146 30 146 93v31l-138 -10c-75 -5 -106 -27 -106 -60c0 -36 28 -54 84 -54zM301 575l-36 14l-15 6c-17 8 -25 10 -38 10c-21 0 -33 -19 -33 -44h-96v28c0 62 53 116 115 116c29 0 45 -4 70 -15l15 -6l34 -13c4 -1 10 -4 19 -8c21 -9 30 -12 39 -12
c21 0 32 19 32 44h96v-28c0 -64 -37 -116 -109 -116c-25 0 -48 7 -93 24z" />
    <glyph glyph-name="ae" unicode="&#xe6;" horiz-adv-x="1022" 
d="M38 138c0 108 81 159 208 167l170 12v12c0 48 -42 74 -114 74h-16c-53 0 -94 -22 -99 -58h-135c10 95 107 165 241 165c101 0 171 -31 210 -83c53 53 133 83 214 83c163 0 262 -98 262 -249v-53h-405c16 -72 72 -111 139 -111h14c57 0 98 22 111 61h135
c-18 -102 -119 -168 -251 -168c-99 0 -181 34 -232 95c-48 -64 -133 -95 -244 -95c-133 0 -208 62 -208 148zM576 310h264c-4 64 -52 93 -117 93h-14c-69 0 -116 -34 -133 -93zM256 97h14c74 0 146 30 146 93v31l-138 -10c-75 -5 -106 -27 -106 -60c0 -36 28 -54 84 -54z
" />
    <glyph glyph-name="aeacute" unicode="&#x1fd;" horiz-adv-x="1022" 
d="M38 138c0 108 81 159 208 167l170 12v12c0 48 -42 74 -114 74h-16c-53 0 -94 -22 -99 -58h-135c10 95 107 165 241 165c101 0 171 -31 210 -83c53 53 133 83 214 83c163 0 262 -98 262 -249v-53h-405c16 -72 72 -111 139 -111h14c57 0 98 22 111 61h135
c-18 -102 -119 -168 -251 -168c-99 0 -181 34 -232 95c-48 -64 -133 -95 -244 -95c-133 0 -208 62 -208 148zM576 310h264c-4 64 -52 93 -117 93h-14c-69 0 -116 -34 -133 -93zM256 97h14c74 0 146 30 146 93v31l-138 -10c-75 -5 -106 -27 -106 -60c0 -36 28 -54 84 -54z
M462 551l65 150h152l-120 -150h-97z" />
    <glyph glyph-name="uni01E3" unicode="&#x1e3;" horiz-adv-x="1022" 
d="M38 138c0 108 81 159 208 167l170 12v12c0 48 -42 74 -114 74h-16c-53 0 -94 -22 -99 -58h-135c10 95 107 165 241 165c101 0 171 -31 210 -83c53 53 133 83 214 83c163 0 262 -98 262 -249v-53h-405c16 -72 72 -111 139 -111h14c57 0 98 22 111 61h135
c-18 -102 -119 -168 -251 -168c-99 0 -181 34 -232 95c-48 -64 -133 -95 -244 -95c-133 0 -208 62 -208 148zM576 310h264c-4 64 -52 93 -117 93h-14c-69 0 -116 -34 -133 -93zM256 97h14c74 0 146 30 146 93v31l-138 -10c-75 -5 -106 -27 -106 -60c0 -36 28 -54 84 -54z
M332 565v105h355v-105h-355z" />
    <glyph glyph-name="b" unicode="b" horiz-adv-x="693" 
d="M204 63v-63h-133v700h133v-266c35 45 99 76 188 76c146 0 260 -93 260 -260c0 -159 -115 -260 -262 -260c-81 0 -151 28 -186 73zM358 97h14c86 0 146 56 146 153s-60 153 -146 153h-14c-88 0 -154 -56 -154 -153s66 -153 154 -153z" />
    <glyph glyph-name="c" unicode="c" horiz-adv-x="623" 
d="M41 250c0 148 109 260 288 260c143 0 243 -71 259 -185h-135c-11 48 -56 78 -117 78h-14c-97 0 -147 -70 -147 -153s50 -153 147 -153h14c60 0 105 33 117 78h135c-16 -106 -118 -185 -259 -185c-189 0 -288 106 -288 260z" />
    <glyph glyph-name="cacute" unicode="&#x107;" horiz-adv-x="623" 
d="M41 250c0 148 109 260 288 260c143 0 243 -71 259 -185h-135c-11 48 -56 78 -117 78h-14c-97 0 -147 -70 -147 -153s50 -153 147 -153h14c60 0 105 33 117 78h135c-16 -106 -118 -185 -259 -185c-189 0 -288 106 -288 260zM281 551l65 150h152l-120 -150h-97z" />
    <glyph glyph-name="ccaron" unicode="&#x10d;" horiz-adv-x="623" 
d="M41 250c0 148 109 260 288 260c143 0 243 -71 259 -185h-135c-11 48 -56 78 -117 78h-14c-97 0 -147 -70 -147 -153s50 -153 147 -153h14c60 0 105 33 117 78h135c-16 -106 -118 -185 -259 -185c-189 0 -288 106 -288 260zM266 551l-155 150h112l107 -70l105 70h112
l-156 -150h-125z" />
    <glyph glyph-name="ccedilla" unicode="&#xe7;" horiz-adv-x="623" 
d="M41 250c0 148 109 260 288 260c143 0 243 -71 259 -185h-135c-11 48 -56 78 -117 78h-14c-97 0 -147 -70 -147 -153s50 -153 147 -153h14c60 0 105 33 117 78h135c-16 -106 -118 -185 -259 -185c-189 0 -288 106 -288 260zM235 -245v75h97c25 0 43 10 43 30
c0 16 -14 30 -38 30h-57v125h72v-60c52 0 98 -32 98 -95c0 -65 -53 -105 -123 -105h-92z" />
    <glyph glyph-name="ccircumflex" unicode="&#x109;" horiz-adv-x="623" 
d="M41 250c0 148 109 260 288 260c143 0 243 -71 259 -185h-135c-11 48 -56 78 -117 78h-14c-97 0 -147 -70 -147 -153s50 -153 147 -153h14c60 0 105 33 117 78h135c-16 -106 -118 -185 -259 -185c-189 0 -288 106 -288 260zM111 551l155 150h125l156 -150h-112l-105 70
l-107 -70h-112z" />
    <glyph glyph-name="cdotaccent" unicode="&#x10b;" horiz-adv-x="623" 
d="M41 250c0 148 109 260 288 260c143 0 243 -71 259 -185h-135c-11 48 -56 78 -117 78h-14c-97 0 -147 -70 -147 -153s50 -153 147 -153h14c60 0 105 33 117 78h135c-16 -106 -118 -185 -259 -185c-189 0 -288 106 -288 260zM257 561v139h143v-139h-143z" />
    <glyph glyph-name="d" unicode="d" horiz-adv-x="693" 
d="M41 250c0 167 114 260 260 260c89 0 153 -31 188 -76v266h133v-700h-133v63c-36 -45 -103 -73 -186 -73c-147 0 -262 101 -262 260zM321 97h14c88 0 154 56 154 153s-66 153 -154 153h-14c-86 0 -146 -56 -146 -153s60 -153 146 -153z" />
    <glyph glyph-name="eth" unicode="&#xf0;" horiz-adv-x="687" 
d="M638 317c0 -221 -111 -327 -303 -327c-174 0 -294 98 -294 246c0 154 126 240 276 240c65 0 125 -17 170 -52c-19 52 -49 91 -92 118l-80 -51l-44 66l32 21c-30 7 -65 10 -104 10c-8 0 -20 0 -37 -1v113c100 0 186 -15 258 -46l113 74l44 -69l-78 -50
c92 -67 139 -169 139 -292zM495 232c0 91 -64 134 -155 134h-14c-82 0 -150 -41 -150 -135c0 -82 69 -131 150 -131h14c87 0 155 49 155 132z" />
    <glyph glyph-name="dcaron" unicode="&#x10f;" horiz-adv-x="828" 
d="M41 250c0 167 114 260 260 260c89 0 153 -31 188 -76v266h133v-700h-133v63c-36 -45 -103 -73 -186 -73c-147 0 -262 101 -262 260zM321 97h14c88 0 154 56 154 153s-66 153 -154 153h-14c-86 0 -146 -56 -146 -153s60 -153 146 -153zM680 453v75h33c36 0 52 15 52 39v1
h-60v132h140v-132c0 -67 -52 -115 -127 -115h-38z" />
    <glyph glyph-name="dcroat" unicode="&#x111;" horiz-adv-x="693" 
d="M41 250c0 167 114 260 260 260c89 0 153 -31 188 -76v266h133v-700h-133v63c-36 -45 -103 -73 -186 -73c-147 0 -262 101 -262 260zM321 97h14c88 0 154 56 154 153s-66 153 -154 153h-14c-86 0 -146 -56 -146 -153s60 -153 146 -153zM306 547v93h408v-93h-408z" />
    <glyph glyph-name="e" unicode="e" horiz-adv-x="628" 
d="M585 261v-53h-405c16 -72 72 -111 139 -111h14c56 0 98 22 111 61h135c-18 -103 -120 -168 -251 -168c-164 0 -287 92 -287 264c-3 161 138 258 282 256c163 0 262 -98 262 -249zM182 310h264c-4 64 -52 93 -117 93h-14c-69 0 -116 -34 -133 -93z" />
    <glyph glyph-name="eacute" unicode="&#xe9;" horiz-adv-x="628" 
d="M585 261v-53h-405c16 -72 72 -111 139 -111h14c56 0 98 22 111 61h135c-18 -103 -120 -168 -251 -168c-164 0 -287 92 -287 264c-3 161 138 258 282 256c163 0 262 -98 262 -249zM182 310h264c-4 64 -52 93 -117 93h-14c-69 0 -116 -34 -133 -93zM276 551l65 150h152
l-120 -150h-97z" />
    <glyph glyph-name="ebreve" unicode="&#x115;" horiz-adv-x="628" 
d="M585 261v-53h-405c16 -72 72 -111 139 -111h14c56 0 98 22 111 61h135c-18 -103 -120 -168 -251 -168c-164 0 -287 92 -287 264c-3 161 138 258 282 256c163 0 262 -98 262 -249zM182 310h264c-4 64 -52 93 -117 93h-14c-69 0 -116 -34 -133 -93zM135 707h112
c3 -39 29 -59 77 -59c49 0 74 20 77 59h112c-2 -97 -79 -156 -189 -156s-187 59 -189 156z" />
    <glyph glyph-name="ecaron" unicode="&#x11b;" horiz-adv-x="628" 
d="M585 261v-53h-405c16 -72 72 -111 139 -111h14c56 0 98 22 111 61h135c-18 -103 -120 -168 -251 -168c-164 0 -287 92 -287 264c-3 161 138 258 282 256c163 0 262 -98 262 -249zM182 310h264c-4 64 -52 93 -117 93h-14c-69 0 -116 -34 -133 -93zM261 551l-155 150h112
l107 -70l105 70h112l-156 -150h-125z" />
    <glyph glyph-name="ecircumflex" unicode="&#xea;" horiz-adv-x="628" 
d="M585 261v-53h-405c16 -72 72 -111 139 -111h14c56 0 98 22 111 61h135c-18 -103 -120 -168 -251 -168c-164 0 -287 92 -287 264c-3 161 138 258 282 256c163 0 262 -98 262 -249zM182 310h264c-4 64 -52 93 -117 93h-14c-69 0 -116 -34 -133 -93zM106 551l155 150h125
l156 -150h-112l-105 70l-107 -70h-112z" />
    <glyph glyph-name="edieresis" unicode="&#xeb;" horiz-adv-x="628" 
d="M585 261v-53h-405c16 -72 72 -111 139 -111h14c56 0 98 22 111 61h135c-18 -103 -120 -168 -251 -168c-164 0 -287 92 -287 264c-3 161 138 258 282 256c163 0 262 -98 262 -249zM182 310h264c-4 64 -52 93 -117 93h-14c-69 0 -116 -34 -133 -93zM144 564v131h132v-131
h-132zM371 564v131h132v-131h-132z" />
    <glyph glyph-name="edotaccent" unicode="&#x117;" horiz-adv-x="628" 
d="M585 261v-53h-405c16 -72 72 -111 139 -111h14c56 0 98 22 111 61h135c-18 -103 -120 -168 -251 -168c-164 0 -287 92 -287 264c-3 161 138 258 282 256c163 0 262 -98 262 -249zM182 310h264c-4 64 -52 93 -117 93h-14c-69 0 -116 -34 -133 -93zM252 561v139h143v-139
h-143z" />
    <glyph glyph-name="uni1EB9" unicode="&#x1eb9;" horiz-adv-x="628" 
d="M585 261v-53h-405c16 -72 72 -111 139 -111h14c56 0 98 22 111 61h135c-18 -103 -120 -168 -251 -168c-164 0 -287 92 -287 264c-3 161 138 258 282 256c163 0 262 -98 262 -249zM182 310h264c-4 64 -52 93 -117 93h-14c-69 0 -116 -34 -133 -93zM251 -195v130h146v-130
h-146z" />
    <glyph glyph-name="egrave" unicode="&#xe8;" horiz-adv-x="628" 
d="M585 261v-53h-405c16 -72 72 -111 139 -111h14c56 0 98 22 111 61h135c-18 -103 -120 -168 -251 -168c-164 0 -287 92 -287 264c-3 161 138 258 282 256c163 0 262 -98 262 -249zM182 310h264c-4 64 -52 93 -117 93h-14c-69 0 -116 -34 -133 -93zM278 551l-120 150h152
l65 -150h-97z" />
    <glyph glyph-name="emacron" unicode="&#x113;" horiz-adv-x="628" 
d="M585 261v-53h-405c16 -72 72 -111 139 -111h14c56 0 98 22 111 61h135c-18 -103 -120 -168 -251 -168c-164 0 -287 92 -287 264c-3 161 138 258 282 256c163 0 262 -98 262 -249zM182 310h264c-4 64 -52 93 -117 93h-14c-69 0 -116 -34 -133 -93zM146 565v105h355v-105
h-355z" />
    <glyph glyph-name="eogonek" unicode="&#x119;" horiz-adv-x="628" 
d="M585 261v-53h-405c16 -72 72 -111 139 -111h14c56 0 98 22 111 61h135c-18 -103 -120 -168 -251 -168c-164 0 -287 92 -287 264c-3 161 138 258 282 256c163 0 262 -98 262 -249zM182 310h264c-4 64 -52 93 -117 93h-14c-69 0 -116 -34 -133 -93zM238 -120
c0 65 51 110 110 135l65 -15c-49 -28 -85 -54 -85 -90c0 -32 27 -50 55 -50h45v-80h-65c-70 0 -125 43 -125 100z" />
    <glyph glyph-name="f" unicode="f" horiz-adv-x="447" 
d="M148 0v393h-128v107h128v85c0 71 44 115 123 115h184v-110h-130c-32 0 -44 -8 -44 -37v-53h144v-107h-144v-393h-133z" />
    <glyph glyph-name="g" unicode="g" horiz-adv-x="679" 
d="M27 -55h137c12 -37 65 -58 140 -58h14c90 0 157 46 157 136v52c-37 -44 -90 -75 -174 -75c-138 0 -260 84 -260 255c0 170 121 255 259 255c77 0 135 -24 175 -73v63h133v-489c0 -132 -105 -231 -297 -231c-169 0 -272 68 -284 165zM313 107h14c76 0 148 60 148 148
c0 90 -67 148 -143 148h-14c-80 0 -143 -46 -143 -148s59 -148 138 -148z" />
    <glyph glyph-name="gbreve" unicode="&#x11f;" horiz-adv-x="679" 
d="M27 -55h137c12 -37 65 -58 140 -58h14c90 0 157 46 157 136v52c-37 -44 -90 -75 -174 -75c-138 0 -260 84 -260 255c0 170 121 255 259 255c77 0 135 -24 175 -73v63h133v-489c0 -132 -105 -231 -297 -231c-169 0 -272 68 -284 165zM313 107h14c76 0 148 60 148 148
c0 90 -67 148 -143 148h-14c-80 0 -143 -46 -143 -148s59 -148 138 -148zM133 707h112c3 -39 29 -59 77 -59c49 0 74 20 77 59h112c-2 -97 -79 -156 -189 -156s-187 59 -189 156z" />
    <glyph glyph-name="gcircumflex" unicode="&#x11d;" horiz-adv-x="679" 
d="M27 -55h137c12 -37 65 -58 140 -58h14c90 0 157 46 157 136v52c-37 -44 -90 -75 -174 -75c-138 0 -260 84 -260 255c0 170 121 255 259 255c77 0 135 -24 175 -73v63h133v-489c0 -132 -105 -231 -297 -231c-169 0 -272 68 -284 165zM313 107h14c76 0 148 60 148 148
c0 90 -67 148 -143 148h-14c-80 0 -143 -46 -143 -148s59 -148 138 -148zM104 551l155 150h125l156 -150h-112l-105 70l-107 -70h-112z" />
    <glyph glyph-name="uni0123" unicode="&#x123;" horiz-adv-x="679" 
d="M27 -55h137c12 -37 65 -58 140 -58h14c90 0 157 46 157 136v52c-37 -44 -90 -75 -174 -75c-138 0 -260 84 -260 255c0 170 121 255 259 255c77 0 135 -24 175 -73v63h133v-489c0 -132 -105 -231 -297 -231c-169 0 -272 68 -284 165zM313 107h14c76 0 148 60 148 148
c0 90 -67 148 -143 148h-14c-80 0 -143 -46 -143 -148s59 -148 138 -148zM414 816v-75h-33c-35 0 -52 -15 -52 -39v-1h60v-132h-140v132c0 67 54 115 127 115h38z" />
    <glyph glyph-name="gdotaccent" unicode="&#x121;" horiz-adv-x="679" 
d="M27 -55h137c12 -37 65 -58 140 -58h14c90 0 157 46 157 136v52c-37 -44 -90 -75 -174 -75c-138 0 -260 84 -260 255c0 170 121 255 259 255c77 0 135 -24 175 -73v63h133v-489c0 -132 -105 -231 -297 -231c-169 0 -272 68 -284 165zM313 107h14c76 0 148 60 148 148
c0 90 -67 148 -143 148h-14c-80 0 -143 -46 -143 -148s59 -148 138 -148zM250 561v139h143v-139h-143z" />
    <glyph glyph-name="h" unicode="h" horiz-adv-x="661" 
d="M71 0v700h133v-273c35 51 93 83 177 83c139 0 214 -86 214 -206v-304h-133v280c0 76 -33 123 -101 123h-14c-75 0 -143 -62 -143 -151v-252h-133z" />
    <glyph glyph-name="hbar" unicode="&#x127;" horiz-adv-x="661" 
d="M71 0v700h133v-273c35 51 93 83 177 83c139 0 214 -86 214 -206v-304h-133v280c0 76 -33 123 -101 123h-14c-75 0 -143 -62 -143 -151v-252h-133zM-21 547v93h408v-93h-408z" />
    <glyph glyph-name="hcircumflex" unicode="&#x125;" horiz-adv-x="661" 
d="M71 0v700h133v-273c35 51 93 83 177 83c139 0 214 -86 214 -206v-304h-133v280c0 76 -33 123 -101 123h-14c-75 0 -143 -62 -143 -151v-252h-133zM-80 731l155 150h125l156 -150h-112l-105 70l-107 -70h-112z" />
    <glyph glyph-name="i" unicode="i" horiz-adv-x="275" 
d="M71 0v500h133v-500h-133zM66 561v139h143v-139h-143z" />
    <glyph glyph-name="dotlessi" unicode="&#x131;" horiz-adv-x="275" 
d="M71 0v500h133v-500h-133z" />
    <glyph glyph-name="iacute" unicode="&#xed;" horiz-adv-x="275" 
d="M71 0v500h133v-500h-133zM90 551l65 150h152l-120 -150h-97z" />
    <glyph glyph-name="ibreve" unicode="&#x12d;" horiz-adv-x="275" 
d="M71 0v500h133v-500h-133zM-51 707h112c3 -39 29 -59 77 -59c49 0 74 20 77 59h112c-2 -97 -79 -156 -189 -156s-187 59 -189 156z" />
    <glyph glyph-name="icircumflex" unicode="&#xee;" horiz-adv-x="275" 
d="M71 0v500h133v-500h-133zM-80 551l155 150h125l156 -150h-112l-105 70l-107 -70h-112z" />
    <glyph glyph-name="idieresis" unicode="&#xef;" horiz-adv-x="275" 
d="M71 0v500h133v-500h-133zM-42 564v131h132v-131h-132zM185 564v131h132v-131h-132z" />
    <glyph glyph-name="i.locl" horiz-adv-x="275" 
d="M71 0v500h133v-500h-133zM66 561v139h143v-139h-143z" />
    <glyph glyph-name="uni1ECB" unicode="&#x1ecb;" horiz-adv-x="275" 
d="M71 0v500h133v-500h-133zM66 561v139h143v-139h-143zM65 -195v130h146v-130h-146z" />
    <glyph glyph-name="igrave" unicode="&#xec;" horiz-adv-x="275" 
d="M71 0v500h133v-500h-133zM92 551l-120 150h152l65 -150h-97z" />
    <glyph glyph-name="ij" unicode="&#x133;" horiz-adv-x="561" 
d="M66 561v139h143v-139h-143zM352 561v139h143v-139h-143zM71 -200v112h246c31 0 40 9 40 40v548h133v-585c0 -65 -47 -115 -115 -115h-304zM71 0v500h133v-500h-133z" />
    <glyph glyph-name="imacron" unicode="&#x12b;" horiz-adv-x="275" 
d="M71 0v500h133v-500h-133zM-40 565v105h355v-105h-355z" />
    <glyph glyph-name="iogonek" unicode="&#x12f;" horiz-adv-x="275" 
d="M71 0v500h133v-500h-133zM66 561v139h143v-139h-143zM29 -120c0 65 51 110 110 135l65 -15c-49 -28 -85 -54 -85 -90c0 -32 27 -50 55 -50h45v-80h-65c-70 0 -125 43 -125 100z" />
    <glyph glyph-name="itilde" unicode="&#x129;" horiz-adv-x="275" 
d="M71 0v500h133v-500h-133zM146 575l-36 14l-15 6c-17 8 -25 10 -38 10c-21 0 -33 -19 -33 -44h-96v28c0 62 53 116 115 116c29 0 45 -4 70 -15l15 -6l34 -13c4 -1 10 -4 19 -8c21 -9 30 -12 39 -12c21 0 32 19 32 44h96v-28c0 -64 -37 -116 -109 -116c-25 0 -48 7 -93 24z
" />
    <glyph glyph-name="j" unicode="j" horiz-adv-x="285" 
d="M-120 -200v112h161c29 0 40 11 40 40v548h133v-585c0 -65 -46 -115 -115 -115h-219zM76 561v139h143v-139h-143z" />
    <glyph glyph-name="uni0237" unicode="&#x237;" horiz-adv-x="285" 
d="M-120 -200v112h161c29 0 40 11 40 40v548h133v-585c0 -65 -46 -115 -115 -115h-219z" />
    <glyph glyph-name="jcircumflex" unicode="&#x135;" horiz-adv-x="285" 
d="M-120 -200v112h161c29 0 40 11 40 40v548h133v-585c0 -65 -46 -115 -115 -115h-219zM-70 551l155 150h125l156 -150h-112l-105 70l-107 -70h-112z" />
    <glyph glyph-name="k" unicode="k" horiz-adv-x="616" 
d="M71 0v700h133v-384l226 184h178l-262 -207l272 -293h-166l-200 219l-48 -38v-181h-133z" />
    <glyph glyph-name="uni0137" unicode="&#x137;" horiz-adv-x="616" 
d="M71 0v700h133v-384l226 184h178l-262 -207l272 -293h-166l-200 219l-48 -38v-181h-133zM216 -309v75h33c36 0 52 15 52 39v1h-60v132h140v-132c0 -67 -52 -115 -127 -115h-38z" />
    <glyph glyph-name="l" unicode="l" horiz-adv-x="275" 
d="M71 0v700h133v-700h-133z" />
    <glyph glyph-name="lacute" unicode="&#x13a;" horiz-adv-x="275" 
d="M71 0v700h133v-700h-133zM92 751l65 150h152l-120 -150h-97z" />
    <glyph glyph-name="lcaron" unicode="&#x13e;" horiz-adv-x="401" 
d="M71 0v700h133v-700h-133zM253 453v75h33c36 0 52 15 52 39v1h-60v132h140v-132c0 -67 -52 -115 -127 -115h-38z" />
    <glyph glyph-name="uni013C" unicode="&#x13c;" horiz-adv-x="275" 
d="M71 0v700h133v-700h-133zM43 -309v75h33c36 0 52 15 52 39v1h-60v132h140v-132c0 -67 -52 -115 -127 -115h-38z" />
    <glyph glyph-name="ldot" unicode="&#x140;" horiz-adv-x="435" 
d="M71 0v700h133v-700h-133zM275 275v147h160v-147h-160z" />
    <glyph glyph-name="lslash" unicode="&#x142;" horiz-adv-x="360" 
d="M115 0v700h133v-700h-133zM32 259v120l305 164v-120z" />
    <glyph glyph-name="m" unicode="m" horiz-adv-x="1049" 
d="M71 0v500h133v-60c32 44 87 70 159 70c87 0 155 -30 188 -90c41 63 115 90 200 90c162 0 232 -89 232 -213v-297h-133v283c0 73 -35 120 -106 120h-14c-80 0 -137 -62 -137 -155v-248h-133v283c0 73 -38 120 -114 120h-14c-76 0 -128 -62 -128 -155v-248h-133z" />
    <glyph glyph-name="n" unicode="n" horiz-adv-x="661" 
d="M71 0v500h133v-73c33 48 92 83 177 83c141 0 214 -84 214 -206v-304h-133v280c0 76 -33 123 -101 123h-14c-75 0 -143 -62 -143 -151v-252h-133z" />
    <glyph glyph-name="nacute" unicode="&#x144;" horiz-adv-x="661" 
d="M71 0v500h133v-73c33 48 92 83 177 83c141 0 214 -84 214 -206v-304h-133v280c0 76 -33 123 -101 123h-14c-75 0 -143 -62 -143 -151v-252h-133zM293 551l65 150h152l-120 -150h-97z" />
    <glyph glyph-name="ncaron" unicode="&#x148;" horiz-adv-x="661" 
d="M71 0v500h133v-73c33 48 92 83 177 83c141 0 214 -84 214 -206v-304h-133v280c0 76 -33 123 -101 123h-14c-75 0 -143 -62 -143 -151v-252h-133zM278 551l-155 150h112l107 -70l105 70h112l-156 -150h-125z" />
    <glyph glyph-name="uni0146" unicode="&#x146;" horiz-adv-x="661" 
d="M71 0v500h133v-73c33 48 92 83 177 83c141 0 214 -84 214 -206v-304h-133v280c0 76 -33 123 -101 123h-14c-75 0 -143 -62 -143 -151v-252h-133zM236 -309v75h33c36 0 52 15 52 39v1h-60v132h140v-132c0 -67 -52 -115 -127 -115h-38z" />
    <glyph glyph-name="eng" unicode="&#x14b;" horiz-adv-x="661" 
d="M314 -202v114h108c32 0 40 9 40 40v328c0 76 -33 123 -101 123h-14c-75 0 -143 -62 -143 -151v-252h-133v500h133v-73c36 55 95 83 177 83c141 0 214 -84 214 -206v-384c0 -81 -38 -122 -115 -122h-166z" />
    <glyph glyph-name="ntilde" unicode="&#xf1;" horiz-adv-x="661" 
d="M71 0v500h133v-73c33 48 92 83 177 83c141 0 214 -84 214 -206v-304h-133v280c0 76 -33 123 -101 123h-14c-75 0 -143 -62 -143 -151v-252h-133zM349 575l-36 14l-15 6c-17 8 -25 10 -38 10c-21 0 -33 -19 -33 -44h-96v28c0 62 53 116 115 116c29 0 45 -4 70 -15l15 -6
l34 -13c4 -1 10 -4 19 -8c21 -9 30 -12 39 -12c21 0 32 19 32 44h96v-28c0 -64 -37 -116 -109 -116c-25 0 -48 7 -93 24z" />
    <glyph glyph-name="o" unicode="o" horiz-adv-x="668" 
d="M40 250c0 157 120 260 294 260c172 0 294 -103 294 -260s-122 -260 -294 -260c-174 0 -294 103 -294 260zM327 97h14c89 0 153 60 153 153s-64 153 -153 153h-14c-89 0 -153 -60 -153 -153s64 -153 153 -153z" />
    <glyph glyph-name="oacute" unicode="&#xf3;" horiz-adv-x="668" 
d="M40 250c0 157 120 260 294 260c172 0 294 -103 294 -260s-122 -260 -294 -260c-174 0 -294 103 -294 260zM327 97h14c89 0 153 60 153 153s-64 153 -153 153h-14c-89 0 -153 -60 -153 -153s64 -153 153 -153zM286 551l65 150h152l-120 -150h-97z" />
    <glyph glyph-name="obreve" unicode="&#x14f;" horiz-adv-x="668" 
d="M40 250c0 157 120 260 294 260c172 0 294 -103 294 -260s-122 -260 -294 -260c-174 0 -294 103 -294 260zM327 97h14c89 0 153 60 153 153s-64 153 -153 153h-14c-89 0 -153 -60 -153 -153s64 -153 153 -153zM145 707h112c3 -39 29 -59 77 -59c49 0 74 20 77 59h112
c-2 -97 -79 -156 -189 -156s-187 59 -189 156z" />
    <glyph glyph-name="ocircumflex" unicode="&#xf4;" horiz-adv-x="668" 
d="M40 250c0 157 120 260 294 260c172 0 294 -103 294 -260s-122 -260 -294 -260c-174 0 -294 103 -294 260zM327 97h14c89 0 153 60 153 153s-64 153 -153 153h-14c-89 0 -153 -60 -153 -153s64 -153 153 -153zM116 551l155 150h125l156 -150h-112l-105 70l-107 -70h-112z
" />
    <glyph glyph-name="odieresis" unicode="&#xf6;" horiz-adv-x="668" 
d="M40 250c0 157 120 260 294 260c172 0 294 -103 294 -260s-122 -260 -294 -260c-174 0 -294 103 -294 260zM327 97h14c89 0 153 60 153 153s-64 153 -153 153h-14c-89 0 -153 -60 -153 -153s64 -153 153 -153zM154 564v131h132v-131h-132zM381 564v131h132v-131h-132z" />
    <glyph glyph-name="uni1ECD" unicode="&#x1ecd;" horiz-adv-x="668" 
d="M40 250c0 157 120 260 294 260c172 0 294 -103 294 -260s-122 -260 -294 -260c-174 0 -294 103 -294 260zM327 97h14c89 0 153 60 153 153s-64 153 -153 153h-14c-89 0 -153 -60 -153 -153s64 -153 153 -153zM261 -195v130h146v-130h-146z" />
    <glyph glyph-name="ograve" unicode="&#xf2;" horiz-adv-x="668" 
d="M40 250c0 157 120 260 294 260c172 0 294 -103 294 -260s-122 -260 -294 -260c-174 0 -294 103 -294 260zM327 97h14c89 0 153 60 153 153s-64 153 -153 153h-14c-89 0 -153 -60 -153 -153s64 -153 153 -153zM288 551l-120 150h152l65 -150h-97z" />
    <glyph glyph-name="ohungarumlaut" unicode="&#x151;" horiz-adv-x="668" 
d="M40 250c0 157 120 260 294 260c172 0 294 -103 294 -260s-122 -260 -294 -260c-174 0 -294 103 -294 260zM327 97h14c89 0 153 60 153 153s-64 153 -153 153h-14c-89 0 -153 -60 -153 -153s64 -153 153 -153zM188 551l65 150h152l-120 -150h-97zM379 551l65 150h152
l-120 -150h-97z" />
    <glyph glyph-name="omacron" unicode="&#x14d;" horiz-adv-x="668" 
d="M40 250c0 157 120 260 294 260c172 0 294 -103 294 -260s-122 -260 -294 -260c-174 0 -294 103 -294 260zM327 97h14c89 0 153 60 153 153s-64 153 -153 153h-14c-89 0 -153 -60 -153 -153s64 -153 153 -153zM156 565v105h355v-105h-355z" />
    <glyph glyph-name="oslash" unicode="&#xf8;" horiz-adv-x="674" 
d="M42 250c0 157 120 260 294 260c172 0 294 -103 294 -260s-122 -260 -294 -260c-174 0 -294 103 -294 260zM329 97h14c89 0 153 60 153 153s-64 153 -153 153h-14c-89 0 -153 -60 -153 -153s64 -153 153 -153zM115 -36l-72 86l524 486l72 -86z" />
    <glyph glyph-name="oslashacute" unicode="&#x1ff;" horiz-adv-x="674" 
d="M42 250c0 157 120 260 294 260c172 0 294 -103 294 -260s-122 -260 -294 -260c-174 0 -294 103 -294 260zM329 97h14c89 0 153 60 153 153s-64 153 -153 153h-14c-89 0 -153 -60 -153 -153s64 -153 153 -153zM115 -36l-72 86l524 486l72 -86zM288 551l65 150h152
l-120 -150h-97z" />
    <glyph glyph-name="otilde" unicode="&#xf5;" horiz-adv-x="668" 
d="M40 250c0 157 120 260 294 260c172 0 294 -103 294 -260s-122 -260 -294 -260c-174 0 -294 103 -294 260zM327 97h14c89 0 153 60 153 153s-64 153 -153 153h-14c-89 0 -153 -60 -153 -153s64 -153 153 -153zM342 575l-36 14l-15 6c-17 8 -25 10 -38 10
c-21 0 -33 -19 -33 -44h-96v28c0 62 53 116 115 116c29 0 45 -4 70 -15l15 -6l34 -13c4 -1 10 -4 19 -8c21 -9 30 -12 39 -12c21 0 32 19 32 44h96v-28c0 -64 -37 -116 -109 -116c-25 0 -48 7 -93 24z" />
    <glyph glyph-name="oe" unicode="&#x153;" horiz-adv-x="1097" 
d="M40 250c0 157 120 260 293 260c105 0 187 -37 235 -104c49 67 135 104 224 104c163 0 262 -98 262 -249v-53h-405c16 -72 72 -111 139 -111h14c56 0 96 22 111 61h135c-18 -102 -120 -168 -251 -168c-99 0 -181 35 -230 103c-48 -67 -130 -103 -234 -103
c-173 0 -293 103 -293 260zM326 96h14c87 0 153 61 153 154s-66 153 -152 153h-14c-88 0 -154 -60 -154 -153c0 -94 64 -154 153 -154zM651 310h264c-4 64 -52 93 -117 93h-14c-71 0 -116 -34 -133 -93z" />
    <glyph glyph-name="p" unicode="p" horiz-adv-x="693" 
d="M71 -200v700h133v-63c35 45 105 73 186 73c147 0 262 -101 262 -260c0 -167 -114 -260 -260 -260c-89 0 -153 31 -188 76v-266h-133zM358 97h14c86 0 146 56 146 153s-60 153 -146 153h-14c-88 0 -154 -56 -154 -153s66 -153 154 -153z" />
    <glyph glyph-name="thorn" unicode="&#xfe;" horiz-adv-x="693" 
d="M71 -200v900h133v-263c35 45 105 73 186 73c147 0 262 -101 262 -260c0 -167 -114 -260 -260 -260c-89 0 -153 31 -188 76v-266h-133zM358 97h14c86 0 146 56 146 153s-60 153 -146 153h-14c-88 0 -154 -56 -154 -153s66 -153 154 -153z" />
    <glyph glyph-name="q" unicode="q" horiz-adv-x="693" 
d="M489 -200v266c-35 -45 -99 -76 -188 -76c-146 0 -260 93 -260 260c0 159 115 260 262 260c83 0 150 -28 186 -73v63h133v-700h-133zM321 97h14c88 0 154 56 154 153s-66 153 -154 153h-14c-86 0 -146 -56 -146 -153s60 -153 146 -153z" />
    <glyph glyph-name="r" unicode="r" horiz-adv-x="441" 
d="M71 0v500h128v-95c23 65 61 95 134 95h87v-119h-94c-79 0 -122 -45 -122 -130v-251h-133z" />
    <glyph glyph-name="racute" unicode="&#x155;" horiz-adv-x="441" 
d="M71 0v500h128v-95c23 65 61 95 134 95h87v-119h-94c-79 0 -122 -45 -122 -130v-251h-133zM191 551l65 150h152l-120 -150h-97z" />
    <glyph glyph-name="rcaron" unicode="&#x159;" horiz-adv-x="441" 
d="M71 0v500h128v-95c23 65 61 95 134 95h87v-119h-94c-79 0 -122 -45 -122 -130v-251h-133zM176 551l-155 150h112l107 -70l105 70h112l-156 -150h-125z" />
    <glyph glyph-name="uni0157" unicode="&#x157;" horiz-adv-x="441" 
d="M71 0v500h128v-95c23 65 61 95 134 95h87v-119h-94c-79 0 -122 -45 -122 -130v-251h-133zM43 -309v75h33c36 0 52 15 52 39v1h-60v132h140v-132c0 -67 -52 -115 -127 -115h-38z" />
    <glyph glyph-name="s" unicode="s" horiz-adv-x="574" 
d="M33 165h135c4 -45 48 -68 109 -68h14c67 0 100 14 100 41c0 21 -18 33 -73 44l-83 16c-119 24 -178 67 -178 156c0 99 99 156 227 156c160 0 243 -66 251 -175h-135c-4 40 -44 68 -109 68h-14c-55 0 -86 -15 -86 -39c0 -20 14 -31 74 -43l78 -15
c119 -21 182 -69 182 -161c0 -94 -83 -155 -241 -155c-156 0 -245 68 -251 175z" />
    <glyph glyph-name="sacute" unicode="&#x15b;" horiz-adv-x="574" 
d="M33 165h135c4 -45 48 -68 109 -68h14c67 0 100 14 100 41c0 21 -18 33 -73 44l-83 16c-119 24 -178 67 -178 156c0 99 99 156 227 156c160 0 243 -66 251 -175h-135c-4 40 -44 68 -109 68h-14c-55 0 -86 -15 -86 -39c0 -20 14 -31 74 -43l78 -15
c119 -21 182 -69 182 -161c0 -94 -83 -155 -241 -155c-156 0 -245 68 -251 175zM236 551l65 150h152l-120 -150h-97z" />
    <glyph glyph-name="scaron" unicode="&#x161;" horiz-adv-x="574" 
d="M33 165h135c4 -45 48 -68 109 -68h14c67 0 100 14 100 41c0 21 -18 33 -73 44l-83 16c-119 24 -178 67 -178 156c0 99 99 156 227 156c160 0 243 -66 251 -175h-135c-4 40 -44 68 -109 68h-14c-55 0 -86 -15 -86 -39c0 -20 14 -31 74 -43l78 -15
c119 -21 182 -69 182 -161c0 -94 -83 -155 -241 -155c-156 0 -245 68 -251 175zM221 551l-155 150h112l107 -70l105 70h112l-156 -150h-125z" />
    <glyph glyph-name="scedilla" unicode="&#x15f;" horiz-adv-x="574" 
d="M33 165h135c4 -45 48 -68 109 -68h14c67 0 100 14 100 41c0 21 -18 33 -73 44l-83 16c-119 24 -178 67 -178 156c0 99 99 156 227 156c160 0 243 -66 251 -175h-135c-4 40 -44 68 -109 68h-14c-55 0 -86 -15 -86 -39c0 -20 14 -31 74 -43l78 -15
c119 -21 182 -69 182 -161c0 -94 -83 -155 -241 -155c-156 0 -245 68 -251 175zM198 -245v75h97c25 0 43 10 43 30c0 16 -14 30 -38 30h-57v125h72v-60c52 0 98 -32 98 -95c0 -65 -53 -105 -123 -105h-92z" />
    <glyph glyph-name="scircumflex" unicode="&#x15d;" horiz-adv-x="574" 
d="M33 165h135c4 -45 48 -68 109 -68h14c67 0 100 14 100 41c0 21 -18 33 -73 44l-83 16c-119 24 -178 67 -178 156c0 99 99 156 227 156c160 0 243 -66 251 -175h-135c-4 40 -44 68 -109 68h-14c-55 0 -86 -15 -86 -39c0 -20 14 -31 74 -43l78 -15
c119 -21 182 -69 182 -161c0 -94 -83 -155 -241 -155c-156 0 -245 68 -251 175zM66 551l155 150h125l156 -150h-112l-105 70l-107 -70h-112z" />
    <glyph glyph-name="uni0219" unicode="&#x219;" horiz-adv-x="574" 
d="M33 165h135c4 -45 48 -68 109 -68h14c67 0 100 14 100 41c0 21 -18 33 -73 44l-83 16c-119 24 -178 67 -178 156c0 99 99 156 227 156c160 0 243 -66 251 -175h-135c-4 40 -44 68 -109 68h-14c-55 0 -86 -15 -86 -39c0 -20 14 -31 74 -43l78 -15
c119 -21 182 -69 182 -161c0 -94 -83 -155 -241 -155c-156 0 -245 68 -251 175zM184 -309v75h33c36 0 52 15 52 39v1h-60v132h140v-132c0 -67 -52 -115 -127 -115h-38z" />
    <glyph glyph-name="germandbls" unicode="&#xdf;" horiz-adv-x="632" 
d="M71 -185v667c0 129 95 228 254 228c160 0 242 -82 242 -181c0 -83 -57 -139 -106 -155c53 -14 130 -71 130 -169c0 -133 -105 -205 -244 -205h-91v112h77c77 0 124 37 124 100c0 60 -44 99 -117 99h-84v117h79c73 0 103 38 103 89c0 50 -41 86 -108 86h-10
c-71 0 -119 -44 -119 -127v-661h-130z" />
    <glyph glyph-name="t" unicode="t" horiz-adv-x="471" 
d="M135 110v283h-121v107h121v162h133v-162h154v-107h-154v-243c0 -31 11 -40 40 -40h136v-110h-181c-89 0 -128 38 -128 110z" />
    <glyph glyph-name="tbar" unicode="&#x167;" horiz-adv-x="483" 
d="M145 110v283h-121v107h121v162h133v-162h154v-107h-154v-243c0 -31 11 -40 40 -40h136v-110h-181c-89 0 -128 38 -128 110zM24 231v93h408v-93h-408z" />
    <glyph glyph-name="tcaron" unicode="&#x165;" horiz-adv-x="572" 
d="M135 110v283h-121v107h121v162h133v-162h154v-107h-154v-243c0 -31 11 -40 40 -40h136v-110h-181c-89 0 -128 38 -128 110zM466 453v75h33c36 0 52 15 52 39v1h-60v132h140v-132c0 -67 -52 -115 -127 -115h-38z" />
    <glyph glyph-name="uni0163" unicode="&#x163;" horiz-adv-x="471" 
d="M135 110v283h-121v107h121v162h133v-162h154v-107h-154v-243c0 -31 11 -40 40 -40h136v-110h-181c-89 0 -128 38 -128 110zM165 -245v75h97c25 0 43 10 43 30c0 16 -14 30 -38 30h-57v125h72v-60c52 0 98 -32 98 -95c0 -65 -53 -105 -123 -105h-92z" />
    <glyph glyph-name="uni021B" unicode="&#x21b;" horiz-adv-x="471" 
d="M135 110v283h-121v107h121v162h133v-162h154v-107h-154v-243c0 -31 11 -40 40 -40h136v-110h-181c-89 0 -128 38 -128 110zM151 -309v75h33c36 0 52 15 52 39v1h-60v132h140v-132c0 -67 -52 -115 -127 -115h-38z" />
    <glyph glyph-name="u" unicode="u" horiz-adv-x="652" 
d="M66 188v312h133v-289c0 -76 30 -114 97 -114h14c74 0 138 58 138 146v257h133v-500h-133v81c-28 -52 -94 -91 -174 -91c-137 0 -208 74 -208 198z" />
    <glyph glyph-name="uacute" unicode="&#xfa;" horiz-adv-x="652" 
d="M66 188v312h133v-289c0 -76 30 -114 97 -114h14c74 0 138 58 138 146v257h133v-500h-133v81c-28 -52 -94 -91 -174 -91c-137 0 -208 74 -208 198zM276 551l65 150h152l-120 -150h-97z" />
    <glyph glyph-name="ubreve" unicode="&#x16d;" horiz-adv-x="652" 
d="M66 188v312h133v-289c0 -76 30 -114 97 -114h14c74 0 138 58 138 146v257h133v-500h-133v81c-28 -52 -94 -91 -174 -91c-137 0 -208 74 -208 198zM135 707h112c3 -39 29 -59 77 -59c49 0 74 20 77 59h112c-2 -97 -79 -156 -189 -156s-187 59 -189 156z" />
    <glyph glyph-name="ucircumflex" unicode="&#xfb;" horiz-adv-x="652" 
d="M66 188v312h133v-289c0 -76 30 -114 97 -114h14c74 0 138 58 138 146v257h133v-500h-133v81c-28 -52 -94 -91 -174 -91c-137 0 -208 74 -208 198zM106 551l155 150h125l156 -150h-112l-105 70l-107 -70h-112z" />
    <glyph glyph-name="udieresis" unicode="&#xfc;" horiz-adv-x="652" 
d="M66 188v312h133v-289c0 -76 30 -114 97 -114h14c74 0 138 58 138 146v257h133v-500h-133v81c-28 -52 -94 -91 -174 -91c-137 0 -208 74 -208 198zM144 564v131h132v-131h-132zM371 564v131h132v-131h-132z" />
    <glyph glyph-name="uni1EE5" unicode="&#x1ee5;" horiz-adv-x="652" 
d="M66 188v312h133v-289c0 -76 30 -114 97 -114h14c74 0 138 58 138 146v257h133v-500h-133v81c-28 -52 -94 -91 -174 -91c-137 0 -208 74 -208 198zM253 -195v130h146v-130h-146z" />
    <glyph glyph-name="ugrave" unicode="&#xf9;" horiz-adv-x="652" 
d="M66 188v312h133v-289c0 -76 30 -114 97 -114h14c74 0 138 58 138 146v257h133v-500h-133v81c-28 -52 -94 -91 -174 -91c-137 0 -208 74 -208 198zM278 551l-120 150h152l65 -150h-97z" />
    <glyph glyph-name="uhungarumlaut" unicode="&#x171;" horiz-adv-x="652" 
d="M66 188v312h133v-289c0 -76 30 -114 97 -114h14c74 0 138 58 138 146v257h133v-500h-133v81c-28 -52 -94 -91 -174 -91c-137 0 -208 74 -208 198zM178 551l65 150h152l-120 -150h-97zM369 551l65 150h152l-120 -150h-97z" />
    <glyph glyph-name="umacron" unicode="&#x16b;" horiz-adv-x="652" 
d="M66 188v312h133v-289c0 -76 30 -114 97 -114h14c74 0 138 58 138 146v257h133v-500h-133v81c-28 -52 -94 -91 -174 -91c-137 0 -208 74 -208 198zM146 565v105h355v-105h-355z" />
    <glyph glyph-name="uogonek" unicode="&#x173;" horiz-adv-x="652" 
d="M66 188v312h133v-289c0 -76 30 -114 97 -114h14c74 0 138 58 138 146v257h133v-500h-133v81c-28 -52 -94 -91 -174 -91c-137 0 -208 74 -208 198zM406 -120c0 65 51 110 110 135l65 -15c-49 -28 -85 -54 -85 -90c0 -32 27 -50 55 -50h45v-80h-65c-70 0 -125 43 -125 100z
" />
    <glyph glyph-name="uring" unicode="&#x16f;" horiz-adv-x="652" 
d="M66 188v312h133v-289c0 -76 30 -114 97 -114h14c74 0 138 58 138 146v257h133v-500h-133v81c-28 -52 -94 -91 -174 -91c-137 0 -208 74 -208 198zM195 664c0 58 54 113 129 113s129 -55 129 -113c0 -64 -53 -113 -129 -113c-75 0 -129 49 -129 113zM376 664
c0 24 -22 43 -51 43c-28 0 -52 -20 -52 -43s24 -43 52 -43c29 0 51 19 51 43z" />
    <glyph glyph-name="utilde" unicode="&#x169;" horiz-adv-x="652" 
d="M66 188v312h133v-289c0 -76 30 -114 97 -114h14c74 0 138 58 138 146v257h133v-500h-133v81c-28 -52 -94 -91 -174 -91c-137 0 -208 74 -208 198zM332 575l-36 14l-15 6c-17 8 -25 10 -38 10c-21 0 -33 -19 -33 -44h-96v28c0 62 53 116 115 116c29 0 45 -4 70 -15l15 -6
l34 -13c4 -1 10 -4 19 -8c21 -9 30 -12 39 -12c21 0 32 19 32 44h96v-28c0 -64 -37 -116 -109 -116c-25 0 -48 7 -93 24z" />
    <glyph glyph-name="v" unicode="v" horiz-adv-x="606" 
d="M462 500h140l-230 -500h-138l-228 500h143l155 -349z" />
    <glyph glyph-name="w" unicode="w" horiz-adv-x="890" 
d="M743 500h138l-182 -500h-138l-116 336l-117 -336h-137l-182 500h138l115 -330l111 330h143l116 -336z" />
    <glyph glyph-name="wacute" unicode="&#x1e83;" horiz-adv-x="890" 
d="M743 500h138l-182 -500h-138l-116 336l-117 -336h-137l-182 500h138l115 -330l111 330h143l116 -336zM397 551l65 150h152l-120 -150h-97z" />
    <glyph glyph-name="wcircumflex" unicode="&#x175;" horiz-adv-x="890" 
d="M743 500h138l-182 -500h-138l-116 336l-117 -336h-137l-182 500h138l115 -330l111 330h143l116 -336zM227 551l155 150h125l156 -150h-112l-105 70l-107 -70h-112z" />
    <glyph glyph-name="wdieresis" unicode="&#x1e85;" horiz-adv-x="890" 
d="M743 500h138l-182 -500h-138l-116 336l-117 -336h-137l-182 500h138l115 -330l111 330h143l116 -336zM265 564v131h132v-131h-132zM492 564v131h132v-131h-132z" />
    <glyph glyph-name="wgrave" unicode="&#x1e81;" horiz-adv-x="890" 
d="M743 500h138l-182 -500h-138l-116 336l-117 -336h-137l-182 500h138l115 -330l111 330h143l116 -336zM399 551l-120 150h152l65 -150h-97z" />
    <glyph glyph-name="x" unicode="x" horiz-adv-x="589" 
d="M578 0h-161l-124 154l-125 -154h-157l204 252l-199 248h161l119 -148l120 148h157l-199 -246z" />
    <glyph glyph-name="y" unicode="y" horiz-adv-x="625" 
d="M38 -202v114h176c31 0 40 9 40 40v85l-242 463h146l165 -320l154 320h146l-236 -462v-118c0 -85 -39 -122 -122 -122h-227z" />
    <glyph glyph-name="yacute" unicode="&#xfd;" horiz-adv-x="625" 
d="M38 -202v114h176c31 0 40 9 40 40v85l-242 463h146l165 -320l154 320h146l-236 -462v-118c0 -85 -39 -122 -122 -122h-227zM270 551l65 150h152l-120 -150h-97z" />
    <glyph glyph-name="ycircumflex" unicode="&#x177;" horiz-adv-x="625" 
d="M38 -202v114h176c31 0 40 9 40 40v85l-242 463h146l165 -320l154 320h146l-236 -462v-118c0 -85 -39 -122 -122 -122h-227zM100 551l155 150h125l156 -150h-112l-105 70l-107 -70h-112z" />
    <glyph glyph-name="ydieresis" unicode="&#xff;" horiz-adv-x="625" 
d="M38 -202v114h176c31 0 40 9 40 40v85l-242 463h146l165 -320l154 320h146l-236 -462v-118c0 -85 -39 -122 -122 -122h-227zM138 564v131h132v-131h-132zM365 564v131h132v-131h-132z" />
    <glyph glyph-name="ygrave" unicode="&#x1ef3;" horiz-adv-x="625" 
d="M38 -202v114h176c31 0 40 9 40 40v85l-242 463h146l165 -320l154 320h146l-236 -462v-118c0 -85 -39 -122 -122 -122h-227zM272 551l-120 150h152l65 -150h-97z" />
    <glyph glyph-name="uni0233" unicode="&#x233;" horiz-adv-x="625" 
d="M38 -202v114h176c31 0 40 9 40 40v85l-242 463h146l165 -320l154 320h146l-236 -462v-118c0 -85 -39 -122 -122 -122h-227zM140 565v105h355v-105h-355z" />
    <glyph glyph-name="z" unicode="z" horiz-adv-x="583" 
d="M43 0v110l301 273h-296v117h481v-110l-301 -273h316v-117h-501z" />
    <glyph glyph-name="zacute" unicode="&#x17a;" horiz-adv-x="583" 
d="M43 0v110l301 273h-296v117h481v-110l-301 -273h316v-117h-501zM241 551l65 150h152l-120 -150h-97z" />
    <glyph glyph-name="zcaron" unicode="&#x17e;" horiz-adv-x="583" 
d="M43 0v110l301 273h-296v117h481v-110l-301 -273h316v-117h-501zM226 551l-155 150h112l107 -70l105 70h112l-156 -150h-125z" />
    <glyph glyph-name="zdotaccent" unicode="&#x17c;" horiz-adv-x="583" 
d="M43 0v110l301 273h-296v117h481v-110l-301 -273h316v-117h-501zM217 561v139h143v-139h-143z" />
    <glyph glyph-name="a.salt" horiz-adv-x="693" 
d="M41 250c0 167 114 260 260 260c89 0 153 -31 188 -76v66h133v-500h-133v63c-36 -45 -103 -73 -186 -73c-147 0 -262 101 -262 260zM321 97h14c88 0 154 56 154 153s-66 153 -154 153h-14c-86 0 -146 -56 -146 -153s60 -153 146 -153z" />
    <glyph glyph-name="aacute.salt" horiz-adv-x="693" 
d="M41 250c0 167 114 260 260 260c89 0 153 -31 188 -76v66h133v-500h-133v63c-36 -45 -103 -73 -186 -73c-147 0 -262 101 -262 260zM321 97h14c88 0 154 56 154 153s-66 153 -154 153h-14c-86 0 -146 -56 -146 -153s60 -153 146 -153zM287 551l65 150h152l-120 -150h-97z
" />
    <glyph glyph-name="abreve.salt" horiz-adv-x="693" 
d="M41 250c0 167 114 260 260 260c89 0 153 -31 188 -76v66h133v-500h-133v63c-36 -45 -103 -73 -186 -73c-147 0 -262 101 -262 260zM321 97h14c88 0 154 56 154 153s-66 153 -154 153h-14c-86 0 -146 -56 -146 -153s60 -153 146 -153zM146 707h112c3 -39 29 -59 77 -59
c49 0 74 20 77 59h112c-2 -97 -79 -156 -189 -156s-187 59 -189 156z" />
    <glyph glyph-name="acircumflex.salt" horiz-adv-x="693" 
d="M41 250c0 167 114 260 260 260c89 0 153 -31 188 -76v66h133v-500h-133v63c-36 -45 -103 -73 -186 -73c-147 0 -262 101 -262 260zM321 97h14c88 0 154 56 154 153s-66 153 -154 153h-14c-86 0 -146 -56 -146 -153s60 -153 146 -153zM117 551l155 150h125l156 -150h-112
l-105 70l-107 -70h-112z" />
    <glyph glyph-name="adieresis.salt" horiz-adv-x="693" 
d="M41 250c0 167 114 260 260 260c89 0 153 -31 188 -76v66h133v-500h-133v63c-36 -45 -103 -73 -186 -73c-147 0 -262 101 -262 260zM321 97h14c88 0 154 56 154 153s-66 153 -154 153h-14c-86 0 -146 -56 -146 -153s60 -153 146 -153zM155 564v131h132v-131h-132zM382 564
v131h132v-131h-132z" />
    <glyph glyph-name="uni0227.salt" horiz-adv-x="693" 
d="M41 250c0 167 114 260 260 260c89 0 153 -31 188 -76v66h133v-500h-133v63c-36 -45 -103 -73 -186 -73c-147 0 -262 101 -262 260zM321 97h14c88 0 154 56 154 153s-66 153 -154 153h-14c-86 0 -146 -56 -146 -153s60 -153 146 -153zM263 561v139h143v-139h-143z" />
    <glyph glyph-name="uni1EA1.salt" horiz-adv-x="693" 
d="M41 250c0 167 114 260 260 260c89 0 153 -31 188 -76v66h133v-500h-133v63c-36 -45 -103 -73 -186 -73c-147 0 -262 101 -262 260zM321 97h14c88 0 154 56 154 153s-66 153 -154 153h-14c-86 0 -146 -56 -146 -153s60 -153 146 -153zM262 -195v130h146v-130h-146z" />
    <glyph glyph-name="agrave.salt" horiz-adv-x="693" 
d="M41 250c0 167 114 260 260 260c89 0 153 -31 188 -76v66h133v-500h-133v63c-36 -45 -103 -73 -186 -73c-147 0 -262 101 -262 260zM321 97h14c88 0 154 56 154 153s-66 153 -154 153h-14c-86 0 -146 -56 -146 -153s60 -153 146 -153zM289 551l-120 150h152l65 -150h-97z
" />
    <glyph glyph-name="amacron.salt" horiz-adv-x="693" 
d="M41 250c0 167 114 260 260 260c89 0 153 -31 188 -76v66h133v-500h-133v63c-36 -45 -103 -73 -186 -73c-147 0 -262 101 -262 260zM321 97h14c88 0 154 56 154 153s-66 153 -154 153h-14c-86 0 -146 -56 -146 -153s60 -153 146 -153zM157 565v105h355v-105h-355z" />
    <glyph glyph-name="aogonek.salt" horiz-adv-x="693" 
d="M41 250c0 167 114 260 260 260c89 0 153 -31 188 -76v66h133v-500h-133v63c-36 -45 -103 -73 -186 -73c-147 0 -262 101 -262 260zM321 97h14c88 0 154 56 154 153s-66 153 -154 153h-14c-86 0 -146 -56 -146 -153s60 -153 146 -153zM447 -120c0 65 51 110 110 135
l65 -15c-49 -28 -85 -54 -85 -90c0 -32 27 -50 55 -50h45v-80h-65c-70 0 -125 43 -125 100z" />
    <glyph glyph-name="aring.salt" horiz-adv-x="693" 
d="M41 250c0 167 114 260 260 260c89 0 153 -31 188 -76v66h133v-500h-133v63c-36 -45 -103 -73 -186 -73c-147 0 -262 101 -262 260zM321 97h14c88 0 154 56 154 153s-66 153 -154 153h-14c-86 0 -146 -56 -146 -153s60 -153 146 -153zM206 664c0 58 54 113 129 113
s129 -55 129 -113c0 -64 -53 -113 -129 -113c-75 0 -129 49 -129 113zM387 664c0 24 -22 43 -51 43c-28 0 -52 -20 -52 -43s24 -43 52 -43c29 0 51 19 51 43z" />
    <glyph glyph-name="aringacute.salt" horiz-adv-x="693" 
d="M41 250c0 167 114 260 260 260c89 0 153 -31 188 -76v66h133v-500h-133v63c-36 -45 -103 -73 -186 -73c-147 0 -262 101 -262 260zM321 97h14c88 0 154 56 154 153s-66 153 -154 153h-14c-86 0 -146 -56 -146 -153s60 -153 146 -153zM298 805l35 131h150l-106 -131h-79z
M205 664c0 58 54 113 129 113s129 -55 129 -113c0 -64 -52 -113 -129 -113s-129 49 -129 113zM386 664c0 24 -23 43 -51 43s-52 -20 -52 -43s24 -43 52 -43s51 19 51 43z" />
    <glyph glyph-name="atilde.salt" horiz-adv-x="693" 
d="M41 250c0 167 114 260 260 260c89 0 153 -31 188 -76v66h133v-500h-133v63c-36 -45 -103 -73 -186 -73c-147 0 -262 101 -262 260zM321 97h14c88 0 154 56 154 153s-66 153 -154 153h-14c-86 0 -146 -56 -146 -153s60 -153 146 -153zM343 575l-36 14l-15 6
c-17 8 -25 10 -38 10c-21 0 -33 -19 -33 -44h-96v28c0 62 53 116 115 116c29 0 45 -4 70 -15l15 -6l34 -13c4 -1 10 -4 19 -8c21 -9 30 -12 39 -12c21 0 32 19 32 44h96v-28c0 -64 -37 -116 -109 -116c-25 0 -48 7 -93 24z" />
    <glyph glyph-name="y.ss03" horiz-adv-x="630" 
d="M481 500h146l-270 -567c-59 -119 -77 -132 -183 -135h-156v114h135c35 0 50 4 72 50l22 46l-246 492h150l168 -341z" />
    <glyph glyph-name="yacute.ss03" horiz-adv-x="630" 
d="M481 500h146l-270 -567c-59 -119 -77 -132 -183 -135h-156v114h135c35 0 50 4 72 50l22 46l-246 492h150l168 -341zM267 551l65 150h152l-120 -150h-97z" />
    <glyph glyph-name="ycircumflex.ss03" horiz-adv-x="630" 
d="M481 500h146l-270 -567c-59 -119 -77 -132 -183 -135h-156v114h135c35 0 50 4 72 50l22 46l-246 492h150l168 -341zM97 551l155 150h125l156 -150h-112l-105 70l-107 -70h-112z" />
    <glyph glyph-name="ydieresis.ss03" horiz-adv-x="630" 
d="M481 500h146l-270 -567c-59 -119 -77 -132 -183 -135h-156v114h135c35 0 50 4 72 50l22 46l-246 492h150l168 -341zM135 564v131h132v-131h-132zM362 564v131h132v-131h-132z" />
    <glyph glyph-name="ygrave.ss03" horiz-adv-x="630" 
d="M481 500h146l-270 -567c-59 -119 -77 -132 -183 -135h-156v114h135c35 0 50 4 72 50l22 46l-246 492h150l168 -341zM269 551l-120 150h152l65 -150h-97z" />
    <glyph glyph-name="uni0233.ss03" horiz-adv-x="630" 
d="M481 500h146l-270 -567c-59 -119 -77 -132 -183 -135h-156v114h135c35 0 50 4 72 50l22 46l-246 492h150l168 -341zM137 565v105h355v-105h-355z" />
    <glyph glyph-name="I_S_B_N" horiz-adv-x="2563" 
d="M2479 426v-426h-138v418c0 111 -62 170 -177 170h-16c-112 0 -172 -59 -172 -170v-418h-138v426c0 178 106 284 318 284c209 0 323 -107 323 -284zM1719 190c0 -115 -96 -190 -222 -190h-424v416h386c69 0 104 28 104 84c0 48 -37 78 -104 78h-853
c-96 0 -130 -26 -130 -69c0 -47 32 -66 116 -80l112 -18c167 -27 250 -96 250 -211c0 -133 -85 -200 -254 -200h-610v700h138v-578h467c91 0 120 25 120 70c0 47 -34 70 -133 86l-109 18c-176 30 -236 84 -236 217c0 98 70 187 259 187h879c128 0 227 -72 227 -185
c0 -77 -50 -137 -111 -159c73 -16 128 -78 128 -166zM1580 209c0 52 -41 85 -112 85h-257v-172h257c73 0 112 28 112 87z" />
    <glyph glyph-name="w_w_w" horiz-adv-x="2368" 
d="M2232 500h138l-182 -500h-138l-116 336l-117 -336h-137l-121 333l-121 -333h-138l-116 336l-117 -336h-137l-121 333l-121 -333h-138l-116 336l-117 -336h-137l-182 500h138l114 -329l112 329h143l116 -336l111 336h154l114 -329l112 329h143l116 -336l111 336h154
l114 -329l112 329h143l116 -336z" />
    <glyph glyph-name="ordfeminine" unicode="&#xaa;" horiz-adv-x="419" 
d="M51 494c0 49 38 83 103 88l100 10v8c0 21 -18 33 -47 33h-4c-27 0 -44 -6 -49 -22h-93c3 57 55 94 146 94c89 0 143 -39 143 -116v-111c0 -24 1 -45 4 -63h-89c-1 6 -3 18 -4 36c-23 -25 -61 -41 -109 -41c-54 0 -101 32 -101 84zM179 482h4c41 0 73 18 73 49v8l-78 -9
c-16 -3 -31 -12 -31 -24c0 -15 13 -24 32 -24z" />
    <glyph glyph-name="ordmasculine" unicode="&#xba;" horiz-adv-x="428" 
d="M45 557c0 84 66 148 169 148s169 -64 169 -148c0 -82 -66 -147 -169 -147s-169 65 -169 147zM212 490h4c40 0 65 24 65 67s-25 68 -65 68h-4c-40 0 -65 -25 -65 -68s25 -67 65 -67z" />
    <glyph glyph-name="a.sups_salt" horiz-adv-x="429" 
d="M31 558c0 92 70 147 147 147c42 0 76 -12 101 -36v31h99v-285h-102v37c-20 -23 -55 -42 -100 -42c-75 0 -145 56 -145 148zM200 490h7c44 0 72 26 72 67s-28 69 -72 69h-7c-40 0 -67 -26 -67 -69c0 -41 27 -67 67 -67z" />
    <glyph glyph-name="y.sups_ss03" horiz-adv-x="385" 
d="M14 300v80h88c38 0 32 12 37 22l10 21l-150 277h109l91 -170l80 170h105l-162 -343c-20 -41 -48 -57 -88 -57h-120z" />
    <glyph glyph-name="a.sups" horiz-adv-x="377" 
d="M30 494c0 49 38 83 103 88l100 10v8c0 21 -18 33 -47 33h-4c-27 0 -44 -6 -49 -22h-93c3 57 55 94 146 94c89 0 143 -39 143 -116v-111c0 -24 1 -45 4 -63h-89c-1 6 -3 18 -4 36c-23 -25 -61 -41 -109 -41c-54 0 -101 32 -101 84zM158 482h4c41 0 73 18 73 49v8l-78 -9
c-16 -3 -31 -12 -31 -24c0 -15 13 -24 32 -24z" />
    <glyph glyph-name="b.sups" horiz-adv-x="429" 
d="M153 450v-35h-102v395h99v-145c21 23 55 40 104 40c78 0 144 -55 144 -148c0 -94 -66 -147 -144 -147c-43 0 -77 13 -101 40zM222 490h6c39 0 68 26 68 67c0 40 -31 68 -68 68h-6c-44 0 -72 -28 -72 -68c0 -41 28 -67 72 -67z" />
    <glyph glyph-name="c.sups" horiz-adv-x="382" 
d="M31 557c0 97 72 148 170 148c96 0 141 -48 152 -113h-101c-8 20 -23 33 -54 33h-4c-43 0 -61 -29 -61 -68s18 -67 61 -67h4c31 0 47 10 54 30h101c-12 -64 -56 -110 -152 -110c-99 0 -170 50 -170 147z" />
    <glyph glyph-name="d.sups" horiz-adv-x="429" 
d="M31 557c0 93 65 148 144 148c48 0 84 -17 104 -40v145h99v-395h-102v35c-24 -27 -58 -40 -101 -40c-79 0 -144 55 -144 147zM205 490h6c39 0 68 26 68 67c0 40 -31 68 -68 68h-6c-44 0 -72 -28 -72 -68c0 -41 28 -67 72 -67z" />
    <glyph glyph-name="e.sups" horiz-adv-x="385" 
d="M30 555c0 88 66 150 163 150s160 -63 160 -156v-14h-227c4 -33 28 -52 68 -52h4c32 0 54 10 59 25h95c-6 -55 -69 -98 -156 -98c-96 0 -166 58 -166 145zM126 587h130c-3 29 -25 44 -61 44h-4c-36 0 -61 -15 -65 -44z" />
    <glyph glyph-name="f.sups" horiz-adv-x="289" 
d="M80 415v203h-61v82h61v21c0 60 29 89 89 89h120v-75h-85c-16 0 -22 -8 -22 -27v-8h92v-82h-92v-203h-102z" />
    <glyph glyph-name="g.sups" horiz-adv-x="418" 
d="M35 387h102c7 -17 27 -27 54 -27h6c49 0 74 21 74 58v45c-17 -27 -49 -44 -100 -44c-82 0 -140 56 -140 143s55 143 134 143c47 0 81 -16 100 -47v42h102v-279c0 -72 -57 -136 -175 -136c-85 0 -148 34 -157 102zM194 497h7c40 0 64 25 64 66c0 40 -25 64 -64 64h-7
c-39 0 -61 -23 -61 -64s22 -66 61 -66z" />
    <glyph glyph-name="h.sups" horiz-adv-x="421" 
d="M51 415v395h102v-150c20 32 61 45 101 45c83 0 120 -53 120 -136v-154h-102v150c0 39 -20 61 -52 61h-4c-36 0 -63 -27 -63 -68v-143h-102z" />
    <glyph glyph-name="i.sups" horiz-adv-x="204" 
d="M48 735v75h108v-75h-108zM51 415v285h102v-285h-102z" />
    <glyph glyph-name="j.sups" horiz-adv-x="206" 
d="M49 735v75h108v-75h-108zM-67 300v80h79c35 0 40 5 40 40v280h102v-313c0 -60 -29 -87 -89 -87h-132z" />
    <glyph glyph-name="k.sups" horiz-adv-x="408" 
d="M51 415v395h100v-208l111 98h125l-129 -116l135 -169h-129l-79 103l-34 -31v-72h-100z" />
    <glyph glyph-name="l.sups" horiz-adv-x="204" 
d="M51 415v395h102v-395h-102z" />
    <glyph glyph-name="m.sups" horiz-adv-x="612" 
d="M51 415v285h102v-38c21 29 53 43 98 43c43 0 77 -17 96 -50c21 33 60 50 109 50c70 0 109 -47 109 -113v-177h-102v156c0 35 -19 54 -46 54h-4c-31 0 -54 -26 -54 -55v-155h-102v156c0 35 -19 54 -46 54h-4c-31 0 -54 -26 -54 -55v-155h-102z" />
    <glyph glyph-name="n.sups" horiz-adv-x="421" 
d="M51 415v285h102v-40c20 32 61 45 101 45c83 0 120 -53 120 -136v-154h-102v150c0 39 -20 61 -52 61h-4c-36 0 -63 -27 -63 -68v-143h-102z" />
    <glyph glyph-name="o.sups" horiz-adv-x="398" 
d="M30 557c0 84 66 148 169 148s169 -64 169 -148c0 -82 -66 -147 -169 -147s-169 65 -169 147zM197 490h4c40 0 65 24 65 67s-25 68 -65 68h-4c-40 0 -65 -25 -65 -68s25 -67 65 -67z" />
    <glyph glyph-name="p.sups" horiz-adv-x="430" 
d="M52 305v395h102v-35c24 27 58 40 101 40c78 0 144 -55 144 -147c0 -93 -66 -148 -144 -148c-49 0 -83 17 -104 40v-145h-99zM224 490h5c39 0 68 29 68 68s-29 67 -68 67h-5c-41 0 -73 -30 -73 -67c0 -39 30 -68 73 -68z" />
    <glyph glyph-name="q.sups" horiz-adv-x="430" 
d="M279 305v145c-20 -23 -56 -40 -104 -40c-79 0 -144 55 -144 148c0 92 65 147 144 147c43 0 77 -13 101 -40v35h102v-395h-99zM201 490h5c41 0 73 29 73 68s-32 67 -73 67h-5c-39 0 -68 -28 -68 -67s29 -68 68 -68z" />
    <glyph glyph-name="r.sups" horiz-adv-x="293" 
d="M51 415v285h105v-53c11 35 34 55 82 55h38v-86h-64c-44 0 -59 -29 -59 -70v-131h-102z" />
    <glyph glyph-name="s.sups" horiz-adv-x="370" 
d="M28 511h101c1 -20 20 -34 55 -34h4c27 0 45 7 45 20c0 12 -11 18 -36 23l-67 14c-56 12 -91 34 -91 79c0 61 64 92 145 92c97 0 148 -33 155 -99h-99c-1 21 -20 32 -53 32h-5c-24 0 -42 -6 -42 -18c0 -9 11 -16 34 -20l72 -16c59 -13 88 -36 88 -84
c0 -63 -62 -90 -147 -90c-101 0 -152 32 -159 101z" />
    <glyph glyph-name="t.sups" horiz-adv-x="311" 
d="M83 504v114h-66v82h66v90h102v-90h84v-82h-84v-80c0 -35 5 -39 40 -39h53v-84h-106c-60 0 -89 29 -89 89z" />
    <glyph glyph-name="u.sups" horiz-adv-x="421" 
d="M47 543v157h102v-153c0 -39 19 -58 52 -58h4c36 0 63 24 63 65v146h102v-285h-102v40c-21 -32 -60 -45 -101 -45c-84 0 -120 50 -120 133z" />
    <glyph glyph-name="v.sups" horiz-adv-x="393" 
d="M131 415l-126 285h107l87 -197l88 197h101l-126 -285h-131z" />
    <glyph glyph-name="w.sups" horiz-adv-x="526" 
d="M123 415l-106 285h100l50 -152l55 152h94l53 -152l48 152h91l-105 -285h-79l-59 162l-53 -162h-89z" />
    <glyph glyph-name="x.sups" horiz-adv-x="389" 
d="M19 415l121 143l-120 142h109l66 -78l66 78h108l-120 -142l121 -143h-109l-67 79l-67 -79h-108z" />
    <glyph glyph-name="y.sups" horiz-adv-x="391" 
d="M36 300v80h84c28 0 36 7 36 28v20l-159 272h115l87 -162l87 162h108l-145 -248v-70c0 -57 -25 -82 -82 -82h-131z" />
    <glyph glyph-name="z.sups" horiz-adv-x="379" 
d="M37 415v65l151 138h-148v82h294v-67l-150 -136h159v-82h-306z" />
    <glyph glyph-name="uni0394" unicode="&#x394;" horiz-adv-x="803" 
d="M476 700l305 -610v-90h-759v90l305 610h149zM402 571l-231 -454h461z" />
    <glyph glyph-name="uni03A9" unicode="&#x3a9;" horiz-adv-x="915" 
d="M68 0v117h123c-81 60 -128 138 -128 253c-3 195 173 343 395 340c223 3 399 -145 395 -340c0 -116 -49 -193 -133 -253h128v-117h-310v117c106 26 178 112 178 237c0 147 -98 234 -253 234h-10c-154 0 -253 -87 -253 -234c0 -125 75 -211 178 -237v-117h-310z" />
    <glyph glyph-name="uni03BC" unicode="&#x3bc;" horiz-adv-x="657" 
d="M71 -200v700h130v-287c0 -82 50 -118 109 -118h8c93 0 138 52 138 145v260h130v-500h-130v67c-39 -51 -96 -77 -171 -77c-29 0 -57 4 -84 11v-201h-130z" />
    <glyph glyph-name="pi" unicode="&#x3c0;" horiz-adv-x="819" 
d="M146 0v393h-130v107h756v-107h-131v-246c0 -29 11 -40 40 -40h91v-107h-138c-72 0 -126 37 -126 105v288h-229v-393h-133z" />
    <glyph glyph-name="zero" unicode="0" horiz-adv-x="767" 
d="M54 350c0 238 143 360 329 360c187 0 330 -122 330 -360c0 -239 -143 -360 -330 -360c-188 0 -329 121 -329 360zM376 107h14c90 0 186 62 186 243s-96 243 -186 243h-14c-88 0 -185 -62 -185 -243s97 -243 185 -243z" />
    <glyph glyph-name="one" unicode="1" horiz-adv-x="445" 
d="M239 700h113v-700h-133v537l-185 -159v146z" />
    <glyph glyph-name="two" unicode="2" horiz-adv-x="680" 
d="M197 122h426v-122h-566v178l295 184c94 59 129 92 129 142c0 53 -53 89 -132 89h-14c-80 0 -127 -50 -131 -112h-140c4 137 117 229 278 229s276 -75 276 -199c-3 -109 -65 -167 -196 -249z" />
    <glyph glyph-name="three" unicode="3" horiz-adv-x="694" 
d="M47 193h140c9 -55 71 -86 148 -86h14c88 0 149 37 149 95c0 53 -55 90 -142 90h-100v117h100c88 0 137 37 137 94c0 52 -56 90 -144 90h-14c-73 0 -127 -38 -135 -88h-140c4 116 117 205 284 205c174 0 286 -77 286 -191c0 -85 -54 -137 -123 -165
c67 -20 128 -76 128 -159c0 -126 -115 -205 -291 -205c-171 0 -291 80 -297 203z" />
    <glyph glyph-name="four" unicode="4" horiz-adv-x="729" 
d="M567 258h129v-116h-129v-142h-133v142h-402v133l379 425h156v-442zM171 258h263v294z" />
    <glyph glyph-name="five" unicode="5" horiz-adv-x="671" 
d="M619 222c0 -141 -113 -232 -289 -232c-164 0 -279 71 -295 205h140c15 -56 73 -88 146 -88h14c90 0 147 48 147 112c0 68 -59 115 -142 115h-14c-51 0 -104 -20 -129 -59h-140l88 425h456v-122h-353l-35 -165c40 25 91 38 144 38c162 0 262 -94 262 -229z" />
    <glyph glyph-name="six" unicode="6" horiz-adv-x="727" 
d="M665 236c0 -148 -123 -246 -301 -246c-196 0 -310 106 -310 327c-3 220 146 396 348 393c150 0 257 -73 275 -190h-140c-10 37 -55 73 -128 73h-14c-97 0 -173 -72 -203 -182c48 43 115 65 190 65c154 0 283 -86 283 -240zM527 231c0 85 -70 128 -154 128h-14
c-86 0 -159 -41 -159 -127c0 -77 72 -125 159 -125h14c83 0 154 48 154 124z" />
    <glyph glyph-name="seven" unicode="7" horiz-adv-x="643" 
d="M26 700h585v-130c-207 -101 -309 -273 -309 -550v-20h-137v29c0 249 104 439 264 549h-403v122z" />
    <glyph glyph-name="eight" unicode="8" horiz-adv-x="680" 
d="M77 180c0 80 60 142 124 160c-72 16 -148 77 -148 172c0 114 119 198 287 198c167 0 287 -81 287 -198c0 -94 -75 -156 -148 -172c64 -18 124 -80 124 -160c0 -114 -110 -190 -263 -190c-152 0 -263 76 -263 190zM333 402h14c88 0 143 39 143 97c0 60 -54 94 -143 94h-14
c-89 0 -143 -34 -143 -94c0 -58 56 -97 143 -97zM333 107h14c73 0 119 37 119 89c0 53 -46 89 -119 89h-14c-73 0 -119 -36 -119 -89c0 -52 46 -89 119 -89z" />
    <glyph glyph-name="nine" unicode="9" horiz-adv-x="727" 
d="M62 464c0 148 123 246 301 246c196 0 310 -106 310 -327c3 -220 -147 -396 -348 -393c-150 0 -257 73 -275 190h140c10 -37 55 -73 128 -73h14c97 0 173 72 203 182c-48 -43 -115 -65 -190 -65c-154 0 -283 86 -283 240zM200 469c0 -85 70 -128 154 -128h14
c86 0 159 41 159 127c0 77 -72 125 -159 125h-14c-83 0 -154 -48 -154 -124z" />
    <glyph glyph-name="uni24FF" unicode="&#x24ff;" horiz-adv-x="1036" 
d="M999 351c4 -221 -208 -394 -474 -390c-266 -4 -479 169 -475 390c-4 221 209 393 475 390c266 3 478 -169 474 -390zM336 354c0 -106 59 -201 189 -201c129 0 189 95 189 201s-60 204 -189 204c-130 0 -189 -98 -189 -204zM527 245h-4c-52 0 -79 40 -79 109
c0 72 27 112 79 112h4c51 0 79 -40 79 -112c0 -69 -28 -109 -79 -109z" />
    <glyph glyph-name="uni2776" unicode="&#x2776;" horiz-adv-x="1036" 
d="M999 351c4 -221 -208 -394 -474 -390c-266 -4 -479 169 -475 390c-4 221 209 393 475 390c266 3 478 -169 474 -390zM490 427v-269h105v395h-89l-155 -103v-112z" />
    <glyph glyph-name="uni2777" unicode="&#x2777;" horiz-adv-x="1036" 
d="M999 351c4 -221 -208 -394 -474 -390c-266 -4 -479 169 -475 390c-4 221 209 393 475 390c266 3 478 -169 474 -390zM359 243v-84h326v90l-174 -1l90 71c57 46 85 73 85 125c0 54 -61 115 -158 115c-95 0 -167 -51 -171 -131h107c1 24 24 43 53 43h4c32 0 52 -15 52 -36
c-3 -25 -16 -32 -47 -58z" />
    <glyph glyph-name="uni2778" unicode="&#x2778;" horiz-adv-x="1036" 
d="M999 351c4 -221 -208 -394 -474 -390c-266 -4 -479 169 -475 390c-4 221 209 393 475 390c266 3 478 -169 474 -390zM353 271c0 -74 76 -117 166 -117s171 40 171 112c0 43 -21 77 -66 93c42 14 63 43 63 87c0 70 -76 113 -163 113c-90 0 -164 -42 -164 -115h108
c3 16 25 28 53 28h5c35 0 53 -15 53 -36c0 -23 -19 -36 -55 -36h-52v-84h52c36 0 58 -13 58 -36s-23 -39 -59 -39h-5c-29 0 -57 13 -57 30h-108z" />
    <glyph glyph-name="uni2779" unicode="&#x2779;" horiz-adv-x="1036" 
d="M999 351c4 -221 -208 -394 -474 -390c-266 -4 -479 169 -475 390c-4 221 209 393 475 390c266 3 478 -169 474 -390zM526 220v-62h97v62h63v84h-63v249h-119l-194 -224v-109h216zM526 304h-125l125 137v-137z" />
    <glyph glyph-name="uni277A" unicode="&#x277a;" horiz-adv-x="1036" 
d="M999 351c4 -221 -208 -394 -474 -390c-266 -4 -479 169 -475 390c-4 221 209 393 475 390c266 3 478 -169 474 -390zM338 278c6 -76 78 -125 170 -125c106 0 175 54 175 141c0 82 -68 127 -140 127c-39 0 -60 -7 -83 -23l14 67h204v88h-282l-44 -235h108
c9 11 32 16 53 16h4c37 0 60 -18 60 -45s-26 -48 -62 -48h-4c-29 0 -53 16 -61 37h-112z" />
    <glyph glyph-name="uni277B" unicode="&#x277b;" horiz-adv-x="1036" 
d="M999 351c4 -221 -208 -394 -474 -390c-266 -4 -479 169 -475 390c-4 221 209 393 475 390c266 3 478 -169 474 -390zM332 336c0 -112 70 -183 181 -183c99 0 167 57 167 138c0 72 -63 124 -145 124c-45 0 -79 -13 -103 -40c6 51 41 95 90 95h6c28 0 47 -13 54 -32h104
c-6 70 -63 120 -159 120c-115 0 -195 -88 -195 -222zM512 241h-4c-36 0 -62 18 -62 45c0 24 29 44 62 44h4c36 0 62 -18 62 -43c0 -27 -26 -46 -62 -46z" />
    <glyph glyph-name="uni277C" unicode="&#x277c;" horiz-adv-x="1036" 
d="M999 351c4 -221 -208 -394 -474 -390c-266 -4 -479 169 -475 390c-4 221 209 393 475 390c266 3 478 -169 474 -390zM427 171v-13h113v18c0 126 31 200 150 299v78h-329v-90h210c-114 -98 -144 -171 -144 -292z" />
    <glyph glyph-name="uni277D" unicode="&#x277d;" horiz-adv-x="1036" 
d="M999 351c4 -221 -208 -394 -474 -390c-266 -4 -479 169 -475 390c-4 221 209 393 475 390c266 3 478 -169 474 -390zM361 261c0 -63 69 -108 164 -108s162 45 162 108c0 44 -28 78 -79 91c57 17 86 49 86 98c0 62 -76 108 -169 108s-170 -46 -170 -108
c0 -48 28 -81 85 -98c-51 -13 -79 -48 -79 -91zM527 396h-5c-37 0 -61 13 -61 37c0 23 24 37 61 37h5c36 0 61 -14 61 -37c0 -24 -25 -37 -61 -37zM527 241h-5c-33 0 -55 14 -55 35s22 36 55 36h5c32 0 54 -15 54 -36s-22 -35 -54 -35z" />
    <glyph glyph-name="uni277E" unicode="&#x277e;" horiz-adv-x="1036" 
d="M999 351c4 -221 -208 -394 -474 -390c-266 -4 -479 169 -475 390c-4 221 209 393 475 390c266 3 478 -169 474 -390zM353 273c6 -70 63 -119 159 -119c115 0 195 86 195 221c0 112 -70 184 -181 184c-99 0 -167 -60 -167 -138c0 -72 63 -124 145 -124c45 0 79 13 103 40
c-6 -52 -41 -95 -90 -95h-6c-29 0 -47 12 -54 31h-104zM531 382h-4c-36 0 -62 18 -62 43s26 46 62 46h4c36 0 62 -20 62 -45s-29 -44 -62 -44z" />
    <glyph glyph-name="uni24EA" unicode="&#x24ea;" horiz-adv-x="1049" 
d="M50 351c-4 221 209 393 475 390c266 3 478 -169 474 -390c4 -221 -208 -394 -474 -390c-266 -4 -479 169 -475 390zM903 351c4 171 -172 306 -378 303c-208 3 -382 -132 -379 -303c-3 -172 171 -306 379 -303c206 -3 382 131 378 303zM335 354c0 106 59 203 189 203
c129 0 189 -97 189 -203c0 -108 -60 -202 -189 -202c-130 0 -189 94 -189 202zM522 244h4c51 0 79 39 79 110s-28 111 -79 111h-4c-52 0 -79 -40 -79 -111s27 -110 79 -110z" />
    <glyph glyph-name="uni2460" unicode="&#x2460;" horiz-adv-x="1049" 
d="M50 351c-4 221 209 393 475 390c266 3 478 -169 474 -390c4 -221 -208 -394 -474 -390c-266 -4 -479 169 -475 390zM903 351c4 171 -172 306 -378 303c-208 3 -382 -132 -379 -303c-3 -172 171 -306 379 -303c206 -3 382 131 378 303zM489 157v269l-139 -89v112l155 103
h89v-395h-105z" />
    <glyph glyph-name="uni2461" unicode="&#x2461;" horiz-adv-x="1049" 
d="M50 351c-4 221 209 393 475 390c266 3 478 -169 474 -390c4 -221 -208 -394 -474 -390c-266 -4 -479 169 -475 390zM903 351c4 171 -172 306 -378 303c-208 3 -382 -132 -379 -303c-3 -172 171 -306 379 -303c206 -3 382 131 378 303zM358 158v84l167 134
c31 26 44 33 47 58c0 21 -20 36 -52 36h-4c-29 0 -52 -19 -53 -43h-107c4 80 76 131 171 131c97 0 158 -61 158 -115c0 -52 -28 -79 -85 -125l-90 -71l174 1v-90h-326z" />
    <glyph glyph-name="uni2462" unicode="&#x2462;" horiz-adv-x="1049" 
d="M50 351c-4 221 209 393 475 390c266 3 478 -169 474 -390c4 -221 -208 -394 -474 -390c-266 -4 -479 169 -475 390zM903 351c4 171 -172 306 -378 303c-208 3 -382 -132 -379 -303c-3 -172 171 -306 379 -303c206 -3 382 131 378 303zM352 270h108c0 -17 28 -30 57 -30h5
c36 0 59 16 59 39s-22 36 -58 36h-52v84h52c36 0 55 13 55 36c0 21 -18 36 -53 36h-5c-27 0 -50 -12 -53 -28h-108c0 73 74 115 164 115c87 0 163 -43 163 -113c0 -44 -21 -73 -63 -87c45 -16 66 -50 66 -93c0 -72 -81 -112 -171 -112s-166 43 -166 117z" />
    <glyph glyph-name="uni2463" unicode="&#x2463;" horiz-adv-x="1049" 
d="M50 351c-4 221 209 393 475 390c266 3 478 -169 474 -390c4 -221 -208 -394 -474 -390c-266 -4 -479 169 -475 390zM903 351c4 171 -172 306 -378 303c-208 3 -382 -132 -379 -303c-3 -172 171 -306 379 -303c206 -3 382 131 378 303zM525 157v62h-216v109l194 224h119
v-249h63v-84h-63v-62h-97zM400 303h125v137z" />
    <glyph glyph-name="uni2464" unicode="&#x2464;" horiz-adv-x="1049" 
d="M50 351c-4 221 209 393 475 390c266 3 478 -169 474 -390c4 -221 -208 -394 -474 -390c-266 -4 -479 169 -475 390zM903 351c4 171 -172 306 -378 303c-208 3 -382 -132 -379 -303c-3 -172 171 -306 379 -303c206 -3 382 131 378 303zM337 277h112c8 -21 32 -37 61 -37h4
c37 0 62 21 62 48s-23 45 -60 45h-4c-21 0 -44 -5 -53 -16h-108l44 235h282v-88h-204l-14 -67c23 16 44 23 83 23c72 0 140 -45 140 -127c0 -87 -69 -141 -175 -141c-92 0 -164 49 -170 125z" />
    <glyph glyph-name="uni2465" unicode="&#x2465;" horiz-adv-x="1049" 
d="M50 351c-4 221 209 393 475 390c266 3 478 -169 474 -390c4 -221 -208 -394 -474 -390c-266 -4 -479 169 -475 390zM903 351c4 171 -172 306 -378 303c-208 3 -382 -132 -379 -303c-3 -172 171 -306 379 -303c206 -3 382 131 378 303zM331 335c0 134 80 222 195 222
c96 0 153 -50 159 -120h-104c-7 19 -26 32 -54 32h-6c-49 0 -84 -44 -90 -95c24 27 58 40 103 40c82 0 145 -52 145 -124c0 -81 -68 -138 -167 -138c-110 0 -181 71 -181 183zM507 240h4c36 0 62 19 62 46c0 25 -26 43 -62 43h-4c-33 0 -62 -20 -62 -44c0 -27 26 -45 62 -45
z" />
    <glyph glyph-name="uni2466" unicode="&#x2466;" horiz-adv-x="1049" 
d="M50 351c-4 221 209 393 475 390c266 3 478 -169 474 -390c4 -221 -208 -394 -474 -390c-266 -4 -479 169 -475 390zM903 351c4 171 -172 306 -378 303c-208 3 -382 -132 -379 -303c-3 -172 171 -306 379 -303c206 -3 382 131 378 303zM426 157v13c0 121 30 194 144 292
h-210v90h329v-78c-119 -99 -150 -173 -150 -299v-18h-113z" />
    <glyph glyph-name="uni2467" unicode="&#x2467;" horiz-adv-x="1049" 
d="M50 351c-4 221 209 393 475 390c266 3 478 -169 474 -390c4 -221 -208 -394 -474 -390c-266 -4 -479 169 -475 390zM903 351c4 171 -172 306 -378 303c-208 3 -382 -132 -379 -303c-3 -172 171 -306 379 -303c206 -3 382 131 378 303zM360 260c0 43 28 78 79 91
c-57 17 -85 50 -85 98c0 62 77 108 170 108s169 -46 169 -108c0 -49 -29 -81 -86 -98c52 -13 79 -47 79 -91c0 -62 -67 -108 -162 -108s-164 46 -164 108zM521 395h5c36 0 61 13 61 37c0 23 -25 37 -61 37h-5c-37 0 -61 -14 -61 -37c0 -24 24 -37 61 -37zM521 240h5
c32 0 54 14 54 35s-22 36 -54 36h-5c-33 0 -55 -15 -55 -36s22 -35 55 -35z" />
    <glyph glyph-name="uni2468" unicode="&#x2468;" horiz-adv-x="1049" 
d="M50 351c-4 221 209 393 475 390c266 3 478 -169 474 -390c4 -221 -208 -394 -474 -390c-266 -4 -479 169 -475 390zM903 351c4 171 -172 306 -378 303c-208 3 -382 -132 -379 -303c-3 -172 171 -306 379 -303c206 -3 382 131 378 303zM352 272h104c7 -19 25 -31 54 -31h6
c49 0 84 43 90 95c-24 -27 -58 -40 -103 -40c-82 0 -145 52 -145 124c0 78 68 138 167 138c111 0 181 -72 181 -183c0 -136 -80 -222 -195 -222c-96 0 -153 49 -159 119zM526 381h4c33 0 62 19 62 44s-26 45 -62 45h-4c-36 0 -62 -21 -62 -46s26 -43 62 -43z" />
    <glyph glyph-name="zero.onum" horiz-adv-x="696" 
d="M50 250c-3 151 137 262 298 260c164 0 298 -107 298 -260s-134 -260 -298 -260s-298 107 -298 260zM346 97h7c87 0 159 56 159 153s-72 153 -159 153h-10c-85 0 -159 -56 -159 -153s76 -153 162 -153z" />
    <glyph glyph-name="one.onum" horiz-adv-x="459" 
d="M248 0v349l-205 -159v129l235 181h95v-500h-125z" />
    <glyph glyph-name="two.onum" horiz-adv-x="568" 
d="M377 192l-153 -85h276v-107h-439v144l252 139c50 28 66 37 66 68s-36 52 -89 52h-8c-50 0 -90 -31 -90 -72h-133c0 99 95 179 227 179c135 0 227 -65 227 -155c0 -74 -42 -110 -136 -163z" />
    <glyph glyph-name="three.onum" horiz-adv-x="669" 
d="M41 -7h137c7 -60 67 -96 146 -96h13c84 0 144 40 144 101c0 58 -52 97 -137 97h-107v112h107c85 0 132 38 132 98c0 58 -54 98 -139 98h-13c-75 0 -132 -43 -136 -98h-135c4 116 115 205 279 205c170 0 278 -78 278 -191c0 -85 -57 -139 -126 -167
c68 -20 131 -74 131 -159c0 -125 -112 -203 -283 -203c-167 0 -285 80 -291 203z" />
    <glyph glyph-name="four.onum" horiz-adv-x="721" 
d="M432 -200v200h-393v127l374 373h150v-393h127v-107h-127v-200h-131zM177 107h255v253z" />
    <glyph glyph-name="five.onum" horiz-adv-x="660" 
d="M615 23c0 -141 -113 -232 -292 -232c-161 0 -281 71 -293 205h135c12 -60 75 -98 151 -98h14c94 0 152 52 152 122c0 64 -60 110 -147 110h-14c-49 0 -104 -21 -129 -54h-137l85 425h456v-107h-358l-40 -194c41 24 96 37 144 37c170 0 273 -88 273 -214z" />
    <glyph glyph-name="six.onum" 
d="M659 230c0 -143 -123 -240 -296 -240c-191 0 -310 124 -310 337c-4 218 162 386 347 383c145 0 249 -70 273 -190h-133c-16 52 -63 83 -134 83h-10c-106 0 -190 -83 -214 -214c48 47 121 73 200 73c151 2 280 -96 277 -232zM525 225c0 79 -71 130 -155 130h-10
c-84 0 -159 -57 -159 -129c0 -73 76 -129 159 -129h10c84 0 155 52 155 128z" />
    <glyph glyph-name="seven.onum" horiz-adv-x="631" 
d="M19 500h585v-117c-214 -106 -310 -277 -310 -563v-20h-134v29c0 262 110 456 281 564h-422v107z" />
    <glyph glyph-name="eight.onum" horiz-adv-x="670" 
d="M76 181c0 80 63 139 123 159c-67 16 -146 78 -146 172c0 114 117 198 282 198c166 0 282 -81 282 -198c0 -95 -77 -156 -145 -172c60 -20 123 -79 123 -159c0 -114 -107 -191 -260 -191c-152 0 -259 77 -259 191zM328 397h14c88 0 141 38 141 103c0 63 -54 103 -141 103
h-14c-87 0 -141 -40 -141 -103c0 -65 53 -103 141 -103zM328 97h14c73 0 119 42 119 94c0 61 -46 99 -119 99h-14c-73 0 -118 -38 -118 -99c0 -52 46 -94 118 -94z" />
    <glyph glyph-name="nine.onum" horiz-adv-x="706" 
d="M52 271c0 143 123 240 296 240c191 0 310 -124 310 -337c4 -218 -162 -386 -347 -383c-145 0 -249 70 -273 190h133c16 -52 63 -83 134 -83h10c106 0 190 83 214 214c-48 -47 -121 -73 -200 -73c-151 -2 -280 96 -277 232zM186 276c0 -79 71 -130 155 -130h10
c84 0 159 56 159 129c0 72 -76 129 -159 129h-10c-84 0 -155 -52 -155 -128z" />
    <glyph glyph-name="zero.onum_zero" horiz-adv-x="696" 
d="M646 250c0 -153 -134 -260 -298 -260s-298 107 -298 260c-3 151 137 262 298 260c164 0 298 -107 298 -260zM184 250c0 -28 6 -53 19 -76l221 215c-23 9 -46 14 -71 14h-10c-85 0 -159 -56 -159 -153zM512 250c0 28 -6 53 -18 76l-221 -214c23 -10 47 -15 73 -15h7
c87 0 159 56 159 153z" />
    <glyph glyph-name="zero.tnum" 
d="M47 350c0 238 139 360 313 360s313 -122 313 -360s-139 -360 -313 -360c-176 0 -313 122 -313 360zM353 107h14c80 0 170 62 170 243s-90 243 -170 243h-14c-80 0 -170 -62 -170 -243s90 -243 170 -243z" />
    <glyph glyph-name="one.tnum" 
d="M472 122h199v-122h-612v122h280v416l-190 -157v143l210 176h113v-578z" />
    <glyph glyph-name="two.tnum" 
d="M217 122h426v-122h-566v178l295 184c94 59 129 92 129 142c0 53 -53 89 -132 89h-14c-80 0 -127 -50 -131 -112h-140c4 137 117 229 278 229s276 -75 276 -199c-3 -109 -65 -167 -196 -249z" />
    <glyph glyph-name="three.tnum" 
d="M60 193h140c9 -55 71 -86 148 -86h14c88 0 149 37 149 95c0 53 -55 90 -142 90h-100v117h100c88 0 137 37 137 94c0 52 -56 90 -144 90h-14c-73 0 -127 -38 -135 -88h-140c4 116 117 205 284 205c174 0 286 -77 286 -191c0 -85 -54 -137 -123 -165
c67 -20 128 -76 128 -159c0 -126 -115 -205 -291 -205c-171 0 -291 80 -297 203z" />
    <glyph glyph-name="four.tnum" 
d="M538 258h129v-116h-129v-142h-133v142h-352v133l329 425h156v-442zM185 258h220v284z" />
    <glyph glyph-name="five.tnum" 
d="M644 222c0 -141 -113 -232 -289 -232c-164 0 -279 71 -295 205h140c15 -56 73 -88 146 -88h14c90 0 147 48 147 112c0 68 -59 115 -142 115h-14c-51 0 -104 -20 -129 -59h-140l88 425h456v-122h-353l-35 -165c40 25 91 38 144 38c162 0 262 -94 262 -229z" />
    <glyph glyph-name="six.tnum" 
d="M641 236c0 -148 -111 -246 -279 -246c-183 0 -293 106 -293 327c-3 219 144 397 323 393c149 0 247 -71 261 -190h-140c-8 40 -44 73 -115 73h-14c-81 0 -150 -71 -176 -179c44 40 105 62 172 62c145 0 261 -86 261 -240zM503 231c0 85 -61 128 -137 128h-14
c-72 0 -137 -41 -137 -127c0 -77 65 -125 137 -125h14c76 0 137 46 137 124z" />
    <glyph glyph-name="seven.tnum" 
d="M39 700h635v-130c-215 -105 -339 -281 -339 -550v-20h-137v29c0 246 123 438 293 549h-452v122z" />
    <glyph glyph-name="eight.tnum" 
d="M97 180c0 80 60 142 124 160c-72 16 -148 77 -148 172c0 114 119 198 287 198c167 0 287 -81 287 -198c0 -94 -75 -156 -148 -172c64 -18 124 -80 124 -160c0 -114 -110 -190 -263 -190c-152 0 -263 76 -263 190zM353 402h14c88 0 143 39 143 97c0 60 -54 94 -143 94h-14
c-89 0 -143 -34 -143 -94c0 -58 56 -97 143 -97zM353 107h14c73 0 119 37 119 89c0 53 -46 89 -119 89h-14c-73 0 -119 -36 -119 -89c0 -52 46 -89 119 -89z" />
    <glyph glyph-name="nine.tnum" 
d="M79 464c0 148 111 246 279 246c183 0 293 -106 293 -327c3 -219 -144 -397 -323 -393c-149 0 -247 71 -261 190h140c8 -40 44 -73 115 -73h14c81 0 150 71 176 179c-44 -40 -105 -62 -172 -62c-145 0 -261 86 -261 240zM217 469c0 -85 61 -128 137 -128h14
c72 0 137 41 137 127c0 77 -65 125 -137 125h-14c-76 0 -137 -46 -137 -124z" />
    <glyph glyph-name="zero.tnum_zero" 
d="M673 350c0 -238 -139 -360 -313 -360c-176 0 -313 122 -313 360s139 360 313 360s313 -122 313 -360zM183 350c0 -32 3 -62 9 -91l289 282c-31 36 -74 52 -114 52h-14c-80 0 -170 -62 -170 -243zM537 350c0 31 -3 59 -8 86l-288 -279c32 -35 72 -50 112 -50h14
c80 0 170 62 170 243z" />
    <glyph glyph-name="zero.zero" horiz-adv-x="767" 
d="M713 350c0 -239 -143 -360 -330 -360c-188 0 -329 121 -329 360c0 238 143 360 329 360c187 0 330 -122 330 -360zM191 350c0 -41 5 -78 15 -109l301 308c-33 31 -76 44 -117 44h-14c-88 0 -185 -62 -185 -243zM576 350c0 39 -4 74 -13 105l-300 -307
c32 -29 73 -41 113 -41h14c90 0 186 62 186 243z" />
    <glyph glyph-name="zero.subs" horiz-adv-x="454" 
d="M38 82c0 106 59 203 189 203s189 -97 189 -203s-59 -202 -189 -202s-189 96 -189 202zM225 -28h4c52 0 79 39 79 110s-27 111 -79 111h-4c-51 0 -79 -40 -79 -111s27 -110 79 -110z" />
    <glyph glyph-name="one.subs" horiz-adv-x="335" 
d="M168 -115v269l-139 -89v112l155 103h89v-395h-105z" />
    <glyph glyph-name="two.subs" horiz-adv-x="412" 
d="M41 -114v84l167 134c33 26 43 33 47 58c0 21 -20 36 -52 36h-4c-29 0 -52 -19 -53 -43h-107c6 80 76 131 171 131c97 0 158 -61 158 -115c0 -52 -28 -79 -85 -125l-90 -71l174 1v-90h-326z" />
    <glyph glyph-name="three.subs" horiz-adv-x="413" 
d="M34 -2h108c1 -17 28 -30 57 -30h5c36 0 59 16 59 39s-22 36 -58 36h-52v84h52c36 0 55 13 55 36c0 21 -18 36 -53 36h-5c-27 0 -50 -12 -53 -28h-108c0 74 74 115 164 115c88 0 163 -43 163 -113c0 -44 -21 -73 -63 -87c45 -16 66 -50 66 -93c0 -71 -81 -112 -171 -112
s-166 43 -166 117z" />
    <glyph glyph-name="four.subs" horiz-adv-x="438" 
d="M245 -115v62h-216v109l194 224h119v-249h63v-84h-63v-62h-97zM120 31h125v137z" />
    <glyph glyph-name="five.subs" horiz-adv-x="416" 
d="M30 5h112c7 -21 32 -37 61 -37h4c36 0 62 21 62 48s-23 46 -60 46h-4c-21 0 -44 -6 -53 -17h-108l44 235h282v-88h-204l-14 -67c23 16 44 23 83 23c72 0 140 -45 140 -127c0 -87 -70 -141 -175 -141c-92 0 -164 49 -170 125z" />
    <glyph glyph-name="six.subs" horiz-adv-x="430" 
d="M38 63c0 134 80 222 195 222c96 0 153 -51 159 -119h-104c-7 17 -26 31 -54 31h-6c-47 0 -84 -44 -90 -95c24 27 58 40 103 40c82 0 145 -52 145 -124c0 -79 -68 -138 -167 -138c-109 0 -181 71 -181 183zM214 -32h4c36 0 62 19 62 46c0 25 -26 43 -62 43h-4
c-33 0 -62 -20 -62 -44c0 -27 26 -45 62 -45z" />
    <glyph glyph-name="seven.subs" horiz-adv-x="373" 
d="M91 -115v13c0 121 30 194 144 292h-210v90h329v-78c-119 -99 -150 -173 -150 -299v-18h-113z" />
    <glyph glyph-name="eight.subs" horiz-adv-x="419" 
d="M46 -12c0 44 28 78 79 91c-57 17 -85 50 -85 98c0 62 77 108 170 108s169 -46 169 -108c0 -49 -29 -81 -86 -98c52 -13 79 -47 79 -91c0 -62 -67 -108 -162 -108s-164 46 -164 108zM207 123h5c36 0 61 13 61 37c0 23 -25 37 -61 37h-5c-37 0 -61 -14 -61 -37
c0 -24 24 -37 61 -37zM207 -32h5c32 0 54 14 54 35s-22 36 -54 36h-5c-33 0 -55 -15 -55 -36s22 -35 55 -35z" />
    <glyph glyph-name="nine.subs" horiz-adv-x="429" 
d="M37 0h104c7 -19 25 -31 54 -31h6c49 0 84 43 90 95c-24 -27 -58 -40 -103 -40c-82 0 -145 52 -145 124c0 78 68 138 167 138c111 0 181 -72 181 -183c0 -136 -80 -222 -195 -222c-97 0 -151 49 -159 119zM211 109h4c33 0 62 19 62 44s-26 45 -62 45h-4
c-36 0 -62 -21 -62 -46s26 -43 62 -43z" />
    <glyph glyph-name="zero.dnom" horiz-adv-x="454" 
d="M38 197c0 106 59 203 189 203s189 -97 189 -203s-59 -202 -189 -202s-189 96 -189 202zM225 87h4c52 0 79 39 79 110s-27 111 -79 111h-4c-51 0 -79 -40 -79 -111s27 -110 79 -110z" />
    <glyph glyph-name="one.dnom" horiz-adv-x="335" 
d="M169 0v269l-139 -89v112l155 103h89v-395h-105z" />
    <glyph glyph-name="two.dnom" horiz-adv-x="412" 
d="M41 0v84l167 134c33 26 43 33 47 58c0 21 -20 36 -52 36h-4c-29 0 -52 -19 -53 -43h-107c6 80 76 131 171 131c97 0 158 -61 158 -115c0 -52 -28 -79 -85 -125l-90 -71l174 1v-90h-326z" />
    <glyph glyph-name="three.dnom" horiz-adv-x="413" 
d="M34 112h108c1 -17 28 -30 57 -30h5c36 0 59 16 59 39s-22 36 -58 36h-52v84h52c36 0 55 13 55 36c0 21 -18 36 -53 36h-5c-27 0 -50 -13 -53 -28h-108c0 73 74 115 164 115c88 0 163 -43 163 -113c0 -44 -21 -73 -63 -87c45 -17 66 -50 66 -93c0 -72 -81 -112 -171 -112
s-166 42 -166 117z" />
    <glyph glyph-name="four.dnom" horiz-adv-x="438" 
d="M245 0v62h-216v109l194 224h119v-249h63v-84h-63v-62h-97zM120 146h125v137z" />
    <glyph glyph-name="five.dnom" horiz-adv-x="416" 
d="M30 120h112c7 -21 32 -37 61 -37h4c36 0 62 21 62 48s-23 46 -60 46h-4c-21 0 -44 -6 -53 -17h-108l44 235h282v-88h-204l-14 -67c23 16 44 23 83 23c72 0 140 -45 140 -127c0 -87 -70 -141 -175 -141c-92 0 -164 50 -170 125z" />
    <glyph glyph-name="six.dnom" horiz-adv-x="430" 
d="M39 178c0 136 80 222 195 222c96 0 153 -50 159 -119h-104c-7 17 -26 31 -54 31h-6c-47 0 -84 -43 -90 -95c24 27 58 40 103 40c82 0 145 -52 145 -124c0 -79 -68 -138 -167 -138c-110 0 -181 72 -181 183zM215 83h4c36 0 62 19 62 46c0 25 -26 43 -62 43h-4
c-33 0 -62 -20 -62 -44c0 -27 26 -45 62 -45z" />
    <glyph glyph-name="seven.dnom" horiz-adv-x="373" 
d="M90 0v13c0 122 30 194 144 292h-210v90h329v-78c-119 -97 -150 -173 -150 -299v-18h-113z" />
    <glyph glyph-name="eight.dnom" horiz-adv-x="419" 
d="M46 103c0 44 28 79 79 91c-57 17 -85 50 -85 98c0 63 77 108 170 108s169 -45 169 -108c0 -48 -29 -81 -86 -98c52 -12 79 -47 79 -91c0 -62 -67 -108 -162 -108s-164 46 -164 108zM207 238h5c36 0 61 13 61 37c0 23 -25 37 -61 37h-5c-37 0 -61 -14 -61 -37
c0 -24 24 -37 61 -37zM207 83h5c32 0 54 15 54 35c0 21 -22 36 -54 36h-5c-33 0 -55 -15 -55 -36s22 -35 55 -35z" />
    <glyph glyph-name="nine.dnom" horiz-adv-x="429" 
d="M37 115h104c7 -17 25 -31 54 -31h6c49 0 84 43 90 95c-24 -27 -58 -40 -103 -40c-82 0 -145 52 -145 124c0 79 68 138 167 138c111 0 181 -72 181 -183c0 -136 -80 -222 -195 -222c-97 0 -151 50 -159 119zM211 224h4c33 0 62 20 62 44c0 27 -26 45 -62 45h-4
c-36 0 -62 -19 -62 -46c0 -25 26 -43 62 -43z" />
    <glyph glyph-name="zero.numr" horiz-adv-x="454" 
d="M38 502c0 106 59 203 189 203s189 -97 189 -203s-59 -202 -189 -202s-189 96 -189 202zM225 392h4c52 0 79 39 79 110s-27 111 -79 111h-4c-51 0 -79 -40 -79 -111s27 -110 79 -110z" />
    <glyph glyph-name="one.numr" horiz-adv-x="335" 
d="M168 305v269l-139 -89v112l155 103h89v-395h-105z" />
    <glyph glyph-name="two.numr" horiz-adv-x="412" 
d="M41 305v84l167 134c33 26 43 33 47 58c0 21 -20 36 -52 36h-4c-29 0 -52 -19 -53 -43h-107c6 80 76 131 171 131c97 0 158 -61 158 -115c0 -52 -28 -79 -85 -125l-90 -71l174 1v-90h-326z" />
    <glyph glyph-name="three.numr" horiz-adv-x="413" 
d="M34 417h108c1 -17 28 -30 57 -30h5c36 0 59 16 59 39s-22 36 -58 36h-52v84h52c36 0 55 13 55 36c0 21 -18 36 -53 36h-5c-27 0 -50 -12 -53 -28h-108c0 73 74 115 164 115c88 0 163 -43 163 -113c0 -44 -21 -73 -63 -87c45 -16 66 -50 66 -93c0 -72 -81 -112 -171 -112
s-166 43 -166 117z" />
    <glyph glyph-name="four.numr" horiz-adv-x="438" 
d="M245 305v62h-216v109l194 224h119v-249h63v-84h-63v-62h-97zM120 451h125v137z" />
    <glyph glyph-name="five.numr" horiz-adv-x="416" 
d="M29 425h112c7 -20 32 -37 61 -37h4c36 0 62 21 62 48c0 28 -23 46 -60 46h-4c-21 0 -44 -6 -53 -17h-108l44 235h282v-88h-204l-14 -67c23 16 44 23 83 23c72 0 140 -45 140 -127c0 -87 -70 -141 -175 -141c-92 0 -164 50 -170 125z" />
    <glyph glyph-name="six.numr" horiz-adv-x="430" 
d="M38 483c0 136 80 222 195 222c96 0 153 -50 159 -119h-104c-7 17 -26 31 -54 31h-6c-47 0 -84 -43 -90 -95c24 27 58 40 103 40c82 0 145 -52 145 -124c0 -79 -68 -138 -167 -138c-110 0 -181 72 -181 183zM214 388h4c36 0 62 19 62 46c0 25 -26 43 -62 43h-4
c-33 0 -62 -20 -62 -44c0 -27 26 -45 62 -45z" />
    <glyph glyph-name="seven.numr" horiz-adv-x="373" 
d="M90 305v13c0 122 30 194 144 292h-210v90h329v-78c-119 -97 -150 -173 -150 -299v-18h-113z" />
    <glyph glyph-name="eight.numr" horiz-adv-x="419" 
d="M46 408c0 44 28 79 79 91c-57 17 -85 50 -85 98c0 63 77 108 170 108s169 -45 169 -108c0 -48 -29 -81 -86 -98c52 -12 79 -47 79 -91c0 -62 -67 -108 -162 -108s-164 46 -164 108zM207 543h5c36 0 61 13 61 37c0 23 -25 37 -61 37h-5c-37 0 -61 -14 -61 -37
c0 -24 24 -37 61 -37zM207 388h5c32 0 54 15 54 35c0 21 -22 36 -54 36h-5c-33 0 -55 -15 -55 -36s22 -35 55 -35z" />
    <glyph glyph-name="nine.numr" horiz-adv-x="429" 
d="M37 420h104c7 -17 25 -31 54 -31h6c49 0 84 43 90 95c-24 -27 -58 -40 -103 -40c-82 0 -145 52 -145 124c0 79 68 138 167 138c111 0 181 -72 181 -183c0 -136 -80 -222 -195 -222c-97 0 -151 50 -159 119zM211 529h4c33 0 62 20 62 44c0 27 -26 45 -62 45h-4
c-36 0 -62 -19 -62 -46c0 -25 26 -43 62 -43z" />
    <glyph glyph-name="uni2070" unicode="&#x2070;" horiz-adv-x="454" 
d="M38 612c0 106 59 203 189 203s189 -97 189 -203s-59 -202 -189 -202s-189 96 -189 202zM225 502h4c52 0 79 39 79 110s-27 111 -79 111h-4c-51 0 -79 -40 -79 -111s27 -110 79 -110z" />
    <glyph glyph-name="onesuperior" unicode="&#xb9;" horiz-adv-x="335" 
d="M168 415v269l-139 -89v112l155 103h89v-395h-105z" />
    <glyph glyph-name="twosuperior" unicode="&#xb2;" horiz-adv-x="412" 
d="M42 415v84l167 134c33 26 43 33 47 58c0 21 -20 36 -52 36h-4c-29 0 -52 -19 -53 -43h-107c6 80 76 131 171 131c97 0 158 -61 158 -115c0 -52 -28 -79 -85 -125l-90 -71l174 1v-90h-326z" />
    <glyph glyph-name="threesuperior" unicode="&#xb3;" horiz-adv-x="413" 
d="M34 527h108c1 -17 28 -30 57 -30h5c36 0 59 16 59 39s-22 36 -58 36h-52v84h52c36 0 55 13 55 36c0 21 -18 36 -53 36h-5c-27 0 -50 -13 -53 -28h-108c0 73 74 115 164 115c88 0 163 -43 163 -113c0 -44 -21 -73 -63 -87c45 -17 66 -50 66 -93c0 -72 -81 -112 -171 -112
s-166 42 -166 117z" />
    <glyph glyph-name="uni2074" unicode="&#x2074;" horiz-adv-x="438" 
d="M246 415v62h-216v109l194 224h119v-249h63v-84h-63v-62h-97zM121 561h125v137z" />
    <glyph glyph-name="uni2075" unicode="&#x2075;" horiz-adv-x="416" 
d="M30 535h112c7 -21 32 -37 61 -37h4c36 0 62 21 62 48s-23 46 -60 46h-4c-21 0 -44 -6 -53 -17h-108l44 235h282v-88h-204l-14 -67c23 16 44 23 83 23c72 0 140 -45 140 -127c0 -87 -70 -141 -175 -141c-92 0 -164 50 -170 125z" />
    <glyph glyph-name="uni2076" unicode="&#x2076;" horiz-adv-x="430" 
d="M38 593c0 136 80 222 195 222c96 0 153 -50 159 -119h-104c-7 17 -26 31 -54 31h-6c-47 0 -84 -43 -90 -95c24 27 58 40 103 40c82 0 145 -52 145 -124c0 -79 -68 -138 -167 -138c-110 0 -181 72 -181 183zM214 498h4c36 0 62 19 62 46c0 25 -26 43 -62 43h-4
c-33 0 -62 -20 -62 -44c0 -27 26 -45 62 -45z" />
    <glyph glyph-name="uni2077" unicode="&#x2077;" horiz-adv-x="373" 
d="M91 415v13c0 122 30 194 144 292h-210v90h329v-78c-119 -97 -150 -173 -150 -299v-18h-113z" />
    <glyph glyph-name="uni2078" unicode="&#x2078;" horiz-adv-x="419" 
d="M46 518c0 44 28 79 79 91c-57 17 -85 50 -85 98c0 63 77 108 170 108s169 -45 169 -108c0 -48 -29 -81 -86 -98c52 -12 79 -47 79 -91c0 -62 -67 -108 -162 -108s-164 46 -164 108zM207 653h5c36 0 61 13 61 37c0 23 -25 37 -61 37h-5c-37 0 -61 -14 -61 -37
c0 -24 24 -37 61 -37zM207 498h5c32 0 54 15 54 35c0 21 -22 36 -54 36h-5c-33 0 -55 -15 -55 -36s22 -35 55 -35z" />
    <glyph glyph-name="uni2079" unicode="&#x2079;" horiz-adv-x="429" 
d="M37 530h104c7 -17 25 -31 54 -31h6c49 0 84 43 90 95c-24 -27 -58 -40 -103 -40c-82 0 -145 52 -145 124c0 79 68 138 167 138c111 0 181 -72 181 -183c0 -136 -80 -222 -195 -222c-97 0 -151 50 -159 119zM211 639h4c33 0 62 20 62 44c0 27 -26 45 -62 45h-4
c-36 0 -62 -19 -62 -46c0 -25 26 -43 62 -43z" />
    <glyph glyph-name="fraction" unicode="&#x2044;" horiz-adv-x="186" 
d="M-190 0l463 700h103l-463 -700h-103z" />
    <glyph glyph-name="uni215F" unicode="&#x215f;" horiz-adv-x="521" 
d="M168 305v269l-139 -89v112l155 103h89v-395h-105zM145 0l463 700h103l-463 -700h-103z" />
    <glyph glyph-name="onehalf" unicode="&#xbd;" horiz-adv-x="951" 
d="M168 305v269l-139 -89v112l155 103h89v-395h-105zM145 0l463 700h103l-463 -700h-103zM562 0v84l167 134c33 26 43 33 47 58c0 21 -20 36 -52 36h-4c-29 0 -52 -19 -53 -43h-107c6 80 76 131 171 131c97 0 158 -61 158 -115c0 -52 -28 -79 -85 -125l-90 -71l174 1v-90
h-326z" />
    <glyph glyph-name="onethird" unicode="&#x2153;" horiz-adv-x="954" 
d="M168 305v269l-139 -89v112l155 103h89v-395h-105zM145 0l463 700h103l-463 -700h-103zM555 112h108c1 -17 28 -30 57 -30h5c36 0 59 16 59 39s-22 36 -58 36h-52v84h52c36 0 55 13 55 36c0 21 -18 36 -53 36h-5c-27 0 -50 -13 -53 -28h-108c0 73 74 115 164 115
c88 0 163 -43 163 -113c0 -44 -21 -73 -63 -87c45 -17 66 -50 66 -93c0 -72 -81 -112 -171 -112s-166 42 -166 117z" />
    <glyph glyph-name="twothirds" unicode="&#x2154;" horiz-adv-x="1013" 
d="M41 305v84l167 134c33 26 43 33 47 58c0 21 -20 36 -52 36h-4c-29 0 -52 -19 -53 -43h-107c6 80 76 131 171 131c97 0 158 -61 158 -115c0 -52 -28 -79 -85 -125l-90 -71l174 1v-90h-326zM222 0l463 700h103l-463 -700h-103zM632 112h108c1 -17 28 -30 57 -30h5
c36 0 59 16 59 39s-22 36 -58 36h-52v84h52c36 0 55 13 55 36c0 21 -18 36 -53 36h-5c-27 0 -50 -13 -53 -28h-108c0 73 74 115 164 115c88 0 163 -43 163 -113c0 -44 -21 -73 -63 -87c45 -17 66 -50 66 -93c0 -72 -81 -112 -171 -112s-166 42 -166 117z" />
    <glyph glyph-name="onequarter" unicode="&#xbc;" horiz-adv-x="957" 
d="M168 305v269l-139 -89v112l155 103h89v-395h-105zM145 0l463 700h103l-463 -700h-103zM735 0v62h-216v109l194 224h119v-249h63v-84h-63v-62h-97zM610 146h125v137z" />
    <glyph glyph-name="threequarters" unicode="&#xbe;" horiz-adv-x="1015" 
d="M34 417h108c1 -17 28 -30 57 -30h5c36 0 59 16 59 39s-22 36 -58 36h-52v84h52c36 0 55 13 55 36c0 21 -18 36 -53 36h-5c-27 0 -50 -12 -53 -28h-108c0 73 74 115 164 115c88 0 163 -43 163 -113c0 -44 -21 -73 -63 -87c45 -16 66 -50 66 -93c0 -72 -81 -112 -171 -112
s-166 43 -166 117zM223 0l463 700h103l-463 -700h-103zM813 0v62h-216v109l194 224h119v-249h63v-84h-63v-62h-97zM688 146h125v137z" />
    <glyph glyph-name="uni2155" unicode="&#x2155;" horiz-adv-x="958" 
d="M168 305v269l-139 -89v112l155 103h89v-395h-105zM145 0l463 700h103l-463 -700h-103zM551 120h112c7 -21 32 -37 61 -37h4c36 0 62 21 62 48s-23 46 -60 46h-4c-21 0 -44 -6 -53 -17h-108l44 235h282v-88h-204l-14 -67c23 16 44 23 83 23c72 0 140 -45 140 -127
c0 -87 -70 -141 -175 -141c-92 0 -164 50 -170 125z" />
    <glyph glyph-name="uni2156" unicode="&#x2156;" horiz-adv-x="1017" 
d="M41 305v84l167 134c33 26 43 33 47 58c0 21 -20 36 -52 36h-4c-29 0 -52 -19 -53 -43h-107c6 80 76 131 171 131c97 0 158 -61 158 -115c0 -52 -28 -79 -85 -125l-90 -71l174 1v-90h-326zM222 0l463 700h103l-463 -700h-103zM628 120h112c7 -21 32 -37 61 -37h4
c36 0 62 21 62 48s-23 46 -60 46h-4c-21 0 -44 -6 -53 -17h-108l44 235h282v-88h-204l-14 -67c23 16 44 23 83 23c72 0 140 -45 140 -127c0 -87 -70 -141 -175 -141c-92 0 -164 50 -170 125z" />
    <glyph glyph-name="uni2157" unicode="&#x2157;" horiz-adv-x="1016" 
d="M34 417h108c1 -17 28 -30 57 -30h5c36 0 59 16 59 39s-22 36 -58 36h-52v84h52c36 0 55 13 55 36c0 21 -18 36 -53 36h-5c-27 0 -50 -12 -53 -28h-108c0 73 74 115 164 115c88 0 163 -43 163 -113c0 -44 -21 -73 -63 -87c45 -16 66 -50 66 -93c0 -72 -81 -112 -171 -112
s-166 43 -166 117zM223 0l463 700h103l-463 -700h-103zM629 120h112c7 -21 32 -37 61 -37h4c36 0 62 21 62 48s-23 46 -60 46h-4c-21 0 -44 -6 -53 -17h-108l44 235h282v-88h-204l-14 -67c23 16 44 23 83 23c72 0 140 -45 140 -127c0 -87 -70 -141 -175 -141
c-92 0 -164 50 -170 125z" />
    <glyph glyph-name="uni2158" unicode="&#x2158;" horiz-adv-x="1032" 
d="M245 305v62h-216v109l194 224h119v-249h63v-84h-63v-62h-97zM120 451h125v137zM248 0l463 700h103l-463 -700h-103zM654 120h112c7 -21 32 -37 61 -37h4c36 0 62 21 62 48s-23 46 -60 46h-4c-21 0 -44 -6 -53 -17h-108l44 235h282v-88h-204l-14 -67c23 16 44 23 83 23
c72 0 140 -45 140 -127c0 -87 -70 -141 -175 -141c-92 0 -164 50 -170 125z" />
    <glyph glyph-name="uni2159" unicode="&#x2159;" horiz-adv-x="959" 
d="M168 305v269l-139 -89v112l155 103h89v-395h-105zM145 0l463 700h103l-463 -700h-103zM543 178c0 136 80 222 195 222c96 0 153 -50 159 -119h-104c-7 17 -26 31 -54 31h-6c-47 0 -84 -43 -90 -95c24 27 58 40 103 40c82 0 145 -52 145 -124c0 -79 -68 -138 -167 -138
c-110 0 -181 72 -181 183zM719 83h4c36 0 62 19 62 46c0 25 -26 43 -62 43h-4c-33 0 -62 -20 -62 -44c0 -27 26 -45 62 -45z" />
    <glyph glyph-name="uni215A" unicode="&#x215a;" horiz-adv-x="1020" 
d="M29 425h112c7 -20 32 -37 61 -37h4c36 0 62 21 62 48c0 28 -23 46 -60 46h-4c-21 0 -44 -6 -53 -17h-108l44 235h282v-88h-204l-14 -67c23 16 44 23 83 23c72 0 140 -45 140 -127c0 -87 -70 -141 -175 -141c-92 0 -164 50 -170 125zM226 0l463 700h103l-463 -700h-103z
M624 178c0 136 80 222 195 222c96 0 153 -50 159 -119h-104c-7 17 -26 31 -54 31h-6c-47 0 -84 -43 -90 -95c24 27 58 40 103 40c82 0 145 -52 145 -124c0 -79 -68 -138 -167 -138c-110 0 -181 72 -181 183zM800 83h4c36 0 62 19 62 46c0 25 -26 43 -62 43h-4
c-33 0 -62 -20 -62 -44c0 -27 26 -45 62 -45z" />
    <glyph glyph-name="oneeighth" unicode="&#x215b;" horiz-adv-x="962" 
d="M168 305v269l-139 -89v112l155 103h89v-395h-105zM145 0l463 700h103l-463 -700h-103zM567 103c0 44 28 79 79 91c-57 17 -85 50 -85 98c0 63 77 108 170 108s169 -45 169 -108c0 -48 -29 -81 -86 -98c52 -12 79 -47 79 -91c0 -62 -67 -108 -162 -108s-164 46 -164 108z
M728 238h5c36 0 61 13 61 37c0 23 -25 37 -61 37h-5c-37 0 -61 -14 -61 -37c0 -24 24 -37 61 -37zM728 83h5c32 0 54 15 54 35c0 21 -22 36 -54 36h-5c-33 0 -55 -15 -55 -36s22 -35 55 -35z" />
    <glyph glyph-name="threeeighths" unicode="&#x215c;" horiz-adv-x="1020" 
d="M34 417h108c1 -17 28 -30 57 -30h5c36 0 59 16 59 39s-22 36 -58 36h-52v84h52c36 0 55 13 55 36c0 21 -18 36 -53 36h-5c-27 0 -50 -12 -53 -28h-108c0 73 74 115 164 115c88 0 163 -43 163 -113c0 -44 -21 -73 -63 -87c45 -16 66 -50 66 -93c0 -72 -81 -112 -171 -112
s-166 43 -166 117zM223 0l463 700h103l-463 -700h-103zM645 103c0 44 28 79 79 91c-57 17 -85 50 -85 98c0 63 77 108 170 108s169 -45 169 -108c0 -48 -29 -81 -86 -98c52 -12 79 -47 79 -91c0 -62 -67 -108 -162 -108s-164 46 -164 108zM806 238h5c36 0 61 13 61 37
c0 23 -25 37 -61 37h-5c-37 0 -61 -14 -61 -37c0 -24 24 -37 61 -37zM806 83h5c32 0 54 15 54 35c0 21 -22 36 -54 36h-5c-33 0 -55 -15 -55 -36s22 -35 55 -35z" />
    <glyph glyph-name="fiveeighths" unicode="&#x215d;" horiz-adv-x="1023" 
d="M29 425h112c7 -20 32 -37 61 -37h4c36 0 62 21 62 48c0 28 -23 46 -60 46h-4c-21 0 -44 -6 -53 -17h-108l44 235h282v-88h-204l-14 -67c23 16 44 23 83 23c72 0 140 -45 140 -127c0 -87 -70 -141 -175 -141c-92 0 -164 50 -170 125zM226 0l463 700h103l-463 -700h-103z
M648 103c0 44 28 79 79 91c-57 17 -85 50 -85 98c0 63 77 108 170 108s169 -45 169 -108c0 -48 -29 -81 -86 -98c52 -12 79 -47 79 -91c0 -62 -67 -108 -162 -108s-164 46 -164 108zM809 238h5c36 0 61 13 61 37c0 23 -25 37 -61 37h-5c-37 0 -61 -14 -61 -37
c0 -24 24 -37 61 -37zM809 83h5c32 0 54 15 54 35c0 21 -22 36 -54 36h-5c-33 0 -55 -15 -55 -36s22 -35 55 -35z" />
    <glyph glyph-name="seveneighths" unicode="&#x215e;" horiz-adv-x="910" 
d="M90 305v13c0 122 30 194 144 292h-210v90h329v-78c-119 -97 -150 -173 -150 -299v-18h-113zM135 0l463 700h103l-463 -700h-103zM557 103c0 44 28 79 79 91c-57 17 -85 50 -85 98c0 63 77 108 170 108s169 -45 169 -108c0 -48 -29 -81 -86 -98c52 -12 79 -47 79 -91
c0 -62 -67 -108 -162 -108s-164 46 -164 108zM718 238h5c36 0 61 13 61 37c0 23 -25 37 -61 37h-5c-37 0 -61 -14 -61 -37c0 -24 24 -37 61 -37zM718 83h5c32 0 54 15 54 35c0 21 -22 36 -54 36h-5c-33 0 -55 -15 -55 -36s22 -35 55 -35z" />
    <glyph glyph-name="zero.subs_zero" horiz-adv-x="454" 
d="M416 82c0 -108 -59 -202 -189 -202s-189 94 -189 202c0 107 59 203 189 203s189 -96 189 -203zM146 82c0 -9 0 -18 1 -27l132 119c-13 13 -29 19 -50 19h-4c-51 0 -79 -40 -79 -111zM308 82c0 9 0 18 -1 26l-131 -118c13 -12 29 -18 49 -18h4c52 0 79 39 79 110z" />
    <glyph glyph-name="zero.dnom_zero" horiz-adv-x="454" 
d="M416 197c0 -108 -59 -202 -189 -202s-189 94 -189 202c0 107 59 203 189 203s189 -96 189 -203zM146 197c0 -9 0 -18 1 -27l132 119c-13 13 -29 19 -50 19h-4c-51 0 -79 -40 -79 -111zM308 197c0 9 0 18 -1 26l-131 -118c13 -12 29 -18 49 -18h4c52 0 79 39 79 110z" />
    <glyph glyph-name="zero.numr_zero" horiz-adv-x="454" 
d="M416 502c0 -108 -59 -202 -189 -202s-189 94 -189 202c0 107 59 203 189 203s189 -96 189 -203zM146 502c0 -9 0 -18 1 -27l132 119c-13 13 -29 19 -50 19h-4c-51 0 -79 -40 -79 -111zM308 502c0 9 0 18 -1 26l-131 -118c13 -12 29 -18 49 -18h4c52 0 79 39 79 110z" />
    <glyph glyph-name="uni2070.zero" horiz-adv-x="454" 
d="M416 612c0 -108 -59 -202 -189 -202s-189 94 -189 202c0 107 59 203 189 203s189 -96 189 -203zM146 612c0 -9 0 -18 1 -27l132 119c-13 13 -29 19 -50 19h-4c-51 0 -79 -40 -79 -111zM308 612c0 9 0 18 -1 26l-131 -118c13 -12 29 -18 49 -18h4c52 0 79 39 79 110z" />
    <glyph glyph-name="uni2160" unicode="&#x2160;" horiz-adv-x="571" 
d="M53 0v105h167v490h-167v105h465v-105h-168v-490h168v-105h-465z" />
    <glyph glyph-name="uni2161" unicode="&#x2161;" horiz-adv-x="916" 
d="M53 0v105h167v490h-167v105h810v-105h-168v-490h168v-105h-810zM350 105h215v490h-215v-490z" />
    <glyph glyph-name="uni2162" unicode="&#x2162;" horiz-adv-x="1261" 
d="M53 0v105h167v490h-167v105h1155v-105h-168v-490h168v-105h-1155zM350 105h215v490h-215v-490zM695 105h215v490h-215v-490z" />
    <glyph glyph-name="uni2163" unicode="&#x2163;" horiz-adv-x="1282" 
d="M57 0v105h167v490h-167v105h675v-105h-115l188 -492l191 492h-119v105h370v-105h-125l-191 -490h156v-105h-1030zM354 105h322l-189 490h-133v-490z" />
    <glyph glyph-name="uni2164" unicode="&#x2164;" horiz-adv-x="954" 
d="M184 0v105h164l-189 490h-125v105h370v-105h-115l188 -492l191 492h-119v105h370v-105h-125l-191 -490h156v-105h-575z" />
    <glyph glyph-name="uni2165" unicode="&#x2165;" horiz-adv-x="1280" 
d="M184 0v105h164l-189 490h-125v105h370v-105h-115l188 -492l191 492h-119v105h674v-105h-168v-490h168v-105h-1039zM603 105h322v490h-131z" />
    <glyph glyph-name="uni2166" unicode="&#x2166;" horiz-adv-x="1625" 
d="M184 0v105h164l-189 490h-125v105h370v-105h-115l188 -492l191 492h-119v105h1019v-105h-168v-490h168v-105h-1384zM603 105h322v490h-131zM1055 105h215v490h-215v-490z" />
    <glyph glyph-name="uni2167" unicode="&#x2167;" horiz-adv-x="1970" 
d="M184 0v105h164l-189 490h-125v105h370v-105h-115l188 -492l191 492h-119v105h1364v-105h-168v-490h168v-105h-1729zM603 105h322v490h-131zM1055 105h215v490h-215v-490zM1400 105h215v490h-215v-490z" />
    <glyph glyph-name="uni2168" unicode="&#x2168;" horiz-adv-x="1221" 
d="M53 0v105h167v490h-167v105h1109v-105h-133l-194 -241l201 -249h136v-105h-1119zM350 105h131l199 246l-197 244h-133v-490zM758 449l118 146h-235zM634 105h244l-122 151z" />
    <glyph glyph-name="uni2169" unicode="&#x2169;" horiz-adv-x="929" 
d="M49 0v105h140l199 246l-197 244h-132v105h811v-105h-133l-194 -241l201 -249h136v-105h-831zM467 449l117 146h-235zM342 105h244l-122 151z" />
    <glyph glyph-name="uni216C" unicode="&#x216c;" horiz-adv-x="833" 
d="M53 0v105h158v490h-158v105h445v-105h-157v-490h322v165h130v-270h-740z" />
    <glyph glyph-name="uni216D" unicode="&#x216d;" horiz-adv-x="865" 
d="M52 350c-4 218 167 363 376 360c93 0 177 -24 237 -72v62h130v-230h-124c-30 87 -132 133 -221 133h-10c-158 0 -256 -95 -256 -249c0 -164 94 -257 254 -257h10c95 0 178 46 218 133h124v-230h-130v68c-60 -52 -171 -78 -247 -78c-211 0 -361 138 -361 360z" />
    <glyph glyph-name="uni216E" unicode="&#x216e;" horiz-adv-x="930" 
d="M53 0v105h157v490h-157v105h423c234 0 402 -134 402 -347c0 -220 -168 -353 -402 -353h-423zM340 105h126c184 0 281 78 281 249c0 161 -94 241 -281 241h-126v-490z" />
    <glyph glyph-name="uni216F" unicode="&#x216f;" horiz-adv-x="1272" 
d="M53 0v105h157v490h-157v105h366l222 -548l218 548h360v-105h-157v-490h157v-105h-366v105h81v464l-230 -569h-132l-234 569v-464h82v-105h-367z" />
    <glyph glyph-name="asterisk" unicode="*" horiz-adv-x="476" 
d="M172 407l-81 54l54 77h-95v92h95l-54 77l81 54l65 -92l64 92l81 -54l-54 -77h99v-92h-99l54 -77l-81 -54l-64 92z" />
    <glyph glyph-name="backslash" unicode="\" horiz-adv-x="517" 
d="M345 0l-312 700h140l312 -700h-140z" />
    <glyph glyph-name="periodcentered" unicode="&#xb7;" horiz-adv-x="296" 
d="M68 275v147h160v-147h-160z" />
    <glyph glyph-name="bullet" unicode="&#x2022;" horiz-adv-x="584" 
d="M77 350c0 113 92 205 215 205s215 -92 215 -205s-92 -205 -215 -205s-215 92 -215 205z" />
    <glyph glyph-name="colon" unicode=":" horiz-adv-x="296" 
d="M68 0v147h160v-147h-160zM68 353v147h160v-147h-160z" />
    <glyph glyph-name="comma" unicode="," horiz-adv-x="302" 
d="M34 -150v77h56c43 0 60 24 60 63v10h-78v147h160v-162c0 -72 -50 -135 -137 -135h-61z" />
    <glyph glyph-name="ellipsis" unicode="&#x2026;" horiz-adv-x="906" 
d="M68 0v147h160v-147h-160zM373 0v147h160v-147h-160zM678 0v147h160v-147h-160z" />
    <glyph glyph-name="exclam" unicode="!" horiz-adv-x="303" 
d="M117 190l-34 275v235h138v-235l-34 -275h-70zM71 0v147h160v-147h-160z" />
    <glyph glyph-name="exclamdown" unicode="&#xa1;" horiz-adv-x="290" 
d="M180 310l34 -275v-235h-138v235l34 275h70zM226 500v-147h-160v147h160z" />
    <glyph glyph-name="numbersign" unicode="#" horiz-adv-x="824" 
d="M779 423h-148l-38 -148h144v-117h-175l-40 -158h-123l40 158h-154l-41 -158h-123l41 158h-118v117h147l38 148h-142v117h173l41 160h123l-41 -160h155l41 160h123l-41 -160h118v-117zM470 275l38 148h-155l-39 -148h156z" />
    <glyph glyph-name="period" unicode="." horiz-adv-x="296" 
d="M68 0v147h160v-147h-160z" />
    <glyph glyph-name="question" unicode="?" horiz-adv-x="566" 
d="M133 200v107c0 85 39 127 117 127h61c51 0 84 30 84 74c0 40 -31 70 -88 70h-264v122h273c130 0 215 -76 215 -191c0 -112 -88 -192 -225 -192c-32 0 -44 -10 -44 -35v-82h-129zM117 0v147h160v-147h-160z" />
    <glyph glyph-name="questiondown" unicode="&#xbf;" horiz-adv-x="557" 
d="M430 300v-107c0 -85 -39 -127 -117 -127h-61c-51 0 -84 -30 -84 -74c0 -40 31 -70 88 -70h264v-122h-273c-130 0 -215 76 -215 191c0 112 88 192 225 192c32 0 44 10 44 35v82h129zM446 500v-147h-160v147h160z" />
    <glyph glyph-name="quotedbl" unicode="&#x22;" horiz-adv-x="402" 
d="M91 460l-32 135v105h115v-105l-32 -135h-51zM260 460l-32 135v105h115v-105l-32 -135h-51z" />
    <glyph glyph-name="quotesingle" unicode="'" horiz-adv-x="233" 
d="M91 460l-32 135v105h115v-105l-32 -135h-51z" />
    <glyph glyph-name="semicolon" unicode=";" horiz-adv-x="320" 
d="M84 353v147h160v-147h-160zM46 -150v77h56c43 0 60 24 60 63v10h-78v147h160v-162c0 -72 -50 -135 -137 -135h-61z" />
    <glyph glyph-name="slash" unicode="/" horiz-adv-x="517" 
d="M32 0l314 700h138l-314 -700h-138z" />
    <glyph glyph-name="underscore" unicode="_" horiz-adv-x="668" 
d="M59 -105v105h550v-105h-550z" />
    <glyph glyph-name="exclamdown.case" horiz-adv-x="319" 
d="M194 510l34 -275v-235h-138v235l34 275h70zM240 700v-147h-160v147h160z" />
    <glyph glyph-name="questiondown.case" horiz-adv-x="565" 
d="M433 501v-107c0 -85 -39 -127 -117 -127h-61c-51 0 -84 -30 -84 -74c0 -40 31 -70 88 -70h264v-122h-273c-130 0 -215 76 -215 191c0 112 88 192 225 192c32 0 44 10 44 35v82h129zM449 701v-147h-160v147h160z" />
    <glyph glyph-name="_497" horiz-adv-x="590" 
d="M410 500v-86c0 -69 -17 -91 -78 -117l-78 -33l-19 -10c-39 -20 -63 -35 -63 -72c0 -45 40 -75 123 -75c80 0 118 24 127 83h133c-8 -127 -123 -200 -260 -200c-154 0 -259 72 -259 189c0 99 67 145 142 179l71 32c26 14 28 19 28 47v63h133zM424 700v-147h-160v147h160z
" />
    <glyph glyph-name="question.ss05" horiz-adv-x="589" 
d="M179 200v86c0 69 17 91 78 117l78 33l19 10c39 20 63 35 63 72c0 45 -40 75 -123 75c-80 0 -118 -24 -127 -83h-133c8 127 123 200 260 200c154 0 259 -72 259 -189c0 -99 -67 -145 -142 -179l-71 -32c-26 -14 -28 -19 -28 -47v-63h-133zM165 0v147h160v-147h-160z" />
    <glyph glyph-name="questiondown.ss05" horiz-adv-x="583" 
d="M407 300v-86c0 -69 -17 -91 -78 -117l-78 -33l-19 -10c-39 -20 -63 -35 -63 -72c0 -45 40 -75 123 -75c80 0 118 24 127 83h133c-8 -127 -123 -200 -260 -200c-154 0 -259 72 -259 189c0 99 67 145 142 179l71 32c26 14 28 19 28 47v63h133zM421 500v-147h-160v147h160z
" />
    <glyph glyph-name="colon.tnum" 
d="M280 0v147h160v-147h-160zM280 353v147h160v-147h-160z" />
    <glyph glyph-name="comma.tnum" 
d="M243 -150v77h56c43 0 60 24 60 63v10h-78v147h160v-162c0 -72 -50 -135 -137 -135h-61z" />
    <glyph glyph-name="numbersign.tnum" 
d="M685 423h-119l-38 -148h115v-117h-145l-41 -158h-123l41 158h-121l-40 -158h-123l40 158h-97v117h128l38 148h-123v117h153l41 160h123l-41 -160h120l41 160h123l-41 -160h89v-117zM405 275l38 148h-120l-38 -148h120z" />
    <glyph glyph-name="period.tnum" 
d="M280 0v147h160v-147h-160z" />
    <glyph glyph-name="semicolon.tnum" 
d="M284 353v147h160v-147h-160zM246 -150v77h56c43 0 60 24 60 63v10h-78v147h160v-162c0 -72 -50 -135 -137 -135h-61z" />
    <glyph glyph-name="angleleft" unicode="&#x2329;" horiz-adv-x="424" 
d="M275 -85l-263 435l263 435h139l-260 -433l260 -437h-139z" />
    <glyph glyph-name="angleright" unicode="&#x232a;" horiz-adv-x="424" 
d="M149 785l263 -435l-263 -435h-139l260 433l-260 437h139z" />
    <glyph glyph-name="uni3010" unicode="&#x3010;" horiz-adv-x="437" 
d="M86 -145v990h354c-148 -137 -222 -315 -222 -494c0 -177 73 -356 222 -496h-354z" />
    <glyph glyph-name="uni3011" unicode="&#x3011;" horiz-adv-x="437" 
d="M351 846v-990h-354c148 137 222 315 222 494c0 177 -73 356 -222 496h354z" />
    <glyph glyph-name="braceleft" unicode="{" horiz-adv-x="422" 
d="M134 10v225c0 32 -9 44 -40 44h-58v142h58c31 0 40 12 40 44v225c0 107 39 155 135 155h120v-107h-90c-29 0 -32 -8 -32 -43v-250c0 -65 -29 -85 -80 -85h-26v-20h26c53 0 80 -28 80 -85v-250c0 -36 3 -43 32 -43h90v-107h-120c-96 0 -135 48 -135 155z" />
    <glyph glyph-name="braceright" unicode="}" horiz-adv-x="422" 
d="M288 691v-225c0 -32 9 -44 40 -44h58v-142h-58c-31 0 -40 -12 -40 -44v-225c0 -107 -39 -155 -135 -155h-120v107h90c29 0 32 8 32 43v250c0 65 29 85 80 85h26v20h-26c-53 0 -80 28 -80 85v250c0 36 -3 43 -32 43h-90v107h120c96 0 135 -48 135 -155z" />
    <glyph glyph-name="bracketleft" unicode="[" horiz-adv-x="400" 
d="M86 -145v990h283v-107h-150v-776h150v-107h-283z" />
    <glyph glyph-name="bracketright" unicode="]" horiz-adv-x="400" 
d="M314 845v-990h-283v107h150v776h-150v107h283z" />
    <glyph glyph-name="uni300C" unicode="&#x300c;" horiz-adv-x="372" 
d="M65 386v459h287v-107h-154v-352h-133z" />
    <glyph glyph-name="uni300D" unicode="&#x300d;" horiz-adv-x="392" 
d="M330 314v-459h-287v107h154v352h133z" />
    <glyph glyph-name="uni300A" unicode="&#x300a;" horiz-adv-x="644" 
d="M265 -85l-253 435l253 435h138l-250 -433l250 -437h-138zM495 -85l-253 435l253 435h138l-250 -433l250 -437h-138z" />
    <glyph glyph-name="uni300B" unicode="&#x300b;" horiz-adv-x="644" 
d="M379 785l253 -435l-253 -435h-138l250 433l-250 437h138zM149 785l253 -435l-253 -435h-138l250 433l-250 437h138z" />
    <glyph glyph-name="parenleft" unicode="(" horiz-adv-x="441" 
d="M45 350c-1 241 113 471 367 495v-109c-84 -17 -144 -59 -181 -128c-36 -69 -54 -155 -54 -258s18 -189 54 -258c37 -69 97 -111 181 -128v-109c-257 17 -368 252 -367 495z" />
    <glyph glyph-name="parenright" unicode=")" horiz-adv-x="441" 
d="M396 350c1 -241 -113 -471 -367 -495v109c84 17 144 59 180 128c37 69 55 155 55 258s-18 189 -55 258c-36 69 -96 111 -180 128v109c257 -17 368 -252 367 -495z" />
    <glyph glyph-name="uni3014" unicode="&#x3014;" horiz-adv-x="396" 
d="M238 -145l-172 160v670l172 160h161l-201 -191v-608l201 -191h-161z" />
    <glyph glyph-name="uni3015" unicode="&#x3015;" horiz-adv-x="396" 
d="M158 846l172 -160v-670l-172 -160h-161l201 191v608l-201 191h161z" />
    <glyph glyph-name="uni300E" unicode="&#x300e;" horiz-adv-x="485" 
d="M60 304v541h405v-201h-172v-340h-233zM145 377h63v340h172v55h-235v-395z" />
    <glyph glyph-name="uni300F" unicode="&#x300f;" horiz-adv-x="505" 
d="M438 396v-541h-405v201h172v340h233zM353 323h-63v-340h-172v-55h235v395z" />
    <glyph glyph-name="braceleft.case" horiz-adv-x="453" 
d="M137 155v48c0 51 -11 65 -51 65h-35v164h35c40 0 51 14 51 65v48c0 105 45 155 134 155h127v-122h-70c-51 0 -59 -9 -59 -65v-68c0 -63 -32 -85 -85 -85v-19c53 0 85 -25 85 -86v-68c0 -56 8 -65 59 -65h70v-122h-127c-89 0 -134 50 -134 155z" />
    <glyph glyph-name="braceright.case" horiz-adv-x="453" 
d="M316 546v-48c0 -51 11 -65 51 -65h35v-164h-35c-40 0 -51 -14 -51 -65v-48c0 -105 -45 -155 -134 -155h-127v122h70c51 0 59 9 59 65v68c0 63 32 85 85 85v19c-53 0 -85 25 -85 86v68c0 56 -8 65 -59 65h-70v122h127c89 0 134 -50 134 -155z" />
    <glyph glyph-name="bracketleft.case" horiz-adv-x="401" 
d="M93 0v700h252v-122h-120v-456h120v-122h-252z" />
    <glyph glyph-name="bracketright.case" horiz-adv-x="401" 
d="M308 700v-700h-252v122h120v456h-120v122h252z" />
    <glyph glyph-name="parenleft.case" horiz-adv-x="428" 
d="M51 349c-4 186 145 356 322 361v-127c-105 -22 -188 -98 -188 -233c0 -134 82 -213 188 -233v-127c-177 6 -326 173 -322 359z" />
    <glyph glyph-name="parenright.case" horiz-adv-x="428" 
d="M377 351c4 -186 -145 -356 -322 -361v127c105 22 188 98 188 233c0 134 -82 213 -188 233v127c177 -6 326 -173 322 -359z" />
    <glyph glyph-name="emdash" unicode="&#x2014;" horiz-adv-x="1064" 
d="M67 248v109h930v-109h-930z" />
    <glyph glyph-name="endash" unicode="&#x2013;" horiz-adv-x="684" 
d="M67 248v109h550v-109h-550z" />
    <glyph glyph-name="hyphen" unicode="-" horiz-adv-x="464" 
d="M67 248v109h330v-109h-330z" />
    <glyph glyph-name="uni00AD" unicode="&#xad;" horiz-adv-x="464" 
d="M67 248v109h330v-109h-330z" />
    <glyph glyph-name="emdash.frac" horiz-adv-x="1074" 
d="M72 296v109h930v-109h-930z" />
    <glyph glyph-name="endash.frac" horiz-adv-x="694" 
d="M72 296v109h550v-109h-550z" />
    <glyph glyph-name="hyphen.frac" horiz-adv-x="474" 
d="M72 296v109h330v-109h-330z" />
    <glyph glyph-name="uni00AD.frac" horiz-adv-x="474" 
d="M72 296v109h330v-109h-330z" />
    <glyph glyph-name="guillemotleft" unicode="&#xab;" horiz-adv-x="632" 
d="M348 500l-161 -214l163 -216h-151l-165 215l165 215h149zM432 286l162 -216h-151l-165 215l165 215h149z" />
    <glyph glyph-name="guillemotright" unicode="&#xbb;" horiz-adv-x="632" 
d="M189 500l165 -215l-165 -215h-149l160 214l-162 216h151zM433 500l165 -215l-165 -215h-149l160 214l-162 216h151z" />
    <glyph glyph-name="guilsinglleft" unicode="&#x2039;" horiz-adv-x="388" 
d="M187 286l163 -216h-151l-165 215l165 215h149z" />
    <glyph glyph-name="guilsinglright" unicode="&#x203a;" horiz-adv-x="388" 
d="M189 500l165 -215l-165 -215h-151l163 216l-161 214h149z" />
    <glyph glyph-name="quotedblbase" unicode="&#x201e;" horiz-adv-x="552" 
d="M34 -150v77h56c43 0 60 24 60 63v10h-78v147h160v-162c0 -72 -50 -135 -137 -135h-61zM284 -150v77h56c43 0 60 24 60 63v10h-78v147h160v-162c0 -72 -50 -135 -137 -135h-61z" />
    <glyph glyph-name="quotedblleft" unicode="&#x201c;" horiz-adv-x="563" 
d="M514 710v-77h-56c-43 0 -60 -24 -60 -63v-10h78v-147h-160v162c0 72 50 135 137 135h61zM264 710v-77h-56c-43 0 -60 -24 -60 -63v-10h78v-147h-160v162c0 72 50 135 137 135h61z" />
    <glyph glyph-name="quotedblright" unicode="&#x201d;" horiz-adv-x="560" 
d="M56 430v77h56c43 0 60 24 60 63v10h-78v147h160v-162c0 -72 -50 -135 -137 -135h-61zM306 430v77h56c43 0 60 24 60 63v10h-78v147h160v-162c0 -72 -50 -135 -137 -135h-61z" />
    <glyph glyph-name="quoteleft" unicode="&#x2018;" horiz-adv-x="313" 
d="M264 710v-77h-56c-43 0 -60 -24 -60 -63v-10h78v-147h-160v162c0 72 50 135 137 135h61z" />
    <glyph glyph-name="quoteright" unicode="&#x2019;" horiz-adv-x="310" 
d="M56 430v77h56c43 0 60 24 60 63v10h-78v147h160v-162c0 -72 -50 -135 -137 -135h-61z" />
    <glyph glyph-name="quotesinglbase" unicode="&#x201a;" horiz-adv-x="302" 
d="M34 -150v77h56c43 0 60 24 60 63v10h-78v147h160v-162c0 -72 -50 -135 -137 -135h-61z" />
    <glyph glyph-name="guillemotleft.case" horiz-adv-x="671" 
d="M360 565l-161 -214l163 -216h-151l-165 215l165 215h149zM444 351l162 -216h-151l-165 215l165 215h149z" />
    <glyph glyph-name="guillemotright.case" horiz-adv-x="671" 
d="M216 565l165 -215l-165 -215h-149l160 214l-162 216h151zM460 565l165 -215l-165 -215h-149l160 214l-162 216h151z" />
    <glyph glyph-name="guilsinglleft.case" horiz-adv-x="427" 
d="M199 351l163 -216h-151l-165 215l165 215h149z" />
    <glyph glyph-name="guilsinglright.case" horiz-adv-x="427" 
d="M216 565l165 -215l-165 -215h-151l163 216l-161 214h149z" />
    <glyph glyph-name="uni2003" unicode="&#x2003;" horiz-adv-x="1000" 
 />
    <glyph glyph-name="uni2002" unicode="&#x2002;" horiz-adv-x="500" 
 />
    <glyph glyph-name="uni200A" unicode="&#x200a;" horiz-adv-x="75" 
 />
    <glyph glyph-name="uni00A0" unicode="&#xa0;" horiz-adv-x="262" 
 />
    <glyph glyph-name="uni2009" unicode="&#x2009;" horiz-adv-x="125" 
 />
    <glyph glyph-name="space.tnum" 
 />
    <glyph glyph-name="cent" unicode="&#xa2;" horiz-adv-x="641" 
d="M460 175h135c-16 -106 -118 -185 -259 -185h-7l-22 -110h-104l25 124c-117 32 -180 123 -180 246c0 145 106 256 279 260l22 110h104l-24 -121c93 -25 154 -87 166 -174h-135c-5 29 -24 50 -52 65l-58 -293c56 3 99 35 110 78zM250 117l56 284
c-81 -10 -124 -73 -124 -151c0 -56 24 -106 68 -133z" />
    <glyph glyph-name="currency" unicode="&#xa4;" horiz-adv-x="802" 
d="M656 173l93 -88l-90 -90l-94 89c-48 -28 -105 -44 -166 -44c-60 0 -116 15 -163 43l-92 -88l-90 90l90 85c-27 41 -40 86 -40 135c0 47 12 90 36 129l-86 86l90 90l90 -87c48 27 105 42 165 42c61 0 119 -16 167 -44l93 89l90 -90l-89 -89c23 -38 34 -80 34 -126
c0 -47 -13 -91 -38 -132zM559 305c0 87 -62 143 -156 143h-8c-94 0 -156 -56 -156 -143c0 -88 61 -148 156 -148h8c95 0 156 60 156 148z" />
    <glyph glyph-name="dollar" unicode="$" horiz-adv-x="741" 
d="M683 197c0 -134 -109 -207 -305 -207c-12 0 -21 0 -26 1l-23 -111h-117l26 125c-127 31 -198 109 -201 230h145c3 -51 31 -87 82 -107l35 170c-156 28 -223 84 -223 205c0 111 96 207 297 207h11l23 110h117l-26 -125c119 -29 188 -106 199 -215h-145
c-7 44 -35 76 -79 93l-34 -162c163 -27 244 -99 244 -214zM326 429l33 159c-91 -2 -144 -34 -144 -76c0 -48 32 -70 111 -83zM544 192c0 45 -37 72 -128 87h-4l-35 -167h8c108 0 159 31 159 80z" />
    <glyph glyph-name="Euro" unicode="&#x20ac;" horiz-adv-x="816" 
d="M626 220h138c-16 -144 -127 -230 -298 -230c-136 0 -237 60 -289 169l-128 -25v112l96 18c-4 23 -6 45 -6 66l-90 -17v112l97 18c32 166 149 267 320 267s282 -86 298 -230h-138c-9 73 -64 113 -156 113h-10c-80 0 -139 -44 -168 -123l196 37v-110l-215 -41v-6
c0 -21 1 -42 4 -61l169 32v-110l-132 -25c32 -52 83 -79 146 -79h10c92 0 147 40 156 113z" />
    <glyph glyph-name="florin" unicode="&#x192;" horiz-adv-x="508" 
d="M320 515l-8 -47h148v-114h-165l-55 -364c-22 -135 -73 -190 -196 -190h-101v117h81c55 0 73 18 81 68l57 369h-109v114h127l6 42c22 138 69 190 189 190h113v-117h-92c-54 0 -68 -16 -76 -68z" />
    <glyph glyph-name="sterling" unicode="&#xa3;" horiz-adv-x="675" 
d="M253 117h383v-117h-588v117h52c43 0 59 17 63 60l9 86l-124 -26v110l135 28l12 115c16 157 73 210 223 210h168v-117h-171c-58 0 -80 -20 -88 -98l-8 -81l144 30v-110l-156 -32l-10 -95c-5 -39 -13 -60 -44 -80z" />
    <glyph glyph-name="yen" unicode="&#xa5;" horiz-adv-x="775" 
d="M746 700l-193 -265l95 18v-110l-189 -37v-1v-62l159 31v-110l-159 -31v-133h-138v106l-160 -31v110l160 31v62l-190 -37v110l136 27l-234 322h159l199 -278l197 278h158z" />
    <glyph glyph-name="cent.tnum" 
d="M499 175h135c-16 -106 -118 -185 -259 -185h-7l-22 -110h-104l25 124c-117 32 -180 123 -180 246c0 145 106 256 279 260l22 110h104l-24 -121c93 -25 154 -87 166 -174h-135c-5 29 -24 50 -52 65l-58 -293c56 3 99 35 110 78zM289 117l56 284
c-81 -10 -124 -73 -124 -151c0 -56 24 -106 68 -133z" />
    <glyph glyph-name="currency.tnum" 
d="M590 214l83 -80l-81 -80l-84 80c-43 -25 -95 -40 -150 -40c-53 0 -105 14 -146 38l-83 -78l-81 80l80 77c-23 37 -35 77 -35 122c0 42 11 80 32 115l-77 78l81 81l81 -78c43 24 93 37 148 37c56 0 108 -14 151 -39l83 80l81 -81l-80 -81c21 -34 31 -71 31 -112
c0 -43 -11 -83 -34 -119zM502 333c0 76 -56 128 -140 128h-8c-84 0 -140 -52 -140 -128c0 -81 56 -134 140 -134h8c84 0 140 53 140 134z" />
    <glyph glyph-name="dollar.tnum" 
d="M641 197c0 -134 -99 -207 -275 -207c-11 0 -18 0 -23 1l-21 -111h-105l23 125c-113 31 -178 109 -181 230h131c3 -51 27 -87 74 -107l31 170c-140 28 -201 84 -201 205c0 111 88 207 268 207h10l20 110h106l-24 -125c107 -29 170 -106 179 -215h-130c-7 44 -32 76 -71 93
l-31 -162c147 -27 220 -99 220 -214zM319 429l30 159c-81 -2 -130 -34 -130 -76c0 -48 29 -70 100 -83zM516 192c0 45 -33 72 -116 87h-3l-32 -167h7c97 0 144 31 144 80z" />
    <glyph glyph-name="Euro.tnum" 
d="M539 220h137c-14 -144 -113 -230 -268 -230c-121 0 -211 58 -259 166l-107 -22v112l77 16c-3 25 -5 47 -6 66l-71 -15v112l78 15c26 169 133 270 288 270s254 -86 268 -230h-137c-9 75 -50 113 -129 113h-9c-67 0 -115 -44 -138 -124l207 41v-110l-222 -45v-5
c0 -23 1 -44 3 -61l177 35v-110l-146 -30c25 -51 67 -77 119 -77h9c77 0 120 38 129 113z" />
    <glyph glyph-name="sterling.tnum" 
d="M276 117h383v-117h-588v117h52c43 0 59 17 63 60l9 86l-124 -26v110l135 28l12 115c16 157 73 210 223 210h168v-117h-171c-58 0 -80 -20 -88 -98l-8 -81l144 30v-110l-156 -32l-10 -95c-5 -39 -13 -60 -44 -80z" />
    <glyph glyph-name="yen.tnum" 
d="M718 700l-193 -265l95 18v-110l-189 -37v-1v-62l159 31v-110l-159 -31v-133h-138v106l-160 -31v110l160 31v62l-190 -37v110l136 27l-234 322h159l199 -278l197 278h158z" />
    <glyph glyph-name="uni2219" unicode="&#x2219;" horiz-adv-x="632" 
d="M101 350c0 113 92 205 215 205s215 -92 215 -205s-92 -205 -215 -205s-215 92 -215 205z" />
    <glyph glyph-name="uni2215" unicode="&#x2215;" horiz-adv-x="512" 
d="M32 0l314 700h138l-314 -700h-138z" />
    <glyph glyph-name="plus" unicode="+" horiz-adv-x="641" 
d="M254 15v185h-210v115h210v185h133v-185h210v-115h-210v-185h-133z" />
    <glyph glyph-name="minus" unicode="&#x2212;" horiz-adv-x="698" 
d="M72 200v115h554v-115h-554z" />
    <glyph glyph-name="multiply" unicode="&#xd7;" horiz-adv-x="604" 
d="M551 116l-77 -89l-173 150l-171 -149l-76 87l160 139l-161 140l77 88l173 -150l172 149l75 -87l-159 -139z" />
    <glyph glyph-name="divide" unicode="&#xf7;" horiz-adv-x="664" 
d="M262 360v135h140v-135h-140zM55 200v115h554v-115h-554zM262 20v135h140v-135h-140z" />
    <glyph glyph-name="equal" unicode="=" 
d="M73 300v115h574v-115h-574zM73 100v115h574v-115h-574z" />
    <glyph glyph-name="notequal" unicode="&#x2260;" 
d="M647 300h-204l-37 -85h241v-115h-292l-37 -85h-129l37 85h-153v115h204l37 85h-241v115h292l37 85h129l-37 -85h153v-115z" />
    <glyph glyph-name="greater" unicode="&#x3e;" horiz-adv-x="617" 
d="M68 487l505 -170v-120l-505 -170v130l323 99l-323 98v133z" />
    <glyph glyph-name="less" unicode="&#x3c;" horiz-adv-x="617" 
d="M549 486v-130l-323 -98l323 -99v-133l-505 170v120z" />
    <glyph glyph-name="greaterequal" unicode="&#x2265;" horiz-adv-x="708" 
d="M70 525l574 -117v-160l-574 -117v125l390 71l-390 71v127zM70 0v113h574v-113h-574z" />
    <glyph glyph-name="lessequal" unicode="&#x2264;" horiz-adv-x="708" 
d="M638 525v-125l-390 -71l390 -71v-127l-574 117v160zM64 0v113h574v-113h-574z" />
    <glyph glyph-name="plusminus" unicode="&#xb1;" horiz-adv-x="692" 
d="M279 170v105h-210v115h210v110h133v-110h211v-115h-211v-105h-133zM69 0v114h554v-114h-554z" />
    <glyph glyph-name="approxequal" unicode="&#x2248;" horiz-adv-x="679" 
d="M329 307c-45 13 -68 19 -84 19c-25 0 -40 -13 -40 -38h-130v40c0 69 62 123 137 123c41 0 84 -11 147 -30c44 -13 62 -18 77 -18c25 0 40 13 40 38h130v-40c0 -69 -60 -123 -135 -123c-35 0 -78 10 -142 29zM329 89c-45 13 -68 19 -84 19c-25 0 -40 -14 -40 -38h-130v40
c0 69 62 123 137 123c41 0 80 -10 147 -30c44 -13 62 -18 77 -18c25 0 40 14 40 38h130v-40c0 -70 -60 -123 -135 -123c-35 0 -74 10 -142 29z" />
    <glyph glyph-name="asciitilde" unicode="~" horiz-adv-x="565" 
d="M319 356l-11 4l-34 11c-41 13 -60 19 -73 19c-21 0 -31 -11 -31 -40h-95v26c0 62 43 114 101 114c25 0 48 -5 84 -16l12 -4l38 -13l15 -4c20 -7 42 -13 51 -13c20 0 30 16 30 40h95v-26c0 -62 -42 -114 -105 -114c-27 0 -41 4 -77 16z" />
    <glyph glyph-name="logicalnot" unicode="&#xac;" horiz-adv-x="667" 
d="M456 115v135h-384v115h517v-250h-133z" />
    <glyph glyph-name="infinity" unicode="&#x221e;" horiz-adv-x="970" 
d="M53 360c0 109 89 190 210 190c101 0 164 -33 223 -101c57 68 121 101 221 101c121 0 210 -81 210 -190s-89 -190 -210 -190c-101 0 -164 33 -223 101c-57 -68 -121 -101 -221 -101c-120 0 -210 81 -210 190zM272 275h5c47 0 90 27 134 83c-49 63 -86 87 -134 87h-5
c-48 0 -94 -32 -94 -85c0 -54 46 -85 94 -85zM693 275h5c50 0 94 31 94 85c0 53 -44 85 -94 85h-5c-48 0 -90 -27 -134 -83c49 -63 86 -87 134 -87z" />
    <glyph glyph-name="integral" unicode="&#x222b;" horiz-adv-x="476" 
d="M18 -100v115h74c60 0 80 20 80 80v425c0 128 62 180 194 180h92v-115h-74c-60 0 -80 -20 -80 -80v-425c0 -128 -63 -180 -195 -180h-91z" />
    <glyph glyph-name="Omega" unicode="&#x2126;" horiz-adv-x="912" 
d="M66 0v117h123c-81 60 -128 138 -128 253c-3 195 173 343 395 340c223 3 399 -145 395 -340c0 -116 -49 -193 -133 -253h128v-117h-310v117c106 26 178 112 178 237c0 147 -98 234 -253 234h-10c-154 0 -253 -87 -253 -234c0 -125 75 -211 178 -237v-117h-310z" />
    <glyph glyph-name="Delta" unicode="&#x2206;" horiz-adv-x="831" 
d="M490 700l305 -610v-90h-759v90l305 610h149zM416 571l-231 -454h461z" />
    <glyph glyph-name="product" unicode="&#x220f;" horiz-adv-x="849" 
d="M158 0v583h-123v117h779v-117h-123v-583h-132v583h-269v-583h-132z" />
    <glyph glyph-name="summation" unicode="&#x2211;" horiz-adv-x="654" 
d="M597 700v-117h-367l206 -233l-209 -233h370v-117h-545v100l220 250l-220 255v95h545z" />
    <glyph glyph-name="radical" unicode="&#x221a;" horiz-adv-x="790" 
d="M772 700v-117h-245l-145 -583h-171l-190 500h132l138 -375l134 575h347z" />
    <glyph glyph-name="partialdiff" unicode="&#x2202;" horiz-adv-x="667" 
d="M615 302c0 -200 -116 -312 -288 -312c-173 0 -287 100 -287 251c-3 139 129 246 265 244c75 0 133 -22 168 -57c-18 119 -115 167 -215 167c-48 0 -111 -9 -143 -17v115c29 9 91 17 151 17c232 0 349 -173 349 -408zM484 240c0 80 -66 131 -153 131h-10
c-82 0 -148 -47 -148 -130c0 -85 71 -132 153 -132h5c83 0 153 42 153 131z" />
    <glyph glyph-name="mu" unicode="&#xb5;" horiz-adv-x="687" 
d="M86 -200v700h130v-287c0 -82 50 -118 109 -118h8c93 0 138 52 138 145v260h130v-500h-130v67c-39 -51 -96 -77 -171 -77c-29 0 -57 4 -84 11v-201h-130z" />
    <glyph glyph-name="percent" unicode="%" horiz-adv-x="1005" 
d="M36 502c0 107 59 203 189 203s189 -96 189 -203c0 -108 -59 -202 -189 -202s-189 94 -189 202zM191 0l500 700h127l-500 -700h-127zM223 392h4c52 0 79 39 79 110s-27 111 -79 111h-4c-51 0 -79 -40 -79 -111s27 -110 79 -110zM591 197c0 106 59 203 189 203
s189 -97 189 -203s-59 -202 -189 -202s-189 96 -189 202zM778 87h4c52 0 79 39 79 110s-27 111 -79 111h-4c-52 0 -79 -40 -79 -111s27 -110 79 -110z" />
    <glyph glyph-name="perthousand" unicode="&#x2030;" horiz-adv-x="1275" 
d="M225 300c-130 0 -189 94 -189 202c0 107 59 203 189 203s189 -96 189 -203c0 -108 -59 -202 -189 -202zM691 700h127l-500 -700h-127zM223 392h4c52 0 79 39 79 110s-27 111 -79 111h-4c-51 0 -79 -40 -79 -111s27 -110 79 -110zM1239 197c0 -106 -59 -202 -189 -202
c-57 0 -102 17 -135 52c-33 -35 -78 -52 -135 -52c-130 0 -189 96 -189 202s59 203 189 203c56 0 101 -17 135 -52c31 33 76 52 135 52c130 0 189 -97 189 -203zM861 197c0 71 -27 111 -79 111h-4c-52 0 -79 -40 -79 -111s27 -110 79 -110h4c52 0 79 39 79 110zM1131 197
c0 71 -28 111 -79 111h-4c-52 0 -79 -40 -79 -111s27 -110 79 -110h4c52 0 79 39 79 110z" />
    <glyph glyph-name="plus.case" horiz-adv-x="643" 
d="M255 108v185h-210v115h210v185h133v-185h210v-115h-210v-185h-133z" />
    <glyph glyph-name="minus.case" horiz-adv-x="698" 
d="M72 293v115h554v-115h-554z" />
    <glyph glyph-name="x.frac" horiz-adv-x="617" 
d="M557 209l-77 -89l-173 150l-171 -149l-76 87l160 139l-161 140l77 88l173 -150l172 149l75 -87l-159 -139z" />
    <glyph glyph-name="divide.case" horiz-adv-x="664" 
d="M262 453v135h140v-135h-140zM55 293v115h554v-115h-554zM262 113v135h140v-135h-140z" />
    <glyph glyph-name="equal.case" horiz-adv-x="718" 
d="M72 393v115h574v-115h-574zM72 193v115h574v-115h-574z" />
    <glyph glyph-name="notequal.case" horiz-adv-x="734" 
d="M654 393h-204l-37 -85h241v-115h-292l-37 -85h-129l37 85h-153v115h204l37 85h-241v115h292l37 85h129l-37 -85h153v-115z" />
    <glyph glyph-name="greater.case" horiz-adv-x="633" 
d="M82 580l505 -170v-120l-505 -170v130l323 99l-323 98v133z" />
    <glyph glyph-name="less.case" horiz-adv-x="633" 
d="M551 579v-130l-323 -98l323 -99v-133l-505 170v120z" />
    <glyph glyph-name="greaterequal.case" horiz-adv-x="732" 
d="M83 618l574 -117v-160l-574 -117v125l390 71l-390 71v127zM83 93v113h574v-113h-574z" />
    <glyph glyph-name="lessequal.case" horiz-adv-x="732" 
d="M649 618v-125l-390 -71l390 -71v-127l-574 117v160zM75 93v113h574v-113h-574z" />
    <glyph glyph-name="plusminus.case" horiz-adv-x="714" 
d="M290 263v105h-210v115h210v110h133v-110h211v-115h-211v-105h-133zM80 93v114h554v-114h-554z" />
    <glyph glyph-name="approxequal.case" horiz-adv-x="676" 
d="M330 400c-45 13 -68 19 -84 19c-25 0 -40 -13 -40 -38h-130v40c0 69 62 123 137 123c41 0 84 -11 147 -30c44 -13 62 -18 77 -18c25 0 40 13 40 38h130v-40c0 -69 -60 -123 -135 -123c-35 0 -78 10 -142 29zM330 182c-45 13 -68 19 -84 19c-25 0 -40 -14 -40 -38h-130v40
c0 69 62 123 137 123c41 0 80 -10 147 -30c44 -13 62 -18 77 -18c25 0 40 14 40 38h130v-40c0 -70 -60 -123 -135 -123c-35 0 -74 10 -142 29z" />
    <glyph glyph-name="logicalnot.case" horiz-adv-x="657" 
d="M447 208v135h-384v115h517v-250h-133z" />
    <glyph glyph-name="x.tnum" 
d="M609 208l-77 -89l-173 150l-171 -149l-76 87l160 139l-161 140l77 88l173 -151l172 150l75 -87l-159 -139z" />
    <glyph glyph-name="plus.tnum" 
d="M293 108v185h-210v115h210v185h133v-185h210v-115h-210v-185h-133z" />
    <glyph glyph-name="minus.tnum" 
d="M83 293v115h554v-115h-554z" />
    <glyph glyph-name="multiply.tnum" 
d="M609 208l-77 -89l-173 150l-171 -149l-76 87l160 139l-161 140l77 88l173 -151l172 150l75 -87l-159 -139z" />
    <glyph glyph-name="divide.tnum" 
d="M290 454v135h140v-135h-140zM83 294v115h554v-115h-554zM290 114v135h140v-135h-140z" />
    <glyph glyph-name="equal.tnum" 
d="M91 393v115h539v-115h-539zM91 193v115h539v-115h-539z" />
    <glyph glyph-name="notequal.tnum" 
d="M629 393h-186l-37 -85h223v-115h-274l-37 -85h-129l37 85h-136v115h187l37 85h-224v115h275l37 85h129l-37 -85h135v-115z" />
    <glyph glyph-name="greater.tnum" 
d="M125 578l505 -170v-120l-505 -170v130l323 99l-323 98v133z" />
    <glyph glyph-name="less.tnum" 
d="M594 576v-130l-323 -98l323 -99v-133l-505 170v120z" />
    <glyph glyph-name="greaterequal.tnum" 
d="M92 606l544 -117v-160l-544 -117v125l368 71l-368 71v127zM92 81v113h544v-113h-544z" />
    <glyph glyph-name="lessequal.tnum" 
d="M628 606v-125l-367 -71l367 -71v-127l-544 117v160zM84 81v113h544v-113h-544z" />
    <glyph glyph-name="plusminus.tnum" 
d="M293 277v105h-200v115h200v110h133v-110h201v-115h-201v-105h-133zM93 107v114h534v-114h-534z" />
    <glyph glyph-name="approxequal.tnum" 
d="M355 403c-39 13 -60 19 -76 19c-25 0 -40 -14 -40 -38h-130v40c0 69 62 123 137 123c41 0 76 -10 135 -30c37 -12 54 -18 69 -18c25 0 40 14 40 38h130v-40c0 -70 -60 -123 -135 -123c-35 0 -70 10 -130 29zM355 185c-39 13 -60 19 -76 19c-25 0 -40 -13 -40 -38h-130v40
c0 69 62 123 137 123c41 0 79 -11 135 -30c37 -12 54 -18 69 -18c25 0 40 13 40 38h130v-40c0 -69 -60 -123 -135 -123c-36 0 -73 10 -130 29z" />
    <glyph glyph-name="logicalnot.tnum" 
d="M481 158v135h-384v115h517v-250h-133z" />
    <glyph glyph-name="percent.tnum" 
d="M74 550c0 93 70 155 160 155s160 -62 160 -155c0 -94 -70 -155 -160 -155s-160 61 -160 155zM231 470h6c45 0 72 32 72 80c0 49 -27 80 -72 80h-6c-48 0 -72 -31 -72 -80s24 -80 72 -80zM180 221v86l360 170v-86zM326 150c0 93 70 155 160 155s160 -62 160 -155
s-70 -155 -160 -155s-160 62 -160 155zM483 70h6c44 0 72 32 72 80c0 49 -28 80 -72 80h-6c-48 0 -72 -31 -72 -80s24 -80 72 -80z" />
    <glyph glyph-name="perthousand.tnum" 
d="M19 554c0 97 69 151 151 151s151 -54 151 -151s-69 -153 -151 -153s-151 56 -151 153zM167 476h5c40 0 64 32 64 77c0 47 -24 77 -64 77h-5c-41 0 -63 -29 -63 -77c0 -47 22 -77 63 -77zM76 222v86l360 170v-86zM191 149c0 96 68 151 145 151c50 0 88 -16 115 -49
c26 33 64 49 114 49c76 0 145 -55 145 -151c0 -97 -69 -154 -151 -154c-44 0 -83 14 -108 45c-27 -31 -65 -45 -109 -45c-82 0 -151 57 -151 154zM339 70h5c40 0 64 31 64 78s-24 77 -64 77h-5c-41 0 -63 -29 -63 -77s22 -78 63 -78zM556 70h5c40 0 64 31 64 78
c0 48 -24 77 -64 77h-5c-41 0 -63 -29 -63 -77s22 -78 63 -78z" />
    <glyph glyph-name="arrowup" unicode="&#x2191;" horiz-adv-x="790" 
d="M329 0v501l-156 -160l-88 87l311 311l309 -311l-88 -87l-156 160v-501h-132z" />
    <glyph glyph-name="uni2197" unicode="&#x2197;" horiz-adv-x="672" 
d="M49 224l354 354l-223 -3v124h439l-1 -438h-124l3 224l-354 -354z" />
    <glyph glyph-name="arrowright" unicode="&#x2192;" horiz-adv-x="947" 
d="M616 662l311 -311l-311 -309l-87 88l160 156h-659v132h659l-160 156z" />
    <glyph glyph-name="uni2198" unicode="&#x2198;" horiz-adv-x="672" 
d="M143 569l354 -355l-3 224h124v-439l-438 1v124l224 -3l-354 355z" />
    <glyph glyph-name="arrowdown" unicode="&#x2193;" horiz-adv-x="790" 
d="M461 700v-501l156 160l88 -87l-311 -311l-309 311l88 87l156 -160v501h132z" />
    <glyph glyph-name="uni2199" unicode="&#x2199;" horiz-adv-x="673" 
d="M623 476l-354 -355l223 3v-124h-439l1 438h124l-3 -224l355 355z" />
    <glyph glyph-name="arrowleft" unicode="&#x2190;" horiz-adv-x="947" 
d="M331 41l-311 311l311 309l87 -88l-160 -156h659v-132h-659l160 -156z" />
    <glyph glyph-name="uni2196" unicode="&#x2196;" horiz-adv-x="672" 
d="M528 130l-354 354l3 -223h-124v439l438 -1v-124l-224 3l355 -354z" />
    <glyph glyph-name="uni21A4" unicode="&#x21a4;" horiz-adv-x="1012" 
d="M341 41l-311 311l311 309l87 -88l-160 -156h527v185h132v-502h-132v185h-527l160 -156z" />
    <glyph glyph-name="uni21A5" unicode="&#x21a5;" horiz-adv-x="855" 
d="M176 0v133h185v368l-156 -160l-88 87l311 311l309 -311l-88 -87l-156 160v-368h185v-133h-502z" />
    <glyph glyph-name="uni21A6" unicode="&#x21a6;" horiz-adv-x="1012" 
d="M671 663l311 -311l-311 -309l-87 88l160 156h-527v-185h-132v502h132v-185h527l-160 156z" />
    <glyph glyph-name="uni21A7" unicode="&#x21a7;" horiz-adv-x="855" 
d="M679 700v-133h-185v-368l156 160l88 -87l-311 -311l-309 311l88 87l156 -160v368h-185v133h502z" />
    <glyph glyph-name="uni21B0" unicode="&#x21b0;" horiz-adv-x="1002" 
d="M785 0v285h-527l160 -156l-87 -88l-311 311l311 309l87 -88l-160 -156h659v-417h-132z" />
    <glyph glyph-name="uni21B1" unicode="&#x21b1;" horiz-adv-x="1002" 
d="M85 0v415h659l-160 156l87 90l311 -311l-311 -311l-87 88l160 156h-527v-283h-132z" />
    <glyph glyph-name="uni21B2" unicode="&#x21b2;" horiz-adv-x="1002" 
d="M917 700v-415h-659l160 -156l-87 -90l-311 311l311 311l87 -88l-160 -156h527v283h132z" />
    <glyph glyph-name="uni21B3" unicode="&#x21b3;" horiz-adv-x="1002" 
d="M217 700v-285h527l-160 156l87 88l311 -311l-311 -309l-87 88l160 156h-659v417h132z" />
    <glyph glyph-name="lozenge" unicode="&#x25ca;" horiz-adv-x="739" 
d="M310 0l-275 350l275 350h124l270 -350l-270 -350h-124zM372 121l180 225l-183 234l-181 -229z" />
    <glyph glyph-name="triagup" unicode="&#x25b2;" horiz-adv-x="840" 
d="M15 0l405 720l405 -720h-810z" />
    <glyph glyph-name="uniF8FF" unicode="&#xf8ff;" horiz-adv-x="958" 
d="M948 707c37 0 75 -10 90 -22c0 -5 -1 -25 -4 -28c-5 -5 -15 -7 -31 -7c-13 0 -24 1 -33 4c2 -52 -21 -110 -77 -104c-11 -36 -33 -61 -66 -76c-33 -14 -68 -21 -106 -21c-8 0 -17 0 -27 1c0 -1 6 -21 17 -58s20 -82 27 -136l14 -16c27 -31 50 -55 67 -70
c28 -25 52 -58 60 -78c1 -3 2 -7 2 -11c0 -9 -6 -15 -19 -18c-28 16 -46 35 -81 74c-21 24 -37 41 -47 50v-14c0 -32 4 -57 15 -104c6 -25 10 -44 11 -56c-9 -8 -19 -12 -29 -12c-7 0 -12 3 -13 9c-19 33 -27 91 -35 171c-1 20 -3 31 -4 34c-8 1 -37 -1 -86 -6
s-101 -10 -154 -17s-94 -14 -123 -21c-2 -45 19 -74 52 -114c29 -39 45 -61 54 -93c-4 -5 -10 -11 -21 -11c-5 0 -11 2 -16 6c-15 8 -25 22 -50 57l-18 26c-9 13 -16 24 -25 45c-7 16 -12 25 -17 28c-32 -95 -53 -143 -63 -142h-8c-15 0 -23 7 -22 20c1 19 8 46 19 80
c12 35 26 67 43 96l-40 4c-69 5 -121 12 -154 39c-1 1 -6 7 -10 14c12 13 19 18 36 29c3 1 7 4 12 7c12 17 22 25 50 46c27 20 42 32 55 52c-5 4 -14 9 -29 16c-37 19 -58 31 -65 50l9 19c5 5 48 -13 91 -34c1 5 1 13 2 25c1 24 4 39 8 46c2 8 34 13 37 13
c5 -3 11 -11 11 -15c1 -6 -1 -18 -5 -35c0 -7 -5 -31 -5 -47v-9c28 3 54 10 109 29c49 16 95 30 138 41c44 11 95 20 154 27c-13 23 -20 50 -20 77c0 25 6 43 17 56c88 2 133 -37 133 -86c0 -11 -2 -22 -6 -33c27 1 61 22 65 38c-5 5 -14 11 -27 19c-17 9 -26 16 -31 33
c-11 12 -16 25 -16 39c0 23 16 44 43 55c11 3 20 5 28 5c41 0 68 -35 68 -84c0 -5 0 -11 -1 -18c16 8 24 36 24 83c0 7 0 18 -1 31c8 1 16 2 24 2zM858 605c0 21 -14 41 -37 48c-4 -6 -6 -13 -6 -20c0 -21 20 -42 40 -45c2 5 3 11 3 17zM739 543c-16 16 -37 28 -57 28
c-3 -8 -4 -16 -4 -25c0 -15 5 -31 12 -38c2 -2 5 -3 10 -3c6 0 14 1 25 4c0 -1 14 8 14 34zM426 241c119 19 186 28 257 28c-2 15 -6 31 -11 46c-3 8 -4 18 -8 31c-2 12 -4 25 -5 38c-3 25 -6 36 -18 51c-46 -4 -87 -10 -123 -17c-35 -7 -65 -15 -89 -23
c-23 -7 -50 -17 -80 -28c-31 -12 -55 -20 -74 -25c5 -19 13 -52 23 -99l4 -19c29 3 77 10 124 17zM231 225c5 0 11 0 18 1c-5 15 -12 36 -13 41c-6 23 -11 40 -16 50l-30 -26c-25 -23 -40 -35 -52 -55c52 -8 72 -11 93 -11z" />
    <glyph glyph-name="at" unicode="@" horiz-adv-x="1075" 
d="M49 305c-5 258 223 428 495 425c277 3 483 -163 479 -370c4 -170 -127 -266 -227 -265h-143v55c-29 -39 -90 -65 -154 -65c-122 0 -212 98 -212 213c0 114 90 212 212 212c64 0 125 -26 154 -65v55h115v-315h19c46 0 116 52 116 175c0 154 -127 265 -359 265
c-225 0 -375 -127 -375 -320c0 -202 156 -320 384 -320h315v-110h-324c-291 0 -495 146 -495 430zM527 184h8c70 0 113 56 113 114c0 56 -43 113 -113 113h-8c-67 0 -112 -47 -112 -113c0 -69 45 -114 112 -114z" />
    <glyph glyph-name="ampersand" unicode="&#x26;" horiz-adv-x="770" 
d="M50 185c0 83 52 145 133 170c-77 27 -128 84 -128 165c0 112 92 180 204 180h197v-105h-157c-69 0 -114 -30 -114 -91c0 -63 46 -96 114 -96h184v121h130v-121h134v-105h-134v-303h-352c-112 0 -211 72 -211 185zM299 105h184v198h-184c-71 0 -119 -32 -119 -97
c0 -67 50 -101 119 -101z" />
    <glyph glyph-name="paragraph" unicode="&#xb6;" horiz-adv-x="778" 
d="M267 -200v474h-26c-120 0 -209 97 -209 213c0 117 90 213 213 213h486v-105h-95v-795h-132v795h-105v-795h-132z" />
    <glyph glyph-name="section" unicode="&#xa7;" horiz-adv-x="610" 
d="M85 -60v105h263c36 0 54 16 54 43c0 21 -15 36 -47 45l-179 46c-92 24 -131 72 -131 140c0 49 32 95 87 126c-40 29 -54 68 -54 111c0 79 54 144 190 144h240v-105h-243c-35 0 -54 -16 -54 -43c0 -21 14 -36 47 -45l188 -50c84 -21 122 -67 122 -127
c0 -57 -32 -104 -87 -135c36 -27 54 -64 54 -111c0 -79 -54 -144 -190 -144h-260zM435 310c0 27 -20 45 -59 54l-142 35c-39 -13 -56 -41 -56 -69s23 -45 59 -54l142 -35c39 13 56 42 56 69z" />
    <glyph glyph-name="copyright" unicode="&#xa9;" horiz-adv-x="1045" 
d="M48 351c-4 221 209 393 475 390c267 3 479 -169 474 -390c5 -221 -207 -394 -474 -390c-266 -4 -479 169 -475 390zM905 351c4 171 -176 306 -382 303c-208 3 -387 -132 -383 -303c-4 -172 175 -306 383 -303c206 -3 386 131 382 303zM309 356c0 107 65 203 207 203
c125 0 190 -61 201 -149h-113c-8 36 -38 57 -86 57h-4c-56 0 -96 -35 -96 -111s40 -111 96 -111h4c48 0 79 21 87 60h112c-12 -86 -71 -152 -201 -152c-142 0 -207 96 -207 203z" />
    <glyph glyph-name="registered" unicode="&#xae;" horiz-adv-x="1045" 
d="M48 351c-4 221 209 393 475 390c267 3 479 -169 474 -390c5 -221 -207 -394 -474 -390c-266 -4 -479 169 -475 390zM905 351c4 171 -176 306 -382 303c-208 3 -387 -132 -383 -303c-4 -172 175 -306 383 -303c206 -3 386 131 382 303zM354 163v386h205
c84 0 134 -46 134 -111c0 -53 -33 -85 -81 -96c52 0 76 -17 76 -60v-119h-104v99c0 27 -7 35 -35 35h-91v-134h-104zM458 383h84c29 0 47 14 47 39c0 24 -18 38 -49 38h-82v-77z" />
    <glyph glyph-name="uni2117" unicode="&#x2117;" horiz-adv-x="1045" 
d="M48 351c-4 221 209 393 475 390c267 3 479 -169 474 -390c5 -221 -207 -394 -474 -390c-266 -4 -479 169 -475 390zM905 351c4 171 -176 306 -382 303c-208 3 -387 -132 -383 -303c-4 -172 175 -306 383 -303c206 -3 386 131 382 303zM376 165v381h197
c84 0 140 -56 140 -129s-56 -126 -140 -126h-92v-126h-105zM481 377h86c23 0 41 16 41 40s-19 40 -43 40h-84v-80z" />
    <glyph glyph-name="trademark" unicode="&#x2122;" horiz-adv-x="1134" 
d="M39 600v100h425v-100h-155v-280h-115v280h-155zM902 700h152v-380h-113v227l-116 -227h-64l-120 233v-233h-113v380h152l113 -216z" />
    <glyph glyph-name="uni2105" unicode="&#x2105;" horiz-adv-x="839" 
d="M27 557c0 97 71 148 170 148c96 0 141 -48 152 -113h-101c-8 20 -23 33 -54 33h-4c-43 0 -61 -29 -61 -68s18 -67 61 -67h4c31 0 47 10 54 30h101c-12 -64 -56 -110 -152 -110c-99 0 -170 50 -170 147zM135 0l463 700h103l-463 -700h-103zM475 142c0 84 66 148 169 148
s169 -64 169 -148c0 -82 -66 -147 -169 -147s-169 65 -169 147zM642 75h4c40 0 65 24 65 67s-25 68 -65 68h-4c-40 0 -65 -25 -65 -68s25 -67 65 -67z" />
    <glyph glyph-name="degree" unicode="&#xb0;" horiz-adv-x="458" 
d="M44 525c0 104 81 185 185 185s185 -81 185 -185s-81 -185 -185 -185s-185 81 -185 185zM300 525c0 40 -31 72 -71 72s-71 -32 -71 -72c0 -44 31 -77 71 -77s71 33 71 77z" />
    <glyph glyph-name="bar" unicode="|" horiz-adv-x="304" 
d="M86 -85v870h132v-870h-132z" />
    <glyph glyph-name="brokenbar" unicode="&#xa6;" horiz-adv-x="308" 
d="M88 415v370h132v-370h-132zM88 -85v380h132v-380h-132z" />
    <glyph glyph-name="dagger" unicode="&#x2020;" horiz-adv-x="626" 
d="M248 -85v540h-195v110h195v220h130v-220h195v-110h-195v-540h-130z" />
    <glyph glyph-name="uni2113" unicode="&#x2113;" horiz-adv-x="514" 
d="M293 115h131v-115h-195c-71 0 -107 36 -107 105v67l-75 -45v135l75 45v232c0 109 67 171 186 171c130 0 181 -84 181 -183c0 -92 -53 -166 -157 -229l-78 -47v-96c0 -31 10 -40 39 -40zM254 546v-162c79 51 102 86 102 140c0 45 -21 71 -54 71c-31 0 -48 -20 -48 -49z
" />
    <glyph glyph-name="daggerdbl" unicode="&#x2021;" horiz-adv-x="626" 
d="M247 -85v220h-195v110h195v210h-195v110h195v220h132v-220h195v-110h-195v-210h195v-110h-195v-220h-132z" />
    <glyph glyph-name="uni2116" unicode="&#x2116;" horiz-adv-x="1220" 
d="M832 557c0 84 67 148 169 148c104 0 169 -64 169 -148c0 -82 -65 -147 -169 -147c-102 0 -169 65 -169 147zM627 186v514h138v-700h-170l-364 523v-523h-138v700h176zM934 557c0 -43 25 -67 65 -67h4c41 0 65 24 65 67s-24 68 -65 68h-4c-40 0 -65 -25 -65 -68zM838 270
v80h327v-80h-327z" />
    <glyph glyph-name="asciicircum" unicode="^" horiz-adv-x="606" 
d="M570 285h-139l-129 266l-129 -266h-137l205 415h124z" />
    <glyph glyph-name="_662" horiz-adv-x="661" 
d="M45 509c0 135 122 235 286 235c163 0 285 -100 285 -235c0 -136 -122 -235 -285 -235c-161 -3 -289 101 -286 235zM561 509c0 105 -104 183 -230 183c-127 0 -231 -78 -231 -183c0 -104 104 -183 231 -183c126 0 230 79 230 183zM205 512c0 64 40 122 125 122
c76 0 114 -37 121 -89h-68c-5 23 -23 34 -52 34h-2c-33 0 -58 -22 -58 -67s25 -67 58 -67h2c29 0 48 13 53 36h67c-7 -53 -45 -91 -121 -91c-85 0 -125 58 -125 122z" />
    <glyph glyph-name="_663" horiz-adv-x="661" 
d="M45 509c0 135 122 235 286 235c163 0 285 -100 285 -235c0 -136 -122 -235 -285 -235c-161 -3 -289 101 -286 235zM561 509c0 105 -104 183 -230 183c-127 0 -231 -78 -231 -183c0 -104 104 -183 231 -183c126 0 230 79 230 183zM233 396v232h123c49 0 81 -28 81 -64
c0 -31 -19 -51 -48 -59c31 0 45 -11 45 -38v-71h-63v57c0 16 -6 23 -23 23h-53v-80h-62zM295 528h50c17 0 29 9 29 24s-11 23 -30 23h-49v-47z" />
    <glyph glyph-name="_664" horiz-adv-x="661" 
d="M45 509c0 135 122 235 286 235c163 0 285 -100 285 -235c0 -136 -122 -235 -285 -235c-161 -3 -289 101 -286 235zM561 509c0 105 -104 183 -230 183c-127 0 -231 -78 -231 -183c0 -104 104 -183 231 -183c126 0 230 79 230 183zM246 397v229h119c50 0 84 -33 84 -77
s-33 -76 -84 -76h-56v-76h-63zM309 525h52c13 0 25 9 25 24s-13 24 -26 24h-51v-48z" />
    <glyph glyph-name="at.case" horiz-adv-x="1061" 
d="M52 335c-5 258 223 428 495 425c277 3 483 -163 479 -370c4 -170 -127 -266 -227 -265h-143v55c-29 -39 -90 -65 -154 -65c-122 0 -212 98 -212 213c0 114 90 212 212 212c64 0 125 -26 154 -65v55h115v-315h19c46 0 116 52 116 175c0 154 -127 265 -359 265
c-225 0 -375 -127 -375 -320c0 -202 156 -320 384 -320h315v-110h-324c-291 0 -495 146 -495 430zM530 214h8c70 0 113 56 113 114c0 56 -43 113 -113 113h-8c-67 0 -112 -47 -112 -113c0 -69 45 -114 112 -114z" />
    <glyph glyph-name="_666" horiz-adv-x="917" 
d="M49 333c-3 256 184 430 445 427c235 3 357 -130 355 -251v-384h-120v69c-39 -48 -99 -79 -172 -79c-120 0 -218 87 -218 215c0 126 96 210 213 210c78 0 137 -27 177 -80v36c0 86 -78 154 -238 154h-8c-195 0 -309 -125 -309 -315c-3 -185 142 -323 325 -320h350v-110
h-360c-243 -4 -443 174 -440 428zM589 215h7c70 0 124 50 124 115c0 67 -52 110 -124 110h-7c-73 0 -125 -43 -125 -110c0 -65 52 -115 125 -115z" />
    <glyph glyph-name="ampersand.ss04" horiz-adv-x="785" 
d="M781 0h-171l-64 57c-63 -44 -139 -67 -226 -67c-175 0 -272 78 -272 202c0 82 47 142 142 181c-53 49 -78 94 -78 165c0 103 100 172 219 172c121 0 221 -68 221 -177c0 -87 -55 -154 -151 -197l135 -119c27 45 40 101 40 161v22h125v-27c0 -92 -26 -173 -73 -237z
M244 527c0 -41 23 -70 67 -110l7 2c63 23 102 59 102 108c0 47 -30 78 -89 78s-87 -31 -87 -78zM458 135l-175 154l-38 -15c-41 -17 -65 -40 -65 -81c0 -51 47 -98 137 -98c53 0 100 13 141 40z" />
    <glyph glyph-name="at.ss06" horiz-adv-x="922" 
d="M49 303c-3 256 184 430 445 427c235 3 357 -130 355 -251v-384h-120v69c-39 -48 -99 -79 -172 -79c-120 0 -218 87 -218 215c0 126 96 210 213 210c78 0 137 -27 177 -80v36c0 86 -78 154 -238 154h-8c-195 0 -309 -125 -309 -315c-3 -185 142 -323 325 -320h350v-110
h-360c-243 -4 -443 174 -440 428zM589 185h7c70 0 124 50 124 115c0 67 -52 110 -124 110h-7c-73 0 -125 -43 -125 -110c0 -65 52 -115 125 -115z" />
    <glyph glyph-name="section.tnum" 
d="M150 -60v105h243c35 0 54 16 54 43c0 21 -15 34 -47 45l-159 46c-92 27 -131 73 -131 140c0 51 33 96 90 127c-43 31 -57 66 -57 110c0 79 54 144 190 144h220v-105h-223c-35 0 -54 -16 -54 -43c0 -21 14 -34 47 -45l168 -50c81 -24 122 -66 122 -127
c0 -59 -33 -105 -90 -136c43 -31 57 -67 57 -110c0 -79 -54 -144 -190 -144h-240zM480 310c0 29 -23 43 -59 54l-121 35c-40 -13 -57 -41 -57 -69s22 -43 59 -54l121 -35c40 13 57 42 57 69z" />
    <glyph glyph-name="degree.tnum" 
d="M175 525c0 104 81 185 185 185s185 -81 185 -185s-81 -185 -185 -185s-185 81 -185 185zM431 525c0 40 -31 72 -71 72s-71 -32 -71 -72c0 -44 31 -77 71 -77s71 33 71 77z" />
    <glyph glyph-name="uni0308" unicode="&#x308;" horiz-adv-x="0" 
d="M-388 564v131h132v-131h-132zM-161 564v131h132v-131h-132z" />
    <glyph glyph-name="uni0307" unicode="&#x307;" horiz-adv-x="0" 
d="M-172 561v139h143v-139h-143z" />
    <glyph glyph-name="gravecomb" unicode="&#x300;" horiz-adv-x="0" 
d="M-123 551l-120 150h152l65 -150h-97z" />
    <glyph glyph-name="acutecomb" unicode="&#x301;" horiz-adv-x="0" 
d="M-244 551l65 150h152l-120 -150h-97z" />
    <glyph glyph-name="uni030B" unicode="&#x30b;" horiz-adv-x="0" 
d="M-443 551l65 150h152l-120 -150h-97zM-252 551l65 150h152l-120 -150h-97z" />
    <glyph glyph-name="_676" horiz-adv-x="0" 
d="M-210 453v75h33c36 0 52 15 52 39v1h-60v132h140v-132c0 -67 -52 -115 -127 -115h-38z" />
    <glyph glyph-name="uni0302" unicode="&#x302;" horiz-adv-x="0" 
d="M-458 551l155 150h125l156 -150h-112l-105 70l-107 -70h-112z" />
    <glyph glyph-name="uni030C" unicode="&#x30c;" horiz-adv-x="0" 
d="M-311 551l-155 150h112l107 -70l105 70h112l-156 -150h-125z" />
    <glyph glyph-name="uni0306" unicode="&#x306;" horiz-adv-x="0" 
d="M-400 707h112c3 -39 29 -59 77 -59c49 0 74 20 77 59h112c-2 -97 -79 -156 -189 -156s-187 59 -189 156z" />
    <glyph glyph-name="uni030A" unicode="&#x30a;" horiz-adv-x="0" 
d="M-287 664c0 58 54 113 129 113s129 -55 129 -113c0 -64 -53 -113 -129 -113c-75 0 -129 49 -129 113zM-106 664c0 24 -22 43 -51 43c-28 0 -52 -20 -52 -43s24 -43 52 -43c29 0 51 19 51 43z" />
    <glyph glyph-name="tildecomb" unicode="&#x303;" horiz-adv-x="0" 
d="M-226 575l-36 14l-15 6c-17 8 -25 10 -38 10c-21 0 -33 -19 -33 -44h-96v28c0 62 53 116 115 116c29 0 45 -4 70 -15l15 -6l34 -13c4 -1 10 -4 19 -8c21 -9 30 -12 39 -12c21 0 32 19 32 44h96v-28c0 -64 -37 -116 -109 -116c-25 0 -48 7 -93 24z" />
    <glyph glyph-name="uni0304" unicode="&#x304;" horiz-adv-x="0" 
d="M-385 565v105h355v-105h-355z" />
    <glyph glyph-name="uni0312" unicode="&#x312;" horiz-adv-x="0" 
d="M4 816v-75h-33c-35 0 -52 -15 -52 -39v-1h60v-132h-140v132c0 67 54 115 127 115h38z" />
    <glyph glyph-name="dotbelowcomb" unicode="&#x323;" horiz-adv-x="0" 
d="M-176 -195v130h146v-130h-146z" />
    <glyph glyph-name="uni0326" unicode="&#x326;" horiz-adv-x="0" 
d="M-195 -309v75h33c36 0 52 15 52 39v1h-60v132h140v-132c0 -67 -52 -115 -127 -115h-38z" />
    <glyph glyph-name="uni0327" unicode="&#x327;" horiz-adv-x="0" 
d="M-241 -245v75h97c25 0 43 10 43 30c0 16 -14 30 -38 30h-57v125h72v-60c52 0 98 -32 98 -95c0 -65 -53 -105 -123 -105h-92z" />
    <glyph glyph-name="uni0328" unicode="&#x328;" horiz-adv-x="0" 
d="M-220 -120c0 65 51 110 110 135l65 -15c-49 -28 -85 -54 -85 -90c0 -32 27 -50 55 -50h45v-80h-65c-70 0 -125 43 -125 100z" />
    <glyph glyph-name="uni0335" unicode="&#x335;" horiz-adv-x="0" 
d="M-604 323v115h574v-115h-574z" />
    <glyph glyph-name="uni0336" unicode="&#x336;" horiz-adv-x="0" 
d="M-883 492v115h853v-115h-853z" />
    <glyph glyph-name="uni0337" unicode="&#x337;" horiz-adv-x="0" 
d="M-335 258v120l305 164v-120z" />
    <glyph glyph-name="uni0338" unicode="&#x338;" horiz-adv-x="0" 
d="M-765 -48l-87 90l727 708l87 -90z" />
    <glyph glyph-name="_692" horiz-adv-x="0" 
d="M-457 290v120h427v-120h-427z" />
    <glyph glyph-name="_693" horiz-adv-x="0" 
d="M-506 182v135l476 224v-134z" />
    <glyph glyph-name="_694" horiz-adv-x="0" 
d="M-561 -35l-72 86l524 486l72 -86z" />
    <glyph glyph-name="_695" horiz-adv-x="0" 
d="M-437 557v93h408v-93h-408z" />
    <glyph glyph-name="_696" horiz-adv-x="0" 
d="M-394 765v120h132v-120h-132zM-162 765v120h132v-120h-132z" />
    <glyph glyph-name="_697" horiz-adv-x="0" 
d="M-173 759v139h143v-139h-143z" />
    <glyph glyph-name="_698" horiz-adv-x="0" 
d="M-116 745l-115 145h157l50 -145h-92z" />
    <glyph glyph-name="_699" horiz-adv-x="0" 
d="M-232 745l50 145h157l-115 -145h-92z" />
    <glyph glyph-name="_700" horiz-adv-x="0" 
d="M-464 745l50 145h157l-115 -145h-92zM-242 745l50 145h157l-115 -145h-92z" />
    <glyph glyph-name="_701" horiz-adv-x="0" 
d="M-409 745l130 145h144l130 -145h-112l-90 60l-90 -60h-112z" />
    <glyph glyph-name="_702" horiz-adv-x="0" 
d="M-279 745l-130 145h112l90 -60l90 60h112l-130 -145h-144z" />
    <glyph glyph-name="_703" horiz-adv-x="0" 
d="M-392 895h110c5 -36 34 -55 75 -55s70 19 75 55h110c-2 -91 -75 -150 -185 -150s-183 59 -185 150z" />
    <glyph glyph-name="_704" horiz-adv-x="0" 
d="M-267 855c0 57 55 110 125 110s125 -53 125 -110c0 -62 -55 -110 -125 -110s-125 48 -125 110zM-93 855c0 21 -22 40 -49 40c-28 0 -50 -19 -50 -40s22 -40 50 -40c27 0 49 19 49 40z" />
    <glyph glyph-name="_705" horiz-adv-x="0" 
d="M-240 769l-36 14l-17 7c-15 5 -23 9 -36 9c-29 0 -43 -20 -43 -44h-96v28c0 61 58 116 125 116c29 0 44 -4 71 -15l14 -6l34 -13l16 -7c23 -9 31 -13 42 -13c28 0 42 19 42 44h96v-28c0 -64 -42 -116 -113 -116c-32 0 -55 7 -99 24z" />
    <glyph glyph-name="_706" horiz-adv-x="0" 
d="M-380 765v110h355v-110h-355z" />
    <glyph glyph-name="_707" horiz-adv-x="0" 
d="M-176 -195v130h146v-130h-146z" />
    <glyph glyph-name="acute" unicode="&#xb4;" horiz-adv-x="270" 
d="M26 551l65 150h152l-120 -150h-97z" />
    <glyph glyph-name="breve" unicode="&#x2d8;" horiz-adv-x="422" 
d="M22 707h112c3 -39 29 -59 77 -59c49 0 74 20 77 59h112c-2 -97 -79 -156 -189 -156s-187 59 -189 156z" />
    <glyph glyph-name="caron" unicode="&#x2c7;" horiz-adv-x="496" 
d="M185 551l-155 150h112l107 -70l105 70h112l-156 -150h-125z" />
    <glyph glyph-name="cedilla" unicode="&#xb8;" horiz-adv-x="271" 
d="M30 -245v75h97c25 0 43 10 43 30c0 16 -14 30 -38 30h-57v125h72v-60c52 0 98 -32 98 -95c0 -65 -53 -105 -123 -105h-92z" />
    <glyph glyph-name="circumflex" unicode="&#x2c6;" horiz-adv-x="480" 
d="M22 551l155 150h125l156 -150h-112l-105 70l-107 -70h-112z" />
    <glyph glyph-name="dieresis" unicode="&#xa8;" horiz-adv-x="417" 
d="M29 564v131h132v-131h-132zM256 564v131h132v-131h-132z" />
    <glyph glyph-name="dotaccent" unicode="&#x2d9;" horiz-adv-x="201" 
d="M29 561v139h143v-139h-143z" />
    <glyph glyph-name="grave" unicode="`" horiz-adv-x="270" 
d="M147 551l-120 150h152l65 -150h-97z" />
    <glyph glyph-name="hungarumlaut" unicode="&#x2dd;" horiz-adv-x="477" 
d="M34 551l65 150h152l-120 -150h-97zM225 551l65 150h152l-120 -150h-97z" />
    <glyph glyph-name="macron" unicode="&#xaf;" horiz-adv-x="415" 
d="M30 565v105h355v-105h-355z" />
    <glyph glyph-name="ogonek" unicode="&#x2db;" horiz-adv-x="248" 
d="M28 -120c0 65 51 110 110 135l65 -15c-49 -28 -85 -54 -85 -90c0 -32 27 -50 55 -50h45v-80h-65c-70 0 -125 43 -125 100z" />
    <glyph glyph-name="ring" unicode="&#x2da;" horiz-adv-x="316" 
d="M29 664c0 58 54 113 129 113s129 -55 129 -113c0 -64 -53 -113 -129 -113c-75 0 -129 49 -129 113zM210 664c0 24 -22 43 -51 43c-28 0 -52 -20 -52 -43s24 -43 52 -43c29 0 51 19 51 43z" />
    <glyph glyph-name="tilde" unicode="&#x2dc;" horiz-adv-x="468" 
d="M242 575l-36 14l-15 6c-17 8 -25 10 -38 10c-21 0 -33 -19 -33 -44h-96v28c0 62 53 116 115 116c29 0 45 -4 70 -15l15 -6l34 -13c4 -1 10 -4 19 -8c21 -9 30 -12 39 -12c21 0 32 19 32 44h96v-28c0 -64 -37 -116 -109 -116c-25 0 -48 7 -93 24z" />
    <glyph glyph-name="_721" horiz-adv-x="239" 
d="M104 988l26 88h125l-72 -88h-79zM18 855c0 57 55 110 125 110s125 -53 125 -110c0 -62 -55 -110 -125 -110s-125 48 -125 110zM192 855c0 21 -21 40 -49 40c-27 0 -50 -19 -50 -40s23 -40 50 -40c28 0 49 19 49 40z" />
    <glyph glyph-name="_722" horiz-adv-x="326" 
d="M109 805l35 131h150l-106 -131h-79zM16 664c0 58 54 113 129 113s129 -55 129 -113c0 -64 -52 -113 -129 -113s-129 49 -129 113zM197 664c0 24 -23 43 -51 43s-52 -20 -52 -43s24 -43 52 -43s51 19 51 43z" />
    <glyph glyph-name="uniE000" unicode="&#xe000;" horiz-adv-x="540" 
d="M70 150v400h400v-400h-400zM145 225h250v250h-250v-250z" />
    <glyph glyph-name="uniE001" unicode="&#xe001;" horiz-adv-x="690" 
d="M70 75v550h550v-550h-550zM145 150h400v400h-400v-400z" />
    <glyph glyph-name="uniE002" unicode="&#xe002;" horiz-adv-x="880" 
d="M90 0v700h700v-700h-700zM165 75h550v550h-550v-550z" />
    <glyph glyph-name="uniE003" unicode="&#xe003;" horiz-adv-x="540" 
d="M70 150v400h400v-400h-400zM145 225h250v250h-250v-250zM220 300v100h100v-100h-100z" />
    <glyph glyph-name="uniE004" unicode="&#xe004;" horiz-adv-x="690" 
d="M70 75v550h550v-550h-550zM145 150h400v400h-400v-400zM220 225v250h250v-250h-250zM295 300h100v100h-100v-100z" />
    <glyph glyph-name="uniE005" unicode="&#xe005;" horiz-adv-x="880" 
d="M90 0v700h700v-700h-700zM165 75h550v550h-550v-550zM240 150v400h400v-400h-400zM315 225h250v250h-250v-250zM390 300v100h100v-100h-100z" />
    <glyph glyph-name="uniE006" unicode="&#xe006;" horiz-adv-x="540" 
d="M70 150v400h400v-400h-400z" />
    <glyph glyph-name="uniE007" unicode="&#xe007;" horiz-adv-x="690" 
d="M70 75v550h550v-550h-550z" />
    <glyph glyph-name="uniE008" unicode="&#xe008;" horiz-adv-x="880" 
d="M90 0v700h700v-700h-700z" />
    <glyph glyph-name="uniE010" unicode="&#xe010;" horiz-adv-x="580" 
d="M50 350c0 131 109 240 240 240s240 -109 240 -240s-109 -240 -240 -240s-240 109 -240 240zM455 350c0 91 -75 165 -165 165s-165 -74 -165 -165s74 -165 165 -165s165 74 165 165z" />
    <glyph glyph-name="uniE011" unicode="&#xe011;" horiz-adv-x="730" 
d="M50 350c-4 169 146 319 315 315c169 4 319 -146 315 -315c4 -169 -146 -319 -315 -315c-169 -4 -319 146 -315 315zM605 350c0 131 -109 240 -240 240s-240 -109 -240 -240s109 -240 240 -240s240 109 240 240z" />
    <glyph glyph-name="uniE012" unicode="&#xe012;" horiz-adv-x="880" 
d="M50 350c-5 210 181 394 390 390c209 4 395 -180 390 -390c5 -209 -181 -395 -390 -390c-209 -5 -395 181 -390 390zM755 350c4 169 -146 319 -315 315c-169 4 -319 -146 -315 -315c-4 -169 146 -319 315 -315c169 -4 319 146 315 315z" />
    <glyph glyph-name="uniE013" unicode="&#xe013;" horiz-adv-x="580" 
d="M50 350c0 131 109 240 240 240s240 -109 240 -240s-109 -240 -240 -240s-240 109 -240 240zM455 350c0 91 -75 165 -165 165s-165 -74 -165 -165s74 -165 165 -165s165 74 165 165zM200 350c0 50 42 90 90 90c49 0 90 -40 90 -90c0 -49 -41 -90 -90 -90
c-48 0 -90 41 -90 90z" />
    <glyph glyph-name="uniE014" unicode="&#xe014;" horiz-adv-x="730" 
d="M50 350c-4 169 146 319 315 315c169 4 319 -146 315 -315c4 -169 -146 -319 -315 -315c-169 -4 -319 146 -315 315zM605 350c0 131 -109 240 -240 240s-240 -109 -240 -240s109 -240 240 -240s240 109 240 240zM200 350c0 91 75 165 165 165s165 -74 165 -165
s-75 -165 -165 -165s-165 74 -165 165zM455 350c0 50 -40 90 -90 90c-49 0 -90 -40 -90 -90c0 -49 41 -90 90 -90c50 0 90 41 90 90z" />
    <glyph glyph-name="uniE015" unicode="&#xe015;" horiz-adv-x="880" 
d="M50 350c-5 210 181 394 390 390c209 4 395 -180 390 -390c5 -209 -181 -395 -390 -390c-209 -5 -395 181 -390 390zM755 350c4 169 -146 319 -315 315c-169 4 -319 -146 -315 -315c-4 -169 146 -319 315 -315c169 -4 319 146 315 315zM200 350c0 131 109 240 240 240
s240 -109 240 -240s-109 -240 -240 -240s-240 109 -240 240zM605 350c0 91 -75 165 -165 165s-165 -74 -165 -165s74 -165 165 -165s165 74 165 165zM350 350c0 50 42 90 90 90c50 0 90 -40 90 -90c0 -49 -40 -90 -90 -90c-48 0 -90 41 -90 90z" />
    <glyph glyph-name="uniE016" unicode="&#xe016;" horiz-adv-x="640" 
d="M80 350c0 131 109 240 240 240s240 -109 240 -240s-109 -240 -240 -240s-240 109 -240 240z" />
    <glyph glyph-name="uniE017" unicode="&#xe017;" horiz-adv-x="700" 
d="M50 350c-4 161 139 303 300 300c161 3 303 -139 300 -300c3 -161 -139 -304 -300 -300c-161 -4 -304 139 -300 300z" />
    <glyph glyph-name="uniE018" unicode="&#xe018;" horiz-adv-x="820" 
d="M50 350c-4 193 166 364 360 360c193 4 364 -167 360 -360c4 -194 -167 -364 -360 -360c-194 -4 -364 166 -360 360z" />
    <glyph glyph-name="uniE00A" unicode="&#xe00a;" horiz-adv-x="434" 
d="M103 -20c0 33 9 61 36 90c-60 13 -81 54 -81 109v342c0 56 21 101 81 114c-27 28 -36 53 -36 85c0 78 64 125 140 125h157v-105h-119c-27 0 -46 -15 -46 -36v-8c0 -21 19 -36 46 -36h44v-105h-73c-41 0 -62 -19 -62 -58v-294c0 -39 21 -58 62 -58h73v-105h-45
c-27 0 -45 -15 -45 -36v-8c0 -21 18 -36 45 -36h120v-105h-155c-76 0 -142 47 -142 125z" />
    <glyph glyph-name="uniE00B" unicode="&#xe00b;" horiz-adv-x="434" 
d="M331 720c0 -33 -9 -61 -36 -90c60 -13 81 -54 81 -109v-342c0 -56 -21 -101 -81 -114c27 -28 36 -53 36 -85c0 -78 -64 -125 -140 -125h-157v105h119c27 0 46 15 46 36v8c0 21 -19 36 -46 36h-44v105h73c41 0 62 19 62 58v294c0 39 -21 58 -62 58h-73v105h45
c27 0 45 15 45 36v8c0 21 -18 36 -45 36h-120v105h155c76 0 142 -47 142 -125z" />
    <glyph glyph-name="uniE00A.case" horiz-adv-x="447" 
d="M93 133c0 49 23 86 54 102c-60 9 -98 56 -98 117c0 60 38 100 99 108c-31 17 -55 57 -55 108c0 75 63 132 148 132h151v-105h-116c-29 0 -51 -14 -51 -39c0 -29 22 -46 51 -46h46v-105h-78c-40 0 -63 -20 -63 -53s24 -57 63 -57h78v-105h-46c-29 0 -51 -16 -51 -44
c0 -27 22 -41 51 -41h116v-105h-145c-85 0 -154 58 -154 133z" />
    <glyph glyph-name="uniE00B.case" horiz-adv-x="447" 
d="M354 567c0 -49 -23 -86 -54 -102c60 -9 98 -56 98 -117c0 -60 -38 -100 -99 -108c31 -17 55 -57 55 -108c0 -75 -63 -132 -148 -132h-151v105h116c29 0 51 14 51 39c0 29 -22 46 -51 46h-46v105h78c40 0 63 20 63 53s-24 57 -63 57h-78v105h46c29 0 51 16 51 44
c0 27 -22 41 -51 41h-116v105h145c85 0 154 -58 154 -133z" />
    </font>
</defs>
</svg>
